<svg xmlns="http://www.w3.org/2000/svg" viewBox="0 0 101 101"><defs><style>.cls-1{fill:none;stroke:#000;stroke-miterlimit:10;}</style></defs><title>Artboard7</title><g id="Layer_2" data-name="Layer 2"><g id="Layer_1-2" data-name="Layer 1"><rect class="cls-1" x="45.14" y="45.32" width="10.36" height="10.36"/><path class="cls-1" d="M45.14,45.32H.77a49.82,49.82,0,0,0,0,10.36H45.14Z"/><path class="cls-1" d="M55.5,55.68h44.73a49.82,49.82,0,0,0,0-10.36H55.5Z"/><path class="cls-1" d="M55.5,45.32V.75C53.86.59,52.19.5,50.5.5a50,50,0,0,0-5.36.29V45.32Z"/><path class="cls-1" d="M45.14.79A50,50,0,0,0,.77,45.32H45.14Z"/><path class="cls-1" d="M55.5.75V45.32h44.73A50,50,0,0,0,55.5.75Z"/><path class="cls-1" d="M45.14,55.68v44.53a50,50,0,0,0,5.36.29c1.69,0,3.36-.09,5-.25V55.68Z"/><path class="cls-1" d="M.77,55.68a50,50,0,0,0,44.37,44.53V55.68Z"/><path class="cls-1" d="M55.5,100.25a50,50,0,0,0,44.73-44.57H55.5Z"/></g></g></svg>