<svg xmlns="http://www.w3.org/2000/svg" viewBox="0 0 101 101"><defs><style>.cls-1,.cls-2{stroke:#000;stroke-miterlimit:10;}.cls-2{fill:none;}</style></defs><title>Artboard5</title><g id="Layer_2" data-name="Layer 2"><g id="Layer_1-2" data-name="Layer 1"><path class="cls-1" d="M.5,50.5c0,1.69.09,3.36.25,5h99.5c.16-1.64.25-3.31.25-5a50,50,0,0,0-.29-5.36H.79A50,50,0,0,0,.5,50.5Z"/><path class="cls-2" d="M50.5.5A50,50,0,0,0,.79,45.14h99.42A50,50,0,0,0,50.5.5Z"/><path class="cls-2" d="M50.5,100.5a50,50,0,0,0,49.75-45H.75A50,50,0,0,0,50.5,100.5Z"/></g></g></svg>