<svg xmlns="http://www.w3.org/2000/svg" viewBox="0 0 171.71 171.71"><defs><style>.cls-1{fill:none;stroke:#000;stroke-miterlimit:10;}</style></defs><title>Artboard1</title><g id="Layer_2" data-name="Layer 2"><g id="Layer_1-2" data-name="Layer 1"><polyline class="cls-1" points="85.86 135.85 35.85 85.86 85.86 35.85 135.85 85.86"/><line class="cls-1" x1="35.86" y1="85.86" x2="135.86" y2="85.86"/><line class="cls-1" x1="85.86" y1="35.86" x2="85.86" y2="135.86"/><line class="cls-1" x1="55.15" y1="116.56" x2="116.56" y2="55.15"/><line class="cls-1" x1="85.86" y1="85.86" x2="55.45" y2="55.45"/><polyline class="cls-1" points="85.86 35.85 50.5 0.5 0.5 0.5 0.5 50.5 35.85 85.86"/><polyline class="cls-1" points="135.85 85.86 171.21 50.5 171.21 0.5 121.21 0.5 85.86 35.85"/><polyline class="cls-1" points="35.85 85.86 0.5 121.21 0.5 171.21 50.5 171.21 85.86 135.85"/><polyline class="cls-1" points="116.56 25.15 116.56 55.15 146.56 55.15"/><polyline class="cls-1" points="55.15 146.56 55.15 116.56 25.15 116.56"/><polyline class="cls-1" points="25.45 55.45 55.45 55.45 55.45 25.45"/><polyline class="cls-1" points="131.56 30.15 131.56 40.15 141.56 40.15"/><polyline class="cls-1" points="40.15 141.56 40.15 131.56 30.15 131.56"/><polyline class="cls-1" points="30.45 40.45 40.45 40.45 40.45 30.45"/></g></g></svg>