<svg id="Layer_1" data-name="Layer 1" xmlns="http://www.w3.org/2000/svg" viewBox="0 0 200 200"><title>Artboard 1</title><path d="M100.32,50.59l49.41,98.25-99.2.21,49.79-98.46m0-.56L50.13,149.3l100-.21L100.32,50Z"/><path d="M90.94,106.25l19.5.29-.29,19.5-19.5-.29.29-19.5m-.25-.25-.29,20,20,.29.29-20-20-.29Z"/><path d="M93.41,106.29l17,.25-.29,19.5-19.5-.29.23-15.61,2.53-3.85m-.14-.25-2.63,4L90.4,126l20,.29.29-20L93.27,106Z"/><path d="M95.09,106.31l15.35.23-.29,19.5-19.5-.29.2-13,4.24-6.47m-.14-.25L90.6,112.7,90.4,126l20,.29.29-20L95,106.06Z"/><path d="M97.23,106.35l13.21.19-.29,19.5-19.5-.29.15-9.61,6.43-9.79m-.14-.26-6.54,10L90.4,126l20,.29.29-20-13.6-.2Z"/><path d="M99.39,106.38l11,.16-.29,19.5-19.5-.29.1-6.21,8.64-13.16m-.14-.25L90.5,119.46,90.4,126l20,.29.29-20-11.44-.16Z"/><path d="M101.53,106.41l8.91.13-.29,19.5-19.5-.29,0-2.86,10.83-16.48m-.14-.25L90.45,122.82l0,3.18,20,.29.29-20-9.3-.13Z"/><path d="M103.69,106.44l6.75.1-.29,19.5L91,125.76l12.69-19.32m-.14-.25L90.54,126l19.86.29.29-20-7.14-.1Z"/><path d="M105.83,106.47l4.61.07-.29,19.5-17-.25,12.69-19.32m-.14-.25L92.68,126l17.72.26.29-20-5-.07Z"/><path d="M108,106.5l2.47,0-.29,19.5-14.85-.22L108,106.5m-.14-.25-13,19.81,15.56.23.29-20-2.86,0Z"/><path d="M110.11,106.54h.33l-.29,19.5-12.71-.19,12.67-19.31m-.14-.26L97,126.09l13.42.2.29-20Z"/><path d="M110.4,109.43,110.15,126l-10.57-.16,10.82-16.45m.26-.86L99.12,126.13l11.28.16.26-17.72Z"/><path d="M110.35,112.79l-.2,13.25-8.43-.13,8.63-13.12m.26-.86-9.35,14.23,9.14.13.21-14.36Z"/><path d="M110.3,116.17l-.15,9.87-6.29-.09,6.44-9.78m.26-.86-7.16,10.88,7,.1.16-11Z"/><path d="M110.25,119.53l-.1,6.51L106,126l4.23-6.45m.26-.86-5,7.55,4.84.07.11-7.62Z"/><path d="M110.2,122.91l0,3.13-2,0,2-3.1m.26-.86-2.76,4.2,2.7,0,.06-4.24Z"/></svg>