<svg id="Layer_1" data-name="Layer 1" xmlns="http://www.w3.org/2000/svg" viewBox="0 0 162.33 200"><defs><style>.cls-1{fill:none;stroke:#000;stroke-miterlimit:10;stroke-width:2px;}</style></defs><title>Artboard4</title><path d="M80.74,53.38,100.4,95.26l1.13,2.42,2.64.4,44.46,6.79L116.29,138l-1.76,1.81.41,2.49,7.58,46.46L83.16,167l-2.42-1.34L78.32,167,39,188.77l7.58-46.46.41-2.49L45.19,138,12.86,104.87l44.46-6.79,2.63-.4,1.14-2.42L80.74,53.38m0-11.76L56.56,93.14,2.49,101.4l39.12,40.1-9.23,56.63,48.36-26.74,48.37,26.74-9.24-56.63L159,101.4l-54.07-8.26L80.74,41.62Z"/><path class="cls-1" d="M125.33,41.19v.13h-90a32.43,32.43,0,0,1,1.83-10.74,34.37,34.37,0,0,1,3.08-6.52,37.93,37.93,0,0,1,4.17-5.61,40.92,40.92,0,0,1,5.1-4.81,43.61,43.61,0,0,1,6-4,47.43,47.43,0,0,1,7-3.21A49.72,49.72,0,0,1,70.72,4.2a52.2,52.2,0,0,1,9.61-.88h.16A52.8,52.8,0,0,1,93.14,4.89c14.55,3.64,26,13.33,30.34,25.62A32.14,32.14,0,0,1,125.33,41.19Z"/><path class="cls-1" d="M123.48,30.51,93.14,4.89C107.69,8.53,119.17,18.22,123.48,30.51Z"/><path class="cls-1" d="M125.33,41.19,80.49,3.32A52.8,52.8,0,0,1,93.14,4.89c14.55,3.64,26,13.33,30.34,25.62A32.14,32.14,0,0,1,125.33,41.19Z"/><path class="cls-1" d="M125.33,41.19v.13H114.69L70.72,4.2a52.2,52.2,0,0,1,9.61-.88h.16A52.8,52.8,0,0,1,93.14,4.89c14.55,3.64,26,13.33,30.34,25.62A32.14,32.14,0,0,1,125.33,41.19Z"/><path class="cls-1" d="M125.33,41.19v.13H103.89L62.54,6.41A49.72,49.72,0,0,1,70.72,4.2a52.2,52.2,0,0,1,9.61-.88h.16A52.8,52.8,0,0,1,93.14,4.89c14.55,3.64,26,13.33,30.34,25.62A32.14,32.14,0,0,1,125.33,41.19Z"/><path class="cls-1" d="M125.33,41.19v.13H93.09L55.54,9.62a47.43,47.43,0,0,1,7-3.21A49.72,49.72,0,0,1,70.72,4.2a52.2,52.2,0,0,1,9.61-.88h.16A52.8,52.8,0,0,1,93.14,4.89c14.55,3.64,26,13.33,30.34,25.62A32.14,32.14,0,0,1,125.33,41.19Z"/><path class="cls-1" d="M125.33,41.19v.13h-43L49.51,13.64a43.61,43.61,0,0,1,6-4,47.43,47.43,0,0,1,7-3.21A49.72,49.72,0,0,1,70.72,4.2a52.2,52.2,0,0,1,9.61-.88h.16A52.8,52.8,0,0,1,93.14,4.89c14.55,3.64,26,13.33,30.34,25.62A32.14,32.14,0,0,1,125.33,41.19Z"/><path class="cls-1" d="M125.33,41.19v.13H71.49L44.41,18.45a40.92,40.92,0,0,1,5.1-4.81,43.61,43.61,0,0,1,6-4,47.43,47.43,0,0,1,7-3.21A49.72,49.72,0,0,1,70.72,4.2a52.2,52.2,0,0,1,9.61-.88h.16A52.8,52.8,0,0,1,93.14,4.89c14.55,3.64,26,13.33,30.34,25.62A32.14,32.14,0,0,1,125.33,41.19Z"/><path class="cls-1" d="M125.33,41.19v.13H60.69L40.24,24.06a37.93,37.93,0,0,1,4.17-5.61,40.92,40.92,0,0,1,5.1-4.81,43.61,43.61,0,0,1,6-4,47.43,47.43,0,0,1,7-3.21A49.72,49.72,0,0,1,70.72,4.2a52.2,52.2,0,0,1,9.61-.88h.16A52.8,52.8,0,0,1,93.14,4.89c14.55,3.64,26,13.33,30.34,25.62A32.14,32.14,0,0,1,125.33,41.19Z"/><path class="cls-1" d="M125.33,41.19v.13H49.89L37.16,30.58a34.37,34.37,0,0,1,3.08-6.52,37.93,37.93,0,0,1,4.17-5.61,40.92,40.92,0,0,1,5.1-4.81,43.61,43.61,0,0,1,6-4,47.43,47.43,0,0,1,7-3.21A49.72,49.72,0,0,1,70.72,4.2a52.2,52.2,0,0,1,9.61-.88h.16A52.8,52.8,0,0,1,93.14,4.89c14.55,3.64,26,13.33,30.34,25.62A32.14,32.14,0,0,1,125.33,41.19Z"/></svg>