<svg id="Layer_1" data-name="Layer 1" xmlns="http://www.w3.org/2000/svg" viewBox="0 0 200 85.88"><defs><style>.cls-1{fill:none;stroke:#000;stroke-miterlimit:10;}</style></defs><title>Artboard3</title><path d="M100,9.41c49.07,0,89.37,30.2,92.64,68.28H7.36C10.63,39.61,50.93,9.41,100,9.41m0-5c-54.11,0-97.85,35-97.85,78.28h195.7C197.85,39.38,154,4.41,100,4.41Z"/><polygon class="cls-1" points="125 36.79 121.88 39.21 119.92 40.72 117.9 42.29 115.79 43.93 113.67 45.57 111.56 47.2 109.64 48.69 109.79 49.19 111.54 54.69 113.29 60.18 115.04 65.68 115.67 67.69 106.17 60.56 100.14 56.04 98.26 57.5 96.12 59.16 94.26 60.6 92 62.35 89.74 64.09 87.49 65.84 84.78 67.94 85.9 64.2 86.84 61.09 87.78 57.97 88.72 54.86 89.49 52.3 90.38 49.35 90.54 48.84 88.19 47.09 76.07 37.99 75 37.19 76.92 37.18 78.61 37.16 82.74 37.13 86.46 37.1 90.17 37.07 93.89 37.04 94.1 37.04 94.92 34.31 95.79 31.44 96.66 28.55 97.53 25.67 98.4 22.79 99.86 17.94 102.81 27.2 104.56 32.7 105.91 36.94 108.78 36.92 112.5 36.89 116.06 36.86 119.51 36.84 125 36.79"/><polygon class="cls-1" points="119.51 36.84 125 36.79 121.88 39.21 119.51 36.84"/><polygon class="cls-1" points="119.51 36.84 125 36.79 121.88 39.21 119.92 40.72 116.06 36.86 119.51 36.84"/><polygon class="cls-1" points="99.86 17.94 102.81 27.2 98.4 22.79 99.86 17.94"/><polygon class="cls-1" points="119.51 36.84 125 36.79 121.88 39.21 119.92 40.72 117.9 42.29 112.5 36.89 116.06 36.86 119.51 36.84"/><polygon class="cls-1" points="102.81 27.2 104.56 32.7 97.53 25.67 98.4 22.79 99.86 17.94 102.81 27.2"/><polygon class="cls-1" points="119.51 36.84 125 36.79 121.88 39.21 119.92 40.72 117.9 42.29 115.79 43.93 108.78 36.92 112.5 36.89 116.06 36.86 119.51 36.84"/><polygon class="cls-1" points="119.51 36.84 125 36.79 121.88 39.21 119.92 40.72 117.9 42.29 115.79 43.93 113.67 45.57 96.66 28.55 97.53 25.67 98.4 22.79 99.86 17.94 102.81 27.2 104.56 32.7 105.91 36.94 108.78 36.92 112.5 36.89 116.06 36.86 119.51 36.84"/><polygon class="cls-1" points="119.51 36.84 125 36.79 121.88 39.21 119.92 40.72 117.9 42.29 115.79 43.93 113.67 45.57 111.56 47.2 95.79 31.44 96.66 28.55 97.53 25.67 98.4 22.79 99.86 17.94 102.81 27.2 104.56 32.7 105.91 36.94 108.78 36.92 112.5 36.89 116.06 36.86 119.51 36.84"/><polygon class="cls-1" points="119.51 36.84 125 36.79 121.88 39.21 119.92 40.72 117.9 42.29 115.79 43.93 113.67 45.57 111.56 47.2 109.64 48.69 109.79 49.19 94.92 34.31 95.79 31.44 96.66 28.55 97.53 25.67 98.4 22.79 99.86 17.94 102.81 27.2 104.56 32.7 105.91 36.94 108.78 36.92 112.5 36.89 116.06 36.86 119.51 36.84"/><polygon class="cls-1" points="119.51 36.84 125 36.79 121.88 39.21 119.92 40.72 117.9 42.29 115.79 43.93 113.67 45.57 111.56 47.2 109.64 48.69 109.79 49.19 111.54 54.69 93.89 37.04 94.1 37.04 94.92 34.31 95.79 31.44 96.66 28.55 97.53 25.67 98.4 22.79 99.86 17.94 102.81 27.2 104.56 32.7 105.91 36.94 108.78 36.92 112.5 36.89 116.06 36.86 119.51 36.84"/><polygon class="cls-1" points="119.51 36.84 125 36.79 121.88 39.21 119.92 40.72 117.9 42.29 115.79 43.93 113.67 45.57 111.56 47.2 109.64 48.69 109.79 49.19 111.54 54.69 113.29 60.18 90.17 37.07 93.89 37.04 94.1 37.04 94.92 34.31 95.79 31.44 96.66 28.55 97.53 25.67 98.4 22.79 99.86 17.94 102.81 27.2 104.56 32.7 105.91 36.94 108.78 36.92 112.5 36.89 116.06 36.86 119.51 36.84"/><polygon class="cls-1" points="119.51 36.84 125 36.79 121.88 39.21 119.92 40.72 117.9 42.29 115.79 43.93 113.67 45.57 111.56 47.2 109.64 48.69 109.79 49.19 111.54 54.69 113.29 60.18 115.04 65.68 86.46 37.1 90.17 37.07 93.89 37.04 94.1 37.04 94.92 34.31 95.79 31.44 96.66 28.55 97.53 25.67 98.4 22.79 99.86 17.94 102.81 27.2 104.56 32.7 105.91 36.94 108.78 36.92 112.5 36.89 116.06 36.86 119.51 36.84"/><polygon class="cls-1" points="125 36.79 121.88 39.21 119.92 40.72 117.9 42.29 115.79 43.93 113.67 45.57 111.56 47.2 109.64 48.69 109.79 49.19 111.54 54.69 113.29 60.18 115.04 65.68 115.67 67.69 106.17 60.56 82.74 37.13 86.46 37.1 90.17 37.07 93.89 37.04 94.1 37.04 94.92 34.31 95.79 31.44 96.66 28.55 97.53 25.67 98.4 22.79 99.86 17.94 102.81 27.2 104.56 32.7 105.91 36.94 108.78 36.92 112.5 36.89 116.06 36.86 119.51 36.84 125 36.79"/><polyline class="cls-1" points="76.07 37.99 88.19 47.09 78.61 37.16 76.92 37.18"/><polygon class="cls-1" points="98.26 57.5 96.12 59.16 94.26 60.6 92 62.35 89.74 64.09 87.49 65.84 84.78 67.94 85.9 64.2 86.84 61.09 87.78 57.97 88.72 54.86 89.49 52.3 90.38 49.35 98.26 57.5"/><polygon class="cls-1" points="96.12 59.16 94.26 60.6 92 62.35 89.74 64.09 87.49 65.84 84.78 67.94 85.9 64.2 86.84 61.09 87.78 57.97 88.72 54.86 89.49 52.3 96.12 59.16"/><polygon class="cls-1" points="94.26 60.6 92 62.35 89.74 64.09 87.49 65.84 84.78 67.94 85.9 64.2 86.84 61.09 87.78 57.97 88.72 54.86 94.26 60.6"/><polygon class="cls-1" points="92 62.35 89.74 64.09 87.49 65.84 84.78 67.94 85.9 64.2 86.84 61.09 87.78 57.97 92 62.35"/><polygon class="cls-1" points="89.74 64.09 87.49 65.84 84.78 67.94 85.9 64.2 86.84 61.09 89.74 64.09"/><polygon class="cls-1" points="87.49 65.84 84.78 67.94 85.9 64.2 87.49 65.84"/></svg>