<svg id="Layer_1" data-name="Layer 1" xmlns="http://www.w3.org/2000/svg" viewBox="0 0 200 160"><defs><style>.cls-1{fill:none;stroke:#000;stroke-miterlimit:10;stroke-width:5px;}</style></defs><title>Artboard2</title><path d="M122.5,1.67l-1.3,3.1-.09.21-1,2.43-.28.67-.72,1.73-.64,1.54-.35.88-1,2.42-1,2.39-.35.86-.68,1.56-.71,1.75-.28.66-1,2.41-.09.21-.92,2.22-.44,1.08-.55,1.34-.8,1.9-.23.51-1,2.41-.16.4-.83,2-.53,1.27-.47,1.14-.92,2.16-.11.26-1,2.39-.24.6L104,46l-.61,1.49-.39.93-1,2.38v0l-1,2.4-.34.79L100,55.66v0L99.32,54,98,50.74l-.5-1.18-.86-2.08-1.39-3.3L93.85,40.9l-.16-.37-1.22-2.92-1.36-3.26L89.92,31.5l-.19-.45-1.36-3.26L87,24.47l-.83-1.94-.53-1.32-1.38-3.3-1.36-3.26-.47-1.11-.92-2.19L80.17,8.09,78.81,4.78l-.11-.27L77.5,1.67h45m1.5-1H76L77.77,4.9l.11.27,1.36,3.3,1.36,3.26.92,2.19L82,15l1.35,3.27,1.39,3.3.53,1.31.83,2,1.36,3.3,1.35,3.26.2.46,1.19,2.84L91.55,38l1.22,2.92.16.38,1.36,3.26,1.39,3.31.86,2.07L97,51.13l1.36,3.26L100,58.27l.94-2.22.67-1.66.33-.76,1-2.42,0-.08,1-2.34.38-.92.61-1.5.78-1.81L106,44l1-2.38.11-.27.91-2.15.47-1.15.53-1.27.83-2,.17-.42,1-2.38.23-.5.8-1.92.55-1.34.45-1.08.91-2.22.09-.2,1-2.42.28-.65.72-1.77.67-1.53.36-.88L118,15l1-2.41.36-.89L120,10.2l.72-1.73.27-.69,1-2.42.09-.19L124,.67Z"/><path d="M122.5,1.67l-.7,1.67-1.21-1.67h1.91m1.5-1h-5.38L122,5.36l.09-.19L124,.67Z"/><path d="M122.5,1.67l-1.3,3.1-.09.21-1,2.43-.28.67,0,.09-4.7-6.5h7.4m1.5-1H113.14L120,10.2l.72-1.73.27-.69,1-2.42.09-.19L124,.67Z"/><path d="M122.5,1.67l-1.3,3.1-.09.21-1,2.43-.28.67-.72,1.73-.64,1.54-.35.88-.33.78L109.6,1.67h12.9m1.5-1H107.65L118,15l1-2.41.36-.89L120,10.2l.72-1.73.27-.69,1-2.42.09-.19L124,.67Z"/><path d="M122.5,1.67l-1.3,3.1-.09.21-1,2.43-.28.67-.72,1.73-.64,1.54-.35.88-1,2.42-1,2.39-.32.78L104.12,1.67H122.5m1.5-1H102.16L116,19.83l.67-1.53.36-.88L118,15l1-2.41.36-.89L120,10.2l.72-1.73.27-.69,1-2.42.09-.19L124,.67Z"/><path d="M122.5,1.67l-1.3,3.1-.09.21-1,2.43-.28.67-.72,1.73-.64,1.54-.35.88-1,2.42-1,2.39-.35.86-.68,1.56-.71,1.75-.28.66-.31.76-15.13-21H122.5m1.5-1H96.67l17.33,24,1-2.42.28-.65.72-1.77.67-1.53.36-.88L118,15l1-2.41.36-.89L120,10.2l.72-1.73.27-.69,1-2.42.09-.19L124,.67Z"/><path d="M122.5,1.67l-1.3,3.1-.09.21-1,2.43-.28.67-.72,1.73-.64,1.54-.35.88-1,2.42-1,2.39-.35.86-.68,1.56-.71,1.75-.28.66-1,2.41-.09.21-.92,2.22-.31.76L93.14,1.67H122.5m1.5-1H91.19L112,29.51l.55-1.34.45-1.08.91-2.22.09-.2,1-2.42.28-.65.72-1.77.67-1.53.36-.88L118,15l1-2.41.36-.89L120,10.2l.72-1.73.27-.69,1-2.42.09-.19L124,.67Z"/><path d="M122.5,1.67l-1.3,3.1-.09.21-1,2.43-.28.67-.72,1.73-.64,1.54-.35.88-1,2.42-1,2.39-.35.86-.68,1.56-.71,1.75-.28.66-1,2.41-.09.21-.92,2.22-.44,1.08-.55,1.34-.8,1.9-.23.51-.31.74L87.65,1.67H122.5m1.5-1H85.7L110,34.31l1-2.38.23-.5.8-1.92.55-1.34.45-1.08.91-2.22.09-.2,1-2.42.28-.65.72-1.77.67-1.53.36-.88L118,15l1-2.41.36-.89L120,10.2l.72-1.73.27-.69,1-2.42.09-.19L124,.67Z"/><path d="M122.5,1.67l-1.3,3.1-.09.21-1,2.43-.28.67-.72,1.73-.64,1.54-.35.88-1,2.42-1,2.39-.35.86-.68,1.56-.71,1.75-.28.66-1,2.41-.09.21-.92,2.22-.44,1.08-.55,1.34-.8,1.9-.23.51-1,2.41-.16.4-.83,2-.32.76L82.17,1.67H122.5m1.5-1H80.21L108,39.15l.47-1.15.53-1.27.83-2,.17-.42,1-2.38.23-.5.8-1.92.55-1.34.45-1.08.91-2.22.09-.2,1-2.42.28-.65.72-1.77.67-1.53.36-.88L118,15l1-2.41.36-.89L120,10.2l.72-1.73.27-.69,1-2.42.09-.19L124,.67Z"/><path d="M122.5,1.67l-1.3,3.1-.09.21-1,2.43-.28.67-.72,1.73-.64,1.54-.35.88-1,2.42-1,2.39-.35.86-.68,1.56-.71,1.75-.28.66-1,2.41-.09.21-.92,2.22-.44,1.08-.55,1.34-.8,1.9-.23.51-1,2.41-.16.4-.83,2-.53,1.27-.47,1.14-.92,2.16-.11.26-.3.74L78.65,4.4,77.5,1.67h45m1.5-1H76L77.77,4.9,106,44l1-2.38.11-.27.91-2.15.47-1.15.53-1.27.83-2,.17-.42,1-2.38.23-.5.8-1.92.55-1.34.45-1.08.91-2.22.09-.2,1-2.42.28-.65.72-1.77.67-1.53.36-.88L118,15l1-2.41.36-.89L120,10.2l.72-1.73.27-.69,1-2.42.09-.19L124,.67Z"/><path d="M122.5,1.67l-1.3,3.1-.09.21-1,2.43-.28.67-.72,1.73-.64,1.54-.35.88-1,2.42-1,2.39-.35.86-.68,1.56-.71,1.75-.28.66-1,2.41-.09.21-.92,2.22-.44,1.08-.55,1.34-.8,1.9-.23.51-1,2.41-.16.4-.83,2-.53,1.27-.47,1.14-.92,2.16-.11.26-1,2.39-.24.6L104,46l-.31.76L86.14,22.42l-.49-1.21-1.38-3.3-1.36-3.26-.47-1.11-.92-2.19L80.17,8.09,78.81,4.78l-.11-.27L77.5,1.67h45m1.5-1H76L77.77,4.9l.11.27,1.36,3.3,1.36,3.26.92,2.19L82,15l1.35,3.27,1.39,3.3.53,1.31,18.68,25.88.38-.92.61-1.5.78-1.81L106,44l1-2.38.11-.27.91-2.15.47-1.15.53-1.27.83-2,.17-.42,1-2.38.23-.5.8-1.92.55-1.34.45-1.08.91-2.22.09-.2,1-2.42.28-.65.72-1.77.67-1.53.36-.88L118,15l1-2.41.36-.89L120,10.2l.72-1.73.27-.69,1-2.42.09-.19L124,.67Z"/><path d="M122.5,1.67l-1.3,3.1-.09.21-1,2.43-.28.67-.72,1.73-.64,1.54-.35.88-1,2.42-1,2.39-.35.86-.68,1.56-.71,1.75-.28.66-1,2.41-.09.21-.92,2.22-.44,1.08-.55,1.34-.8,1.9-.23.51-1,2.41-.16.4-.83,2-.53,1.27-.47,1.14-.92,2.16-.11.26-1,2.39-.24.6L104,46l-.61,1.49-.39.93-1,2.38v0l-.31.76-8-11.17-1.18-2.81-1.36-3.26L89.92,31.5l-.19-.45-1.36-3.26L87,24.47l-.83-1.94-.53-1.32-1.38-3.3-1.36-3.26-.47-1.11-.92-2.19L80.17,8.09,78.81,4.78l-.11-.27L77.5,1.67h45m1.5-1H76L77.77,4.9l.11.27,1.36,3.3,1.36,3.26.92,2.19L82,15l1.35,3.27,1.39,3.3.53,1.31.83,2,1.36,3.3,1.35,3.26.2.46,1.19,2.84L91.55,38l1.22,2.92,9.17,12.71,1-2.42,0-.08,1-2.34.38-.92.61-1.5.78-1.81L106,44l1-2.38.11-.27.91-2.15.47-1.15.53-1.27.83-2,.17-.42,1-2.38.23-.5.8-1.92.55-1.34.45-1.08.91-2.22.09-.2,1-2.42.28-.65.72-1.77.67-1.53.36-.88L118,15l1-2.41.36-.89L120,10.2l.72-1.73.27-.69,1-2.42.09-.19L124,.67Z"/><rect class="cls-1" x="4" y="60.86" width="192" height="96"/></svg>