<svg id="Layer_1" data-name="Layer 1" xmlns="http://www.w3.org/2000/svg" viewBox="0 0 200 200"><title>Artboard 6</title><path d="M129.75,25.17a19.57,19.57,0,0,1-.15,2.1,18.13,18.13,0,0,1-.95,4.28,17.73,17.73,0,0,1-1.42,3.34,19.26,19.26,0,0,1-1.91,3,18.78,18.78,0,0,1-1.89,2.3,28.23,28.23,0,0,1-2.09,1.95,22.93,22.93,0,0,1-2.19,1.73c-.92.61-1.63,1-2.33,1.45s-1.68.92-2.4,1.28c-.87.38-1.7.71-2.54,1a18.71,18.71,0,0,1-2.65.83c-.82.23-1.73.44-2.71.62a21.26,21.26,0,0,1-2.83.41,24.74,24.74,0,0,1-3,.17,4.29,4.29,0,0,1-.74,0c-.8,0-1.63-.05-2.3-.09a24.74,24.74,0,0,1-3.18-.33,28.53,28.53,0,0,1-3.34-.7,24.43,24.43,0,0,1-3.57-1.16,28.9,28.9,0,0,1-8.3-4.67c-5.77-4.69-9-10.91-9.06-17.55h59.5m.25-.25H70c0,7.08,3.51,13.41,9.15,18a30.39,30.39,0,0,0,4.47,3,29.4,29.4,0,0,0,3.9,1.75,25.25,25.25,0,0,0,3.6,1.16,30.31,30.31,0,0,0,3.36.71,25.65,25.65,0,0,0,3.21.33c.75,0,1.53.09,2.31.09a3.94,3.94,0,0,0,.78-.05,23.81,23.81,0,0,0,2.94-.16,22.5,22.5,0,0,0,2.85-.42c.93-.17,1.86-.37,2.73-.62a18.42,18.42,0,0,0,2.67-.84,26.41,26.41,0,0,0,2.55-1c.84-.41,1.65-.83,2.43-1.29s1.59-1,2.34-1.46a21.1,21.1,0,0,0,2.22-1.75c.75-.62,1.44-1.29,2.1-1.95A21.31,21.31,0,0,0,125.53,38a20,20,0,0,0,1.92-3,17.62,17.62,0,0,0,1.44-3.38,18.78,18.78,0,0,0,1-4.33,20.37,20.37,0,0,0,.15-2.37Z"/><path d="M122.46,25.17,127.17,35a19.48,19.48,0,0,1-1.85,2.9,18.78,18.78,0,0,1-1.89,2.3,28.23,28.23,0,0,1-2.09,1.95,22.93,22.93,0,0,1-2.19,1.73c-.92.61-1.63,1-2.33,1.45s-1.68.92-2.4,1.28c-.87.38-1.7.71-2.54,1a18.71,18.71,0,0,1-2.65.83c-.82.23-1.73.44-2.71.62a21.26,21.26,0,0,1-2.83.41,24.74,24.74,0,0,1-3,.17,4.29,4.29,0,0,1-.74,0c-.8,0-1.63-.05-2.3-.09a24.74,24.74,0,0,1-3.18-.33,28.53,28.53,0,0,1-3.34-.7,24.43,24.43,0,0,1-3.57-1.16,29.24,29.24,0,0,1-3.87-1.73,30,30,0,0,1-4.39-2.9L70.91,25.17h51.55m.16-.25H70.51l8.64,18a30.39,30.39,0,0,0,4.47,3,29.4,29.4,0,0,0,3.9,1.75,25.25,25.25,0,0,0,3.6,1.16,30.31,30.31,0,0,0,3.36.71,25.65,25.65,0,0,0,3.21.33c.75,0,1.53.09,2.31.09a3.94,3.94,0,0,0,.78-.05,23.81,23.81,0,0,0,2.94-.16,22.5,22.5,0,0,0,2.85-.42c.93-.17,1.86-.37,2.73-.62a18.42,18.42,0,0,0,2.67-.84,26.41,26.41,0,0,0,2.55-1c.84-.41,1.65-.83,2.43-1.29s1.59-1,2.34-1.46a21.1,21.1,0,0,0,2.22-1.75c.75-.62,1.44-1.29,2.1-1.95A21.31,21.31,0,0,0,125.53,38a20,20,0,0,0,1.92-3l-4.83-10.08Z"/><path d="M125.52,25.17l3.1,6.47a18.17,18.17,0,0,1-1.39,3.25,19.26,19.26,0,0,1-1.91,3,18.78,18.78,0,0,1-1.89,2.3,28.23,28.23,0,0,1-2.09,1.95,22.93,22.93,0,0,1-2.19,1.73c-.92.61-1.63,1-2.33,1.45s-1.68.92-2.4,1.28c-.87.38-1.7.71-2.54,1a18.71,18.71,0,0,1-2.65.83c-.82.23-1.73.44-2.71.62a21.26,21.26,0,0,1-2.83.41,24.74,24.74,0,0,1-3,.17,4.29,4.29,0,0,1-.74,0c-.8,0-1.63-.05-2.3-.09a24.74,24.74,0,0,1-3.18-.33,28.53,28.53,0,0,1-3.34-.7,24.43,24.43,0,0,1-3.57-1.16,28.2,28.2,0,0,1-3.8-1.7L74,25.17h51.55m.16-.25H73.57l10.05,21a29.4,29.4,0,0,0,3.9,1.75,25.25,25.25,0,0,0,3.6,1.16,30.31,30.31,0,0,0,3.36.71,25.65,25.65,0,0,0,3.21.33c.75,0,1.53.09,2.31.09a3.94,3.94,0,0,0,.78-.05,23.81,23.81,0,0,0,2.94-.16,22.5,22.5,0,0,0,2.85-.42c.93-.17,1.86-.37,2.73-.62a18.42,18.42,0,0,0,2.67-.84,26.41,26.41,0,0,0,2.55-1c.84-.41,1.65-.83,2.43-1.29s1.59-1,2.34-1.46a21.1,21.1,0,0,0,2.22-1.75c.75-.62,1.44-1.29,2.1-1.95A21.31,21.31,0,0,0,125.53,38a20,20,0,0,0,1.92-3,17.62,17.62,0,0,0,1.44-3.38l-3.21-6.7Z"/><path d="M128.55,25.17l1,2.17a18,18,0,0,1-.94,4.21,17.73,17.73,0,0,1-1.42,3.34,19.26,19.26,0,0,1-1.91,3,18.78,18.78,0,0,1-1.89,2.3,28.23,28.23,0,0,1-2.09,1.95,22.93,22.93,0,0,1-2.19,1.73c-.92.61-1.63,1-2.33,1.45s-1.68.92-2.4,1.28c-.87.38-1.7.71-2.54,1a18.71,18.71,0,0,1-2.65.83c-.82.23-1.73.44-2.71.62a21.26,21.26,0,0,1-2.83.41,24.74,24.74,0,0,1-3,.17,4.29,4.29,0,0,1-.74,0c-.8,0-1.63-.05-2.3-.09a24.74,24.74,0,0,1-3.18-.33,28.53,28.53,0,0,1-3.34-.7,25.17,25.17,0,0,1-3.48-1.12L77,25.17h51.55m.16-.25H76.6L87.52,47.63a25.25,25.25,0,0,0,3.6,1.16,30.31,30.31,0,0,0,3.36.71,25.65,25.65,0,0,0,3.21.33c.75,0,1.53.09,2.31.09a3.94,3.94,0,0,0,.78-.05,23.81,23.81,0,0,0,2.94-.16,22.5,22.5,0,0,0,2.85-.42c.93-.17,1.86-.37,2.73-.62a18.42,18.42,0,0,0,2.67-.84,26.41,26.41,0,0,0,2.55-1c.84-.41,1.65-.83,2.43-1.29s1.59-1,2.34-1.46a21.1,21.1,0,0,0,2.22-1.75c.75-.62,1.44-1.29,2.1-1.95A21.31,21.31,0,0,0,125.53,38a20,20,0,0,0,1.92-3,17.62,17.62,0,0,0,1.44-3.38,18.78,18.78,0,0,0,1-4.33l-1.14-2.37Z"/><path d="M129.75,25.17a19.57,19.57,0,0,1-.15,2.1,18.13,18.13,0,0,1-.95,4.28,17.73,17.73,0,0,1-1.42,3.34,19.26,19.26,0,0,1-1.91,3,18.78,18.78,0,0,1-1.89,2.3,28.23,28.23,0,0,1-2.09,1.95,22.93,22.93,0,0,1-2.19,1.73c-.92.61-1.63,1-2.33,1.45s-1.68.92-2.4,1.28c-.87.38-1.7.71-2.54,1a18.71,18.71,0,0,1-2.65.83c-.82.23-1.73.44-2.71.62a21.26,21.26,0,0,1-2.83.41,24.74,24.74,0,0,1-3,.17,4.29,4.29,0,0,1-.74,0c-.8,0-1.63-.05-2.3-.09a24.74,24.74,0,0,1-3.18-.33,27.63,27.63,0,0,1-3.22-.67L80.06,25.17h49.69m.25-.25H79.66L91.12,48.79a30.31,30.31,0,0,0,3.36.71,25.65,25.65,0,0,0,3.21.33c.75,0,1.53.09,2.31.09a3.94,3.94,0,0,0,.78-.05,23.81,23.81,0,0,0,2.94-.16,22.5,22.5,0,0,0,2.85-.42c.93-.17,1.86-.37,2.73-.62a18.42,18.42,0,0,0,2.67-.84,26.41,26.41,0,0,0,2.55-1c.84-.41,1.65-.83,2.43-1.29s1.59-1,2.34-1.46a21.1,21.1,0,0,0,2.22-1.75c.75-.62,1.44-1.29,2.1-1.95A21.31,21.31,0,0,0,125.53,38a20,20,0,0,0,1.92-3,17.62,17.62,0,0,0,1.44-3.38,18.78,18.78,0,0,0,1-4.33,20.37,20.37,0,0,0,.15-2.37Z"/><path d="M129.75,25.17a19.57,19.57,0,0,1-.15,2.1,18.13,18.13,0,0,1-.95,4.28,17.73,17.73,0,0,1-1.42,3.34,19.26,19.26,0,0,1-1.91,3,18.78,18.78,0,0,1-1.89,2.3,28.23,28.23,0,0,1-2.09,1.95,22.93,22.93,0,0,1-2.19,1.73c-.92.61-1.63,1-2.33,1.45s-1.68.92-2.4,1.28c-.87.38-1.7.71-2.54,1a18.71,18.71,0,0,1-2.65.83c-.82.23-1.73.44-2.71.62a21.26,21.26,0,0,1-2.83.41,24.74,24.74,0,0,1-3,.17,4.29,4.29,0,0,1-.74,0c-.8,0-1.63-.05-2.3-.09a23.88,23.88,0,0,1-3-.31L83.09,25.17h46.66m.25-.25H82.69L94.48,49.5a25.65,25.65,0,0,0,3.21.33c.75,0,1.53.09,2.31.09a3.94,3.94,0,0,0,.78-.05,23.81,23.81,0,0,0,2.94-.16,22.5,22.5,0,0,0,2.85-.42c.93-.17,1.86-.37,2.73-.62a18.42,18.42,0,0,0,2.67-.84,26.41,26.41,0,0,0,2.55-1c.84-.41,1.65-.83,2.43-1.29s1.59-1,2.34-1.46a21.1,21.1,0,0,0,2.22-1.75c.75-.62,1.44-1.29,2.1-1.95A21.31,21.31,0,0,0,125.53,38a20,20,0,0,0,1.92-3,17.62,17.62,0,0,0,1.44-3.38,18.78,18.78,0,0,0,1-4.33,20.37,20.37,0,0,0,.15-2.37Z"/><path d="M129.75,25.17a19.57,19.57,0,0,1-.15,2.1,18.13,18.13,0,0,1-.95,4.28,17.73,17.73,0,0,1-1.42,3.34,19.26,19.26,0,0,1-1.91,3,18.78,18.78,0,0,1-1.89,2.3,28.23,28.23,0,0,1-2.09,1.95,22.93,22.93,0,0,1-2.19,1.73c-.92.61-1.63,1-2.33,1.45s-1.68.92-2.4,1.28c-.87.38-1.7.71-2.54,1a18.71,18.71,0,0,1-2.65.83c-.82.23-1.73.44-2.71.62a21.26,21.26,0,0,1-2.83.41,24.74,24.74,0,0,1-3,.17,4.29,4.29,0,0,1-.74,0c-.74,0-1.51,0-2.15-.08L86.12,25.17h43.63m.25-.25H85.72l12,24.91c.75,0,1.53.09,2.31.09a3.94,3.94,0,0,0,.78-.05,23.81,23.81,0,0,0,2.94-.16,22.5,22.5,0,0,0,2.85-.42c.93-.17,1.86-.37,2.73-.62a18.42,18.42,0,0,0,2.67-.84,26.41,26.41,0,0,0,2.55-1c.84-.41,1.65-.83,2.43-1.29s1.59-1,2.34-1.46a21.1,21.1,0,0,0,2.22-1.75c.75-.62,1.44-1.29,2.1-1.95A21.31,21.31,0,0,0,125.53,38a20,20,0,0,0,1.92-3,17.62,17.62,0,0,0,1.44-3.38,18.78,18.78,0,0,0,1-4.33,20.37,20.37,0,0,0,.15-2.37Z"/><path d="M129.75,25.17a19.57,19.57,0,0,1-.15,2.1,18.13,18.13,0,0,1-.95,4.28,17.73,17.73,0,0,1-1.42,3.34,19.26,19.26,0,0,1-1.91,3,18.78,18.78,0,0,1-1.89,2.3,28.23,28.23,0,0,1-2.09,1.95,22.93,22.93,0,0,1-2.19,1.73c-.92.61-1.63,1-2.33,1.45s-1.68.92-2.4,1.28c-.87.38-1.7.71-2.54,1a18.71,18.71,0,0,1-2.65.83c-.82.23-1.73.44-2.71.62a21.26,21.26,0,0,1-2.83.41,20.48,20.48,0,0,1-2.75.16L89.21,25.17h40.54m.25-.25H88.81l12,24.95a23.81,23.81,0,0,0,2.94-.16,22.5,22.5,0,0,0,2.85-.42c.93-.17,1.86-.37,2.73-.62a18.42,18.42,0,0,0,2.67-.84,26.41,26.41,0,0,0,2.55-1c.84-.41,1.65-.83,2.43-1.29s1.59-1,2.34-1.46a21.1,21.1,0,0,0,2.22-1.75c.75-.62,1.44-1.29,2.1-1.95A21.31,21.31,0,0,0,125.53,38a20,20,0,0,0,1.92-3,17.62,17.62,0,0,0,1.44-3.38,18.78,18.78,0,0,0,1-4.33,20.37,20.37,0,0,0,.15-2.37Z"/><path d="M129.75,25.17a19.57,19.57,0,0,1-.15,2.1,18.13,18.13,0,0,1-.95,4.28,17.73,17.73,0,0,1-1.42,3.34,19.26,19.26,0,0,1-1.91,3,18.78,18.78,0,0,1-1.89,2.3,28.23,28.23,0,0,1-2.09,1.95,22.93,22.93,0,0,1-2.19,1.73c-.92.61-1.63,1-2.33,1.45s-1.68.92-2.4,1.28c-.87.38-1.7.71-2.54,1a18.71,18.71,0,0,1-2.65.83c-.82.23-1.73.44-2.71.62a21.46,21.46,0,0,1-2.65.39L92.24,25.17h37.51m.25-.25H91.84l11.88,24.79a22.5,22.5,0,0,0,2.85-.42c.93-.17,1.86-.37,2.73-.62a18.42,18.42,0,0,0,2.67-.84,26.41,26.41,0,0,0,2.55-1c.84-.41,1.65-.83,2.43-1.29s1.59-1,2.34-1.46a21.1,21.1,0,0,0,2.22-1.75c.75-.62,1.44-1.29,2.1-1.95A21.31,21.31,0,0,0,125.53,38a20,20,0,0,0,1.92-3,17.62,17.62,0,0,0,1.44-3.38,18.78,18.78,0,0,0,1-4.33,20.37,20.37,0,0,0,.15-2.37Z"/><path d="M129.75,25.17a19.57,19.57,0,0,1-.15,2.1,18.13,18.13,0,0,1-.95,4.28,17.73,17.73,0,0,1-1.42,3.34,19.26,19.26,0,0,1-1.91,3,18.78,18.78,0,0,1-1.89,2.3,28.23,28.23,0,0,1-2.09,1.95,22.93,22.93,0,0,1-2.19,1.73c-.92.61-1.63,1-2.33,1.45s-1.68.92-2.4,1.28c-.87.38-1.7.71-2.54,1a18.71,18.71,0,0,1-2.65.83c-.77.22-1.62.41-2.52.58L95.27,25.17h34.48m.25-.25H94.87l11.7,24.37c.93-.17,1.86-.37,2.73-.62a18.42,18.42,0,0,0,2.67-.84,26.41,26.41,0,0,0,2.55-1c.84-.41,1.65-.83,2.43-1.29s1.59-1,2.34-1.46a21.1,21.1,0,0,0,2.22-1.75c.75-.62,1.44-1.29,2.1-1.95A21.31,21.31,0,0,0,125.53,38a20,20,0,0,0,1.92-3,17.62,17.62,0,0,0,1.44-3.38,18.78,18.78,0,0,0,1-4.33,20.37,20.37,0,0,0,.15-2.37Z"/><path d="M129.75,25.17a19.57,19.57,0,0,1-.15,2.1,18.13,18.13,0,0,1-.95,4.28,17.73,17.73,0,0,1-1.42,3.34,19.26,19.26,0,0,1-1.91,3,18.78,18.78,0,0,1-1.89,2.3,28.23,28.23,0,0,1-2.09,1.95,22.93,22.93,0,0,1-2.19,1.73c-.92.61-1.63,1-2.33,1.45s-1.68.92-2.4,1.28c-.87.38-1.7.71-2.54,1a18.69,18.69,0,0,1-2.44.78L98.3,25.17h31.45m.25-.25H97.9l11.4,23.75a18.42,18.42,0,0,0,2.67-.84,26.41,26.41,0,0,0,2.55-1c.84-.41,1.65-.83,2.43-1.29s1.59-1,2.34-1.46a21.1,21.1,0,0,0,2.22-1.75c.75-.62,1.44-1.29,2.1-1.95A21.31,21.31,0,0,0,125.53,38a20,20,0,0,0,1.92-3,17.62,17.62,0,0,0,1.44-3.38,18.78,18.78,0,0,0,1-4.33,20.37,20.37,0,0,0,.15-2.37Z"/><path d="M129.75,25.17a19.57,19.57,0,0,1-.15,2.1,18.13,18.13,0,0,1-.95,4.28,17.73,17.73,0,0,1-1.42,3.34,19.26,19.26,0,0,1-1.91,3,18.78,18.78,0,0,1-1.89,2.3,28.23,28.23,0,0,1-2.09,1.95,22.93,22.93,0,0,1-2.19,1.73c-.92.61-1.63,1-2.33,1.45s-1.68.92-2.4,1.28-1.56.65-2.32.92L101.36,25.17h28.39m.25-.25H101l11,22.91a26.41,26.41,0,0,0,2.55-1c.84-.41,1.65-.83,2.43-1.29s1.59-1,2.34-1.46a21.1,21.1,0,0,0,2.22-1.75c.75-.62,1.44-1.29,2.1-1.95A21.31,21.31,0,0,0,125.53,38a20,20,0,0,0,1.92-3,17.62,17.62,0,0,0,1.44-3.38,18.78,18.78,0,0,0,1-4.33,20.37,20.37,0,0,0,.15-2.37Z"/><path d="M129.75,25.17a19.57,19.57,0,0,1-.15,2.1,18.13,18.13,0,0,1-.95,4.28,17.73,17.73,0,0,1-1.42,3.34,19.26,19.26,0,0,1-1.91,3,18.78,18.78,0,0,1-1.89,2.3,28.23,28.23,0,0,1-2.09,1.95,22.93,22.93,0,0,1-2.19,1.73c-.92.61-1.63,1-2.33,1.45s-1.5.83-2.18,1.17L104.39,25.17h25.36m.25-.25H104l10.53,21.91c.84-.41,1.65-.83,2.43-1.29s1.59-1,2.34-1.46a21.1,21.1,0,0,0,2.22-1.75c.75-.62,1.44-1.29,2.1-1.95A21.31,21.31,0,0,0,125.53,38a20,20,0,0,0,1.92-3,17.62,17.62,0,0,0,1.44-3.38,18.78,18.78,0,0,0,1-4.33,20.37,20.37,0,0,0,.15-2.37Z"/><path d="M129.75,25.17a19.57,19.57,0,0,1-.15,2.1,18.13,18.13,0,0,1-.95,4.28,17.73,17.73,0,0,1-1.42,3.34,19.26,19.26,0,0,1-1.91,3,18.78,18.78,0,0,1-1.89,2.3,28.23,28.23,0,0,1-2.09,1.95,22.93,22.93,0,0,1-2.19,1.73c-.81.54-1.47.95-2.09,1.31l-9.61-20h22.3m.25-.25h-23L117,45.54c.81-.46,1.59-1,2.34-1.46a21.1,21.1,0,0,0,2.22-1.75c.75-.62,1.44-1.29,2.1-1.95A21.31,21.31,0,0,0,125.53,38a20,20,0,0,0,1.92-3,17.62,17.62,0,0,0,1.44-3.38,18.78,18.78,0,0,0,1-4.33,20.37,20.37,0,0,0,.15-2.37Z"/><path d="M129.75,25.17a19.57,19.57,0,0,1-.15,2.1,18.13,18.13,0,0,1-.95,4.28,17.73,17.73,0,0,1-1.42,3.34,19.26,19.26,0,0,1-1.91,3,18.78,18.78,0,0,1-1.89,2.3,28.23,28.23,0,0,1-2.09,1.95,23.35,23.35,0,0,1-2,1.56l-8.91-18.54h19.27m.25-.25H110.08l9.21,19.16a21.1,21.1,0,0,0,2.22-1.75c.75-.62,1.44-1.29,2.1-1.95A21.31,21.31,0,0,0,125.53,38a20,20,0,0,0,1.92-3,17.62,17.62,0,0,0,1.44-3.38,18.78,18.78,0,0,0,1-4.33,20.37,20.37,0,0,0,.15-2.37Z"/><path d="M129.75,25.17a19.57,19.57,0,0,1-.15,2.1,18.13,18.13,0,0,1-.95,4.28,17.73,17.73,0,0,1-1.42,3.34,19.26,19.26,0,0,1-1.91,3,18.78,18.78,0,0,1-1.89,2.3c-.49.49-1.12,1.12-1.83,1.73l-8.06-16.76h16.21m.25-.25H113.14l8.37,17.41c.75-.62,1.44-1.29,2.1-1.95A21.31,21.31,0,0,0,125.53,38a20,20,0,0,0,1.92-3,17.62,17.62,0,0,0,1.44-3.38,18.78,18.78,0,0,0,1-4.33,20.37,20.37,0,0,0,.15-2.37Z"/><path d="M129.75,25.17a19.57,19.57,0,0,1-.15,2.1,18.13,18.13,0,0,1-.95,4.28,17.73,17.73,0,0,1-1.42,3.34,19.26,19.26,0,0,1-1.91,3,18.25,18.25,0,0,1-1.64,2L116.6,25.17h13.15m.25-.25H116.2l7.41,15.46A21.31,21.31,0,0,0,125.53,38a20,20,0,0,0,1.92-3,17.62,17.62,0,0,0,1.44-3.38,18.78,18.78,0,0,0,1-4.33,20.37,20.37,0,0,0,.15-2.37Z"/><path d="M129.75,25.17a19.57,19.57,0,0,1-.15,2.1,18.13,18.13,0,0,1-.95,4.28,17.73,17.73,0,0,1-1.42,3.34,19.24,19.24,0,0,1-1.65,2.67l-6-12.39h10.12m.25-.25H119.23L125.53,38a20,20,0,0,0,1.92-3,17.62,17.62,0,0,0,1.44-3.38,18.78,18.78,0,0,0,1-4.33,20.37,20.37,0,0,0,.15-2.37Z"/><path d="M100,50.59,115.22,83l.06.12.13,0,34.07,5.2-24.66,25.28-.09.09,0,.12,5.82,35.67L100.12,132.7l-.12-.07-.12.07L69.43,149.53l5.82-35.67,0-.12-.09-.09L50.52,88.37l34.07-5.2.13,0,.06-.12L100,50.59m0-.59L84.55,82.92,50,88.2l25,25.62L69.1,150,100,132.92,130.9,150,125,113.82,150,88.2l-34.55-5.28L100,50Z"/></svg>