<svg id="Layer_1" data-name="Layer 1" xmlns="http://www.w3.org/2000/svg" viewBox="0 0 200 200"><title>Artboard 1</title><path d="M100.49,7,194.76,194.4l-189.24.4L100.49,7m0-4.45L2.26,196.81,198,196.39,100.49,2.52Z"/><path d="M83.63,114.09l35.14.52-.52,35.14-35.13-.52.51-35.14m-2-2-.57,39.14,39.13.58.58-39.14-39.14-.58Z"/><path d="M87.78,114.15l31,.46-.52,35.14-35.13-.52.42-28.61,4.24-6.47m-1.07-2L81.55,120l-.46,31.19,39.13.58.58-39.14-34.09-.5Z"/><path d="M91.07,114.2l27.7.41-.52,35.14-35.13-.52.34-23.45,7.61-11.58m-1.07-2-8.53,13-.38,26,39.13.58.58-39.14L90,112.18Z"/><path d="M95.26,114.26l23.51.35-.52,35.14-35.13-.52.24-16.87,11.9-18.1m-1.07-2-12.82,19.5-.28,19.45,39.13.58.58-39.14-26.61-.39Z"/><path d="M99.48,114.32l19.29.29-.52,35.14-35.13-.52L83.27,139l16.21-24.69m-1.07-2L81.28,138.4l-.19,12.8,39.13.58.58-39.14-22.39-.33Z"/><path d="M103.67,114.39l15.1.22-.52,35.14-35.13-.52,0-3.64,20.5-31.2m-1.07-2L81.18,145l-.09,6.22,39.13.58.58-39.14-18.2-.27Z"/><path d="M107.9,114.45l10.87.16-.52,35.14L85,149.26l22.87-34.81m-1.07-2L81.36,151.2l38.86.58.58-39.14-14-.21Z"/><path d="M112.08,114.51l6.69.1-.52,35.14-29-.43,22.86-34.81m-1.06-2L85.55,151.27l34.67.51.58-39.14-9.78-.15Z"/><path d="M116.27,114.57l2.5,0-.52,35.14-24.81-.37,22.83-34.81m-1.07-2L89.78,151.33l30.44.45.58-39.14-5.6-.08Z"/><path d="M118.73,117.27l-.48,32.48-20.62-.31,21.1-32.17m.66-4.65L94,151.39l26.26.39.58-39.14-1.41,0Z"/><path d="M118.63,123.94l-.38,25.81-16.43-.25,16.81-25.56m2.1-6.84L98.15,151.45l22.07.33.51-34.68Z"/><path d="M118.54,130.51l-.29,19.24L106,149.57l12.53-19.06m2.1-6.84-18.3,27.84,17.88.27.42-28.11Z"/><path d="M118.44,137.12l-.19,12.63-8-.12,8.24-12.51m2.1-6.83-14,21.28,13.69.21.32-21.49Z"/><path d="M118.34,143.71l-.09,6-3.83-.06,3.92-6m2.1-6.85-9.69,14.78,9.47.14.22-14.92Z"/><polygon points="120.35 143.48 114.94 151.7 120.22 151.78 120.35 143.48 120.35 143.48"/></svg>