<svg id="Layer_1" data-name="Layer 1" xmlns="http://www.w3.org/2000/svg" viewBox="0 0 161.67 200"><title>Artboard 6</title><path d="M126.28,4.67c0,.48-.09,1-.15,1.49a27.23,27.23,0,0,1-1.39,6.29v.07a26.33,26.33,0,0,1-2.08,4.87l0,0,0,0a29,29,0,0,1-2.8,4.42l0,0,0,0A29.59,29.59,0,0,1,117,25.34c-.82.83-1.91,1.9-3.1,2.9l0,0,0,0a32,32,0,0,1-3.22,2.54c-1.4.93-2.48,1.61-3.55,2.21-1.22.72-2.51,1.38-3.62,1.93-1.29.57-2.52,1.05-3.75,1.47h-.08a27.1,27.1,0,0,1-3.88,1.22h-.06l0,0c-1.23.35-2.6.66-4,.92h-.09a31.38,31.38,0,0,1-4.17.61H87.2a34.29,34.29,0,0,1-4.32.24h-.17l-.17,0a7.33,7.33,0,0,1-.87,0c-1.21,0-2.47-.07-3.52-.12a41.65,41.65,0,0,1-4.78-.5,42.33,42.33,0,0,1-5-1.06H68.3A34.8,34.8,0,0,1,63,36.15h-.06a42.73,42.73,0,0,1-5.81-2.61,45.17,45.17,0,0,1-6.64-4.39C42.36,22.53,37.64,13.9,37,4.67h89.24m2.08-2H35c0,11,5.46,20.88,14.24,28a45.75,45.75,0,0,0,7,4.6A45.16,45.16,0,0,0,62.24,38a38.32,38.32,0,0,0,5.61,1.81,44.07,44.07,0,0,0,5.23,1.11,42.14,42.14,0,0,0,5,.51c1.17.07,2.38.13,3.6.13a7.85,7.85,0,0,0,1.21-.06,36.58,36.58,0,0,0,4.58-.26,32.85,32.85,0,0,0,4.43-.65,42.54,42.54,0,0,0,4.25-1,30.45,30.45,0,0,0,4.16-1.3c1.35-.45,2.66-1,4-1.55s2.57-1.3,3.79-2,2.47-1.5,3.64-2.27a35.68,35.68,0,0,0,3.45-2.73c1.17-1,2.24-2,3.27-3.05a32.39,32.39,0,0,0,3-3.63,30.45,30.45,0,0,0,3-4.73,28.1,28.1,0,0,0,2.24-5.25,29.53,29.53,0,0,0,1.49-6.75,31.62,31.62,0,0,0,.24-3.69Z"/><path d="M115.61,4.67l6.54,13.65a30.21,30.21,0,0,1-2.35,3.57l0,0,0,0A29.59,29.59,0,0,1,117,25.34c-.82.83-1.91,1.9-3.1,2.9l0,0,0,0a32,32,0,0,1-3.22,2.54c-1.4.93-2.48,1.61-3.55,2.21-1.22.72-2.51,1.38-3.62,1.93-1.29.57-2.52,1.05-3.75,1.47h-.08a27.1,27.1,0,0,1-3.88,1.22h-.06l0,0c-1.23.35-2.6.66-4,.92h-.09a31.38,31.38,0,0,1-4.17.61H87.2a34.29,34.29,0,0,1-4.32.24h-.17l-.17,0a7.33,7.33,0,0,1-.87,0c-1.21,0-2.47-.07-3.52-.12a41.65,41.65,0,0,1-4.78-.5,42.33,42.33,0,0,1-5-1.06H68.3A34.8,34.8,0,0,1,63,36.15h-.06a42.73,42.73,0,0,1-5.81-2.61,44.06,44.06,0,0,1-6.3-4.12L39,4.67h76.66m1.26-2H35.77l13.45,28a45.75,45.75,0,0,0,7,4.6A45.16,45.16,0,0,0,62.24,38a38.32,38.32,0,0,0,5.61,1.81,44.07,44.07,0,0,0,5.23,1.11,42.14,42.14,0,0,0,5,.51c1.17.07,2.38.13,3.6.13a7.85,7.85,0,0,0,1.21-.06,36.58,36.58,0,0,0,4.58-.26,32.85,32.85,0,0,0,4.43-.65,42.54,42.54,0,0,0,4.25-1,30.45,30.45,0,0,0,4.16-1.3c1.35-.45,2.66-1,4-1.55s2.57-1.3,3.79-2,2.47-1.5,3.64-2.27a35.68,35.68,0,0,0,3.45-2.73c1.17-1,2.24-2,3.27-3.05a32.39,32.39,0,0,0,3-3.63,30.45,30.45,0,0,0,3-4.73L116.87,2.67Z"/><path d="M120.37,4.67l4.11,8.58a26.79,26.79,0,0,1-1.84,4.14l0,0,0,0a29,29,0,0,1-2.8,4.42l0,0,0,0A29.59,29.59,0,0,1,117,25.34c-.82.83-1.91,1.9-3.1,2.9l0,0,0,0a32,32,0,0,1-3.22,2.54c-1.4.93-2.48,1.61-3.55,2.21-1.22.72-2.51,1.38-3.62,1.93-1.29.57-2.52,1.05-3.75,1.47h-.08a27.1,27.1,0,0,1-3.88,1.22h-.06l0,0c-1.23.35-2.6.66-4,.92h-.09a31.38,31.38,0,0,1-4.17.61H87.2a34.29,34.29,0,0,1-4.32.24h-.17l-.17,0a7.33,7.33,0,0,1-.87,0c-1.21,0-2.47-.07-3.52-.12a41.65,41.65,0,0,1-4.78-.5,42.33,42.33,0,0,1-5-1.06H68.3A34.8,34.8,0,0,1,63,36.15h-.06a43.07,43.07,0,0,1-5.24-2.3l-14-29.16h76.66m1.26-2H40.53L56.17,35.28A45.16,45.16,0,0,0,62.24,38a38.32,38.32,0,0,0,5.61,1.81,44.07,44.07,0,0,0,5.23,1.11,42.14,42.14,0,0,0,5,.51c1.17.07,2.38.13,3.6.13a7.85,7.85,0,0,0,1.21-.06,36.58,36.58,0,0,0,4.58-.26,32.85,32.85,0,0,0,4.43-.65,42.54,42.54,0,0,0,4.25-1,30.45,30.45,0,0,0,4.16-1.3c1.35-.45,2.66-1,4-1.55s2.57-1.3,3.79-2,2.47-1.5,3.64-2.27a35.68,35.68,0,0,0,3.45-2.73c1.17-1,2.24-2,3.27-3.05a32.39,32.39,0,0,0,3-3.63,30.45,30.45,0,0,0,3-4.73,28.1,28.1,0,0,0,2.24-5.25l-5-10.44Z"/><path d="M125.09,4.67l1,2a27,27,0,0,1-1.33,5.74v.07a26.33,26.33,0,0,1-2.08,4.87l0,0,0,0a29,29,0,0,1-2.8,4.42l0,0,0,0A29.59,29.59,0,0,1,117,25.34c-.82.83-1.91,1.9-3.1,2.9l0,0,0,0a32,32,0,0,1-3.22,2.54c-1.4.93-2.48,1.61-3.55,2.21-1.22.72-2.51,1.38-3.62,1.93-1.29.57-2.52,1.05-3.75,1.47h-.08a27.1,27.1,0,0,1-3.88,1.22h-.06l0,0c-1.23.35-2.6.66-4,.92h-.09a31.38,31.38,0,0,1-4.17.61H87.2a34.29,34.29,0,0,1-4.32.24h-.17l-.17,0a7.33,7.33,0,0,1-.87,0c-1.21,0-2.47-.07-3.52-.12a41.65,41.65,0,0,1-4.78-.5,42.33,42.33,0,0,1-5-1.06H68.3a32.59,32.59,0,0,1-4.59-1.44L48.43,4.67h76.66m1.26-2H45.25L62.24,38a38.32,38.32,0,0,0,5.61,1.81,44.07,44.07,0,0,0,5.23,1.11,42.14,42.14,0,0,0,5,.51c1.17.07,2.38.13,3.6.13a7.85,7.85,0,0,0,1.21-.06,36.58,36.58,0,0,0,4.58-.26,32.85,32.85,0,0,0,4.43-.65,42.54,42.54,0,0,0,4.25-1,30.45,30.45,0,0,0,4.16-1.3c1.35-.45,2.66-1,4-1.55s2.57-1.3,3.79-2,2.47-1.5,3.64-2.27a35.68,35.68,0,0,0,3.45-2.73c1.17-1,2.24-2,3.27-3.05a32.39,32.39,0,0,0,3-3.63,30.45,30.45,0,0,0,3-4.73,28.1,28.1,0,0,0,2.24-5.25,29.53,29.53,0,0,0,1.49-6.75l-1.77-3.69Z"/><path d="M126.28,4.67c0,.48-.09,1-.15,1.49a27.23,27.23,0,0,1-1.39,6.29v.07a26.33,26.33,0,0,1-2.08,4.87l0,0,0,0a29,29,0,0,1-2.8,4.42l0,0,0,0A29.59,29.59,0,0,1,117,25.34c-.82.83-1.91,1.9-3.1,2.9l0,0,0,0a32,32,0,0,1-3.22,2.54c-1.4.93-2.48,1.61-3.55,2.21-1.22.72-2.51,1.38-3.62,1.93-1.29.57-2.52,1.05-3.75,1.47h-.08a27.1,27.1,0,0,1-3.88,1.22h-.06l0,0c-1.23.35-2.6.66-4,.92h-.09a31.38,31.38,0,0,1-4.17.61H87.2a34.29,34.29,0,0,1-4.32.24h-.17l-.17,0a7.33,7.33,0,0,1-.87,0c-1.21,0-2.47-.07-3.52-.12a41.65,41.65,0,0,1-4.78-.5c-1.32-.2-2.7-.47-4.12-.83L53.19,4.67h73.09m2.08-2H50L67.85,39.82a44.07,44.07,0,0,0,5.23,1.11,42.14,42.14,0,0,0,5,.51c1.17.07,2.38.13,3.6.13a7.85,7.85,0,0,0,1.21-.06,36.58,36.58,0,0,0,4.58-.26,32.85,32.85,0,0,0,4.43-.65,42.54,42.54,0,0,0,4.25-1,30.45,30.45,0,0,0,4.16-1.3c1.35-.45,2.66-1,4-1.55s2.57-1.3,3.79-2,2.47-1.5,3.64-2.27a35.68,35.68,0,0,0,3.45-2.73c1.17-1,2.24-2,3.27-3.05a32.39,32.39,0,0,0,3-3.63,30.45,30.45,0,0,0,3-4.73,28.1,28.1,0,0,0,2.24-5.25,29.53,29.53,0,0,0,1.49-6.75,31.62,31.62,0,0,0,.24-3.69Z"/><path d="M126.28,4.67c0,.48-.09,1-.15,1.49a27.23,27.23,0,0,1-1.39,6.29v.07a26.33,26.33,0,0,1-2.08,4.87l0,0,0,0a29,29,0,0,1-2.8,4.42l0,0,0,0A29.59,29.59,0,0,1,117,25.34c-.82.83-1.91,1.9-3.1,2.9l0,0,0,0a32,32,0,0,1-3.22,2.54c-1.4.93-2.48,1.61-3.55,2.21-1.22.72-2.51,1.38-3.62,1.93-1.29.57-2.52,1.05-3.75,1.47h-.08a27.1,27.1,0,0,1-3.88,1.22h-.06l0,0c-1.23.35-2.6.66-4,.92h-.09a31.38,31.38,0,0,1-4.17.61H87.2a34.29,34.29,0,0,1-4.32.24h-.17l-.17,0a7.33,7.33,0,0,1-.87,0c-1.21,0-2.47-.07-3.52-.12s-2.38-.16-3.73-.35L57.9,4.67h68.38m2.08-2H54.73L73.08,40.93a42.14,42.14,0,0,0,5,.51c1.17.07,2.38.13,3.6.13a7.85,7.85,0,0,0,1.21-.06,36.58,36.58,0,0,0,4.58-.26,32.85,32.85,0,0,0,4.43-.65,42.54,42.54,0,0,0,4.25-1,30.45,30.45,0,0,0,4.16-1.3c1.35-.45,2.66-1,4-1.55s2.57-1.3,3.79-2,2.47-1.5,3.64-2.27a35.68,35.68,0,0,0,3.45-2.73c1.17-1,2.24-2,3.27-3.05a32.39,32.39,0,0,0,3-3.63,30.45,30.45,0,0,0,3-4.73,28.1,28.1,0,0,0,2.24-5.25,29.53,29.53,0,0,0,1.49-6.75,31.62,31.62,0,0,0,.24-3.69Z"/><path d="M126.28,4.67c0,.48-.09,1-.15,1.49a27.23,27.23,0,0,1-1.39,6.29v.07a26.33,26.33,0,0,1-2.08,4.87l0,0,0,0a29,29,0,0,1-2.8,4.42l0,0,0,0A29.59,29.59,0,0,1,117,25.34c-.82.83-1.91,1.9-3.1,2.9l0,0,0,0a32,32,0,0,1-3.22,2.54c-1.4.93-2.48,1.61-3.55,2.21-1.22.72-2.51,1.38-3.62,1.93-1.29.57-2.52,1.05-3.75,1.47h-.08a27.1,27.1,0,0,1-3.88,1.22h-.06l0,0c-1.23.35-2.6.66-4,.92h-.09a31.38,31.38,0,0,1-4.17.61H87.2a34.29,34.29,0,0,1-4.32.24h-.17l-.17,0a7.33,7.33,0,0,1-.87,0c-.77,0-1.57,0-2.31-.06L62.62,4.67h63.66m2.08-2H59.44L78.07,41.44c1.17.07,2.38.13,3.6.13a7.85,7.85,0,0,0,1.21-.06,36.58,36.58,0,0,0,4.58-.26,32.85,32.85,0,0,0,4.43-.65,42.54,42.54,0,0,0,4.25-1,30.45,30.45,0,0,0,4.16-1.3c1.35-.45,2.66-1,4-1.55s2.57-1.3,3.79-2,2.47-1.5,3.64-2.27a35.68,35.68,0,0,0,3.45-2.73c1.17-1,2.24-2,3.27-3.05a32.39,32.39,0,0,0,3-3.63,30.45,30.45,0,0,0,3-4.73,28.1,28.1,0,0,0,2.24-5.25,29.53,29.53,0,0,0,1.49-6.75,31.62,31.62,0,0,0,.24-3.69Z"/><path d="M126.28,4.67c0,.48-.09,1-.15,1.49a27.23,27.23,0,0,1-1.39,6.29v.07a26.33,26.33,0,0,1-2.08,4.87l0,0,0,0a29,29,0,0,1-2.8,4.42l0,0,0,0A29.59,29.59,0,0,1,117,25.34c-.82.83-1.91,1.9-3.1,2.9l0,0,0,0a32,32,0,0,1-3.22,2.54c-1.4.93-2.48,1.61-3.55,2.21-1.22.72-2.51,1.38-3.62,1.93-1.29.57-2.52,1.05-3.75,1.47h-.08a27.1,27.1,0,0,1-3.88,1.22h-.06l0,0c-1.23.35-2.6.66-4,.92h-.09a31.38,31.38,0,0,1-4.17.61H87.2a30.3,30.3,0,0,1-3.07.22L67.43,4.67h58.85m2.08-2H64.25L82.88,41.51a36.58,36.58,0,0,0,4.58-.26,32.85,32.85,0,0,0,4.43-.65,42.54,42.54,0,0,0,4.25-1,30.45,30.45,0,0,0,4.16-1.3c1.35-.45,2.66-1,4-1.55s2.57-1.3,3.79-2,2.47-1.5,3.64-2.27a35.68,35.68,0,0,0,3.45-2.73c1.17-1,2.24-2,3.27-3.05a32.39,32.39,0,0,0,3-3.63,30.45,30.45,0,0,0,3-4.73,28.1,28.1,0,0,0,2.24-5.25,29.53,29.53,0,0,0,1.49-6.75,31.62,31.62,0,0,0,.24-3.69Z"/><path d="M126.28,4.67c0,.48-.09,1-.15,1.49a27.23,27.23,0,0,1-1.39,6.29v.07a26.33,26.33,0,0,1-2.08,4.87l0,0,0,0a29,29,0,0,1-2.8,4.42l0,0,0,0A29.59,29.59,0,0,1,117,25.34c-.82.83-1.91,1.9-3.1,2.9l0,0,0,0a32,32,0,0,1-3.22,2.54c-1.4.93-2.48,1.61-3.55,2.21-1.22.72-2.51,1.38-3.62,1.93-1.29.57-2.52,1.05-3.75,1.47h-.08a27.1,27.1,0,0,1-3.88,1.22h-.06l0,0c-1.23.35-2.6.66-4,.92h-.09c-.84.19-1.77.34-2.8.47L72.14,4.67h54.14m2.08-2H69L87.46,41.25a32.85,32.85,0,0,0,4.43-.65,42.54,42.54,0,0,0,4.25-1,30.45,30.45,0,0,0,4.16-1.3c1.35-.45,2.66-1,4-1.55s2.57-1.3,3.79-2,2.47-1.5,3.64-2.27a35.68,35.68,0,0,0,3.45-2.73c1.17-1,2.24-2,3.27-3.05a32.39,32.39,0,0,0,3-3.63,30.45,30.45,0,0,0,3-4.73,28.1,28.1,0,0,0,2.24-5.25,29.53,29.53,0,0,0,1.49-6.75,31.62,31.62,0,0,0,.24-3.69Z"/><path d="M126.28,4.67c0,.48-.09,1-.15,1.49a27.23,27.23,0,0,1-1.39,6.29v.07a26.33,26.33,0,0,1-2.08,4.87l0,0,0,0a29,29,0,0,1-2.8,4.42l0,0,0,0A29.59,29.59,0,0,1,117,25.34c-.82.83-1.91,1.9-3.1,2.9l0,0,0,0a32,32,0,0,1-3.22,2.54c-1.4.93-2.48,1.61-3.55,2.21-1.22.72-2.51,1.38-3.62,1.93-1.29.57-2.52,1.05-3.75,1.47h-.08a27.1,27.1,0,0,1-3.88,1.22h-.06l0,0c-.8.23-1.66.44-2.56.63L76.86,4.67h49.42m2.08-2H73.68L91.89,40.6a42.54,42.54,0,0,0,4.25-1,30.45,30.45,0,0,0,4.16-1.3c1.35-.45,2.66-1,4-1.55s2.57-1.3,3.79-2,2.47-1.5,3.64-2.27a35.68,35.68,0,0,0,3.45-2.73c1.17-1,2.24-2,3.27-3.05a32.39,32.39,0,0,0,3-3.63,30.45,30.45,0,0,0,3-4.73,28.1,28.1,0,0,0,2.24-5.25,29.53,29.53,0,0,0,1.49-6.75,31.62,31.62,0,0,0,.24-3.69Z"/><path d="M126.28,4.67c0,.48-.09,1-.15,1.49a27.23,27.23,0,0,1-1.39,6.29v.07a26.33,26.33,0,0,1-2.08,4.87l0,0,0,0a29,29,0,0,1-2.8,4.42l0,0,0,0A29.59,29.59,0,0,1,117,25.34c-.82.83-1.91,1.9-3.1,2.9l0,0,0,0a32,32,0,0,1-3.22,2.54c-1.4.93-2.48,1.61-3.55,2.21-1.22.72-2.51,1.38-3.62,1.93-1.29.57-2.52,1.05-3.75,1.47h-.08c-.87.34-1.63.6-2.35.82L81.58,4.67h44.7m2.08-2h-50l17.74,37a30.45,30.45,0,0,0,4.16-1.3c1.35-.45,2.66-1,4-1.55s2.57-1.3,3.79-2,2.47-1.5,3.64-2.27a35.68,35.68,0,0,0,3.45-2.73c1.17-1,2.24-2,3.27-3.05a32.39,32.39,0,0,0,3-3.63,30.45,30.45,0,0,0,3-4.73,28.1,28.1,0,0,0,2.24-5.25,29.53,29.53,0,0,0,1.49-6.75,31.62,31.62,0,0,0,.24-3.69Z"/><path d="M126.28,4.67c0,.48-.09,1-.15,1.49a27.23,27.23,0,0,1-1.39,6.29v.07a26.33,26.33,0,0,1-2.08,4.87l0,0,0,0a29,29,0,0,1-2.8,4.42l0,0,0,0A29.59,29.59,0,0,1,117,25.34c-.82.83-1.91,1.9-3.1,2.9l0,0,0,0a32,32,0,0,1-3.22,2.54c-1.4.93-2.48,1.61-3.55,2.21-1.22.72-2.51,1.38-3.62,1.93-.71.31-1.41.6-2.09.87l-15-31.17h39.94m2.08-2H83.16L100.3,38.33c1.35-.45,2.66-1,4-1.55s2.57-1.3,3.79-2,2.47-1.5,3.64-2.27a35.68,35.68,0,0,0,3.45-2.73c1.17-1,2.24-2,3.27-3.05a32.39,32.39,0,0,0,3-3.63,30.45,30.45,0,0,0,3-4.73,28.1,28.1,0,0,0,2.24-5.25,29.53,29.53,0,0,0,1.49-6.75,31.62,31.62,0,0,0,.24-3.69Z"/><path d="M126.28,4.67c0,.48-.09,1-.15,1.49a27.23,27.23,0,0,1-1.39,6.29v.07a26.33,26.33,0,0,1-2.08,4.87l0,0,0,0a29,29,0,0,1-2.8,4.42l0,0,0,0A29.59,29.59,0,0,1,117,25.34c-.82.83-1.91,1.9-3.1,2.9l0,0,0,0a32,32,0,0,1-3.22,2.54c-1.4.93-2.48,1.61-3.55,2.21-.61.36-1.24.7-1.85,1L91.06,4.67h35.22m2.08-2H87.88l16.38,34.11c1.31-.65,2.57-1.3,3.79-2s2.47-1.5,3.64-2.27a35.68,35.68,0,0,0,3.45-2.73c1.17-1,2.24-2,3.27-3.05a32.39,32.39,0,0,0,3-3.63,30.45,30.45,0,0,0,3-4.73,28.1,28.1,0,0,0,2.24-5.25,29.53,29.53,0,0,0,1.49-6.75,31.62,31.62,0,0,0,.24-3.69Z"/><path d="M126.28,4.67c0,.48-.09,1-.15,1.49a27.23,27.23,0,0,1-1.39,6.29v.07a26.33,26.33,0,0,1-2.08,4.87l0,0,0,0a29,29,0,0,1-2.8,4.42l0,0,0,0A29.59,29.59,0,0,1,117,25.34c-.82.83-1.91,1.9-3.1,2.9l0,0,0,0a32,32,0,0,1-3.22,2.54c-.61.41-1.17.77-1.68,1.09L95.82,4.67h30.46m2.08-2H92.64l15.41,32.1c1.26-.72,2.47-1.5,3.64-2.27a35.68,35.68,0,0,0,3.45-2.73c1.17-1,2.24-2,3.27-3.05a32.39,32.39,0,0,0,3-3.63,30.45,30.45,0,0,0,3-4.73,28.1,28.1,0,0,0,2.24-5.25,29.53,29.53,0,0,0,1.49-6.75,31.62,31.62,0,0,0,.24-3.69Z"/><path d="M126.28,4.67c0,.48-.09,1-.15,1.49a27.23,27.23,0,0,1-1.39,6.29v.07a26.33,26.33,0,0,1-2.08,4.87l0,0,0,0a29,29,0,0,1-2.8,4.42l0,0,0,0A29.59,29.59,0,0,1,117,25.34c-.82.83-1.91,1.9-3.1,2.9l0,0,0,0c-.43.39-.88.77-1.36,1.15L100.53,4.67h25.75m2.08-2h-31L111.69,32.5a35.68,35.68,0,0,0,3.45-2.73c1.17-1,2.24-2,3.27-3.05a32.39,32.39,0,0,0,3-3.63,30.45,30.45,0,0,0,3-4.73,28.1,28.1,0,0,0,2.24-5.25,29.53,29.53,0,0,0,1.49-6.75,31.62,31.62,0,0,0,.24-3.69Z"/><path d="M126.28,4.67c0,.48-.09,1-.15,1.49a27.23,27.23,0,0,1-1.39,6.29v.07a26.33,26.33,0,0,1-2.08,4.87l0,0,0,0a29,29,0,0,1-2.8,4.42l0,0,0,0A29.59,29.59,0,0,1,117,25.34c-.34.35-.74.75-1.17,1.16L105.3,4.67h21m2.08-2H102.12l13,27.1c1.17-1,2.24-2,3.27-3.05a32.39,32.39,0,0,0,3-3.63,30.45,30.45,0,0,0,3-4.73,28.1,28.1,0,0,0,2.24-5.25,29.53,29.53,0,0,0,1.49-6.75,31.62,31.62,0,0,0,.24-3.69Z"/><path d="M126.28,4.67c0,.48-.09,1-.15,1.49a27.23,27.23,0,0,1-1.39,6.29v.07a26.33,26.33,0,0,1-2.08,4.87l0,0,0,0a29,29,0,0,1-2.8,4.42l0,0,0,0c-.27.39-.55.77-.85,1.15L110.06,4.67h16.22m2.08-2H106.88l11.53,24a32.39,32.39,0,0,0,3-3.63,30.45,30.45,0,0,0,3-4.73,28.1,28.1,0,0,0,2.24-5.25,29.53,29.53,0,0,0,1.49-6.75,31.62,31.62,0,0,0,.24-3.69Z"/><path d="M126.28,4.67c0,.48-.09,1-.15,1.49a27.23,27.23,0,0,1-1.39,6.29v.07a26.33,26.33,0,0,1-2.08,4.87l0,0,0,0c-.27.53-.57,1.07-.9,1.63L114.77,4.67h11.51m2.08-2H111.59l9.81,20.42a30.45,30.45,0,0,0,3-4.73,28.1,28.1,0,0,0,2.24-5.25,29.53,29.53,0,0,0,1.49-6.75,31.62,31.62,0,0,0,.24-3.69Z"/><path d="M81.67,53.47l19.52,41.59,1.13,2.41,2.64.41,44.15,6.74L117,137.53l-1.77,1.81.41,2.49L123.17,188,84.09,166.37,81.67,165l-2.42,1.33L40.17,188l7.52-46.15.41-2.49-1.76-1.81L14.23,104.62l44.15-6.74L61,97.47l1.14-2.41L81.67,53.47m0-11.77L57.62,92.93,3.85,101.15,42.76,141l-9.19,56.3,48.1-26.58,48.09,26.58L120.57,141l38.91-39.88-53.77-8.22-24-51.23Z"/></svg>