<svg id="Layer_1" data-name="Layer 1" xmlns="http://www.w3.org/2000/svg" viewBox="0 0 200 200"><defs><style>.cls-1{fill:blue;}</style></defs><title>Artboard 7</title><path d="M130.16,25.25c-.16,13.53-13.45,24.5-29.75,24.5s-29.59-11-29.75-24.5h59.5m.25-.25h-60c0,13.83,13.41,25,30,25s30-11.17,30-25Z"/><polygon class="cls-1" points="75.45 113.78 50.58 88.28 84.95 83.03 100.32 50.29 115.69 83.03 150.06 88.28 125.19 113.78 131.06 149.77 100.32 132.78 69.58 149.77 75.45 113.78"/><path d="M100.32,50.59,115.54,83l.06.12.13,0,34.07,5.2-24.66,25.28-.09.09,0,.12,5.82,35.67L100.44,132.7l-.12-.07-.12.07L69.75,149.53l5.82-35.67,0-.12-.09-.09L50.84,88.37l34.07-5.2.13,0L85.1,83l15.22-32.43m0-.59L84.87,82.92,50.32,88.2l25,25.62L69.42,150l30.9-17.08L131.22,150l-5.9-36.18,25-25.62-34.55-5.28L100.32,50Z"/></svg>