<svg id="Layer_1" data-name="Layer 1" xmlns="http://www.w3.org/2000/svg" viewBox="0 0 200 200"><title>Artboard 5</title><path d="M129.75,24.85c-.16,13.54-13.45,24.5-29.75,24.5s-29.59-11-29.75-24.5h59.5m.25-.25H70c0,13.84,13.41,25,30,25s30-11.16,30-25Z"/><path d="M100,51.09l15.22,32.43.06.12.13,0,34.07,5.2-24.66,25.28-.09.09,0,.12L130.57,150,100.12,133.2l-.12-.07-.12.07L69.43,150l5.82-35.67,0-.12-.09-.09L50.52,88.87l34.07-5.2.13,0,.06-.12L100,51.09m0-.59L84.55,83.42,50,88.7l25,25.62L69.1,150.5,100,133.42l30.9,17.08L125,114.32,150,88.7l-34.55-5.28L100,50.5Z"/></svg>