<svg id="Layer_1" data-name="Layer 1" xmlns="http://www.w3.org/2000/svg" viewBox="0 0 161 200"><defs><style>.cls-1{fill:blue;}</style></defs><title>Artboard7</title><path d="M121.74,8.33C118.76,24.53,101.53,37,80.79,37s-38-12.47-40.94-28.67h81.89m5.45-5H34.39C34.39,24.73,55.13,42,80.79,42s46.4-17.27,46.4-38.67Z"/><polygon class="cls-1" points="80.65 167.39 36.16 191.99 44.66 139.87 8.51 102.81 58.45 95.18 80.65 47.88 102.85 95.18 152.8 102.81 116.65 139.87 125.15 191.99 80.65 167.39"/><path d="M80.65,53.77,100,95l1.14,2.41,2.64.41,43.81,6.69-31.87,32.67L114,139l.41,2.49,7.47,45.8L83.07,165.87l-2.42-1.34-2.42,1.34L39.45,187.31l7.47-45.8.41-2.49-1.76-1.8L13.69,104.55l43.82-6.69,2.64-.41L61.28,95,80.65,53.77m0-11.77L56.76,92.91,3.32,101.08,42,140.71l-9.13,56,47.79-26.42,47.8,26.42-9.13-56L158,101.08l-53.44-8.17L80.65,42Z"/></svg>