<svg id="Layer_1" data-name="Layer 1" xmlns="http://www.w3.org/2000/svg" viewBox="0 0 200 200"><defs><style>.cls-1{fill:none;stroke:#000;stroke-miterlimit:10;stroke-width:0.25px;}</style></defs><title>Artboard 2</title><path d="M112.12,45.58l-.83,2-.05.1-.52,1.26-.14.36-.38.9-.33.8-.18.46-.54,1.26L108.63,54l-.18.46-.35.8-.38.92-.14.34-.52,1.26,0,.1L106.54,59l-.23.56-.29.7-.42,1-.11.27L105,62.75l-.08.22-.43,1-.28.66-.24.6-.48,1.12-.06.14-.52,1.24-.13.32-.4.94-.32.78-.2.48-.52,1.26-.52,1.26-.17.4-.35.86-.26.61-.61-1.47-.7-1.7-.26-.62L98,69.81l-.72-1.72-.71-1.7-.09-.2-.63-1.52L95.12,63l-.62-1.48-.1-.24-.71-1.7L93,57.83l-.43-1-.27-.68-.72-1.72-.71-1.7-.25-.58L90.13,51l-.71-1.7-.71-1.72-.06-.14-.77-1.85h24.24m.38-.25h-25l.92,2.19.06.15.71,1.72.71,1.7.47,1.14.25.58.71,1.7.72,1.72.27.68.43,1,.71,1.72.71,1.7.1.24.62,1.48.71,1.7.63,1.52.09.2.71,1.7.72,1.72L98.2,71l.26.62.7,1.7.84,2,.49-1.16.35-.86.17-.4.52-1.26v0l.51-1.22.2-.48.32-.78.4-.94.13-.32.52-1.24.06-.14.48-1.12.24-.6.28-.66.43-1,.09-.22.52-1.24.11-.26.42-1,.29-.7.23-.56.48-1.16,0-.1.52-1.26.14-.34.38-.92.34-.8.19-.46.52-1.24.54-1.26.18-.46.34-.8.37-.9L111,49l.52-1.25,0-.1,1-2.34Z"/><path d="M112.12,45.58l-.7,1.68-1.23-1.68h1.93m.38-.25h-2.8l1.78,2.44,0-.1,1-2.34Z"/><path d="M112.12,45.58l-.83,2-.05.1-.34.84-2.13-2.93h3.35m.38-.25h-4.21L111,49l.52-1.25,0-.1,1-2.34Z"/><path d="M112.12,45.58l-.83,2-.05.1-.52,1.26-.14.36-.2.49-3-4.2h4.79m.38-.25h-5.66l3.6,5,.37-.9L111,49l.52-1.25,0-.1,1-2.34Z"/><path d="M112.12,45.58l-.83,2-.05.1-.52,1.26-.14.36-.37.9-.34.8v0l-3.94-5.45h6.2m.38-.25h-7.07l4.49,6.22.18-.46.34-.8.37-.9L111,49l.52-1.25,0-.1,1-2.34Z"/><path d="M112.12,45.58l-.83,2-.05.1-.52,1.26-.14.36-.37.9-.34.8-.18.46-.36.85-4.86-6.72h7.65m.38-.25H104l5.4,7.48.54-1.26.18-.46.34-.8.37-.9L111,49l.52-1.25,0-.1,1-2.34Z"/><path d="M112.12,45.58l-.83,2-.05.1-.52,1.26-.14.36-.37.9-.34.8-.18.46-.54,1.26-.35.83-5.74-8h9.06m.38-.25h-9.93l6.29,8.72.52-1.24.54-1.26.18-.46.34-.8.37-.9L111,49l.52-1.25,0-.1,1-2.34Z"/><path d="M112.12,45.58l-.83,2-.05.1-.52,1.26-.14.36-.37.9-.34.8-.18.46-.54,1.26L108.63,54l-.18.46-.18.39-6.66-9.22h10.51m.38-.25H101.13l7.2,10,.34-.8.19-.46.52-1.24.54-1.26.18-.46.34-.8.37-.9L111,49l.52-1.25,0-.1,1-2.34Z"/><path d="M112.12,45.58l-.83,2-.05.1-.52,1.26-.14.36-.37.9-.34.8-.18.46-.54,1.26L108.63,54l-.18.46-.35.8-.35.85L100.2,45.58h11.92m.38-.25H99.71l8.1,11.24.14-.34.38-.92.34-.8.19-.46.52-1.24.54-1.26.18-.46.34-.8.37-.9L111,49l.52-1.25,0-.1,1-2.34Z"/><path d="M112.12,45.58l-.83,2-.05.1-.52,1.26-.14.36-.38.9-.33.8-.18.46-.54,1.26L108.63,54l-.18.46-.35.8-.38.92-.14.34-.35.84L98.76,45.58h13.36m.38-.25H98.27l9,12.5.52-1.26.14-.34.38-.92.34-.8.19-.46.52-1.24.54-1.26.18-.46.34-.8.37-.9L111,49l.52-1.25,0-.1,1-2.34Z"/><path d="M112.12,45.58l-.83,2-.05.1-.52,1.26-.14.36-.37.9-.34.8-.18.46-.54,1.26L108.63,54l-.18.46-.35.8-.38.92-.14.34-.52,1.26,0,.1-.3.74-9.38-13h14.79m.38-.25H96.84l9.93,13.76.48-1.16,0-.1.52-1.26.14-.34.38-.92.34-.8.19-.46.52-1.24.54-1.26.18-.46.34-.8.37-.9L111,49l.52-1.25,0-.1,1-2.34Z"/><path d="M112.12,45.58l-.83,2-.05.1-.52,1.26-.14.36-.37.9-.34.8-.18.46-.54,1.26L108.63,54l-.18.46-.35.8-.38.92-.14.34-.52,1.26,0,.1L106.54,59l-.23.56-.12.28L95.9,45.58h16.22m.38-.25H95.41l10.84,15,.29-.7.23-.56.48-1.16,0-.1.52-1.26.14-.34.38-.92.34-.8.19-.46.52-1.24.54-1.26.18-.46.34-.8.37-.9L111,49l.52-1.25,0-.1,1-2.34Z"/><path d="M112.12,45.58l-.83,2-.05.1-.52,1.26-.14.36-.37.9-.34.8-.18.46-.54,1.26L108.63,54l-.18.46-.35.8-.38.92-.14.34-.52,1.26,0,.1L106.54,59l-.23.56-.29.7-.36.85L94.46,45.58h17.66m.38-.25H94l11.75,16.28.11-.26.42-1,.29-.7.23-.56.48-1.16,0-.1.52-1.26.14-.34.38-.92.34-.8.19-.46.52-1.24.54-1.26.18-.46.34-.8.37-.9L111,49l.52-1.25,0-.1,1-2.34Z"/><path d="M112.12,45.58l-.83,2-.05.1-.52,1.26-.14.36-.38.9-.33.8-.18.46-.54,1.26L108.63,54l-.18.46-.35.8-.38.92-.14.34-.52,1.26,0,.1L106.54,59l-.23.56-.29.7-.42,1-.11.27-.35.83L93,45.58h19.08m.38-.25h-20L105.2,62.85l.52-1.24.11-.26.42-1,.29-.7.23-.56.48-1.16,0-.1.52-1.26.14-.34.38-.92.34-.8.19-.46.52-1.24.54-1.26.18-.46.34-.8.37-.9L111,49l.52-1.25,0-.1,1-2.34Z"/><path d="M112.12,45.58l-.83,2-.05.1-.52,1.26-.14.36-.38.9-.33.8-.18.46-.54,1.26L108.63,54l-.18.46-.35.8-.38.92-.14.34-.52,1.26,0,.1L106.54,59l-.23.56-.29.7-.42,1-.11.27L105,62.75l-.08.22-.26.63-13-18h20.52m.38-.25H91.11l13.57,18.78.43-1,.09-.22.52-1.24.11-.26.42-1,.29-.7.23-.56.48-1.16,0-.1.52-1.26.14-.34.38-.92.34-.8.19-.46.52-1.24.54-1.26.18-.46.34-.8.37-.9L111,49l.52-1.25,0-.1,1-2.34Z"/><path d="M112.12,45.58l-.83,2-.05.1-.52,1.26-.14.36-.37.9-.34.8-.18.46-.54,1.26L108.63,54l-.18.46-.35.8-.38.92-.14.34-.52,1.26,0,.1L106.54,59l-.23.56-.29.7-.42,1-.11.27L105,62.75l-.08.22-.43,1-.28.66-.07.18L90.18,45.58h21.94m.38-.25H89.69l14.47,20,.24-.6.28-.66.43-1,.09-.22.52-1.24.11-.26.42-1,.29-.7.23-.56.48-1.16,0-.1.52-1.26.14-.34.38-.92.34-.8.19-.46.52-1.24.54-1.26.18-.46.34-.8.37-.9L111,49l.52-1.25,0-.1,1-2.34Z"/><path d="M112.12,45.58l-.83,2-.05.1-.52,1.26-.14.36-.37.9-.34.8-.18.46-.54,1.26L108.63,54l-.18.46-.35.8-.38.92-.14.34-.52,1.26,0,.1L106.54,59l-.23.56-.29.7-.42,1-.11.27L105,62.75l-.08.22-.43,1-.28.66-.24.6-.36.85L88.74,45.58h23.38m.38-.25H88.25l15.37,21.3.06-.14.48-1.12.24-.6.28-.66.43-1,.09-.22.52-1.24.11-.26.42-1,.29-.7.23-.56.48-1.16,0-.1.52-1.26.14-.34.38-.92.34-.8.19-.46.52-1.24.54-1.26.18-.46.34-.8.37-.9L111,49l.52-1.25,0-.1,1-2.34Z"/><path d="M112.12,45.58l-.83,2-.05.1-.52,1.26-.14.36-.38.9-.33.8-.18.46-.54,1.26L108.63,54l-.18.46-.35.8-.38.92-.14.34-.52,1.26,0,.1L106.54,59l-.23.56-.29.7-.42,1-.11.27L105,62.75l-.08.22-.43,1-.28.66-.24.6-.48,1.12-.06.14-.34.83-14.41-20-.76-1.82h24.24m.38-.25h-25l.92,2.19L103.1,67.87l.52-1.24.06-.14.48-1.12.24-.6.28-.66.43-1,.09-.22.52-1.24.11-.26.42-1,.29-.7.23-.56.48-1.16,0-.1.52-1.26.14-.34.38-.92.34-.8.19-.46.52-1.24.54-1.26.18-.46.34-.8.37-.9L111,49l.52-1.25,0-.1,1-2.34Z"/><path d="M112.12,45.58l-.83,2-.05.1-.52,1.26-.14.36-.38.9-.33.8-.18.46-.54,1.26L108.63,54l-.18.46-.35.8-.38.92-.14.34-.52,1.26,0,.1L106.54,59l-.23.56-.29.7-.42,1-.11.27L105,62.75l-.08.22-.43,1-.28.66-.24.6-.48,1.12-.06.14-.52,1.24-.13.32-.23.53L90.59,52.1,90.13,51l-.71-1.7-.71-1.72-.06-.14-.77-1.85h24.24m.38-.25h-25l.92,2.19.06.15.71,1.72.71,1.7.47,1.14,12.2,16.9.4-.94.13-.32.52-1.24.06-.14.48-1.12.24-.6.28-.66.43-1,.09-.22.52-1.24.11-.26.42-1,.29-.7.23-.56.48-1.16,0-.1.52-1.26.14-.34.38-.92.34-.8.19-.46.52-1.24.54-1.26.18-.46.34-.8.37-.9L111,49l.52-1.25,0-.1,1-2.34Z"/><path d="M112.12,45.58l-.83,2-.05.1-.52,1.26-.14.36-.38.9-.33.8-.18.46-.54,1.26L108.63,54l-.18.46-.35.8-.38.92-.14.34-.52,1.26,0,.1L106.54,59l-.23.56-.29.7-.42,1-.11.27L105,62.75l-.08.22-.43,1-.28.66-.24.6-.48,1.12-.06.14-.52,1.24-.13.32-.4.94-.32.78,0,.07-9.45-13.1-.26-.65-.72-1.72-.71-1.7-.25-.58L90.13,51l-.71-1.7-.71-1.72-.06-.14-.77-1.85h24.24m.38-.25h-25l.92,2.19.06.15.71,1.72.71,1.7.47,1.14.25.58.71,1.7.72,1.72.27.68,9.73,13.48.2-.48.32-.78.4-.94.13-.32.52-1.24.06-.14.48-1.12.24-.6.28-.66.43-1,.09-.22.52-1.24.11-.26.42-1,.29-.7.23-.56.48-1.16,0-.1.52-1.26.14-.34.38-.92.34-.8.19-.46.52-1.24.54-1.26.18-.46.34-.8.37-.9L111,49l.52-1.25,0-.1,1-2.34Z"/><path d="M112.12,45.58l-.83,2-.05.1-.52,1.26-.14.36-.38.9-.33.8-.18.46-.54,1.26L108.63,54l-.18.46-.35.8-.38.92-.14.34-.52,1.26,0,.1L106.54,59l-.23.56-.29.7-.42,1-.11.27L105,62.75l-.08.22-.43,1-.28.66-.24.6-.48,1.12-.06.14-.52,1.24-.13.32-.4.94-.32.78-.2.48-.35.84-7-9.67-.09-.21-.71-1.7L93,57.83l-.43-1-.27-.68-.72-1.72-.71-1.7-.25-.58L90.13,51l-.71-1.7-.71-1.72-.06-.14-.77-1.85h24.24m.38-.25h-25l.92,2.19.06.15.71,1.72.71,1.7.47,1.14.25.58.71,1.7.72,1.72.27.67.43,1,.71,1.72.71,1.7.1.24,7.26,10.06v0l.51-1.22.2-.49.32-.77.4-.94.13-.32.52-1.24.06-.14.48-1.12.24-.6.28-.66.43-1,.09-.22.52-1.24.11-.26.42-1,.29-.7.23-.56.48-1.16,0-.1.52-1.26.14-.34.38-.92.34-.8.19-.46.52-1.24.54-1.26.18-.46.34-.8.37-.9L111,49l.52-1.25,0-.1,1-2.34Z"/><path d="M112.12,45.58l-.83,2-.05.1-.52,1.26-.14.36-.38.9-.33.8-.18.46-.54,1.26L108.63,54l-.18.46-.35.8-.38.92-.14.34-.52,1.26,0,.1L106.54,59l-.23.56-.29.7-.42,1-.11.27L105,62.75l-.08.22-.43,1-.28.66-.24.6-.48,1.12-.06.14-.52,1.24-.13.32-.4.94-.32.78-.2.48-.52,1.26-.35.84-4.5-6.23-.62-1.49L95.12,63l-.62-1.48-.1-.24-.71-1.7L93,57.83l-.43-1-.27-.68-.72-1.72-.71-1.7-.25-.58L90.13,51l-.71-1.7-.71-1.72-.06-.14-.77-1.85h24.24m.38-.25h-25l.92,2.19.06.15.71,1.72.71,1.7.47,1.14.25.58.71,1.7.72,1.72.27.68.43,1,.71,1.72.71,1.7.1.24.62,1.48.71,1.7.63,1.51L101,72.91l.52-1.26v0l.51-1.22.2-.48.32-.78.4-.94.13-.32.52-1.24.06-.14.48-1.12.24-.6.28-.66.43-1,.09-.22.52-1.24.11-.26.42-1,.29-.7.23-.56.48-1.16,0-.1.52-1.26.14-.34.38-.92.34-.8.19-.46.52-1.24.54-1.26.18-.46.34-.81.37-.89L111,49l.52-1.25,0-.1,1-2.34Z"/><path d="M112.12,45.58l-.83,2-.05.1-.52,1.26-.14.36-.38.9-.33.8-.18.46-.54,1.26L108.63,54l-.18.46-.35.8-.38.92-.14.34-.52,1.26,0,.1L106.54,59l-.23.56-.29.7-.42,1-.11.27L105,62.75l-.08.22-.43,1-.28.66-.24.6-.48,1.12-.06.14-.52,1.24-.13.32-.4.94-.32.78-.2.48-.52,1.26-.52,1.26-.17.4-.18.44-2-2.79-.44-1-.72-1.72-.71-1.7-.09-.2-.63-1.52L95.12,63l-.62-1.48-.1-.24-.71-1.7L93,57.83l-.43-1-.27-.68-.72-1.72-.71-1.7-.25-.58L90.13,51l-.71-1.7-.71-1.72-.06-.14-.77-1.85h24.24m.38-.25h-25l.92,2.19.06.15.71,1.72.71,1.7.47,1.14.25.58.71,1.7.72,1.72.27.67.43,1,.71,1.72.71,1.7.1.24.62,1.48.71,1.7.63,1.52.09.2.71,1.7.72,1.71L98.2,71l2.29,3.18.35-.86.17-.41.52-1.25v0l.51-1.22.2-.49.32-.77.4-.94.13-.32.52-1.24.06-.14.48-1.12.24-.6.28-.66.43-1,.09-.22.52-1.24.11-.26.42-1,.29-.7.23-.56.48-1.16,0-.1.52-1.26.14-.34.38-.92.34-.8.19-.46.52-1.24.54-1.26.18-.46.34-.8.37-.9L111,49l.52-1.25,0-.1,1-2.34Z"/><rect class="cls-1" x="50" y="75.73" width="100" height="50"/></svg>