<svg id="Layer_1" data-name="Layer 1" xmlns="http://www.w3.org/2000/svg" viewBox="0 0 200 200"><title>Artboard 3</title><path d="M100.15,79.65c27.33,0,49.58,17.7,49.75,39.5H50.4c.17-21.8,22.42-39.5,49.75-39.5m0-.25c-27.65,0-50,17.87-50,40h100c0-22.13-22.4-40-50-40Z"/><path d="M100.15,83.23l.92,1.58.93,1.57,1.84,3.15.93,1.56.91,1.57.69,1.17.06.11h.12l.74.1,2.91.34,2.9.36,2.92.37,2.9.34,1.45.18-2.66,2.18-7.3,6-.12.09,0,.15.12.56.38,1.89.38,1.9.39,1.9.38,1.9.39,1.89.31,1.55-1.7-.76-2-.9-2-.89-2-.89-2-.9-2-.89-.6-.27-.1,0-.1,0-8.88,3.94-3.56,1.56.23-1.19.5-2.44,1.5-7.32.14-.64,0-.15-.12-.09-1.1-.9-1.48-1.22-1.5-1.23-1.49-1.21L82.83,98l-1.49-1.23-1.41-1.15,4.85-.59,4.37-.54L93.49,94l.24,0,.12,0,.07-.11.1-.17,2-3.33,2-3.34,2.22-3.76m0-.5-2.43,4.14-2,3.33-2,3.33-.1.18-.23,0-4.35.54-4.37.53-5.43.67L81.18,97l1.49,1.22,1.5,1.23,1.48,1.21,1.5,1.23,1.48,1.23,1.1.89-.13.64L88.1,112l-.5,2.44-.33,1.67,4-1.76,8.88-3.94.6.27,2,.89,2,.9,2,.89,2,.89,2,.9,2.15,1-.42-2-.38-1.89-.39-1.9-.38-1.9-.38-1.9-.39-1.89-.11-.56,7.3-6L121,95.47l-2-.26-2.9-.34-2.92-.36-2.9-.36-2.91-.35-.74-.09-.68-1.18L105,91l-.93-1.56-1.83-3.15-.94-1.57-1.13-2Z"/><path d="M101.2,85l.8,1.35,1.84,3.15.93,1.56.91,1.57.69,1.17.06.11h.12l.74.1,2.91.34,2.9.36,2.92.37,2.9.34,1.45.18-2.66,2.18-7.3,6-.12.09,0,.15.12.56.38,1.89.38,1.9.39,1.9.38,1.9.39,1.89.31,1.55-1.7-.76-2-.9-2-.89-2-.89-2-.9-2-.89-.6-.27-.1,0-.1,0-8.88,3.94-3.56,1.56.23-1.19.5-2.44,1.5-7.32.14-.64,0-.15-.12-.09-1.1-.9-1.48-1.22-1.5-1.23-1.49-1.21L82.83,98l-1.22-1,3.22-2,4.32-.53L93.5,94h0l0,0,.33-.2,0,0,0-.06,2-3.33,1.92-3.28,3.3-2m.08-.35-3.56,2.19-2,3.33-2,3.33-.33.2-4.35.54-4.37.53L81.18,97l1.49,1.22,1.5,1.23,1.48,1.21,1.5,1.23,1.48,1.23,1.1.89-.13.64L88.1,112l-.5,2.44-.33,1.67,4-1.76,8.88-3.94.6.27,2,.89,2,.9,2,.89,2,.89,2,.9,2.15,1-.42-2-.38-1.89-.39-1.9-.38-1.9-.38-1.9-.39-1.89-.11-.56,7.3-6L121,95.47l-2-.26-2.9-.34-2.92-.36-2.9-.36-2.91-.35-.74-.09-.68-1.18L105,91l-.93-1.56-1.83-3.15-.94-1.57Z"/><path d="M102.13,86.6l1.71,2.93.93,1.56.91,1.57.69,1.17.06.11h.12l.74.1,2.91.34,2.9.36,2.92.37,2.9.34,1.45.18-2.66,2.18-7.3,6-.12.09,0,.15.12.56.38,1.89.38,1.9.39,1.9.38,1.9.39,1.89.31,1.55-1.7-.76-2-.9-2-.89-2-.89-2-.9-2-.89-.6-.27-.1,0-.1,0-8.88,3.94-3.56,1.56.23-1.19.5-2.44,1.5-7.32.14-.64,0-.15-.12-.09-1.1-.9-1.48-1.22-1.5-1.23-1.49-1.21-1.22-1,6.1-3.73L93.5,94h0l0,0,.33-.2,0,0,0-.06L96,90.38l6.18-3.78m.09-.35-6.45,4-2,3.33-.33.2-4.35.54-6.45,3.94,1.5,1.23,1.48,1.21,1.5,1.23,1.48,1.23,1.1.89-.13.64L88.1,112l-.5,2.44-.33,1.67,4-1.76,8.88-3.94.6.27,2,.89,2,.9,2,.89,2,.89,2,.9,2.15,1-.42-2-.38-1.89-.39-1.9-.38-1.9-.38-1.9-.39-1.89-.11-.56,7.3-6L121,95.47l-2-.26-2.9-.34-2.92-.36-2.9-.36-2.91-.35-.74-.09-.68-1.18L105,91l-.93-1.56-1.83-3.15Z"/><path d="M103.05,88.17l.79,1.36.93,1.56.91,1.57.69,1.17.06.11h.12l.74.1,2.91.34,2.9.36,2.92.37,2.9.34,1.45.18-2.66,2.18-7.3,6-.12.09,0,.15.12.56.38,1.89.38,1.9.39,1.9.38,1.9.39,1.89.31,1.55-1.7-.76-2-.9-2-.89-2-.89-2-.9-2-.89-.6-.27-.1,0-.1,0-8.88,3.94-3.56,1.56.23-1.19.5-2.44,1.5-7.32.14-.64,0-.15-.12-.09-1.1-.9-1.48-1.22-1.5-1.23-1.21-1,9-5.52.33-.2,9.12-5.58m.08-.34-9.33,5.7-.33.2-9.3,5.71,1.48,1.21,1.5,1.23,1.48,1.23,1.1.89-.13.64L88.1,112l-.5,2.44-.33,1.67,4-1.76,8.88-3.94.6.27,2,.89,2,.9,2,.89,2,.89,2,.9,2.15,1-.42-2-.38-1.89-.39-1.9-.38-1.9-.38-1.9-.39-1.89-.11-.56,7.3-6L121,95.47l-2-.26-2.9-.34-2.92-.36-2.9-.36-2.91-.35-.74-.09-.68-1.18L105,91l-.93-1.56-.92-1.57Z"/><path d="M104,89.75l.8,1.34.91,1.57.69,1.17.06.11h.12l.74.1,2.91.34,2.9.36,2.92.37,2.9.34,1.45.18-2.66,2.18-7.3,6-.12.09,0,.15.12.56.38,1.89.38,1.9.39,1.9.38,1.9.39,1.89.31,1.55-1.7-.76-2-.9-2-.89-2-.89-2-.9-2-.89-.6-.27-.1,0-.1,0-8.88,3.94-3.56,1.56.23-1.19.5-2.44,1.5-7.32.14-.64,0-.15-.12-.09-1.1-.9-1.48-1.22-1.23-1L104,89.75m.08-.35-18.4,11.25,1.5,1.23,1.48,1.23,1.1.89-.13.64L88.1,112l-.5,2.44-.33,1.67,4-1.76,8.88-3.94.6.27,2,.89,2,.9,2,.89,2,.89,2,.9,2.15,1-.42-2-.38-1.89-.39-1.9-.38-1.9-.38-1.9-.39-1.89-.11-.56,7.3-6L121,95.47l-2-.26-2.9-.34-2.92-.36-2.9-.36-2.91-.35-.74-.09-.68-1.18L105,91l-.93-1.56Z"/><path d="M104.9,91.31l.78,1.35.69,1.17.06.11h.12l.74.1,2.91.34,2.9.36,2.92.37,2.9.34,1.45.18-2.66,2.18-7.3,6-.12.09,0,.15.12.56.38,1.89.38,1.9.39,1.9.38,1.9.39,1.89.31,1.55-1.7-.76-2-.9-2-.89-2-.89-2-.9-2-.89-.6-.27-.1,0-.1,0-8.88,3.94-3.56,1.56.23-1.19.5-2.44,1.5-7.32.14-.64,0-.15-.12-.09-1.1-.9-1.21-1,17.32-10.6M105,91,87.15,101.88l1.48,1.23,1.1.89-.13.64L88.1,112l-.5,2.44-.33,1.67,4-1.76,8.88-3.94.6.27,2,.89,2,.9,2,.89,2,.89,2,.9,2.15,1-.42-2-.38-1.89-.39-1.9-.38-1.9-.38-1.9-.39-1.89-.11-.56,7.3-6L121,95.47l-2-.26-2.9-.34-2.92-.36-2.9-.36-2.91-.35-.74-.09-.68-1.18L105,91Z"/><path d="M105.81,92.88l.56,1,.06.11h.12l.74.1,2.91.34,2.9.36,2.92.37,2.9.34,1.45.18-2.66,2.18-7.3,6-.12.09,0,.15.12.56.38,1.89.38,1.9.39,1.9.38,1.9.39,1.89.31,1.55-1.7-.76-2-.9-2-.89-2-.89-2-.9-2-.89-.6-.27-.1,0-.1,0-8.88,3.94-3.56,1.56.23-1.19.5-2.44,1.5-7.32.14-.64,0-.15-.12-.09-.82-.67,16.74-10.26m.09-.35L88.63,103.11l1.1.89-.13.64L88.1,112l-.5,2.44-.33,1.67,4-1.76,8.88-3.94.6.27,2,.89,2,.9,2,.89,2,.89,2,.9,2.15,1-.42-2-.38-1.89-.39-1.9-.38-1.9-.38-1.9-.39-1.89-.11-.56,7.3-6L121,95.47l-2-.26-2.9-.34-2.92-.36-2.9-.36-2.91-.35-.74-.09-.68-1.18Z"/><path d="M107.37,94.06l2.83.33,2.9.36,2.92.37,2.9.34,1.45.18-2.66,2.18-7.3,6-.12.09,0,.15.12.56.38,1.89.38,1.9.39,1.9.38,1.9.39,1.89.31,1.55-1.7-.76-2-.9-2-.89-2-.89-2-.9-2-.89-.6-.27-.1,0-.1,0-8.88,3.94-3.56,1.56.23-1.19.5-2.44,1.48-7.21,17.55-10.74m-.05-.26L89.6,104.64,88.1,112l-.5,2.44-.33,1.67,4-1.76,8.88-3.94.6.27,2,.89,2,.9,2,.89,2,.89,2,.9,2.15,1-.42-2-.38-1.89-.39-1.9-.38-1.9-.38-1.9-.39-1.89-.11-.56,7.3-6L121,95.47l-2-.26-2.9-.34-2.92-.36-2.9-.36-2.91-.35Z"/><path d="M110.29,94.41l2.81.34,2.92.37,2.9.34,1.45.18-2.66,2.18-7.3,6-.12.09,0,.15.12.56.38,1.89.38,1.9.39,1.9.38,1.9.39,1.89.31,1.55-1.7-.76-2-.9-2-.89-2-.89-2-.9-2-.89-.6-.27-.1,0-.1,0-8.88,3.94-3.56,1.56.23-1.19.5-2.44,1-4.77,21-12.83m-.06-.26L89.1,107.08l-1,4.88-.5,2.44-.33,1.67,4-1.76,8.88-3.94.6.27,2,.89,2,.9,2,.89,2,.89,2,.9,2.15,1-.42-2-.38-1.89-.39-1.9-.38-1.9-.38-1.9-.39-1.89-.11-.56,7.3-6L121,95.47l-2-.26-2.9-.34-2.92-.36-2.9-.36Z"/><path d="M113.19,94.77l2.83.35,2.9.34,1.45.18-2.66,2.18-7.3,6-.12.09,0,.15.12.56.38,1.89.38,1.9.39,1.9.38,1.9.39,1.89.31,1.55-1.7-.76-2-.9-2-.89-2-.89-2-.9-2-.89-.6-.27-.1,0-.1,0-8.88,3.94-3.56,1.56.23-1.19.5-2.44.48-2.33,24.37-14.91m-.06-.26-24.53,15L88.1,112l-.5,2.44-.33,1.67,4-1.76,8.88-3.94.6.27,2,.89,2,.9,2,.89,2,.89,2,.9,2.15,1-.42-2-.38-1.89-.39-1.9-.38-1.9-.38-1.9-.39-1.89-.11-.56,7.3-6L121,95.47l-2-.26-2.9-.34-2.92-.36Z"/><path d="M116.11,95.13l2.81.33,1.45.18-2.66,2.18-7.3,6-.12.09,0,.15.12.56.38,1.89.38,1.9.39,1.9.38,1.9.39,1.89.31,1.55-1.7-.76-2-.9-2-.89-2-.89-2-.9-2-.89-.6-.27-.1,0-.1,0-8.88,3.94-3.56,1.56.23-1.19.48-2.33,27.79-17m-.06-.26L88.1,112l-.5,2.44-.33,1.67,4-1.76,8.88-3.94.6.27,2,.89,2,.9,2,.89,2,.89,2,.9,2.15,1-.42-2-.38-1.89-.39-1.9-.38-1.9-.38-1.9-.39-1.89-.11-.56,7.3-6L121,95.47l-2-.26-2.9-.34Z"/><path d="M119,95.47l1.36.17-2.66,2.18-7.3,6-.12.09,0,.15.12.56.38,1.89.38,1.9.39,1.9.38,1.9.39,1.89.31,1.55-1.7-.76-2-.9-2-.89-2-.89-2-.9-2-.89-.6-.27-.1,0-.1,0-8.88,3.94-3.56,1.56.21-1.08L119,95.47m-.06-.26L87.6,114.4l-.33,1.67,4-1.76,8.88-3.94.6.27,2,.89,2,.9,2,.89,2,.89,2,.9,2.15,1-.42-2-.38-1.89-.39-1.9-.38-1.9-.38-1.9-.39-1.89-.11-.56,7.3-6L121,95.47l-2-.26Z"/><path d="M114.9,100.13l-4.49,3.68-.12.09,0,.15.12.56.38,1.89.38,1.9.39,1.9.38,1.9.39,1.89.31,1.55-1.7-.76-2-.9-2-.89-2-.89-2-.9-2-.89-.6-.27-.1,0-.1,0-5.45,2.42,20.3-12.43m3-2.12-26.6,16.3,8.88-3.94.6.27,2,.89,2,.9,2,.89,2,.89,2,.9,2.15,1-.42-2-.38-1.89-.39-1.9-.38-1.9-.38-1.9-.39-1.89-.11-.56,7.3-6Z"/><path d="M110.51,105l.31,1.54.38,1.9.39,1.9.38,1.9.39,1.89.31,1.55-1.7-.76-2-.9-2-.89-2-.89-2-.9-1.58-.7,9.22-5.64m.17-.4-9.93,6.08,2,.89,2,.9,2,.89,2,.89,2,.9,2.15,1-.42-2-.38-1.89-.39-1.9-.38-1.9-.38-1.9-.39-1.89Z"/><path d="M110.89,106.85l.31,1.55.39,1.9.38,1.9.39,1.89.31,1.55-1.7-.76-2-.9-2-.89-2-.89-1.58-.7,7.59-4.65m.18-.4-8.3,5.08,2,.9,2,.89,2,.89,2,.9,2.15,1-.42-2-.38-1.89-.39-1.9-.38-1.9-.38-1.9Z"/><path d="M111.28,108.75l.31,1.55.38,1.9.39,1.89.31,1.55-1.7-.76-2-.9-2-.89-1.6-.7,6-3.64m.17-.4-6.67,4.08,2,.89,2,.89,2,.9,2.15,1-.42-2-.38-1.89-.39-1.9-.38-1.9Z"/><path d="M111.66,110.65l.31,1.55.39,1.89.31,1.55-1.7-.76-2-.9-1.58-.7,4.31-2.63m.17-.4-5,3.07,2,.89,2,.9,2.15,1-.42-2-.38-1.89-.39-1.9Z"/><path d="M112,112.55l.32,1.54.31,1.55-1.7-.76-1.6-.7,2.67-1.63m.18-.4-3.39,2.06,2,.9,2.15,1-.42-2-.38-1.89Z"/><path d="M112.43,114.44l.24,1.2-1.27-.57,1-.63m.17-.4-1.73,1.07,2.15,1-.42-2Z"/></svg>