<svg id="Layer_1" data-name="Layer 1" xmlns="http://www.w3.org/2000/svg" viewBox="0 0 200 85.88"><title>Artboard 3</title><path d="M100,9.41c49.07,0,89.37,30.2,92.64,68.28H7.36C10.63,39.61,50.93,9.41,100,9.41m0-5c-54.11,0-97.85,35-97.85,78.28h195.7C197.85,39.38,154,4.41,100,4.41Z"/><path d="M100,14.89l.51.87,1.82,3.07,3.6,6.18,1.81,3,1.79,3.08,1.34,2.3.5.85,1,.12,1.45.19,5.7.67,5.67.71,5.72.7,5,.6-2.48,2L119.12,51l-.94.76.25,1.19.22,1.09.75,3.7.75,3.7.75,3.74.75,3.7.76,3.71,0,.15-.66-.29-4-1.75-4-1.75-4-1.75-3.95-1.74L102,63.72l-1.18-.52-.81-.36-.81.36L81.81,70.89l-4.3,1.9.87-4.26,2.93-14.32L81.57,53l.25-1.19L80.88,51l-2.14-1.74-2.91-2.4-2.94-2.4L70,42.08l-2.93-2.39-2.91-2.41h0l6-.74,8.55-1,8.5-1,.45-.05,1-.12.5-.87.19-.32,3.85-6.53L97,20l3-5.15m0-4L95.24,19l-3.82,6.53-3.85,6.52-.19.34-.46.05-8.51,1-8.55,1-10.63,1.3,3.65,3,2.91,2.4,2.93,2.4L71.62,46l2.94,2.4,2.9,2.4,2.15,1.75-.26,1.25L76.42,68.13l-1,4.78-.65,3.26,7.83-3.45L100,65l1.17.52,4,1.75L109.07,69l4,1.75L117,72.54l4,1.75,4.21,1.88-.82-4-.75-3.7-.75-3.71-.75-3.73-.75-3.71-.75-3.7-.22-1.1,14.28-11.71,6.1-5-4-.49-5.67-.68L125.41,34l-5.68-.7-5.7-.68-1.44-.18-1.34-2.3L109.46,27,107.63,24,104,17.82l-1.82-3.08L100,10.93Z"/><path d="M101.53,17.51l.79,1.32,3.6,6.18,1.81,3,1.79,3.08,1.34,2.3.5.85,1,.12,1.45.19,5.7.67,5.67.71,5.72.7,5,.6-2.48,2L119.12,51l-.94.76.25,1.19.22,1.09.75,3.7.75,3.7.75,3.74.75,3.7.76,3.71,0,.15-.66-.29-4-1.75-4-1.75-4-1.75-3.95-1.74L102,63.72l-1.18-.52-.81-.36-.81.36L81.81,70.89l-4.3,1.9.87-4.26,2.93-14.32L81.57,53l.25-1.19L80.88,51l-2.14-1.74-2.91-2.4-2.94-2.4L70,42.08l-2.93-2.39-.75-.62,4.23-2.59,8.11-1,8.51-1,.43-.06.36-.21.65-.4.44-.26.26-.43,3.85-6.53,3.56-6.09,4.82-3m.69-2.77-7,4.28-3.82,6.53-3.85,6.52-.65.39-8.51,1-8.55,1-7,4.28,2.91,2.4,2.93,2.4L71.62,46l2.94,2.4,2.9,2.4,2.15,1.75-.26,1.25L76.42,68.13l-1,4.78-.65,3.26,7.83-3.45L100,65l1.17.52,4,1.75L109.07,69l4,1.75L117,72.54l4,1.75,4.21,1.88-.82-4-.75-3.7-.75-3.71-.75-3.73-.75-3.71-.75-3.7-.22-1.1,14.28-11.71,6.1-5-4-.49-5.67-.68L125.41,34l-5.68-.7-5.7-.68-1.44-.18-1.34-2.3L109.46,27,107.63,24,104,17.82l-1.82-3.08Z"/><path d="M103.35,20.59,105.92,25l1.81,3,1.79,3.08,1.34,2.3.5.85,1,.12,1.45.19,5.7.67,5.67.71,5.72.7,5,.6-2.48,2L119.12,51l-.94.76.25,1.19.22,1.09.75,3.7.75,3.7.75,3.74.75,3.7.76,3.71,0,.15-.66-.29-4-1.75-4-1.75-4-1.75-3.95-1.74L102,63.72l-1.18-.52-.81-.36-.81.36L81.81,70.89l-4.3,1.9.87-4.26,2.93-14.32L81.57,53l.25-1.19L80.88,51l-2.14-1.74-2.91-2.4-2.94-2.4L70,42.08l-.76-.62,9.85-6,8.08-1,.43-.06.36-.21.65-.4.44-.26.26-.43L92.89,27l10.46-6.4m.69-2.77L91.42,25.55l-3.85,6.52-.65.39-8.51,1L65.79,41.23l2.93,2.4L71.62,46l2.94,2.4,2.9,2.4,2.15,1.75-.26,1.25L76.42,68.13l-1,4.78-.65,3.26,7.83-3.45L100,65l1.17.52,4,1.75L109.07,69l4,1.75L117,72.54l4,1.75,4.21,1.88-.82-4-.75-3.7-.75-3.71-.75-3.73-.75-3.71-.75-3.7-.22-1.1,14.28-11.71,6.1-5-4-.49-5.67-.68L125.41,34l-5.68-.7-5.7-.68-1.44-.18-1.34-2.3L109.46,27,107.63,24,104,17.82Z"/><path d="M105.14,23.67l.78,1.34,1.81,3,1.79,3.08,1.34,2.3.5.85,1,.12,1.45.19,5.7.67,5.67.71,5.72.7,5,.6-2.48,2L119.12,51l-.94.76.25,1.19.22,1.09.75,3.7.75,3.7.75,3.74.75,3.7.76,3.71,0,.15-.66-.29-4-1.75-4-1.75-4-1.75-3.95-1.74L102,63.72l-1.18-.52-.81-.36-.81.36L81.81,70.89l-4.3,1.9.87-4.26,2.93-14.32L81.57,53l.25-1.19L80.88,51l-2.14-1.74-2.91-2.4-2.94-2.4-.73-.6L88,34.18l.67-.4,16.52-10.11m.7-2.77L87.57,32.07l-.65.39L68.72,43.63,71.62,46l2.94,2.4,2.9,2.4,2.15,1.75-.26,1.25L76.42,68.13l-1,4.78-.65,3.26,7.83-3.45L100,65l1.17.52,4,1.75L109.07,69l4,1.75L117,72.54l4,1.75,4.21,1.88-.82-4-.75-3.7-.75-3.71-.75-3.73-.75-3.71-.75-3.7-.22-1.1,14.28-11.71,6.1-5-4-.49-5.67-.68L125.41,34l-5.68-.7-5.7-.68-1.44-.18-1.34-2.3L109.46,27,107.63,24l-1.79-3.08Z"/><path d="M107,26.74l.78,1.3,1.79,3.08,1.34,2.3.5.85,1,.12,1.45.19,5.7.67,5.67.71,5.72.7,5,.6-2.48,2L119.12,51l-.94.76.25,1.19.22,1.09.75,3.7.75,3.7.75,3.74.75,3.7.76,3.71,0,.15-.66-.29-4-1.75-4-1.75-4-1.75-3.95-1.74L102,63.72l-1.18-.52-.81-.36-.81.36L81.81,70.89l-4.3,1.9.87-4.26,2.93-14.32L81.57,53l.25-1.19L80.88,51l-2.14-1.74-2.91-2.4-.76-.62L107,26.74m.68-2.76-36,22,2.94,2.4,2.9,2.4,2.15,1.75-.26,1.25L76.42,68.13l-1,4.78-.65,3.26,7.83-3.45L100,65l1.17.52,4,1.75L109.07,69l4,1.75L117,72.54l4,1.75,4.21,1.88-.82-4-.75-3.7-.75-3.71-.75-3.73-.75-3.71-.75-3.7-.22-1.1,14.28-11.71,6.1-5-4-.49-5.67-.68L125.41,34l-5.68-.7-5.7-.68-1.44-.18-1.34-2.3L109.46,27,107.63,24Z"/><path d="M108.76,29.81l.76,1.31,1.34,2.3.5.85,1,.12,1.45.19,5.7.67,5.67.71,5.72.7,5,.6-2.48,2L119.12,51l-.94.76.25,1.19.22,1.09.75,3.7.75,3.7.75,3.74.75,3.7.76,3.71,0,.15-.66-.29-4-1.75-4-1.75-4-1.75-3.95-1.74L102,63.72l-1.18-.52-.81-.36-.81.36L81.81,70.89l-4.3,1.9.87-4.26,2.93-14.32L81.57,53l.25-1.19L80.88,51l-2.14-1.74L78,48.65l30.77-18.84m.7-2.78L74.56,48.4l2.9,2.4,2.15,1.75-.26,1.25L76.42,68.13l-1,4.78-.65,3.26,7.83-3.45L100,65l1.17.52,4,1.75L109.07,69l4,1.75L117,72.54l4,1.75,4.21,1.88-.82-4-.75-3.7-.75-3.71-.75-3.73-.75-3.71-.75-3.7-.22-1.1,14.28-11.71,6.1-5-4-.49-5.67-.68L125.41,34l-5.68-.7-5.7-.68-1.44-.18-1.34-2.3L109.46,27Z"/><path d="M110.55,32.89l.31.53.5.85,1,.12,1.45.19,5.7.67,5.67.71,5.72.7,5,.6-2.48,2L119.12,51l-.94.76.25,1.19.22,1.09.75,3.7.75,3.7.75,3.74.75,3.7.76,3.71,0,.15-.66-.29-4-1.75-4-1.75-4-1.75-3.95-1.74L102,63.72l-1.18-.52-.81-.36-.81.36L81.81,70.89l-4.3,1.9.87-4.26,2.93-14.32L81.57,53l.25-1.19-.9-.74,29.63-18.14m.7-2.78L77.46,50.8l2.15,1.75-.26,1.26L76.42,68.13l-1,4.78-.65,3.26,7.83-3.45L100,65l1.17.52,4,1.75L109.07,69l4,1.75L117,72.54l4,1.75,4.21,1.88-.82-4-.75-3.7-.75-3.71-.75-3.73-.75-3.71-.75-3.7-.22-1.1,14.28-11.71,6.1-5-4-.49-5.67-.68L125.41,34l-5.68-.7-5.7-.68-1.44-.18-1.34-2.3Z"/><path d="M114.48,34.66l5,.59,5.67.71,5.72.7,5,.6-2.48,2L119.12,51l-.94.76.25,1.19.22,1.09.75,3.7.75,3.7.75,3.74.75,3.7.76,3.71,0,.15-.66-.29-4-1.75-4-1.75-4-1.75-3.95-1.74L102,63.72l-1.18-.52-.81-.36-.81.36L81.81,70.89l-4.3,1.9.87-4.26,2.76-13.47,33.34-20.4M114,32.59,79.35,53.8,76.42,68.13l-1,4.78-.65,3.26,7.83-3.45L100,65l1.17.52,4,1.75L109.07,69l4,1.75L117,72.54l4,1.75,4.21,1.88-.82-4-.75-3.7-.75-3.71-.75-3.73-.75-3.71-.75-3.7-.22-1.1,14.28-11.71,6.1-5-4-.49-5.67-.68L125.41,34l-5.68-.7-5.7-.68Z"/><path d="M120.18,35.34l5,.62,5.72.7,5,.6-2.48,2L119.12,51l-.94.76.25,1.19.22,1.09.75,3.7.75,3.7.75,3.74.75,3.7.76,3.71,0,.15-.66-.29-4-1.75-4-1.75-4-1.75-3.95-1.74L102,63.72l-1.18-.52-.81-.36-.81.36L81.81,70.89l-4.3,1.9.87-4.26,1.78-8.7,40-24.49m-.45-2.07L78.38,58.58l-2,9.55-1,4.78-.65,3.26,7.83-3.45L100,65l1.17.52,4,1.75L109.07,69l4,1.75L117,72.54l4,1.75,4.21,1.88-.82-4-.75-3.7-.75-3.71-.75-3.73-.75-3.71-.75-3.7-.22-1.1,14.28-11.71,6.1-5-4-.49-5.67-.68L125.41,34l-5.68-.7Z"/><path d="M125.86,36l5,.62,5,.6-2.48,2L119.12,51l-.94.76.25,1.19.22,1.09.75,3.7.75,3.7.75,3.74.75,3.7.76,3.71,0,.15-.66-.29-4-1.75-4-1.75-4-1.75-3.95-1.74L102,63.72l-1.18-.52-.81-.36-.81.36L81.81,70.89l-4.3,1.9.87-4.26.8-3.92L125.86,36M125.41,34l-48,29.39-1,4.77-1,4.78-.65,3.26,7.83-3.45L100,65l1.17.52,4,1.75L109.07,69l4,1.75L117,72.54l4,1.75,4.21,1.88-.82-4-.75-3.7-.75-3.71-.75-3.73-.75-3.71-.75-3.7-.22-1.1,14.28-11.71,6.1-5-4-.49-5.67-.68L125.41,34Z"/><path d="M131.57,36.75l4.31.51-2.48,2L119.12,51l-.94.76.25,1.19.22,1.09.75,3.7.75,3.7.75,3.74.75,3.7.76,3.71,0,.15-.66-.29-4-1.75-4-1.75-4-1.75-3.95-1.74L102,63.72l-1.18-.52-.81-.36-.81.36L81.81,70.89l-4.3,1.9.69-3.41,53.37-32.63m-.45-2.07L76.42,68.13l-1,4.78-.65,3.26,7.83-3.45L100,65l1.17.52,4,1.75L109.07,69l4,1.75L117,72.54l4,1.75,4.21,1.88-.82-4-.75-3.7-.75-3.71-.75-3.73-.75-3.71-.75-3.7-.22-1.1,14.28-11.71,6.1-5-4-.49-5.67-.68Z"/><path d="M131.07,41.2,119.12,51l-.94.76.25,1.19.22,1.09.75,3.7.75,3.7.75,3.74.75,3.7.76,3.71,0,.15-.66-.29-4-1.75-4-1.75-4-1.75-3.95-1.74L102,63.72l-1.18-.52-.81-.36-.81.36L84.52,69.69,131.07,41.2m5.72-5.84L75.44,72.91l-.65,3.26,7.83-3.45L100,65l1.17.52,4,1.75L109.07,69l4,1.75L117,72.54l4,1.75,4.21,1.88-.82-4-.75-3.7-.75-3.71-.75-3.73-.75-3.71-.75-3.7-.22-1.1,14.28-11.71,6.1-5-4-.49Z"/><path d="M118.46,53.11l.19.94.75,3.7.75,3.7.75,3.74.75,3.7.76,3.71,0,.15-.66-.29-4-1.75-4-1.75-4-1.75-3.95-1.74L102,63.72l-.49-.22,17-10.39m16.21-12.27-52,31.88L100,65l1.17.52,4,1.75L109.07,69l4,1.75L117,72.54l4,1.75,4.21,1.88-.82-4-.75-3.7-.75-3.71-.75-3.73-.75-3.71-.75-3.7-.22-1.1,14.28-11.71Z"/><path d="M119.22,56.85l.18.9.75,3.7.75,3.74.75,3.7.76,3.71,0,.15-.66-.29-4-1.75-4-1.75-4-1.75-3.95-1.74-.46-.21,13.75-8.41m1.39-3.2-19.44,11.9,4,1.75L109.07,69l4,1.75L117,72.54l4,1.75,4.21,1.88-.82-4-.75-3.7-.75-3.71-.75-3.73-.75-3.71-.75-3.7Z"/><path d="M120,60.55l.18.9.75,3.74.75,3.7.76,3.71,0,.15-.66-.29-4-1.75-4-1.75-4-1.75-.46-.2L120,60.55m1.39-3.2L105.12,67.3,109.07,69l4,1.75L117,72.54l4,1.75,4.21,1.88-.82-4-.75-3.7-.75-3.71-.75-3.73-.75-3.71Z"/><path d="M120.72,64.26l.18.93.75,3.7.76,3.71,0,.15-.66-.29-4-1.75-4-1.75-.47-.21,7.34-4.49m1.39-3.2-13,8,4,1.75L117,72.54l4,1.75,4.21,1.88-.82-4-.75-3.7-.75-3.71-.75-3.73Z"/><path d="M121.47,68l.18.9.76,3.71,0,.15-.66-.29-4-1.75-.46-.2L121.47,68m1.39-3.2-9.81,6L117,72.54l4,1.75,4.21,1.88-.82-4-.75-3.7-.75-3.71Z"/><path d="M122.22,71.69l.19.91,0,.15-.66-.29-.48-.21.92-.56m1.39-3.19-6.62,4,4,1.75,4.21,1.88-.82-4-.75-3.7Z"/><polygon points="124.36 72.2 120.97 74.29 125.18 76.17 124.36 72.2 124.36 72.2"/></svg>