<svg id="Layer_1" data-name="Layer 1" xmlns="http://www.w3.org/2000/svg" viewBox="0 0 161.67 200"><defs><style>.cls-1{fill:none;stroke:#000;stroke-miterlimit:10;stroke-width:2px;}</style></defs><title>Artboard6</title><path d="M81.67,53.47l19.52,41.59,1.13,2.41,2.64.41,44.15,6.74L117,137.53l-1.77,1.81.41,2.49L123.17,188,84.09,166.37,81.67,165l-2.42,1.33L40.17,188l7.52-46.15.41-2.49-1.76-1.81L14.23,104.62l44.15-6.74L61,97.47l1.14-2.41L81.67,53.47m0-11.77L57.62,92.93,3.85,101.15,42.76,141l-9.19,56.3,48.1-26.58,48.09,26.58L120.57,141l38.91-39.88-53.77-8.22-24-51.23Z"/><path class="cls-1" d="M125.83,3.45V3.32h-90a32.54,32.54,0,0,0,1.83,10.75,34.66,34.66,0,0,0,3.08,6.52,37.34,37.34,0,0,0,4.17,5.6A39.5,39.5,0,0,0,50,31a43.66,43.66,0,0,0,6,4,47.43,47.43,0,0,0,7,3.21,50.74,50.74,0,0,0,8.18,2.21,52.21,52.21,0,0,0,9.61.87H81a52.3,52.3,0,0,0,12.65-1.56c14.55-3.64,26-13.33,30.34-25.62A32.2,32.2,0,0,0,125.83,3.45Z"/><path class="cls-1" d="M124,14.14,93.64,39.76C108.19,36.12,119.67,26.43,124,14.14Z"/><path class="cls-1" d="M125.83,3.45,81,41.32a52.3,52.3,0,0,0,12.65-1.56c14.55-3.64,26-13.33,30.34-25.62A32.2,32.2,0,0,0,125.83,3.45Z"/><path class="cls-1" d="M125.83,3.45V3.32H115.19l-44,37.13a52.21,52.21,0,0,0,9.61.87H81a52.3,52.3,0,0,0,12.65-1.56c14.55-3.64,26-13.33,30.34-25.62A32.2,32.2,0,0,0,125.83,3.45Z"/><path class="cls-1" d="M125.83,3.45V3.32H104.39L63,38.24a50.74,50.74,0,0,0,8.18,2.21,52.21,52.21,0,0,0,9.61.87H81a52.3,52.3,0,0,0,12.65-1.56c14.55-3.64,26-13.33,30.34-25.62A32.2,32.2,0,0,0,125.83,3.45Z"/><path class="cls-1" d="M125.83,3.45V3.32H93.59L56,35a47.43,47.43,0,0,0,7,3.21,50.74,50.74,0,0,0,8.18,2.21,52.21,52.21,0,0,0,9.61.87H81a52.3,52.3,0,0,0,12.65-1.56c14.55-3.64,26-13.33,30.34-25.62A32.2,32.2,0,0,0,125.83,3.45Z"/><path class="cls-1" d="M125.83,3.45V3.32h-43L50,31a43.66,43.66,0,0,0,6,4,47.43,47.43,0,0,0,7,3.21,50.74,50.74,0,0,0,8.18,2.21,52.21,52.21,0,0,0,9.61.87H81a52.3,52.3,0,0,0,12.65-1.56c14.55-3.64,26-13.33,30.34-25.62A32.2,32.2,0,0,0,125.83,3.45Z"/><path class="cls-1" d="M125.83,3.45V3.32H72L44.91,26.19A39.5,39.5,0,0,0,50,31a43.66,43.66,0,0,0,6,4,47.43,47.43,0,0,0,7,3.21,50.74,50.74,0,0,0,8.18,2.21,52.21,52.21,0,0,0,9.61.87H81a52.3,52.3,0,0,0,12.65-1.56c14.55-3.64,26-13.33,30.34-25.62A32.2,32.2,0,0,0,125.83,3.45Z"/><path class="cls-1" d="M125.83,3.45V3.32H61.19L40.74,20.59a37.34,37.34,0,0,0,4.17,5.6A39.5,39.5,0,0,0,50,31a43.66,43.66,0,0,0,6,4,47.43,47.43,0,0,0,7,3.21,50.74,50.74,0,0,0,8.18,2.21,52.21,52.21,0,0,0,9.61.87H81a52.3,52.3,0,0,0,12.65-1.56c14.55-3.64,26-13.33,30.34-25.62A32.2,32.2,0,0,0,125.83,3.45Z"/><path class="cls-1" d="M125.83,3.45V3.32H50.39L37.66,14.07a34.66,34.66,0,0,0,3.08,6.52,37.34,37.34,0,0,0,4.17,5.6A39.5,39.5,0,0,0,50,31a43.66,43.66,0,0,0,6,4,47.43,47.43,0,0,0,7,3.21,50.74,50.74,0,0,0,8.18,2.21,52.21,52.21,0,0,0,9.61.87H81a52.3,52.3,0,0,0,12.65-1.56c14.55-3.64,26-13.33,30.34-25.62A32.2,32.2,0,0,0,125.83,3.45Z"/></svg>