<svg id="Layer_1" data-name="Layer 1" xmlns="http://www.w3.org/2000/svg" viewBox="0 0 161.67 200"><defs><style>.cls-1{fill:none;stroke:#000;stroke-miterlimit:10;}</style></defs><title>Artboard6</title><path d="M81.67,53.47l19.52,41.59,1.13,2.41,2.64.41,44.15,6.74L117,137.53l-1.77,1.81.41,2.49L123.17,188,84.09,166.37,81.67,165l-2.42,1.33L40.17,188l7.52-46.15.41-2.49-1.76-1.81L14.23,104.62l44.15-6.74L61,97.47l1.14-2.41L81.67,53.47m0-11.77L57.62,92.93,3.85,101.15,42.76,141l-9.19,56.3,48.1-26.58,48.09,26.58L120.57,141l38.91-39.88-53.77-8.22-24-51.23Z"/><path class="cls-1" d="M39,3.32,76.85,41.17c1.31.1,2.64.15,4,.15H81l1.09,0q2.07,0,4.08-.24L48.42,3.32Z"/><path class="cls-1" d="M57.84,3.32l36.3,36.3c1.08-.28,2.14-.59,3.18-.94,1.31-.43,2.59-.93,3.84-1.46L67.26,3.32Z"/><path class="cls-1" d="M67.26,3.32l33.9,33.9c.84-.36,1.68-.74,2.49-1.15,1.28-.63,2.51-1.34,3.7-2.08L76.68,3.32Z"/><path class="cls-1" d="M35.83,3.32c0,.23,0,.46,0,.68a32.85,32.85,0,0,0,.79,6.38L65.22,39a50.53,50.53,0,0,0,6,1.47l1.28.22c1.43.24,2.88.4,4.35.51L39,3.32Z"/><path class="cls-1" d="M37.66,14.06c.13.37.27.74.41,1.11a34.07,34.07,0,0,0,2.67,5.42,38.31,38.31,0,0,0,4.16,5.6A40.33,40.33,0,0,0,50,31a44,44,0,0,0,6,4c1.22.68,2.48,1.32,3.79,1.9,1,.47,2.11.9,3.21,1.3.72.26,1.45.51,2.18.74L36.63,10.38A32.85,32.85,0,0,0,37.66,14.06Z"/><path class="cls-1" d="M48.42,3.32,86.15,41.06q2.05-.21,4-.57c1.17-.21,2.31-.46,3.44-.74l.5-.13L57.84,3.32Z"/><path class="cls-1" d="M122,18.67a34.46,34.46,0,0,0,2-4.54c.11-.29.2-.59.29-.89l-9.91-9.92h-9.42l16.45,16.46C121.6,19.41,121.81,19.05,122,18.67Z"/><path class="cls-1" d="M121.39,19.78,104.94,3.32H95.52l22,22c.33-.4.66-.81,1-1.22A34,34,0,0,0,121.39,19.78Z"/><path class="cls-1" d="M76.68,3.32,107.35,34c.65-.4,1.31-.8,1.93-1.23A41.35,41.35,0,0,0,112.8,30L86.1,3.32Z"/><path class="cls-1" d="M124.47,12.62a33,33,0,0,0,1.36-9.17V3.32H114.36l9.91,9.92C124.34,13,124.41,12.83,124.47,12.62Z"/><path class="cls-1" d="M86.1,3.32,112.8,30c.48-.41,1-.81,1.43-1.25a38.18,38.18,0,0,0,3.29-3.45l-22-22Z"/></svg>