<svg id="Layer_1" data-name="Layer 1" xmlns="http://www.w3.org/2000/svg" viewBox="0 0 200 200"><title>Artboard 4</title><path d="M101,24.85a4,4,0,0,1,.78,0,23,23,0,0,1,2.92.16,21.64,21.64,0,0,1,2.83.42,26.7,26.7,0,0,1,2.72.62,18.36,18.36,0,0,1,2.64.82c.83.28,1.66.61,2.52,1s1.59.8,2.42,1.29,1.4.83,2.32,1.44a22.82,22.82,0,0,1,2.2,1.74c.81.67,1.54,1.39,2.08,1.93a20.89,20.89,0,0,1,1.9,2.32,19,19,0,0,1,1.9,3A17.46,17.46,0,0,1,129.61,43a17.91,17.91,0,0,1,.95,4.28,19.39,19.39,0,0,1,.15,2.09H71.21c.08-6.64,3.29-12.86,9.06-17.55a28.57,28.57,0,0,1,4.43-2.93,28,28,0,0,1,3.87-1.74A24.15,24.15,0,0,1,92.15,26a28,28,0,0,1,3.33-.7,24.74,24.74,0,0,1,3.18-.33c.67,0,1.5-.09,2.3-.09m0-.25c-.78,0-1.56,0-2.31.09a25.65,25.65,0,0,0-3.21.33,30.31,30.31,0,0,0-3.36.71,24.06,24.06,0,0,0-3.6,1.17,28.17,28.17,0,0,0-3.9,1.75,29.56,29.56,0,0,0-4.47,3C74.47,36.19,71,42.52,71,49.6h60a20.37,20.37,0,0,0-.15-2.37,18.78,18.78,0,0,0-1-4.33,17.62,17.62,0,0,0-1.44-3.38,20,20,0,0,0-1.92-3,21.2,21.2,0,0,0-1.92-2.33,28.09,28.09,0,0,0-2.1-2,21.1,21.1,0,0,0-2.22-1.75c-.75-.5-1.53-1-2.34-1.46s-1.59-.88-2.43-1.29a26.41,26.41,0,0,0-2.55-1,18.42,18.42,0,0,0-2.67-.84c-.87-.25-1.8-.45-2.73-.62a22.5,22.5,0,0,0-2.85-.42,23.81,23.81,0,0,0-2.94-.16,3.94,3.94,0,0,0-.78,0Z"/><path d="M101,24.85a4,4,0,0,1,.78,0,23,23,0,0,1,2.92.16,21.64,21.64,0,0,1,2.83.42,26.7,26.7,0,0,1,2.72.62,18.36,18.36,0,0,1,2.64.82c.83.28,1.66.61,2.52,1s1.59.8,2.42,1.29,1.4.83,2.32,1.44a22.82,22.82,0,0,1,2.2,1.74c.81.67,1.54,1.39,2.08,1.93a20.89,20.89,0,0,1,1.9,2.32,19.61,19.61,0,0,1,1.84,2.89l-4.71,9.83H71.87l8.44-17.59a29.2,29.2,0,0,1,4.39-2.89,28,28,0,0,1,3.87-1.74A24.15,24.15,0,0,1,92.15,26a28,28,0,0,1,3.33-.7,24.74,24.74,0,0,1,3.18-.33c.67,0,1.5-.09,2.3-.09m0-.25c-.78,0-1.56,0-2.31.09a25.65,25.65,0,0,0-3.21.33,30.31,30.31,0,0,0-3.36.71,24.06,24.06,0,0,0-3.6,1.17,28.17,28.17,0,0,0-3.9,1.75,29.56,29.56,0,0,0-4.47,3l-8.64,18h52.11l4.83-10.08a20,20,0,0,0-1.92-3,21.2,21.2,0,0,0-1.92-2.33,28.09,28.09,0,0,0-2.1-2,21.1,21.1,0,0,0-2.22-1.75c-.75-.5-1.53-1-2.34-1.46s-1.59-.88-2.43-1.29a26.41,26.41,0,0,0-2.55-1,18.42,18.42,0,0,0-2.67-.84c-.87-.25-1.8-.45-2.73-.62a22.5,22.5,0,0,0-2.85-.42,23.81,23.81,0,0,0-2.94-.16,3.94,3.94,0,0,0-.78,0Z"/><path d="M101,24.85a4,4,0,0,1,.78,0,23,23,0,0,1,2.92.16,21.64,21.64,0,0,1,2.83.42,26.7,26.7,0,0,1,2.72.62,18.36,18.36,0,0,1,2.64.82c.83.28,1.66.61,2.52,1s1.59.8,2.42,1.29,1.4.83,2.32,1.44a22.82,22.82,0,0,1,2.2,1.74c.81.67,1.54,1.39,2.08,1.93a20.89,20.89,0,0,1,1.9,2.32,19,19,0,0,1,1.9,3,17.77,17.77,0,0,1,1.39,3.24l-3.1,6.47H74.93l9.84-20.52a28.2,28.2,0,0,1,3.8-1.7A24.15,24.15,0,0,1,92.15,26a28,28,0,0,1,3.33-.7,24.74,24.74,0,0,1,3.18-.33c.67,0,1.5-.09,2.3-.09m0-.25c-.78,0-1.56,0-2.31.09a25.65,25.65,0,0,0-3.21.33,30.31,30.31,0,0,0-3.36.71,24.06,24.06,0,0,0-3.6,1.17,28.17,28.17,0,0,0-3.9,1.75l-10,21h52.11l3.21-6.7a17.62,17.62,0,0,0-1.44-3.38,20,20,0,0,0-1.92-3,21.2,21.2,0,0,0-1.92-2.33,28.09,28.09,0,0,0-2.1-2,21.1,21.1,0,0,0-2.22-1.75c-.75-.5-1.53-1-2.34-1.46s-1.59-.88-2.43-1.29a26.41,26.41,0,0,0-2.55-1,18.42,18.42,0,0,0-2.67-.84c-.87-.25-1.8-.45-2.73-.62a22.5,22.5,0,0,0-2.85-.42,23.81,23.81,0,0,0-2.94-.16,3.94,3.94,0,0,0-.78,0Z"/><path d="M101,24.85a4,4,0,0,1,.78,0,23,23,0,0,1,2.92.16,21.64,21.64,0,0,1,2.83.42,26.7,26.7,0,0,1,2.72.62,18.36,18.36,0,0,1,2.64.82c.83.28,1.66.61,2.52,1s1.59.8,2.42,1.29,1.4.83,2.32,1.44a22.82,22.82,0,0,1,2.2,1.74c.81.67,1.54,1.39,2.08,1.93a20.89,20.89,0,0,1,1.9,2.32,19,19,0,0,1,1.9,3A17.46,17.46,0,0,1,129.61,43a18,18,0,0,1,.94,4.2l-1,2.17H78l10.7-22.26A24.85,24.85,0,0,1,92.15,26a28,28,0,0,1,3.33-.7,24.74,24.74,0,0,1,3.18-.33c.67,0,1.5-.09,2.3-.09m0-.25c-.78,0-1.56,0-2.31.09a25.65,25.65,0,0,0-3.21.33,30.31,30.31,0,0,0-3.36.71,24.06,24.06,0,0,0-3.6,1.17L77.56,49.6h52.11l1.14-2.37a18.78,18.78,0,0,0-1-4.33,17.62,17.62,0,0,0-1.44-3.38,20,20,0,0,0-1.92-3,21.2,21.2,0,0,0-1.92-2.33,28.09,28.09,0,0,0-2.1-2,21.1,21.1,0,0,0-2.22-1.75c-.75-.5-1.53-1-2.34-1.46s-1.59-.88-2.43-1.29a26.41,26.41,0,0,0-2.55-1,18.42,18.42,0,0,0-2.67-.84c-.87-.25-1.8-.45-2.73-.62a22.5,22.5,0,0,0-2.85-.42,23.81,23.81,0,0,0-2.94-.16,3.94,3.94,0,0,0-.78,0Z"/><path d="M101,24.85a4,4,0,0,1,.78,0,23,23,0,0,1,2.92.16,21.64,21.64,0,0,1,2.83.42,26.7,26.7,0,0,1,2.72.62,18.36,18.36,0,0,1,2.64.82c.83.28,1.66.61,2.52,1s1.59.8,2.42,1.29,1.4.83,2.32,1.44a22.82,22.82,0,0,1,2.2,1.74c.81.67,1.54,1.39,2.08,1.93a20.89,20.89,0,0,1,1.9,2.32,19,19,0,0,1,1.9,3A17.46,17.46,0,0,1,129.61,43a17.91,17.91,0,0,1,.95,4.28,19.39,19.39,0,0,1,.15,2.09H81L92.26,25.94a27.63,27.63,0,0,1,3.22-.67,24.74,24.74,0,0,1,3.18-.33c.67,0,1.5-.09,2.3-.09m0-.25c-.78,0-1.56,0-2.31.09a25.65,25.65,0,0,0-3.21.33,30.31,30.31,0,0,0-3.36.71L80.62,49.6H131a20.37,20.37,0,0,0-.15-2.37,18.78,18.78,0,0,0-1-4.33,17.62,17.62,0,0,0-1.44-3.38,20,20,0,0,0-1.92-3,21.2,21.2,0,0,0-1.92-2.33,28.09,28.09,0,0,0-2.1-2,21.1,21.1,0,0,0-2.22-1.75c-.75-.5-1.53-1-2.34-1.46s-1.59-.88-2.43-1.29a26.41,26.41,0,0,0-2.55-1,18.42,18.42,0,0,0-2.67-.84c-.87-.25-1.8-.45-2.73-.62a22.5,22.5,0,0,0-2.85-.42,23.81,23.81,0,0,0-2.94-.16,3.94,3.94,0,0,0-.78,0Z"/><path d="M101,24.85a4,4,0,0,1,.78,0,23,23,0,0,1,2.92.16,21.64,21.64,0,0,1,2.83.42,26.7,26.7,0,0,1,2.72.62,18.36,18.36,0,0,1,2.64.82c.83.28,1.66.61,2.52,1s1.59.8,2.42,1.29,1.4.83,2.32,1.44a22.82,22.82,0,0,1,2.2,1.74c.81.67,1.54,1.39,2.08,1.93a20.89,20.89,0,0,1,1.9,2.32,19,19,0,0,1,1.9,3A17.46,17.46,0,0,1,129.61,43a17.91,17.91,0,0,1,.95,4.28,19.39,19.39,0,0,1,.15,2.09H84.05l11.56-24.1a23.88,23.88,0,0,1,3-.31c.67,0,1.5-.09,2.3-.09m0-.25c-.78,0-1.56,0-2.31.09a25.65,25.65,0,0,0-3.21.33L83.65,49.6H131a20.37,20.37,0,0,0-.15-2.37,18.78,18.78,0,0,0-1-4.33,17.62,17.62,0,0,0-1.44-3.38,20,20,0,0,0-1.92-3,21.2,21.2,0,0,0-1.92-2.33,28.09,28.09,0,0,0-2.1-2,21.1,21.1,0,0,0-2.22-1.75c-.75-.5-1.53-1-2.34-1.46s-1.59-.88-2.43-1.29a26.41,26.41,0,0,0-2.55-1,18.42,18.42,0,0,0-2.67-.84c-.87-.25-1.8-.45-2.73-.62a22.5,22.5,0,0,0-2.85-.42,23.81,23.81,0,0,0-2.94-.16,3.94,3.94,0,0,0-.78,0Z"/><path d="M101,24.85a4,4,0,0,1,.78,0,23,23,0,0,1,2.92.16,21.64,21.64,0,0,1,2.83.42,26.7,26.7,0,0,1,2.72.62,18.36,18.36,0,0,1,2.64.82c.83.28,1.66.61,2.52,1s1.59.8,2.42,1.29,1.4.83,2.32,1.44a22.82,22.82,0,0,1,2.2,1.74c.81.67,1.54,1.39,2.08,1.93a20.89,20.89,0,0,1,1.9,2.32,19,19,0,0,1,1.9,3A17.46,17.46,0,0,1,129.61,43a17.91,17.91,0,0,1,.95,4.28,19.39,19.39,0,0,1,.15,2.09H87.08L98.81,24.93c.64,0,1.41-.08,2.15-.08m0-.25c-.78,0-1.56,0-2.31.09l-12,24.91H131a20.37,20.37,0,0,0-.15-2.37,18.78,18.78,0,0,0-1-4.33,17.62,17.62,0,0,0-1.44-3.38,20,20,0,0,0-1.92-3,21.2,21.2,0,0,0-1.92-2.33,28.09,28.09,0,0,0-2.1-2,21.1,21.1,0,0,0-2.22-1.75c-.75-.5-1.53-1-2.34-1.46s-1.59-.88-2.43-1.29a26.41,26.41,0,0,0-2.55-1,18.42,18.42,0,0,0-2.67-.84c-.87-.25-1.8-.45-2.73-.62a22.5,22.5,0,0,0-2.85-.42,23.81,23.81,0,0,0-2.94-.16,3.94,3.94,0,0,0-.78,0Z"/><path d="M101.9,24.9a20.74,20.74,0,0,1,2.76.16,21.64,21.64,0,0,1,2.83.42,26.7,26.7,0,0,1,2.72.62,18.36,18.36,0,0,1,2.64.82c.83.28,1.66.61,2.52,1s1.59.8,2.42,1.29,1.4.83,2.32,1.44a22.82,22.82,0,0,1,2.2,1.74c.81.67,1.54,1.39,2.08,1.93a20.89,20.89,0,0,1,1.9,2.32,19,19,0,0,1,1.9,3A17.46,17.46,0,0,1,129.61,43a17.91,17.91,0,0,1,.95,4.28,19.39,19.39,0,0,1,.15,2.09H90.17L101.9,24.9m-.16-.25-12,25H131a20.37,20.37,0,0,0-.15-2.37,18.78,18.78,0,0,0-1-4.33,17.62,17.62,0,0,0-1.44-3.38,20,20,0,0,0-1.92-3,21.2,21.2,0,0,0-1.92-2.33,28.09,28.09,0,0,0-2.1-2,21.1,21.1,0,0,0-2.22-1.75c-.75-.5-1.53-1-2.34-1.46s-1.59-.88-2.43-1.29a26.41,26.41,0,0,0-2.55-1,18.42,18.42,0,0,0-2.67-.84c-.87-.25-1.8-.45-2.73-.62a22.5,22.5,0,0,0-2.85-.42,23.81,23.81,0,0,0-2.94-.16Z"/><path d="M104.83,25.08a20,20,0,0,1,2.66.4,26.7,26.7,0,0,1,2.72.62,18.36,18.36,0,0,1,2.64.82c.83.28,1.66.61,2.52,1s1.59.8,2.42,1.29,1.4.83,2.32,1.44a22.82,22.82,0,0,1,2.2,1.74c.81.67,1.54,1.39,2.08,1.93a20.89,20.89,0,0,1,1.9,2.32,19,19,0,0,1,1.9,3A17.46,17.46,0,0,1,129.61,43a17.91,17.91,0,0,1,.95,4.28,19.39,19.39,0,0,1,.15,2.09H93.2l11.63-24.27m-.15-.27L92.8,49.6H131a20.37,20.37,0,0,0-.15-2.37,18.78,18.78,0,0,0-1-4.33,17.62,17.62,0,0,0-1.44-3.38,20,20,0,0,0-1.92-3,21.2,21.2,0,0,0-1.92-2.33,28.09,28.09,0,0,0-2.1-2,21.1,21.1,0,0,0-2.22-1.75c-.75-.5-1.53-1-2.34-1.46s-1.59-.88-2.43-1.29a26.41,26.41,0,0,0-2.55-1,18.42,18.42,0,0,0-2.67-.84c-.87-.25-1.8-.45-2.73-.62a22.5,22.5,0,0,0-2.85-.42Z"/><path d="M107.67,25.51c.9.17,1.75.36,2.54.59a18.36,18.36,0,0,1,2.64.82c.83.28,1.66.61,2.52,1s1.59.8,2.42,1.29,1.4.83,2.32,1.44a22.82,22.82,0,0,1,2.2,1.74c.81.67,1.54,1.39,2.08,1.93a20.89,20.89,0,0,1,1.9,2.32,19,19,0,0,1,1.9,3A17.46,17.46,0,0,1,129.61,43a17.91,17.91,0,0,1,.95,4.28,19.39,19.39,0,0,1,.15,2.09H96.23l11.44-23.84m-.14-.28L95.83,49.6H131a20.37,20.37,0,0,0-.15-2.37,18.78,18.78,0,0,0-1-4.33,17.62,17.62,0,0,0-1.44-3.38,20,20,0,0,0-1.92-3,21.2,21.2,0,0,0-1.92-2.33,28.09,28.09,0,0,0-2.1-2,21.1,21.1,0,0,0-2.22-1.75c-.75-.5-1.53-1-2.34-1.46s-1.59-.88-2.43-1.29a26.41,26.41,0,0,0-2.55-1,18.42,18.42,0,0,0-2.67-.84c-.87-.25-1.8-.45-2.73-.62Z"/><path d="M110.4,26.14a19.28,19.28,0,0,1,2.45.78c.83.28,1.66.61,2.52,1s1.59.8,2.42,1.29,1.4.83,2.32,1.44a22.82,22.82,0,0,1,2.2,1.74c.81.67,1.54,1.39,2.08,1.93a20.89,20.89,0,0,1,1.9,2.32,19,19,0,0,1,1.9,3A17.46,17.46,0,0,1,129.61,43a17.91,17.91,0,0,1,.95,4.28,19.39,19.39,0,0,1,.15,2.09H99.26L110.4,26.14m-.14-.29L98.86,49.6H131a20.37,20.37,0,0,0-.15-2.37,18.78,18.78,0,0,0-1-4.33,17.62,17.62,0,0,0-1.44-3.38,20,20,0,0,0-1.92-3,21.2,21.2,0,0,0-1.92-2.33,28.09,28.09,0,0,0-2.1-2,21.1,21.1,0,0,0-2.22-1.75c-.75-.5-1.53-1-2.34-1.46s-1.59-.88-2.43-1.29a26.41,26.41,0,0,0-2.55-1,18.42,18.42,0,0,0-2.67-.84Z"/><path d="M113.06,27c.76.26,1.52.56,2.31.91s1.59.8,2.42,1.29,1.4.83,2.32,1.44a22.82,22.82,0,0,1,2.2,1.74c.81.67,1.54,1.39,2.08,1.93a20.89,20.89,0,0,1,1.9,2.32,19,19,0,0,1,1.9,3A17.46,17.46,0,0,1,129.61,43a17.91,17.91,0,0,1,.95,4.28,19.39,19.39,0,0,1,.15,2.09H102.32L113.06,27m-.13-.31-11,22.91h29a20.37,20.37,0,0,0-.15-2.37,18.78,18.78,0,0,0-1-4.33,17.62,17.62,0,0,0-1.44-3.38,20,20,0,0,0-1.92-3,21.2,21.2,0,0,0-1.92-2.33,28.09,28.09,0,0,0-2.1-2,21.1,21.1,0,0,0-2.22-1.75c-.75-.5-1.53-1-2.34-1.46s-1.59-.88-2.43-1.29a26.41,26.41,0,0,0-2.55-1Z"/><path d="M115.6,28c.68.34,1.45.74,2.19,1.18s1.4.83,2.32,1.44a22.82,22.82,0,0,1,2.2,1.74c.81.67,1.54,1.39,2.08,1.93a20.89,20.89,0,0,1,1.9,2.32,19,19,0,0,1,1.9,3A17.46,17.46,0,0,1,129.61,43a17.91,17.91,0,0,1,.95,4.28,19.39,19.39,0,0,1,.15,2.09H105.35L115.6,28m-.12-.33L105,49.6h26a20.37,20.37,0,0,0-.15-2.37,18.78,18.78,0,0,0-1-4.33,17.62,17.62,0,0,0-1.44-3.38,20,20,0,0,0-1.92-3,21.2,21.2,0,0,0-1.92-2.33,28.09,28.09,0,0,0-2.1-2,21.1,21.1,0,0,0-2.22-1.75c-.75-.5-1.53-1-2.34-1.46s-1.59-.88-2.43-1.29Z"/><path d="M118,29.33c.62.36,1.28.77,2.09,1.31a22.82,22.82,0,0,1,2.2,1.74c.81.67,1.54,1.39,2.08,1.93a20.89,20.89,0,0,1,1.9,2.32,19,19,0,0,1,1.9,3A17.46,17.46,0,0,1,129.61,43a17.91,17.91,0,0,1,.95,4.28,19.39,19.39,0,0,1,.15,2.09h-22.3l9.61-20m-.11-.35L108,49.6h23a20.37,20.37,0,0,0-.15-2.37,18.78,18.78,0,0,0-1-4.33,17.62,17.62,0,0,0-1.44-3.38,20,20,0,0,0-1.92-3,21.2,21.2,0,0,0-1.92-2.33,28.09,28.09,0,0,0-2.1-2,21.1,21.1,0,0,0-2.22-1.75c-.75-.5-1.53-1-2.34-1.46Z"/><path d="M120.35,30.81a23.2,23.2,0,0,1,2,1.57c.81.67,1.54,1.39,2.08,1.93a20.89,20.89,0,0,1,1.9,2.32,19,19,0,0,1,1.9,3A17.46,17.46,0,0,1,129.61,43a17.91,17.91,0,0,1,.95,4.28,19.39,19.39,0,0,1,.15,2.09H111.44l8.91-18.54m-.1-.37L111,49.6H131a20.37,20.37,0,0,0-.15-2.37,18.78,18.78,0,0,0-1-4.33,17.62,17.62,0,0,0-1.44-3.38,20,20,0,0,0-1.92-3,21.2,21.2,0,0,0-1.92-2.33,28.09,28.09,0,0,0-2.1-2,21.1,21.1,0,0,0-2.22-1.75Z"/><path d="M122.56,32.59c.71.61,1.34,1.24,1.83,1.72a20.89,20.89,0,0,1,1.9,2.32,19,19,0,0,1,1.9,3A17.46,17.46,0,0,1,129.61,43a17.91,17.91,0,0,1,.95,4.28,19.39,19.39,0,0,1,.15,2.09H114.5l8.06-16.76m-.09-.4L114.1,49.6H131a20.37,20.37,0,0,0-.15-2.37,18.78,18.78,0,0,0-1-4.33,17.62,17.62,0,0,0-1.44-3.38,20,20,0,0,0-1.92-3,21.2,21.2,0,0,0-1.92-2.33,28.09,28.09,0,0,0-2.1-2Z"/><path d="M124.64,34.59a18.68,18.68,0,0,1,1.65,2,19,19,0,0,1,1.9,3A17.46,17.46,0,0,1,129.61,43a17.91,17.91,0,0,1,.95,4.28,19.39,19.39,0,0,1,.15,2.09H117.56l7.08-14.76m-.07-.44L117.16,49.6H131a20.37,20.37,0,0,0-.15-2.37,18.78,18.78,0,0,0-1-4.33,17.62,17.62,0,0,0-1.44-3.38,20,20,0,0,0-1.92-3,21.2,21.2,0,0,0-1.92-2.33Z"/><path d="M126.54,37a19.3,19.3,0,0,1,1.65,2.68A17.46,17.46,0,0,1,129.61,43a17.91,17.91,0,0,1,.95,4.28,19.39,19.39,0,0,1,.15,2.09H120.59l6-12.39m-.05-.48-6.3,13.12H131a20.37,20.37,0,0,0-.15-2.37,18.78,18.78,0,0,0-1-4.33,17.62,17.62,0,0,0-1.44-3.38,20,20,0,0,0-1.92-3Z"/><path d="M100.41,50.59,115.63,83l.06.12.13,0,34.07,5.2-24.66,25.28-.09.09,0,.12L131,149.53,100.53,132.7l-.12-.07-.12.07L69.84,149.53l5.82-35.67,0-.12-.09-.09L50.93,88.37,85,83.17l.13,0,.06-.12,15.22-32.43m0-.59L85,82.92,50.41,88.2l25,25.62L69.51,150l30.9-17.08L131.31,150l-5.9-36.18,25-25.62-34.55-5.28L100.41,50Z"/></svg>