<svg id="Layer_1" data-name="Layer 1" xmlns="http://www.w3.org/2000/svg" viewBox="0 0 200 160"><defs><style>.cls-1{fill:none;stroke:#000;stroke-miterlimit:10;stroke-width:5px;}</style></defs><title>Artboard 2</title><path d="M122.5,3.48l-1.3,3.09-.09.21-1,2.43-.28.68-.72,1.73-.64,1.54-.35.87-1,2.42-1,2.39-.35.87-.68,1.55L114.35,23l-.28.67-1,2.4-.09.21-.92,2.23-.44,1.07-.55,1.34-.8,1.9-.23.52-1,2.4-.16.4-.83,2-.53,1.27-.47,1.14-.92,2.16L106,43l-1,2.39-.24.59L104,47.8l-.61,1.48-.39.93-1,2.39v0L101,55l-.34.8L100,57.46v0l-.69-1.67L98,52.55l-.5-1.19-.86-2.08L95.21,46l-1.36-3.27-.16-.37-1.22-2.92-1.36-3.27-1.19-2.84-.19-.46-1.36-3.26L87,26.28l-.83-1.94L85.65,23l-1.38-3.3-1.36-3.27-.47-1.11-.92-2.19L80.17,9.89l-1.36-3.3-.11-.28L77.5,3.48h45m1.5-1H76L77.77,6.7l.11.27,1.36,3.3,1.36,3.27.92,2.19L82,16.84l1.35,3.26,1.39,3.31.53,1.3.83,2L87.45,30l1.35,3.27.2.46,1.19,2.84,1.36,3.26,1.22,2.92.16.39,1.36,3.26,1.39,3.3.86,2.08L97,52.94l1.36,3.26L100,60.08l.94-2.23.67-1.65.33-.77,1-2.42,0-.07,1-2.35.38-.92.61-1.5.78-1.8.25-.62,1-2.38.11-.26L108,41l.47-1.15.53-1.26.83-2,.17-.42,1-2.38.23-.5.8-1.92.55-1.35L113,28.9l.91-2.23.09-.19,1-2.42.28-.65.72-1.77.67-1.54.36-.88,1-2.38,1-2.42.36-.88L120,12l.72-1.73.27-.69,1-2.42.09-.19L124,2.48Z"/><path d="M122.5,3.48l-.7,1.66-1.21-1.66h1.91m1.5-1h-5.38L122,7.16l.09-.19L124,2.48Z"/><path d="M122.5,3.48l-1.3,3.09-.09.21-.32.76-2.93-4.06h4.64m1.5-1h-8.09L121,9.58l1-2.42.09-.19L124,2.48Z"/><path d="M122.5,3.48l-1.3,3.09-.09.21-1,2.43-.28.68,0,.08-4.7-6.49h7.4m1.5-1H113.14L120,12l.72-1.73.27-.69,1-2.42.09-.19L124,2.48Z"/><path d="M122.5,3.48l-1.3,3.09-.09.21-1,2.43-.28.68-.72,1.73-.31.76-6.42-8.9H122.5m1.5-1H110.42L119,14.42l.36-.88L120,12l.72-1.73.27-.69,1-2.42.09-.19L124,2.48Z"/><path d="M122.5,3.48l-1.3,3.09-.09.21-1,2.43-.28.68-.72,1.73-.64,1.54-.35.87-.33.78L109.6,3.48h12.9m1.5-1H107.65L118,16.84l1-2.42.36-.88L120,12l.72-1.73.27-.69,1-2.42.09-.19L124,2.48Z"/><path d="M122.5,3.48l-1.3,3.09-.09.21-1,2.43-.28.68-.72,1.73-.64,1.54-.35.87-1,2.42-.31.74L106.89,3.48H122.5m1.5-1H104.93L117,19.22l1-2.38,1-2.42.36-.88L120,12l.72-1.73.27-.69,1-2.42.09-.19L124,2.48Z"/><path d="M122.5,3.48l-1.3,3.09-.09.21-1,2.43-.28.68-.72,1.73-.64,1.54-.35.87-1,2.42-1,2.39-.32.79L104.12,3.48H122.5m1.5-1H102.16L116,21.64l.67-1.54.36-.88,1-2.38,1-2.42.36-.88L120,12l.72-1.73.27-.69,1-2.42.09-.19L124,2.48Z"/><path d="M122.5,3.48l-1.3,3.09-.09.21-1,2.43-.28.68-.72,1.73-.64,1.54-.35.87-1,2.42-1,2.39-.35.87-.68,1.55-.3.76L101.4,3.48h21.1m1.5-1H99.45L115,24.06l.28-.65.72-1.77.67-1.54.36-.88,1-2.38,1-2.42.36-.88L120,12l.72-1.73.27-.69,1-2.42.09-.19L124,2.48Z"/><path d="M122.5,3.48l-1.3,3.09-.09.21-1,2.43-.28.68-.72,1.73-.64,1.54-.35.87-1,2.42-1,2.39-.35.87-.68,1.55L114.35,23l-.28.67-.31.76-15.13-21H122.5m1.5-1H96.67l17.33,24,1-2.42.28-.65.72-1.77.67-1.54.36-.88,1-2.38,1-2.42.36-.88L120,12l.72-1.73.27-.69,1-2.42.09-.19L124,2.48Z"/><path d="M122.5,3.48l-1.3,3.09-.09.21-1,2.43-.28.68-.72,1.73-.64,1.54-.35.87-1,2.42-1,2.39-.35.87-.68,1.55L114.35,23l-.28.67-1,2.4-.09.21-.23.56L95.89,3.48H122.5m1.5-1H93.93L113,28.9l.91-2.23.09-.19,1-2.42.28-.65.72-1.77.67-1.54.36-.88,1-2.38,1-2.42.36-.88L120,12l.72-1.73.27-.69,1-2.42.09-.19L124,2.48Z"/><path d="M122.5,3.48l-1.3,3.09-.09.21-1,2.43-.28.68-.72,1.73-.64,1.54-.35.87-1,2.42-1,2.39-.35.87-.68,1.55L114.35,23l-.28.67-1,2.4-.09.21-.92,2.23-.31.76L93.14,3.48H122.5m1.5-1H91.19L112,31.32l.55-1.35L113,28.9l.91-2.23.09-.19,1-2.42.28-.65.72-1.77.67-1.54.36-.88,1-2.38,1-2.42.36-.88L120,12l.72-1.73.27-.69,1-2.42.09-.19L124,2.48Z"/><path d="M122.5,3.48l-1.3,3.09-.09.21-1,2.43-.28.68-.72,1.73-.64,1.54-.35.87-1,2.42-1,2.39-.35.87-.68,1.55L114.35,23l-.28.66-1,2.4-.09.21-.92,2.23-.44,1.07-.55,1.34-.33.78L90.37,3.48H122.5m1.5-1H88.42L111,33.74l.23-.5.8-1.92.55-1.35L113,28.9l.91-2.23.09-.19,1-2.42.28-.65.72-1.77.67-1.54.36-.88,1-2.38,1-2.42.36-.88L120,12l.72-1.73.27-.69,1-2.42.09-.19L124,2.48Z"/><path d="M122.5,3.48l-1.3,3.09-.09.21-1,2.43-.28.68-.72,1.73-.64,1.54-.35.87-1,2.42-1,2.39-.35.87-.68,1.55L114.35,23l-.28.66-1,2.4-.09.21-.92,2.23-.44,1.07-.55,1.34-.8,1.9-.23.52-.31.73L87.65,3.48H122.5m1.5-1H85.7L110,36.12l1-2.38.23-.5.8-1.92.55-1.35L113,28.9l.91-2.23.09-.19,1-2.42.28-.65.72-1.77.67-1.54.36-.88,1-2.38,1-2.42.36-.88L120,12l.72-1.73.27-.69,1-2.42.09-.19L124,2.48Z"/><path d="M122.5,3.48l-1.3,3.09-.09.21-1,2.43-.28.68-.72,1.73-.64,1.54-.35.87-1,2.42-1,2.39-.35.87-.68,1.55L114.35,23l-.28.66-1,2.4-.09.21-.92,2.23-.44,1.07-.55,1.34-.8,1.9-.23.52-1,2.4-.16.4-.15.35-23.86-33H122.5m1.5-1H82.93L109,38.54l.83-2,.17-.42,1-2.38.23-.5.8-1.92.55-1.35L113,28.9l.91-2.23.09-.19,1-2.42.28-.65.72-1.77.67-1.54.36-.88,1-2.38,1-2.42.36-.88L120,12l.72-1.73.27-.69,1-2.42.09-.19L124,2.48Z"/><path d="M122.5,3.48l-1.3,3.09-.09.21-1,2.43-.28.68-.72,1.73-.64,1.54-.35.87-1,2.42-1,2.39-.35.87-.68,1.55L114.35,23l-.28.66-1,2.4-.09.21-.92,2.23-.44,1.07-.55,1.34-.8,1.9-.23.52-1,2.4-.16.4-.83,2-.32.76L82.17,3.48H122.5m1.5-1H80.21L108,41l.47-1.15.53-1.26.83-2,.17-.42,1-2.38.23-.5.8-1.92.55-1.35L113,28.9l.91-2.23.09-.19,1-2.42.28-.65.72-1.77.67-1.54.36-.88,1-2.38,1-2.42.36-.88L120,12l.72-1.73.27-.69,1-2.42.09-.19L124,2.48Z"/><path d="M122.5,3.48l-1.3,3.09-.09.21-1,2.43-.28.68-.72,1.73-.64,1.54-.35.87-1,2.42-1,2.39-.35.87-.68,1.55L114.35,23l-.28.66-1,2.4-.09.21-.92,2.23-.44,1.07-.55,1.34-.8,1.9-.23.52-1,2.4-.16.4-.83,2-.53,1.27-.47,1.14-.33.79L79.4,3.48h43.1m1.5-1H77.44L107,43.37l.11-.26L108,41l.47-1.15.53-1.26.83-2,.17-.42,1-2.38.23-.5.8-1.92.55-1.35L113,28.9l.91-2.23.09-.19,1-2.42.28-.65.72-1.77.67-1.54.36-.88,1-2.38,1-2.42.36-.88L120,12l.72-1.73.27-.69,1-2.42.09-.19L124,2.48Z"/><path d="M122.5,3.48l-1.3,3.09-.09.21-1,2.43-.28.68-.72,1.73-.64,1.54-.35.87-1,2.42-1,2.39-.35.87-.68,1.55L114.35,23l-.28.67-1,2.4-.09.21-.92,2.23-.44,1.07-.55,1.34-.8,1.9-.23.52-1,2.4-.16.4-.83,2-.53,1.27-.47,1.14-.92,2.16L106,43l-.3.73L78.65,6.21,77.5,3.48h45m1.5-1H76L77.77,6.7,106,45.75l1-2.38.11-.26L108,41l.47-1.15.53-1.26.83-2,.17-.42,1-2.38.23-.5.8-1.92.55-1.35L113,28.9l.91-2.23.09-.19,1-2.42.28-.65.72-1.77.67-1.54.36-.88,1-2.38,1-2.42.36-.88L120,12l.72-1.73.27-.69,1-2.42.09-.19L124,2.48Z"/><path d="M122.5,3.48l-1.3,3.09-.09.21-1,2.43-.28.68-.72,1.73-.64,1.54-.35.87-1,2.42-1,2.39-.35.87-.68,1.55L114.35,23l-.28.67-1,2.4-.09.21-.92,2.23-.44,1.07-.55,1.34-.8,1.9-.23.52-1,2.4-.16.4-.83,2-.53,1.27-.47,1.14-.92,2.16L106,43l-1,2.39-.24.59-.08.19L82.39,15.23l-.87-2.08L80.17,9.89l-1.36-3.3-.11-.28L77.5,3.48h45m1.5-1H76L77.77,6.7l.11.27,1.36,3.3,1.36,3.27.92,2.19,23.41,32.44.78-1.8.25-.62,1-2.38.11-.26L108,41l.47-1.15.53-1.26.83-2,.17-.42,1-2.38.23-.5.8-1.92.55-1.35L113,28.9l.91-2.23.09-.19,1-2.42.28-.65.72-1.77.67-1.54.36-.88,1-2.38,1-2.42.36-.88L120,12l.72-1.73.27-.69,1-2.42.09-.19L124,2.48Z"/><path d="M122.5,3.48l-1.3,3.09-.09.21-1,2.43-.28.68-.72,1.73-.64,1.54-.35.87-1,2.42-1,2.39-.35.87-.68,1.55L114.35,23l-.28.67-1,2.4-.09.21-.92,2.23-.44,1.07-.55,1.34-.8,1.9-.23.52-1,2.4-.16.4-.83,2-.53,1.27-.47,1.14-.92,2.16L106,43l-1,2.39-.24.59L104,47.8l-.31.76L86.14,24.22,85.65,23l-1.38-3.3-1.36-3.27-.47-1.11-.92-2.19L80.17,9.89l-1.36-3.3-.11-.28L77.5,3.48h45m1.5-1H76L77.77,6.7l.11.27,1.36,3.3,1.36,3.27.92,2.19L82,16.84l1.35,3.26,1.39,3.31.53,1.3,18.68,25.88.38-.92.61-1.5.78-1.8.25-.62,1-2.38.11-.26L108,41l.47-1.15.53-1.26.83-2,.17-.42,1-2.38.23-.5.8-1.92.55-1.35L113,28.9l.91-2.23.09-.19,1-2.42.28-.65.72-1.77.67-1.54.36-.88,1-2.38,1-2.42.36-.88L120,12l.72-1.73.27-.69,1-2.42.09-.19L124,2.48Z"/><path d="M122.5,3.48l-1.3,3.09-.09.21-1,2.43-.28.68-.72,1.73-.64,1.54-.35.87-1,2.42-1,2.39-.35.87-.68,1.55L114.35,23l-.28.67-1,2.4-.09.21-.92,2.23-.44,1.07-.55,1.34-.8,1.9-.23.52-1,2.4-.16.4-.83,2-.53,1.27-.47,1.14-.92,2.16L106,43l-1,2.39-.24.59L104,47.8l-.61,1.48-.39.93-.31.76L89.88,33.2l-.15-.35-1.36-3.26L87,26.28l-.83-1.94L85.65,23l-1.38-3.3-1.36-3.27-.47-1.11-.92-2.19L80.17,9.89l-1.36-3.3-.11-.28L77.5,3.48h45m1.5-1H76L77.77,6.7l.11.27,1.36,3.3,1.36,3.27.92,2.19L82,16.84l1.35,3.26,1.39,3.31.53,1.3.83,2L87.45,30l1.35,3.27.2.46L102.94,53l0-.07,1-2.35.38-.92.61-1.5.78-1.8.25-.62,1-2.38.11-.26L108,41l.47-1.15.53-1.26.83-2,.17-.42,1-2.38.23-.5.8-1.92.55-1.35L113,28.9l.91-2.23.09-.19,1-2.42.28-.65.72-1.77.67-1.54.36-.88,1-2.38,1-2.42.36-.88L120,12l.72-1.73.27-.69,1-2.42.09-.19L124,2.48Z"/><path d="M122.5,3.48l-1.3,3.09-.09.21-1,2.43-.28.68-.72,1.73-.64,1.54-.35.87-1,2.42-1,2.39-.35.87-.68,1.55L114.35,23l-.28.66-1,2.4-.09.21-.92,2.23-.44,1.07-.55,1.34-.8,1.9-.23.52-1,2.4-.16.4-.83,2-.53,1.27-.47,1.14-.92,2.16L106,43l-1,2.39-.24.59L104,47.8l-.61,1.48-.39.93-1,2.39v0l-.31.76-8-11.16-1.18-2.81-1.36-3.27-1.19-2.84-.19-.46-1.36-3.26L87,26.28l-.83-1.94L85.65,23l-1.38-3.3-1.36-3.27-.47-1.11-.92-2.19L80.17,9.89l-1.36-3.3-.11-.28L77.5,3.48h45m1.5-1H76L77.77,6.7l.11.27,1.36,3.3,1.36,3.27.92,2.19L82,16.84l1.35,3.26,1.39,3.31.53,1.3.83,2L87.45,30l1.35,3.27.2.46,1.19,2.84,1.36,3.26,1.22,2.92,9.17,12.71,1-2.42,0-.07,1-2.35.38-.92.61-1.5.78-1.8.25-.62,1-2.38.11-.26L108,41l.47-1.15.53-1.26.83-2,.17-.42,1-2.38.23-.5.8-1.92.55-1.35L113,28.9l.91-2.23.09-.19,1-2.42.28-.65.72-1.77.67-1.54.36-.88,1-2.38,1-2.42.36-.88L120,12l.72-1.73.27-.69,1-2.42.09-.19L124,2.48Z"/><path d="M122.5,3.48l-1.3,3.09-.09.21-1,2.43-.28.68-.72,1.73-.64,1.54-.35.87-1,2.42-1,2.39-.35.87-.68,1.55L114.35,23l-.28.66-1,2.4-.09.21-.92,2.23-.44,1.07-.55,1.34-.8,1.9-.23.52-1,2.4-.16.4-.83,2-.53,1.27-.47,1.14-.92,2.16L106,43l-1,2.39-.24.59L104,47.8l-.61,1.48-.39.93-1,2.39v0L101,55l-.33.77-3.28-4.55-.81-2L95.21,46l-1.36-3.27-.16-.37-1.22-2.92-1.36-3.27-1.19-2.84-.19-.46-1.36-3.26L87,26.28l-.83-1.94L85.65,23l-1.38-3.3-1.36-3.27-.47-1.11-.92-2.19L80.17,9.89l-1.36-3.3-.11-.28L77.5,3.48h45m1.5-1H76L77.77,6.7l.11.27,1.36,3.3,1.36,3.27.92,2.19L82,16.84l1.35,3.26,1.39,3.31.53,1.3.83,2L87.45,30l1.35,3.27.2.46,1.19,2.84,1.36,3.26,1.22,2.92.16.39,1.36,3.26,1.39,3.3.86,2.08,4.4,6.1.67-1.65.33-.77,1-2.42,0-.07,1-2.35.38-.92.61-1.5.78-1.8.25-.62,1-2.38.11-.26L108,41l.47-1.15.53-1.26.83-2,.17-.42,1-2.38.23-.5.8-1.92.55-1.35L113,28.9l.91-2.23.09-.19,1-2.42.28-.65.72-1.77.67-1.54.36-.88,1-2.38,1-2.42.36-.88L120,12l.72-1.73.27-.69,1-2.42.09-.19L124,2.48Z"/><rect class="cls-1" x="4" y="60.86" width="192" height="96"/></svg>