<svg id="Layer_1" data-name="Layer 1" xmlns="http://www.w3.org/2000/svg" viewBox="0 0 159.33 200"><title>Artboard5</title><path d="M120.6,7.67c-3,16.19-20.2,28.65-40.93,28.65s-38-12.46-40.94-28.65H120.6m5.45-5H33.28c0,21.39,20.73,38.65,46.39,38.65s46.38-17.26,46.38-38.65Z"/><path d="M79.67,54.48,99,95.73l1.14,2.42,2.63.4,43.81,6.69L114.74,137.9,113,139.7l.41,2.49L120.86,188,82.09,166.54l-2.42-1.33-2.42,1.33L38.48,188,46,142.19l.4-2.49-1.76-1.8L12.73,105.24l43.8-6.69,2.64-.4,1.13-2.42L79.67,54.48m0-11.77L55.78,93.61,2.35,101.77,41,141.39l-9.13,55.94,47.79-26.41,47.78,26.41-9.13-55.94L157,101.77l-53.42-8.16L79.67,42.71Z"/></svg>