<svg xmlns="http://www.w3.org/2000/svg" viewBox="0 0 193.21 170"><defs><style>.cls-1{fill:#fff;}</style></defs><title>Artboard3</title><g id="Layer_2" data-name="Layer 2"><g id="Layer_1-2" data-name="Layer 1"><circle cx="183.21" cy="160" r="9.5"/><path class="cls-1" d="M183.21,151a9,9,0,1,1-9,9,9,9,0,0,1,9-9m0-1a10,10,0,1,0,10,10,10,10,0,0,0-10-10Z"/><circle cx="10" cy="160" r="9.5"/><path class="cls-1" d="M10,151a9,9,0,1,1-9,9,9,9,0,0,1,9-9m0-1a10,10,0,1,0,10,10,10,10,0,0,0-10-10Z"/><circle cx="96.6" cy="10" r="9.5"/><path class="cls-1" d="M96.6,1a9,9,0,1,1-9,9,9,9,0,0,1,9-9m0-1a10,10,0,1,0,10,10,10,10,0,0,0-10-10Z"/></g></g></svg>