<svg xmlns="http://www.w3.org/2000/svg" viewBox="0 0 101.87 76.4"><defs><style>.cls-1{fill:none;stroke:#000;stroke-miterlimit:10;}</style></defs><title>Artboard4</title><g id="Layer_2" data-name="Layer 2"><g id="Layer_1-2" data-name="Layer 1"><polygon class="cls-1" points="100.93 75.9 0.93 75.9 16.18 53.02 18.96 48.86 50.93 0.9 82.9 48.86 85.68 53.02 100.93 75.9"/><path class="cls-1" d="M100.93,75.9H73.43A27.43,27.43,0,0,1,85.68,53Z"/><path class="cls-1" d="M100.93,75.9H68.43a32.44,32.44,0,0,1,14.47-27L85.68,53Z"/><path class="cls-1" d="M28.43,75.9H.93L16.18,53A27.43,27.43,0,0,1,28.43,75.9Z"/><path class="cls-1" d="M33.43,75.9H.93L16.18,53,19,48.86A32.44,32.44,0,0,1,33.43,75.9Z"/><line class="cls-1" x1="0.93" y1="75.9" x2="24.79" y2="62.2"/><line class="cls-1" x1="100.93" y1="75.9" x2="77.08" y2="62.2"/><line class="cls-1" x1="50.93" y1="0.9" x2="50.93" y2="75.9"/></g></g></svg>