<svg xmlns="http://www.w3.org/2000/svg" viewBox="0 0 201 201.71"><defs><style>.cls-1{fill:none;stroke:#000;stroke-miterlimit:10;}</style></defs><title>Artboard1</title><g id="Layer_2" data-name="Layer 2"><g id="Layer_1-2" data-name="Layer 1"><path class="cls-1" d="M200.5,29.73V171.27a29.14,29.14,0,0,0-20.67,8.56L100.5,100.5,21.17,179.83A29.14,29.14,0,0,0,.5,171.27V29.73a29.14,29.14,0,0,0,20.67-8.56A29.14,29.14,0,0,0,29.73.5H171.27a29.14,29.14,0,0,0,8.56,20.67A29.14,29.14,0,0,0,200.5,29.73Z"/><path class="cls-1" d="M29.73.5H.5V29.73A29.23,29.23,0,0,0,29.73.5Z"/><path class="cls-1" d="M200.5,29.73V.5H171.27A29.23,29.23,0,0,0,200.5,29.73Z"/><path class="cls-1" d="M21.17,179.83l-6.05,6.06L.5,200.5V171.27A29.14,29.14,0,0,1,21.17,179.83Z"/><path class="cls-1" d="M200.5,171.27V200.5l-14.61-14.61-6.06-6.06A29.14,29.14,0,0,1,200.5,171.27Z"/><polyline class="cls-1" points="0.5 200.5 15.12 185.89 21.17 179.83 100.5 100.5 179.83 21.17 200.5 0.5"/><polyline class="cls-1" points="200.5 200.5 185.89 185.89 179.83 179.83 100.5 100.5 21.17 21.17 0.5 0.5"/><line class="cls-1" x1="100.5" y1="0.5" x2="100.5" y2="100.5"/><line class="cls-1" x1="200.5" y1="171.27" x2="185.89" y2="185.89"/><line class="cls-1" x1="15.12" y1="185.89" x2="0.5" y2="171.27"/><line class="cls-1" x1="171.27" y1="0.5" x2="200.5" y2="29.73"/><line class="cls-1" x1="29.73" y1="0.5" x2="0.5" y2="29.73"/></g></g></svg>