<svg id="Layer_1" data-name="Layer 1" xmlns="http://www.w3.org/2000/svg" viewBox="0 0 200 191"><defs><style>.cls-1{fill:blue;}</style></defs><title>Artboard 2</title><rect class="cls-1" x="5.86" y="80.55" width="22.61" height="105.45"/><path d="M26,83.05V183.5H8.36V83.05H26m5-5H3.36V188.5H31V78.05Z"/><path d="M67.39,83.05V183.5H49.78V83.05H67.39m5-5H44.78V188.5H72.39V78.05Z"/><path d="M191.64,165.89V183.5H91.19V165.89H191.64m5-5H86.19V188.5H196.64V160.89Z"/><rect class="cls-1" x="88.69" y="124.73" width="105.45" height="22.61"/><path d="M191.64,127.23v17.61H91.19V127.23H191.64m5-5H86.19v27.61H196.64V122.23Z"/><rect class="cls-1" x="5.86" y="44.66" width="105.45" height="22.61"/><path d="M108.81,47.16V64.77H8.36V47.16H108.81m5-5H3.36V69.77H113.81V42.16Z"/><path d="M108.81,8.5V26.11H8.36V8.5H108.81m5-5H3.36V31.11H113.81V3.5Z"/><path d="M153,8.5V109H135.37V8.5H153m5-5H130.37V114H158V3.5Z"/><path d="M191.64,8.5V109H174V8.5h17.61m5-5H169V114h27.61V3.5Z"/></svg>