<svg id="Layer_1" data-name="Layer 1" xmlns="http://www.w3.org/2000/svg" viewBox="0 0 200 192"><defs><style>.cls-1{fill:blue;}</style></defs><title>Artboard 1</title><rect class="cls-1" x="3.5" y="5.16" width="23.29" height="108.14"/><path d="M24.29,7.66V110.8H6V7.66H24.29m5-5H1V115.8H29.29V2.66Z"/><path d="M66.71,7.66V110.8H48.43V7.66H66.71m5-5H43.43V115.8H71.71V2.66Z"/><path d="M194,47.26V65.54H90.86V47.26H194m5-5H85.86V70.54H199V42.26Z"/><rect class="cls-1" x="88.36" y="5.16" width="108.14" height="23.29"/><path d="M194,7.66V25.94H90.86V7.66H194m5-5H85.86V30.94H199V2.66Z"/><path d="M109.14,166.06v18.28H6V166.06H109.14m5-5H1v28.28H114.14V161.06Z"/><rect class="cls-1" x="3.5" y="123.96" width="108.14" height="23.29"/><path d="M109.14,126.46v18.28H6V126.46H109.14m5-5H1v28.28H114.14V121.46Z"/><path d="M154.4,81.2V184.34H136.11V81.2H154.4m5-5H131.11V189.34H159.4V76.2Z"/><path d="M194,81.2V184.34H175.71V81.2H194m5-5H170.71V189.34H199V76.2Z"/></svg>