<svg id="Layer_1" data-name="Layer 1" xmlns="http://www.w3.org/2000/svg" viewBox="0 0 200 191"><defs><style>.cls-1{fill:blue;}</style></defs><title>Artboard 4</title><path d="M25,81.4v102H7V81.4H25m5-5H2v112H30V76.4Z"/><rect class="cls-1" x="46.5" y="78.9" width="23" height="107"/><path d="M67,81.4v102H49V81.4H67m5-5H44v112H72V76.4Z"/><rect class="cls-1" x="88.5" y="162.9" width="107" height="23"/><path d="M193,165.4v18H91v-18H193m5-5H86v28H198v-28Z"/><path d="M193,126.2v18H91v-18H193m5-5H86v28H198v-28Z"/><path d="M109,47.8v18H7v-18H109m5-5H2v28H114v-28Z"/><path d="M109,8.6v18H7V8.6H109m5-5H2v28H114V3.6Z"/><rect class="cls-1" x="133.3" y="6.1" width="23" height="107"/><path d="M153.8,8.6v102h-18V8.6h18m5-5h-28v112h28V3.6Z"/><path d="M193,8.6v102H175V8.6h18m5-5H170v112h28V3.6Z"/></svg>