<svg id="Layer_1" data-name="Layer 1" xmlns="http://www.w3.org/2000/svg" viewBox="0 0 200 200"><defs><style>.cls-1{fill:blue;}</style></defs><title>Artboard 1</title><rect class="cls-1" x="56.13" y="80.13" width="9.75" height="39.75"/><path d="M65.75,80.25v39.5h-9.5V80.25h9.5M66,80H56v40H66V80Z"/><path d="M80.75,80.25v39.5h-9.5V80.25h9.5M81,80H71v40H81V80Z"/><path d="M125.75,94.25v9.5H86.25v-9.5h39.5M126,94H86v10h40V94Z"/><rect class="cls-1" x="86.13" y="80.13" width="39.75" height="9.75"/><path d="M125.75,80.25v9.5H86.25v-9.5h39.5M126,80H86V90h40V80Z"/><path d="M95.75,136.25v9.5H56.25v-9.5h39.5M96,136H56v10H96V136Z"/><rect class="cls-1" x="56.13" y="122.13" width="39.75" height="9.75"/><path d="M95.75,122.25v9.5H56.25v-9.5h39.5M96,122H56v10H96V122Z"/><path d="M111.75,106.25v39.5h-9.5v-39.5h9.5M112,106H102v40h10V106Z"/><path d="M125.75,106.25v39.5h-9.5v-39.5h9.5M126,106H116v40h10V106Z"/></svg>