<svg id="Layer_1" data-name="Layer 1" xmlns="http://www.w3.org/2000/svg" viewBox="0 0 200 200"><defs><style>.cls-1{fill:blue;}</style></defs><title>Artboard 3</title><path d="M74.75,67.25v39.5h-9.5V67.25h9.5M75,67H65v40H75V67Z"/><rect class="cls-1" x="80.13" y="67.13" width="9.75" height="39.75"/><path d="M89.75,67.25v39.5h-9.5V67.25h9.5M90,67H80v40H90V67Z"/><path d="M134.75,81.25v9.5H95.25v-9.5h39.5M135,81H95V91h40V81Z"/><rect class="cls-1" x="95.13" y="67.13" width="39.75" height="9.75"/><path d="M134.75,67.25v9.5H95.25v-9.5h39.5M135,67H95V77h40V67Z"/><path d="M104.75,123.25v9.5H65.25v-9.5h39.5M105,123H65v10h40V123Z"/><path d="M104.75,109.25v9.5H65.25v-9.5h39.5M105,109H65v10h40V109Z"/><rect class="cls-1" x="111.13" y="93.13" width="9.75" height="39.75"/><path d="M120.75,93.25v39.5h-9.5V93.25h9.5M121,93H111v40h10V93Z"/><path d="M134.75,93.25v39.5h-9.5V93.25h9.5M135,93H125v40h10V93Z"/></svg>