<svg id="Layer_1" data-name="Layer 1" xmlns="http://www.w3.org/2000/svg" viewBox="0 0 200 191"><defs><style>.cls-1{fill:blue;}</style></defs><title>Artboard 7</title><rect class="cls-1" x="4.5" y="6.1" width="23" height="107"/><path d="M25,8.6v102H7V8.6H25m5-5H2v112H30V3.6Z"/><path d="M67,8.6v102H49V8.6H67m5-5H44v112H72V3.6Z"/><rect class="cls-1" x="88.5" y="45.3" width="107" height="23"/><path d="M193,47.8v18H91v-18H193m5-5H86v28H198v-28Z"/><path d="M193,8.6v18H91V8.6H193m5-5H86v28H198V3.6Z"/><path d="M109,165.4v18H7v-18H109m5-5H2v28H114v-28Z"/><rect class="cls-1" x="4.5" y="123.7" width="107" height="23"/><path d="M109,126.2v18H7v-18H109m5-5H2v28H114v-28Z"/><path d="M153.8,81.4v102h-18V81.4h18m5-5h-28v112h28V76.4Z"/><path d="M193,81.4v102H175V81.4h18m5-5H170v112h28V76.4Z"/></svg>