<svg id="Layer_1" data-name="Layer 1" xmlns="http://www.w3.org/2000/svg" viewBox="0 0 200 200"><defs><style>.cls-1{fill:blue;}</style></defs><title>Artboard 6</title><path d="M74.75,68.25v39.5h-9.5V68.25h9.5M75,68H65v40H75V68Z"/><path d="M89.75,68.25v39.5h-9.5V68.25h9.5M90,68H80v40H90V68Z"/><rect class="cls-1" x="95.13" y="82.13" width="39.75" height="9.75"/><path d="M134.75,82.25v9.5H95.25v-9.5h39.5M135,82H95V92h40V82Z"/><path d="M134.75,68.25v9.5H95.25v-9.5h39.5M135,68H95V78h40V68Z"/><path d="M104.75,124.25v9.5H65.25v-9.5h39.5M105,124H65v10h40V124Z"/><rect class="cls-1" x="65.13" y="110.13" width="39.75" height="9.75"/><path d="M104.75,110.25v9.5H65.25v-9.5h39.5M105,110H65v10h40V110Z"/><path d="M120.75,94.25v39.5h-9.5V94.25h9.5M121,94H111v40h10V94Z"/><rect class="cls-1" x="125.13" y="94.13" width="9.75" height="39.75"/><path d="M134.75,94.25v39.5h-9.5V94.25h9.5M135,94H125v40h10V94Z"/></svg>