<svg id="Layer_1" data-name="Layer 1" xmlns="http://www.w3.org/2000/svg" viewBox="0 0 200 200"><defs><style>.cls-1{fill:blue;}</style></defs><title>Artboard 2</title><rect class="cls-1" x="66.13" y="97.13" width="9.75" height="39.75"/><path d="M75.75,97.25v39.5h-9.5V97.25h9.5M76,97H66v40H76V97Z"/><path d="M90.75,97.25v39.5h-9.5V97.25h9.5M91,97H81v40H91V97Z"/><path d="M135.75,127.25v9.5H96.25v-9.5h39.5M136,127H96v10h40V127Z"/><rect class="cls-1" x="96.13" y="113.13" width="39.75" height="9.75"/><path d="M135.75,113.25v9.5H96.25v-9.5h39.5M136,113H96v10h40V113Z"/><rect class="cls-1" x="66.13" y="84.13" width="39.75" height="9.75"/><path d="M105.75,84.25v9.5H66.25v-9.5h39.5M106,84H66V94h40V84Z"/><path d="M105.75,70.25v9.5H66.25v-9.5h39.5M106,70H66V80h40V70Z"/><path d="M118.75,70.25v39.5h-9.5V70.25h9.5M119,70H109v40h10V70Z"/><path d="M132.75,70.25v39.5h-9.5V70.25h9.5M133,70H123v40h10V70Z"/></svg>