<svg id="Layer_1" data-name="Layer 1" xmlns="http://www.w3.org/2000/svg" viewBox="0 0 200 200"><defs><style>.cls-1{fill:blue;}</style></defs><title>Artboard 5</title><path d="M75.75,94.25v39.5h-9.5V94.25h9.5M76,94H66v40H76V94Z"/><path d="M90.75,94.25v39.5h-9.5V94.25h9.5M91,94H81v40H91V94Z"/><path d="M135.75,124.25v9.5H96.25v-9.5h39.5M136,124H96v10h40V124Z"/><rect class="cls-1" x="96.13" y="110.13" width="39.75" height="9.75"/><path d="M135.75,110.25v9.5H96.25v-9.5h39.5M136,110H96v10h40V110Z"/><rect class="cls-1" x="66.13" y="82.13" width="39.75" height="9.75"/><path d="M105.75,82.25v9.5H66.25v-9.5h39.5M106,82H66V92h40V82Z"/><path d="M105.75,68.25v9.5H66.25v-9.5h39.5M106,68H66V78h40V68Z"/><path d="M121.75,68.25v39.5h-9.5V68.25h9.5M122,68H112v40h10V68Z"/><rect class="cls-1" x="126.13" y="68.13" width="9.75" height="39.75"/><path d="M135.75,68.25v39.5h-9.5V68.25h9.5M136,68H126v40h10V68Z"/></svg>