<svg id="Layer_1" data-name="Layer 1" xmlns="http://www.w3.org/2000/svg" viewBox="0 0 200 185"><defs><style>.cls-1{fill:blue;}</style></defs><title>Artboard 5</title><path d="M27.06,78.7V179H9.48V78.7H27.06m5-5H4.48V184H32.06V73.7Z"/><path d="M68.42,78.7V179H50.85V78.7H68.42m5-5H45.85V184H73.42V73.7Z"/><path d="M192.52,161.42V179H92.21V161.42H192.52m5-5H87.21V184H197.52V156.42Z"/><rect class="cls-1" x="89.71" y="120.32" width="105.3" height="22.58"/><path d="M192.52,122.82v17.57H92.21V122.82H192.52m5-5H87.21v27.57H197.52V117.82Z"/><rect class="cls-1" x="6.98" y="43.11" width="105.3" height="22.58"/><path d="M109.79,45.61V63.18H9.48V45.61H109.79m5-5H4.48V68.18H114.79V40.61Z"/><path d="M109.79,7V24.58H9.48V7H109.79m5-5H4.48V29.58H114.79V2Z"/><path d="M153.91,7V107.3H136.33V7h17.58m5-5H131.33V112.3h27.58V2Z"/><rect class="cls-1" x="172.44" y="4.5" width="22.58" height="105.3"/><path d="M192.52,7V107.3H174.94V7h17.58m5-5H169.94V112.3h27.58V2Z"/></svg>