<svg id="Layer_1" data-name="Layer 1" xmlns="http://www.w3.org/2000/svg" viewBox="0 0 200 189"><defs><style>.cls-1{fill:blue;}</style></defs><title>Artboard 6</title><path d="M25,7.6v102H7V7.6H25m5-5H2v112H30V2.6Z"/><path d="M67,7.6v102H49V7.6H67m5-5H44v112H72V2.6Z"/><rect class="cls-1" x="88.5" y="44.3" width="107" height="23"/><path d="M193,46.8v18H91v-18H193m5-5H86v28H198v-28Z"/><path d="M193,7.6v18H91V7.6H193m5-5H86v28H198V2.6Z"/><path d="M109,164.4v18H7v-18H109m5-5H2v28H114v-28Z"/><rect class="cls-1" x="4.5" y="122.7" width="107" height="23"/><path d="M109,125.2v18H7v-18H109m5-5H2v28H114v-28Z"/><path d="M153.8,80.4v102h-18V80.4h18m5-5h-28v112h28V75.4Z"/><rect class="cls-1" x="172.5" y="77.9" width="23" height="107"/><path d="M193,80.4v102H175V80.4h18m5-5H170v112h28V75.4Z"/></svg>