<svg id="Layer_1" data-name="Layer 1" xmlns="http://www.w3.org/2000/svg" viewBox="0 0 200 200"><defs><style>.cls-1{fill:none;stroke:#000;stroke-miterlimit:10;stroke-width:0.25px;}</style></defs><title>Artboard 6</title><path class="cls-1" d="M69.64,83.79a10,10,0,0,1,10,10s-.07.84-.26,2.23v0c-.69,4.94-3,16.58-9.74,20.15-6.74-3.57-9-15.21-9.74-20.15v0c-.19-1.39-.26-2.23-.26-2.23A10,10,0,0,1,69.64,83.79Z"/><path class="cls-1" d="M95.87,100.18l11.55-3.26s2.28-2.2.52-7.54L107,86l2.26,3c7.57,11.18,1.22,18.75,1.22,18.75L98.93,111h0l.85,3L83,109.73l12.08-12.4.81,2.86"/><path class="cls-1" d="M50.45,110.66a20,20,0,0,1-27.92,4.55A20.65,20.65,0,0,1,20,113,20,20,0,0,0,43,81a20.28,20.28,0,0,1,2.88,1.72A20,20,0,0,1,50.45,110.66Z"/><polygon class="cls-1" points="133.84 93.1 140.35 79.77 146.97 93.05 161.66 95.13 151.07 105.52 153.63 120.14 140.48 113.28 127.37 120.23 129.82 105.6 119.16 95.28 133.84 93.1"/></svg>