<svg id="Layer_1" data-name="Layer 1" xmlns="http://www.w3.org/2000/svg" viewBox="0 0 200 60.94"><defs><style>.cls-1{fill:none;stroke:#000;stroke-miterlimit:10;stroke-width:2px;}</style></defs><title>Artboard 6</title><path class="cls-1" d="M76.44,12.73c7,0,12.71,5.31,12.71,11.86,0,0-.09,1-.33,2.65v0C87.94,33.15,85,47,76.44,51.19c-8.56-4.23-11.5-18-12.37-23.91v0c-.25-1.64-.33-2.65-.33-2.65C63.74,18,69.43,12.73,76.44,12.73Z"/><path class="cls-1" d="M109.77,32.17l14.67-3.86s2.9-2.61.65-8.95l-1.18-4,2.86,3.55c9.62,13.27,1.55,22.24,1.55,22.24L113.65,45h0l1.07,3.54L93.38,43.51l15.36-14.72,1,3.39"/><path class="cls-1" d="M52.06,44.6C43.86,55.24,28,57.66,16.59,50a25.31,25.31,0,0,1-3.24-2.58c10.93,5,24.46,2.09,31.82-7.45A22.57,22.57,0,0,0,42.62,9.45a25.26,25.26,0,0,1,3.65,2C57.67,19.15,60.25,34,52.06,44.6Z"/><polygon class="cls-1" points="158 23.77 166.28 7.96 174.69 23.71 193.35 26.18 179.9 38.51 183.16 55.84 166.44 47.71 149.78 55.96 152.9 38.6 139.35 26.36 158 23.77"/></svg>