<svg id="Layer_1" data-name="Layer 1" xmlns="http://www.w3.org/2000/svg" viewBox="0 0 200 67.09"><defs><style>.cls-1{fill:none;stroke:#000;stroke-miterlimit:10;stroke-width:2px;}</style></defs><title>Artboard 3</title><path class="cls-1" d="M20.11,11.67c7.79,0,14.11,5.06,14.11,11.29,0,0-.09,1-.36,2.53v0c-1,5.59-4.24,18.73-13.75,22.76-9.51-4-12.77-17.17-13.74-22.76v0C6.1,23.92,6,23,6,23,6,16.73,12.32,11.67,20.11,11.67Z"/><path class="cls-1" d="M169.88,30.32l16.22-3.89s3.17-2.52.56-8.53l-1.4-3.79,3.25,3.35c10.94,12.49,2.15,21.15,2.15,21.15l-16.23,3.88h0l1.26,3.35L151.9,41.34l16.77-14.23,1.21,3.22"/><path class="cls-1" d="M80,42C70.93,52.15,53.3,54.45,40.65,47.16a27.41,27.41,0,0,1-3.6-2.46c12.14,4.78,27.17,2,35.34-7.09s6.69-21.37-2.83-29.07a31.5,31.5,0,0,1,4.06,2C86.28,17.78,89.14,31.9,80,42Z"/><polygon class="cls-1" points="106.76 28.57 104.84 11.88 122.56 20.81 141.79 14.19 136.66 30.43 150.47 43.02 129.58 44.14 118.88 58.54 111.1 42.99 90.68 39.3 106.76 28.57"/></svg>