<svg id="Layer_1" data-name="Layer 1" xmlns="http://www.w3.org/2000/svg" viewBox="0 0 200 200"><defs><style>.cls-1{fill:blue;}.cls-2{fill:none;stroke:#000;stroke-miterlimit:10;stroke-width:0.25px;}</style></defs><title>Artboard 1</title><path class="cls-1" d="M187,100a3,3,0,0,1-3,3h-.35A31.13,31.13,0,0,1,173,100a31.13,31.13,0,0,1,10.68-3H184A3,3,0,0,1,187,100Z"/><path class="cls-1" d="M181.16,114.16a3,3,0,0,1-4.25,0l0,0a1.33,1.33,0,0,1-.12-.12l-.07-.09s0,0,0,0a30.93,30.93,0,0,1-5.44-9.63,31,31,0,0,1,9.67,5.42h0a.35.35,0,0,1,.09.07l.08.07a.61.61,0,0,1,.09.09A3,3,0,0,1,181.16,114.16Z"/><path class="cls-1" d="M167,120a3,3,0,0,1-3-3,.28.28,0,0,1,0-.06,1.31,1.31,0,0,1,0-.17.45.45,0,0,1,0-.11h0A30.49,30.49,0,0,1,167,106a30.84,30.84,0,0,1,3,10.65h0a.45.45,0,0,1,0,.11v.1c0,.09,0,.13,0,.13A3,3,0,0,1,167,120Z"/><path class="cls-1" d="M152.78,114.14a3,3,0,0,1,0-4.24l0,0,.13-.11a.36.36,0,0,1,.09-.08h0a30.9,30.9,0,0,1,9.67-5.43,31,31,0,0,1-5.44,9.64h0a.35.35,0,0,1-.07.09l-.07.08-.09.09A3,3,0,0,1,152.78,114.14Z"/><path class="cls-1" d="M147,100a3,3,0,0,1,3-3h.35a31.22,31.22,0,0,1,10.69,3,31.22,31.22,0,0,1-10.69,3H150A3,3,0,0,1,147,100Z"/><path class="cls-1" d="M152.78,85.86a3,3,0,0,1,4.25,0,.12.12,0,0,1,0,0l.12.13a.35.35,0,0,1,.07.09h0a31,31,0,0,1,5.44,9.64A30.9,30.9,0,0,1,153,90.33h0a.36.36,0,0,1-.09-.08l-.08-.06-.09-.09A3,3,0,0,1,152.78,85.86Z"/><path class="cls-1" d="M167,80a3,3,0,0,1,3,3v.06s0,.09,0,.17a.45.45,0,0,1,0,.11h0A30.84,30.84,0,0,1,167,94a30.49,30.49,0,0,1-3-10.65h0a.45.45,0,0,1,0-.11.41.41,0,0,1,0-.1c0-.09,0-.13,0-.13A3,3,0,0,1,167,80Z"/><path class="cls-1" d="M181.18,85.83a3,3,0,0,1,0,4.24l-.05,0a1.56,1.56,0,0,1-.12.11l-.09.08h0a30.93,30.93,0,0,1-9.66,5.43,30.81,30.81,0,0,1,5.44-9.64h0l.08-.09.07-.08.08-.09A3,3,0,0,1,181.18,85.83Z"/><ellipse class="cls-1" cx="166.96" cy="100" rx="3.01" ry="3"/><path class="cls-2" d="M39.36,88.6c0-4.33-4.48-8.6-10-8.6s-10,4.27-10,8.6l-8.42,23.13-1.32,3.61,0,.11-.24.63h15c0,2.16,2.24,3.92,5,3.92s5-1.76,5-3.92h15l-.24-.63,0-.11-1.32-3.61Z"/><path class="cls-2" d="M145.83,112.5h-50a25,25,0,0,1,50,0Z"/><polygon class="cls-2" points="68.01 93.1 74.53 79.77 81.14 93.05 95.83 95.13 85.25 105.52 87.81 120.14 74.65 113.28 61.54 120.23 64 105.6 53.33 95.28 68.01 93.1"/></svg>