<svg id="Layer_1" data-name="Layer 1" xmlns="http://www.w3.org/2000/svg" viewBox="0 0 73.5 17.63"><defs><style>.cls-1{fill:none;stroke:#000;stroke-miterlimit:10;}</style></defs><title>Artboard4</title><path class="cls-1" d="M42.53,3.2c2.86,0,5.19,1.64,5.19,3.65,0,0,0,.31-.14.82h0c-.36,1.81-1.55,6.07-5,7.37-3.5-1.3-4.69-5.56-5.05-7.37h0c-.1-.51-.14-.82-.14-.82C37.34,4.84,39.67,3.2,42.53,3.2Z"/><path class="cls-1" d="M7.47,9.94l4.94-3.33s.7-1.17-1.08-2.56l-1-.91,1.6.53c5.58,2.15,3.87,5.86,3.87,5.86l-4.93,3.33h0l.92.81L3,15.59,6.58,9.17l.89.78"/><path class="cls-1" d="M33.29,12.9c-3.28,3.35-9.74,4.23-14.44,2a10.66,10.66,0,0,1-1.34-.76c4.49,1.45,10,.43,12.94-2.57s2.31-7-1.24-9.38a11.57,11.57,0,0,1,1.51.6C35.42,5,36.57,9.55,33.29,12.9Z"/><polygon class="cls-1" points="55.51 7.01 54.6 1.63 61.22 4.39 68.21 2.12 66.52 7.41 71.75 11.39 64.09 11.89 60.33 16.63 57.28 11.64 49.73 10.59 55.51 7.01"/></svg>