<svg id="Layer_1" data-name="Layer 1" xmlns="http://www.w3.org/2000/svg" viewBox="0 0 200 200"><defs><style>.cls-1{fill:blue;}.cls-2{fill:none;stroke:#000;stroke-miterlimit:10;stroke-width:0.25px;}</style></defs><title>Artboard 2</title><path class="cls-1" d="M143,100a3,3,0,0,1-3,3h-.35A31.22,31.22,0,0,1,129,100a31.22,31.22,0,0,1,10.69-3H140A3,3,0,0,1,143,100Z"/><path class="cls-1" d="M137.15,114.16a3,3,0,0,1-4.26,0l0,0a1.33,1.33,0,0,1-.12-.12l-.08-.09h0a30.72,30.72,0,0,1-5.44-9.63,31,31,0,0,1,9.66,5.42h0l.09.07.07.07a.49.49,0,0,1,.1.09A3,3,0,0,1,137.15,114.16Z"/><path class="cls-1" d="M123,120a3,3,0,0,1-3-3v-.06s0-.09,0-.17,0-.07,0-.11h0A30.84,30.84,0,0,1,123,106a30.84,30.84,0,0,1,3,10.65h0v.11a.41.41,0,0,1,0,.1c0,.09,0,.13,0,.13A3,3,0,0,1,123,120Z"/><path class="cls-1" d="M108.76,114.14a3,3,0,0,1,0-4.24l0,0,.12-.11.09-.08h0a30.93,30.93,0,0,1,9.66-5.43,30.81,30.81,0,0,1-5.44,9.64h0l-.08.09-.06.08-.09.09A3,3,0,0,1,108.76,114.14Z"/><path class="cls-1" d="M103,100a3,3,0,0,1,3-3h.35a31.13,31.13,0,0,1,10.68,3,31.13,31.13,0,0,1-10.68,3H106A3,3,0,0,1,103,100Z"/><path class="cls-1" d="M108.76,85.86a3,3,0,0,1,4.26,0l0,0,.11.13.08.09h0a30.81,30.81,0,0,1,5.44,9.64A30.93,30.93,0,0,1,109,90.33h0l-.09-.08-.07-.06-.1-.09A3,3,0,0,1,108.76,85.86Z"/><path class="cls-1" d="M123,80a3,3,0,0,1,3,3,.28.28,0,0,1,0,.06,1.31,1.31,0,0,1,0,.17v.11h0A30.84,30.84,0,0,1,123,94a30.84,30.84,0,0,1-3-10.65h0s0-.08,0-.11v-.1c0-.09,0-.13,0-.13A3,3,0,0,1,123,80Z"/><path class="cls-1" d="M137.16,85.83a3,3,0,0,1,0,4.24l0,0-.13.11a.36.36,0,0,1-.09.08h0a30.9,30.9,0,0,1-9.67,5.43,31,31,0,0,1,5.44-9.64h0a.24.24,0,0,1,.08-.09l.06-.08.09-.09A3,3,0,0,1,137.16,85.83Z"/><ellipse class="cls-1" cx="122.95" cy="100" rx="3.01" ry="3"/><path class="cls-2" d="M92,88.6c0-4.33-4.48-8.6-10-8.6s-10,4.27-10,8.6l-8.42,23.13-1.32,3.61,0,.11-.24.63H77c0,2.16,2.24,3.92,5,3.92s5-1.76,5-3.92h15l-.24-.63,0-.11-1.32-3.61Z"/><path class="cls-2" d="M62,112.5H12a25,25,0,0,1,50,0Z"/><polygon class="cls-2" points="159.5 93.1 166.02 79.77 172.64 93.05 187.33 95.13 176.74 105.52 179.31 120.14 166.15 113.28 153.04 120.23 155.49 105.6 144.83 95.28 159.5 93.1"/></svg>