<svg id="Layer_1" data-name="Layer 1" xmlns="http://www.w3.org/2000/svg" viewBox="0 0 72 19.55"><defs><style>.cls-1{fill:blue;}.cls-2{fill:none;stroke:#000;stroke-miterlimit:10;}</style></defs><title>Artboard1</title><path class="cls-1" d="M71,10.34a1.15,1.15,0,0,1-1.19,1.11h-.13a12.94,12.94,0,0,1-4.21-1.1,12.79,12.79,0,0,1,4.21-1.11h.13A1.15,1.15,0,0,1,71,10.34Z"/><path class="cls-1" d="M68.69,15.58a1.23,1.23,0,0,1-1.68,0h0l0-.05,0,0h0a11.53,11.53,0,0,1-2.14-3.58,12.43,12.43,0,0,1,3.81,2h0l0,0,0,0,0,0A1.07,1.07,0,0,1,68.69,15.58Z"/><path class="cls-1" d="M63.1,17.75a1.15,1.15,0,0,1-1.19-1.11v0a.2.2,0,0,1,0-.07v0h0a10.72,10.72,0,0,1,1.18-4,10.84,10.84,0,0,1,1.17,4h0a.06.06,0,0,1,0,0v.09A1.15,1.15,0,0,1,63.1,17.75Z"/><path class="cls-1" d="M57.51,15.58a1.07,1.07,0,0,1,0-1.57v0l0,0,0,0h0a12.43,12.43,0,0,1,3.81-2,11.43,11.43,0,0,1-2.14,3.57h0l0,0,0,0a.12.12,0,0,1,0,0A1.24,1.24,0,0,1,57.51,15.58Z"/><path class="cls-1" d="M55.24,10.34a1.15,1.15,0,0,1,1.19-1.12h.13a12.79,12.79,0,0,1,4.21,1.11,12.94,12.94,0,0,1-4.21,1.1h-.13A1.15,1.15,0,0,1,55.24,10.34Z"/><path class="cls-1" d="M57.51,5.09a1.24,1.24,0,0,1,1.67,0l0,0,0,0,0,0h0a11.43,11.43,0,0,1,2.14,3.57,12.43,12.43,0,0,1-3.81-2h0l0,0,0,0,0,0A1.08,1.08,0,0,1,57.51,5.09Z"/><path class="cls-1" d="M63.1,2.92A1.15,1.15,0,0,1,64.28,4v.09a.06.06,0,0,1,0,0h0A10.84,10.84,0,0,1,63.1,8.11a10.72,10.72,0,0,1-1.18-3.95h0v0a.08.08,0,0,1,0,0V4A1.15,1.15,0,0,1,63.1,2.92Z"/><path class="cls-1" d="M68.7,5.08a1.07,1.07,0,0,1,0,1.57l0,0-.05,0,0,0h0a12.43,12.43,0,0,1-3.81,2,11.39,11.39,0,0,1,2.15-3.57h0l0,0,0,0,0,0A1.26,1.26,0,0,1,68.7,5.08Z"/><ellipse class="cls-1" cx="63.1" cy="10.34" rx="1.19" ry="1.11"/><path class="cls-2" d="M12.82,6.11c0-1.61-1.77-3.19-3.94-3.19S4.94,4.5,4.94,6.11L1.62,14.68,1.1,16v0L1,16.3H6.91c0,.8.88,1.45,2,1.45s2-.65,2-1.45h5.91l-.09-.24v0l-.52-1.34Z"/><path class="cls-2" d="M54.77,15H35.07c0-5.12,4.41-9.27,9.85-9.27S54.77,9.85,54.77,15Z"/><polygon class="cls-2" points="24.11 7.78 26.68 2.83 29.28 7.76 35.07 8.53 30.9 12.38 31.91 17.8 26.73 15.26 21.56 17.84 22.53 12.41 18.33 8.59 24.11 7.78"/></svg>