<svg id="Layer_1" data-name="Layer 1" xmlns="http://www.w3.org/2000/svg" viewBox="0 0 200 49.95"><defs><style>.cls-1{fill:blue;}.cls-1,.cls-2{stroke:#000;stroke-miterlimit:10;stroke-width:2px;}.cls-2{fill:none;}</style></defs><title>Artboard 2</title><path class="cls-1" d="M147.21,25a3.13,3.13,0,0,1-3.27,3h-.39a36.61,36.61,0,0,1-11.64-3A36.78,36.78,0,0,1,143.55,22h.39A3.13,3.13,0,0,1,147.21,25Z"/><path class="cls-1" d="M140.83,39a3.54,3.54,0,0,1-4.63,0l0,0L136,38.8a.34.34,0,0,1-.08-.09h0A30.08,30.08,0,0,1,130,29.18a34.65,34.65,0,0,1,10.53,5.36h0l.09.07.09.07.1.08A2.78,2.78,0,0,1,140.83,39Z"/><path class="cls-1" d="M125.36,44.74a3.14,3.14,0,0,1-3.28-3,.28.28,0,0,1,0-.06,1.23,1.23,0,0,1,0-.17.45.45,0,0,1,0-.11h0a28.22,28.22,0,0,1,3.25-10.53,28,28,0,0,1,3.25,10.53h0a.45.45,0,0,1,0,.11.38.38,0,0,1,0,.1,1.16,1.16,0,0,1,0,.13A3.14,3.14,0,0,1,125.36,44.74Z"/><path class="cls-1" d="M109.91,39a2.77,2.77,0,0,1,0-4.19l0,0,.14-.11.1-.08h0a34.42,34.42,0,0,1,10.53-5.36,30,30,0,0,1-5.93,9.52s0,0,0,0l-.08.08-.07.08-.1.09A3.52,3.52,0,0,1,109.91,39Z"/><path class="cls-1" d="M103.64,25a3.13,3.13,0,0,1,3.27-3h.39A36.78,36.78,0,0,1,118.94,25a36.61,36.61,0,0,1-11.64,3h-.39A3.13,3.13,0,0,1,103.64,25Z"/><path class="cls-1" d="M109.91,11a3.54,3.54,0,0,1,4.63,0l0,0,.13.12.08.09h0a30.08,30.08,0,0,1,5.93,9.53,34.65,34.65,0,0,1-10.53-5.36h0l-.1-.07-.08-.07-.1-.08A2.78,2.78,0,0,1,109.91,11Z"/><path class="cls-1" d="M125.36,5.2a3.14,3.14,0,0,1,3.28,3,.18.18,0,0,1,0,.05,1.16,1.16,0,0,1,0,.17.49.49,0,0,1,0,.12h0A28,28,0,0,1,125.36,19a28.19,28.19,0,0,1-3.25-10.52h0a.49.49,0,0,1,0-.12.31.31,0,0,1,0-.09c0-.09,0-.13,0-.13A3.14,3.14,0,0,1,125.36,5.2Z"/><path class="cls-1" d="M140.85,11a2.78,2.78,0,0,1,0,4.19l0,0-.14.11-.1.07h0A34.79,34.79,0,0,1,130,20.75,29.86,29.86,0,0,1,136,11.23h0l.08-.09.08-.07.09-.09A3.53,3.53,0,0,1,140.85,11Z"/><ellipse class="cls-1" cx="125.36" cy="24.97" rx="3.28" ry="2.96"/><path class="cls-2" d="M91.65,13.7c0-4.28-4.88-8.5-10.89-8.5S69.87,9.42,69.87,13.7L60.69,36.57l-1.44,3.57,0,.11-.26.62H75.31c0,2.14,2.44,3.87,5.45,3.87s5.45-1.73,5.45-3.87h16.34l-.26-.62,0-.11-1.44-3.57Z"/><path class="cls-2" d="M59,37.33H4.5c0-13.65,12.19-24.71,27.24-24.71S59,23.68,59,37.33Z"/><polygon class="cls-2" points="165.19 18.15 172.29 4.97 179.5 18.1 195.5 20.16 183.97 30.43 186.76 44.88 172.42 38.1 158.14 44.97 160.82 30.51 149.2 20.31 165.19 18.15"/></svg>