<svg id="Layer_1" data-name="Layer 1" xmlns="http://www.w3.org/2000/svg" viewBox="0 0 74.5 18.46"><defs><style>.cls-1{fill:none;stroke:#000;stroke-miterlimit:10;}</style></defs><title>Artboard7</title><path class="cls-1" d="M47.89,4.34C45.21,4.34,43,6,43,8c0,0,0,.31.12.82h0c.34,1.79,1.46,6,4.73,7.32,3.27-1.3,4.39-5.53,4.73-7.32h0c.09-.51.12-.82.12-.82C52.74,6,50.57,4.34,47.89,4.34Z"/><path class="cls-1" d="M31.17,10.19l5.66-1s1.14-.77.38-2.73L36.82,5.2l1,1.12c3.47,4.16.25,6.82.25,6.82l-5.66,1h0l.35,1.1-8.06-1.78,6.09-4.33.33,1"/><path class="cls-1" d="M70.42,14.1c-3.13,3.26-9.2,4-13.55,1.65A10.11,10.11,0,0,1,55.63,15c4.18,1.54,9.35.64,12.16-2.28s2.3-6.87-1-9.34A10.73,10.73,0,0,1,68.21,4C72.57,6.31,73.55,10.85,70.42,14.1Z"/><polygon class="cls-1" points="17.29 8.09 17.97 2.73 11.87 5.59 5.25 3.46 7.01 8.68 2.25 12.73 9.44 13.09 13.11 17.73 15.79 12.73 22.82 11.55 17.29 8.09"/></svg>