<svg id="Layer_1" data-name="Layer 1" xmlns="http://www.w3.org/2000/svg" viewBox="0 0 73.5 17.76"><defs><style>.cls-1{fill:none;stroke:#000;stroke-miterlimit:10;}</style></defs><title>Artboard5</title><path class="cls-1" d="M30,3.12c2.68,0,4.86,1.64,4.86,3.67,0,0,0,.31-.13.82h0C34.36,9.44,33.24,13.71,30,15c-3.27-1.31-4.39-5.58-4.73-7.4h0c-.09-.51-.12-.82-.12-.82C25.11,4.76,27.28,3.12,30,3.12Z"/><path class="cls-1" d="M43.48,9.17l5.59-1.25s1.09-.82.2-2.77L48.8,3.91,49.91,5c3.75,4.07.71,6.88.71,6.88L45,13.13h0l.43,1.09-8.18-1.48,5.79-4.61.41,1"/><path class="cls-1" d="M69.92,13c-3.13,3.3-9.2,4-13.56,1.67a9,9,0,0,1-1.23-.8c4.17,1.56,9.35.65,12.16-2.3s2.3-7-1-9.45a11.73,11.73,0,0,1,1.4.63C72.07,5.1,73.05,9.69,69.92,13Z"/><polygon class="cls-1" points="7.08 6.97 6.12 1.57 12.37 4.27 18.86 1.91 17.4 7.24 22.38 11.18 15.21 11.77 11.8 16.57 8.84 11.6 1.75 10.63 7.08 6.97"/></svg>