<svg id="Layer_1" data-name="Layer 1" xmlns="http://www.w3.org/2000/svg" viewBox="0 0 200 200"><defs><style>.cls-1{fill:none;stroke:#000;stroke-miterlimit:10;stroke-width:0.25px;}</style></defs><title>Artboard 7</title><path class="cls-1" d="M117.36,83.79a10,10,0,0,0-10,10s.07.84.26,2.23v0c.69,4.94,3,16.58,9.74,20.15,6.74-3.57,9-15.21,9.74-20.15v0c.19-1.39.26-2.23.26-2.23A10,10,0,0,0,117.36,83.79Z"/><path class="cls-1" d="M82.91,99.9l11.66-2.82s2.37-2.12.8-7.53l-.81-3.4,2.15,3.08c7.14,11.46.51,18.78.51,18.78l-11.66,2.82h0l.73,3L69.67,109,82.21,97l.7,2.88"/><path class="cls-1" d="M161.72,110.66a20,20,0,0,1-27.92,4.55,21.52,21.52,0,0,1-2.55-2.18,20,20,0,0,0,23-32,20.85,20.85,0,0,1,2.88,1.72A20,20,0,0,1,161.72,110.66Z"/><polygon class="cls-1" points="52.27 94.12 53.66 79.35 41.09 87.23 27.47 81.35 31.09 95.74 21.28 106.88 36.09 107.89 43.65 120.65 49.18 106.88 63.66 103.64 52.27 94.12"/></svg>