<svg id="Layer_1" data-name="Layer 1" xmlns="http://www.w3.org/2000/svg" viewBox="0 0 200 57.02"><defs><style>.cls-1{fill:none;stroke:#000;stroke-miterlimit:10;stroke-width:2px;}</style></defs><title>Artboard 5</title><path class="cls-1" d="M82.16,11.84c7,0,12.77,4.61,12.77,10.28,0,0-.09.88-.33,2.31v0c-.89,5.09-3.83,17-12.44,20.72-8.6-3.67-11.55-15.63-12.43-20.72v0c-.24-1.43-.33-2.31-.33-2.31C69.4,16.45,75.12,11.84,82.16,11.84Z"/><path class="cls-1" d="M117.7,28.8l14.68-3.5s2.88-2.3.54-7.77l-1.25-3.45,2.93,3c9.84,11.4,1.86,19.26,1.86,19.26l-14.69,3.5h0L122.89,43l-21.5-4.17,15.23-12.91,1.07,2.93"/><path class="cls-1" d="M187.19,39.47C179,48.69,163,50.78,151.56,44.15a25.48,25.48,0,0,1-3.25-2.24c11,4.35,24.57,1.82,32-6.45S186.32,16,177.71,9a28.14,28.14,0,0,1,3.67,1.77C192.83,17.41,195.42,30.26,187.19,39.47Z"/><polygon class="cls-1" points="22.02 22.63 19.48 7.51 35.92 15.08 52.98 8.46 49.13 23.4 62.22 34.42 43.39 36.08 34.41 49.51 26.64 35.6 8 32.88 22.02 22.63"/></svg>