<svg id="Layer_1" data-name="Layer 1" xmlns="http://www.w3.org/2000/svg" viewBox="0 0 72.58 18.38"><defs><style>.cls-1{fill:none;stroke:#000;stroke-miterlimit:10;}</style></defs><title>Artboard3</title><path class="cls-1" d="M6.55,2.21c2.9,0,5.25,1.52,5.25,3.39,0,0,0,.29-.14.76h0C11.3,8.05,10.09,12,6.55,13.2,3,12,1.79,8.05,1.43,6.37h0c-.1-.47-.14-.76-.14-.76C1.29,3.73,3.65,2.21,6.55,2.21Z"/><path class="cls-1" d="M62.31,7.81l6-1.17s1.18-.75.21-2.56L68,3l1.21,1c4.07,3.75.8,6.35.8,6.35l-6,1.16h0l.46,1-8.85-1.35,6.24-4.27.45,1"/><path class="cls-1" d="M27,12.78c-3.12,3.33-9.6,4.59-14.48,2.82a10,10,0,0,1-1.4-.62c4.63,1,10.13-.28,12.92-3.26S26,5.11,22.26,3.12a13.33,13.33,0,0,1,1.56.45C28.71,5.34,30.14,9.46,27,12.78Z"/><polygon class="cls-1" points="36.81 8.28 36.09 3.28 42.69 5.96 49.85 3.97 47.94 8.84 53.09 12.62 45.31 12.96 41.32 17.28 38.43 12.61 30.82 11.5 36.81 8.28"/></svg>