<svg id="Layer_1" data-name="Layer 1" xmlns="http://www.w3.org/2000/svg" viewBox="0 0 200 200"><defs><style>.cls-1{fill:none;stroke:#000;stroke-miterlimit:10;stroke-width:0.25px;}</style></defs><title>Artboard 4</title><path class="cls-1" d="M119.08,83.79a10,10,0,0,1,10,10s-.07.84-.26,2.23v0c-.69,4.94-3,16.58-9.74,20.15-6.74-3.57-9-15.21-9.74-20.15v0c-.19-1.39-.26-2.23-.26-2.23A10,10,0,0,1,119.08,83.79Z"/><path class="cls-1" d="M49.9,101.28l10.94-4.92s1.94-2.51-.6-7.54l-1.42-3.2,2.68,2.64c9.13,9.95,4,18.37,4,18.37l-10.94,4.91h0l1.28,2.83-17.24-1.76,10.14-14,1.21,2.71"/><path class="cls-1" d="M99.25,110.66A20,20,0,0,1,68.79,113a20,20,0,0,0,23-32,20,20,0,0,1,7.42,29.64Z"/><polygon class="cls-1" points="142.18 94.21 140.42 79.48 153.19 87.05 166.66 80.83 163.4 95.3 173.48 106.19 158.71 107.57 151.47 120.52 145.59 106.89 131.04 104.01 142.18 94.21"/></svg>