<svg id="Layer_1" data-name="Layer 1" xmlns="http://www.w3.org/2000/svg" viewBox="0 0 200 49.95"><defs><style>.cls-1{fill:blue;}.cls-1,.cls-2{stroke:#000;stroke-miterlimit:10;stroke-width:2px;}.cls-2{fill:none;}</style></defs><title>Artboard 1</title><path class="cls-1" d="M194,25a3.08,3.08,0,0,1-3.18,3h-.38a34.7,34.7,0,0,1-11.3-3A34.86,34.86,0,0,1,190.44,22h.38A3.08,3.08,0,0,1,194,25Z"/><path class="cls-1" d="M187.8,39a3.37,3.37,0,0,1-4.5,0l0,0-.12-.12-.09-.09h0a30.25,30.25,0,0,1-5.76-9.53,33.56,33.56,0,0,1,10.23,5.36h0l.1.07.08.07.1.08A2.84,2.84,0,0,1,187.8,39Z"/><path class="cls-1" d="M172.77,44.74a3.08,3.08,0,0,1-3.18-3v-.06s0-.09,0-.17,0-.07,0-.11h0a29,29,0,0,1,3.16-10.53,28.82,28.82,0,0,1,3.16,10.53h0a.45.45,0,0,1,0,.11.38.38,0,0,1,0,.1,1.16,1.16,0,0,1,0,.13A3.09,3.09,0,0,1,172.77,44.74Z"/><path class="cls-1" d="M157.76,39a2.82,2.82,0,0,1,0-4.19l.05,0,.13-.11.1-.08h0a33.33,33.33,0,0,1,10.23-5.36,30,30,0,0,1-5.76,9.52h0l-.08.08-.07.08-.09.09A3.36,3.36,0,0,1,157.76,39Z"/><path class="cls-1" d="M151.67,25a3.09,3.09,0,0,1,3.19-3h.37A34.86,34.86,0,0,1,166.53,25a34.7,34.7,0,0,1-11.3,3h-.37A3.09,3.09,0,0,1,151.67,25Z"/><path class="cls-1" d="M157.76,11a3.38,3.38,0,0,1,4.51,0l0,0,.12.12.08.09h0a30.05,30.05,0,0,1,5.76,9.53A33.56,33.56,0,0,1,158,15.42h0l-.1-.07-.07-.07-.11-.08A2.84,2.84,0,0,1,157.76,11Z"/><path class="cls-1" d="M172.77,5.2a3.09,3.09,0,0,1,3.19,3,.18.18,0,0,1,0,.05,1.16,1.16,0,0,1,0,.17.49.49,0,0,1,0,.12h0A28.79,28.79,0,0,1,172.77,19a29,29,0,0,1-3.16-10.52h0s0-.08,0-.12V8.3c0-.09,0-.13,0-.13A3.08,3.08,0,0,1,172.77,5.2Z"/><path class="cls-1" d="M187.81,11a2.81,2.81,0,0,1,0,4.19l0,0-.14.11a.35.35,0,0,1-.09.07h0a33.56,33.56,0,0,1-10.23,5.36,29.83,29.83,0,0,1,5.76-9.52h0l.08-.09.07-.07.09-.09A3.34,3.34,0,0,1,187.81,11Z"/><ellipse class="cls-1" cx="172.77" cy="24.97" rx="3.18" ry="2.96"/><path class="cls-2" d="M37.75,13.7c0-4.28-4.75-8.5-10.59-8.5S16.58,9.42,16.58,13.7L7.67,36.57,6.28,40.14l0,.11L6,40.87H21.87c0,2.14,2.37,3.87,5.29,3.87s5.29-1.73,5.29-3.87H48.33l-.26-.62,0-.11-1.39-3.57Z"/><path class="cls-2" d="M150.41,37.33H97.51c0-13.65,11.84-24.71,26.45-24.71S150.41,23.68,150.41,37.33Z"/><polygon class="cls-2" points="68.06 18.15 74.96 4.97 81.96 18.1 97.51 20.16 86.3 30.43 89.02 44.88 75.09 38.1 61.22 44.97 63.82 30.51 52.53 20.31 68.06 18.15"/></svg>