<svg id="Layer_1" data-name="Layer 1" xmlns="http://www.w3.org/2000/svg" viewBox="0 0 73 18.71"><defs><style>.cls-1{fill:blue;}.cls-2{fill:none;stroke:#000;stroke-miterlimit:10;}</style></defs><title>Artboard2</title><path class="cls-1" d="M53.8,9.35a1.15,1.15,0,0,1-1.2,1.11h-.14A13.36,13.36,0,0,1,48.2,9.35a13.23,13.23,0,0,1,4.26-1.1h.14A1.16,1.16,0,0,1,53.8,9.35Z"/><path class="cls-1" d="M51.46,14.6a1.27,1.27,0,0,1-1.69,0l0,0,0,0,0,0h0a11.36,11.36,0,0,1-2.17-3.57,12.68,12.68,0,0,1,3.86,2h0l0,0,0,0,0,0A1.05,1.05,0,0,1,51.46,14.6Z"/><path class="cls-1" d="M45.79,16.77a1.16,1.16,0,0,1-1.2-1.12v0a.35.35,0,0,0,0-.06v0h0a11.06,11.06,0,0,1,1.19-3.94A10.94,10.94,0,0,1,47,15.52h0v.12A1.17,1.17,0,0,1,45.79,16.77Z"/><path class="cls-1" d="M40.13,14.6a1.06,1.06,0,0,1,0-1.58h0l.05,0,0,0h0a12.32,12.32,0,0,1,3.86-2,11.25,11.25,0,0,1-2.18,3.57h0l0,0,0,0,0,0A1.28,1.28,0,0,1,40.13,14.6Z"/><path class="cls-1" d="M37.83,9.35A1.16,1.16,0,0,1,39,8.24h.14a13.27,13.27,0,0,1,4.27,1.1,13.39,13.39,0,0,1-4.27,1.11H39A1.15,1.15,0,0,1,37.83,9.35Z"/><path class="cls-1" d="M40.13,4.11a1.28,1.28,0,0,1,1.7,0l0,0,0,0,0,0h0A11.25,11.25,0,0,1,44.1,7.78a12.54,12.54,0,0,1-3.86-2h0l0,0,0,0,0,0A1.05,1.05,0,0,1,40.13,4.11Z"/><path class="cls-1" d="M45.79,1.94A1.16,1.16,0,0,1,47,3.05v.13h0a11,11,0,0,1-1.2,4A11.09,11.09,0,0,1,44.6,3.18h0V3.1a.18.18,0,0,1,0-.05A1.16,1.16,0,0,1,45.79,1.94Z"/><path class="cls-1" d="M51.47,4.1a1.05,1.05,0,0,1,0,1.57l0,0-.05,0,0,0h0a12.54,12.54,0,0,1-3.86,2A11.25,11.25,0,0,1,49.68,4.2h0l0,0,0,0,0,0A1.28,1.28,0,0,1,51.47,4.1Z"/><ellipse class="cls-1" cx="45.79" cy="9.35" rx="1.2" ry="1.11"/><path class="cls-2" d="M34.44,5.13c0-1.61-1.79-3.19-4-3.19s-4,1.58-4,3.19L23.09,13.7,22.57,15v0l-.1.23h6c0,.81.9,1.46,2,1.46s2-.65,2-1.46h6l-.09-.23v0L37.8,13.7Z"/><path class="cls-2" d="M21.46,14H1.5c0-5.12,4.47-9.27,10-9.27S21.46,8.87,21.46,14Z"/><polygon class="cls-2" points="60.39 6.79 62.99 1.85 65.63 6.78 71.5 7.55 67.27 11.4 68.3 16.82 63.04 14.28 57.81 16.85 58.79 11.43 54.53 7.61 60.39 6.79"/></svg>