<svg id="Layer_1" data-name="Layer 1" xmlns="http://www.w3.org/2000/svg" viewBox="0 0 200 200"><defs><style>.cls-1{fill:none;stroke:#000;stroke-miterlimit:10;stroke-width:0.25px;}</style></defs><title>Artboard 5</title><path class="cls-1" d="M86.49,83.79a10,10,0,0,1,10,10s-.07.84-.26,2.23v0c-.69,4.94-3,16.58-9.74,20.15-6.74-3.57-9-15.21-9.74-20.15v0c-.19-1.39-.26-2.23-.26-2.23A10,10,0,0,1,86.49,83.79Z"/><path class="cls-1" d="M114.33,100.28l11.5-3.41s2.26-2.23.42-7.55l-1-3.36,2.3,3C135.28,100,129,107.66,129,107.66l-11.51,3.41h0l.88,3L101.56,110l11.92-12.56.85,2.85"/><path class="cls-1" d="M168.77,110.66A20,20,0,0,1,138.31,113a20,20,0,0,0,23-32,20,20,0,0,1,7.42,29.64Z"/><polygon class="cls-1" points="39.37 94.28 37.38 79.57 50.26 86.93 63.63 80.5 60.61 95.02 70.86 105.75 56.11 107.36 49.08 120.43 42.99 106.9 28.39 104.25 39.37 94.28"/></svg>