<svg id="Layer_1" data-name="Layer 1" xmlns="http://www.w3.org/2000/svg" viewBox="0 0 200 200"><defs><style>.cls-1{fill:none;stroke:#000;stroke-miterlimit:10;stroke-width:0.25px;}</style></defs><title>Artboard 3</title><path class="cls-1" d="M50.33,83.79a10,10,0,0,1,10,10s-.07.84-.26,2.23v0c-.69,4.94-3,16.58-9.74,20.15-6.74-3.57-9-15.21-9.74-20.15v0c-.19-1.39-.26-2.23-.26-2.23A10,10,0,0,1,50.33,83.79Z"/><path class="cls-1" d="M156.46,100.3,168,96.86s2.25-2.24.4-7.56l-1-3.35,2.3,3c7.75,11.06,1.52,18.73,1.52,18.73l-11.49,3.44h0l.89,3-16.85-4,11.88-12.6.86,2.85"/><path class="cls-1" d="M92.8,110.66A20,20,0,0,1,62.34,113a20,20,0,0,0,23-32,20.28,20.28,0,0,1,2.88,1.72A20,20,0,0,1,92.8,110.66Z"/><polygon class="cls-1" points="111.74 98.75 110.37 83.97 122.93 91.88 136.56 86.02 132.92 100.4 142.71 111.55 127.91 112.54 120.32 125.29 114.81 111.52 100.34 108.25 111.74 98.75"/></svg>