<svg id="Layer_1" data-name="Layer 1" xmlns="http://www.w3.org/2000/svg" viewBox="0 0 76 18.69"><defs><style>.cls-1{fill:none;stroke:#000;stroke-miterlimit:10;}</style></defs><title>Artboard6</title><path class="cls-1" d="M28.19,3.34c2.73,0,4.94,1.66,4.94,3.7,0,0,0,.32-.12.83h0c-.35,1.84-1.49,6.15-4.82,7.48C24.86,14,23.72,9.72,23.38,7.88h0c-.09-.51-.13-.83-.13-.83C23.25,5,25.47,3.34,28.19,3.34Z"/><path class="cls-1" d="M41.15,9.41l5.71-1.2s1.13-.82.25-2.8l-.46-1.25,1.12,1.11c3.74,4.15.6,7,.6,7l-5.71,1.21h0l.42,1.1L34.78,13l6-4.59.4,1.06"/><path class="cls-1" d="M18.71,13.3C15.52,16.62,9.35,17.38,4.92,15a8.74,8.74,0,0,1-1.26-.8c4.25,1.56,9.51.65,12.37-2.33s2.34-7-1-9.54A10.63,10.63,0,0,1,16.46,3C20.89,5.34,21.9,10,18.71,13.3Z"/><polygon class="cls-1" points="59.91 6.79 63.13 1.85 66.4 6.77 73.66 7.54 68.43 11.39 69.69 16.81 63.19 14.27 56.72 16.85 57.93 11.42 52.66 7.6 59.91 6.79"/></svg>