<svg xmlns="http://www.w3.org/2000/svg" viewBox="0 0 51 91"><defs><style>.cls-1,.cls-2,.cls-3,.cls-4{stroke:#000;stroke-miterlimit:10;}.cls-2,.cls-4{fill:none;}.cls-3{fill:#fff;}.cls-4{stroke-width:0.25px;}</style></defs><title>Artboard2</title><g id="Layer_2" data-name="Layer 2"><g id="Layer_1-2" data-name="Layer 1"><rect class="cls-1" x="0.5" y="0.5" width="50" height="15"/><rect class="cls-2" x="0.5" y="60.5" width="50" height="15"/><line class="cls-2" x1="2.41" y1="62.72" x2="3.41" y2="62.72"/><line class="cls-2" x1="5.41" y1="62.72" x2="6.41" y2="62.72"/><line class="cls-2" x1="8.41" y1="62.72" x2="9.41" y2="62.72"/><line class="cls-2" x1="11.41" y1="62.72" x2="12.41" y2="62.72"/><line class="cls-2" x1="14.41" y1="62.72" x2="15.41" y2="62.72"/><line class="cls-2" x1="17.41" y1="62.72" x2="18.41" y2="62.72"/><line class="cls-2" x1="20.41" y1="62.72" x2="21.41" y2="62.72"/><line class="cls-2" x1="23.41" y1="62.72" x2="24.41" y2="62.72"/><line class="cls-2" x1="26.41" y1="62.72" x2="27.41" y2="62.72"/><line class="cls-2" x1="29.41" y1="62.72" x2="30.41" y2="62.72"/><line class="cls-2" x1="32.41" y1="62.72" x2="33.41" y2="62.72"/><line class="cls-2" x1="35.41" y1="62.72" x2="36.41" y2="62.72"/><line class="cls-2" x1="38.41" y1="62.72" x2="39.41" y2="62.72"/><line class="cls-2" x1="41.41" y1="62.72" x2="42.41" y2="62.72"/><line class="cls-2" x1="44.41" y1="62.72" x2="45.41" y2="62.72"/><line class="cls-2" x1="47.41" y1="62.72" x2="48.41" y2="62.72"/><line class="cls-2" x1="2.41" y1="64.8" x2="3.41" y2="64.8"/><line class="cls-2" x1="5.41" y1="64.8" x2="6.41" y2="64.8"/><line class="cls-2" x1="8.41" y1="64.8" x2="9.41" y2="64.8"/><line class="cls-2" x1="11.41" y1="64.8" x2="12.41" y2="64.8"/><line class="cls-2" x1="14.41" y1="64.8" x2="15.41" y2="64.8"/><line class="cls-2" x1="17.41" y1="64.8" x2="18.41" y2="64.8"/><line class="cls-2" x1="20.41" y1="64.8" x2="21.41" y2="64.8"/><line class="cls-2" x1="23.41" y1="64.8" x2="24.41" y2="64.8"/><line class="cls-2" x1="26.41" y1="64.8" x2="27.41" y2="64.8"/><line class="cls-2" x1="29.41" y1="64.8" x2="30.41" y2="64.8"/><line class="cls-2" x1="32.41" y1="64.8" x2="33.41" y2="64.8"/><line class="cls-2" x1="35.41" y1="64.8" x2="36.41" y2="64.8"/><line class="cls-2" x1="38.41" y1="64.8" x2="39.41" y2="64.8"/><line class="cls-2" x1="41.41" y1="64.8" x2="42.41" y2="64.8"/><line class="cls-2" x1="44.41" y1="64.8" x2="45.41" y2="64.8"/><line class="cls-2" x1="47.41" y1="64.8" x2="48.41" y2="64.8"/><line class="cls-2" x1="2.41" y1="66.89" x2="3.41" y2="66.89"/><line class="cls-2" x1="5.41" y1="66.89" x2="6.41" y2="66.89"/><line class="cls-2" x1="8.41" y1="66.89" x2="9.41" y2="66.89"/><line class="cls-2" x1="11.41" y1="66.89" x2="12.41" y2="66.89"/><line class="cls-2" x1="14.41" y1="66.89" x2="15.41" y2="66.89"/><line class="cls-2" x1="17.41" y1="66.89" x2="18.41" y2="66.89"/><line class="cls-2" x1="20.41" y1="66.89" x2="21.41" y2="66.89"/><line class="cls-2" x1="23.41" y1="66.89" x2="24.41" y2="66.89"/><line class="cls-2" x1="26.41" y1="66.89" x2="27.41" y2="66.89"/><line class="cls-2" x1="29.41" y1="66.89" x2="30.41" y2="66.89"/><line class="cls-2" x1="32.41" y1="66.89" x2="33.41" y2="66.89"/><line class="cls-2" x1="35.41" y1="66.89" x2="36.41" y2="66.89"/><line class="cls-2" x1="38.41" y1="66.89" x2="39.41" y2="66.89"/><line class="cls-2" x1="41.41" y1="66.89" x2="42.41" y2="66.89"/><line class="cls-2" x1="44.41" y1="66.89" x2="45.41" y2="66.89"/><line class="cls-2" x1="47.41" y1="66.89" x2="48.41" y2="66.89"/><line class="cls-2" x1="2.41" y1="68.97" x2="3.41" y2="68.97"/><line class="cls-2" x1="5.41" y1="68.97" x2="6.41" y2="68.97"/><line class="cls-2" x1="8.41" y1="68.97" x2="9.41" y2="68.97"/><line class="cls-2" x1="11.41" y1="68.97" x2="12.41" y2="68.97"/><line class="cls-2" x1="14.41" y1="68.97" x2="15.41" y2="68.97"/><line class="cls-2" x1="17.41" y1="68.97" x2="18.41" y2="68.97"/><line class="cls-2" x1="20.41" y1="68.97" x2="21.41" y2="68.97"/><line class="cls-2" x1="23.41" y1="68.97" x2="24.41" y2="68.97"/><line class="cls-2" x1="26.41" y1="68.97" x2="27.41" y2="68.97"/><line class="cls-2" x1="29.41" y1="68.97" x2="30.41" y2="68.97"/><line class="cls-2" x1="32.41" y1="68.97" x2="33.41" y2="68.97"/><line class="cls-2" x1="35.41" y1="68.97" x2="36.41" y2="68.97"/><line class="cls-2" x1="38.41" y1="68.97" x2="39.41" y2="68.97"/><line class="cls-2" x1="41.41" y1="68.97" x2="42.41" y2="68.97"/><line class="cls-2" x1="44.41" y1="68.97" x2="45.41" y2="68.97"/><line class="cls-2" x1="47.41" y1="68.97" x2="48.41" y2="68.97"/><line class="cls-2" x1="2.41" y1="71.05" x2="3.41" y2="71.05"/><line class="cls-2" x1="5.41" y1="71.05" x2="6.41" y2="71.05"/><line class="cls-2" x1="8.41" y1="71.05" x2="9.41" y2="71.05"/><line class="cls-2" x1="11.41" y1="71.05" x2="12.41" y2="71.05"/><line class="cls-2" x1="14.41" y1="71.05" x2="15.41" y2="71.05"/><line class="cls-2" x1="17.41" y1="71.05" x2="18.41" y2="71.05"/><line class="cls-2" x1="20.41" y1="71.05" x2="21.41" y2="71.05"/><line class="cls-2" x1="23.41" y1="71.05" x2="24.41" y2="71.05"/><line class="cls-2" x1="26.41" y1="71.05" x2="27.41" y2="71.05"/><line class="cls-2" x1="29.41" y1="71.05" x2="30.41" y2="71.05"/><line class="cls-2" x1="32.41" y1="71.05" x2="33.41" y2="71.05"/><line class="cls-2" x1="35.41" y1="71.05" x2="36.41" y2="71.05"/><line class="cls-2" x1="38.41" y1="71.05" x2="39.41" y2="71.05"/><line class="cls-2" x1="41.41" y1="71.05" x2="42.41" y2="71.05"/><line class="cls-2" x1="44.41" y1="71.05" x2="45.41" y2="71.05"/><line class="cls-2" x1="47.41" y1="71.05" x2="48.41" y2="71.05"/><line class="cls-2" x1="2.41" y1="73.14" x2="3.41" y2="73.14"/><line class="cls-2" x1="5.41" y1="73.14" x2="6.41" y2="73.14"/><line class="cls-2" x1="8.41" y1="73.14" x2="9.41" y2="73.14"/><line class="cls-2" x1="11.41" y1="73.14" x2="12.41" y2="73.14"/><line class="cls-2" x1="14.41" y1="73.14" x2="15.41" y2="73.14"/><line class="cls-2" x1="17.41" y1="73.14" x2="18.41" y2="73.14"/><line class="cls-2" x1="20.41" y1="73.14" x2="21.41" y2="73.14"/><line class="cls-2" x1="23.41" y1="73.14" x2="24.41" y2="73.14"/><line class="cls-2" x1="26.41" y1="73.14" x2="27.41" y2="73.14"/><line class="cls-2" x1="29.41" y1="73.14" x2="30.41" y2="73.14"/><line class="cls-2" x1="32.41" y1="73.14" x2="33.41" y2="73.14"/><line class="cls-2" x1="35.41" y1="73.14" x2="36.41" y2="73.14"/><line class="cls-2" x1="38.41" y1="73.14" x2="39.41" y2="73.14"/><line class="cls-2" x1="41.41" y1="73.14" x2="42.41" y2="73.14"/><line class="cls-2" x1="44.41" y1="73.14" x2="45.41" y2="73.14"/><line class="cls-2" x1="47.41" y1="73.14" x2="48.41" y2="73.14"/><rect class="cls-3" x="0.5" y="30.5" width="50" height="15"/><polygon class="cls-4" points="47.52 45.5 50.5 42.52 50.5 45.5 47.52 45.5"/><polygon class="cls-4" points="45.99 45.5 50.5 40.99 50.5 45.5 45.99 45.5"/><polygon class="cls-4" points="50.5 39.46 50.5 45.5 44.46 45.5 50.5 39.46"/><polygon class="cls-4" points="42.94 45.5 50.5 37.94 50.5 45.5 42.94 45.5"/><polygon class="cls-4" points="41.41 45.5 50.5 36.41 50.5 45.5 41.41 45.5"/><polygon class="cls-4" points="39.88 45.5 50.5 34.88 50.5 45.5 39.88 45.5"/><polygon class="cls-4" points="38.35 45.5 50.5 33.35 50.5 45.5 38.35 45.5"/><polygon class="cls-4" points="36.83 45.5 50.5 31.83 50.5 45.5 36.83 45.5"/><polygon class="cls-4" points="50.3 30.5 50.5 30.5 50.5 45.5 35.3 45.5 50.3 30.5"/><polygon class="cls-4" points="50.5 30.5 50.5 45.5 33.77 45.5 48.77 30.5 50.5 30.5"/><polygon class="cls-4" points="50.5 30.5 50.5 45.5 32.24 45.5 47.24 30.5 50.5 30.5"/><polygon class="cls-4" points="50.5 30.5 50.5 45.5 30.72 45.5 45.72 30.5 50.5 30.5"/><polygon class="cls-4" points="50.5 30.5 50.5 45.5 29.19 45.5 44.19 30.5 50.5 30.5"/><polygon class="cls-4" points="50.5 30.5 50.5 45.5 27.66 45.5 42.66 30.5 50.5 30.5"/><polygon class="cls-4" points="50.5 30.5 50.5 45.5 26.13 45.5 41.13 30.5 50.5 30.5"/><polygon class="cls-4" points="50.5 30.5 50.5 45.5 24.61 45.5 39.61 30.5 50.5 30.5"/><polygon class="cls-4" points="50.5 30.5 50.5 45.5 23.08 45.5 38.08 30.5 50.5 30.5"/><polygon class="cls-4" points="50.5 30.5 50.5 45.5 21.55 45.5 36.55 30.5 50.5 30.5"/><polygon class="cls-4" points="50.5 30.5 50.5 45.5 20.02 45.5 35.02 30.5 50.5 30.5"/><polygon class="cls-4" points="50.5 30.5 50.5 45.5 18.5 45.5 33.5 30.5 50.5 30.5"/><polygon class="cls-4" points="50.5 30.5 50.5 45.5 16.97 45.5 31.97 30.5 50.5 30.5"/><polygon class="cls-4" points="50.5 30.5 50.5 45.5 15.44 45.5 30.44 30.5 50.5 30.5"/><polygon class="cls-4" points="50.5 30.5 50.5 45.5 13.91 45.5 28.91 30.5 50.5 30.5"/><polygon class="cls-4" points="50.5 30.5 50.5 45.5 12.39 45.5 27.39 30.5 50.5 30.5"/><polygon class="cls-4" points="50.5 30.5 50.5 45.5 10.86 45.5 25.86 30.5 50.5 30.5"/><polygon class="cls-4" points="50.5 30.5 50.5 45.5 9.33 45.5 24.33 30.5 50.5 30.5"/><polygon class="cls-4" points="50.5 30.5 50.5 45.5 7.8 45.5 22.8 30.5 50.5 30.5"/><polygon class="cls-4" points="50.5 30.5 50.5 45.5 6.28 45.5 21.28 30.5 50.5 30.5"/><polygon class="cls-4" points="50.5 30.5 50.5 45.5 4.75 45.5 19.75 30.5 50.5 30.5"/><polygon class="cls-4" points="50.5 30.5 50.5 45.5 3.22 45.5 18.22 30.5 50.5 30.5"/><polygon class="cls-4" points="50.5 30.5 50.5 45.5 1.69 45.5 16.69 30.5 50.5 30.5"/><polygon class="cls-4" points="50.5 30.5 50.5 45.5 0.5 45.5 0.5 45.17 15.17 30.5 50.5 30.5"/><polygon class="cls-4" points="50.5 30.5 50.5 45.5 0.5 45.5 0.5 43.64 13.64 30.5 50.5 30.5"/><polygon class="cls-4" points="50.5 30.5 50.5 45.5 0.5 45.5 0.5 42.11 12.11 30.5 50.5 30.5"/><polygon class="cls-4" points="50.5 30.5 50.5 45.5 0.5 45.5 0.5 40.59 10.59 30.5 50.5 30.5"/><polygon class="cls-4" points="50.5 30.5 50.5 45.5 0.5 45.5 0.5 39.06 9.06 30.5 50.5 30.5"/><polygon class="cls-4" points="50.5 30.5 50.5 45.5 0.5 45.5 0.5 37.53 7.53 30.5 50.5 30.5"/><polygon class="cls-4" points="50.5 30.5 50.5 45.5 0.5 45.5 0.5 36 6 30.5 50.5 30.5"/><polygon class="cls-4" points="50.5 30.5 50.5 45.5 0.5 45.5 0.5 34.48 4.48 30.5 50.5 30.5"/><polygon class="cls-4" points="50.5 30.5 50.5 45.5 0.5 45.5 0.5 32.95 2.95 30.5 50.5 30.5"/><rect class="cls-3" x="0.5" y="15.5" width="50" height="15"/><polygon class="cls-4" points="3.39 30.5 0.5 30.5 0.5 27.61 3.39 30.5"/><polygon class="cls-4" points="5.42 30.5 0.5 30.5 0.5 25.58 5.42 30.5"/><polygon class="cls-4" points="7.44 30.5 0.5 30.5 0.5 23.56 7.44 30.5"/><polygon class="cls-4" points="9.46 30.5 0.5 30.5 0.5 21.54 9.46 30.5"/><polygon class="cls-4" points="0.5 30.5 0.5 19.51 11.49 30.5 0.5 30.5"/><polygon class="cls-4" points="0.5 30.5 0.5 17.49 13.51 30.5 0.5 30.5"/><polygon class="cls-4" points="15.54 30.5 0.5 30.5 0.5 15.5 0.54 15.5 15.54 30.5"/><polygon class="cls-4" points="17.56 30.5 0.5 30.5 0.5 15.5 2.56 15.5 17.56 30.5"/><polygon class="cls-4" points="19.58 30.5 0.5 30.5 0.5 15.5 4.58 15.5 19.58 30.5"/><polygon class="cls-4" points="21.6 30.5 0.5 30.5 0.5 15.5 6.6 15.5 21.6 30.5"/><polygon class="cls-4" points="0.5 30.5 0.5 15.5 8.63 15.5 23.63 30.5 0.5 30.5"/><polygon class="cls-4" points="25.65 30.5 0.5 30.5 0.5 15.5 10.65 15.5 25.65 30.5"/><polygon class="cls-4" points="27.68 30.5 0.5 30.5 0.5 15.5 12.68 15.5 27.68 30.5"/><polygon class="cls-4" points="29.7 30.5 0.5 30.5 0.5 15.5 14.7 15.5 29.7 30.5"/><polygon class="cls-4" points="31.72 30.5 0.5 30.5 0.5 15.5 16.72 15.5 31.72 30.5"/><polygon class="cls-4" points="0.5 30.5 0.5 15.5 18.75 15.5 33.75 30.5 0.5 30.5"/><polygon class="cls-4" points="0.5 30.5 0.5 15.5 20.77 15.5 35.77 30.5 0.5 30.5"/><polygon class="cls-4" points="37.8 30.5 0.5 30.5 0.5 15.5 22.8 15.5 37.8 30.5"/><polygon class="cls-4" points="39.82 30.5 0.5 30.5 0.5 15.5 24.82 15.5 39.82 30.5"/><polygon class="cls-4" points="41.84 30.5 0.5 30.5 0.5 15.5 26.84 15.5 41.84 30.5"/><polygon class="cls-4" points="43.86 30.5 0.5 30.5 0.5 15.5 28.86 15.5 43.86 30.5"/><polygon class="cls-4" points="0.5 30.5 0.5 15.5 30.89 15.5 45.89 30.5 0.5 30.5"/><polygon class="cls-4" points="47.91 30.5 0.5 30.5 0.5 15.5 32.91 15.5 47.91 30.5"/><polygon class="cls-4" points="49.94 30.5 0.5 30.5 0.5 15.5 34.94 15.5 49.94 30.5"/><polygon class="cls-4" points="50.5 29.04 50.5 30.5 0.5 30.5 0.5 15.5 36.96 15.5 50.5 29.04"/><polygon class="cls-4" points="50.5 27.02 50.5 30.5 0.5 30.5 0.5 15.5 38.98 15.5 50.5 27.02"/><polygon class="cls-4" points="0.5 30.5 0.5 15.5 41.01 15.5 50.5 24.99 50.5 30.5 0.5 30.5"/><polygon class="cls-4" points="0.5 30.5 0.5 15.5 43.03 15.5 50.5 22.97 50.5 30.5 0.5 30.5"/><polygon class="cls-4" points="50.5 20.94 50.5 30.5 0.5 30.5 0.5 15.5 45.06 15.5 50.5 20.94"/><polygon class="cls-4" points="50.5 18.92 50.5 30.5 0.5 30.5 0.5 15.5 47.08 15.5 50.5 18.92"/><rect class="cls-3" x="0.5" y="45.5" width="50" height="15"/><rect class="cls-4" x="0.5" y="45.5" width="1.25" height="15"/><rect class="cls-4" x="0.5" y="45.5" width="2.12" height="15"/><rect class="cls-4" x="0.5" y="45.5" width="3" height="15"/><rect class="cls-4" x="0.5" y="45.5" width="3.88" height="15"/><rect class="cls-4" x="0.5" y="45.5" width="4.75" height="15"/><rect class="cls-4" x="0.5" y="45.5" width="5.62" height="15"/><rect class="cls-4" x="0.5" y="45.5" width="6.5" height="15"/><rect class="cls-4" x="0.5" y="45.5" width="7.38" height="15"/><rect class="cls-4" x="0.5" y="45.5" width="8.25" height="15"/><rect class="cls-4" x="0.5" y="45.5" width="9.12" height="15"/><rect class="cls-4" x="0.5" y="45.5" width="10" height="15"/><rect class="cls-4" x="0.5" y="45.5" width="10.88" height="15"/><rect class="cls-4" x="0.5" y="45.5" width="11.75" height="15"/><rect class="cls-4" x="0.5" y="45.5" width="12.62" height="15"/><rect class="cls-4" x="0.5" y="45.5" width="13.5" height="15"/><rect class="cls-4" x="0.5" y="45.5" width="14.38" height="15"/><rect class="cls-4" x="0.5" y="45.5" width="15.25" height="15"/><rect class="cls-4" x="0.5" y="45.5" width="16.12" height="15"/><rect class="cls-4" x="0.5" y="45.5" width="17" height="15"/><rect class="cls-4" x="0.5" y="45.5" width="17.88" height="15"/><rect class="cls-4" x="0.5" y="45.5" width="18.75" height="15"/><rect class="cls-4" x="0.5" y="45.5" width="19.62" height="15"/><rect class="cls-4" x="0.5" y="45.5" width="20.5" height="15"/><rect class="cls-4" x="0.5" y="45.5" width="21.38" height="15"/><rect class="cls-4" x="0.5" y="45.5" width="22.25" height="15"/><rect class="cls-4" x="0.5" y="45.5" width="23.12" height="15"/><rect class="cls-4" x="0.5" y="45.5" width="24" height="15"/><rect class="cls-4" x="0.5" y="45.5" width="24.88" height="15"/><rect class="cls-4" x="0.5" y="45.5" width="25.75" height="15"/><rect class="cls-4" x="0.5" y="45.5" width="26.62" height="15"/><rect class="cls-4" x="0.5" y="45.5" width="27.5" height="15"/><rect class="cls-4" x="0.5" y="45.5" width="28.38" height="15"/><rect class="cls-4" x="0.5" y="45.5" width="29.25" height="15"/><rect class="cls-4" x="0.5" y="45.5" width="30.12" height="15"/><rect class="cls-4" x="0.5" y="45.5" width="31" height="15"/><rect class="cls-4" x="0.5" y="45.5" width="31.88" height="15"/><rect class="cls-4" x="0.5" y="45.5" width="32.75" height="15"/><rect class="cls-4" x="0.5" y="45.5" width="33.62" height="15"/><rect class="cls-4" x="0.5" y="45.5" width="34.5" height="15"/><rect class="cls-4" x="0.5" y="45.5" width="35.38" height="15"/><rect class="cls-4" x="0.5" y="45.5" width="36.25" height="15"/><rect class="cls-4" x="0.5" y="45.5" width="37.12" height="15"/><rect class="cls-4" x="0.5" y="45.5" width="38" height="15"/><rect class="cls-4" x="0.5" y="45.5" width="38.88" height="15"/><rect class="cls-4" x="0.5" y="45.5" width="39.75" height="15"/><rect class="cls-4" x="0.5" y="45.5" width="40.62" height="15"/><rect class="cls-4" x="0.5" y="45.5" width="41.5" height="15"/><rect class="cls-4" x="0.5" y="45.5" width="42.38" height="15"/><rect class="cls-4" x="0.5" y="45.5" width="43.25" height="15"/><rect class="cls-4" x="0.5" y="45.5" width="44.12" height="15"/><rect class="cls-4" x="0.5" y="45.5" width="45" height="15"/><rect class="cls-4" x="0.5" y="45.5" width="45.88" height="15"/><rect class="cls-4" x="0.5" y="45.5" width="46.75" height="15"/><rect class="cls-4" x="0.5" y="45.5" width="47.62" height="15"/><rect class="cls-4" x="0.5" y="45.5" width="48.5" height="15"/><rect class="cls-4" x="0.5" y="59.12" width="50" height="1.38"/><rect class="cls-4" x="0.5" y="58.12" width="50" height="2.38"/><rect class="cls-4" x="0.5" y="57.12" width="50" height="3.38"/><rect class="cls-4" x="0.5" y="56.12" width="50" height="4.38"/><rect class="cls-4" x="0.5" y="55.12" width="50" height="5.38"/><rect class="cls-4" x="0.5" y="54.12" width="50" height="6.38"/><rect class="cls-4" x="0.5" y="53.12" width="50" height="7.38"/><rect class="cls-4" x="0.5" y="52.12" width="50" height="8.38"/><rect class="cls-4" x="0.5" y="51.12" width="50" height="9.38"/><rect class="cls-4" x="0.5" y="50.12" width="50" height="10.38"/><rect class="cls-4" x="0.5" y="49.12" width="50" height="11.38"/><rect class="cls-4" x="0.5" y="48.12" width="50" height="12.38"/><rect class="cls-4" x="0.5" y="47.12" width="50" height="13.38"/><rect class="cls-2" x="0.5" y="75.5" width="50" height="15"/><polygon class="cls-4" points="46.84 90.5 46.9 90.44 47.94 89.41 48.97 88.38 50 87.35 50.5 86.84 50.5 90.5 46.84 90.5"/><polygon class="cls-4" points="50.5 84.84 50.5 90.5 44.84 90.5 45.9 89.44 46.94 88.41 47.97 87.38 49 86.35 50.03 85.31 50.5 84.84"/><polygon class="cls-4" points="50.5 82.84 50.5 90.5 42.84 90.5 44.9 88.44 45.94 87.41 46.97 86.38 48 85.35 49.03 84.31 50.06 83.28 50.5 82.84"/><polygon class="cls-4" points="50.5 80.84 50.5 90.5 40.84 90.5 43.9 87.44 44.94 86.41 45.97 85.38 47 84.35 48.03 83.31 49.06 82.28 50.09 81.25 50.5 80.84"/><polygon class="cls-4" points="50.5 78.84 50.5 90.5 38.84 90.5 39.81 89.53 40.84 88.5 42.9 86.44 43.94 85.41 44.97 84.38 46 83.35 47.03 82.31 48.06 81.28 49.09 80.25 50.12 79.22 50.5 78.84"/><polygon class="cls-4" points="50.5 76.84 50.5 90.5 36.84 90.5 37.78 89.56 38.81 88.53 39.84 87.5 41.9 85.44 42.94 84.41 43.97 83.38 45 82.35 46.03 81.31 47.06 80.28 48.09 79.25 49.12 78.22 50.5 76.84"/><polygon class="cls-4" points="50.5 75.5 50.5 90.5 34.84 90.5 35.75 89.6 36.78 88.56 37.81 87.53 38.84 86.5 40.9 84.44 41.94 83.41 42.97 82.38 44 81.35 45.03 80.31 46.06 79.28 47.09 78.25 49.84 75.5 50.5 75.5"/><polygon class="cls-4" points="50.5 75.5 50.5 90.5 32.84 90.5 33.72 89.63 34.75 88.6 35.78 87.56 36.81 86.53 37.84 85.5 39.9 83.44 40.94 82.41 41.97 81.38 43 80.35 44.03 79.31 45.06 78.28 46.09 77.25 47.84 75.5 50.5 75.5"/><polygon class="cls-4" points="50.5 75.5 50.5 90.5 30.84 90.5 31.69 89.66 32.72 88.63 33.75 87.6 34.78 86.56 35.81 85.53 36.84 84.5 38.9 82.44 39.94 81.41 40.97 80.38 42 79.35 43.03 78.31 44.06 77.28 45.09 76.25 45.84 75.5 50.5 75.5"/><polygon class="cls-4" points="50.5 75.5 50.5 90.5 28.84 90.5 29.65 89.69 30.69 88.66 31.72 87.63 32.75 86.6 33.78 85.56 34.81 84.53 35.84 83.5 37.9 81.44 38.94 80.41 39.97 79.38 41 78.35 42.03 77.31 43.06 76.28 43.84 75.5 50.5 75.5"/><polygon class="cls-4" points="50.5 75.5 50.5 90.5 26.84 90.5 28.65 88.69 29.69 87.66 30.72 86.63 31.75 85.6 32.78 84.56 33.81 83.53 34.84 82.5 36.9 80.44 37.94 79.41 38.97 78.38 40 77.35 41.03 76.31 41.84 75.5 50.5 75.5"/><polygon class="cls-4" points="50.5 75.5 50.5 90.5 24.84 90.5 27.65 87.69 28.69 86.66 29.72 85.63 30.75 84.6 31.78 83.56 32.81 82.53 33.84 81.5 35.9 79.44 36.94 78.41 37.97 77.38 39 76.35 39.84 75.5 50.5 75.5"/><polygon class="cls-4" points="50.5 75.5 50.5 90.5 22.84 90.5 23.56 89.78 24.59 88.75 26.65 86.69 27.69 85.66 28.72 84.63 29.75 83.6 30.78 82.56 31.81 81.53 32.84 80.5 34.9 78.44 35.94 77.41 36.97 76.38 37.84 75.5 50.5 75.5"/><polygon class="cls-4" points="50.5 75.5 50.5 90.5 20.84 90.5 21.53 89.81 22.56 88.78 23.59 87.75 25.65 85.69 26.69 84.66 27.72 83.63 28.75 82.6 29.78 81.56 30.81 80.53 31.84 79.5 33.9 77.44 34.94 76.41 35.84 75.5 50.5 75.5"/><polygon class="cls-4" points="50.5 75.5 50.5 90.5 18.84 90.5 19.5 89.85 20.53 88.81 21.56 87.78 22.59 86.75 24.65 84.69 25.69 83.66 26.72 82.63 27.75 81.6 28.78 80.56 29.81 79.53 30.84 78.5 33.84 75.5 50.5 75.5"/><polygon class="cls-4" points="50.5 75.5 50.5 90.5 16.84 90.5 17.47 89.88 18.5 88.85 19.53 87.81 20.56 86.78 21.59 85.75 23.65 83.69 24.69 82.66 25.72 81.63 26.75 80.6 27.78 79.56 28.81 78.53 29.84 77.5 31.84 75.5 50.5 75.5"/><polygon class="cls-4" points="50.5 75.5 50.5 90.5 14.84 90.5 15.44 89.91 16.47 88.88 17.5 87.85 18.53 86.81 19.56 85.78 20.59 84.75 22.65 82.69 23.69 81.66 24.72 80.63 25.75 79.6 26.78 78.56 27.81 77.53 28.84 76.5 29.84 75.5 50.5 75.5"/><polygon class="cls-4" points="50.5 75.5 50.5 90.5 12.84 90.5 13.4 89.94 14.44 88.91 15.47 87.88 16.5 86.85 17.53 85.81 18.56 84.78 19.59 83.75 21.65 81.69 22.69 80.66 23.72 79.63 24.75 78.6 25.78 77.56 26.81 76.53 27.84 75.5 50.5 75.5"/><polygon class="cls-4" points="50.5 75.5 50.5 90.5 10.84 90.5 12.4 88.94 13.44 87.91 14.47 86.88 15.5 85.85 16.53 84.81 17.56 83.78 18.59 82.75 20.65 80.69 21.69 79.66 22.72 78.63 23.75 77.6 24.78 76.56 25.81 75.53 25.84 75.5 50.5 75.5"/><polygon class="cls-4" points="50.5 75.5 50.5 90.5 8.84 90.5 11.4 87.94 12.44 86.91 13.47 85.88 14.5 84.85 15.53 83.81 16.56 82.78 17.59 81.75 19.65 79.69 20.69 78.66 21.72 77.63 22.75 76.6 23.78 75.56 23.84 75.5 50.5 75.5"/><polygon class="cls-4" points="50.5 75.5 50.5 90.5 6.84 90.5 7.31 90.03 8.34 89 10.4 86.94 11.44 85.91 12.47 84.88 13.5 83.85 14.53 82.81 15.56 81.78 16.59 80.75 18.65 78.69 19.69 77.66 20.72 76.63 21.75 75.6 21.84 75.5 50.5 75.5"/><polygon class="cls-4" points="50.5 75.5 50.5 90.5 4.84 90.5 5.28 90.06 6.31 89.03 7.34 88 9.4 85.94 10.44 84.91 11.47 83.88 12.5 82.85 13.53 81.81 14.56 80.78 15.59 79.75 17.65 77.69 18.69 76.66 19.72 75.63 19.84 75.5 50.5 75.5"/><polygon class="cls-4" points="50.5 75.5 50.5 90.5 2.84 90.5 3.25 90.1 4.28 89.06 5.31 88.03 6.34 87 8.4 84.94 9.44 83.91 10.47 82.88 11.5 81.85 12.53 80.81 13.56 79.78 14.59 78.75 16.65 76.69 17.69 75.66 17.84 75.5 50.5 75.5"/><polygon class="cls-4" points="50.5 75.5 50.5 90.5 0.84 90.5 2.25 89.1 3.28 88.06 4.31 87.03 5.34 86 7.4 83.94 8.44 82.91 9.47 81.88 10.5 80.85 11.53 79.81 12.56 78.78 13.59 77.75 15.84 75.5 50.5 75.5"/><polygon class="cls-4" points="50.5 75.5 50.5 90.5 0.5 90.5 0.5 88.84 1.25 88.1 2.28 87.06 3.31 86.03 4.34 85 6.4 82.94 7.44 81.91 8.47 80.88 9.5 79.85 10.53 78.81 11.56 77.78 12.59 76.75 13.84 75.5 50.5 75.5"/><polygon class="cls-4" points="50.5 75.5 50.5 90.5 0.5 90.5 0.5 86.84 1.28 86.06 2.31 85.03 3.34 84 5.4 81.94 6.44 80.91 7.47 79.88 8.5 78.85 9.53 77.81 10.56 76.78 11.59 75.75 11.84 75.5 50.5 75.5"/><polygon class="cls-4" points="50.5 75.5 50.5 90.5 0.5 90.5 0.5 84.84 1.31 84.03 2.34 83 4.4 80.94 5.44 79.91 6.47 78.88 7.5 77.85 8.53 76.81 9.56 75.78 9.84 75.5 50.5 75.5"/><polygon class="cls-4" points="50.5 75.5 50.5 90.5 0.5 90.5 0.5 82.84 1.34 82 3.4 79.94 4.44 78.91 5.47 77.88 6.5 76.85 7.53 75.81 7.84 75.5 50.5 75.5"/><polygon class="cls-4" points="50.5 75.5 50.5 90.5 0.5 90.5 0.5 80.84 1.37 79.97 2.4 78.94 3.44 77.91 4.47 76.88 5.5 75.85 5.84 75.5 50.5 75.5"/><polygon class="cls-4" points="50.5 75.5 50.5 90.5 0.5 90.5 0.5 78.84 1.4 77.94 2.44 76.91 3.47 75.88 3.84 75.5 50.5 75.5"/><polygon class="cls-4" points="3.65 90.5 0.5 90.5 0.5 87.35 3.65 90.5"/><polygon class="cls-4" points="5.72 90.5 0.5 90.5 0.5 85.28 5.72 90.5"/><polygon class="cls-4" points="7.78 90.5 0.5 90.5 0.5 83.22 7.78 90.5"/><polygon class="cls-4" points="9.84 90.5 0.5 90.5 0.5 81.16 9.84 90.5"/><polygon class="cls-4" points="11.9 90.5 0.5 90.5 0.5 79.1 1.37 79.97 11.37 89.97 11.9 90.5"/><polygon class="cls-4" points="13.96 90.5 0.5 90.5 0.5 77.04 13.96 90.5"/><polygon class="cls-4" points="16.03 90.5 0.5 90.5 0.5 75.5 1.03 75.5 16.03 90.5"/><polygon class="cls-4" points="18.09 90.5 0.5 90.5 0.5 75.5 3.09 75.5 18.09 90.5"/><polygon class="cls-4" points="20.15 90.5 0.5 90.5 0.5 75.5 5.15 75.5 20.15 90.5"/><polygon class="cls-4" points="22.22 90.5 0.5 90.5 0.5 75.5 7.22 75.5 22.22 90.5"/><polygon class="cls-4" points="24.28 90.5 0.5 90.5 0.5 75.5 9.28 75.5 24.28 90.5"/><polygon class="cls-4" points="26.34 90.5 0.5 90.5 0.5 75.5 11.34 75.5 26.34 90.5"/><polygon class="cls-4" points="28.4 90.5 0.5 90.5 0.5 75.5 13.4 75.5 13.62 75.72 27.62 89.72 28.4 90.5"/><polygon class="cls-4" points="30.46 90.5 0.5 90.5 0.5 75.5 15.46 75.5 30.46 90.5"/><polygon class="cls-4" points="32.53 90.5 0.5 90.5 0.5 75.5 17.53 75.5 32.53 90.5"/><polygon class="cls-4" points="34.59 90.5 0.5 90.5 0.5 75.5 19.59 75.5 34.59 90.5"/><polygon class="cls-4" points="36.65 90.5 0.5 90.5 0.5 75.5 21.65 75.5 36.65 90.5"/><polygon class="cls-4" points="38.72 90.5 0.5 90.5 0.5 75.5 23.72 75.5 38.72 90.5"/><polygon class="cls-4" points="40.78 90.5 0.5 90.5 0.5 75.5 25.78 75.5 40.78 90.5"/><polygon class="cls-4" points="42.84 90.5 0.5 90.5 0.5 75.5 27.84 75.5 42.84 90.5"/><polygon class="cls-4" points="44.9 90.5 0.5 90.5 0.5 75.5 29.9 75.5 30.87 76.47 44.87 90.47 44.9 90.5"/><polygon class="cls-4" points="46.96 90.5 0.5 90.5 0.5 75.5 31.96 75.5 46.96 90.5"/><polygon class="cls-4" points="49.03 90.5 0.5 90.5 0.5 75.5 34.03 75.5 49.03 90.5"/><polygon class="cls-4" points="50.5 89.91 50.5 90.5 0.5 90.5 0.5 75.5 36.09 75.5 50.5 89.91"/><polygon class="cls-4" points="50.5 87.85 50.5 90.5 0.5 90.5 0.5 75.5 38.15 75.5 50.5 87.85"/><polygon class="cls-4" points="50.5 85.78 50.5 90.5 0.5 90.5 0.5 75.5 40.22 75.5 50.5 85.78"/><polygon class="cls-4" points="50.5 83.72 50.5 90.5 0.5 90.5 0.5 75.5 42.28 75.5 50.5 83.72"/><polygon class="cls-4" points="50.5 81.66 50.5 90.5 0.5 90.5 0.5 75.5 44.34 75.5 50.5 81.66"/><polygon class="cls-4" points="50.5 79.6 50.5 90.5 0.5 90.5 0.5 75.5 46.4 75.5 47.12 76.22 50.12 79.22 50.5 79.6"/></g></g></svg>