<svg xmlns="http://www.w3.org/2000/svg" viewBox="0 0 51 46"><defs><style>.cls-1,.cls-2,.cls-3{stroke:#000;stroke-miterlimit:10;}.cls-2,.cls-3{fill:none;}.cls-3{stroke-width:0.25px;}</style></defs><title>Artboard3</title><g id="Layer_2" data-name="Layer 2"><g id="Layer_1-2" data-name="Layer 1"><rect class="cls-1" x="0.5" y="0.5" width="25" height="15"/><path class="cls-2" d="M25.5,30.5H.5v15h25ZM1.68,43.14h0Zm0-2.09h0Zm0-2.08h0Zm0-2.08h0Zm0-2.09h0Zm0-2.08h0Zm3,10.42h0Zm0-2.09h0Zm0-2.08h0Zm0-2.08h0Zm0-2.09h0Zm0-2.08h0Zm3,10.42h0Zm0-2.09h0Zm0-2.08h0Zm0-2.08h0Zm0-2.09h0Zm0-2.08h0Zm3,10.42h0Zm0-2.09h0Zm0-2.08h0Zm0-2.08h0Zm0-2.09h0Zm0-2.08h0Zm3,10.42h0Zm0-2.09h0Zm0-2.08h0Zm0-2.08h0Zm0-2.09h0Zm0-2.08h0Zm3,10.42h0Zm0-2.09h0Zm0-2.08h0Zm0-2.08h0Zm0-2.09h0Zm0-2.08h0Zm3,10.42h0Zm0-2.09h0Zm0-2.08h0Zm0-2.08h0Zm0-2.09h0Zm0-2.08h0Zm3,10.42h0Zm0-2.09h0Zm0-2.08h0Zm0-2.08h0Zm0-2.09h0Zm0-2.08h0Z"/><rect class="cls-2" x="0.5" y="15.5" width="25" height="15"/><polygon class="cls-3" points="25.5 27.49 25.5 30.5 22.49 30.5 25.5 27.49"/><polygon class="cls-3" points="25.5 25.46 25.5 30.5 20.46 30.5 25.5 25.46"/><polygon class="cls-3" points="25.5 23.43 25.5 30.5 18.43 30.5 25.5 23.43"/><polygon class="cls-3" points="25.5 21.4 25.5 30.5 16.4 30.5 25.5 21.4"/><polygon class="cls-3" points="25.5 19.37 25.5 30.5 14.37 30.5 25.5 19.37"/><polygon class="cls-3" points="25.5 17.34 25.5 30.5 12.34 30.5 25.5 17.34"/><polygon class="cls-3" points="25.5 15.5 25.5 30.5 10.31 30.5 25.31 15.5 25.5 15.5"/><polygon class="cls-3" points="25.5 15.5 25.5 30.5 8.29 30.5 23.29 15.5 25.5 15.5"/><polygon class="cls-3" points="25.5 15.5 25.5 30.5 6.25 30.5 21.25 15.5 25.5 15.5"/><polygon class="cls-3" points="25.5 15.5 25.5 30.5 4.23 30.5 19.23 15.5 25.5 15.5"/><polygon class="cls-3" points="25.5 15.5 25.5 30.5 2.2 30.5 17.2 15.5 25.5 15.5"/><polygon class="cls-3" points="25.5 15.5 25.5 30.5 0.5 30.5 0.5 30.17 15.17 15.5 25.5 15.5"/><polygon class="cls-3" points="25.5 15.5 25.5 30.5 0.5 30.5 0.5 28.14 13.14 15.5 25.5 15.5"/><polygon class="cls-3" points="25.5 15.5 25.5 30.5 0.5 30.5 0.5 26.11 11.11 15.5 25.5 15.5"/><polygon class="cls-3" points="25.5 15.5 25.5 30.5 0.5 30.5 0.5 24.08 9.08 15.5 25.5 15.5"/><polygon class="cls-3" points="25.5 15.5 25.5 30.5 0.5 30.5 0.5 22.05 7.05 15.5 25.5 15.5"/><polygon class="cls-3" points="25.5 15.5 25.5 30.5 0.5 30.5 0.5 20.02 5.02 15.5 25.5 15.5"/><polygon class="cls-3" points="25.5 15.5 25.5 30.5 0.5 30.5 0.5 17.99 2.99 15.5 25.5 15.5"/><rect class="cls-2" x="25.5" y="0.5" width="25" height="15"/><polygon class="cls-3" points="28.58 15.5 25.5 15.5 25.5 12.42 28.58 15.5"/><polygon class="cls-3" points="30.75 15.5 25.5 15.5 25.5 10.25 30.75 15.5"/><polygon class="cls-3" points="32.91 15.5 25.5 15.5 25.5 8.09 32.91 15.5"/><polygon class="cls-3" points="35.08 15.5 25.5 15.5 25.5 5.92 35.08 15.5"/><polygon class="cls-3" points="37.25 15.5 25.5 15.5 25.5 3.75 37.25 15.5"/><polygon class="cls-3" points="25.5 15.5 25.5 1.59 39.41 15.5 25.5 15.5"/><polygon class="cls-3" points="41.58 15.5 25.5 15.5 25.5 0.5 26.58 0.5 41.58 15.5"/><polygon class="cls-3" points="43.75 15.5 25.5 15.5 25.5 0.5 28.75 0.5 43.75 15.5"/><polygon class="cls-3" points="25.5 15.5 25.5 0.5 30.91 0.5 45.91 15.5 25.5 15.5"/><polygon class="cls-3" points="48.08 15.5 25.5 15.5 25.5 0.5 33.08 0.5 48.08 15.5"/><polygon class="cls-3" points="50.25 15.5 25.5 15.5 25.5 0.5 35.25 0.5 50.25 15.5"/><polygon class="cls-3" points="25.5 15.5 25.5 0.5 37.41 0.5 50.5 13.59 50.5 15.5 25.5 15.5"/><polygon class="cls-3" points="50.5 11.42 50.5 15.5 25.5 15.5 25.5 0.5 39.58 0.5 50.5 11.42"/><polygon class="cls-3" points="50.5 9.25 50.5 15.5 25.5 15.5 25.5 0.5 41.75 0.5 50.5 9.25"/><polygon class="cls-3" points="25.5 15.5 25.5 0.5 43.91 0.5 50.5 7.09 50.5 15.5 25.5 15.5"/><polygon class="cls-3" points="50.5 4.92 50.5 15.5 25.5 15.5 25.5 0.5 46.08 0.5 50.5 4.92"/><polygon class="cls-3" points="50.5 2.75 50.5 15.5 25.5 15.5 25.5 0.5 48.25 0.5 50.5 2.75"/><rect class="cls-2" x="25.5" y="30.5" width="25" height="15"/><polygon class="cls-3" points="29 45.5 25.5 45.5 25.5 42 29 45.5"/><polygon class="cls-3" points="30.97 45.5 25.5 45.5 25.5 40.03 25.97 40.5 27.05 41.58 30.28 44.81 30.97 45.5"/><polygon class="cls-3" points="32.94 45.5 25.5 45.5 25.5 38.06 25.88 38.44 26.96 39.52 28.03 40.59 29.11 41.67 30.19 42.75 31.27 43.83 32.35 44.91 32.94 45.5"/><polygon class="cls-3" points="34.91 45.5 25.5 45.5 25.5 36.09 25.78 36.37 26.86 37.45 27.94 38.53 29.02 39.61 30.1 40.69 31.17 41.76 32.25 42.84 33.33 43.92 34.41 45 34.91 45.5"/><polygon class="cls-3" points="36.87 45.5 25.5 45.5 25.5 34.12 26.77 35.39 27.84 36.47 28.92 37.55 30 38.62 33.24 41.86 34.31 42.94 35.39 44.01 36.47 45.09 36.87 45.5"/><polygon class="cls-3" points="38.84 45.5 25.5 45.5 25.5 32.16 28.83 35.49 29.91 36.57 30.98 37.64 32.06 38.72 33.14 39.8 34.22 40.88 35.3 41.96 38.84 45.5"/><polygon class="cls-3" points="40.81 45.5 25.5 45.5 25.5 30.5 25.81 30.5 29.81 34.5 30.89 35.58 31.97 36.66 35.2 39.89 36.28 40.97 37.36 42.05 39.51 44.2 40.59 45.28 40.81 45.5"/><polygon class="cls-3" points="42.78 45.5 25.5 45.5 25.5 30.5 27.78 30.5 28.64 31.36 29.72 32.44 30.8 33.52 38.34 41.06 39.42 42.14 40.5 43.22 41.58 44.3 42.66 45.38 42.78 45.5"/><polygon class="cls-3" points="44.75 45.5 25.5 45.5 25.5 30.5 29.75 30.5 30.7 31.45 31.78 32.53 32.86 33.61 33.94 34.69 35.02 35.77 36.09 36.84 37.17 37.92 38.25 39 39.33 40.08 40.41 41.16 44.75 45.5"/><polygon class="cls-3" points="46.71 45.5 25.5 45.5 25.5 30.5 31.66 30.5 31.69 30.47 31.72 30.5 32.76 31.55 33.84 32.63 34.92 33.7 36 34.78 37.08 35.86 38.16 36.94 39.23 38.02 46.71 45.5"/><polygon class="cls-3" points="48.68 45.5 25.5 45.5 25.5 30.5 31.66 30.5 31.69 30.47 31.72 30.5 33.68 30.5 33.75 30.57 34.83 31.65 35.9 32.72 36.98 33.8 38.06 34.88 39.14 35.96 40.22 37.04 42.37 39.19 43.45 40.27 44.53 41.35 45.61 42.43 46.69 43.51 47.76 44.58 48.68 45.5"/><polygon class="cls-3" points="50.5 45.34 50.5 45.5 25.5 45.5 25.5 30.5 31.66 30.5 31.69 30.47 31.72 30.5 35.65 30.5 36.89 31.74 37.97 32.82 39.04 33.89 40.12 34.97 41.2 36.05 42.28 37.12 43.36 38.2 44.44 39.28 45.52 40.36 46.59 41.44 47.67 42.52 48.75 43.59 50.5 45.34"/><polygon class="cls-3" points="50.5 43.37 50.5 45.5 25.5 45.5 25.5 30.5 31.66 30.5 31.69 30.47 31.72 30.5 37.62 30.5 37.87 30.75 38.95 31.83 40.03 32.9 41.11 33.98 50.5 43.37"/><polygon class="cls-3" points="50.5 41.4 50.5 45.5 25.5 45.5 25.5 30.5 31.66 30.5 31.69 30.47 31.72 30.5 39.59 30.5 45.33 36.24 46.41 37.31 47.49 38.39 48.56 39.47 49.64 40.55 50.5 41.4"/><polygon class="cls-3" points="50.5 39.43 50.5 45.5 25.5 45.5 25.5 30.5 31.66 30.5 31.69 30.47 31.72 30.5 41.57 30.5 50.5 39.43"/><polygon class="cls-3" points="50.5 37.47 50.5 45.5 25.5 45.5 25.5 30.5 31.66 30.5 31.69 30.47 31.72 30.5 43.54 30.5 44.06 31.03 45.14 32.11 46.22 33.19 47.3 34.27 50.5 37.47"/><polygon class="cls-3" points="50.5 35.5 50.5 45.5 25.5 45.5 25.5 30.5 31.66 30.5 31.69 30.47 31.72 30.5 45.5 30.5 47.2 32.2 48.28 33.28 49.36 34.36 50.5 35.5"/><polygon class="cls-3" points="50.5 33.53 50.5 45.5 25.5 45.5 25.5 30.5 31.66 30.5 31.69 30.47 31.72 30.5 47.47 30.5 48.19 31.22 50.5 33.53"/><polygon class="cls-3" points="50.5 41.85 50.5 45.5 46.84 45.5 47.76 44.58 48.75 43.59 49.74 42.61 50.5 41.85"/><polygon class="cls-3" points="50.5 39.69 50.5 45.5 44.69 45.5 44.72 45.47 45.7 44.49 46.69 43.51 47.67 42.52 48.66 41.53 49.64 40.55 50.5 39.69"/><polygon class="cls-3" points="50.5 37.53 50.5 45.5 42.53 45.5 42.66 45.38 43.64 44.39 44.62 43.41 45.61 42.43 46.59 41.44 47.58 40.45 48.56 39.47 50.5 37.53"/><polygon class="cls-3" points="50.5 35.37 50.5 45.5 40.38 45.5 40.59 45.28 41.58 44.3 42.56 43.31 43.54 42.33 44.53 41.35 45.52 40.36 46.5 39.37 47.49 38.39 48.47 37.4 49.45 36.42 50.44 35.44 50.5 35.37"/><polygon class="cls-3" points="50.5 33.21 50.5 45.5 38.22 45.5 38.53 45.19 39.51 44.2 40.5 43.22 41.48 42.23 42.46 41.25 43.45 40.27 44.44 39.28 45.42 38.29 46.41 37.31 47.39 36.32 48.37 35.34 49.36 34.36 50.34 33.37 50.5 33.21"/><polygon class="cls-3" points="50.5 31.07 50.5 45.5 36.06 45.5 36.47 45.09 37.45 44.11 38.44 43.13 39.42 42.14 40.41 41.16 41.39 40.18 42.37 39.19 43.36 38.2 44.35 37.22 45.33 36.24 46.32 35.25 47.3 34.27 48.28 33.28 49.27 32.3 50.5 31.07"/><polygon class="cls-3" points="50.5 30.5 50.5 45.5 33.9 45.5 34.41 45 35.39 44.01 36.37 43.03 37.36 42.05 38.34 41.06 39.33 40.08 40.31 39.1 41.29 38.11 42.28 37.12 43.27 36.14 44.25 35.16 46.22 33.19 47.2 32.2 48.19 31.22 48.91 30.5 50.5 30.5"/><polygon class="cls-3" points="50.5 30.5 50.5 45.5 31.75 45.5 32.35 44.91 33.33 43.92 34.31 42.94 35.3 41.96 36.28 40.97 37.27 39.99 38.25 39 39.23 38.02 40.22 37.04 41.2 36.05 42.19 35.06 43.17 34.08 44.16 33.09 45.14 32.11 46.13 31.13 46.75 30.5 50.5 30.5"/><polygon class="cls-3" points="50.5 30.5 50.5 45.5 29.6 45.5 30.28 44.81 31.27 43.83 32.25 42.84 33.24 41.86 34.22 40.88 35.2 39.89 36.19 38.91 37.17 37.92 38.16 36.94 39.14 35.96 40.12 34.97 41.11 33.98 42.09 33 43.08 32.01 44.06 31.03 44.59 30.5 50.5 30.5"/><polygon class="cls-3" points="50.5 30.5 50.5 45.5 27.44 45.5 28.22 44.72 29.2 43.73 30.19 42.75 31.17 41.76 32.16 40.78 33.14 39.8 34.12 38.81 35.11 37.83 36.09 36.84 37.08 35.86 38.06 34.88 39.04 33.89 42.43 30.5 50.5 30.5"/><polygon class="cls-3" points="50.5 30.5 50.5 45.5 25.5 45.5 25.5 45.28 27.14 43.64 28.13 42.66 29.11 41.67 30.1 40.69 31.08 39.7 32.06 38.72 33.05 37.74 34.03 36.75 35.02 35.77 36 34.78 36.98 33.8 37.97 32.82 38.95 31.83 39.94 30.85 40.29 30.5 50.5 30.5"/><polygon class="cls-3" points="50.5 30.5 50.5 45.5 25.5 45.5 25.5 43.12 26.06 42.56 27.05 41.58 28.03 40.59 29.02 39.61 30 38.62 30.98 37.64 31.97 36.66 32.95 35.67 33.94 34.69 34.92 33.7 35.9 32.72 36.89 31.74 37.87 30.75 38.13 30.5 50.5 30.5"/><polygon class="cls-3" points="50.5 30.5 50.5 45.5 25.5 45.5 25.5 40.97 25.97 40.5 26.96 39.52 27.94 38.53 28.92 37.55 29.91 36.57 30.89 35.58 31.88 34.6 32.86 33.61 33.84 32.63 34.83 31.65 35.81 30.66 35.97 30.5 50.5 30.5"/><polygon class="cls-3" points="50.5 30.5 50.5 45.5 25.5 45.5 25.5 38.81 25.88 38.44 26.86 37.45 27.84 36.47 28.83 35.49 29.81 34.5 30.8 33.52 31.78 32.53 32.76 31.55 33.75 30.57 33.81 30.5 50.5 30.5"/><polygon class="cls-3" points="50.5 30.5 50.5 45.5 25.5 45.5 25.5 36.66 25.78 36.37 26.77 35.39 27.75 34.41 28.73 33.42 29.72 32.44 30.7 31.45 31.66 30.5 31.69 30.47 31.72 30.5 50.5 30.5"/><polygon class="cls-3" points="50.5 30.5 50.5 45.5 25.5 45.5 25.5 34.5 25.69 34.31 26.67 33.33 27.66 32.35 28.64 31.36 29.5 30.5 31.66 30.5 31.69 30.47 31.72 30.5 50.5 30.5"/><rect class="cls-2" x="25.5" y="15.5" width="25" height="15"/><rect class="cls-3" x="25.5" y="15.5" width="23.33" height="15"/><rect class="cls-3" x="25.5" y="15.5" width="22.33" height="15"/><rect class="cls-3" x="25.5" y="15.5" width="21.33" height="15"/><rect class="cls-3" x="25.5" y="15.5" width="20.33" height="15"/><rect class="cls-3" x="25.5" y="15.5" width="19.33" height="15"/><rect class="cls-3" x="25.5" y="15.5" width="18.33" height="15"/><rect class="cls-3" x="25.5" y="15.5" width="17.33" height="15"/><rect class="cls-3" x="25.5" y="15.5" width="16.33" height="15"/><rect class="cls-3" x="25.5" y="15.5" width="15.33" height="15"/><rect class="cls-3" x="25.5" y="15.5" width="14.33" height="15"/><rect class="cls-3" x="25.5" y="15.5" width="13.33" height="15"/><rect class="cls-3" x="25.5" y="15.5" width="12.33" height="15"/><rect class="cls-3" x="25.5" y="15.5" width="11.33" height="15"/><rect class="cls-3" x="25.5" y="15.5" width="10.33" height="15"/><rect class="cls-3" x="25.5" y="15.5" width="9.33" height="15"/><rect class="cls-3" x="25.5" y="15.5" width="8.33" height="15"/><rect class="cls-3" x="25.5" y="15.5" width="7.33" height="15"/><rect class="cls-3" x="25.5" y="15.5" width="6.33" height="15"/><rect class="cls-3" x="25.5" y="15.5" width="5.33" height="15"/><rect class="cls-3" x="25.5" y="15.5" width="4.33" height="15"/><rect class="cls-3" x="25.5" y="15.5" width="3.33" height="15"/><rect class="cls-3" x="25.5" y="15.5" width="2.33" height="15"/><rect class="cls-3" x="25.5" y="15.5" width="1.33" height="15"/><rect class="cls-3" x="25.5" y="29.12" width="25" height="1.38"/><rect class="cls-3" x="25.5" y="28.12" width="25" height="2.38"/><rect class="cls-3" x="25.5" y="27.12" width="25" height="3.38"/><rect class="cls-3" x="25.5" y="26.12" width="25" height="4.38"/><rect class="cls-3" x="25.5" y="25.12" width="25" height="5.38"/><rect class="cls-3" x="25.5" y="24.12" width="25" height="6.38"/><rect class="cls-3" x="25.5" y="23.12" width="25" height="7.38"/><rect class="cls-3" x="25.5" y="22.12" width="25" height="8.38"/><rect class="cls-3" x="25.5" y="21.12" width="25" height="9.38"/><rect class="cls-3" x="25.5" y="20.12" width="25" height="10.38"/><rect class="cls-3" x="25.5" y="19.12" width="25" height="11.38"/><rect class="cls-3" x="25.5" y="18.12" width="25" height="12.38"/><rect class="cls-3" x="25.5" y="17.12" width="25" height="13.38"/></g></g></svg>