<svg xmlns="http://www.w3.org/2000/svg" viewBox="0 0 51 91"><defs><style>.cls-1,.cls-2,.cls-3,.cls-4{stroke:#000;stroke-miterlimit:10;}.cls-2,.cls-4{fill:none;}.cls-3{fill:#fff;}.cls-4{stroke-width:0.25px;}</style></defs><title>Artboard5</title><g id="Layer_2" data-name="Layer 2"><g id="Layer_1-2" data-name="Layer 1"><rect class="cls-1" x="0.5" y="75.5" width="50" height="15"/><rect class="cls-2" x="0.5" y="15.5" width="50" height="15"/><line class="cls-2" x1="2.41" y1="17.72" x2="3.41" y2="17.72"/><line class="cls-2" x1="5.41" y1="17.72" x2="6.41" y2="17.72"/><line class="cls-2" x1="8.41" y1="17.72" x2="9.41" y2="17.72"/><line class="cls-2" x1="11.41" y1="17.72" x2="12.41" y2="17.72"/><line class="cls-2" x1="14.41" y1="17.72" x2="15.41" y2="17.72"/><line class="cls-2" x1="17.41" y1="17.72" x2="18.41" y2="17.72"/><line class="cls-2" x1="20.41" y1="17.72" x2="21.41" y2="17.72"/><line class="cls-2" x1="23.41" y1="17.72" x2="24.41" y2="17.72"/><line class="cls-2" x1="26.41" y1="17.72" x2="27.41" y2="17.72"/><line class="cls-2" x1="29.41" y1="17.72" x2="30.41" y2="17.72"/><line class="cls-2" x1="32.41" y1="17.72" x2="33.41" y2="17.72"/><line class="cls-2" x1="35.41" y1="17.72" x2="36.41" y2="17.72"/><line class="cls-2" x1="38.41" y1="17.72" x2="39.41" y2="17.72"/><line class="cls-2" x1="41.41" y1="17.72" x2="42.41" y2="17.72"/><line class="cls-2" x1="44.41" y1="17.72" x2="45.41" y2="17.72"/><line class="cls-2" x1="47.41" y1="17.72" x2="48.41" y2="17.72"/><line class="cls-2" x1="2.41" y1="19.8" x2="3.41" y2="19.8"/><line class="cls-2" x1="5.41" y1="19.8" x2="6.41" y2="19.8"/><line class="cls-2" x1="8.41" y1="19.8" x2="9.41" y2="19.8"/><line class="cls-2" x1="11.41" y1="19.8" x2="12.41" y2="19.8"/><line class="cls-2" x1="14.41" y1="19.8" x2="15.41" y2="19.8"/><line class="cls-2" x1="17.41" y1="19.8" x2="18.41" y2="19.8"/><line class="cls-2" x1="20.41" y1="19.8" x2="21.41" y2="19.8"/><line class="cls-2" x1="23.41" y1="19.8" x2="24.41" y2="19.8"/><line class="cls-2" x1="26.41" y1="19.8" x2="27.41" y2="19.8"/><line class="cls-2" x1="29.41" y1="19.8" x2="30.41" y2="19.8"/><line class="cls-2" x1="32.41" y1="19.8" x2="33.41" y2="19.8"/><line class="cls-2" x1="35.41" y1="19.8" x2="36.41" y2="19.8"/><line class="cls-2" x1="38.41" y1="19.8" x2="39.41" y2="19.8"/><line class="cls-2" x1="41.41" y1="19.8" x2="42.41" y2="19.8"/><line class="cls-2" x1="44.41" y1="19.8" x2="45.41" y2="19.8"/><line class="cls-2" x1="47.41" y1="19.8" x2="48.41" y2="19.8"/><line class="cls-2" x1="2.41" y1="21.89" x2="3.41" y2="21.89"/><line class="cls-2" x1="5.41" y1="21.89" x2="6.41" y2="21.89"/><line class="cls-2" x1="8.41" y1="21.89" x2="9.41" y2="21.89"/><line class="cls-2" x1="11.41" y1="21.89" x2="12.41" y2="21.89"/><line class="cls-2" x1="14.41" y1="21.89" x2="15.41" y2="21.89"/><line class="cls-2" x1="17.41" y1="21.89" x2="18.41" y2="21.89"/><line class="cls-2" x1="20.41" y1="21.89" x2="21.41" y2="21.89"/><line class="cls-2" x1="23.41" y1="21.89" x2="24.41" y2="21.89"/><line class="cls-2" x1="26.41" y1="21.89" x2="27.41" y2="21.89"/><line class="cls-2" x1="29.41" y1="21.89" x2="30.41" y2="21.89"/><line class="cls-2" x1="32.41" y1="21.89" x2="33.41" y2="21.89"/><line class="cls-2" x1="35.41" y1="21.89" x2="36.41" y2="21.89"/><line class="cls-2" x1="38.41" y1="21.89" x2="39.41" y2="21.89"/><line class="cls-2" x1="41.41" y1="21.89" x2="42.41" y2="21.89"/><line class="cls-2" x1="44.41" y1="21.89" x2="45.41" y2="21.89"/><line class="cls-2" x1="47.41" y1="21.89" x2="48.41" y2="21.89"/><line class="cls-2" x1="2.41" y1="23.97" x2="3.41" y2="23.97"/><line class="cls-2" x1="5.41" y1="23.97" x2="6.41" y2="23.97"/><line class="cls-2" x1="8.41" y1="23.97" x2="9.41" y2="23.97"/><line class="cls-2" x1="11.41" y1="23.97" x2="12.41" y2="23.97"/><line class="cls-2" x1="14.41" y1="23.97" x2="15.41" y2="23.97"/><line class="cls-2" x1="17.41" y1="23.97" x2="18.41" y2="23.97"/><line class="cls-2" x1="20.41" y1="23.97" x2="21.41" y2="23.97"/><line class="cls-2" x1="23.41" y1="23.97" x2="24.41" y2="23.97"/><line class="cls-2" x1="26.41" y1="23.97" x2="27.41" y2="23.97"/><line class="cls-2" x1="29.41" y1="23.97" x2="30.41" y2="23.97"/><line class="cls-2" x1="32.41" y1="23.97" x2="33.41" y2="23.97"/><line class="cls-2" x1="35.41" y1="23.97" x2="36.41" y2="23.97"/><line class="cls-2" x1="38.41" y1="23.97" x2="39.41" y2="23.97"/><line class="cls-2" x1="41.41" y1="23.97" x2="42.41" y2="23.97"/><line class="cls-2" x1="44.41" y1="23.97" x2="45.41" y2="23.97"/><line class="cls-2" x1="47.41" y1="23.97" x2="48.41" y2="23.97"/><line class="cls-2" x1="2.41" y1="26.05" x2="3.41" y2="26.05"/><line class="cls-2" x1="5.41" y1="26.05" x2="6.41" y2="26.05"/><line class="cls-2" x1="8.41" y1="26.05" x2="9.41" y2="26.05"/><line class="cls-2" x1="11.41" y1="26.05" x2="12.41" y2="26.05"/><line class="cls-2" x1="14.41" y1="26.05" x2="15.41" y2="26.05"/><line class="cls-2" x1="17.41" y1="26.05" x2="18.41" y2="26.05"/><line class="cls-2" x1="20.41" y1="26.05" x2="21.41" y2="26.05"/><line class="cls-2" x1="23.41" y1="26.05" x2="24.41" y2="26.05"/><line class="cls-2" x1="26.41" y1="26.05" x2="27.41" y2="26.05"/><line class="cls-2" x1="29.41" y1="26.05" x2="30.41" y2="26.05"/><line class="cls-2" x1="32.41" y1="26.05" x2="33.41" y2="26.05"/><line class="cls-2" x1="35.41" y1="26.05" x2="36.41" y2="26.05"/><line class="cls-2" x1="38.41" y1="26.05" x2="39.41" y2="26.05"/><line class="cls-2" x1="41.41" y1="26.05" x2="42.41" y2="26.05"/><line class="cls-2" x1="44.41" y1="26.05" x2="45.41" y2="26.05"/><line class="cls-2" x1="47.41" y1="26.05" x2="48.41" y2="26.05"/><line class="cls-2" x1="2.41" y1="28.14" x2="3.41" y2="28.14"/><line class="cls-2" x1="5.41" y1="28.14" x2="6.41" y2="28.14"/><line class="cls-2" x1="8.41" y1="28.14" x2="9.41" y2="28.14"/><line class="cls-2" x1="11.41" y1="28.14" x2="12.41" y2="28.14"/><line class="cls-2" x1="14.41" y1="28.14" x2="15.41" y2="28.14"/><line class="cls-2" x1="17.41" y1="28.14" x2="18.41" y2="28.14"/><line class="cls-2" x1="20.41" y1="28.14" x2="21.41" y2="28.14"/><line class="cls-2" x1="23.41" y1="28.14" x2="24.41" y2="28.14"/><line class="cls-2" x1="26.41" y1="28.14" x2="27.41" y2="28.14"/><line class="cls-2" x1="29.41" y1="28.14" x2="30.41" y2="28.14"/><line class="cls-2" x1="32.41" y1="28.14" x2="33.41" y2="28.14"/><line class="cls-2" x1="35.41" y1="28.14" x2="36.41" y2="28.14"/><line class="cls-2" x1="38.41" y1="28.14" x2="39.41" y2="28.14"/><line class="cls-2" x1="41.41" y1="28.14" x2="42.41" y2="28.14"/><line class="cls-2" x1="44.41" y1="28.14" x2="45.41" y2="28.14"/><line class="cls-2" x1="47.41" y1="28.14" x2="48.41" y2="28.14"/><rect class="cls-3" x="0.5" y="45.5" width="50" height="15"/><polygon class="cls-4" points="47.52 60.5 50.5 57.52 50.5 60.5 47.52 60.5"/><polygon class="cls-4" points="45.99 60.5 50.5 55.99 50.5 60.5 45.99 60.5"/><polygon class="cls-4" points="50.5 54.46 50.5 60.5 44.46 60.5 50.5 54.46"/><polygon class="cls-4" points="42.94 60.5 50.5 52.94 50.5 60.5 42.94 60.5"/><polygon class="cls-4" points="41.41 60.5 50.5 51.41 50.5 60.5 41.41 60.5"/><polygon class="cls-4" points="39.88 60.5 50.5 49.88 50.5 60.5 39.88 60.5"/><polygon class="cls-4" points="38.35 60.5 50.5 48.35 50.5 60.5 38.35 60.5"/><polygon class="cls-4" points="36.83 60.5 50.5 46.83 50.5 60.5 36.83 60.5"/><polygon class="cls-4" points="50.3 45.5 50.5 45.5 50.5 60.5 35.3 60.5 50.3 45.5"/><polygon class="cls-4" points="50.5 45.5 50.5 60.5 33.77 60.5 48.77 45.5 50.5 45.5"/><polygon class="cls-4" points="50.5 45.5 50.5 60.5 32.24 60.5 47.24 45.5 50.5 45.5"/><polygon class="cls-4" points="50.5 45.5 50.5 60.5 30.72 60.5 45.72 45.5 50.5 45.5"/><polygon class="cls-4" points="50.5 45.5 50.5 60.5 29.19 60.5 44.19 45.5 50.5 45.5"/><polygon class="cls-4" points="50.5 45.5 50.5 60.5 27.66 60.5 42.66 45.5 50.5 45.5"/><polygon class="cls-4" points="50.5 45.5 50.5 60.5 26.13 60.5 41.13 45.5 50.5 45.5"/><polygon class="cls-4" points="50.5 45.5 50.5 60.5 24.61 60.5 39.61 45.5 50.5 45.5"/><polygon class="cls-4" points="50.5 45.5 50.5 60.5 23.08 60.5 38.08 45.5 50.5 45.5"/><polygon class="cls-4" points="50.5 45.5 50.5 60.5 21.55 60.5 36.55 45.5 50.5 45.5"/><polygon class="cls-4" points="50.5 45.5 50.5 60.5 20.02 60.5 35.02 45.5 50.5 45.5"/><polygon class="cls-4" points="50.5 45.5 50.5 60.5 18.5 60.5 33.5 45.5 50.5 45.5"/><polygon class="cls-4" points="50.5 45.5 50.5 60.5 16.97 60.5 31.97 45.5 50.5 45.5"/><polygon class="cls-4" points="50.5 45.5 50.5 60.5 15.44 60.5 30.44 45.5 50.5 45.5"/><polygon class="cls-4" points="50.5 45.5 50.5 60.5 13.91 60.5 28.91 45.5 50.5 45.5"/><polygon class="cls-4" points="50.5 45.5 50.5 60.5 12.39 60.5 27.39 45.5 50.5 45.5"/><polygon class="cls-4" points="50.5 45.5 50.5 60.5 10.86 60.5 25.86 45.5 50.5 45.5"/><polygon class="cls-4" points="50.5 45.5 50.5 60.5 9.33 60.5 24.33 45.5 50.5 45.5"/><polygon class="cls-4" points="50.5 45.5 50.5 60.5 7.8 60.5 22.8 45.5 50.5 45.5"/><polygon class="cls-4" points="50.5 45.5 50.5 60.5 6.28 60.5 21.28 45.5 50.5 45.5"/><polygon class="cls-4" points="50.5 45.5 50.5 60.5 4.75 60.5 19.75 45.5 50.5 45.5"/><polygon class="cls-4" points="50.5 45.5 50.5 60.5 3.22 60.5 18.22 45.5 50.5 45.5"/><polygon class="cls-4" points="50.5 45.5 50.5 60.5 1.69 60.5 16.69 45.5 50.5 45.5"/><polygon class="cls-4" points="50.5 45.5 50.5 60.5 0.5 60.5 0.5 60.17 15.17 45.5 50.5 45.5"/><polygon class="cls-4" points="50.5 45.5 50.5 60.5 0.5 60.5 0.5 58.64 13.64 45.5 50.5 45.5"/><polygon class="cls-4" points="50.5 45.5 50.5 60.5 0.5 60.5 0.5 57.11 12.11 45.5 50.5 45.5"/><polygon class="cls-4" points="50.5 45.5 50.5 60.5 0.5 60.5 0.5 55.59 10.59 45.5 50.5 45.5"/><polygon class="cls-4" points="50.5 45.5 50.5 60.5 0.5 60.5 0.5 54.06 9.06 45.5 50.5 45.5"/><polygon class="cls-4" points="50.5 45.5 50.5 60.5 0.5 60.5 0.5 52.53 7.53 45.5 50.5 45.5"/><polygon class="cls-4" points="50.5 45.5 50.5 60.5 0.5 60.5 0.5 51 6 45.5 50.5 45.5"/><polygon class="cls-4" points="50.5 45.5 50.5 60.5 0.5 60.5 0.5 49.48 4.48 45.5 50.5 45.5"/><polygon class="cls-4" points="50.5 45.5 50.5 60.5 0.5 60.5 0.5 47.95 2.95 45.5 50.5 45.5"/><rect class="cls-3" x="0.5" y="60.5" width="50" height="15"/><polygon class="cls-4" points="3.39 75.5 0.5 75.5 0.5 72.61 3.39 75.5"/><polygon class="cls-4" points="5.42 75.5 0.5 75.5 0.5 70.58 5.42 75.5"/><polygon class="cls-4" points="7.44 75.5 0.5 75.5 0.5 68.56 7.44 75.5"/><polygon class="cls-4" points="9.46 75.5 0.5 75.5 0.5 66.54 9.46 75.5"/><polygon class="cls-4" points="0.5 75.5 0.5 64.51 11.49 75.5 0.5 75.5"/><polygon class="cls-4" points="0.5 75.5 0.5 62.49 13.51 75.5 0.5 75.5"/><polygon class="cls-4" points="15.54 75.5 0.5 75.5 0.5 60.5 0.54 60.5 15.54 75.5"/><polygon class="cls-4" points="17.56 75.5 0.5 75.5 0.5 60.5 2.56 60.5 17.56 75.5"/><polygon class="cls-4" points="19.58 75.5 0.5 75.5 0.5 60.5 4.58 60.5 19.58 75.5"/><polygon class="cls-4" points="21.6 75.5 0.5 75.5 0.5 60.5 6.6 60.5 21.6 75.5"/><polygon class="cls-4" points="0.5 75.5 0.5 60.5 8.63 60.5 23.63 75.5 0.5 75.5"/><polygon class="cls-4" points="25.65 75.5 0.5 75.5 0.5 60.5 10.65 60.5 25.65 75.5"/><polygon class="cls-4" points="27.68 75.5 0.5 75.5 0.5 60.5 12.68 60.5 27.68 75.5"/><polygon class="cls-4" points="29.7 75.5 0.5 75.5 0.5 60.5 14.7 60.5 29.7 75.5"/><polygon class="cls-4" points="31.72 75.5 0.5 75.5 0.5 60.5 16.72 60.5 31.72 75.5"/><polygon class="cls-4" points="0.5 75.5 0.5 60.5 18.75 60.5 33.75 75.5 0.5 75.5"/><polygon class="cls-4" points="0.5 75.5 0.5 60.5 20.77 60.5 35.77 75.5 0.5 75.5"/><polygon class="cls-4" points="37.8 75.5 0.5 75.5 0.5 60.5 22.8 60.5 37.8 75.5"/><polygon class="cls-4" points="39.82 75.5 0.5 75.5 0.5 60.5 24.82 60.5 39.82 75.5"/><polygon class="cls-4" points="41.84 75.5 0.5 75.5 0.5 60.5 26.84 60.5 41.84 75.5"/><polygon class="cls-4" points="43.86 75.5 0.5 75.5 0.5 60.5 28.86 60.5 43.86 75.5"/><polygon class="cls-4" points="0.5 75.5 0.5 60.5 30.89 60.5 45.89 75.5 0.5 75.5"/><polygon class="cls-4" points="47.91 75.5 0.5 75.5 0.5 60.5 32.91 60.5 47.91 75.5"/><polygon class="cls-4" points="49.94 75.5 0.5 75.5 0.5 60.5 34.94 60.5 49.94 75.5"/><polygon class="cls-4" points="50.5 74.04 50.5 75.5 0.5 75.5 0.5 60.5 36.96 60.5 50.5 74.04"/><polygon class="cls-4" points="50.5 72.02 50.5 75.5 0.5 75.5 0.5 60.5 38.98 60.5 50.5 72.02"/><polygon class="cls-4" points="0.5 75.5 0.5 60.5 41.01 60.5 50.5 69.99 50.5 75.5 0.5 75.5"/><polygon class="cls-4" points="0.5 75.5 0.5 60.5 43.03 60.5 50.5 67.97 50.5 75.5 0.5 75.5"/><polygon class="cls-4" points="50.5 65.94 50.5 75.5 0.5 75.5 0.5 60.5 45.06 60.5 50.5 65.94"/><polygon class="cls-4" points="50.5 63.92 50.5 75.5 0.5 75.5 0.5 60.5 47.08 60.5 50.5 63.92"/><rect class="cls-3" x="0.5" y="30.5" width="50" height="15"/><rect class="cls-4" x="0.5" y="30.5" width="1.25" height="15"/><rect class="cls-4" x="0.5" y="30.5" width="2.12" height="15"/><rect class="cls-4" x="0.5" y="30.5" width="3" height="15"/><rect class="cls-4" x="0.5" y="30.5" width="3.88" height="15"/><rect class="cls-4" x="0.5" y="30.5" width="4.75" height="15"/><rect class="cls-4" x="0.5" y="30.5" width="5.62" height="15"/><rect class="cls-4" x="0.5" y="30.5" width="6.5" height="15"/><rect class="cls-4" x="0.5" y="30.5" width="7.38" height="15"/><rect class="cls-4" x="0.5" y="30.5" width="8.25" height="15"/><rect class="cls-4" x="0.5" y="30.5" width="9.12" height="15"/><rect class="cls-4" x="0.5" y="30.5" width="10" height="15"/><rect class="cls-4" x="0.5" y="30.5" width="10.88" height="15"/><rect class="cls-4" x="0.5" y="30.5" width="11.75" height="15"/><rect class="cls-4" x="0.5" y="30.5" width="12.62" height="15"/><rect class="cls-4" x="0.5" y="30.5" width="13.5" height="15"/><rect class="cls-4" x="0.5" y="30.5" width="14.38" height="15"/><rect class="cls-4" x="0.5" y="30.5" width="15.25" height="15"/><rect class="cls-4" x="0.5" y="30.5" width="16.12" height="15"/><rect class="cls-4" x="0.5" y="30.5" width="17" height="15"/><rect class="cls-4" x="0.5" y="30.5" width="17.88" height="15"/><rect class="cls-4" x="0.5" y="30.5" width="18.75" height="15"/><rect class="cls-4" x="0.5" y="30.5" width="19.62" height="15"/><rect class="cls-4" x="0.5" y="30.5" width="20.5" height="15"/><rect class="cls-4" x="0.5" y="30.5" width="21.38" height="15"/><rect class="cls-4" x="0.5" y="30.5" width="22.25" height="15"/><rect class="cls-4" x="0.5" y="30.5" width="23.12" height="15"/><rect class="cls-4" x="0.5" y="30.5" width="24" height="15"/><rect class="cls-4" x="0.5" y="30.5" width="24.88" height="15"/><rect class="cls-4" x="0.5" y="30.5" width="25.75" height="15"/><rect class="cls-4" x="0.5" y="30.5" width="26.62" height="15"/><rect class="cls-4" x="0.5" y="30.5" width="27.5" height="15"/><rect class="cls-4" x="0.5" y="30.5" width="28.38" height="15"/><rect class="cls-4" x="0.5" y="30.5" width="29.25" height="15"/><rect class="cls-4" x="0.5" y="30.5" width="30.12" height="15"/><rect class="cls-4" x="0.5" y="30.5" width="31" height="15"/><rect class="cls-4" x="0.5" y="30.5" width="31.88" height="15"/><rect class="cls-4" x="0.5" y="30.5" width="32.75" height="15"/><rect class="cls-4" x="0.5" y="30.5" width="33.62" height="15"/><rect class="cls-4" x="0.5" y="30.5" width="34.5" height="15"/><rect class="cls-4" x="0.5" y="30.5" width="35.38" height="15"/><rect class="cls-4" x="0.5" y="30.5" width="36.25" height="15"/><rect class="cls-4" x="0.5" y="30.5" width="37.12" height="15"/><rect class="cls-4" x="0.5" y="30.5" width="38" height="15"/><rect class="cls-4" x="0.5" y="30.5" width="38.88" height="15"/><rect class="cls-4" x="0.5" y="30.5" width="39.75" height="15"/><rect class="cls-4" x="0.5" y="30.5" width="40.62" height="15"/><rect class="cls-4" x="0.5" y="30.5" width="41.5" height="15"/><rect class="cls-4" x="0.5" y="30.5" width="42.38" height="15"/><rect class="cls-4" x="0.5" y="30.5" width="43.25" height="15"/><rect class="cls-4" x="0.5" y="30.5" width="44.12" height="15"/><rect class="cls-4" x="0.5" y="30.5" width="45" height="15"/><rect class="cls-4" x="0.5" y="30.5" width="45.88" height="15"/><rect class="cls-4" x="0.5" y="30.5" width="46.75" height="15"/><rect class="cls-4" x="0.5" y="30.5" width="47.62" height="15"/><rect class="cls-4" x="0.5" y="30.5" width="48.5" height="15"/><rect class="cls-4" x="0.5" y="44.12" width="50" height="1.38"/><rect class="cls-4" x="0.5" y="43.12" width="50" height="2.38"/><rect class="cls-4" x="0.5" y="42.12" width="50" height="3.38"/><rect class="cls-4" x="0.5" y="41.12" width="50" height="4.38"/><rect class="cls-4" x="0.5" y="40.12" width="50" height="5.38"/><rect class="cls-4" x="0.5" y="39.12" width="50" height="6.38"/><rect class="cls-4" x="0.5" y="38.12" width="50" height="7.38"/><rect class="cls-4" x="0.5" y="37.12" width="50" height="8.38"/><rect class="cls-4" x="0.5" y="36.12" width="50" height="9.38"/><rect class="cls-4" x="0.5" y="35.12" width="50" height="10.38"/><rect class="cls-4" x="0.5" y="34.12" width="50" height="11.38"/><rect class="cls-4" x="0.5" y="33.12" width="50" height="12.38"/><rect class="cls-4" x="0.5" y="32.12" width="50" height="13.38"/><rect class="cls-2" x="0.5" y="0.5" width="50" height="15"/><polygon class="cls-4" points="46.84 15.5 46.9 15.44 47.94 14.41 48.97 13.38 50 12.35 50.5 11.84 50.5 15.5 46.84 15.5"/><polygon class="cls-4" points="50.5 9.84 50.5 15.5 44.84 15.5 45.9 14.44 46.94 13.41 47.97 12.38 49 11.35 50.03 10.31 50.5 9.84"/><polygon class="cls-4" points="50.5 7.84 50.5 15.5 42.84 15.5 44.9 13.44 45.94 12.41 46.97 11.38 48 10.35 49.03 9.31 50.06 8.28 50.5 7.84"/><polygon class="cls-4" points="50.5 5.84 50.5 15.5 40.84 15.5 43.9 12.44 44.94 11.41 45.97 10.38 47 9.35 48.03 8.31 49.06 7.28 50.09 6.25 50.5 5.84"/><polygon class="cls-4" points="50.5 3.84 50.5 15.5 38.84 15.5 39.81 14.53 40.84 13.5 42.9 11.44 43.94 10.41 44.97 9.38 46 8.35 47.03 7.31 48.06 6.28 49.09 5.25 50.12 4.22 50.5 3.84"/><polygon class="cls-4" points="50.5 1.84 50.5 15.5 36.84 15.5 37.78 14.56 38.81 13.53 39.84 12.5 41.9 10.44 42.94 9.41 43.97 8.38 45 7.35 46.03 6.31 47.06 5.28 48.09 4.25 49.12 3.22 50.5 1.84"/><polygon class="cls-4" points="50.5 0.5 50.5 15.5 34.84 15.5 35.75 14.6 36.78 13.56 37.81 12.53 38.84 11.5 40.9 9.44 41.94 8.41 42.97 7.38 44 6.35 45.03 5.31 46.06 4.28 47.09 3.25 49.84 0.5 50.5 0.5"/><polygon class="cls-4" points="50.5 0.5 50.5 15.5 32.84 15.5 33.72 14.63 34.75 13.6 35.78 12.56 36.81 11.53 37.84 10.5 39.9 8.44 40.94 7.41 41.97 6.38 43 5.35 44.03 4.31 45.06 3.28 46.09 2.25 47.84 0.5 50.5 0.5"/><polygon class="cls-4" points="50.5 0.5 50.5 15.5 30.84 15.5 31.69 14.66 32.72 13.63 33.75 12.6 34.78 11.56 35.81 10.53 36.84 9.5 38.9 7.44 39.94 6.41 40.97 5.38 42 4.35 43.03 3.31 44.06 2.28 45.09 1.25 45.84 0.5 50.5 0.5"/><polygon class="cls-4" points="50.5 0.5 50.5 15.5 28.84 15.5 29.65 14.69 30.69 13.66 31.72 12.63 32.75 11.6 33.78 10.56 34.81 9.53 35.84 8.5 37.9 6.44 38.94 5.41 39.97 4.38 41 3.35 42.03 2.31 43.06 1.28 43.84 0.5 50.5 0.5"/><polygon class="cls-4" points="50.5 0.5 50.5 15.5 26.84 15.5 28.65 13.69 29.69 12.66 30.72 11.63 31.75 10.6 32.78 9.56 33.81 8.53 34.84 7.5 36.9 5.44 37.94 4.41 38.97 3.38 40 2.35 41.03 1.31 41.84 0.5 50.5 0.5"/><polygon class="cls-4" points="50.5 0.5 50.5 15.5 24.84 15.5 27.65 12.69 28.69 11.66 29.72 10.63 30.75 9.6 31.78 8.56 32.81 7.53 33.84 6.5 35.9 4.44 36.94 3.41 37.97 2.38 39 1.35 39.84 0.5 50.5 0.5"/><polygon class="cls-4" points="50.5 0.5 50.5 15.5 22.84 15.5 23.56 14.78 24.59 13.75 26.65 11.69 27.69 10.66 28.72 9.63 29.75 8.6 30.78 7.56 31.81 6.53 32.84 5.5 34.9 3.44 35.94 2.41 36.97 1.38 37.84 0.5 50.5 0.5"/><polygon class="cls-4" points="50.5 0.5 50.5 15.5 20.84 15.5 21.53 14.81 22.56 13.78 23.59 12.75 25.65 10.69 26.69 9.66 27.72 8.63 28.75 7.6 29.78 6.56 30.81 5.53 31.84 4.5 33.9 2.44 34.94 1.41 35.84 0.5 50.5 0.5"/><polygon class="cls-4" points="50.5 0.5 50.5 15.5 18.84 15.5 19.5 14.85 20.53 13.81 21.56 12.78 22.59 11.75 24.65 9.69 25.69 8.66 26.72 7.63 27.75 6.6 28.78 5.56 29.81 4.53 30.84 3.5 33.84 0.5 50.5 0.5"/><polygon class="cls-4" points="50.5 0.5 50.5 15.5 16.84 15.5 17.47 14.88 18.5 13.85 19.53 12.81 20.56 11.78 21.59 10.75 23.65 8.69 24.69 7.66 25.72 6.63 26.75 5.6 27.78 4.56 28.81 3.53 29.84 2.5 31.84 0.5 50.5 0.5"/><polygon class="cls-4" points="50.5 0.5 50.5 15.5 14.84 15.5 15.44 14.91 16.47 13.88 17.5 12.85 18.53 11.81 19.56 10.78 20.59 9.75 22.65 7.69 23.69 6.66 24.72 5.63 25.75 4.6 26.78 3.56 27.81 2.53 28.84 1.5 29.84 0.5 50.5 0.5"/><polygon class="cls-4" points="50.5 0.5 50.5 15.5 12.84 15.5 13.4 14.94 14.44 13.91 15.47 12.88 16.5 11.85 17.53 10.81 18.56 9.78 19.59 8.75 21.65 6.69 22.69 5.66 23.72 4.63 24.75 3.6 25.78 2.56 26.81 1.53 27.84 0.5 50.5 0.5"/><polygon class="cls-4" points="50.5 0.5 50.5 15.5 10.84 15.5 12.4 13.94 13.44 12.91 14.47 11.88 15.5 10.85 16.53 9.81 17.56 8.78 18.59 7.75 20.65 5.69 21.69 4.66 22.72 3.63 23.75 2.6 24.78 1.56 25.81 0.53 25.84 0.5 50.5 0.5"/><polygon class="cls-4" points="50.5 0.5 50.5 15.5 8.84 15.5 11.4 12.94 12.44 11.91 13.47 10.88 14.5 9.85 15.53 8.81 16.56 7.78 17.59 6.75 19.65 4.69 20.69 3.66 21.72 2.63 22.75 1.6 23.78 0.56 23.84 0.5 50.5 0.5"/><polygon class="cls-4" points="50.5 0.5 50.5 15.5 6.84 15.5 7.31 15.03 8.34 14 10.4 11.94 11.44 10.91 12.47 9.88 13.5 8.85 14.53 7.81 15.56 6.78 16.59 5.75 18.65 3.69 19.69 2.66 20.72 1.63 21.75 0.6 21.84 0.5 50.5 0.5"/><polygon class="cls-4" points="50.5 0.5 50.5 15.5 4.84 15.5 5.28 15.06 6.31 14.03 7.34 13 9.4 10.94 10.44 9.91 11.47 8.88 12.5 7.85 13.53 6.81 14.56 5.78 15.59 4.75 17.65 2.69 18.69 1.66 19.72 0.63 19.84 0.5 50.5 0.5"/><polygon class="cls-4" points="50.5 0.5 50.5 15.5 2.84 15.5 3.25 15.1 4.28 14.06 5.31 13.03 6.34 12 8.4 9.94 9.44 8.91 10.47 7.88 11.5 6.85 12.53 5.81 13.56 4.78 14.59 3.75 16.65 1.69 17.69 0.66 17.84 0.5 50.5 0.5"/><polygon class="cls-4" points="50.5 0.5 50.5 15.5 0.84 15.5 2.25 14.1 3.28 13.06 4.31 12.03 5.34 11 7.4 8.94 8.44 7.91 9.47 6.88 10.5 5.85 11.53 4.81 12.56 3.78 13.59 2.75 15.84 0.5 50.5 0.5"/><polygon class="cls-4" points="50.5 0.5 50.5 15.5 0.5 15.5 0.5 13.84 1.25 13.1 2.28 12.06 3.31 11.03 4.34 10 6.4 7.94 7.44 6.91 8.47 5.88 9.5 4.85 10.53 3.81 11.56 2.78 12.59 1.75 13.84 0.5 50.5 0.5"/><polygon class="cls-4" points="50.5 0.5 50.5 15.5 0.5 15.5 0.5 11.84 1.28 11.06 2.31 10.03 3.34 9 5.4 6.94 6.44 5.91 7.47 4.88 8.5 3.85 9.53 2.81 10.56 1.78 11.59 0.75 11.84 0.5 50.5 0.5"/><polygon class="cls-4" points="50.5 0.5 50.5 15.5 0.5 15.5 0.5 9.84 1.31 9.03 2.34 8 4.4 5.94 5.44 4.91 6.47 3.88 7.5 2.85 8.53 1.81 9.56 0.78 9.84 0.5 50.5 0.5"/><polygon class="cls-4" points="50.5 0.5 50.5 15.5 0.5 15.5 0.5 7.84 1.34 7 3.4 4.94 4.44 3.91 5.47 2.88 6.5 1.85 7.53 0.81 7.84 0.5 50.5 0.5"/><polygon class="cls-4" points="50.5 0.5 50.5 15.5 0.5 15.5 0.5 5.84 1.37 4.97 2.4 3.94 3.44 2.91 4.47 1.88 5.5 0.85 5.84 0.5 50.5 0.5"/><polygon class="cls-4" points="50.5 0.5 50.5 15.5 0.5 15.5 0.5 3.84 1.4 2.94 2.44 1.91 3.47 0.88 3.84 0.5 50.5 0.5"/><polygon class="cls-4" points="3.65 15.5 0.5 15.5 0.5 12.35 3.65 15.5"/><polygon class="cls-4" points="5.72 15.5 0.5 15.5 0.5 10.28 5.72 15.5"/><polygon class="cls-4" points="7.78 15.5 0.5 15.5 0.5 8.22 7.78 15.5"/><polygon class="cls-4" points="9.84 15.5 0.5 15.5 0.5 6.16 9.84 15.5"/><polygon class="cls-4" points="11.9 15.5 0.5 15.5 0.5 4.1 1.37 4.97 11.37 14.97 11.9 15.5"/><polygon class="cls-4" points="13.96 15.5 0.5 15.5 0.5 2.04 13.96 15.5"/><polygon class="cls-4" points="16.03 15.5 0.5 15.5 0.5 0.5 1.03 0.5 16.03 15.5"/><polygon class="cls-4" points="18.09 15.5 0.5 15.5 0.5 0.5 3.09 0.5 18.09 15.5"/><polygon class="cls-4" points="20.15 15.5 0.5 15.5 0.5 0.5 5.15 0.5 20.15 15.5"/><polygon class="cls-4" points="22.22 15.5 0.5 15.5 0.5 0.5 7.22 0.5 22.22 15.5"/><polygon class="cls-4" points="24.28 15.5 0.5 15.5 0.5 0.5 9.28 0.5 24.28 15.5"/><polygon class="cls-4" points="26.34 15.5 0.5 15.5 0.5 0.5 11.34 0.5 26.34 15.5"/><polygon class="cls-4" points="28.4 15.5 0.5 15.5 0.5 0.5 13.4 0.5 13.62 0.72 27.62 14.72 28.4 15.5"/><polygon class="cls-4" points="30.46 15.5 0.5 15.5 0.5 0.5 15.46 0.5 30.46 15.5"/><polygon class="cls-4" points="32.53 15.5 0.5 15.5 0.5 0.5 17.53 0.5 32.53 15.5"/><polygon class="cls-4" points="34.59 15.5 0.5 15.5 0.5 0.5 19.59 0.5 34.59 15.5"/><polygon class="cls-4" points="36.65 15.5 0.5 15.5 0.5 0.5 21.65 0.5 36.65 15.5"/><polygon class="cls-4" points="38.72 15.5 0.5 15.5 0.5 0.5 23.72 0.5 38.72 15.5"/><polygon class="cls-4" points="40.78 15.5 0.5 15.5 0.5 0.5 25.78 0.5 40.78 15.5"/><polygon class="cls-4" points="42.84 15.5 0.5 15.5 0.5 0.5 27.84 0.5 42.84 15.5"/><polygon class="cls-4" points="44.9 15.5 0.5 15.5 0.5 0.5 29.9 0.5 30.87 1.47 44.87 15.47 44.9 15.5"/><polygon class="cls-4" points="46.96 15.5 0.5 15.5 0.5 0.5 31.96 0.5 46.96 15.5"/><polygon class="cls-4" points="49.03 15.5 0.5 15.5 0.5 0.5 34.03 0.5 49.03 15.5"/><polygon class="cls-4" points="50.5 14.91 50.5 15.5 0.5 15.5 0.5 0.5 36.09 0.5 50.5 14.91"/><polygon class="cls-4" points="50.5 12.85 50.5 15.5 0.5 15.5 0.5 0.5 38.15 0.5 50.5 12.85"/><polygon class="cls-4" points="50.5 10.78 50.5 15.5 0.5 15.5 0.5 0.5 40.22 0.5 50.5 10.78"/><polygon class="cls-4" points="50.5 8.72 50.5 15.5 0.5 15.5 0.5 0.5 42.28 0.5 50.5 8.72"/><polygon class="cls-4" points="50.5 6.66 50.5 15.5 0.5 15.5 0.5 0.5 44.34 0.5 50.5 6.66"/><polygon class="cls-4" points="50.5 4.6 50.5 15.5 0.5 15.5 0.5 0.5 46.4 0.5 47.12 1.22 50.12 4.22 50.5 4.6"/></g></g></svg>