<svg xmlns="http://www.w3.org/2000/svg" viewBox="0 0 51 91"><defs><style>.cls-1,.cls-2,.cls-3,.cls-4{stroke:#000;stroke-miterlimit:10;}.cls-2,.cls-4{fill:none;}.cls-3{fill:#fff;}.cls-4{stroke-width:0.25px;}</style></defs><title>Artboard7</title><g id="Layer_2" data-name="Layer 2"><g id="Layer_1-2" data-name="Layer 1"><rect class="cls-1" x="0.5" y="75.5" width="50" height="15"/><rect class="cls-2" x="0.5" y="45.5" width="50" height="15"/><line class="cls-2" x1="2.41" y1="47.72" x2="3.41" y2="47.72"/><line class="cls-2" x1="5.41" y1="47.72" x2="6.41" y2="47.72"/><line class="cls-2" x1="8.41" y1="47.72" x2="9.41" y2="47.72"/><line class="cls-2" x1="11.41" y1="47.72" x2="12.41" y2="47.72"/><line class="cls-2" x1="14.41" y1="47.72" x2="15.41" y2="47.72"/><line class="cls-2" x1="17.41" y1="47.72" x2="18.41" y2="47.72"/><line class="cls-2" x1="20.41" y1="47.72" x2="21.41" y2="47.72"/><line class="cls-2" x1="23.41" y1="47.72" x2="24.41" y2="47.72"/><line class="cls-2" x1="26.41" y1="47.72" x2="27.41" y2="47.72"/><line class="cls-2" x1="29.41" y1="47.72" x2="30.41" y2="47.72"/><line class="cls-2" x1="32.41" y1="47.72" x2="33.41" y2="47.72"/><line class="cls-2" x1="35.41" y1="47.72" x2="36.41" y2="47.72"/><line class="cls-2" x1="38.41" y1="47.72" x2="39.41" y2="47.72"/><line class="cls-2" x1="41.41" y1="47.72" x2="42.41" y2="47.72"/><line class="cls-2" x1="44.41" y1="47.72" x2="45.41" y2="47.72"/><line class="cls-2" x1="47.41" y1="47.72" x2="48.41" y2="47.72"/><line class="cls-2" x1="2.41" y1="49.8" x2="3.41" y2="49.8"/><line class="cls-2" x1="5.41" y1="49.8" x2="6.41" y2="49.8"/><line class="cls-2" x1="8.41" y1="49.8" x2="9.41" y2="49.8"/><line class="cls-2" x1="11.41" y1="49.8" x2="12.41" y2="49.8"/><line class="cls-2" x1="14.41" y1="49.8" x2="15.41" y2="49.8"/><line class="cls-2" x1="17.41" y1="49.8" x2="18.41" y2="49.8"/><line class="cls-2" x1="20.41" y1="49.8" x2="21.41" y2="49.8"/><line class="cls-2" x1="23.41" y1="49.8" x2="24.41" y2="49.8"/><line class="cls-2" x1="26.41" y1="49.8" x2="27.41" y2="49.8"/><line class="cls-2" x1="29.41" y1="49.8" x2="30.41" y2="49.8"/><line class="cls-2" x1="32.41" y1="49.8" x2="33.41" y2="49.8"/><line class="cls-2" x1="35.41" y1="49.8" x2="36.41" y2="49.8"/><line class="cls-2" x1="38.41" y1="49.8" x2="39.41" y2="49.8"/><line class="cls-2" x1="41.41" y1="49.8" x2="42.41" y2="49.8"/><line class="cls-2" x1="44.41" y1="49.8" x2="45.41" y2="49.8"/><line class="cls-2" x1="47.41" y1="49.8" x2="48.41" y2="49.8"/><line class="cls-2" x1="2.41" y1="51.89" x2="3.41" y2="51.89"/><line class="cls-2" x1="5.41" y1="51.89" x2="6.41" y2="51.89"/><line class="cls-2" x1="8.41" y1="51.89" x2="9.41" y2="51.89"/><line class="cls-2" x1="11.41" y1="51.89" x2="12.41" y2="51.89"/><line class="cls-2" x1="14.41" y1="51.89" x2="15.41" y2="51.89"/><line class="cls-2" x1="17.41" y1="51.89" x2="18.41" y2="51.89"/><line class="cls-2" x1="20.41" y1="51.89" x2="21.41" y2="51.89"/><line class="cls-2" x1="23.41" y1="51.89" x2="24.41" y2="51.89"/><line class="cls-2" x1="26.41" y1="51.89" x2="27.41" y2="51.89"/><line class="cls-2" x1="29.41" y1="51.89" x2="30.41" y2="51.89"/><line class="cls-2" x1="32.41" y1="51.89" x2="33.41" y2="51.89"/><line class="cls-2" x1="35.41" y1="51.89" x2="36.41" y2="51.89"/><line class="cls-2" x1="38.41" y1="51.89" x2="39.41" y2="51.89"/><line class="cls-2" x1="41.41" y1="51.89" x2="42.41" y2="51.89"/><line class="cls-2" x1="44.41" y1="51.89" x2="45.41" y2="51.89"/><line class="cls-2" x1="47.41" y1="51.89" x2="48.41" y2="51.89"/><line class="cls-2" x1="2.41" y1="53.97" x2="3.41" y2="53.97"/><line class="cls-2" x1="5.41" y1="53.97" x2="6.41" y2="53.97"/><line class="cls-2" x1="8.41" y1="53.97" x2="9.41" y2="53.97"/><line class="cls-2" x1="11.41" y1="53.97" x2="12.41" y2="53.97"/><line class="cls-2" x1="14.41" y1="53.97" x2="15.41" y2="53.97"/><line class="cls-2" x1="17.41" y1="53.97" x2="18.41" y2="53.97"/><line class="cls-2" x1="20.41" y1="53.97" x2="21.41" y2="53.97"/><line class="cls-2" x1="23.41" y1="53.97" x2="24.41" y2="53.97"/><line class="cls-2" x1="26.41" y1="53.97" x2="27.41" y2="53.97"/><line class="cls-2" x1="29.41" y1="53.97" x2="30.41" y2="53.97"/><line class="cls-2" x1="32.41" y1="53.97" x2="33.41" y2="53.97"/><line class="cls-2" x1="35.41" y1="53.97" x2="36.41" y2="53.97"/><line class="cls-2" x1="38.41" y1="53.97" x2="39.41" y2="53.97"/><line class="cls-2" x1="41.41" y1="53.97" x2="42.41" y2="53.97"/><line class="cls-2" x1="44.41" y1="53.97" x2="45.41" y2="53.97"/><line class="cls-2" x1="47.41" y1="53.97" x2="48.41" y2="53.97"/><line class="cls-2" x1="2.41" y1="56.05" x2="3.41" y2="56.05"/><line class="cls-2" x1="5.41" y1="56.05" x2="6.41" y2="56.05"/><line class="cls-2" x1="8.41" y1="56.05" x2="9.41" y2="56.05"/><line class="cls-2" x1="11.41" y1="56.05" x2="12.41" y2="56.05"/><line class="cls-2" x1="14.41" y1="56.05" x2="15.41" y2="56.05"/><line class="cls-2" x1="17.41" y1="56.05" x2="18.41" y2="56.05"/><line class="cls-2" x1="20.41" y1="56.05" x2="21.41" y2="56.05"/><line class="cls-2" x1="23.41" y1="56.05" x2="24.41" y2="56.05"/><line class="cls-2" x1="26.41" y1="56.05" x2="27.41" y2="56.05"/><line class="cls-2" x1="29.41" y1="56.05" x2="30.41" y2="56.05"/><line class="cls-2" x1="32.41" y1="56.05" x2="33.41" y2="56.05"/><line class="cls-2" x1="35.41" y1="56.05" x2="36.41" y2="56.05"/><line class="cls-2" x1="38.41" y1="56.05" x2="39.41" y2="56.05"/><line class="cls-2" x1="41.41" y1="56.05" x2="42.41" y2="56.05"/><line class="cls-2" x1="44.41" y1="56.05" x2="45.41" y2="56.05"/><line class="cls-2" x1="47.41" y1="56.05" x2="48.41" y2="56.05"/><line class="cls-2" x1="2.41" y1="58.14" x2="3.41" y2="58.14"/><line class="cls-2" x1="5.41" y1="58.14" x2="6.41" y2="58.14"/><line class="cls-2" x1="8.41" y1="58.14" x2="9.41" y2="58.14"/><line class="cls-2" x1="11.41" y1="58.14" x2="12.41" y2="58.14"/><line class="cls-2" x1="14.41" y1="58.14" x2="15.41" y2="58.14"/><line class="cls-2" x1="17.41" y1="58.14" x2="18.41" y2="58.14"/><line class="cls-2" x1="20.41" y1="58.14" x2="21.41" y2="58.14"/><line class="cls-2" x1="23.41" y1="58.14" x2="24.41" y2="58.14"/><line class="cls-2" x1="26.41" y1="58.14" x2="27.41" y2="58.14"/><line class="cls-2" x1="29.41" y1="58.14" x2="30.41" y2="58.14"/><line class="cls-2" x1="32.41" y1="58.14" x2="33.41" y2="58.14"/><line class="cls-2" x1="35.41" y1="58.14" x2="36.41" y2="58.14"/><line class="cls-2" x1="38.41" y1="58.14" x2="39.41" y2="58.14"/><line class="cls-2" x1="41.41" y1="58.14" x2="42.41" y2="58.14"/><line class="cls-2" x1="44.41" y1="58.14" x2="45.41" y2="58.14"/><line class="cls-2" x1="47.41" y1="58.14" x2="48.41" y2="58.14"/><rect class="cls-3" x="0.5" y="0.5" width="50" height="15"/><polygon class="cls-4" points="47.52 15.5 50.5 12.52 50.5 15.5 47.52 15.5"/><polygon class="cls-4" points="45.99 15.5 50.5 10.99 50.5 15.5 45.99 15.5"/><polygon class="cls-4" points="50.5 9.46 50.5 15.5 44.46 15.5 50.5 9.46"/><polygon class="cls-4" points="42.94 15.5 50.5 7.94 50.5 15.5 42.94 15.5"/><polygon class="cls-4" points="41.41 15.5 50.5 6.41 50.5 15.5 41.41 15.5"/><polygon class="cls-4" points="39.88 15.5 50.5 4.88 50.5 15.5 39.88 15.5"/><polygon class="cls-4" points="38.35 15.5 50.5 3.35 50.5 15.5 38.35 15.5"/><polygon class="cls-4" points="36.83 15.5 50.5 1.83 50.5 15.5 36.83 15.5"/><polygon class="cls-4" points="50.3 0.5 50.5 0.5 50.5 15.5 35.3 15.5 50.3 0.5"/><polygon class="cls-4" points="50.5 0.5 50.5 15.5 33.77 15.5 48.77 0.5 50.5 0.5"/><polygon class="cls-4" points="50.5 0.5 50.5 15.5 32.24 15.5 47.24 0.5 50.5 0.5"/><polygon class="cls-4" points="50.5 0.5 50.5 15.5 30.72 15.5 45.72 0.5 50.5 0.5"/><polygon class="cls-4" points="50.5 0.5 50.5 15.5 29.19 15.5 44.19 0.5 50.5 0.5"/><polygon class="cls-4" points="50.5 0.5 50.5 15.5 27.66 15.5 42.66 0.5 50.5 0.5"/><polygon class="cls-4" points="50.5 0.5 50.5 15.5 26.13 15.5 41.13 0.5 50.5 0.5"/><polygon class="cls-4" points="50.5 0.5 50.5 15.5 24.61 15.5 39.61 0.5 50.5 0.5"/><polygon class="cls-4" points="50.5 0.5 50.5 15.5 23.08 15.5 38.08 0.5 50.5 0.5"/><polygon class="cls-4" points="50.5 0.5 50.5 15.5 21.55 15.5 36.55 0.5 50.5 0.5"/><polygon class="cls-4" points="50.5 0.5 50.5 15.5 20.02 15.5 35.02 0.5 50.5 0.5"/><polygon class="cls-4" points="50.5 0.5 50.5 15.5 18.5 15.5 33.5 0.5 50.5 0.5"/><polygon class="cls-4" points="50.5 0.5 50.5 15.5 16.97 15.5 31.97 0.5 50.5 0.5"/><polygon class="cls-4" points="50.5 0.5 50.5 15.5 15.44 15.5 30.44 0.5 50.5 0.5"/><polygon class="cls-4" points="50.5 0.5 50.5 15.5 13.91 15.5 28.91 0.5 50.5 0.5"/><polygon class="cls-4" points="50.5 0.5 50.5 15.5 12.39 15.5 27.39 0.5 50.5 0.5"/><polygon class="cls-4" points="50.5 0.5 50.5 15.5 10.86 15.5 25.86 0.5 50.5 0.5"/><polygon class="cls-4" points="50.5 0.5 50.5 15.5 9.33 15.5 24.33 0.5 50.5 0.5"/><polygon class="cls-4" points="50.5 0.5 50.5 15.5 7.8 15.5 22.8 0.5 50.5 0.5"/><polygon class="cls-4" points="50.5 0.5 50.5 15.5 6.28 15.5 21.28 0.5 50.5 0.5"/><polygon class="cls-4" points="50.5 0.5 50.5 15.5 4.75 15.5 19.75 0.5 50.5 0.5"/><polygon class="cls-4" points="50.5 0.5 50.5 15.5 3.22 15.5 18.22 0.5 50.5 0.5"/><polygon class="cls-4" points="50.5 0.5 50.5 15.5 1.69 15.5 16.69 0.5 50.5 0.5"/><polygon class="cls-4" points="50.5 0.5 50.5 15.5 0.5 15.5 0.5 15.17 15.17 0.5 50.5 0.5"/><polygon class="cls-4" points="50.5 0.5 50.5 15.5 0.5 15.5 0.5 13.64 13.64 0.5 50.5 0.5"/><polygon class="cls-4" points="50.5 0.5 50.5 15.5 0.5 15.5 0.5 12.11 12.11 0.5 50.5 0.5"/><polygon class="cls-4" points="50.5 0.5 50.5 15.5 0.5 15.5 0.5 10.59 10.59 0.5 50.5 0.5"/><polygon class="cls-4" points="50.5 0.5 50.5 15.5 0.5 15.5 0.5 9.06 9.06 0.5 50.5 0.5"/><polygon class="cls-4" points="50.5 0.5 50.5 15.5 0.5 15.5 0.5 7.53 7.53 0.5 50.5 0.5"/><polygon class="cls-4" points="50.5 0.5 50.5 15.5 0.5 15.5 0.5 6 6 0.5 50.5 0.5"/><polygon class="cls-4" points="50.5 0.5 50.5 15.5 0.5 15.5 0.5 4.48 4.48 0.5 50.5 0.5"/><polygon class="cls-4" points="50.5 0.5 50.5 15.5 0.5 15.5 0.5 2.95 2.95 0.5 50.5 0.5"/><rect class="cls-3" x="0.5" y="15.5" width="50" height="15"/><polygon class="cls-4" points="3.39 30.5 0.5 30.5 0.5 27.61 3.39 30.5"/><polygon class="cls-4" points="5.42 30.5 0.5 30.5 0.5 25.58 5.42 30.5"/><polygon class="cls-4" points="7.44 30.5 0.5 30.5 0.5 23.56 7.44 30.5"/><polygon class="cls-4" points="9.46 30.5 0.5 30.5 0.5 21.54 9.46 30.5"/><polygon class="cls-4" points="0.5 30.5 0.5 19.51 11.49 30.5 0.5 30.5"/><polygon class="cls-4" points="0.5 30.5 0.5 17.49 13.51 30.5 0.5 30.5"/><polygon class="cls-4" points="15.54 30.5 0.5 30.5 0.5 15.5 0.54 15.5 15.54 30.5"/><polygon class="cls-4" points="17.56 30.5 0.5 30.5 0.5 15.5 2.56 15.5 17.56 30.5"/><polygon class="cls-4" points="19.58 30.5 0.5 30.5 0.5 15.5 4.58 15.5 19.58 30.5"/><polygon class="cls-4" points="21.6 30.5 0.5 30.5 0.5 15.5 6.6 15.5 21.6 30.5"/><polygon class="cls-4" points="0.5 30.5 0.5 15.5 8.63 15.5 23.63 30.5 0.5 30.5"/><polygon class="cls-4" points="25.65 30.5 0.5 30.5 0.5 15.5 10.65 15.5 25.65 30.5"/><polygon class="cls-4" points="27.68 30.5 0.5 30.5 0.5 15.5 12.68 15.5 27.68 30.5"/><polygon class="cls-4" points="29.7 30.5 0.5 30.5 0.5 15.5 14.7 15.5 29.7 30.5"/><polygon class="cls-4" points="31.72 30.5 0.5 30.5 0.5 15.5 16.72 15.5 31.72 30.5"/><polygon class="cls-4" points="0.5 30.5 0.5 15.5 18.75 15.5 33.75 30.5 0.5 30.5"/><polygon class="cls-4" points="0.5 30.5 0.5 15.5 20.77 15.5 35.77 30.5 0.5 30.5"/><polygon class="cls-4" points="37.8 30.5 0.5 30.5 0.5 15.5 22.8 15.5 37.8 30.5"/><polygon class="cls-4" points="39.82 30.5 0.5 30.5 0.5 15.5 24.82 15.5 39.82 30.5"/><polygon class="cls-4" points="41.84 30.5 0.5 30.5 0.5 15.5 26.84 15.5 41.84 30.5"/><polygon class="cls-4" points="43.86 30.5 0.5 30.5 0.5 15.5 28.86 15.5 43.86 30.5"/><polygon class="cls-4" points="0.5 30.5 0.5 15.5 30.89 15.5 45.89 30.5 0.5 30.5"/><polygon class="cls-4" points="47.91 30.5 0.5 30.5 0.5 15.5 32.91 15.5 47.91 30.5"/><polygon class="cls-4" points="49.94 30.5 0.5 30.5 0.5 15.5 34.94 15.5 49.94 30.5"/><polygon class="cls-4" points="50.5 29.04 50.5 30.5 0.5 30.5 0.5 15.5 36.96 15.5 50.5 29.04"/><polygon class="cls-4" points="50.5 27.02 50.5 30.5 0.5 30.5 0.5 15.5 38.98 15.5 50.5 27.02"/><polygon class="cls-4" points="0.5 30.5 0.5 15.5 41.01 15.5 50.5 24.99 50.5 30.5 0.5 30.5"/><polygon class="cls-4" points="0.5 30.5 0.5 15.5 43.03 15.5 50.5 22.97 50.5 30.5 0.5 30.5"/><polygon class="cls-4" points="50.5 20.94 50.5 30.5 0.5 30.5 0.5 15.5 45.06 15.5 50.5 20.94"/><polygon class="cls-4" points="50.5 18.92 50.5 30.5 0.5 30.5 0.5 15.5 47.08 15.5 50.5 18.92"/><rect class="cls-3" x="0.5" y="30.5" width="50" height="15"/><rect class="cls-4" x="0.5" y="30.5" width="1.25" height="15"/><rect class="cls-4" x="0.5" y="30.5" width="2.12" height="15"/><rect class="cls-4" x="0.5" y="30.5" width="3" height="15"/><rect class="cls-4" x="0.5" y="30.5" width="3.88" height="15"/><rect class="cls-4" x="0.5" y="30.5" width="4.75" height="15"/><rect class="cls-4" x="0.5" y="30.5" width="5.62" height="15"/><rect class="cls-4" x="0.5" y="30.5" width="6.5" height="15"/><rect class="cls-4" x="0.5" y="30.5" width="7.38" height="15"/><rect class="cls-4" x="0.5" y="30.5" width="8.25" height="15"/><rect class="cls-4" x="0.5" y="30.5" width="9.12" height="15"/><rect class="cls-4" x="0.5" y="30.5" width="10" height="15"/><rect class="cls-4" x="0.5" y="30.5" width="10.88" height="15"/><rect class="cls-4" x="0.5" y="30.5" width="11.75" height="15"/><rect class="cls-4" x="0.5" y="30.5" width="12.62" height="15"/><rect class="cls-4" x="0.5" y="30.5" width="13.5" height="15"/><rect class="cls-4" x="0.5" y="30.5" width="14.38" height="15"/><rect class="cls-4" x="0.5" y="30.5" width="15.25" height="15"/><rect class="cls-4" x="0.5" y="30.5" width="16.12" height="15"/><rect class="cls-4" x="0.5" y="30.5" width="17" height="15"/><rect class="cls-4" x="0.5" y="30.5" width="17.88" height="15"/><rect class="cls-4" x="0.5" y="30.5" width="18.75" height="15"/><rect class="cls-4" x="0.5" y="30.5" width="19.62" height="15"/><rect class="cls-4" x="0.5" y="30.5" width="20.5" height="15"/><rect class="cls-4" x="0.5" y="30.5" width="21.38" height="15"/><rect class="cls-4" x="0.5" y="30.5" width="22.25" height="15"/><rect class="cls-4" x="0.5" y="30.5" width="23.12" height="15"/><rect class="cls-4" x="0.5" y="30.5" width="24" height="15"/><rect class="cls-4" x="0.5" y="30.5" width="24.88" height="15"/><rect class="cls-4" x="0.5" y="30.5" width="25.75" height="15"/><rect class="cls-4" x="0.5" y="30.5" width="26.62" height="15"/><rect class="cls-4" x="0.5" y="30.5" width="27.5" height="15"/><rect class="cls-4" x="0.5" y="30.5" width="28.38" height="15"/><rect class="cls-4" x="0.5" y="30.5" width="29.25" height="15"/><rect class="cls-4" x="0.5" y="30.5" width="30.12" height="15"/><rect class="cls-4" x="0.5" y="30.5" width="31" height="15"/><rect class="cls-4" x="0.5" y="30.5" width="31.88" height="15"/><rect class="cls-4" x="0.5" y="30.5" width="32.75" height="15"/><rect class="cls-4" x="0.5" y="30.5" width="33.62" height="15"/><rect class="cls-4" x="0.5" y="30.5" width="34.5" height="15"/><rect class="cls-4" x="0.5" y="30.5" width="35.38" height="15"/><rect class="cls-4" x="0.5" y="30.5" width="36.25" height="15"/><rect class="cls-4" x="0.5" y="30.5" width="37.12" height="15"/><rect class="cls-4" x="0.5" y="30.5" width="38" height="15"/><rect class="cls-4" x="0.5" y="30.5" width="38.88" height="15"/><rect class="cls-4" x="0.5" y="30.5" width="39.75" height="15"/><rect class="cls-4" x="0.5" y="30.5" width="40.62" height="15"/><rect class="cls-4" x="0.5" y="30.5" width="41.5" height="15"/><rect class="cls-4" x="0.5" y="30.5" width="42.38" height="15"/><rect class="cls-4" x="0.5" y="30.5" width="43.25" height="15"/><rect class="cls-4" x="0.5" y="30.5" width="44.12" height="15"/><rect class="cls-4" x="0.5" y="30.5" width="45" height="15"/><rect class="cls-4" x="0.5" y="30.5" width="45.88" height="15"/><rect class="cls-4" x="0.5" y="30.5" width="46.75" height="15"/><rect class="cls-4" x="0.5" y="30.5" width="47.62" height="15"/><rect class="cls-4" x="0.5" y="30.5" width="48.5" height="15"/><rect class="cls-4" x="0.5" y="44.12" width="50" height="1.38"/><rect class="cls-4" x="0.5" y="43.12" width="50" height="2.38"/><rect class="cls-4" x="0.5" y="42.12" width="50" height="3.38"/><rect class="cls-4" x="0.5" y="41.12" width="50" height="4.38"/><rect class="cls-4" x="0.5" y="40.12" width="50" height="5.38"/><rect class="cls-4" x="0.5" y="39.12" width="50" height="6.38"/><rect class="cls-4" x="0.5" y="38.12" width="50" height="7.38"/><rect class="cls-4" x="0.5" y="37.12" width="50" height="8.38"/><rect class="cls-4" x="0.5" y="36.12" width="50" height="9.38"/><rect class="cls-4" x="0.5" y="35.12" width="50" height="10.38"/><rect class="cls-4" x="0.5" y="34.12" width="50" height="11.38"/><rect class="cls-4" x="0.5" y="33.12" width="50" height="12.38"/><rect class="cls-4" x="0.5" y="32.12" width="50" height="13.38"/><rect class="cls-2" x="0.5" y="60.5" width="50" height="15"/><polygon class="cls-4" points="46.84 75.5 46.9 75.44 47.94 74.41 48.97 73.38 50 72.35 50.5 71.84 50.5 75.5 46.84 75.5"/><polygon class="cls-4" points="50.5 69.84 50.5 75.5 44.84 75.5 45.9 74.44 46.94 73.41 47.97 72.38 49 71.35 50.03 70.31 50.5 69.84"/><polygon class="cls-4" points="50.5 67.84 50.5 75.5 42.84 75.5 44.9 73.44 45.94 72.41 46.97 71.38 48 70.35 49.03 69.31 50.06 68.28 50.5 67.84"/><polygon class="cls-4" points="50.5 65.84 50.5 75.5 40.84 75.5 43.9 72.44 44.94 71.41 45.97 70.38 47 69.35 48.03 68.31 49.06 67.28 50.09 66.25 50.5 65.84"/><polygon class="cls-4" points="50.5 63.84 50.5 75.5 38.84 75.5 39.81 74.53 40.84 73.5 42.9 71.44 43.94 70.41 44.97 69.38 46 68.35 47.03 67.31 48.06 66.28 49.09 65.25 50.12 64.22 50.5 63.84"/><polygon class="cls-4" points="50.5 61.84 50.5 75.5 36.84 75.5 37.78 74.56 38.81 73.53 39.84 72.5 41.9 70.44 42.94 69.41 43.97 68.38 45 67.35 46.03 66.31 47.06 65.28 48.09 64.25 49.12 63.22 50.5 61.84"/><polygon class="cls-4" points="50.5 60.5 50.5 75.5 34.84 75.5 35.75 74.6 36.78 73.56 37.81 72.53 38.84 71.5 40.9 69.44 41.94 68.41 42.97 67.38 44 66.35 45.03 65.31 46.06 64.28 47.09 63.25 49.84 60.5 50.5 60.5"/><polygon class="cls-4" points="50.5 60.5 50.5 75.5 32.84 75.5 33.72 74.63 34.75 73.6 35.78 72.56 36.81 71.53 37.84 70.5 39.9 68.44 40.94 67.41 41.97 66.38 43 65.35 44.03 64.31 45.06 63.28 46.09 62.25 47.84 60.5 50.5 60.5"/><polygon class="cls-4" points="50.5 60.5 50.5 75.5 30.84 75.5 31.69 74.66 32.72 73.63 33.75 72.6 34.78 71.56 35.81 70.53 36.84 69.5 38.9 67.44 39.94 66.41 40.97 65.38 42 64.35 43.03 63.31 44.06 62.28 45.09 61.25 45.84 60.5 50.5 60.5"/><polygon class="cls-4" points="50.5 60.5 50.5 75.5 28.84 75.5 29.65 74.69 30.69 73.66 31.72 72.63 32.75 71.6 33.78 70.56 34.81 69.53 35.84 68.5 37.9 66.44 38.94 65.41 39.97 64.38 41 63.35 42.03 62.31 43.06 61.28 43.84 60.5 50.5 60.5"/><polygon class="cls-4" points="50.5 60.5 50.5 75.5 26.84 75.5 28.65 73.69 29.69 72.66 30.72 71.63 31.75 70.6 32.78 69.56 33.81 68.53 34.84 67.5 36.9 65.44 37.94 64.41 38.97 63.38 40 62.35 41.03 61.31 41.84 60.5 50.5 60.5"/><polygon class="cls-4" points="50.5 60.5 50.5 75.5 24.84 75.5 27.65 72.69 28.69 71.66 29.72 70.63 30.75 69.6 31.78 68.56 32.81 67.53 33.84 66.5 35.9 64.44 36.94 63.41 37.97 62.38 39 61.35 39.84 60.5 50.5 60.5"/><polygon class="cls-4" points="50.5 60.5 50.5 75.5 22.84 75.5 23.56 74.78 24.59 73.75 26.65 71.69 27.69 70.66 28.72 69.63 29.75 68.6 30.78 67.56 31.81 66.53 32.84 65.5 34.9 63.44 35.94 62.41 36.97 61.38 37.84 60.5 50.5 60.5"/><polygon class="cls-4" points="50.5 60.5 50.5 75.5 20.84 75.5 21.53 74.81 22.56 73.78 23.59 72.75 25.65 70.69 26.69 69.66 27.72 68.63 28.75 67.6 29.78 66.56 30.81 65.53 31.84 64.5 33.9 62.44 34.94 61.41 35.84 60.5 50.5 60.5"/><polygon class="cls-4" points="50.5 60.5 50.5 75.5 18.84 75.5 19.5 74.85 20.53 73.81 21.56 72.78 22.59 71.75 24.65 69.69 25.69 68.66 26.72 67.63 27.75 66.6 28.78 65.56 29.81 64.53 30.84 63.5 33.84 60.5 50.5 60.5"/><polygon class="cls-4" points="50.5 60.5 50.5 75.5 16.84 75.5 17.47 74.88 18.5 73.85 19.53 72.81 20.56 71.78 21.59 70.75 23.65 68.69 24.69 67.66 25.72 66.63 26.75 65.6 27.78 64.56 28.81 63.53 29.84 62.5 31.84 60.5 50.5 60.5"/><polygon class="cls-4" points="50.5 60.5 50.5 75.5 14.84 75.5 15.44 74.91 16.47 73.88 17.5 72.85 18.53 71.81 19.56 70.78 20.59 69.75 22.65 67.69 23.69 66.66 24.72 65.63 25.75 64.6 26.78 63.56 27.81 62.53 28.84 61.5 29.84 60.5 50.5 60.5"/><polygon class="cls-4" points="50.5 60.5 50.5 75.5 12.84 75.5 13.4 74.94 14.44 73.91 15.47 72.88 16.5 71.85 17.53 70.81 18.56 69.78 19.59 68.75 21.65 66.69 22.69 65.66 23.72 64.63 24.75 63.6 25.78 62.56 26.81 61.53 27.84 60.5 50.5 60.5"/><polygon class="cls-4" points="50.5 60.5 50.5 75.5 10.84 75.5 12.4 73.94 13.44 72.91 14.47 71.88 15.5 70.85 16.53 69.81 17.56 68.78 18.59 67.75 20.65 65.69 21.69 64.66 22.72 63.63 23.75 62.6 24.78 61.56 25.81 60.53 25.84 60.5 50.5 60.5"/><polygon class="cls-4" points="50.5 60.5 50.5 75.5 8.84 75.5 11.4 72.94 12.44 71.91 13.47 70.88 14.5 69.85 15.53 68.81 16.56 67.78 17.59 66.75 19.65 64.69 20.69 63.66 21.72 62.63 22.75 61.6 23.78 60.56 23.84 60.5 50.5 60.5"/><polygon class="cls-4" points="50.5 60.5 50.5 75.5 6.84 75.5 7.31 75.03 8.34 74 10.4 71.94 11.44 70.91 12.47 69.88 13.5 68.85 14.53 67.81 15.56 66.78 16.59 65.75 18.65 63.69 19.69 62.66 20.72 61.63 21.75 60.6 21.84 60.5 50.5 60.5"/><polygon class="cls-4" points="50.5 60.5 50.5 75.5 4.84 75.5 5.28 75.06 6.31 74.03 7.34 73 9.4 70.94 10.44 69.91 11.47 68.88 12.5 67.85 13.53 66.81 14.56 65.78 15.59 64.75 17.65 62.69 18.69 61.66 19.72 60.63 19.84 60.5 50.5 60.5"/><polygon class="cls-4" points="50.5 60.5 50.5 75.5 2.84 75.5 3.25 75.1 4.28 74.06 5.31 73.03 6.34 72 8.4 69.94 9.44 68.91 10.47 67.88 11.5 66.85 12.53 65.81 13.56 64.78 14.59 63.75 16.65 61.69 17.69 60.66 17.84 60.5 50.5 60.5"/><polygon class="cls-4" points="50.5 60.5 50.5 75.5 0.84 75.5 2.25 74.1 3.28 73.06 4.31 72.03 5.34 71 7.4 68.94 8.44 67.91 9.47 66.88 10.5 65.85 11.53 64.81 12.56 63.78 13.59 62.75 15.84 60.5 50.5 60.5"/><polygon class="cls-4" points="50.5 60.5 50.5 75.5 0.5 75.5 0.5 73.84 1.25 73.1 2.28 72.06 3.31 71.03 4.34 70 6.4 67.94 7.44 66.91 8.47 65.88 9.5 64.85 10.53 63.81 11.56 62.78 12.59 61.75 13.84 60.5 50.5 60.5"/><polygon class="cls-4" points="50.5 60.5 50.5 75.5 0.5 75.5 0.5 71.84 1.28 71.06 2.31 70.03 3.34 69 5.4 66.94 6.44 65.91 7.47 64.88 8.5 63.85 9.53 62.81 10.56 61.78 11.59 60.75 11.84 60.5 50.5 60.5"/><polygon class="cls-4" points="50.5 60.5 50.5 75.5 0.5 75.5 0.5 69.84 1.31 69.03 2.34 68 4.4 65.94 5.44 64.91 6.47 63.88 7.5 62.85 8.53 61.81 9.56 60.78 9.84 60.5 50.5 60.5"/><polygon class="cls-4" points="50.5 60.5 50.5 75.5 0.5 75.5 0.5 67.84 1.34 67 3.4 64.94 4.44 63.91 5.47 62.88 6.5 61.85 7.53 60.81 7.84 60.5 50.5 60.5"/><polygon class="cls-4" points="50.5 60.5 50.5 75.5 0.5 75.5 0.5 65.84 1.37 64.97 2.4 63.94 3.44 62.91 4.47 61.88 5.5 60.85 5.84 60.5 50.5 60.5"/><polygon class="cls-4" points="50.5 60.5 50.5 75.5 0.5 75.5 0.5 63.84 1.4 62.94 2.44 61.91 3.47 60.88 3.84 60.5 50.5 60.5"/><polygon class="cls-4" points="3.65 75.5 0.5 75.5 0.5 72.35 3.65 75.5"/><polygon class="cls-4" points="5.72 75.5 0.5 75.5 0.5 70.28 5.72 75.5"/><polygon class="cls-4" points="7.78 75.5 0.5 75.5 0.5 68.22 7.78 75.5"/><polygon class="cls-4" points="9.84 75.5 0.5 75.5 0.5 66.16 9.84 75.5"/><polygon class="cls-4" points="11.9 75.5 0.5 75.5 0.5 64.1 1.37 64.97 11.37 74.97 11.9 75.5"/><polygon class="cls-4" points="13.96 75.5 0.5 75.5 0.5 62.04 13.96 75.5"/><polygon class="cls-4" points="16.03 75.5 0.5 75.5 0.5 60.5 1.03 60.5 16.03 75.5"/><polygon class="cls-4" points="18.09 75.5 0.5 75.5 0.5 60.5 3.09 60.5 18.09 75.5"/><polygon class="cls-4" points="20.15 75.5 0.5 75.5 0.5 60.5 5.15 60.5 20.15 75.5"/><polygon class="cls-4" points="22.22 75.5 0.5 75.5 0.5 60.5 7.22 60.5 22.22 75.5"/><polygon class="cls-4" points="24.28 75.5 0.5 75.5 0.5 60.5 9.28 60.5 24.28 75.5"/><polygon class="cls-4" points="26.34 75.5 0.5 75.5 0.5 60.5 11.34 60.5 26.34 75.5"/><polygon class="cls-4" points="28.4 75.5 0.5 75.5 0.5 60.5 13.4 60.5 13.62 60.72 27.62 74.72 28.4 75.5"/><polygon class="cls-4" points="30.46 75.5 0.5 75.5 0.5 60.5 15.46 60.5 30.46 75.5"/><polygon class="cls-4" points="32.53 75.5 0.5 75.5 0.5 60.5 17.53 60.5 32.53 75.5"/><polygon class="cls-4" points="34.59 75.5 0.5 75.5 0.5 60.5 19.59 60.5 34.59 75.5"/><polygon class="cls-4" points="36.65 75.5 0.5 75.5 0.5 60.5 21.65 60.5 36.65 75.5"/><polygon class="cls-4" points="38.72 75.5 0.5 75.5 0.5 60.5 23.72 60.5 38.72 75.5"/><polygon class="cls-4" points="40.78 75.5 0.5 75.5 0.5 60.5 25.78 60.5 40.78 75.5"/><polygon class="cls-4" points="42.84 75.5 0.5 75.5 0.5 60.5 27.84 60.5 42.84 75.5"/><polygon class="cls-4" points="44.9 75.5 0.5 75.5 0.5 60.5 29.9 60.5 30.87 61.47 44.87 75.47 44.9 75.5"/><polygon class="cls-4" points="46.96 75.5 0.5 75.5 0.5 60.5 31.96 60.5 46.96 75.5"/><polygon class="cls-4" points="49.03 75.5 0.5 75.5 0.5 60.5 34.03 60.5 49.03 75.5"/><polygon class="cls-4" points="50.5 74.91 50.5 75.5 0.5 75.5 0.5 60.5 36.09 60.5 50.5 74.91"/><polygon class="cls-4" points="50.5 72.85 50.5 75.5 0.5 75.5 0.5 60.5 38.15 60.5 50.5 72.85"/><polygon class="cls-4" points="50.5 70.78 50.5 75.5 0.5 75.5 0.5 60.5 40.22 60.5 50.5 70.78"/><polygon class="cls-4" points="50.5 68.72 50.5 75.5 0.5 75.5 0.5 60.5 42.28 60.5 50.5 68.72"/><polygon class="cls-4" points="50.5 66.66 50.5 75.5 0.5 75.5 0.5 60.5 44.34 60.5 50.5 66.66"/><polygon class="cls-4" points="50.5 64.6 50.5 75.5 0.5 75.5 0.5 60.5 46.4 60.5 47.12 61.22 50.12 64.22 50.5 64.6"/></g></g></svg>