<svg xmlns="http://www.w3.org/2000/svg" viewBox="0 0 51 46.02"><defs><style>.cls-1,.cls-2,.cls-3{stroke:#000;stroke-miterlimit:10;}.cls-2,.cls-3{fill:none;}.cls-3{stroke-width:0.25px;}</style></defs><title>Artboard1</title><g id="Layer_2" data-name="Layer 2"><g id="Layer_1-2" data-name="Layer 1"><rect class="cls-1" x="25.5" y="30.52" width="25" height="15"/><path class="cls-2" d="M50.5.5h-25v15h25ZM26.68,13.14h0Zm0-2.09h0Zm0-2.08h0Zm0-2.08h0Zm0-2.09h0Zm0-2.08h0Zm3,10.42h0Zm0-2.09h0Zm0-2.08h0Zm0-2.08h0Zm0-2.09h0Zm0-2.08h0Zm3,10.42h0Zm0-2.09h0Zm0-2.08h0Zm0-2.08h0Zm0-2.09h0Zm0-2.08h0Zm3,10.42h0Zm0-2.09h0Zm0-2.08h0Zm0-2.08h0Zm0-2.09h0Zm0-2.08h0Zm3,10.42h0Zm0-2.09h0Zm0-2.08h0Zm0-2.08h0Zm0-2.09h0Zm0-2.08h0Zm3,10.42h0Zm0-2.09h0Zm0-2.08h0Zm0-2.08h0Zm0-2.09h0Zm0-2.08h0Zm3,10.42h0Zm0-2.09h0Zm0-2.08h0Zm0-2.08h0Zm0-2.09h0Zm0-2.08h0Zm3,10.42h0Zm0-2.09h0Zm0-2.08h0Zm0-2.08h0Zm0-2.09h0Zm0-2.08h0Z"/><rect class="cls-2" x="25.5" y="15.52" width="25" height="15"/><polygon class="cls-3" points="50.5 27.5 50.5 30.52 47.49 30.52 50.5 27.5"/><polygon class="cls-3" points="50.5 25.48 50.5 30.52 45.46 30.52 50.5 25.48"/><polygon class="cls-3" points="50.5 23.45 50.5 30.52 43.43 30.52 50.5 23.45"/><polygon class="cls-3" points="50.5 21.41 50.5 30.52 41.4 30.52 50.5 21.41"/><polygon class="cls-3" points="50.5 19.39 50.5 30.52 39.37 30.52 50.5 19.39"/><polygon class="cls-3" points="50.5 17.36 50.5 30.52 37.34 30.52 50.5 17.36"/><polygon class="cls-3" points="50.5 15.52 50.5 30.52 35.31 30.52 50.31 15.52 50.5 15.52"/><polygon class="cls-3" points="50.5 15.52 50.5 30.52 33.29 30.52 48.29 15.52 50.5 15.52"/><polygon class="cls-3" points="50.5 15.52 50.5 30.52 31.25 30.52 46.25 15.52 50.5 15.52"/><polygon class="cls-3" points="50.5 15.52 50.5 30.52 29.23 30.52 44.23 15.52 50.5 15.52"/><polygon class="cls-3" points="50.5 15.52 50.5 30.52 27.2 30.52 42.2 15.52 50.5 15.52"/><polygon class="cls-3" points="50.5 15.52 50.5 30.52 25.5 30.52 25.5 30.18 40.17 15.52 50.5 15.52"/><polygon class="cls-3" points="50.5 15.52 50.5 30.52 25.5 30.52 25.5 28.16 38.14 15.52 50.5 15.52"/><polygon class="cls-3" points="50.5 15.52 50.5 30.52 25.5 30.52 25.5 26.13 36.11 15.52 50.5 15.52"/><polygon class="cls-3" points="50.5 15.52 50.5 30.52 25.5 30.52 25.5 24.09 34.08 15.52 50.5 15.52"/><polygon class="cls-3" points="50.5 15.52 50.5 30.52 25.5 30.52 25.5 22.07 32.05 15.52 50.5 15.52"/><polygon class="cls-3" points="50.5 15.52 50.5 30.52 25.5 30.52 25.5 20.04 30.02 15.52 50.5 15.52"/><polygon class="cls-3" points="50.5 15.52 50.5 30.52 25.5 30.52 25.5 18 27.99 15.52 50.5 15.52"/><rect class="cls-2" x="0.5" y="30.52" width="25" height="15"/><polygon class="cls-3" points="3.58 45.52 0.5 45.52 0.5 42.44 3.58 45.52"/><polygon class="cls-3" points="5.75 45.52 0.5 45.52 0.5 40.27 5.75 45.52"/><polygon class="cls-3" points="7.91 45.52 0.5 45.52 0.5 38.1 7.91 45.52"/><polygon class="cls-3" points="10.08 45.52 0.5 45.52 0.5 35.94 10.08 45.52"/><polygon class="cls-3" points="12.25 45.52 0.5 45.52 0.5 33.77 12.25 45.52"/><polygon class="cls-3" points="0.5 45.52 0.5 31.61 14.41 45.52 0.5 45.52"/><polygon class="cls-3" points="16.58 45.52 0.5 45.52 0.5 30.52 1.58 30.52 16.58 45.52"/><polygon class="cls-3" points="18.75 45.52 0.5 45.52 0.5 30.52 3.75 30.52 18.75 45.52"/><polygon class="cls-3" points="0.5 45.52 0.5 30.52 5.91 30.52 20.91 45.52 0.5 45.52"/><polygon class="cls-3" points="23.08 45.52 0.5 45.52 0.5 30.52 8.08 30.52 23.08 45.52"/><polygon class="cls-3" points="25.25 45.52 0.5 45.52 0.5 30.52 10.25 30.52 25.25 45.52"/><polygon class="cls-3" points="0.5 45.52 0.5 30.52 12.41 30.52 25.5 43.6 25.5 45.52 0.5 45.52"/><polygon class="cls-3" points="25.5 41.44 25.5 45.52 0.5 45.52 0.5 30.52 14.58 30.52 25.5 41.44"/><polygon class="cls-3" points="25.5 39.27 25.5 45.52 0.5 45.52 0.5 30.52 16.75 30.52 25.5 39.27"/><polygon class="cls-3" points="0.5 45.52 0.5 30.52 18.91 30.52 25.5 37.1 25.5 45.52 0.5 45.52"/><polygon class="cls-3" points="25.5 34.94 25.5 45.52 0.5 45.52 0.5 30.52 21.08 30.52 25.5 34.94"/><polygon class="cls-3" points="25.5 32.77 25.5 45.52 0.5 45.52 0.5 30.52 23.25 30.52 25.5 32.77"/><rect class="cls-2" x="0.5" y="0.52" width="25" height="15"/><polygon class="cls-3" points="4 15.52 0.5 15.52 0.5 12.02 4 15.52"/><polygon class="cls-3" points="5.97 15.52 0.5 15.52 0.5 10.04 0.97 10.52 2.05 11.6 5.28 14.82 5.97 15.52"/><polygon class="cls-3" points="7.94 15.52 0.5 15.52 0.5 8.07 0.88 8.46 1.96 9.54 3.03 10.61 4.11 11.69 5.19 12.77 6.27 13.85 7.35 14.93 7.94 15.52"/><polygon class="cls-3" points="9.91 15.52 0.5 15.52 0.5 6.11 0.78 6.38 1.86 7.46 2.94 8.54 4.02 9.63 5.1 10.71 6.17 11.78 7.25 12.86 8.33 13.94 9.41 15.02 9.91 15.52"/><polygon class="cls-3" points="11.87 15.52 0.5 15.52 0.5 4.13 1.77 5.41 2.84 6.49 3.92 7.57 5 8.63 8.24 11.88 9.31 12.96 10.39 14.03 11.47 15.11 11.87 15.52"/><polygon class="cls-3" points="13.84 15.52 0.5 15.52 0.5 2.17 3.83 5.5 4.91 6.58 5.98 7.66 7.06 8.73 8.14 9.81 9.22 10.89 10.3 11.97 13.84 15.52"/><polygon class="cls-3" points="15.81 15.52 0.5 15.52 0.5 0.52 0.81 0.52 4.81 4.51 5.89 5.59 6.97 6.67 10.2 9.9 11.28 10.98 12.36 12.06 14.51 14.21 15.59 15.29 15.81 15.52"/><polygon class="cls-3" points="17.78 15.52 0.5 15.52 0.5 0.52 2.78 0.52 3.64 1.38 4.72 2.46 5.8 3.54 13.34 11.07 14.42 12.15 15.5 13.23 16.58 14.31 17.66 15.39 17.78 15.52"/><polygon class="cls-3" points="19.75 15.52 0.5 15.52 0.5 0.52 4.75 0.52 5.7 1.47 6.78 2.54 7.86 3.63 8.94 4.71 10.02 5.79 11.09 6.86 12.17 7.93 13.25 9.02 14.33 10.1 15.41 11.18 19.75 15.52"/><polygon class="cls-3" points="21.71 15.52 0.5 15.52 0.5 0.52 6.66 0.52 6.69 0.48 6.72 0.52 7.76 1.56 8.84 2.65 9.92 3.71 11 4.79 12.08 5.88 13.16 6.96 14.23 8.04 21.71 15.52"/><polygon class="cls-3" points="23.68 15.52 0.5 15.52 0.5 0.52 6.66 0.52 6.69 0.48 6.72 0.52 8.68 0.52 8.75 0.58 9.83 1.67 10.9 2.73 11.98 3.81 13.06 4.89 14.14 5.97 15.22 7.05 17.37 9.21 18.45 10.29 19.53 11.37 20.61 12.45 21.69 13.53 22.76 14.6 23.68 15.52"/><polygon class="cls-3" points="25.5 15.36 25.5 15.52 0.5 15.52 0.5 0.52 6.66 0.52 6.69 0.48 6.72 0.52 10.65 0.52 11.89 1.75 12.97 2.83 14.04 3.9 15.12 4.99 16.2 6.07 17.28 7.13 18.36 8.21 19.44 9.29 20.52 10.38 21.59 11.46 22.67 12.54 23.75 13.61 25.5 15.36"/><polygon class="cls-3" points="25.5 13.38 25.5 15.52 0.5 15.52 0.5 0.52 6.66 0.52 6.69 0.48 6.72 0.52 12.62 0.52 12.87 0.77 13.95 1.84 15.03 2.92 16.11 4 25.5 13.38"/><polygon class="cls-3" points="25.5 11.41 25.5 15.52 0.5 15.52 0.5 0.52 6.66 0.52 6.69 0.48 6.72 0.52 14.59 0.52 20.33 6.25 21.41 7.33 22.49 8.4 23.56 9.48 24.64 10.56 25.5 11.41"/><polygon class="cls-3" points="25.5 9.45 25.5 15.52 0.5 15.52 0.5 0.52 6.66 0.52 6.69 0.48 6.72 0.52 16.57 0.52 25.5 9.45"/><polygon class="cls-3" points="25.5 7.49 25.5 15.52 0.5 15.52 0.5 0.52 6.66 0.52 6.69 0.48 6.72 0.52 18.54 0.52 19.06 1.04 20.14 2.13 21.22 3.21 22.3 4.29 25.5 7.49"/><polygon class="cls-3" points="25.5 5.51 25.5 15.52 0.5 15.52 0.5 0.52 6.66 0.52 6.69 0.48 6.72 0.52 20.5 0.52 22.2 2.21 23.28 3.29 24.36 4.38 25.5 5.51"/><polygon class="cls-3" points="25.5 3.54 25.5 15.52 0.5 15.52 0.5 0.52 6.66 0.52 6.69 0.48 6.72 0.52 22.47 0.52 23.19 1.24 25.5 3.54"/><polygon class="cls-3" points="25.5 11.87 25.5 15.52 21.84 15.52 22.76 14.6 23.75 13.61 24.74 12.63 25.5 11.87"/><polygon class="cls-3" points="25.5 9.71 25.5 15.52 19.69 15.52 19.72 15.48 20.7 14.51 21.69 13.53 22.67 12.54 23.66 11.54 24.64 10.56 25.5 9.71"/><polygon class="cls-3" points="25.5 7.54 25.5 15.52 17.53 15.52 17.66 15.39 18.64 14.4 19.62 13.43 20.61 12.45 21.59 11.46 22.58 10.46 23.56 9.48 25.5 7.54"/><polygon class="cls-3" points="25.5 5.38 25.5 15.52 15.38 15.52 15.59 15.29 16.58 14.31 17.56 13.32 18.54 12.35 19.53 11.37 20.52 10.38 21.5 9.38 22.49 8.4 23.47 7.42 24.45 6.43 25.44 5.46 25.5 5.38"/><polygon class="cls-3" points="25.5 3.23 25.5 15.52 13.22 15.52 13.53 15.21 14.51 14.21 15.5 13.23 16.48 12.24 17.46 11.27 18.45 10.29 19.44 9.29 20.42 8.3 21.41 7.33 22.39 6.33 23.37 5.36 24.36 4.38 25.34 3.38 25.5 3.23"/><polygon class="cls-3" points="25.5 1.08 25.5 15.52 11.06 15.52 11.47 15.11 12.45 14.13 13.44 13.14 14.42 12.15 15.41 11.18 16.39 10.2 17.37 9.21 18.36 8.21 19.35 7.24 20.33 6.25 21.32 5.26 22.3 4.29 23.28 3.29 24.27 2.31 25.5 1.08"/><polygon class="cls-3" points="25.5 0.52 25.5 15.52 8.9 15.52 9.41 15.02 10.39 14.03 11.37 13.04 12.36 12.06 13.34 11.07 14.33 10.1 15.31 9.12 16.29 8.13 17.28 7.13 18.27 6.16 19.25 5.17 21.22 3.21 22.2 2.21 23.19 1.24 23.91 0.52 25.5 0.52"/><polygon class="cls-3" points="25.5 0.52 25.5 15.52 6.75 15.52 7.35 14.93 8.33 13.94 9.31 12.96 10.3 11.97 11.28 10.98 12.27 10.01 13.25 9.02 14.23 8.04 15.22 7.05 16.2 6.07 17.19 5.08 18.17 4.09 19.16 3.1 20.14 2.13 21.13 1.15 21.75 0.52 25.5 0.52"/><polygon class="cls-3" points="25.5 0.52 25.5 15.52 4.6 15.52 5.28 14.82 6.27 13.85 7.25 12.86 8.24 11.88 9.22 10.89 10.2 9.9 11.19 8.93 12.17 7.93 13.16 6.96 14.14 5.97 15.12 4.99 16.11 4 17.09 3.02 18.08 2.02 19.06 1.04 19.59 0.52 25.5 0.52"/><polygon class="cls-3" points="25.5 0.52 25.5 15.52 2.44 15.52 3.22 14.73 4.2 13.74 5.19 12.77 6.17 11.78 7.16 10.79 8.14 9.81 9.12 8.82 10.11 7.84 11.09 6.86 12.08 5.88 13.06 4.89 14.04 3.9 17.43 0.52 25.5 0.52"/><polygon class="cls-3" points="25.5 0.52 25.5 15.52 0.5 15.52 0.5 15.29 2.14 13.65 3.13 12.68 4.11 11.69 5.1 10.71 6.08 9.71 7.06 8.73 8.05 7.75 9.03 6.76 10.02 5.79 11 4.79 11.98 3.81 12.97 2.83 13.95 1.84 14.94 0.86 15.29 0.52 25.5 0.52"/><polygon class="cls-3" points="25.5 0.52 25.5 15.52 0.5 15.52 0.5 13.13 1.06 12.57 2.05 11.6 3.03 10.61 4.02 9.63 5 8.63 5.98 7.66 6.97 6.67 7.95 5.68 8.94 4.71 9.92 3.71 10.9 2.73 11.89 1.75 12.87 0.77 13.13 0.52 25.5 0.52"/><polygon class="cls-3" points="25.5 0.52 25.5 15.52 0.5 15.52 0.5 10.98 0.97 10.52 1.96 9.54 2.94 8.54 3.92 7.57 4.91 6.58 5.89 5.59 6.88 4.62 7.86 3.63 8.84 2.65 9.83 1.67 10.81 0.68 10.97 0.52 25.5 0.52"/><polygon class="cls-3" points="25.5 0.52 25.5 15.52 0.5 15.52 0.5 8.82 0.88 8.46 1.86 7.46 2.84 6.49 3.83 5.5 4.81 4.51 5.8 3.54 6.78 2.54 7.76 1.56 8.75 0.58 8.81 0.52 25.5 0.52"/><polygon class="cls-3" points="25.5 0.52 25.5 15.52 0.5 15.52 0.5 6.67 0.78 6.38 1.77 5.41 2.75 4.42 3.73 3.44 4.72 2.46 5.7 1.47 6.66 0.52 6.69 0.48 6.72 0.52 25.5 0.52"/><polygon class="cls-3" points="25.5 0.52 25.5 15.52 0.5 15.52 0.5 4.51 0.69 4.33 1.67 3.35 2.66 2.37 3.64 1.38 4.5 0.52 6.66 0.52 6.69 0.48 6.72 0.52 25.5 0.52"/><rect class="cls-2" x="0.5" y="15.52" width="25" height="15"/><rect class="cls-3" x="0.5" y="15.52" width="23.33" height="15"/><rect class="cls-3" x="0.5" y="15.52" width="22.33" height="15"/><rect class="cls-3" x="0.5" y="15.52" width="21.33" height="15"/><rect class="cls-3" x="0.5" y="15.52" width="20.33" height="15"/><rect class="cls-3" x="0.5" y="15.52" width="19.33" height="15"/><rect class="cls-3" x="0.5" y="15.52" width="18.33" height="15"/><rect class="cls-3" x="0.5" y="15.52" width="17.33" height="15"/><rect class="cls-3" x="0.5" y="15.52" width="16.33" height="15"/><rect class="cls-3" x="0.5" y="15.52" width="15.33" height="15"/><rect class="cls-3" x="0.5" y="15.52" width="14.33" height="15"/><rect class="cls-3" x="0.5" y="15.52" width="13.33" height="15"/><rect class="cls-3" x="0.5" y="15.52" width="12.33" height="15"/><rect class="cls-3" x="0.5" y="15.52" width="11.33" height="15"/><rect class="cls-3" x="0.5" y="15.52" width="10.33" height="15"/><rect class="cls-3" x="0.5" y="15.52" width="9.33" height="15"/><rect class="cls-3" x="0.5" y="15.52" width="8.33" height="15"/><rect class="cls-3" x="0.5" y="15.52" width="7.33" height="15"/><rect class="cls-3" x="0.5" y="15.52" width="6.33" height="15"/><rect class="cls-3" x="0.5" y="15.52" width="5.33" height="15"/><rect class="cls-3" x="0.5" y="15.52" width="4.33" height="15"/><rect class="cls-3" x="0.5" y="15.52" width="3.33" height="15"/><rect class="cls-3" x="0.5" y="15.52" width="2.33" height="15"/><rect class="cls-3" x="0.5" y="15.52" width="1.33" height="15"/><rect class="cls-3" x="0.5" y="29.14" width="25" height="1.38"/><rect class="cls-3" x="0.5" y="28.14" width="25" height="2.38"/><rect class="cls-3" x="0.5" y="27.14" width="25" height="3.38"/><rect class="cls-3" x="0.5" y="26.14" width="25" height="4.38"/><rect class="cls-3" x="0.5" y="25.14" width="25" height="5.38"/><rect class="cls-3" x="0.5" y="24.14" width="25" height="6.38"/><rect class="cls-3" x="0.5" y="23.14" width="25" height="7.38"/><rect class="cls-3" x="0.5" y="22.14" width="25" height="8.38"/><rect class="cls-3" x="0.5" y="21.14" width="25" height="9.38"/><rect class="cls-3" x="0.5" y="20.14" width="25" height="10.38"/><rect class="cls-3" x="0.5" y="19.14" width="25" height="11.38"/><rect class="cls-3" x="0.5" y="18.14" width="25" height="12.38"/><rect class="cls-3" x="0.5" y="17.14" width="25" height="13.38"/></g></g></svg>