<svg xmlns="http://www.w3.org/2000/svg" viewBox="0 0 51 91"><defs><style>.cls-1,.cls-2,.cls-3,.cls-4{stroke:#000;stroke-miterlimit:10;}.cls-2{fill:#fff;}.cls-3,.cls-4{fill:none;}.cls-3{stroke-width:0.25px;}</style></defs><title>Artboard4</title><g id="Layer_2" data-name="Layer 2"><g id="Layer_1-2" data-name="Layer 1"><rect class="cls-1" x="0.5" y="60.5" width="50" height="15"/><rect class="cls-2" x="0.5" y="30.5" width="50" height="15"/><polygon class="cls-3" points="47.52 45.5 50.5 42.52 50.5 45.5 47.52 45.5"/><polygon class="cls-3" points="45.99 45.5 50.5 40.99 50.5 45.5 45.99 45.5"/><polygon class="cls-3" points="50.5 39.46 50.5 45.5 44.46 45.5 50.5 39.46"/><polygon class="cls-3" points="42.94 45.5 50.5 37.94 50.5 45.5 42.94 45.5"/><polygon class="cls-3" points="41.41 45.5 50.5 36.41 50.5 45.5 41.41 45.5"/><polygon class="cls-3" points="39.88 45.5 50.5 34.88 50.5 45.5 39.88 45.5"/><polygon class="cls-3" points="38.35 45.5 50.5 33.35 50.5 45.5 38.35 45.5"/><polygon class="cls-3" points="36.83 45.5 50.5 31.83 50.5 45.5 36.83 45.5"/><polygon class="cls-3" points="50.3 30.5 50.5 30.5 50.5 45.5 35.3 45.5 50.3 30.5"/><polygon class="cls-3" points="50.5 30.5 50.5 45.5 33.77 45.5 48.77 30.5 50.5 30.5"/><polygon class="cls-3" points="50.5 30.5 50.5 45.5 32.24 45.5 47.24 30.5 50.5 30.5"/><polygon class="cls-3" points="50.5 30.5 50.5 45.5 30.72 45.5 45.72 30.5 50.5 30.5"/><polygon class="cls-3" points="50.5 30.5 50.5 45.5 29.19 45.5 44.19 30.5 50.5 30.5"/><polygon class="cls-3" points="50.5 30.5 50.5 45.5 27.66 45.5 42.66 30.5 50.5 30.5"/><polygon class="cls-3" points="50.5 30.5 50.5 45.5 26.13 45.5 41.13 30.5 50.5 30.5"/><polygon class="cls-3" points="50.5 30.5 50.5 45.5 24.61 45.5 39.61 30.5 50.5 30.5"/><polygon class="cls-3" points="50.5 30.5 50.5 45.5 23.08 45.5 38.08 30.5 50.5 30.5"/><polygon class="cls-3" points="50.5 30.5 50.5 45.5 21.55 45.5 36.55 30.5 50.5 30.5"/><polygon class="cls-3" points="50.5 30.5 50.5 45.5 20.02 45.5 35.02 30.5 50.5 30.5"/><polygon class="cls-3" points="50.5 30.5 50.5 45.5 18.5 45.5 33.5 30.5 50.5 30.5"/><polygon class="cls-3" points="50.5 30.5 50.5 45.5 16.97 45.5 31.97 30.5 50.5 30.5"/><polygon class="cls-3" points="50.5 30.5 50.5 45.5 15.44 45.5 30.44 30.5 50.5 30.5"/><polygon class="cls-3" points="50.5 30.5 50.5 45.5 13.91 45.5 28.91 30.5 50.5 30.5"/><polygon class="cls-3" points="50.5 30.5 50.5 45.5 12.39 45.5 27.39 30.5 50.5 30.5"/><polygon class="cls-3" points="50.5 30.5 50.5 45.5 10.86 45.5 25.86 30.5 50.5 30.5"/><polygon class="cls-3" points="50.5 30.5 50.5 45.5 9.33 45.5 24.33 30.5 50.5 30.5"/><polygon class="cls-3" points="50.5 30.5 50.5 45.5 7.8 45.5 22.8 30.5 50.5 30.5"/><polygon class="cls-3" points="50.5 30.5 50.5 45.5 6.28 45.5 21.28 30.5 50.5 30.5"/><polygon class="cls-3" points="50.5 30.5 50.5 45.5 4.75 45.5 19.75 30.5 50.5 30.5"/><polygon class="cls-3" points="50.5 30.5 50.5 45.5 3.22 45.5 18.22 30.5 50.5 30.5"/><polygon class="cls-3" points="50.5 30.5 50.5 45.5 1.69 45.5 16.69 30.5 50.5 30.5"/><polygon class="cls-3" points="50.5 30.5 50.5 45.5 0.5 45.5 0.5 45.17 15.17 30.5 50.5 30.5"/><polygon class="cls-3" points="50.5 30.5 50.5 45.5 0.5 45.5 0.5 43.64 13.64 30.5 50.5 30.5"/><polygon class="cls-3" points="50.5 30.5 50.5 45.5 0.5 45.5 0.5 42.11 12.11 30.5 50.5 30.5"/><polygon class="cls-3" points="50.5 30.5 50.5 45.5 0.5 45.5 0.5 40.59 10.59 30.5 50.5 30.5"/><polygon class="cls-3" points="50.5 30.5 50.5 45.5 0.5 45.5 0.5 39.06 9.06 30.5 50.5 30.5"/><polygon class="cls-3" points="50.5 30.5 50.5 45.5 0.5 45.5 0.5 37.53 7.53 30.5 50.5 30.5"/><polygon class="cls-3" points="50.5 30.5 50.5 45.5 0.5 45.5 0.5 36 6 30.5 50.5 30.5"/><polygon class="cls-3" points="50.5 30.5 50.5 45.5 0.5 45.5 0.5 34.48 4.48 30.5 50.5 30.5"/><polygon class="cls-3" points="50.5 30.5 50.5 45.5 0.5 45.5 0.5 32.95 2.95 30.5 50.5 30.5"/><rect class="cls-2" x="0.5" y="45.5" width="50" height="15"/><polygon class="cls-3" points="3.39 60.5 0.5 60.5 0.5 57.61 3.39 60.5"/><polygon class="cls-3" points="5.42 60.5 0.5 60.5 0.5 55.58 5.42 60.5"/><polygon class="cls-3" points="7.44 60.5 0.5 60.5 0.5 53.56 7.44 60.5"/><polygon class="cls-3" points="9.46 60.5 0.5 60.5 0.5 51.54 9.46 60.5"/><polygon class="cls-3" points="0.5 60.5 0.5 49.51 11.49 60.5 0.5 60.5"/><polygon class="cls-3" points="0.5 60.5 0.5 47.49 13.51 60.5 0.5 60.5"/><polygon class="cls-3" points="15.54 60.5 0.5 60.5 0.5 45.5 0.54 45.5 15.54 60.5"/><polygon class="cls-3" points="17.56 60.5 0.5 60.5 0.5 45.5 2.56 45.5 17.56 60.5"/><polygon class="cls-3" points="19.58 60.5 0.5 60.5 0.5 45.5 4.58 45.5 19.58 60.5"/><polygon class="cls-3" points="21.6 60.5 0.5 60.5 0.5 45.5 6.6 45.5 21.6 60.5"/><polygon class="cls-3" points="0.5 60.5 0.5 45.5 8.63 45.5 23.63 60.5 0.5 60.5"/><polygon class="cls-3" points="25.65 60.5 0.5 60.5 0.5 45.5 10.65 45.5 25.65 60.5"/><polygon class="cls-3" points="27.68 60.5 0.5 60.5 0.5 45.5 12.68 45.5 27.68 60.5"/><polygon class="cls-3" points="29.7 60.5 0.5 60.5 0.5 45.5 14.7 45.5 29.7 60.5"/><polygon class="cls-3" points="31.72 60.5 0.5 60.5 0.5 45.5 16.72 45.5 31.72 60.5"/><polygon class="cls-3" points="0.5 60.5 0.5 45.5 18.75 45.5 33.75 60.5 0.5 60.5"/><polygon class="cls-3" points="0.5 60.5 0.5 45.5 20.77 45.5 35.77 60.5 0.5 60.5"/><polygon class="cls-3" points="37.8 60.5 0.5 60.5 0.5 45.5 22.8 45.5 37.8 60.5"/><polygon class="cls-3" points="39.82 60.5 0.5 60.5 0.5 45.5 24.82 45.5 39.82 60.5"/><polygon class="cls-3" points="41.84 60.5 0.5 60.5 0.5 45.5 26.84 45.5 41.84 60.5"/><polygon class="cls-3" points="43.86 60.5 0.5 60.5 0.5 45.5 28.86 45.5 43.86 60.5"/><polygon class="cls-3" points="0.5 60.5 0.5 45.5 30.89 45.5 45.89 60.5 0.5 60.5"/><polygon class="cls-3" points="47.91 60.5 0.5 60.5 0.5 45.5 32.91 45.5 47.91 60.5"/><polygon class="cls-3" points="49.94 60.5 0.5 60.5 0.5 45.5 34.94 45.5 49.94 60.5"/><polygon class="cls-3" points="50.5 59.04 50.5 60.5 0.5 60.5 0.5 45.5 36.96 45.5 50.5 59.04"/><polygon class="cls-3" points="50.5 57.02 50.5 60.5 0.5 60.5 0.5 45.5 38.98 45.5 50.5 57.02"/><polygon class="cls-3" points="0.5 60.5 0.5 45.5 41.01 45.5 50.5 54.99 50.5 60.5 0.5 60.5"/><polygon class="cls-3" points="0.5 60.5 0.5 45.5 43.03 45.5 50.5 52.97 50.5 60.5 0.5 60.5"/><polygon class="cls-3" points="50.5 50.94 50.5 60.5 0.5 60.5 0.5 45.5 45.06 45.5 50.5 50.94"/><polygon class="cls-3" points="50.5 48.92 50.5 60.5 0.5 60.5 0.5 45.5 47.08 45.5 50.5 48.92"/><rect class="cls-4" x="0.5" y="0.5" width="50" height="15"/><line class="cls-4" x1="2.41" y1="13.28" x2="3.41" y2="13.28"/><line class="cls-4" x1="5.41" y1="13.28" x2="6.41" y2="13.28"/><line class="cls-4" x1="8.41" y1="13.28" x2="9.41" y2="13.28"/><line class="cls-4" x1="11.41" y1="13.28" x2="12.41" y2="13.28"/><line class="cls-4" x1="14.41" y1="13.28" x2="15.41" y2="13.28"/><line class="cls-4" x1="17.41" y1="13.28" x2="18.41" y2="13.28"/><line class="cls-4" x1="20.41" y1="13.28" x2="21.41" y2="13.28"/><line class="cls-4" x1="23.41" y1="13.28" x2="24.41" y2="13.28"/><line class="cls-4" x1="26.41" y1="13.28" x2="27.41" y2="13.28"/><line class="cls-4" x1="29.41" y1="13.28" x2="30.41" y2="13.28"/><line class="cls-4" x1="32.41" y1="13.28" x2="33.41" y2="13.28"/><line class="cls-4" x1="35.41" y1="13.28" x2="36.41" y2="13.28"/><line class="cls-4" x1="38.41" y1="13.28" x2="39.41" y2="13.28"/><line class="cls-4" x1="41.41" y1="13.28" x2="42.41" y2="13.28"/><line class="cls-4" x1="44.41" y1="13.28" x2="45.41" y2="13.28"/><line class="cls-4" x1="47.41" y1="13.28" x2="48.41" y2="13.28"/><line class="cls-4" x1="2.41" y1="11.2" x2="3.41" y2="11.2"/><line class="cls-4" x1="5.41" y1="11.2" x2="6.41" y2="11.2"/><line class="cls-4" x1="8.41" y1="11.2" x2="9.41" y2="11.2"/><line class="cls-4" x1="11.41" y1="11.2" x2="12.41" y2="11.2"/><line class="cls-4" x1="14.41" y1="11.2" x2="15.41" y2="11.2"/><line class="cls-4" x1="17.41" y1="11.2" x2="18.41" y2="11.2"/><line class="cls-4" x1="20.41" y1="11.2" x2="21.41" y2="11.2"/><line class="cls-4" x1="23.41" y1="11.2" x2="24.41" y2="11.2"/><line class="cls-4" x1="26.41" y1="11.2" x2="27.41" y2="11.2"/><line class="cls-4" x1="29.41" y1="11.2" x2="30.41" y2="11.2"/><line class="cls-4" x1="32.41" y1="11.2" x2="33.41" y2="11.2"/><line class="cls-4" x1="35.41" y1="11.2" x2="36.41" y2="11.2"/><line class="cls-4" x1="38.41" y1="11.2" x2="39.41" y2="11.2"/><line class="cls-4" x1="41.41" y1="11.2" x2="42.41" y2="11.2"/><line class="cls-4" x1="44.41" y1="11.2" x2="45.41" y2="11.2"/><line class="cls-4" x1="47.41" y1="11.2" x2="48.41" y2="11.2"/><line class="cls-4" x1="2.41" y1="9.11" x2="3.41" y2="9.11"/><line class="cls-4" x1="5.41" y1="9.11" x2="6.41" y2="9.11"/><line class="cls-4" x1="8.41" y1="9.11" x2="9.41" y2="9.11"/><line class="cls-4" x1="11.41" y1="9.11" x2="12.41" y2="9.11"/><line class="cls-4" x1="14.41" y1="9.11" x2="15.41" y2="9.11"/><line class="cls-4" x1="17.41" y1="9.11" x2="18.41" y2="9.11"/><line class="cls-4" x1="20.41" y1="9.11" x2="21.41" y2="9.11"/><line class="cls-4" x1="23.41" y1="9.11" x2="24.41" y2="9.11"/><line class="cls-4" x1="26.41" y1="9.11" x2="27.41" y2="9.11"/><line class="cls-4" x1="29.41" y1="9.11" x2="30.41" y2="9.11"/><line class="cls-4" x1="32.41" y1="9.11" x2="33.41" y2="9.11"/><line class="cls-4" x1="35.41" y1="9.11" x2="36.41" y2="9.11"/><line class="cls-4" x1="38.41" y1="9.11" x2="39.41" y2="9.11"/><line class="cls-4" x1="41.41" y1="9.11" x2="42.41" y2="9.11"/><line class="cls-4" x1="44.41" y1="9.11" x2="45.41" y2="9.11"/><line class="cls-4" x1="47.41" y1="9.11" x2="48.41" y2="9.11"/><line class="cls-4" x1="2.41" y1="7.03" x2="3.41" y2="7.03"/><line class="cls-4" x1="5.41" y1="7.03" x2="6.41" y2="7.03"/><line class="cls-4" x1="8.41" y1="7.03" x2="9.41" y2="7.03"/><line class="cls-4" x1="11.41" y1="7.03" x2="12.41" y2="7.03"/><line class="cls-4" x1="14.41" y1="7.03" x2="15.41" y2="7.03"/><line class="cls-4" x1="17.41" y1="7.03" x2="18.41" y2="7.03"/><line class="cls-4" x1="20.41" y1="7.03" x2="21.41" y2="7.03"/><line class="cls-4" x1="23.41" y1="7.03" x2="24.41" y2="7.03"/><line class="cls-4" x1="26.41" y1="7.03" x2="27.41" y2="7.03"/><line class="cls-4" x1="29.41" y1="7.03" x2="30.41" y2="7.03"/><line class="cls-4" x1="32.41" y1="7.03" x2="33.41" y2="7.03"/><line class="cls-4" x1="35.41" y1="7.03" x2="36.41" y2="7.03"/><line class="cls-4" x1="38.41" y1="7.03" x2="39.41" y2="7.03"/><line class="cls-4" x1="41.41" y1="7.03" x2="42.41" y2="7.03"/><line class="cls-4" x1="44.41" y1="7.03" x2="45.41" y2="7.03"/><line class="cls-4" x1="47.41" y1="7.03" x2="48.41" y2="7.03"/><line class="cls-4" x1="2.41" y1="4.95" x2="3.41" y2="4.95"/><line class="cls-4" x1="5.41" y1="4.95" x2="6.41" y2="4.95"/><line class="cls-4" x1="8.41" y1="4.95" x2="9.41" y2="4.95"/><line class="cls-4" x1="11.41" y1="4.95" x2="12.41" y2="4.95"/><line class="cls-4" x1="14.41" y1="4.95" x2="15.41" y2="4.95"/><line class="cls-4" x1="17.41" y1="4.95" x2="18.41" y2="4.95"/><line class="cls-4" x1="20.41" y1="4.95" x2="21.41" y2="4.95"/><line class="cls-4" x1="23.41" y1="4.95" x2="24.41" y2="4.95"/><line class="cls-4" x1="26.41" y1="4.95" x2="27.41" y2="4.95"/><line class="cls-4" x1="29.41" y1="4.95" x2="30.41" y2="4.95"/><line class="cls-4" x1="32.41" y1="4.95" x2="33.41" y2="4.95"/><line class="cls-4" x1="35.41" y1="4.95" x2="36.41" y2="4.95"/><line class="cls-4" x1="38.41" y1="4.95" x2="39.41" y2="4.95"/><line class="cls-4" x1="41.41" y1="4.95" x2="42.41" y2="4.95"/><line class="cls-4" x1="44.41" y1="4.95" x2="45.41" y2="4.95"/><line class="cls-4" x1="47.41" y1="4.95" x2="48.41" y2="4.95"/><line class="cls-4" x1="2.41" y1="2.86" x2="3.41" y2="2.86"/><line class="cls-4" x1="5.41" y1="2.86" x2="6.41" y2="2.86"/><line class="cls-4" x1="8.41" y1="2.86" x2="9.41" y2="2.86"/><line class="cls-4" x1="11.41" y1="2.86" x2="12.41" y2="2.86"/><line class="cls-4" x1="14.41" y1="2.86" x2="15.41" y2="2.86"/><line class="cls-4" x1="17.41" y1="2.86" x2="18.41" y2="2.86"/><line class="cls-4" x1="20.41" y1="2.86" x2="21.41" y2="2.86"/><line class="cls-4" x1="23.41" y1="2.86" x2="24.41" y2="2.86"/><line class="cls-4" x1="26.41" y1="2.86" x2="27.41" y2="2.86"/><line class="cls-4" x1="29.41" y1="2.86" x2="30.41" y2="2.86"/><line class="cls-4" x1="32.41" y1="2.86" x2="33.41" y2="2.86"/><line class="cls-4" x1="35.41" y1="2.86" x2="36.41" y2="2.86"/><line class="cls-4" x1="38.41" y1="2.86" x2="39.41" y2="2.86"/><line class="cls-4" x1="41.41" y1="2.86" x2="42.41" y2="2.86"/><line class="cls-4" x1="44.41" y1="2.86" x2="45.41" y2="2.86"/><line class="cls-4" x1="47.41" y1="2.86" x2="48.41" y2="2.86"/><rect class="cls-2" x="0.5" y="15.5" width="50" height="15"/><rect class="cls-3" x="0.5" y="15.5" width="1.25" height="15"/><rect class="cls-3" x="0.5" y="15.5" width="2.12" height="15"/><rect class="cls-3" x="0.5" y="15.5" width="3" height="15"/><rect class="cls-3" x="0.5" y="15.5" width="3.88" height="15"/><rect class="cls-3" x="0.5" y="15.5" width="4.75" height="15"/><rect class="cls-3" x="0.5" y="15.5" width="5.62" height="15"/><rect class="cls-3" x="0.5" y="15.5" width="6.5" height="15"/><rect class="cls-3" x="0.5" y="15.5" width="7.38" height="15"/><rect class="cls-3" x="0.5" y="15.5" width="8.25" height="15"/><rect class="cls-3" x="0.5" y="15.5" width="9.12" height="15"/><rect class="cls-3" x="0.5" y="15.5" width="10" height="15"/><rect class="cls-3" x="0.5" y="15.5" width="10.88" height="15"/><rect class="cls-3" x="0.5" y="15.5" width="11.75" height="15"/><rect class="cls-3" x="0.5" y="15.5" width="12.62" height="15"/><rect class="cls-3" x="0.5" y="15.5" width="13.5" height="15"/><rect class="cls-3" x="0.5" y="15.5" width="14.38" height="15"/><rect class="cls-3" x="0.5" y="15.5" width="15.25" height="15"/><rect class="cls-3" x="0.5" y="15.5" width="16.12" height="15"/><rect class="cls-3" x="0.5" y="15.5" width="17" height="15"/><rect class="cls-3" x="0.5" y="15.5" width="17.88" height="15"/><rect class="cls-3" x="0.5" y="15.5" width="18.75" height="15"/><rect class="cls-3" x="0.5" y="15.5" width="19.62" height="15"/><rect class="cls-3" x="0.5" y="15.5" width="20.5" height="15"/><rect class="cls-3" x="0.5" y="15.5" width="21.38" height="15"/><rect class="cls-3" x="0.5" y="15.5" width="22.25" height="15"/><rect class="cls-3" x="0.5" y="15.5" width="23.12" height="15"/><rect class="cls-3" x="0.5" y="15.5" width="24" height="15"/><rect class="cls-3" x="0.5" y="15.5" width="24.88" height="15"/><rect class="cls-3" x="0.5" y="15.5" width="25.75" height="15"/><rect class="cls-3" x="0.5" y="15.5" width="26.62" height="15"/><rect class="cls-3" x="0.5" y="15.5" width="27.5" height="15"/><rect class="cls-3" x="0.5" y="15.5" width="28.38" height="15"/><rect class="cls-3" x="0.5" y="15.5" width="29.25" height="15"/><rect class="cls-3" x="0.5" y="15.5" width="30.12" height="15"/><rect class="cls-3" x="0.5" y="15.5" width="31" height="15"/><rect class="cls-3" x="0.5" y="15.5" width="31.88" height="15"/><rect class="cls-3" x="0.5" y="15.5" width="32.75" height="15"/><rect class="cls-3" x="0.5" y="15.5" width="33.62" height="15"/><rect class="cls-3" x="0.5" y="15.5" width="34.5" height="15"/><rect class="cls-3" x="0.5" y="15.5" width="35.38" height="15"/><rect class="cls-3" x="0.5" y="15.5" width="36.25" height="15"/><rect class="cls-3" x="0.5" y="15.5" width="37.12" height="15"/><rect class="cls-3" x="0.5" y="15.5" width="38" height="15"/><rect class="cls-3" x="0.5" y="15.5" width="38.88" height="15"/><rect class="cls-3" x="0.5" y="15.5" width="39.75" height="15"/><rect class="cls-3" x="0.5" y="15.5" width="40.62" height="15"/><rect class="cls-3" x="0.5" y="15.5" width="41.5" height="15"/><rect class="cls-3" x="0.5" y="15.5" width="42.38" height="15"/><rect class="cls-3" x="0.5" y="15.5" width="43.25" height="15"/><rect class="cls-3" x="0.5" y="15.5" width="44.12" height="15"/><rect class="cls-3" x="0.5" y="15.5" width="45" height="15"/><rect class="cls-3" x="0.5" y="15.5" width="45.88" height="15"/><rect class="cls-3" x="0.5" y="15.5" width="46.75" height="15"/><rect class="cls-3" x="0.5" y="15.5" width="47.62" height="15"/><rect class="cls-3" x="0.5" y="15.5" width="48.5" height="15"/><rect class="cls-3" x="0.5" y="15.5" width="50" height="1.38"/><rect class="cls-3" x="0.5" y="15.5" width="50" height="2.38"/><rect class="cls-3" x="0.5" y="15.5" width="50" height="3.38"/><rect class="cls-3" x="0.5" y="15.5" width="50" height="4.38"/><rect class="cls-3" x="0.5" y="15.5" width="50" height="5.38"/><rect class="cls-3" x="0.5" y="15.5" width="50" height="6.38"/><rect class="cls-3" x="0.5" y="15.5" width="50" height="7.38"/><rect class="cls-3" x="0.5" y="15.5" width="50" height="8.38"/><rect class="cls-3" x="0.5" y="15.5" width="50" height="9.38"/><rect class="cls-3" x="0.5" y="15.5" width="50" height="10.38"/><rect class="cls-3" x="0.5" y="15.5" width="50" height="11.38"/><rect class="cls-3" x="0.5" y="15.5" width="50" height="12.38"/><rect class="cls-3" x="0.5" y="15.5" width="50" height="13.38"/><rect class="cls-4" x="0.5" y="75.5" width="50" height="15"/><polygon class="cls-3" points="46.84 75.5 46.9 75.56 47.94 76.59 48.97 77.62 50 78.65 50.5 79.16 50.5 75.5 46.84 75.5"/><polygon class="cls-3" points="50.5 81.16 50.5 75.5 44.84 75.5 45.9 76.56 46.94 77.59 47.97 78.62 49 79.65 50.03 80.69 50.5 81.16"/><polygon class="cls-3" points="50.5 83.16 50.5 75.5 42.84 75.5 44.9 77.56 45.94 78.59 46.97 79.62 48 80.65 49.03 81.69 50.06 82.72 50.5 83.16"/><polygon class="cls-3" points="50.5 85.16 50.5 75.5 40.84 75.5 43.9 78.56 44.94 79.59 45.97 80.62 47 81.65 48.03 82.69 49.06 83.72 50.09 84.75 50.5 85.16"/><polygon class="cls-3" points="50.5 87.16 50.5 75.5 38.84 75.5 39.81 76.47 40.84 77.5 42.9 79.56 43.94 80.59 44.97 81.62 46 82.65 47.03 83.69 48.06 84.72 49.09 85.75 50.12 86.78 50.5 87.16"/><polygon class="cls-3" points="50.5 89.16 50.5 75.5 36.84 75.5 37.78 76.44 38.81 77.47 39.84 78.5 41.9 80.56 42.94 81.59 43.97 82.62 45 83.65 46.03 84.69 47.06 85.72 48.09 86.75 49.12 87.78 50.5 89.16"/><polygon class="cls-3" points="50.5 90.5 50.5 75.5 34.84 75.5 35.75 76.4 36.78 77.44 37.81 78.47 38.84 79.5 40.9 81.56 41.94 82.59 42.97 83.62 44 84.65 45.03 85.69 46.06 86.72 47.09 87.75 49.84 90.5 50.5 90.5"/><polygon class="cls-3" points="50.5 90.5 50.5 75.5 32.84 75.5 33.72 76.37 34.75 77.4 35.78 78.44 36.81 79.47 37.84 80.5 39.9 82.56 40.94 83.59 41.97 84.62 43 85.65 44.03 86.69 45.06 87.72 46.09 88.75 47.84 90.5 50.5 90.5"/><polygon class="cls-3" points="50.5 90.5 50.5 75.5 30.84 75.5 31.69 76.34 32.72 77.37 33.75 78.4 34.78 79.44 35.81 80.47 36.84 81.5 38.9 83.56 39.94 84.59 40.97 85.62 42 86.65 43.03 87.69 44.06 88.72 45.09 89.75 45.84 90.5 50.5 90.5"/><polygon class="cls-3" points="50.5 90.5 50.5 75.5 28.84 75.5 29.65 76.31 30.69 77.34 31.72 78.37 32.75 79.4 33.78 80.44 34.81 81.47 35.84 82.5 37.9 84.56 38.94 85.59 39.97 86.62 41 87.65 42.03 88.69 43.06 89.72 43.84 90.5 50.5 90.5"/><polygon class="cls-3" points="50.5 90.5 50.5 75.5 26.84 75.5 28.65 77.31 29.69 78.34 30.72 79.37 31.75 80.4 32.78 81.44 33.81 82.47 34.84 83.5 36.9 85.56 37.94 86.59 38.97 87.62 40 88.65 41.03 89.69 41.84 90.5 50.5 90.5"/><polygon class="cls-3" points="50.5 90.5 50.5 75.5 24.84 75.5 27.65 78.31 28.69 79.34 29.72 80.37 30.75 81.4 31.78 82.44 32.81 83.47 33.84 84.5 35.9 86.56 36.94 87.59 37.97 88.62 39 89.65 39.84 90.5 50.5 90.5"/><polygon class="cls-3" points="50.5 90.5 50.5 75.5 22.84 75.5 23.56 76.22 24.59 77.25 26.65 79.31 27.69 80.34 28.72 81.37 29.75 82.4 30.78 83.44 31.81 84.47 32.84 85.5 34.9 87.56 35.94 88.59 36.97 89.62 37.84 90.5 50.5 90.5"/><polygon class="cls-3" points="50.5 90.5 50.5 75.5 20.84 75.5 21.53 76.19 22.56 77.22 23.59 78.25 25.65 80.31 26.69 81.34 27.72 82.37 28.75 83.4 29.78 84.44 30.81 85.47 31.84 86.5 33.9 88.56 34.94 89.59 35.84 90.5 50.5 90.5"/><polygon class="cls-3" points="50.5 90.5 50.5 75.5 18.84 75.5 19.5 76.15 20.53 77.19 21.56 78.22 22.59 79.25 24.65 81.31 25.69 82.34 26.72 83.37 27.75 84.4 28.78 85.44 29.81 86.47 30.84 87.5 33.84 90.5 50.5 90.5"/><polygon class="cls-3" points="50.5 90.5 50.5 75.5 16.84 75.5 17.47 76.12 18.5 77.15 19.53 78.19 20.56 79.22 21.59 80.25 23.65 82.31 24.69 83.34 25.72 84.37 26.75 85.4 27.78 86.44 28.81 87.47 29.84 88.5 31.84 90.5 50.5 90.5"/><polygon class="cls-3" points="50.5 90.5 50.5 75.5 14.84 75.5 15.44 76.09 16.47 77.12 17.5 78.15 18.53 79.19 19.56 80.22 20.59 81.25 22.65 83.31 23.69 84.34 24.72 85.37 25.75 86.4 26.78 87.44 27.81 88.47 28.84 89.5 29.84 90.5 50.5 90.5"/><polygon class="cls-3" points="50.5 90.5 50.5 75.5 12.84 75.5 13.4 76.06 14.44 77.09 15.47 78.12 16.5 79.15 17.53 80.19 18.56 81.22 19.59 82.25 21.65 84.31 22.69 85.34 23.72 86.37 24.75 87.4 25.78 88.44 26.81 89.47 27.84 90.5 50.5 90.5"/><polygon class="cls-3" points="50.5 90.5 50.5 75.5 10.84 75.5 12.4 77.06 13.44 78.09 14.47 79.12 15.5 80.15 16.53 81.19 17.56 82.22 18.59 83.25 20.65 85.31 21.69 86.34 22.72 87.37 23.75 88.4 24.78 89.44 25.81 90.47 25.84 90.5 50.5 90.5"/><polygon class="cls-3" points="50.5 90.5 50.5 75.5 8.84 75.5 11.4 78.06 12.44 79.09 13.47 80.12 14.5 81.15 15.53 82.19 16.56 83.22 17.59 84.25 19.65 86.31 20.69 87.34 21.72 88.37 22.75 89.4 23.78 90.44 23.84 90.5 50.5 90.5"/><polygon class="cls-3" points="50.5 90.5 50.5 75.5 6.84 75.5 7.31 75.97 8.34 77 10.4 79.06 11.44 80.09 12.47 81.12 13.5 82.15 14.53 83.19 15.56 84.22 16.59 85.25 18.65 87.31 19.69 88.34 20.72 89.37 21.75 90.4 21.84 90.5 50.5 90.5"/><polygon class="cls-3" points="50.5 90.5 50.5 75.5 4.84 75.5 5.28 75.94 6.31 76.97 7.34 78 9.4 80.06 10.44 81.09 11.47 82.12 12.5 83.15 13.53 84.19 14.56 85.22 15.59 86.25 17.65 88.31 18.69 89.34 19.72 90.37 19.84 90.5 50.5 90.5"/><polygon class="cls-3" points="50.5 90.5 50.5 75.5 2.84 75.5 3.25 75.9 4.28 76.94 5.31 77.97 6.34 79 8.4 81.06 9.44 82.09 10.47 83.12 11.5 84.15 12.53 85.19 13.56 86.22 14.59 87.25 16.65 89.31 17.69 90.34 17.84 90.5 50.5 90.5"/><polygon class="cls-3" points="50.5 90.5 50.5 75.5 0.84 75.5 2.25 76.9 3.28 77.94 4.31 78.97 5.34 80 7.4 82.06 8.44 83.09 9.47 84.12 10.5 85.15 11.53 86.19 12.56 87.22 13.59 88.25 15.84 90.5 50.5 90.5"/><polygon class="cls-3" points="50.5 90.5 50.5 75.5 0.5 75.5 0.5 77.16 1.25 77.9 2.28 78.94 3.31 79.97 4.34 81 6.4 83.06 7.44 84.09 8.47 85.12 9.5 86.15 10.53 87.19 11.56 88.22 12.59 89.25 13.84 90.5 50.5 90.5"/><polygon class="cls-3" points="50.5 90.5 50.5 75.5 0.5 75.5 0.5 79.16 1.28 79.94 2.31 80.97 3.34 82 5.4 84.06 6.44 85.09 7.47 86.12 8.5 87.15 9.53 88.19 10.56 89.22 11.59 90.25 11.84 90.5 50.5 90.5"/><polygon class="cls-3" points="50.5 90.5 50.5 75.5 0.5 75.5 0.5 81.16 1.31 81.97 2.34 83 4.4 85.06 5.44 86.09 6.47 87.12 7.5 88.15 8.53 89.19 9.56 90.22 9.84 90.5 50.5 90.5"/><polygon class="cls-3" points="50.5 90.5 50.5 75.5 0.5 75.5 0.5 83.16 1.34 84 3.4 86.06 4.44 87.09 5.47 88.12 6.5 89.15 7.53 90.19 7.84 90.5 50.5 90.5"/><polygon class="cls-3" points="50.5 90.5 50.5 75.5 0.5 75.5 0.5 85.16 1.37 86.03 2.4 87.06 3.44 88.09 4.47 89.12 5.5 90.15 5.84 90.5 50.5 90.5"/><polygon class="cls-3" points="50.5 90.5 50.5 75.5 0.5 75.5 0.5 87.16 1.4 88.06 2.44 89.09 3.47 90.12 3.84 90.5 50.5 90.5"/><polygon class="cls-3" points="3.65 75.5 0.5 75.5 0.5 78.65 3.65 75.5"/><polygon class="cls-3" points="5.72 75.5 0.5 75.5 0.5 80.72 5.72 75.5"/><polygon class="cls-3" points="7.78 75.5 0.5 75.5 0.5 82.78 7.78 75.5"/><polygon class="cls-3" points="9.84 75.5 0.5 75.5 0.5 84.84 9.84 75.5"/><polygon class="cls-3" points="11.9 75.5 0.5 75.5 0.5 86.9 1.37 86.03 11.37 76.03 11.9 75.5"/><polygon class="cls-3" points="13.96 75.5 0.5 75.5 0.5 88.96 13.96 75.5"/><polygon class="cls-3" points="16.03 75.5 0.5 75.5 0.5 90.5 1.03 90.5 16.03 75.5"/><polygon class="cls-3" points="18.09 75.5 0.5 75.5 0.5 90.5 3.09 90.5 18.09 75.5"/><polygon class="cls-3" points="20.15 75.5 0.5 75.5 0.5 90.5 5.15 90.5 20.15 75.5"/><polygon class="cls-3" points="22.22 75.5 0.5 75.5 0.5 90.5 7.22 90.5 22.22 75.5"/><polygon class="cls-3" points="24.28 75.5 0.5 75.5 0.5 90.5 9.28 90.5 24.28 75.5"/><polygon class="cls-3" points="26.34 75.5 0.5 75.5 0.5 90.5 11.34 90.5 26.34 75.5"/><polygon class="cls-3" points="28.4 75.5 0.5 75.5 0.5 90.5 13.4 90.5 13.62 90.28 27.62 76.28 28.4 75.5"/><polygon class="cls-3" points="30.46 75.5 0.5 75.5 0.5 90.5 15.46 90.5 30.46 75.5"/><polygon class="cls-3" points="32.53 75.5 0.5 75.5 0.5 90.5 17.53 90.5 32.53 75.5"/><polygon class="cls-3" points="34.59 75.5 0.5 75.5 0.5 90.5 19.59 90.5 34.59 75.5"/><polygon class="cls-3" points="36.65 75.5 0.5 75.5 0.5 90.5 21.65 90.5 36.65 75.5"/><polygon class="cls-3" points="38.72 75.5 0.5 75.5 0.5 90.5 23.72 90.5 38.72 75.5"/><polygon class="cls-3" points="40.78 75.5 0.5 75.5 0.5 90.5 25.78 90.5 40.78 75.5"/><polygon class="cls-3" points="42.84 75.5 0.5 75.5 0.5 90.5 27.84 90.5 42.84 75.5"/><polygon class="cls-3" points="44.9 75.5 0.5 75.5 0.5 90.5 29.9 90.5 30.87 89.53 44.87 75.53 44.9 75.5"/><polygon class="cls-3" points="46.96 75.5 0.5 75.5 0.5 90.5 31.96 90.5 46.96 75.5"/><polygon class="cls-3" points="49.03 75.5 0.5 75.5 0.5 90.5 34.03 90.5 49.03 75.5"/><polygon class="cls-3" points="50.5 76.09 50.5 75.5 0.5 75.5 0.5 90.5 36.09 90.5 50.5 76.09"/><polygon class="cls-3" points="50.5 78.15 50.5 75.5 0.5 75.5 0.5 90.5 38.15 90.5 50.5 78.15"/><polygon class="cls-3" points="50.5 80.22 50.5 75.5 0.5 75.5 0.5 90.5 40.22 90.5 50.5 80.22"/><polygon class="cls-3" points="50.5 82.28 50.5 75.5 0.5 75.5 0.5 90.5 42.28 90.5 50.5 82.28"/><polygon class="cls-3" points="50.5 84.34 50.5 75.5 0.5 75.5 0.5 90.5 44.34 90.5 50.5 84.34"/><polygon class="cls-3" points="50.5 86.4 50.5 75.5 0.5 75.5 0.5 90.5 46.4 90.5 47.12 89.78 50.12 86.78 50.5 86.4"/></g></g></svg>