<svg id="Layer_1" data-name="Layer 1" xmlns="http://www.w3.org/2000/svg" viewBox="0 0 160 160"><defs><style>.cls-1{fill:none;}.cls-1,.cls-2{stroke:#000;stroke-miterlimit:10;stroke-width:2px;}.cls-2{fill:blue;}</style></defs><title>Artboard 5</title><path class="cls-1" d="M142.5,77.5v-60h-60V2.5h-5v15h-60v60H2.5v5h15v60h60v15h5v-15h60v-60h15v-5Zm-65,60h-55v-55h55Zm0-60h-55v-55h55Zm60,60h-55v-55h55Zm0-60h-55v-55h55Z"/><rect class="cls-2" x="22.5" y="82.5" width="55" height="55"/><rect class="cls-1" x="82.5" y="82.5" width="55" height="55"/><rect class="cls-2" x="82.5" y="22.5" width="55" height="55"/><rect class="cls-1" x="22.5" y="22.5" width="55" height="55"/><path d="M130.39,82H82v56h56V82ZM137,83v4.19L132.81,83ZM83,137v-6.39L89.39,137Zm7.81,0L83,129.19v-4.58L95.39,137Zm6,0L83,123.19v-4.58L101.39,137Zm6,0L83,117.19v-4.58L107.39,137Zm6,0L83,111.19v-4.58L113.39,137Zm6,0L83,105.19v-4.58L119.39,137Zm6,0L83,99.19V94.61L125.39,137Zm6,0L83,93.19V88.61L131.39,137ZM137,137h-4.19L83,87.19V83h.39L137,136.61Zm0-1.81L84.81,83h4.58L137,130.61Zm0-6L90.81,83h4.58L137,124.61Zm0-6L96.81,83h4.58L137,118.61Zm0-6L102.81,83h4.58L137,112.61Zm0-6L108.81,83h4.58L137,106.61Zm0-6L114.81,83h4.58L137,100.61Zm0-6L120.81,83h4.58L137,94.61Zm0-6L126.81,83h4.58L137,88.61Z"/><path d="M72.39,22H22V78H78V22ZM23,23h8.39L23,31.39Zm0,9.81L32.81,23h8.58L23,41.39Zm0,10L42.81,23h8.58L23,51.39Zm0,10L52.81,23h8.58L23,61.39Zm0,10L62.81,23h8.58L23,71.39ZM77,77H68.81L77,68.81Zm-9.61,0H58.81L77,58.81v8.58Zm-10,0H48.81L77,48.81v8.58Zm-10,0H38.81L77,38.81v8.58Zm-10,0H28.81L77,28.81v8.58Zm-10,0H23V72.81L72.81,23H77v4.39Z"/></svg>