<svg id="Layer_1" data-name="Layer 1" xmlns="http://www.w3.org/2000/svg" viewBox="0 0 200 200"><defs><style>.cls-1{fill:none;}.cls-1,.cls-2{stroke:#000;stroke-miterlimit:10;}.cls-2{fill:blue;}</style></defs><title>Artboard 3</title><path class="cls-1" d="M162.5,97.5v-60h-60v-15h-5v15h-60v60h-15v5h15v60h60v15h5v-15h60v-60h15v-5Zm-65,60h-55v-55h55Zm0-60h-55v-55h55Zm60,60h-55v-55h55Zm0-60h-55v-55h55Z"/><rect class="cls-2" x="42.5" y="102.5" width="55" height="55"/><rect class="cls-1" x="102.5" y="102.5" width="55" height="55"/><rect class="cls-2" x="102.5" y="42.5" width="55" height="55"/><rect class="cls-1" x="42.5" y="42.5" width="55" height="55"/><path d="M90.39,42H42V98H98V42ZM97,43v4.19L92.81,43ZM43,97V90.61L49.39,97Zm7.81,0L43,89.19V84.61L55.39,97Zm6,0L43,83.19V78.61L61.39,97Zm6,0L43,77.19V72.61L67.39,97Zm6,0L43,71.19V66.61L73.39,97Zm6,0L43,65.19V60.61L79.39,97Zm6,0L43,59.19V54.61L85.39,97Zm6,0L43,53.19V48.61L91.39,97ZM97,97H92.81L43,47.19V43h.39L97,96.61Zm0-1.81L44.81,43h4.58L97,90.61Zm0-6L50.81,43h4.58L97,84.61Zm0-6L56.81,43h4.58L97,78.61Zm0-6L62.81,43h4.58L97,72.61Zm0-6L68.81,43h4.58L97,66.61Zm0-6L74.81,43h4.58L97,60.61Zm0-6L80.81,43h4.58L97,54.61Zm0-6L86.81,43h4.58L97,48.61Z"/><path d="M152.39,102H102v56h56V102ZM103,103h8.39L103,111.39Zm0,9.81,9.81-9.81h8.58L103,121.39Zm0,10L122.81,103h8.58L103,131.39Zm0,10L132.81,103h8.58L103,141.39Zm0,10L142.81,103h8.58L103,151.39ZM157,157h-8.19l8.19-8.19Zm-9.61,0h-8.58L157,138.81v8.58Zm-10,0h-8.58L157,128.81v8.58Zm-10,0h-8.58L157,118.81v8.58Zm-10,0h-8.58L157,108.81v8.58Zm-10,0H103v-4.19L152.81,103H157v4.39Z"/></svg>