<svg id="Layer_1" data-name="Layer 1" xmlns="http://www.w3.org/2000/svg" viewBox="0 0 200 200"><defs><style>.cls-1,.cls-2{fill:none;}.cls-1,.cls-3{stroke:#000;stroke-miterlimit:10;}.cls-3{fill:blue;}</style></defs><title>Artboard 1</title><path class="cls-1" d="M162.5,97.5v-60h-60v-15h-5v15h-60v60h-15v5h15v60h60v15h5v-15h60v-60h15v-5Zm-65,60h-55v-55h55Zm0-60h-55v-55h55Zm60,60h-55v-55h55Zm0-60h-55v-55h55Z"/><rect class="cls-2" x="42.5" y="102.5" width="55" height="55"/><rect class="cls-3" x="102.5" y="102.5" width="55" height="55"/><rect class="cls-1" x="102.5" y="42.5" width="55" height="55"/><rect class="cls-3" x="42.5" y="42.5" width="55" height="55"/><polygon class="cls-2" points="103 71.19 128.81 97 133.39 97 103 66.61 103 71.19"/><polygon class="cls-2" points="104.81 43 157 95.19 157 90.61 109.39 43 104.81 43"/><polygon class="cls-2" points="103 53.19 146.81 97 151.39 97 103 48.61 103 53.19"/><polygon class="cls-2" points="103 43 103 47.19 152.81 97 157 97 157 96.61 103.39 43 103 43"/><polygon class="cls-2" points="103 65.19 134.81 97 139.39 97 103 60.61 103 65.19"/><polygon class="cls-2" points="103 77.19 122.81 97 127.39 97 103 72.61 103 77.19"/><polygon class="cls-2" points="103 97 109.39 97 103 90.61 103 97"/><polygon class="cls-2" points="103 89.19 110.81 97 115.39 97 103 84.61 103 89.19"/><polygon class="cls-2" points="103 83.19 116.81 97 121.39 97 103 78.61 103 83.19"/><polygon class="cls-2" points="103 59.19 140.81 97 145.39 97 103 54.61 103 59.19"/><polygon class="cls-2" points="157 47.19 157 43 152.81 43 157 47.19"/><polygon class="cls-2" points="140.81 43 157 59.19 157 54.61 145.39 43 140.81 43"/><polygon class="cls-2" points="110.81 43 157 89.19 157 84.61 115.39 43 110.81 43"/><polygon class="cls-2" points="146.81 43 157 53.19 157 48.61 151.39 43 146.81 43"/><polygon class="cls-2" points="134.81 43 157 65.19 157 60.61 139.39 43 134.81 43"/><polygon class="cls-2" points="122.81 43 157 77.19 157 72.61 127.39 43 122.81 43"/><polygon class="cls-2" points="116.81 43 157 83.19 157 78.61 121.39 43 116.81 43"/><polygon class="cls-2" points="128.81 43 157 71.19 157 66.61 133.39 43 128.81 43"/><path d="M150.39,42H102V98h56V42ZM103,97V90.61L109.39,97Zm7.81,0L103,89.19V84.61L115.39,97Zm6,0L103,83.19V78.61L121.39,97Zm6,0L103,77.19V72.61L127.39,97Zm6,0L103,71.19V66.61L133.39,97Zm6,0L103,65.19V60.61L139.39,97Zm6,0L103,59.19V54.61L145.39,97Zm6,0L103,53.19V48.61L151.39,97ZM157,97h-4.19L103,47.19V43h.39L157,96.61Zm0-1.81L104.81,43h4.58L157,90.61Zm0-6L110.81,43h4.58L157,84.61Zm0-6L116.81,43h4.58L157,78.61Zm0-6L122.81,43h4.58L157,72.61Zm0-6L128.81,43h4.58L157,66.61Zm0-6L134.81,43h4.58L157,60.61Zm0-6L140.81,43h4.58L157,54.61Zm0-6L146.81,43h4.58L157,48.61Zm0-6L152.81,43H157Z"/><path d="M92.39,102H42v56H98V102ZM43,103h8.39L43,111.39Zm0,9.81L52.81,103h8.58L43,121.39Zm0,10L62.81,103h8.58L43,131.39Zm0,10L72.81,103h8.58L43,141.39Zm0,10L82.81,103h8.58L43,151.39ZM97,157H88.81L97,148.81Zm-9.61,0H78.81L97,138.81v8.58Zm-10,0H68.81L97,128.81v8.58Zm-10,0H58.81L97,118.81v8.58Zm-10,0H48.81L97,108.81v8.58Zm-10,0H43v-4.19L92.81,103H97v4.39Z"/></svg>