<svg id="Layer_1" data-name="Layer 1" xmlns="http://www.w3.org/2000/svg" viewBox="0 0 160 162"><defs><style>.cls-1{fill:none;}.cls-1,.cls-2{stroke:#000;stroke-miterlimit:10;stroke-width:2px;}.cls-2{fill:blue;}</style></defs><title>Artboard 7</title><path class="cls-1" d="M142.5,78.5v-60h-60V3.5h-5v15h-60v60H2.5v5h15v60h60v15h5v-15h60v-60h15v-5Zm-65,60h-55v-55h55Zm0-60h-55v-55h55Zm60,60h-55v-55h55Zm0-60h-55v-55h55Z"/><rect class="cls-2" x="82.5" y="83.5" width="55" height="55"/><rect class="cls-1" x="22.5" y="83.5" width="55" height="55"/><rect class="cls-2" x="22.5" y="23.5" width="55" height="55"/><rect class="cls-1" x="82.5" y="23.5" width="55" height="55"/><path d="M70.39,83H22v56H78V83ZM77,84v4.19L72.81,84ZM23,138v-6.39L29.39,138Zm7.81,0L23,130.19v-4.58L35.39,138Zm6,0L23,124.19v-4.58L41.39,138Zm6,0L23,118.19v-4.58L47.39,138Zm6,0L23,112.19v-4.58L53.39,138Zm6,0L23,106.19v-4.58L59.39,138Zm6,0L23,100.19V95.61L65.39,138Zm6,0L23,94.19V89.61L71.39,138ZM77,138H72.81L23,88.19V84h.39L77,137.61Zm0-1.81L24.81,84h4.58L77,131.61Zm0-6L30.81,84h4.58L77,125.61Zm0-6L36.81,84h4.58L77,119.61Zm0-6L42.81,84h4.58L77,113.61Zm0-6L48.81,84h4.58L77,107.61Zm0-6L54.81,84h4.58L77,101.61Zm0-6L60.81,84h4.58L77,95.61Zm0-6L66.81,84h4.58L77,89.61Z"/><path d="M132.39,23H82V79h56V23ZM83,24h8.39L83,32.39Zm0,9.81L92.81,24h8.58L83,42.39Zm0,10L102.81,24h8.58L83,52.39Zm0,10L112.81,24h8.58L83,62.39Zm0,10L122.81,24h8.58L83,72.39ZM137,78h-8.19L137,69.81Zm-9.61,0h-8.58L137,59.81v8.58Zm-10,0h-8.58L137,49.81v8.58Zm-10,0H98.81L137,39.81v8.58Zm-10,0H88.81L137,29.81v8.58Zm-10,0H83V73.81L132.81,24H137v4.39Z"/></svg>