<svg id="Layer_1" data-name="Layer 1" xmlns="http://www.w3.org/2000/svg" viewBox="0 0 162 160"><defs><style>.cls-1,.cls-2{fill:none;}.cls-1,.cls-3{stroke:#000;stroke-miterlimit:10;stroke-width:2px;}.cls-3{fill:blue;}</style></defs><title>Artboard 1</title><path class="cls-1" d="M143.5,77.5v-60h-60V2.5h-5v15h-60v60H3.5v5h15v60h60v15h5v-15h60v-60h15v-5Zm-65,60h-55v-55h55Zm0-60h-55v-55h55Zm60,60h-55v-55h55Zm0-60h-55v-55h55Z"/><rect class="cls-2" x="23.5" y="82.5" width="55" height="55"/><rect class="cls-3" x="83.5" y="82.5" width="55" height="55"/><rect class="cls-1" x="83.5" y="22.5" width="55" height="55"/><rect class="cls-3" x="23.5" y="22.5" width="55" height="55"/><polygon class="cls-2" points="84 51.19 109.81 77 114.39 77 84 46.61 84 51.19"/><polygon class="cls-2" points="85.81 23 138 75.19 138 70.61 90.39 23 85.81 23"/><polygon class="cls-2" points="84 33.19 127.81 77 132.39 77 84 28.61 84 33.19"/><polygon class="cls-2" points="84 23 84 27.19 133.81 77 138 77 138 76.61 84.39 23 84 23"/><polygon class="cls-2" points="84 45.19 115.81 77 120.39 77 84 40.61 84 45.19"/><polygon class="cls-2" points="84 57.19 103.81 77 108.39 77 84 52.61 84 57.19"/><polygon class="cls-2" points="84 77 90.39 77 84 70.61 84 77"/><polygon class="cls-2" points="84 69.19 91.81 77 96.39 77 84 64.61 84 69.19"/><polygon class="cls-2" points="84 63.19 97.81 77 102.39 77 84 58.61 84 63.19"/><polygon class="cls-2" points="84 39.19 121.81 77 126.39 77 84 34.61 84 39.19"/><polygon class="cls-2" points="138 27.19 138 23 133.81 23 138 27.19"/><polygon class="cls-2" points="121.81 23 138 39.19 138 34.61 126.39 23 121.81 23"/><polygon class="cls-2" points="91.81 23 138 69.19 138 64.61 96.39 23 91.81 23"/><polygon class="cls-2" points="127.81 23 138 33.19 138 28.61 132.39 23 127.81 23"/><polygon class="cls-2" points="115.81 23 138 45.19 138 40.61 120.39 23 115.81 23"/><polygon class="cls-2" points="103.81 23 138 57.19 138 52.61 108.39 23 103.81 23"/><polygon class="cls-2" points="97.81 23 138 63.19 138 58.61 102.39 23 97.81 23"/><polygon class="cls-2" points="109.81 23 138 51.19 138 46.61 114.39 23 109.81 23"/><path d="M131.39,22H83V78h56V22ZM84,77V70.61L90.39,77Zm7.81,0L84,69.19V64.61L96.39,77Zm6,0L84,63.19V58.61L102.39,77Zm6,0L84,57.19V52.61L108.39,77Zm6,0L84,51.19V46.61L114.39,77Zm6,0L84,45.19V40.61L120.39,77Zm6,0L84,39.19V34.61L126.39,77Zm6,0L84,33.19V28.61L132.39,77ZM138,77h-4.19L84,27.19V23h.39L138,76.61Zm0-1.81L85.81,23h4.58L138,70.61Zm0-6L91.81,23h4.58L138,64.61Zm0-6L97.81,23h4.58L138,58.61Zm0-6L103.81,23h4.58L138,52.61Zm0-6L109.81,23h4.58L138,46.61Zm0-6L115.81,23h4.58L138,40.61Zm0-6L121.81,23h4.58L138,34.61Zm0-6L127.81,23h4.58L138,28.61Zm0-6L133.81,23H138Z"/><path d="M73.39,82H23v56H79V82ZM24,83h8.39L24,91.39Zm0,9.81L33.81,83h8.58L24,101.39Zm0,10L43.81,83h8.58L24,111.39Zm0,10L53.81,83h8.58L24,121.39Zm0,10L63.81,83h8.58L24,131.39ZM78,137H69.81L78,128.81Zm-9.61,0H59.81L78,118.81v8.58Zm-10,0H49.81L78,108.81v8.58Zm-10,0H39.81L78,98.81v8.58Zm-10,0H29.81L78,88.81v8.58Zm-10,0H24v-4.19L73.81,83H78v4.39Z"/></svg>