<svg id="Layer_1" data-name="Layer 1" xmlns="http://www.w3.org/2000/svg" viewBox="0 0 160 160"><defs><style>.cls-1{fill:none;}.cls-1,.cls-2{stroke:#000;stroke-miterlimit:10;stroke-width:2px;}.cls-2{fill:blue;}</style></defs><title>Artboard5</title><path class="cls-1" d="M142.5,77.5v-60h-60V2.5h-5v15h-60v60H2.5v5h15v60h60v15h5v-15h60v-60h15v-5Zm-65,60h-55v-55h55Zm0-60h-55v-55h55Zm60,60h-55v-55h55Zm0-60h-55v-55h55Z"/><rect class="cls-2" x="22.5" y="82.5" width="55" height="55"/><rect class="cls-2" x="82.5" y="22.5" width="55" height="55"/><path d="M72.39,22H22V78H78V22ZM23,23h8.39L23,31.39Zm0,9.81L32.81,23h8.58L23,41.39Zm0,10L42.81,23h8.58L23,51.39Zm0,10L52.81,23h8.58L23,61.39Zm0,10L62.81,23h8.58L23,71.39ZM77,77H68.81L77,68.81Zm-9.61,0H58.81L77,58.81v8.58Zm-10,0H48.81L77,48.81v8.58Zm-10,0H38.81L77,38.81v8.58Zm-10,0H28.81L77,28.81v8.58Zm-10,0H23V72.81L72.81,23H77v4.39Z"/><path d="M82,87.61V138h56V82H82ZM83,137v-8.39L91.39,137Zm9.81,0L83,127.19v-8.58L101.39,137Zm10,0L83,117.19v-8.58L111.39,137Zm10,0L83,107.19V98.61L121.39,137Zm10,0L83,97.19V88.61L131.39,137ZM137,83v8.19L128.81,83Zm0,9.61v8.58L118.81,83h8.58Zm0,10v8.58L108.81,83h8.58Zm0,10v8.58L98.81,83h8.58Zm0,10v8.58L88.81,83h8.58Zm0,10V137h-4.19L83,87.19V83h4.39Z"/></svg>