<svg id="Layer_1" data-name="Layer 1" xmlns="http://www.w3.org/2000/svg" viewBox="0 0 161 162"><defs><style>.cls-1{fill:none;}.cls-1,.cls-2{stroke:#000;stroke-miterlimit:10;stroke-width:2px;}.cls-2{fill:blue;}</style></defs><title>Artboard 6</title><path class="cls-1" d="M143.5,78.5v-60h-60V3.5h-5v15h-60v60H3.5v5h15v60h60v15h5v-15h60v-60h15v-5Zm-65,60h-55v-55h55Zm0-60h-55v-55h55Zm60,60h-55v-55h55Zm0-60h-55v-55h55Z"/><rect class="cls-2" x="83.5" y="83.5" width="55" height="55"/><rect class="cls-1" x="23.5" y="83.5" width="55" height="55"/><rect class="cls-1" x="83.5" y="23.5" width="55" height="55"/><rect class="cls-2" x="23.5" y="23.5" width="55" height="55"/><path d="M131.39,23H83V79h56V23ZM138,24v4.19L133.81,24ZM84,78V71.61L90.39,78Zm7.81,0L84,70.19V65.61L96.39,78Zm6,0L84,64.19V59.61L102.39,78Zm6,0L84,58.19V53.61L108.39,78Zm6,0L84,52.19V47.61L114.39,78Zm6,0L84,46.19V41.61L120.39,78Zm6,0L84,40.19V35.61L126.39,78Zm6,0L84,34.19V29.61L132.39,78ZM138,78h-4.19L84,28.19V24h.39L138,77.61Zm0-1.81L85.81,24h4.58L138,71.61Zm0-6L91.81,24h4.58L138,65.61Zm0-6L97.81,24h4.58L138,59.61Zm0-6L103.81,24h4.58L138,53.61Zm0-6L109.81,24h4.58L138,47.61Zm0-6L115.81,24h4.58L138,41.61Zm0-6L121.81,24h4.58L138,35.61Zm0-6L127.81,24h4.58L138,29.61Z"/><path d="M73.39,83H23v56H79V83ZM24,84h8.39L24,92.39Zm0,9.81L33.81,84h8.58L24,102.39Zm0,10L43.81,84h8.58L24,112.39Zm0,10L53.81,84h8.58L24,122.39Zm0,10L63.81,84h8.58L24,132.39ZM78,138H69.81L78,129.81Zm-9.61,0H59.81L78,119.81v8.58Zm-10,0H49.81L78,109.81v8.58Zm-10,0H39.81L78,99.81v8.58Zm-10,0H29.81L78,89.81v8.58Zm-10,0H24v-4.19L73.81,84H78v4.39Z"/></svg>