<svg id="Layer_1" data-name="Layer 1" xmlns="http://www.w3.org/2000/svg" viewBox="0 0 160 160"><defs><style>.cls-1{fill:none;}.cls-1,.cls-2{stroke:#000;stroke-miterlimit:10;stroke-width:2px;}.cls-2{fill:blue;}</style></defs><title>Artboard3</title><path class="cls-1" d="M142.5,77.5v-60h-60V2.5h-5v15h-60v60H2.5v5h15v60h60v15h5v-15h60v-60h15v-5Zm-65,60h-55v-55h55Zm0-60h-55v-55h55Zm60,60h-55v-55h55Zm0-60h-55v-55h55Z"/><rect class="cls-2" x="22.5" y="82.5" width="55" height="55"/><rect class="cls-2" x="82.5" y="22.5" width="55" height="55"/><path d="M132.39,82H82v56h56V82ZM83,83h8.39L83,91.39Zm0,9.81L92.81,83h8.58L83,101.39Zm0,10L102.81,83h8.58L83,111.39Zm0,10L112.81,83h8.58L83,121.39Zm0,10L122.81,83h8.58L83,131.39ZM137,137h-8.19l8.19-8.19Zm-9.61,0h-8.58L137,118.81v8.58Zm-10,0h-8.58L137,108.81v8.58Zm-10,0H98.81L137,98.81v8.58Zm-10,0H88.81L137,88.81v8.58Zm-10,0H83v-4.19L132.81,83H137v4.39Z"/><path d="M22,27.61V78H78V22H22ZM23,77V68.61L31.39,77Zm9.81,0L23,67.19V58.61L41.39,77Zm10,0L23,57.19V48.61L51.39,77Zm10,0L23,47.19V38.61L61.39,77Zm10,0L23,37.19V28.61L71.39,77ZM77,23v8.19L68.81,23Zm0,9.61v8.58L58.81,23h8.58Zm0,10v8.58L48.81,23h8.58Zm0,10v8.58L38.81,23h8.58Zm0,10v8.58L28.81,23h8.58Zm0,10V77H72.81L23,27.19V23h4.39Z"/></svg>