<svg id="Layer_1" data-name="Layer 1" xmlns="http://www.w3.org/2000/svg" viewBox="0 0 200 200"><defs><style>.cls-1{fill:none;}.cls-1,.cls-2{stroke:#000;stroke-miterlimit:10;}.cls-2{fill:blue;}</style></defs><title>Artboard 7</title><path class="cls-1" d="M162.5,97.5v-60h-60v-15h-5v15h-60v60h-15v5h15v60h60v15h5v-15h60v-60h15v-5Zm-65,60h-55v-55h55Zm0-60h-55v-55h55Zm60,60h-55v-55h55Zm0-60h-55v-55h55Z"/><rect class="cls-2" x="102.5" y="102.5" width="55" height="55"/><rect class="cls-1" x="42.5" y="102.5" width="55" height="55"/><rect class="cls-2" x="42.5" y="42.5" width="55" height="55"/><rect class="cls-1" x="102.5" y="42.5" width="55" height="55"/><path d="M90.39,102H42v56H98V102ZM97,103v4.19L92.81,103ZM43,157v-6.39L49.39,157Zm7.81,0L43,149.19v-4.58L55.39,157Zm6,0L43,143.19v-4.58L61.39,157Zm6,0L43,137.19v-4.58L67.39,157Zm6,0L43,131.19v-4.58L73.39,157Zm6,0L43,125.19v-4.58L79.39,157Zm6,0L43,119.19v-4.58L85.39,157Zm6,0L43,113.19v-4.58L91.39,157ZM97,157H92.81L43,107.19V103h.39L97,156.61Zm0-1.81L44.81,103h4.58L97,150.61Zm0-6L50.81,103h4.58L97,144.61Zm0-6L56.81,103h4.58L97,138.61Zm0-6L62.81,103h4.58L97,132.61Zm0-6L68.81,103h4.58L97,126.61Zm0-6L74.81,103h4.58L97,120.61Zm0-6L80.81,103h4.58L97,114.61Zm0-6L86.81,103h4.58L97,108.61Z"/><path d="M152.39,42H102V98h56V42ZM103,43h8.39L103,51.39Zm0,9.81L112.81,43h8.58L103,61.39Zm0,10L122.81,43h8.58L103,71.39Zm0,10L132.81,43h8.58L103,81.39Zm0,10L142.81,43h8.58L103,91.39ZM157,97h-8.19L157,88.81Zm-9.61,0h-8.58L157,78.81v8.58Zm-10,0h-8.58L157,68.81v8.58Zm-10,0h-8.58L157,58.81v8.58Zm-10,0h-8.58L157,48.81v8.58Zm-10,0H103V92.81L152.81,43H157v4.39Z"/></svg>