<svg id="Layer_1" data-name="Layer 1" xmlns="http://www.w3.org/2000/svg" viewBox="0 0 200 200"><defs><style>.cls-1{fill:none;}.cls-1,.cls-2{stroke:#000;stroke-miterlimit:10;}.cls-2{fill:blue;}</style></defs><title>Artboard 5</title><path class="cls-1" d="M159.5,98.5v-60h-60v-15h-5v15h-60v60h-15v5h15v60h60v15h5v-15h60v-60h15v-5Zm-65,60h-55v-55h55Zm0-60h-55v-55h55Zm60,60h-55v-55h55Zm0-60h-55v-55h55Z"/><rect class="cls-2" x="39.5" y="103.5" width="55" height="55"/><rect class="cls-1" x="99.5" y="103.5" width="55" height="55"/><rect class="cls-2" x="99.5" y="43.5" width="55" height="55"/><rect class="cls-1" x="39.5" y="43.5" width="55" height="55"/><path d="M147.39,103H99v56h56V103Zm6.61,1v4.19L149.81,104Zm-54,54v-6.39l6.39,6.39Zm7.81,0L100,150.19v-4.58L112.39,158Zm6,0L100,144.19v-4.58L118.39,158Zm6,0L100,138.19v-4.58L124.39,158Zm6,0L100,132.19v-4.58L130.39,158Zm6,0L100,126.19v-4.58L136.39,158Zm6,0L100,120.19v-4.58L142.39,158Zm6,0L100,114.19v-4.58L148.39,158ZM154,158h-4.19L100,108.19V104h.39L154,157.61Zm0-1.81L101.81,104h4.58L154,151.61Zm0-6L107.81,104h4.58L154,145.61Zm0-6L113.81,104h4.58L154,139.61Zm0-6L119.81,104h4.58L154,133.61Zm0-6L125.81,104h4.58L154,127.61Zm0-6L131.81,104h4.58L154,121.61Zm0-6L137.81,104h4.58L154,115.61Zm0-6L143.81,104h4.58l5.61,5.61Z"/><path d="M89.39,43H39V99H95V43ZM40,44h8.39L40,52.39Zm0,9.81L49.81,44h8.58L40,62.39Zm0,10L59.81,44h8.58L40,72.39Zm0,10L69.81,44h8.58L40,82.39Zm0,10L79.81,44h8.58L40,92.39ZM94,98H85.81L94,89.81Zm-9.61,0H75.81L94,79.81v8.58Zm-10,0H65.81L94,69.81v8.58Zm-10,0H55.81L94,59.81v8.58Zm-10,0H45.81L94,49.81v8.58Zm-10,0H40V93.81L89.81,44H94v4.39Z"/></svg>