<svg id="Layer_1" data-name="Layer 1" xmlns="http://www.w3.org/2000/svg" viewBox="0 0 160 160"><defs><style>.cls-1{fill:none;}.cls-1,.cls-2{stroke:#000;stroke-miterlimit:10;stroke-width:2px;}.cls-2{fill:blue;}</style></defs><title>Artboard 2</title><path class="cls-1" d="M142.5,77.5v-60h-60V2.5h-5v15h-60v60H2.5v5h15v60h60v15h5v-15h60v-60h15v-5Zm-65,60h-55v-55h55Zm0-60h-55v-55h55Zm60,60h-55v-55h55Zm0-60h-55v-55h55Z"/><rect class="cls-1" x="22.5" y="82.5" width="55" height="55"/><rect class="cls-2" x="82.5" y="82.5" width="55" height="55"/><rect class="cls-1" x="82.5" y="22.5" width="55" height="55"/><rect class="cls-2" x="22.5" y="22.5" width="55" height="55"/><path d="M70.39,82H22v56H78V82ZM77,83v4.19L72.81,83ZM23,137v-6.39L29.39,137Zm7.81,0L23,129.19v-4.58L35.39,137Zm6,0L23,123.19v-4.58L41.39,137Zm6,0L23,117.19v-4.58L47.39,137Zm6,0L23,111.19v-4.58L53.39,137Zm6,0L23,105.19v-4.58L59.39,137Zm6,0L23,99.19V94.61L65.39,137Zm6,0L23,93.19V88.61L71.39,137ZM77,137H72.81L23,87.19V83h.39L77,136.61Zm0-1.81L24.81,83h4.58L77,130.61Zm0-6L30.81,83h4.58L77,124.61Zm0-6L36.81,83h4.58L77,118.61Zm0-6L42.81,83h4.58L77,112.61Zm0-6L48.81,83h4.58L77,106.61Zm0-6L54.81,83h4.58L77,100.61Zm0-6L60.81,83h4.58L77,94.61Zm0-6L66.81,83h4.58L77,88.61Z"/><path d="M132.39,22H82V78h56V22ZM83,23h8.39L83,31.39Zm0,9.81L92.81,23h8.58L83,41.39Zm0,10L102.81,23h8.58L83,51.39Zm0,10L112.81,23h8.58L83,61.39Zm0,10L122.81,23h8.58L83,71.39ZM137,77h-8.19L137,68.81Zm-9.61,0h-8.58L137,58.81v8.58Zm-10,0h-8.58L137,48.81v8.58Zm-10,0H98.81L137,38.81v8.58Zm-10,0H88.81L137,28.81v8.58Zm-10,0H83V72.81L132.81,23H137v4.39Z"/></svg>