<svg id="Layer_1" data-name="Layer 1" xmlns="http://www.w3.org/2000/svg" viewBox="0 0 160 160"><defs><style>.cls-1{fill:none;}.cls-1,.cls-2{stroke:#000;stroke-miterlimit:10;stroke-width:2px;}.cls-2{fill:blue;}</style></defs><title>Artboard2</title><path d="M22,87.61V138H78V82H22ZM23,137v-8.39L31.39,137Zm9.81,0L23,127.19v-8.58L41.39,137Zm10,0L23,117.19v-8.58L51.39,137Zm10,0L23,107.19V98.61L61.39,137Zm10,0L23,97.19V88.61L71.39,137ZM77,83v8.19L68.81,83Zm0,9.61v8.58L58.81,83h8.58Zm0,10v8.58L48.81,83h8.58Zm0,10v8.58L38.81,83h8.58Zm0,10v8.58L28.81,83h8.58Zm0,10V137H72.81L23,87.19V83h4.39Z"/><path class="cls-1" d="M142.5,77.5v-60h-60V2.5h-5v15h-60v60H2.5v5h15v60h60v15h5v-15h60v-60h15v-5Zm-65,60h-55v-55h55Zm0-60h-55v-55h55Zm60,60h-55v-55h55Zm0-60h-55v-55h55Z"/><rect class="cls-2" x="82.5" y="82.5" width="55" height="55"/><rect class="cls-2" x="22.5" y="22.5" width="55" height="55"/><path d="M132.39,22H82V78h56V22ZM83,23h8.39L83,31.39Zm0,9.81L92.81,23h8.58L83,41.39Zm0,10L102.81,23h8.58L83,51.39Zm0,10L112.81,23h8.58L83,61.39Zm0,10L122.81,23h8.58L83,71.39ZM137,77h-8.19L137,68.81Zm-9.61,0h-8.58L137,58.81v8.58Zm-10,0h-8.58L137,48.81v8.58Zm-10,0H98.81L137,38.81v8.58Zm-10,0H88.81L137,28.81v8.58Zm-10,0H83V72.81L132.81,23H137v4.39Z"/></svg>