<svg id="Layer_1" data-name="Layer 1" xmlns="http://www.w3.org/2000/svg" viewBox="0 0 200 200"><defs><style>.cls-1{fill:none;}.cls-1,.cls-2{stroke:#000;stroke-miterlimit:10;}.cls-2{fill:blue;}</style></defs><title>Artboard 6</title><path class="cls-1" d="M164.5,97.5v-60h-60v-15h-5v15h-60v60h-15v5h15v60h60v15h5v-15h60v-60h15v-5Zm-65,60h-55v-55h55Zm0-60h-55v-55h55Zm60,60h-55v-55h55Zm0-60h-55v-55h55Z"/><rect class="cls-2" x="104.5" y="102.5" width="55" height="55"/><rect class="cls-1" x="44.5" y="102.5" width="55" height="55"/><rect class="cls-1" x="104.5" y="42.5" width="55" height="55"/><rect class="cls-2" x="44.5" y="42.5" width="55" height="55"/><path d="M152.39,42H104V98h56V42ZM159,43v4.19L154.81,43ZM105,97V90.61L111.39,97Zm7.81,0L105,89.19V84.61L117.39,97Zm6,0L105,83.19V78.61L123.39,97Zm6,0L105,77.19V72.61L129.39,97Zm6,0L105,71.19V66.61L135.39,97Zm6,0L105,65.19V60.61L141.39,97Zm6,0L105,59.19V54.61L147.39,97Zm6,0L105,53.19V48.61L153.39,97ZM159,97h-4.19L105,47.19V43h.39L159,96.61Zm0-1.81L106.81,43h4.58L159,90.61Zm0-6L112.81,43h4.58L159,84.61Zm0-6L118.81,43h4.58L159,78.61Zm0-6L124.81,43h4.58L159,72.61Zm0-6L130.81,43h4.58L159,66.61Zm0-6L136.81,43h4.58L159,60.61Zm0-6L142.81,43h4.58L159,54.61Zm0-6L148.81,43h4.58L159,48.61Z"/><path d="M94.39,102H44v56h56V102ZM45,103h8.39L45,111.39Zm0,9.81L54.81,103h8.58L45,121.39Zm0,10L64.81,103h8.58L45,131.39Zm0,10L74.81,103h8.58L45,141.39Zm0,10L84.81,103h8.58L45,151.39ZM99,157H90.81L99,148.81Zm-9.61,0H80.81L99,138.81v8.58Zm-10,0H70.81L99,128.81v8.58Zm-10,0H60.81L99,118.81v8.58Zm-10,0H50.81L99,108.81v8.58Zm-10,0H45v-4.19L94.81,103H99v4.39Z"/></svg>