<svg id="Layer_1" data-name="Layer 1" xmlns="http://www.w3.org/2000/svg" viewBox="0 0 161 162"><defs><style>.cls-1{fill:none;}.cls-1,.cls-2{stroke:#000;stroke-miterlimit:10;stroke-width:2px;}.cls-2{fill:blue;}</style></defs><title>Artboard6</title><path class="cls-1" d="M143.5,78.5v-60h-60V3.5h-5v15h-60v60H3.5v5h15v60h60v15h5v-15h60v-60h15v-5Zm-65,60h-55v-55h55Zm0-60h-55v-55h55Zm60,60h-55v-55h55Zm0-60h-55v-55h55Z"/><rect class="cls-2" x="83.5" y="83.5" width="55" height="55"/><rect class="cls-2" x="23" y="23" width="55" height="55"/><path d="M73.39,83H23v56H79V83ZM24,84h8.39L24,92.39Zm0,9.81L33.81,84h8.58L24,102.39Zm0,10L43.81,84h8.58L24,112.39Zm0,10L53.81,84h8.58L24,122.39Zm0,10L63.81,84h8.58L24,132.39ZM78,138H69.81L78,129.81Zm-9.61,0H59.81L78,119.81v8.58Zm-10,0H49.81L78,109.81v8.58Zm-10,0H39.81L78,99.81v8.58Zm-10,0H29.81L78,89.81v8.58Zm-10,0H24v-4.19L73.81,84H78v4.39Z"/><path d="M83,28.61V79h56V23H83ZM84,78V69.61L92.39,78Zm9.81,0L84,68.19V59.61L102.39,78Zm10,0L84,58.19V49.61L112.39,78Zm10,0L84,48.19V39.61L122.39,78Zm10,0L84,38.19V29.61L132.39,78ZM138,24v8.19L129.81,24Zm0,9.61v8.58L119.81,24h8.58Zm0,10v8.58L109.81,24h8.58Zm0,10v8.58L99.81,24h8.58Zm0,10v8.58L89.81,24h8.58Zm0,10V78h-4.19L84,28.19V24h4.39Z"/></svg>