<svg id="Layer_1" data-name="Layer 1" xmlns="http://www.w3.org/2000/svg" viewBox="0 0 162 160"><defs><style>.cls-1{fill:none;}.cls-1,.cls-2{stroke:#000;stroke-miterlimit:10;stroke-width:2px;}.cls-2{fill:blue;}</style></defs><title>Artboard1</title><path class="cls-1" d="M143.5,77.5v-60h-60V2.5h-5v15h-60v60H3.5v5h15v60h60v15h5v-15h60v-60h15v-5Zm-65,60h-55v-55h55Zm0-60h-55v-55h55Zm60,60h-55v-55h55Zm0-60h-55v-55h55Z"/><rect class="cls-2" x="83.5" y="82.5" width="55" height="55"/><rect class="cls-2" x="23.5" y="22.5" width="55" height="55"/><path d="M73.39,82H23v56H79V82ZM24,83h8.39L24,91.39Zm0,9.81L33.81,83h8.58L24,101.39Zm0,10L43.81,83h8.58L24,111.39Zm0,10L53.81,83h8.58L24,121.39Zm0,10L63.81,83h8.58L24,131.39ZM78,137H69.81L78,128.81Zm-9.61,0H59.81L78,118.81v8.58Zm-10,0H49.81L78,108.81v8.58Zm-10,0H39.81L78,98.81v8.58Zm-10,0H29.81L78,88.81v8.58Zm-10,0H24v-4.19L73.81,83H78v4.39Z"/><path d="M83,27.61V78h56V22H83ZM84,77V68.61L92.39,77Zm9.81,0L84,67.19V58.61L102.39,77Zm10,0L84,57.19V48.61L112.39,77Zm10,0L84,47.19V38.61L122.39,77Zm10,0L84,37.19V28.61L132.39,77ZM138,23v8.19L129.81,23Zm0,9.61v8.58L119.81,23h8.58Zm0,10v8.58L109.81,23h8.58Zm0,10v8.58L99.81,23h8.58Zm0,10v8.58L89.81,23h8.58Zm0,10V77h-4.19L84,27.19V23h4.39Z"/></svg>