<svg xmlns="http://www.w3.org/2000/svg" viewBox="0 0 101 101"><defs><style>.cls-1{fill:none;stroke:#231f20;stroke-linecap:round;stroke-miterlimit:10;}</style></defs><title>Artboard5</title><g id="Layer_2" data-name="Layer 2"><g id="Layer_1-2" data-name="Layer 1"><path class="cls-1" d="M95.5,50.5h5a50,50,0,0,0-50-50v5A45,45,0,0,1,95.5,50.5Z"/><path class="cls-1" d="M50.5,5.5V.5a50,50,0,0,0-50,50h5A45,45,0,0,1,50.5,5.5Z"/><path class="cls-1" d="M95.5,50.5a45,45,0,0,1-45,45v5a50,50,0,0,0,50-50Z"/><path class="cls-1" d="M5.5,50.5H.5a50,50,0,0,0,50,50v-5A45,45,0,0,1,5.5,50.5Z"/></g></g></svg>