<svg id="Layer_1" data-name="Layer 1" xmlns="http://www.w3.org/2000/svg" viewBox="0 0 101.75 200"><defs><style>.cls-1{fill:#000da2;}.cls-2{fill:none;stroke:#000;stroke-miterlimit:10;stroke-width:5px;}</style></defs><title>Artboard 5</title><polygon class="cls-1" points="99.75 51 99.75 149 83.56 100 99.75 51"/><polygon class="cls-1" points="99.75 2 99.75 51 67.36 51 51.17 2 99.75 2"/><polygon class="cls-1" points="34.7 149 51.17 198 1.75 198 1.75 149 34.7 149"/><polygon class="cls-1" points="34.7 51 18.21 100 1.75 51 34.7 51"/><line class="cls-2" x1="99.75" y1="51" x2="99.75" y2="149"/><line class="cls-2" x1="1.75" y1="149" x2="1.75" y2="51"/><polygon class="cls-2" points="51.17 2 99.75 2 99.75 51 67.36 51 50.75 51 34.7 51 1.75 51 1.75 2 51.17 2"/><polygon class="cls-2" points="99.75 149 99.75 198 51.17 198 1.75 198 1.75 149 34.7 149 51.17 149 67.36 149 99.75 149"/><line class="cls-2" x1="51.17" y1="198" x2="51.17" y2="149"/><line class="cls-2" x1="50.75" y1="51" x2="51.17" y2="2"/><polyline class="cls-2" points="51.17 198 34.7 149 18.21 100 1.75 51"/><polyline class="cls-2" points="1.75 149 18.21 100 34.7 51 51.17 2"/><polyline class="cls-2" points="99.75 149 83.56 100 67.36 51 51.17 2"/><polyline class="cls-2" points="99.75 51 83.56 100 67.36 149 51.17 198"/></svg>