<svg id="Layer_1" data-name="Layer 1" xmlns="http://www.w3.org/2000/svg" viewBox="0 0 102.75 200"><defs><style>.cls-1{fill:blue;}.cls-2{fill:none;stroke:#000;stroke-miterlimit:10;stroke-width:3px;}</style></defs><title>Artboard4</title><polygon class="cls-1" points="100 51 100 149 83.81 100 100 51"/><polygon class="cls-1" points="100 2 100 51 67.61 51 51.42 2 100 2"/><polygon class="cls-1" points="34.95 149 51.42 198 2 198 2 149 34.95 149"/><polygon class="cls-1" points="34.95 51 18.46 100 2 51 34.95 51"/><line class="cls-2" x1="100" y1="51" x2="100" y2="149"/><line class="cls-2" x1="2" y1="149" x2="2" y2="51"/><polygon class="cls-2" points="51.42 2 100 2 100 51 67.61 51 34.95 51 2 51 2 2 51.42 2"/><polygon class="cls-2" points="100 149 100 198 51.42 198 2 198 2 149 34.95 149 67.61 149 100 149"/><polyline class="cls-2" points="51.42 198 34.95 149 18.46 100 2 51"/><polyline class="cls-2" points="2 149 18.46 100 34.95 51 51.42 2"/><polyline class="cls-2" points="100 149 83.81 100 67.61 51 51.42 2"/><polyline class="cls-2" points="100 51 83.81 100 67.61 149 51.42 198"/></svg>