<svg id="Layer_1" data-name="Layer 1" xmlns="http://www.w3.org/2000/svg" viewBox="0 0 200 102"><defs><style>.cls-1{fill:#000da2;}.cls-2{fill:none;stroke:#000;stroke-miterlimit:10;stroke-width:5px;}</style></defs><title>Artboard 2</title><polygon class="cls-1" points="198.5 2.5 198.5 52.17 149.25 35.62 149.25 2.5 198.5 2.5"/><polygon class="cls-1" points="149.25 2.5 100 19.05 50.75 2.5 149.25 2.5"/><polygon class="cls-1" points="50.75 68.45 50.75 101 1.5 101 1.5 52.17 50.75 68.45"/><line class="cls-2" x1="149.25" y1="101" x2="50.75" y2="101"/><line class="cls-2" x1="50.75" y1="2.5" x2="149.25" y2="2.5"/><polygon class="cls-2" points="198.5 52.17 198.5 101 149.25 101 149.25 68.45 149.25 51.75 149.25 35.62 149.25 2.5 198.5 2.5 198.5 52.17"/><polygon class="cls-2" points="50.75 101 1.5 101 1.5 52.17 1.5 2.5 50.75 2.5 50.75 35.62 50.75 52.17 50.75 68.45 50.75 101"/><line class="cls-2" x1="1.5" y1="52.17" x2="50.75" y2="52.17"/><line class="cls-2" x1="149.25" y1="51.75" x2="198.5" y2="52.17"/><polyline class="cls-2" points="1.5 52.17 50.75 35.62 100 19.05 149.25 2.5"/><polyline class="cls-2" points="50.75 2.5 100 19.05 149.25 35.62 198.5 52.17"/><polyline class="cls-2" points="50.75 101 100 84.72 149.25 68.45 198.5 52.17"/><polyline class="cls-2" points="149.25 101 100 84.72 50.75 68.45 1.5 52.17"/></svg>