<svg id="Layer_1" data-name="Layer 1" xmlns="http://www.w3.org/2000/svg" viewBox="0 0 101.75 200"><defs><style>.cls-1{fill:none;}.cls-1,.cls-2{stroke:#000;stroke-linecap:round;stroke-linejoin:round;stroke-width:3px;}.cls-2{fill:blue;}</style></defs><title>Artboard5</title><polygon class="cls-1" points="99.88 149 1.88 149 1.88 51 18.34 100 34.82 51 99.87 51 83.68 99.99 83.68 100 99.88 149"/><polygon class="cls-1" points="67.48 51 1.88 51 1.88 2 51.28 2 67.48 51"/><polygon class="cls-2" points="51.28 198 1.88 198 1.88 149 34.81 149 51.28 198"/><polygon class="cls-1" points="99.88 149 99.88 198 51.28 198 34.81 149 99.88 149"/><line class="cls-1" x1="34.82" y1="149" x2="18.35" y2="100"/><polygon class="cls-2" points="34.81 51 18.34 100 1.88 51 34.81 51"/><line class="cls-1" x1="51.29" y1="2" x2="34.82" y2="51"/><line class="cls-1" x1="18.35" y1="100" x2="1.88" y2="149"/><polygon class="cls-2" points="99.88 2 99.88 51 67.48 51 51.28 2.01 51.28 2 99.88 2"/><polygon class="cls-2" points="99.88 51 99.88 149 83.68 100 83.68 99.99 99.87 51 99.88 51"/><polyline class="cls-1" points="51.28 2 50.88 51 51.28 149 51.28 198 83.68 99.99 67.49 51"/></svg>