<svg id="Layer_1" data-name="Layer 1" xmlns="http://www.w3.org/2000/svg" viewBox="0 0 200 200"><defs><style>.cls-1{fill:#000da2;}.cls-2{fill:none;stroke:#000;stroke-miterlimit:10;stroke-width:0.25px;}</style></defs><title>Artboard 1</title><polygon class="cls-1" points="140 100 140 119.83 120 119.83 120 106.61 140 100"/><polygon class="cls-1" points="120 119.83 80 119.83 100 113.22 120 119.83"/><polygon class="cls-1" points="80 79.83 80 93.28 60 100 60 79.83 80 79.83"/><line class="cls-2" x1="120" y1="119.83" x2="80" y2="119.83"/><line class="cls-2" x1="80" y1="79.83" x2="120" y2="79.83"/><polygon class="cls-2" points="140 100 140 119.83 120 119.83 120 106.61 120 99.83 120 93.28 120 79.83 140 79.83 140 100"/><polygon class="cls-2" points="80 119.83 60 119.83 60 100 60 79.83 80 79.83 80 93.28 80 100 80 106.61 80 119.83"/><line class="cls-2" x1="60" y1="100" x2="80" y2="100"/><line class="cls-2" x1="120" y1="99.83" x2="140" y2="100"/><polyline class="cls-2" points="60 100 80 93.28 100 86.55 120 79.83"/><polyline class="cls-2" points="80 79.83 100 86.55 120 93.28 140 100"/><polyline class="cls-2" points="80 119.83 100 113.22 120 106.61 140 100"/><polyline class="cls-2" points="120 119.83 100 113.22 80 106.61 60 100"/></svg>