<svg id="Layer_1" data-name="Layer 1" xmlns="http://www.w3.org/2000/svg" viewBox="0 0 200 200"><defs><style>.cls-1{fill:#000da2;}.cls-2{fill:none;stroke:#000;stroke-miterlimit:10;stroke-width:0.25px;}</style></defs><title>Artboard 6</title><polygon class="cls-1" points="93.45 120 100.17 140 80 140 80 120 93.45 120"/><polygon class="cls-1" points="120 80 120 120 113.39 100 120 80"/><polygon class="cls-1" points="120 60 120 80 106.78 80 100.17 60 120 60"/><polygon class="cls-1" points="93.45 80 86.72 100 80 80 93.45 80"/><line class="cls-2" x1="120" y1="80" x2="120" y2="120"/><line class="cls-2" x1="80" y1="120" x2="80" y2="80"/><polygon class="cls-2" points="100.17 60 120 60 120 80 106.78 80 100 80 93.45 80 80 80 80 60 100.17 60"/><polygon class="cls-2" points="120 120 120 140 100.17 140 80 140 80 120 93.45 120 100.17 120 106.78 120 120 120"/><line class="cls-2" x1="100.17" y1="140" x2="100.17" y2="120"/><line class="cls-2" x1="100" y1="80" x2="100.17" y2="60"/><polyline class="cls-2" points="100.17 140 93.45 120 86.72 100 80 80"/><polyline class="cls-2" points="80 120 86.72 100 93.45 80 100.17 60"/><polyline class="cls-2" points="120 120 113.39 100 106.78 80 100.17 60"/><polyline class="cls-2" points="120 80 113.39 100 106.78 120 100.17 140"/></svg>