<svg id="Layer_1" data-name="Layer 1" xmlns="http://www.w3.org/2000/svg" viewBox="0 0 200 102"><defs><style>.cls-1{fill:blue;}.cls-2{fill:none;stroke:#000;stroke-miterlimit:10;stroke-width:3px;}</style></defs><title>Artboard1</title><polygon class="cls-1" points="198.5 51.99 198.5 100.83 149.25 100.83 149.25 68.27 198.5 51.99"/><polygon class="cls-1" points="149.25 100.83 50.75 100.83 100 84.55 149.25 100.83"/><polygon class="cls-1" points="50.75 2.33 50.75 35.45 1.5 51.99 1.5 2.33 50.75 2.33"/><line class="cls-2" x1="149.25" y1="100.83" x2="50.75" y2="100.83"/><line class="cls-2" x1="50.75" y1="2.33" x2="149.25" y2="2.33"/><polygon class="cls-2" points="198.5 51.99 198.5 100.83 149.25 100.83 149.25 68.27 149.25 51.58 149.25 35.45 149.25 2.33 198.5 2.33 198.5 51.99"/><polygon class="cls-2" points="50.75 100.83 1.5 100.83 1.5 51.99 1.5 2.33 50.75 2.33 50.75 35.45 50.75 51.99 50.75 68.27 50.75 100.83"/><line class="cls-2" x1="1.5" y1="51.99" x2="50.75" y2="51.99"/><line class="cls-2" x1="149.25" y1="51.58" x2="198.5" y2="51.99"/><polyline class="cls-2" points="1.5 51.99 50.75 35.45 100 18.87 149.25 2.33"/><polyline class="cls-2" points="50.75 2.33 100 18.87 149.25 35.45 198.5 51.99"/><polyline class="cls-2" points="50.75 100.83 100 84.55 149.25 68.27 198.5 51.99"/><polyline class="cls-2" points="149.25 100.83 100 84.55 50.75 68.27 1.5 51.99"/></svg>