<svg id="Layer_1" data-name="Layer 1" xmlns="http://www.w3.org/2000/svg" viewBox="0 0 200 200"><defs><style>.cls-1{fill:#000da2;}.cls-2{fill:none;stroke:#000;stroke-miterlimit:10;stroke-width:0.25px;}</style></defs><title>Artboard 2</title><polygon class="cls-1" points="140 80 140 100.17 120 93.45 120 80 140 80"/><polygon class="cls-1" points="120 80 100 86.72 80 80 120 80"/><polygon class="cls-1" points="80 106.78 80 120 60 120 60 100.17 80 106.78"/><line class="cls-2" x1="120" y1="120" x2="80" y2="120"/><line class="cls-2" x1="80" y1="80" x2="120" y2="80"/><polygon class="cls-2" points="140 100.17 140 120 120 120 120 106.78 120 100 120 93.45 120 80 140 80 140 100.17"/><polygon class="cls-2" points="80 120 60 120 60 100.17 60 80 80 80 80 93.45 80 100.17 80 106.78 80 120"/><line class="cls-2" x1="60" y1="100.17" x2="80" y2="100.17"/><line class="cls-2" x1="120" y1="100" x2="140" y2="100.17"/><polyline class="cls-2" points="60 100.17 80 93.45 100 86.72 120 80"/><polyline class="cls-2" points="80 80 100 86.72 120 93.45 140 100.17"/><polyline class="cls-2" points="80 120 100 113.39 120 106.78 140 100.17"/><polyline class="cls-2" points="120 120 100 113.39 80 106.78 60 100.17"/></svg>