<svg id="Layer_1" data-name="Layer 1" xmlns="http://www.w3.org/2000/svg" viewBox="0 0 102.75 200"><defs><style>.cls-1{fill:blue;}.cls-2{fill:none;stroke:#000;stroke-miterlimit:10;stroke-width:3px;}</style></defs><title>Artboard7</title><polygon class="cls-1" points="100.25 50.75 100.25 149.25 83.97 100 100.25 50.75"/><polygon class="cls-1" points="100.25 1.5 100.25 50.75 67.7 50.75 51.42 1.5 100.25 1.5"/><polygon class="cls-1" points="34.87 149.25 51.42 198.5 1.75 198.5 1.75 149.25 34.87 149.25"/><line class="cls-2" x1="100.25" y1="50.75" x2="100.25" y2="149.25"/><line class="cls-2" x1="1.75" y1="149.25" x2="1.75" y2="50.75"/><polygon class="cls-2" points="51.42 1.5 100.25 1.5 100.25 50.75 67.7 50.75 51 50.75 34.87 50.75 1.75 50.75 1.75 1.5 51.42 1.5"/><polygon class="cls-2" points="100.25 149.25 100.25 198.5 51.42 198.5 1.75 198.5 1.75 149.25 34.87 149.25 51.42 149.25 67.7 149.25 100.25 149.25"/><line class="cls-2" x1="51.42" y1="198.5" x2="51.42" y2="149.25"/><line class="cls-2" x1="51" y1="50.75" x2="51.42" y2="1.5"/><polyline class="cls-2" points="51.42 198.5 34.87 149.25 18.3 100 1.75 50.75"/><polyline class="cls-2" points="1.75 149.25 18.3 100 34.87 50.75 51.42 1.5"/><polyline class="cls-2" points="100.25 149.25 83.97 100 67.7 50.75 51.42 1.5"/><polyline class="cls-2" points="100.25 50.75 83.97 100 67.7 149.25 51.42 198.5"/></svg>