<svg id="Layer_1" data-name="Layer 1" xmlns="http://www.w3.org/2000/svg" viewBox="0 0 102.5 200"><defs><style>.cls-1{fill:#000da2;}.cls-2{fill:none;stroke:#000;stroke-miterlimit:10;stroke-width:5px;}</style></defs><title>Artboard 3</title><polygon class="cls-1" points="100.38 149.13 100.38 198.25 51.67 198.25 67.9 149.13 100.38 149.13"/><polygon class="cls-1" points="100.38 50.88 84.14 100 67.9 50.88 100.38 50.88"/><polygon class="cls-1" points="51.67 1.75 35.16 50.88 2.13 50.88 2.13 1.75 51.67 1.75"/><polygon class="cls-1" points="2.13 50.88 18.63 100 2.13 149.13 2.13 50.88"/><line class="cls-2" x1="100.37" y1="50.88" x2="100.37" y2="149.12"/><line class="cls-2" x1="2.13" y1="149.12" x2="2.13" y2="50.88"/><polygon class="cls-2" points="51.67 1.75 100.38 1.75 100.38 50.88 67.9 50.88 51.25 50.88 35.16 50.88 2.13 50.88 2.13 1.75 51.67 1.75"/><polygon class="cls-2" points="100.38 149.13 100.38 198.25 51.67 198.25 2.13 198.25 2.13 149.13 35.16 149.13 51.67 149.13 67.9 149.13 100.38 149.13"/><line class="cls-2" x1="51.67" y1="198.25" x2="51.67" y2="149.12"/><line class="cls-2" x1="51.25" y1="50.88" x2="51.67" y2="1.75"/><polyline class="cls-2" points="51.67 198.25 35.16 149.13 18.63 100 2.13 50.88"/><polyline class="cls-2" points="2.13 149.13 18.63 100 35.16 50.88 51.67 1.75"/><polyline class="cls-2" points="100.38 149.13 84.14 100 67.9 50.88 51.67 1.75"/><polyline class="cls-2" points="100.38 50.88 84.14 100 67.9 149.13 51.67 198.25"/></svg>