<svg id="Layer_1" data-name="Layer 1" xmlns="http://www.w3.org/2000/svg" viewBox="0 0 200 190"><defs><style>.cls-1{fill:#fff;}.cls-2{fill:blue;}</style></defs><title>Artboard 5</title><polygon class="cls-1" points="17.12 113.31 48.78 15.88 151.22 15.88 182.88 113.31 100 173.53 17.12 113.31"/><path d="M149.4,18.38l30.54,94L100,170.44,20.06,112.36l30.54-94h98.8m3.64-5H47L14.18,114.27,100,176.62l85.82-62.35L153,13.38Z"/><circle class="cls-2" cx="100" cy="176.21" r="11.28"/><path d="M185.72,107.9a6.28,6.28,0,1,1-6.28,6.27,6.28,6.28,0,0,1,6.28-6.27m0-5A11.28,11.28,0,1,0,197,114.17a11.28,11.28,0,0,0-11.28-11.27Z"/><circle class="cls-2" cx="153.01" cy="13.79" r="11.28"/><circle class="cls-2" cx="46.99" cy="13.79" r="11.28"/><path d="M14.27,106.9h.34a7.28,7.28,0,0,1-.32,14.55H14a7.28,7.28,0,0,1,.32-14.55m0-4a11.28,11.28,0,0,0-.5,22.54h.52a11.28,11.28,0,0,0,.5-22.54Z"/></svg>