<svg id="Layer_1" data-name="Layer 1" xmlns="http://www.w3.org/2000/svg" viewBox="0 0 200 200"><defs><style>.cls-1{fill:#fff;}.cls-2{fill:blue;}</style></defs><title>Artboard 2</title><rect class="cls-1" x="50.5" y="50.5" width="99" height="99"/><path d="M149,51v98H51V51h98m1-1H50V150H150V50Z"/><circle class="cls-2" cx="50" cy="50" r="9.88"/><path d="M50,40.25A9.75,9.75,0,1,1,40.25,50,9.76,9.76,0,0,1,50,40.25M50,40A10,10,0,1,0,60,50,10,10,0,0,0,50,40Z"/><circle class="cls-2" cx="150" cy="50" r="9.88"/><path d="M150,40.25A9.75,9.75,0,1,1,140.25,50,9.76,9.76,0,0,1,150,40.25m0-.25a10,10,0,1,0,10,10,10,10,0,0,0-10-10Z"/><circle class="cls-1" cx="150" cy="150" r="9.88"/><path d="M150,140.25a9.75,9.75,0,1,1-9.75,9.75,9.76,9.76,0,0,1,9.75-9.75m0-.25a10,10,0,1,0,10,10,10,10,0,0,0-10-10Z"/><circle class="cls-1" cx="50" cy="150" r="9.88"/><path d="M50,140.25A9.75,9.75,0,1,1,40.25,150,9.76,9.76,0,0,1,50,140.25m0-.25a10,10,0,1,0,10,10,10,10,0,0,0-10-10Z"/></svg>