<svg id="Layer_1" data-name="Layer 1" xmlns="http://www.w3.org/2000/svg" viewBox="0 0 200 200"><defs><style>.cls-1{fill:#fff;}.cls-2{fill:blue;}</style></defs><title>Artboard2</title><rect class="cls-1" x="22.5" y="22.5" width="155" height="155"/><path d="M175,25V175H25V25H175m5-5H20V180H180V20Z"/><circle class="cls-2" cx="20" cy="20" r="16"/><circle class="cls-2" cx="180" cy="20" r="16"/><circle class="cls-1" cx="180" cy="180" r="13.5"/><path d="M180,169a11,11,0,1,1-11,11,11,11,0,0,1,11-11m0-5a16,16,0,1,0,16,16,16,16,0,0,0-16-16Z"/><circle class="cls-1" cx="20" cy="180" r="13.5"/><path d="M20,169A11,11,0,1,1,9,180a11,11,0,0,1,11-11m0-5a16,16,0,1,0,16,16,16,16,0,0,0-16-16Z"/></svg>