<svg id="Layer_1" data-name="Layer 1" xmlns="http://www.w3.org/2000/svg" viewBox="0 0 200 200"><defs><style>.cls-1{fill:#fff;}.cls-2{fill:blue;}</style></defs><title>Artboard 7</title><polygon class="cls-1" points="24.5 116.89 53.34 28.14 146.66 28.14 175.5 116.89 100 171.74 24.5 116.89"/><path d="M146.3,28.64l28.61,88.06L100,171.12,25.09,116.7,53.7,28.64h92.6m.72-1H53L23.92,117.08,100,172.36l76.08-55.28L147,27.64Z"/><path class="cls-2" d="M53,37.88l-.46,0A9.87,9.87,0,0,1,53,18.13h.46a9.86,9.86,0,0,1,9.41,10.31A9.86,9.86,0,0,1,53,37.88Z"/><path d="M53,18.25h.45A9.75,9.75,0,0,1,53,37.75h-.45A9.75,9.75,0,0,1,53,18.25M53,18a10,10,0,0,0-.44,20H53a10,10,0,0,0,.44-20Z"/><path class="cls-2" d="M147,37.88l-.46,0A9.87,9.87,0,0,1,147,18.13h.46a9.86,9.86,0,0,1,9.41,10.31A9.86,9.86,0,0,1,147,37.88Z"/><path d="M147,18.25h.45A9.75,9.75,0,0,1,147,37.75h-.45A9.75,9.75,0,0,1,147,18.25m0-.25a10,10,0,0,0-.44,20H147a10,10,0,0,0,.44-20Z"/><path d="M176,107.25h.45a9.75,9.75,0,0,1-.43,19.49h-.45a9.75,9.75,0,0,1,.43-19.49m0-.25a10,10,0,0,0-.44,20H176a10,10,0,0,0,.44-20Z"/><path class="cls-2" d="M24,126.88l-.46,0A9.87,9.87,0,0,1,24,107.13h.46a9.86,9.86,0,0,1,9.41,10.31A9.86,9.86,0,0,1,24,126.88Z"/><path d="M24,107.25h.45A9.75,9.75,0,0,1,24,126.75h-.45A9.75,9.75,0,0,1,24,107.25m0-.25a10,10,0,0,0-.44,20H24a10,10,0,0,0,.44-20Z"/><path class="cls-2" d="M100,181.88l-.46,0a9.87,9.87,0,0,1,.44-19.73h.46a9.86,9.86,0,0,1,9.41,10.31A9.86,9.86,0,0,1,100,181.88Z"/><path d="M100,162.25h.45a9.75,9.75,0,0,1-.43,19.49h-.45a9.75,9.75,0,0,1,.43-19.49m0-.25a10,10,0,0,0-.44,20H100a10,10,0,0,0,.44-20Z"/></svg>