<svg id="Layer_1" data-name="Layer 1" xmlns="http://www.w3.org/2000/svg" viewBox="0 0 200 189.5"><defs><style>.cls-1{fill:#fff;}.cls-2{fill:blue;}</style></defs><title>Artboard7</title><polygon class="cls-1" points="16.68 112.91 48.51 14.96 151.49 14.96 183.32 112.91 100 173.45 16.68 112.91"/><path d="M149.68,17.46l30.7,94.5L100,170.36,19.62,112l30.7-94.5h99.36m3.63-5H46.69L13.74,113.87,100,176.54l86.26-62.67L153.31,12.46Z"/><circle class="cls-2" cx="46.72" cy="12.87" r="11.34"/><circle class="cls-2" cx="153.28" cy="12.87" r="11.34"/><path d="M185.16,106.44h.34a7.34,7.34,0,0,1-.33,14.67h-.34a7.33,7.33,0,0,1,.33-14.66m0-4a11.34,11.34,0,0,0-.5,22.66h.52a11.34,11.34,0,0,0,.51-22.66Z"/><circle class="cls-2" cx="15.84" cy="113.77" r="11.34"/><circle class="cls-2" cx="100" cy="176.13" r="11.34"/></svg>