<svg id="Layer_1" data-name="Layer 1" xmlns="http://www.w3.org/2000/svg" viewBox="0 0 200 200"><defs><style>.cls-1{fill:#fff;}.cls-2{fill:blue;}</style></defs><title>Artboard 3</title><polygon class="cls-1" points="47.91 100 100 30.13 152.09 100 100 169.87 47.91 100"/><path d="M100,31l51.46,69L100,169,48.54,100,100,31m0-1.67L47.29,100,100,170.71,152.71,100,100,29.29Z"/><path d="M100,161a9.75,9.75,0,1,1-9.75,9.75A9.76,9.76,0,0,1,100,161m0-.25a10,10,0,1,0,10,10,10,10,0,0,0-10-10Z"/><circle class="cls-2" cx="152.71" cy="100" r="9.88"/><path d="M152.71,90.25A9.75,9.75,0,1,1,143,100a9.76,9.76,0,0,1,9.75-9.75m0-.25a10,10,0,1,0,10,10,10,10,0,0,0-10-10Z"/><circle class="cls-2" cx="100" cy="29.29" r="9.88"/><path d="M100,19.54a9.75,9.75,0,1,1-9.75,9.75A9.76,9.76,0,0,1,100,19.54m0-.25a10,10,0,1,0,10,10,10,10,0,0,0-10-10Z"/><path d="M47.29,90.25A9.75,9.75,0,1,1,37.54,100a9.76,9.76,0,0,1,9.75-9.75m0-.25a10,10,0,1,0,10,10,10,10,0,0,0-10-10Z"/></svg>