<svg id="Layer_1" data-name="Layer 1" xmlns="http://www.w3.org/2000/svg" viewBox="0 0 200 190"><defs><style>.cls-1{fill:#fff;}.cls-2{fill:blue;}</style></defs><title>Artboard 4</title><polygon class="cls-1" points="17.12 113.31 48.78 15.88 151.22 15.88 182.88 113.31 100 173.53 17.12 113.31"/><path d="M149.4,18.38l30.54,94L100,170.44,20.06,112.36l30.54-94h98.8m3.64-5H47L14.18,114.27,100,176.62l85.82-62.35L153,13.38Z"/><path d="M100,168.93h.34a7.28,7.28,0,0,1-.32,14.55h-.34a7.28,7.28,0,0,1,.32-14.55m0-4a11.28,11.28,0,0,0-.5,22.55H100a11.28,11.28,0,0,0,.5-22.55Z"/><path d="M185.71,106.9h.34a7.28,7.28,0,0,1-.32,14.55h-.34a7.28,7.28,0,0,1,.32-14.55m0-4a11.28,11.28,0,0,0-.5,22.54h.52a11.28,11.28,0,0,0,.5-22.54Z"/><path class="cls-2" d="M153,23.07h-.43A9.28,9.28,0,0,1,153,4.51h.43A9.28,9.28,0,0,1,153,23.07Z"/><path d="M153,6.51h.34A7.28,7.28,0,0,1,153,21.07h-.34A7.28,7.28,0,0,1,153,6.51m0-4a11.28,11.28,0,0,0-.5,22.55H153a11.28,11.28,0,0,0,.5-22.55Z"/><path class="cls-2" d="M47,23.07h-.43A9.28,9.28,0,0,1,47,4.51h.43A9.28,9.28,0,0,1,47,23.07Z"/><path d="M47,6.51h.34A7.28,7.28,0,0,1,47,21.07h-.34A7.28,7.28,0,0,1,47,6.51m0-4a11.28,11.28,0,0,0-.5,22.55H47a11.28,11.28,0,0,0,.5-22.55Z"/><path class="cls-2" d="M14.29,123.45h-.43a9.27,9.27,0,0,1,.41-18.54h.43a9.27,9.27,0,0,1-.41,18.54Z"/><path d="M14.27,106.9h.34a7.28,7.28,0,0,1-.32,14.55H14a7.28,7.28,0,0,1,.32-14.55m0-4a11.28,11.28,0,0,0-.5,22.54h.52a11.28,11.28,0,0,0,.5-22.54Z"/></svg>