<svg id="Layer_1" data-name="Layer 1" xmlns="http://www.w3.org/2000/svg" viewBox="0 0 200 200"><defs><style>.cls-1{fill:#fff;}.cls-2{fill:blue;}</style></defs><title>Artboard 1</title><polygon class="cls-1" points="48.91 139.5 100 51 151.09 139.5 48.91 139.5"/><path d="M100,52l50.23,87H49.77L100,52m0-2L48,140H152L100,50Z"/><circle class="cls-2" cx="152" cy="140" r="9.88"/><path d="M152,130.25a9.75,9.75,0,1,1-9.75,9.75,9.76,9.76,0,0,1,9.75-9.75m0-.25a10,10,0,1,0,10,10,10,10,0,0,0-10-10Z"/><circle class="cls-1" cx="48" cy="140" r="9.88"/><path d="M48,130.25A9.75,9.75,0,1,1,38.25,140,9.76,9.76,0,0,1,48,130.25m0-.25a10,10,0,1,0,10,10,10,10,0,0,0-10-10Z"/><circle class="cls-2" cx="100" cy="50" r="9.88"/><path d="M100,40.25A9.75,9.75,0,1,1,90.25,50,9.76,9.76,0,0,1,100,40.25m0-.25a10,10,0,1,0,10,10,10,10,0,0,0-10-10Z"/></svg>