<svg id="Layer_1" data-name="Layer 1" xmlns="http://www.w3.org/2000/svg" viewBox="0 0 200 200"><defs><style>.cls-1{fill:#fff;}.cls-2{fill:blue;}</style></defs><title>Artboard 5</title><polygon class="cls-1" points="24.5 116.89 53.34 28.14 146.66 28.14 175.5 116.89 100 171.74 24.5 116.89"/><path d="M146.3,28.64l28.61,88.06L100,171.12,25.09,116.7,53.7,28.64h92.6m.72-1H53L23.92,117.08,100,172.36l76.08-55.28L147,27.64Z"/><circle class="cls-2" cx="100" cy="172" r="9.88"/><path d="M100,162.25A9.75,9.75,0,1,1,90.25,172a9.76,9.76,0,0,1,9.75-9.75m0-.25a10,10,0,1,0,10,10,10,10,0,0,0-10-10Z"/><path d="M176,107.25a9.75,9.75,0,1,1-9.75,9.75,9.76,9.76,0,0,1,9.75-9.75m0-.25a10,10,0,1,0,10,10,10,10,0,0,0-10-10Z"/><circle class="cls-2" cx="147" cy="28" r="9.88"/><path d="M147,18.25A9.75,9.75,0,1,1,137.25,28,9.76,9.76,0,0,1,147,18.25m0-.25a10,10,0,1,0,10,10,10,10,0,0,0-10-10Z"/><circle class="cls-2" cx="53" cy="28" r="9.88"/><path d="M53,18.25A9.75,9.75,0,1,1,43.25,28,9.76,9.76,0,0,1,53,18.25M53,18A10,10,0,1,0,63,28,10,10,0,0,0,53,18Z"/><path d="M24,107.25h.45A9.75,9.75,0,0,1,24,126.75h-.45A9.75,9.75,0,0,1,24,107.25m0-.25a10,10,0,0,0-.44,20H24a10,10,0,0,0,.44-20Z"/></svg>