<svg id="Layer_1" data-name="Layer 1" xmlns="http://www.w3.org/2000/svg" viewBox="0 0 200 179"><defs><style>.cls-1{fill:#fff;}.cls-2{fill:blue;}</style></defs><title>Artboard 1</title><polygon class="cls-1" points="23.04 157.9 100 24.6 176.96 157.9 23.04 157.9"/><path d="M100,29.6l72.63,125.8H27.37L100,29.6m0-10L18.71,160.4H181.29L100,19.6Z"/><circle class="cls-2" cx="181.35" cy="160.4" r="15.65"/><path class="cls-1" d="M18.65,173.55A13.15,13.15,0,1,1,31.79,160.4,13.17,13.17,0,0,1,18.65,173.55Z"/><path d="M18.65,149.76A10.65,10.65,0,1,1,8,160.4a10.65,10.65,0,0,1,10.65-10.64m0-5A15.65,15.65,0,1,0,34.29,160.4a15.64,15.64,0,0,0-15.64-15.64Z"/><circle class="cls-2" cx="100" cy="19.6" r="15.65"/></svg>