<svg id="Layer_1" data-name="Layer 1" xmlns="http://www.w3.org/2000/svg" viewBox="0 0 200 200"><defs><style>.cls-1{fill:#fff;}.cls-2{fill:blue;}</style></defs><title>Artboard3</title><polygon class="cls-1" points="39.44 100 100 18.76 160.56 100 100 181.24 39.44 100"/><path d="M100,23,157.44,100,100,177.05,42.56,100,100,23m0-8.37L36.32,100,100,185.42,163.68,100,100,14.58Z"/><path d="M100,178.34a7.08,7.08,0,1,1-7.08,7.08,7.09,7.09,0,0,1,7.08-7.08m0-5a12.08,12.08,0,1,0,12.08,12.08A12.08,12.08,0,0,0,100,173.34Z"/><circle class="cls-2" cx="163.68" cy="100" r="12.08"/><circle class="cls-2" cx="100" cy="14.58" r="12.08"/><path d="M36.32,92.92A7.08,7.08,0,1,1,29.24,100a7.09,7.09,0,0,1,7.08-7.08m0-5A12.08,12.08,0,1,0,48.4,100,12.08,12.08,0,0,0,36.32,87.92Z"/></svg>