<svg id="Layer_1" data-name="Layer 1" xmlns="http://www.w3.org/2000/svg" viewBox="0 0 200 189.5"><defs><style>.cls-1{fill:#fff;}.cls-2{fill:blue;}</style></defs><title>Artboard 7</title><polygon class="cls-1" points="16.68 112.91 48.51 14.96 151.49 14.96 183.32 112.91 100 173.45 16.68 112.91"/><path d="M149.68,17.46l30.7,94.5L100,170.36,19.62,112l30.7-94.5h99.36m3.63-5H46.69L13.74,113.87,100,176.54l86.26-62.67L153.31,12.46Z"/><path class="cls-2" d="M46.72,22.21h-.43a9.33,9.33,0,0,1,.42-18.66h.43a9.34,9.34,0,0,1-.42,18.67Z"/><path d="M46.71,5.53h.34a7.34,7.34,0,0,1-.33,14.67h-.34a7.34,7.34,0,0,1,.33-14.67m0-4A11.34,11.34,0,0,0,46.2,24.2h.52a11.34,11.34,0,0,0,.51-22.66l-.52,0Z"/><path class="cls-2" d="M153.29,22.21h-.43a9.33,9.33,0,0,1,.42-18.66h.43a9.34,9.34,0,0,1-.42,18.67Z"/><path d="M153.28,5.53h.34a7.34,7.34,0,0,1-.33,14.67H153a7.34,7.34,0,0,1,.33-14.67m0-4a11.34,11.34,0,0,0-.51,22.67h.52a11.34,11.34,0,0,0,.51-22.66l-.52,0Z"/><path d="M186.16,106.44h.34a7.34,7.34,0,0,1-.33,14.67h-.34a7.33,7.33,0,0,1,.33-14.66m0-4a11.34,11.34,0,0,0-.5,22.66h.52a11.34,11.34,0,0,0,.51-22.66Z"/><path class="cls-2" d="M13.85,123.11h-.44a9.33,9.33,0,0,1,.42-18.66h.43a9.33,9.33,0,0,1-.41,18.66Z"/><path d="M13.83,106.44h.34a7.34,7.34,0,0,1-.32,14.67H13.5a7.33,7.33,0,0,1,.33-14.66m0-4a11.34,11.34,0,0,0-.51,22.66h.53a11.34,11.34,0,0,0,.5-22.66Z"/><path class="cls-2" d="M100,185.46h-.43a9.34,9.34,0,0,1,.41-18.67h.43a9.33,9.33,0,0,1-.41,18.66Z"/><path d="M100,168.79h.34a7.34,7.34,0,0,1-.32,14.67h-.34a7.34,7.34,0,0,1,.32-14.67m0-4a11.34,11.34,0,0,0-.5,22.66l.52,0a11.34,11.34,0,0,0,.5-22.67Z"/></svg>