<svg id="Layer_1" data-name="Layer 1" xmlns="http://www.w3.org/2000/svg" viewBox="0 0 200 200"><defs><style>.cls-1,.cls-2{fill:none;}.cls-1,.cls-2,.cls-3{stroke:#000;stroke-width:0.25px;}.cls-1{stroke-miterlimit:10;}.cls-3{fill:blue;stroke-linejoin:round;}</style></defs><title>Artboard 1</title><g id="layer1"><path id="path5891" class="cls-1" d="M90.24,49.62c0-.44.5-.7,2.15-1.14,2.49-.67,3.35-1.09,4.5-2.17a10.48,10.48,0,0,0,3.27-7.3c.07-1.5,0-1.72-.17-1.4l-1,1.58A8.37,8.37,0,0,1,91.71,43a6.7,6.7,0,0,1-5.55-3.88,5.34,5.34,0,0,1-.74-3,5.42,5.42,0,0,1,.64-2.8,7.78,7.78,0,0,1,3.09-3.26,3.59,3.59,0,0,1,2.45-.41A7.89,7.89,0,0,1,94,30.2a3.31,3.31,0,0,0,1,.34,4.93,4.93,0,0,0-.56-1.34,5.11,5.11,0,0,1-.65-3,7.38,7.38,0,0,1,1.89-4.68,6.22,6.22,0,0,1,5-1.71,6,6,0,0,1,4.47,1.88,7.17,7.17,0,0,1,1.8,4.42,5.2,5.2,0,0,1-.7,3.11,4.46,4.46,0,0,0-.56,1.42,10.16,10.16,0,0,0,1.29-.54,5.8,5.8,0,0,1,7.78,3.09,5.71,5.71,0,0,1,.62,3,5.22,5.22,0,0,1-.69,3.06,6.7,6.7,0,0,1-7.23,3.68,9.3,9.3,0,0,1-5.89-4.26,8.71,8.71,0,0,0-.93-1.29,17,17,0,0,0,.45,3.9,9.53,9.53,0,0,0,4.51,6.21,19.29,19.29,0,0,0,4.41,1.42.86.86,0,0,1,.62.51c.1.4,0,.4-10.16.4-5.65,0-10.27-.06-10.27-.15Z"/></g><g id="layer1-2" data-name="layer1"><path id="path2076" class="cls-2" d="M150.65,95.34c-11.82,10.1-.32,17.45,9,12.63.06,2.49-2.28,4.81-3.71,7h10.09c-1.48-2.16-4-4.53-4-7,9.55,4.58,19.69-3.41,9.11-12.63-5.52-5.06-9-9-10.28-10.34a105.33,105.33,0,0,1-10.19,10.34Z"/></g><path class="cls-3" d="M93.38,180.68c-4.35,0-7.88-3.81-7.88-8.51,0-9.55,8.92-12,15-21.49,5.75,9.38,15,12.25,15,21.49,0,4.7-3.53,8.51-7.88,8.51a7.85,7.85,0,0,1-7.12-4.91,7.85,7.85,0,0,1-7.12,4.91Z"/><g id="layer1-3" data-name="layer1"><path id="path3200" class="cls-2" d="M40,83c-3.36,5.7-6.31,12.72-13,17,6.69,4.27,9.64,11.29,13,17,3.36-5.71,6.31-12.73,13-17C46.31,95.75,43.36,88.73,40,83Z"/></g><polygon class="cls-3" points="100 52 104.59 86.11 116.97 80.23 111.09 92.61 140.8 97.2 111.09 101.79 116.97 114.17 104.59 108.29 100 148 95.41 108.29 83.03 114.17 88.91 101.79 59.2 97.2 88.91 92.61 83.03 80.23 95.41 86.11 100 52"/></svg>