<svg id="Layer_1" data-name="Layer 1" xmlns="http://www.w3.org/2000/svg" viewBox="0 0 200 179"><defs><style>.cls-1,.cls-2{fill:none;}.cls-1,.cls-2,.cls-3,.cls-4{stroke:#000;stroke-width:3px;}.cls-2{stroke-miterlimit:10;}.cls-3,.cls-4{fill:blue;}.cls-4{stroke-linejoin:round;}</style></defs><title>Artboard 4</title><g id="layer1"><path id="path3200" class="cls-1" d="M100.65,2.24C96.56,9.2,93,17.76,84.8,23,93,28.19,96.56,36.75,100.65,43.71c4.1-7,7.7-15.52,15.86-20.73C108.35,17.76,104.75,9.2,100.65,2.24Z"/></g><g id="layer1-2" data-name="layer1"><path id="path5891" class="cls-2" d="M88.7,141.15c0,.53.6.85,2.62,1.39,3,.82,4.08,1.33,5.48,2.65a12.76,12.76,0,0,1,4,8.91c.09,1.82.06,2.09-.2,1.7l-1.28-1.92a10.19,10.19,0,0,0-8.82-4.66,8.17,8.17,0,0,0-6.78,4.72A7.83,7.83,0,0,0,83.6,161a9.45,9.45,0,0,0,3.76,4,4.4,4.4,0,0,0,3,.49,9.55,9.55,0,0,0,3-.64,3.56,3.56,0,0,1,1.27-.41,6.65,6.65,0,0,1-.69,1.63,6.22,6.22,0,0,0-.79,3.7,9,9,0,0,0,2.31,5.7,7.57,7.57,0,0,0,6,2.09,7.28,7.28,0,0,0,5.45-2.3,8.81,8.81,0,0,0,2.19-5.39,6.35,6.35,0,0,0-.85-3.79,5.6,5.6,0,0,1-.69-1.73,11.77,11.77,0,0,1,1.57.65,7.06,7.06,0,0,0,9.49-3.76,6.9,6.9,0,0,0,.76-3.64,6.37,6.37,0,0,0-.84-3.73,8.18,8.18,0,0,0-8.82-4.49,11.33,11.33,0,0,0-7.18,5.2,10.38,10.38,0,0,1-1.13,1.57,20.24,20.24,0,0,1,.54-4.75,11.64,11.64,0,0,1,5.5-7.58,23.71,23.71,0,0,1,5.38-1.73,1,1,0,0,0,.76-.63c.12-.48,0-.48-12.4-.48-6.88,0-12.52.08-12.51.18Z"/></g><g id="layer1-3" data-name="layer1"><path id="path2076" class="cls-3" d="M8.76,86.78c-14.42,12.31-.4,21.28,11,15.4.06,3-2.78,5.87-4.53,8.58h12.3c-1.8-2.64-4.81-5.53-4.92-8.58,11.64,5.59,24-4.15,11.1-15.4C27,80.61,22.77,75.8,21.19,74.17A132.89,132.89,0,0,1,8.76,86.78Z"/></g><path class="cls-4" d="M187.4,110.36c5.3,0,9.6-4.64,9.6-10.37,0-11.65-10.88-14.7-18.29-26.22-7,11.45-18.3,14.94-18.3,26.22,0,5.73,4.3,10.37,9.61,10.37a9.6,9.6,0,0,0,8.69-6,9.57,9.57,0,0,0,8.69,6Z"/><polygon class="cls-4" points="100.65 46.12 106.25 75.53 121.35 68.35 114.17 83.45 162.61 89.05 114.17 94.65 121.35 109.74 106.25 102.57 100.65 138.81 95.05 102.57 79.95 109.74 87.13 94.65 38.7 89.05 87.13 83.45 79.95 68.35 95.05 75.53 100.65 46.12"/></svg>