<svg id="Layer_1" data-name="Layer 1" xmlns="http://www.w3.org/2000/svg" viewBox="0 0 200 168"><defs><style>.cls-1,.cls-2{fill:none;}.cls-1,.cls-2,.cls-3,.cls-4{stroke:#000;stroke-width:3px;}.cls-2{stroke-miterlimit:10;}.cls-3,.cls-4{fill:blue;}.cls-4{stroke-linejoin:round;}</style></defs><title>Artboard 7</title><g id="layer1"><path id="path3200" class="cls-1" d="M80.38,17.2C87.31,21.28,95.84,24.87,101,33c5.2-8.13,13.73-11.72,20.67-15.8C114.77,13.12,106.24,9.53,101,1.4,95.84,9.53,87.31,13.12,80.38,17.2Z"/></g><g id="layer1-2" data-name="layer1"><path id="path5891" class="cls-2" d="M89.13,166.22c0-.53.6-.85,2.61-1.39,3-.82,4.07-1.32,5.46-2.64a12.67,12.67,0,0,0,4-8.87c.1-1.82.07-2.09-.19-1.71l-1.27,1.92a10.18,10.18,0,0,1-8.8,4.65,8.15,8.15,0,0,1-6.75-4.71,6.49,6.49,0,0,1-.9-3.64,6.59,6.59,0,0,1,.78-3.4,9.41,9.41,0,0,1,3.75-4,4.4,4.4,0,0,1,3-.49,9.42,9.42,0,0,1,3,.64A3.56,3.56,0,0,0,95,143a6.65,6.65,0,0,0-.69-1.63,6.16,6.16,0,0,1-.79-3.68A9,9,0,0,1,95.84,132a7.51,7.51,0,0,1,6-2.07,7.22,7.22,0,0,1,5.43,2.28,8.72,8.72,0,0,1,2.19,5.37,6.3,6.3,0,0,1-.85,3.78,5.71,5.71,0,0,0-.68,1.73,11.91,11.91,0,0,0,1.56-.65A7,7,0,0,1,119,146.2a6.91,6.91,0,0,1,.76,3.63,6.39,6.39,0,0,1-.84,3.73A8.17,8.17,0,0,1,110.1,158a11.32,11.32,0,0,1-7.16-5.19,10.21,10.21,0,0,0-1.13-1.57,20.45,20.45,0,0,0,.55,4.75,11.62,11.62,0,0,0,5.47,7.55,24.65,24.65,0,0,0,5.37,1.73,1,1,0,0,1,.76.62c.12.48,0,.48-12.36.48-6.86,0-12.48-.08-12.47-.18Z"/></g><g id="layer1-3" data-name="layer1"><path id="path2076" class="cls-3" d="M8.24,75.93c-14.37,12.27-.4,21.21,11,15.35.06,3-2.77,5.85-4.51,8.54H27c-1.79-2.62-4.79-5.51-4.9-8.54C33.65,96.85,46,87.14,33.11,75.93,26.4,69.77,22.21,65,20.63,63.36A134.75,134.75,0,0,1,8.24,75.93Z"/></g><path class="cls-4" d="M189.93,99.43c5.28,0,9.57-4.63,9.57-10.34,0-11.6-10.84-14.65-18.23-26.12-7,11.4-18.24,14.89-18.24,26.12,0,5.71,4.29,10.34,9.58,10.34a9.55,9.55,0,0,0,8.66-6,9.54,9.54,0,0,0,8.66,6Z"/><polygon class="cls-4" points="101.04 35.4 106.62 64.71 121.67 57.56 114.52 72.61 162.79 78.19 114.52 83.77 121.67 98.81 106.62 91.66 101.04 127.78 95.46 91.66 80.41 98.81 87.56 83.77 39.29 78.19 87.56 72.61 80.41 57.56 95.46 64.71 101.04 35.4"/></svg>