<svg id="Layer_1" data-name="Layer 1" xmlns="http://www.w3.org/2000/svg" viewBox="0 0 200 168"><defs><style>.cls-1,.cls-2,.cls-4{fill:none;}.cls-1,.cls-2,.cls-3,.cls-4{stroke:#000;stroke-width:3px;}.cls-2{stroke-miterlimit:10;}.cls-3{fill:blue;}.cls-3,.cls-4{stroke-linejoin:round;}</style></defs><title>Artboard 6</title><g id="layer1"><path id="path3200" class="cls-1" d="M79.4,18.61c6.89,4.05,15.37,7.62,20.54,15.7,5.16-8.08,13.64-11.65,20.53-15.7C113.58,14.55,105.1,11,99.94,2.9,94.77,11,86.29,14.55,79.4,18.61Z"/></g><g id="layer1-2" data-name="layer1"><path id="path5891" class="cls-2" d="M88.09,130.83c0,.53.6.85,2.6,1.39,3,.81,4,1.31,5.43,2.62a12.64,12.64,0,0,1,3.95,8.82c.09,1.8.06,2.07-.2,1.69l-1.26-1.91a10.11,10.11,0,0,0-8.74-4.61,8.1,8.1,0,0,0-6.72,4.67,7.85,7.85,0,0,0-.11,7,9.31,9.31,0,0,0,3.73,3.95,4.27,4.27,0,0,0,3,.48,9.37,9.37,0,0,0,3-.63,3.79,3.79,0,0,1,1.26-.41,6.26,6.26,0,0,1-.68,1.62,6.1,6.1,0,0,0-.79,3.66,8.92,8.92,0,0,0,2.29,5.65,7.49,7.49,0,0,0,6,2.07,7.22,7.22,0,0,0,5.4-2.27,8.67,8.67,0,0,0,2.17-5.34,6.3,6.3,0,0,0-.84-3.76,5.71,5.71,0,0,1-.68-1.72,11.91,11.91,0,0,1,1.56.65,7.49,7.49,0,0,0,10.15-7.33,6.31,6.31,0,0,0-.83-3.7,8.11,8.11,0,0,0-8.74-4.44,11.27,11.27,0,0,0-7.12,5.15,10.15,10.15,0,0,1-1.12,1.56,20.62,20.62,0,0,1,.54-4.72,11.58,11.58,0,0,1,5.45-7.5,23.9,23.9,0,0,1,5.33-1.72,1,1,0,0,0,.75-.62c.12-.47,0-.48-12.28-.48-6.82,0-12.4.08-12.4.18Z"/></g><g id="layer1-3" data-name="layer1"><path id="path2076" class="cls-3" d="M7.7,88.23C-6.58,76,7.31,67.15,18.6,73c.06-3-2.76-5.81-4.49-8.49H26.3C24.51,67.09,21.53,70,21.43,73c11.52-5.53,23.78,4.12,11,15.26C25.75,94.35,21.58,99.11,20,100.73A130,130,0,0,0,7.7,88.23Z"/></g><path class="cls-3" d="M172.27,64.09c-5.25,0-9.51,4.61-9.51,10.28,0,11.54,10.77,14.56,18.12,26C187.82,89,199,85.54,199,74.37c0-5.67-4.26-10.28-9.51-10.28A9.5,9.5,0,0,0,180.88,70a9.5,9.5,0,0,0-8.61-5.93Z"/><polygon class="cls-4" points="99.94 36.7 105.48 65.83 120.44 58.72 113.33 73.67 161.31 79.22 113.33 84.77 120.44 99.72 105.48 92.61 99.94 128.51 94.39 92.61 79.43 99.72 86.54 84.77 38.56 79.22 86.54 73.67 79.43 58.72 94.39 65.83 99.94 36.7"/></svg>