<svg id="Layer_1" data-name="Layer 1" xmlns="http://www.w3.org/2000/svg" viewBox="0 0 200 200"><defs><style>.cls-1,.cls-3{fill:blue;}.cls-1,.cls-2,.cls-3{stroke:#000;stroke-width:3px;}.cls-1,.cls-2{stroke-linejoin:round;}.cls-2{fill:none;}</style></defs><title>Artboard 2</title><g id="layer1"><path id="path5891" class="cls-1" d="M83.24,3.63c0,.55.7.88,3,1.44,3.5.83,4.71,1.35,6.33,2.71a12.47,12.47,0,0,1,4.61,9.12c.11,1.87.07,2.15-.23,1.75l-1.47-2a12.31,12.31,0,0,0-10.2-4.78,9.5,9.5,0,0,0-7.83,4.84,6.15,6.15,0,0,0-1,3.74,6.17,6.17,0,0,0,.9,3.5,10.33,10.33,0,0,0,4.35,4.08,5.55,5.55,0,0,0,3.46.5,12.38,12.38,0,0,0,3.44-.65,5,5,0,0,1,1.47-.43,6.12,6.12,0,0,1-.8,1.67,5.79,5.79,0,0,0-.91,3.79A8.69,8.69,0,0,0,91,38.79c1.79,1.51,3.79,2.24,7,2.13a8.88,8.88,0,0,0,6.3-2.35,8.49,8.49,0,0,0,2.53-5.52,5.93,5.93,0,0,0-1-3.88,5.37,5.37,0,0,1-.8-1.78,14.36,14.36,0,0,1,1.82.67,8.59,8.59,0,0,0,11-3.85,6.42,6.42,0,0,0,.87-3.73,6,6,0,0,0-1-3.83,9.83,9.83,0,0,0-10.19-4.59,13.19,13.19,0,0,0-8.31,5.33A11.22,11.22,0,0,1,98,19c-.2,0,.21-3.19.63-4.88a12.16,12.16,0,0,1,6.35-7.76,29.91,29.91,0,0,1,6.23-1.77A1.17,1.17,0,0,0,112,4c.14-.5,0-.5-14.33-.5-8,0-14.46.08-14.46.18Z"/></g><g id="layer1-2" data-name="layer1"><path id="path2076" class="cls-1" d="M162.81,108.26c-16.66-12.61-.46-21.8,12.71-15.78.07-3.11-3.21-6-5.23-8.78h14.22c-2.09,2.7-5.56,5.67-5.69,8.78,13.45-5.72,27.75,4.26,12.83,15.78-7.78,6.33-12.65,11.25-14.48,12.92a144.82,144.82,0,0,0-14.36-12.92Z"/></g><path class="cls-2" d="M87,159.52a10.88,10.88,0,0,0-11.1,10.62c0,11.93,12.58,15.06,21.14,26.86,8.1-11.72,21.15-15.31,21.15-26.86a10.88,10.88,0,0,0-11.1-10.62,11.15,11.15,0,0,0-10,6.12,11.13,11.13,0,0,0-10-6.12Z"/><g id="layer1-3" data-name="layer1"><path id="path3200" class="cls-3" d="M20.94,81.24c-4.73,7.12-8.89,15.9-18.32,21.24,9.43,5.34,13.59,14.11,18.32,21.24,4.74-7.13,8.9-15.9,18.33-21.24C29.84,97.14,25.68,88.36,20.94,81.24Z"/></g><polygon class="cls-2" points="97.05 42.47 103.53 85.09 120.97 77.74 112.68 93.21 154.56 98.94 112.68 104.68 120.97 120.15 103.53 112.8 97.05 162.42 90.58 112.8 73.14 120.15 81.43 104.68 39.55 98.94 81.43 93.21 73.14 77.74 90.58 85.09 97.05 42.47"/></svg>