<svg id="Layer_1" data-name="Layer 1" xmlns="http://www.w3.org/2000/svg" viewBox="0 0 200 200"><defs><style>.cls-1,.cls-2{fill:none;}.cls-1,.cls-2,.cls-3{stroke:#000;stroke-width:3px;}.cls-1{stroke-miterlimit:10;}.cls-3{fill:blue;stroke-linejoin:round;}</style></defs><title>Artboard 1</title><g id="layer1"><path id="path5891" class="cls-1" d="M86,39.19c0-.55.69-.86,3-1.41,3.43-.83,4.62-1.34,6.2-2.67a12.33,12.33,0,0,0,4.52-9c.1-1.84.07-2.11-.23-1.72l-1.44,1.94a12,12,0,0,1-10,4.7,9.31,9.31,0,0,1-7.67-4.76,6.06,6.06,0,0,1-1-3.68,6.16,6.16,0,0,1,.89-3.45,10,10,0,0,1,4.26-4,5.49,5.49,0,0,1,3.39-.5,12.2,12.2,0,0,1,3.36.65,4.7,4.7,0,0,0,1.44.42,5.94,5.94,0,0,0-.78-1.65A5.7,5.7,0,0,1,91,10.32a8.64,8.64,0,0,1,2.61-5.76,9.24,9.24,0,0,1,6.85-2.1,8.74,8.74,0,0,1,6.17,2.31,8.38,8.38,0,0,1,2.48,5.44,5.88,5.88,0,0,1-1,3.83,5.38,5.38,0,0,0-.78,1.75,15.29,15.29,0,0,0,1.78-.66,8.39,8.39,0,0,1,10.74,3.79,6.34,6.34,0,0,1,.86,3.68,5.86,5.86,0,0,1-1,3.76,9.61,9.61,0,0,1-10,4.53,12.89,12.89,0,0,1-8.14-5.25,12.11,12.11,0,0,0-1.27-1.59c-.2,0,.2,3.14.61,4.8a11.92,11.92,0,0,0,6.22,7.65,29.84,29.84,0,0,0,6.1,1.75,1.12,1.12,0,0,1,.85.63c.14.48,0,.49-14,.49-7.79,0-14.17-.08-14.17-.18Z"/></g><g id="layer1-2" data-name="layer1"><path id="path2076" class="cls-2" d="M162.53,94.22c-16.32,12.42-.45,21.47,12.45,15.54.07,3.06-3.15,5.92-5.13,8.65h13.93c-2-2.66-5.44-5.58-5.57-8.65,13.18,5.64,27.18-4.2,12.57-15.54C183.16,88,178.39,83.14,176.6,81.49a142,142,0,0,1-14.07,12.73Z"/></g><path class="cls-3" d="M90.36,198a10.68,10.68,0,0,1-10.88-10.47c0-11.75,12.32-14.83,20.71-26.45,7.94,11.55,20.71,15.08,20.71,26.45A10.68,10.68,0,0,1,110,198a10.9,10.9,0,0,1-9.84-6,10.89,10.89,0,0,1-9.83,6Z"/><g id="layer1-3" data-name="layer1"><path id="path3200" class="cls-2" d="M23.57,79.06c-4.64,7-8.71,15.66-17.95,20.92,9.24,5.26,13.31,13.9,18,20.92,4.64-7,8.71-15.66,18-20.92C32.28,94.72,28.21,86.08,23.57,79.06Z"/></g><polygon class="cls-3" points="99.5 40.88 105.84 82.86 122.93 75.62 114.81 90.85 155.83 96.5 114.81 102.15 122.93 117.39 105.84 110.14 99.5 159.02 93.16 110.14 76.07 117.39 84.2 102.15 43.17 96.5 84.2 90.85 76.07 75.62 93.16 82.86 99.5 40.88"/></svg>