<svg id="Layer_1" data-name="Layer 1" xmlns="http://www.w3.org/2000/svg" viewBox="0 0 200 200"><defs><style>.cls-1,.cls-2{fill:none;}.cls-1,.cls-2,.cls-3,.cls-4{stroke:#000;stroke-width:0.25px;}.cls-2{stroke-miterlimit:10;}.cls-3,.cls-4{fill:blue;}.cls-4{stroke-linejoin:round;}</style></defs><title>Artboard 4</title><g id="layer1"><path id="path3200" class="cls-1" d="M100,23c-3.36,5.7-6.31,12.72-13,17,6.69,4.27,9.64,11.29,13,17,3.36-5.71,6.31-12.73,13-17C106.31,35.75,103.36,28.73,100,23Z"/></g><g id="layer1-2" data-name="layer1"><path id="path5891" class="cls-2" d="M90.2,140.92c0,.44.49.7,2.15,1.15,2.48.67,3.34,1.08,4.49,2.16a10.49,10.49,0,0,1,3.27,7.31c.08,1.49,0,1.71-.16,1.4l-1-1.58a8.35,8.35,0,0,0-7.23-3.82,6.7,6.7,0,0,0-5.56,3.87,5.26,5.26,0,0,0-.73,3,5.51,5.51,0,0,0,.63,2.8,7.81,7.81,0,0,0,3.09,3.27,3.55,3.55,0,0,0,2.46.4,7.84,7.84,0,0,0,2.43-.52A2.77,2.77,0,0,1,95,160a5.32,5.32,0,0,1-.57,1.33,5.14,5.14,0,0,0-.65,3,7.36,7.36,0,0,0,1.9,4.67,6.16,6.16,0,0,0,5,1.71,6,6,0,0,0,4.47-1.88,7.21,7.21,0,0,0,1.79-4.42,5.28,5.28,0,0,0-.69-3.11,4.66,4.66,0,0,1-.57-1.42,10.53,10.53,0,0,1,1.29.54,5.79,5.79,0,0,0,7.78-3.08,5.53,5.53,0,0,0,.62-3,5.25,5.25,0,0,0-.68-3.06,6.72,6.72,0,0,0-7.24-3.68,9.3,9.3,0,0,0-5.89,4.27,9.1,9.1,0,0,1-.92,1.29,16.15,16.15,0,0,1,.44-3.9,9.58,9.58,0,0,1,4.51-6.22,20.46,20.46,0,0,1,4.42-1.42.81.81,0,0,0,.61-.51c.11-.39,0-.4-10.16-.4-5.65,0-10.26.07-10.26.15Z"/></g><g id="layer1-3" data-name="layer1"><path id="path2076" class="cls-3" d="M18.65,95.34c-11.82,10.1-.32,17.45,9,12.63.06,2.49-2.28,4.81-3.71,7H34.05c-1.48-2.16-3.95-4.53-4-7,9.55,4.58,19.69-3.41,9.11-12.63-5.52-5.06-9-9-10.28-10.34A105.33,105.33,0,0,1,18.65,95.34Z"/></g><path class="cls-4" d="M176.12,114.68c4.35,0,7.88-3.81,7.88-8.51,0-9.55-8.92-12-15-21.49-5.75,9.38-15,12.25-15,21.49,0,4.7,3.53,8.51,7.88,8.51a7.85,7.85,0,0,0,7.12-4.91,7.85,7.85,0,0,0,7.12,4.91Z"/><polygon class="cls-4" points="100 62 104.59 86.11 116.97 80.23 111.09 92.61 150.8 97.2 111.09 101.79 116.97 114.17 104.59 108.29 100 138 95.41 108.29 83.03 114.17 88.91 101.79 49.2 97.2 88.91 92.61 83.03 80.23 95.41 86.11 100 62"/></svg>