<svg id="Layer_1" data-name="Layer 1" xmlns="http://www.w3.org/2000/svg" viewBox="0 0 200 200"><defs><style>.cls-1,.cls-2,.cls-5{fill:none;}.cls-1,.cls-2,.cls-3,.cls-4,.cls-5{stroke:#000;stroke-width:0.25px;}.cls-2{stroke-miterlimit:10;}.cls-3,.cls-4{fill:blue;}.cls-4,.cls-5{stroke-linejoin:round;}</style></defs><title>Artboard 5</title><g id="layer1"><path id="path3200" class="cls-1" d="M83,45c5.7,3.36,12.73,6.31,17,13,4.27-6.69,11.3-9.64,17-13-5.7-3.36-12.73-6.31-17-13C95.73,38.72,88.7,41.67,83,45Z"/></g><g id="layer1-2" data-name="layer1"><path id="path5891" class="cls-2" d="M90.2,170.62c0-.44.49-.7,2.15-1.14,2.48-.67,3.34-1.09,4.49-2.17a10.48,10.48,0,0,0,3.27-7.3c.08-1.5,0-1.72-.16-1.4s-.61.92-1,1.58A8.37,8.37,0,0,1,91.67,164a6.73,6.73,0,0,1-5.56-3.88,5.26,5.26,0,0,1-.73-3,5.54,5.54,0,0,1,.63-2.8,7.78,7.78,0,0,1,3.09-3.26,3.6,3.6,0,0,1,2.46-.41,7.82,7.82,0,0,1,2.43.53,3.25,3.25,0,0,0,1.05.34,5.16,5.16,0,0,0-.57-1.34,5.11,5.11,0,0,1-.65-3,7.39,7.39,0,0,1,1.9-4.68,6.2,6.2,0,0,1,5-1.71,6,6,0,0,1,4.47,1.88,7.21,7.21,0,0,1,1.79,4.42,5.26,5.26,0,0,1-.69,3.11,4.66,4.66,0,0,0-.57,1.42,9,9,0,0,0,1.29-.54,5.8,5.8,0,0,1,7.78,3.09,5.52,5.52,0,0,1,.62,3,5.23,5.23,0,0,1-.68,3.06,6.72,6.72,0,0,1-7.24,3.68,9.32,9.32,0,0,1-5.89-4.26,9.1,9.1,0,0,0-.92-1.29,16.19,16.19,0,0,0,.44,3.9,9.56,9.56,0,0,0,4.51,6.21,19.4,19.4,0,0,0,4.42,1.42.83.83,0,0,1,.61.51c.11.4,0,.4-10.16.4-5.65,0-10.26-.06-10.26-.15Z"/></g><g id="layer1-3" data-name="layer1"><path id="path2076" class="cls-3" d="M20.65,95.34c-11.82,10.1-.32,17.45,9,12.63.06,2.49-2.28,4.81-3.71,7H36.05c-1.48-2.16-3.95-4.53-4-7,9.55,4.58,19.69-3.41,9.11-12.63-5.52-5.06-9-9-10.28-10.34A105.33,105.33,0,0,1,20.65,95.34Z"/></g><path class="cls-4" d="M175.12,115.68c4.35,0,7.88-3.81,7.88-8.51,0-9.55-8.92-12-15-21.49-5.75,9.38-15,12.25-15,21.49,0,4.7,3.53,8.51,7.88,8.51a7.85,7.85,0,0,0,7.12-4.91,7.85,7.85,0,0,0,7.12,4.91Z"/><polygon class="cls-5" points="100 62 104.59 86.11 116.97 80.23 111.09 92.61 150.8 97.2 111.09 101.79 116.97 114.17 104.59 108.29 100 138 95.41 108.29 83.03 114.17 88.91 101.79 49.2 97.2 88.91 92.61 83.03 80.23 95.41 86.11 100 62"/></svg>