<svg id="Layer_1" data-name="Layer 1" xmlns="http://www.w3.org/2000/svg" viewBox="0 0 200 172"><defs><style>.cls-1,.cls-2,.cls-5{fill:none;}.cls-1,.cls-2,.cls-3,.cls-4,.cls-5{stroke:#000;stroke-width:3px;}.cls-2{stroke-miterlimit:10;}.cls-3,.cls-4{fill:blue;}.cls-4,.cls-5{stroke-linejoin:round;}</style></defs><title>Artboard 5</title><g id="layer1"><path id="path3200" class="cls-1" d="M80.21,18.86C87.28,23,96,26.68,101.29,35c5.3-8.3,14-11.95,21.07-16.12C115.29,14.7,106.59,11,101.29,2.74,96,11,87.28,14.7,80.21,18.86Z"/></g><g id="layer1-2" data-name="layer1"><path id="path5891" class="cls-2" d="M89.13,170.87c0-.54.62-.86,2.67-1.42,3.08-.83,4.15-1.34,5.57-2.69a12.94,12.94,0,0,0,4-9c.1-1.85.06-2.13-.2-1.74l-1.3,2a10.39,10.39,0,0,1-9,4.74,8.32,8.32,0,0,1-6.89-4.8,8,8,0,0,1-.12-7.19,9.64,9.64,0,0,1,3.83-4,4.39,4.39,0,0,1,3-.5,9.83,9.83,0,0,1,3,.64,4,4,0,0,0,1.29.43,6,6,0,0,0-.7-1.66,6.36,6.36,0,0,1-.81-3.76A9.18,9.18,0,0,1,96,136a7.62,7.62,0,0,1,6.14-2.12,7.38,7.38,0,0,1,5.54,2.33,8.94,8.94,0,0,1,2.24,5.48,6.6,6.6,0,0,1-.87,3.86,5.68,5.68,0,0,0-.7,1.76,12.52,12.52,0,0,0,1.6-.67,7.69,7.69,0,0,1,10.42,7.53,6.39,6.39,0,0,1-.86,3.79,8.31,8.31,0,0,1-9,4.56,11.52,11.52,0,0,1-7.31-5.28,11.51,11.51,0,0,0-1.14-1.6,20.56,20.56,0,0,0,.55,4.83,11.82,11.82,0,0,0,5.59,7.7,24.09,24.09,0,0,0,5.47,1.77,1.05,1.05,0,0,1,.77.63c.13.49,0,.5-12.6.5-7,0-12.73-.09-12.73-.19Z"/></g><g id="layer1-3" data-name="layer1"><path id="path2076" class="cls-3" d="M7.86,78.77c-14.66,12.52-.4,21.64,11.19,15.66.06,3.08-2.83,6-4.61,8.71H27c-1.83-2.67-4.89-5.62-5-8.71,11.83,5.68,24.41-4.23,11.28-15.66C26.39,72.49,22.11,67.61,20.5,66A134.69,134.69,0,0,1,7.86,78.77Z"/></g><path class="cls-4" d="M188.24,104c5.39,0,9.76-4.72,9.76-10.54,0-11.84-11.06-15-18.6-26.65C172.27,78.42,160.8,82,160.8,93.44c0,5.82,4.38,10.54,9.77,10.54a9.74,9.74,0,0,0,8.83-6.08,9.75,9.75,0,0,0,8.84,6.08Z"/><polygon class="cls-5" points="101.28 37.43 106.98 67.33 122.33 60.03 115.03 75.38 164.27 81.07 115.03 86.77 122.33 102.11 106.98 94.82 101.28 131.66 95.59 94.82 80.24 102.11 87.54 86.77 38.3 81.07 87.54 75.38 80.24 60.03 95.59 67.33 101.28 37.43"/></svg>