<svg id="Layer_1" data-name="Layer 1" xmlns="http://www.w3.org/2000/svg" viewBox="0 0 200 166"><defs><style>.cls-1,.cls-3{fill:blue;}.cls-1,.cls-2,.cls-3,.cls-4{stroke:#000;stroke-width:3px;}.cls-1{stroke-miterlimit:10;}.cls-2,.cls-4{fill:none;}.cls-4{stroke-linejoin:round;}</style></defs><title>Artboard 3</title><g id="layer1"><path id="path5891" class="cls-1" d="M88.22,128.37c0,.52.59.83,2.57,1.37,3,.8,4,1.3,5.37,2.59a12.51,12.51,0,0,1,3.91,8.73c.09,1.79.06,2.06-.19,1.68l-1.25-1.89A10,10,0,0,0,90,136.28a8,8,0,0,0-6.64,4.63,6.41,6.41,0,0,0-.88,3.58,6.57,6.57,0,0,0,.76,3.35,9.27,9.27,0,0,0,3.69,3.9,4.22,4.22,0,0,0,2.94.48,9.47,9.47,0,0,0,2.92-.62,3.75,3.75,0,0,1,1.24-.41,5.77,5.77,0,0,1-.67,1.6,6.07,6.07,0,0,0-.78,3.63A8.81,8.81,0,0,0,94.82,162a7.39,7.39,0,0,0,5.93,2.05,7.14,7.14,0,0,0,5.34-2.25,8.6,8.6,0,0,0,2.15-5.29,6.26,6.26,0,0,0-.83-3.72,5.32,5.32,0,0,1-.67-1.7,11.75,11.75,0,0,1,1.53.65,6.94,6.94,0,0,0,9.31-3.69,6.8,6.8,0,0,0,.75-3.57,6.34,6.34,0,0,0-.83-3.66,8,8,0,0,0-8.65-4.4,11.11,11.11,0,0,0-7,5.1,10.3,10.3,0,0,1-1.11,1.54,20.44,20.44,0,0,1,.53-4.66,11.43,11.43,0,0,1,5.39-7.43,23.25,23.25,0,0,1,5.29-1.7,1,1,0,0,0,.73-.62c.13-.47,0-.47-12.15-.47-6.75,0-12.27.08-12.27.18Z"/></g><g id="layer1-2" data-name="layer1"><path id="path2076" class="cls-2" d="M8.64,86.2C-5.5,74.12,8.25,65.33,19.43,71.09c.06-3-2.73-5.75-4.45-8.4H27.05c-1.77,2.58-4.72,5.42-4.82,8.4,11.41-5.48,23.54,4.08,10.88,15.11-6.6,6-10.73,10.76-12.28,12.37A127.93,127.93,0,0,0,8.64,86.2Z"/></g><g id="layer1-3" data-name="layer1"><path id="path3200" class="cls-3" d="M79.61,17.28c6.82,4,15.22,7.54,20.33,15.55,5.11-8,13.51-11.53,20.33-15.55-6.82-4-15.22-7.55-20.33-15.55C94.83,9.73,86.43,13.26,79.61,17.28Z"/></g><path class="cls-4" d="M171.54,63.1c-5.2,0-9.42,4.55-9.42,10.17,0,11.42,10.67,14.41,17.94,25.7C186.94,87.75,198,84.32,198,73.27c0-5.62-4.22-10.17-9.42-10.17A9.4,9.4,0,0,0,180.06,69a9.39,9.39,0,0,0-8.52-5.86Z"/><polygon class="cls-4" points="99.94 35.19 105.43 64.02 120.23 56.99 113.2 71.79 160.69 77.28 113.2 82.77 120.23 97.57 105.43 90.54 99.94 126.07 94.45 90.54 79.65 97.57 86.68 82.77 39.19 77.28 86.68 71.79 79.65 56.99 94.45 64.02 99.94 35.19"/></svg>