<svg id="Layer_1" data-name="Layer 1" xmlns="http://www.w3.org/2000/svg" viewBox="0 0 200 200"><defs><style>.cls-1{fill:blue;}.cls-2{fill:none;stroke:#000;stroke-miterlimit:10;stroke-width:5px;}</style></defs><title>Artboard 6</title><polygon class="cls-1" points="156.4 100 156.4 156.4 100 156.4 100 100.94 100 100 156.4 100"/><polygon class="cls-1" points="100 99.6 100 100 43.6 100 43.6 43.6 100 43.6 100 99.6"/><path class="cls-2" d="M100,194A94,94,0,0,1,6,100"/><path class="cls-2" d="M194,100H6A94,94,0,0,1,100,6"/><path class="cls-2" d="M194,100a94,94,0,0,1-94,94V6A94,94,0,0,1,194,100Z"/><polygon class="cls-2" points="156.4 100 156.4 156.4 100 156.4 43.6 156.4 43.6 100 43.6 43.6 100 43.6 156.4 43.6 156.4 100"/></svg>