<svg id="Layer_1" data-name="Layer 1" xmlns="http://www.w3.org/2000/svg" viewBox="0 0 200 200"><defs><style>.cls-1{fill:none;stroke:#000;stroke-miterlimit:10;stroke-width:0.25px;}</style></defs><title>Artboard 7</title><path d="M100,53.25A49.75,49.75,0,1,1,50.25,103,49.81,49.81,0,0,1,100,53.25m0-.25a50,50,0,1,0,50,50,50,50,0,0,0-50-50Z"/><path d="M100,53.25A49.75,49.75,0,1,1,50.25,103,49.81,49.81,0,0,1,100,53.25m0-.25a50,50,0,1,0,50,50,50,50,0,0,0-50-50Z"/><path d="M100,53.25a49.81,49.81,0,0,1,49.75,49.5H50.25A49.81,49.81,0,0,1,100,53.25m0-.25a50,50,0,0,0-50,50H150a50,50,0,0,0-50-50Z"/><path d="M100.25,53.25a49.75,49.75,0,0,1,0,99.5V53.25M100,53V153a50,50,0,0,0,0-100Z"/><path d="M114.75,87.75v29.5H85.25V87.75h29.5m.25-.25H85v30h30v-30Z"/><circle class="cls-1" cx="100" cy="102.5" r="25"/></svg>