<svg id="Layer_1" data-name="Layer 1" xmlns="http://www.w3.org/2000/svg" viewBox="0 0 200 200"><title>Artboard 2</title><path d="M150,50.5V150H50.5V50.5H150m.25-.25h-100v100h100v-100Z"/><path d="M100.25,88A12.25,12.25,0,1,1,88,100.25,12.27,12.27,0,0,1,100.25,88m0-.25a12.5,12.5,0,1,0,12.5,12.5,12.5,12.5,0,0,0-12.5-12.5Z"/><path d="M150,50.5v99.15l-40.73-40.74L100.4,100,50.85,50.5H150m.25-.25h-100l50,50,8.87,8.87,0,0,41.14,41.14v-100Z"/><path d="M150,50.71V150H50.87l40.7-40.75,8.83-8.85,8.83-8.84L150,50.71m.25-.46h-.14L109.05,91.38l-8.83,8.84-8.83,8.85L50.27,150.25h100v-100Z"/></svg>