<svg id="Layer_1" data-name="Layer 1" xmlns="http://www.w3.org/2000/svg" viewBox="0 0 200 200"><title>Artboard 1</title><path d="M100,50.25A24.75,24.75,0,1,1,75.25,75,24.77,24.77,0,0,1,100,50.25m0-.25a25,25,0,1,0,25,25,25,25,0,0,0-25-25Z"/><path d="M100,108.25A19.75,19.75,0,1,1,80.25,128,19.77,19.77,0,0,1,100,108.25m0-.25a20,20,0,1,0,20,20,20,20,0,0,0-20-20Z"/><path d="M100,118.25A9.75,9.75,0,1,1,90.25,128a9.76,9.76,0,0,1,9.75-9.75m0-.25a10,10,0,1,0,10,10,10,10,0,0,0-10-10Z"/><path d="M100,50.25A24.75,24.75,0,1,1,75.25,75,24.77,24.77,0,0,1,100,50.25m0-.25a25,25,0,1,0,25,25,25,25,0,0,0-25-25Z"/><path d="M100,50.25a24.79,24.79,0,0,1,24.75,24.5H75.25A24.79,24.79,0,0,1,100,50.25m0-.25A25,25,0,0,0,75,75h50a25,25,0,0,0-25-25Z"/><path d="M100.25,50.25a24.75,24.75,0,0,1,0,49.5V50.25M100,50v50a25,25,0,0,0,0-50Z"/></svg>