<svg id="Layer_1" data-name="Layer 1" xmlns="http://www.w3.org/2000/svg" viewBox="0 0 200 200"><title>Artboard 5</title><path d="M100,11a89,89,0,1,1-89,89,89.11,89.11,0,0,1,89-89m0-5a94,94,0,1,0,94,94A94,94,0,0,0,100,6Z"/><path d="M100,11a89,89,0,1,1-89,89,89.11,89.11,0,0,1,89-89m0-5a94,94,0,1,0,94,94A94,94,0,0,0,100,6Z"/><path d="M100,11a89.11,89.11,0,0,1,88.86,84H11.14A89.11,89.11,0,0,1,100,11m0-5A94,94,0,0,0,6,100H194A94,94,0,0,0,100,6Z"/><path d="M105,11.14a89,89,0,0,1,0,177.72V11.14M100,6V194A94,94,0,0,0,100,6Z"/><path d="M151.4,48.6V151.4H48.6V48.6H151.4m5-5H43.6V156.4H156.4V43.6Z"/></svg>