<svg id="Layer_1" data-name="Layer 1" xmlns="http://www.w3.org/2000/svg" viewBox="0 0 200 200"><defs><style>.cls-1{fill:blue;}.cls-2{fill:none;stroke:#000;stroke-miterlimit:10;stroke-width:0.25px;}</style></defs><title>Artboard 6</title><polygon class="cls-1" points="130.02 101.18 130.02 131.18 100.02 131.18 100.02 101.68 100.02 101.18 130.02 101.18"/><polygon class="cls-1" points="100.02 100.97 100.02 101.18 70.02 101.18 70.02 71.18 100.02 71.18 100.02 100.97"/><path class="cls-2" d="M100,151.18a50,50,0,0,1-50-50"/><path class="cls-2" d="M150,101.18H50a50,50,0,0,1,50-50"/><path class="cls-2" d="M150,101.18a50,50,0,0,1-50,50v-100A50,50,0,0,1,150,101.18Z"/><polygon class="cls-2" points="130.02 101.18 130.02 131.18 100.02 131.18 70.02 131.18 70.02 101.18 70.02 71.18 100.02 71.18 130.02 71.18 130.02 101.18"/></svg>