<svg id="Layer_1" data-name="Layer 1" xmlns="http://www.w3.org/2000/svg" viewBox="0 0 200 200"><title>Artboard 4</title><path d="M100,50.75A49.75,49.75,0,1,1,50.25,100.5,49.81,49.81,0,0,1,100,50.75m0-.25a50,50,0,1,0,50,50,50,50,0,0,0-50-50Z"/><path d="M100,50.75A49.75,49.75,0,1,1,50.25,100.5,49.81,49.81,0,0,1,100,50.75m0-.25a50,50,0,1,0,50,50,50,50,0,0,0-50-50Z"/><path d="M100,50.75a49.81,49.81,0,0,1,49.75,49.5H50.25A49.81,49.81,0,0,1,100,50.75m0-.25a50,50,0,0,0-50,50H150a50,50,0,0,0-50-50Z"/><path d="M100.25,50.75a49.75,49.75,0,0,1,0,99.5V50.75M100,50.5v100a50,50,0,0,0,0-100Z"/><path d="M114.75,85.25v29.5H85.25V85.25h29.5M115,85H85v30h30V85Z"/></svg>