<svg id="Layer_1" data-name="Layer 1" xmlns="http://www.w3.org/2000/svg" viewBox="0 0 112.67 200"><title>Artboard 1</title><path d="M56,6.67A48.52,48.52,0,1,1,7.48,55.19,48.57,48.57,0,0,1,56,6.67m0-5a53.52,53.52,0,1,0,53.52,53.52A53.51,53.51,0,0,0,56,1.67Z"/><path d="M56,117.7a37.82,37.82,0,1,1-37.81,37.82A37.86,37.86,0,0,1,56,117.7m0-5a42.82,42.82,0,1,0,42.81,42.82A42.81,42.81,0,0,0,56,112.7Z"/><path d="M56,139.11a16.41,16.41,0,1,1-16.41,16.41A16.43,16.43,0,0,1,56,139.11m0-5a21.41,21.41,0,1,0,21.41,21.41A21.42,21.42,0,0,0,56,134.11Z"/><path d="M56,6.67A48.52,48.52,0,1,1,7.48,55.19,48.57,48.57,0,0,1,56,6.67m0-5a53.52,53.52,0,1,0,53.52,53.52A53.51,53.51,0,0,0,56,1.67Z"/><path d="M56,6.67a48.58,48.58,0,0,1,48.26,43.52H7.74A48.58,48.58,0,0,1,56,6.67m0-5A53.51,53.51,0,0,0,2.48,55.19h107A53.51,53.51,0,0,0,56,1.67Z"/><path d="M61,6.92a48.52,48.52,0,0,1,0,96.53V6.92M56,1.67v107a53.52,53.52,0,1,0,0-107Z"/></svg>