<svg id="Layer_1" data-name="Layer 1" xmlns="http://www.w3.org/2000/svg" viewBox="0 0 200 200"><title>Artboard 5</title><path d="M100,50.25A49.75,49.75,0,1,1,50.25,100,49.81,49.81,0,0,1,100,50.25m0-.25a50,50,0,1,0,50,50,50,50,0,0,0-50-50Z"/><path d="M100,50.25A49.75,49.75,0,1,1,50.25,100,49.81,49.81,0,0,1,100,50.25m0-.25a50,50,0,1,0,50,50,50,50,0,0,0-50-50Z"/><path d="M100,50.25a49.81,49.81,0,0,1,49.75,49.5H50.25A49.81,49.81,0,0,1,100,50.25m0-.25a50,50,0,0,0-50,50H150a50,50,0,0,0-50-50Z"/><path d="M100.25,50.25a49.75,49.75,0,0,1,0,99.5V50.25M100,50V150a50,50,0,0,0,0-100Z"/><path d="M129.75,70.25v59.5H70.25V70.25h59.5M130,70H70v60h60V70Z"/></svg>