<svg id="Layer_1" data-name="Layer 1" xmlns="http://www.w3.org/2000/svg" viewBox="0 0 200 200"><title>Artboard 2</title><path d="M193.33,7.17V193.33H7.17V7.17H193.33m5-5H2.17V198.33H198.33V2.17Z"/><path d="M100.25,80.73a19.52,19.52,0,1,1-19.52,19.52,19.55,19.55,0,0,1,19.52-19.52m0-5a24.52,24.52,0,1,0,24.52,24.52,24.52,24.52,0,0,0-24.52-24.52Z"/><path d="M193.33,7.17V186.26L121.17,114.1l0,0-17.4-17.4L14.24,7.17H193.33m5-5H2.17l98,98,17.4,17.4,0,0,80.7,80.7V2.17Z"/><path d="M193.33,14V193.33H14.26l72.15-72.25,17.32-17.36,17.32-17.34L193.33,14m5-11.81h-.27L117.51,82.85l-17.32,17.34L82.87,117.55,2.21,198.33H198.33V2.17Z"/></svg>