<svg id="Layer_1" data-name="Layer 1" xmlns="http://www.w3.org/2000/svg" viewBox="0 0 115.59 200"><title>Artboard 3</title><path d="M105,8v96H9V8h96m5-5H4V109H110V3Z"/><path d="M105,8V97L69.91,61.86l-9.41-9.4L16.07,8H105m5-5H4L57,56l9.4,9.41,0,0L110,109V3Z"/><path d="M105,15V104H16.08L51.15,68.91l9.36-9.38,9.36-9.37L105,15M110,3h-.15L66.33,46.62,57,56l-9.36,9.39L4,109H110V3Z"/><path d="M94.41,117.17V192H19.61v-74.8h74.8m5-5H14.61V197h84.8v-84.8Z"/><path d="M67.91,143.67v21.8H46.11v-21.8h21.8m5-5H41.11v31.8h31.8v-31.8Z"/></svg>