<svg id="Layer_1" data-name="Layer 1" xmlns="http://www.w3.org/2000/svg" viewBox="0 0 200 200"><title>Artboard 3</title><path d="M149.76,2.61v99.5H50.26V2.61h99.5m.25-.25H50v100H150V2.36Z"/><path d="M149.76,2.61v99.15L109,61l-8.87-8.87L50.61,2.61h99.15m.25-.25H50l50,50,8.87,8.87,0,0L150,102.36V2.36Z"/><path d="M149.76,2.83v99.28H50.63l40.7-40.75,8.83-8.85L109,43.67,149.76,2.83m.25-.47h-.14L108.81,43.49,100,52.33l-8.83,8.85L50,102.36H150V2.36Z"/><path d="M139.77,113v79.5H60.27V113h79.5m.25-.25H60v80h80v-80Z"/><path d="M114.77,138v29.5H85.27V138h29.5m.25-.25H85v30h30v-30Z"/></svg>