<svg xmlns="http://www.w3.org/2000/svg" viewBox="0 0 119.75 100.71"><defs><style>.cls-1{fill:none;stroke:#000;stroke-miterlimit:10;}</style></defs><title>Artboard1</title><g id="Layer_2" data-name="Layer 2"><g id="Layer_1-2" data-name="Layer 1"><path d="M58.75,51.35v48h-48v-48h48m1-1h-50v50h50v-50Z"/><path d="M58.75,1.35v48h-48v-48h48m1-1h-50v50h50V.35Z"/><path d="M108.75,51.35v48h-48v-48h48m1-1h-50v50h50v-50Z"/><path d="M109.25,1.35c6,8,9,16.06,9,24s-3,16-9,24H60.75v-48h48.5m.5-1h-50v50h50q19-25,0-50Z"/><path class="cls-1" d="M109.75,100.35q19-22.5,0-50"/><path class="cls-1" d="M9.75,50.35q-18.49,25,0,50"/><path class="cls-1" d="M9.75.35q-18.49,25,0,50"/><circle class="cls-1" cx="59.75" cy="50.35" r="10"/><line class="cls-1" x1="9.75" y1="100.35" x2="52.7" y2="57.41"/><line class="cls-1" x1="109.75" y1="100.35" x2="66.82" y2="57.42"/><line class="cls-1" x1="9.75" y1="0.35" x2="52.71" y2="43.32"/><line class="cls-1" x1="59.75" y1="100.35" x2="84.75" y2="75.35"/><line class="cls-1" x1="59.75" y1="0.35" x2="34.75" y2="25.35"/><line class="cls-1" x1="59.75" y1="100.35" x2="34.75" y2="75.35"/><line class="cls-1" x1="9.75" y1="50.35" x2="52.71" y2="43.32"/><line class="cls-1" x1="52.7" y1="57.41" x2="9.75" y2="50.35"/><line class="cls-1" x1="66.82" y1="57.42" x2="109.75" y2="50.35"/></g></g></svg>