<svg xmlns="http://www.w3.org/2000/svg" viewBox="0 0 60.51 51"><defs><style>.cls-1,.cls-2{fill:none;stroke:#000;stroke-miterlimit:10;}.cls-1{stroke-linecap:round;}</style></defs><title>Artboard5</title><g id="Layer_2" data-name="Layer 2"><g id="Layer_1-2" data-name="Layer 1"><path d="M59,1.5v48H11V1.5H59m1-1H10v50H60V.5Z"/><path class="cls-1" d="M10,.5Q-9,23,10,50.5"/><path d="M19.61,1.5A8.93,8.93,0,0,1,17,6.86a8.89,8.89,0,0,1-5.36,2.59V1.5h7.94m1.06-1h-10v10a9.93,9.93,0,0,0,7.07-2.93A10,10,0,0,0,20.67.5Z"/><line class="cls-2" x1="35.01" y1="25.5" x2="59.28" y2="49.87"/><line class="cls-1" x1="15.67" y1="9.03" x2="58.6" y2="1.97"/><line class="cls-1" x1="10.01" y1="50.5" x2="60.01" y2="0.5"/></g></g></svg>