<svg xmlns="http://www.w3.org/2000/svg" viewBox="0 0 60.01 51"><defs><style>.cls-1,.cls-2{fill:none;stroke:#000;stroke-miterlimit:10;}.cls-1{stroke-linecap:round;}</style></defs><title>Artboard3</title><g id="Layer_2" data-name="Layer 2"><g id="Layer_1-2" data-name="Layer 1"><path d="M49,1.5v48H1V1.5H49m1-1H0v50H50V.5Z"/><path class="cls-1" d="M50,.5q19,22.5,0,50"/><path d="M1,41.55a8.89,8.89,0,0,1,5.36,2.59A8.94,8.94,0,0,1,9,49.5H1v-8m-1-1v10H10a10,10,0,0,0-2.93-7.07A9.93,9.93,0,0,0,0,40.5Z"/><line class="cls-1" x1="50.01" y1="0.5" x2="7.07" y2="43.43"/><line class="cls-2" x1="0.73" y1="1.13" x2="25.01" y2="25.5"/><line class="cls-1" x1="7.07" y1="43.43" x2="50.01" y2="50.5"/></g></g></svg>