<svg xmlns="http://www.w3.org/2000/svg" viewBox="0 0 50.51 50.5"><defs><style>.cls-1,.cls-2{fill:none;stroke:#000;stroke-miterlimit:10;}.cls-1{stroke-linecap:round;}</style></defs><title>Artboard2</title><g id="Layer_2" data-name="Layer 2"><g id="Layer_1-2" data-name="Layer 1"><path d="M49,1V49H1V1H49m1-1H0V50H50V0Z"/><path d="M1,41.05a8.89,8.89,0,0,1,5.36,2.59A8.94,8.94,0,0,1,9,49H1v-8M0,40V50H10a10,10,0,0,0-2.93-7.07A9.93,9.93,0,0,0,0,40Z"/><line class="cls-1" x1="48.96" y1="1.04" x2="7.07" y2="42.93"/><line class="cls-2" x1="25.41" y1="25.32" x2="49.69" y2="49.69"/><line class="cls-1" x1="7.07" y1="42.93" x2="50.01" y2="50"/></g></g></svg>