<svg xmlns="http://www.w3.org/2000/svg" viewBox="0 0 60.51 51"><defs><style>.cls-1,.cls-2{fill:none;stroke:#000;stroke-miterlimit:10;}.cls-1{stroke-linecap:round;}</style></defs><title>Artboard4</title><g id="Layer_2" data-name="Layer 2"><g id="Layer_1-2" data-name="Layer 1"><path d="M49.5,1.5v48H1.5V1.5h48m1-1H.5v50h50V.5Z"/><path class="cls-1" d="M50.51.5q19,22.5,0,50"/><path d="M48.84,1.5v8a8.91,8.91,0,0,1-5.37-2.59A8.93,8.93,0,0,1,40.89,1.5h8m1-1h-10a10,10,0,0,0,2.93,7.07,9.93,9.93,0,0,0,7.07,2.93V.5Z"/><line class="cls-2" x1="25.5" y1="25.5" x2="1.22" y2="49.87"/><line class="cls-1" x1="44.84" y1="9.03" x2="1.9" y2="1.97"/><line class="cls-1" x1="50.5" y1="50.5" x2="0.5" y2="0.5"/></g></g></svg>