<svg xmlns="http://www.w3.org/2000/svg" viewBox="0 0 128.3 60.58"><defs><style>.cls-1{fill:none;stroke:#000;stroke-miterlimit:10;}</style></defs><title>Artboard1</title><g id="Layer_2" data-name="Layer 2"><g id="Layer_1-2" data-name="Layer 1"><circle cx="10" cy="50.08" r="10"/><circle cx="64.15" cy="10" r="10"/><path d="M128.3,50.08a10,10,0,0,1-10,10,9.84,9.84,0,0,1-5.49-1.65V41.73a9.84,9.84,0,0,1,5.49-1.65A10,10,0,0,1,128.3,50.08Z"/><path d="M57.47,42.65a9.92,9.92,0,0,1,6.68-2.57v20a10,10,0,0,1-9.06-14.22L16.68,17.43a10,10,0,1,1,2.38-3.21Z"/><path d="M128.3,10a10,10,0,0,1-16.68,7.43l-8.75,6.48H96.15l13.09-9.69A10,10,0,1,1,128.3,10Z"/><rect class="cls-1" x="64.15" y="23.91" width="48.66" height="36.17"/></g></g></svg>