<svg xmlns="http://www.w3.org/2000/svg" viewBox="0 0 65.63 56.77"><defs><style>.cls-1,.cls-2,.cls-3{fill:none;stroke:#000;stroke-miterlimit:10;}.cls-2{stroke-width:0.25px;}.cls-3{stroke-width:0.75px;}</style></defs><title>Artboard3</title><g id="Layer_2" data-name="Layer 2"><g id="Layer_1-2" data-name="Layer 1"><polygon class="cls-1" points="15.76 55.5 0.76 20.5 30.76 20.5 15.76 55.5"/><line class="cls-2" x1="52.37" y1="14.75" x2="52.37" y2="0.3"/><line class="cls-2" x1="53.17" y1="14.75" x2="53.17" y2="0.3"/><line class="cls-2" x1="60" y1="7.52" x2="45.54" y2="7.52"/><line class="cls-2" x1="60" y1="6.62" x2="45.54" y2="6.62"/><path class="cls-1" d="M24.51,9.25a9.68,9.68,0,0,1-.1,1.33c0,.18-.06.34-.1.51a7.9,7.9,0,0,1-.35,1.2,8.52,8.52,0,0,1-.7,1.46A9.28,9.28,0,0,1,22.35,15a8.49,8.49,0,0,1-1.1,1.06,8,8,0,0,1-1.29.86,8,8,0,0,1-1.5.65,8.37,8.37,0,0,1-.86.23,7.06,7.06,0,0,1-.92.15c-.3,0-.61.05-.92.05h0a7.59,7.59,0,0,1-1.27-.1l-.24,0a7.18,7.18,0,0,1-1.31-.33A7.79,7.79,0,0,1,11.78,17a8.27,8.27,0,0,1-1-.62,7.86,7.86,0,0,1-.91-.73A8,8,0,0,1,9,14.85a8.36,8.36,0,0,1-.69-1,9.06,9.06,0,0,1-.57-1.07,8.3,8.3,0,0,1-.44-1.21,9.4,9.4,0,0,1-.23-1.08l0-.3a7.93,7.93,0,0,1-.06-1C7,9,7,8.83,7,8.62l0-.28a8.36,8.36,0,0,1,.36-1.75l0,0a8.29,8.29,0,0,1,.65-1.5A7,7,0,0,1,9,3.76a7.28,7.28,0,0,1,1-1.1,8,8,0,0,1,1.25-.91,7.84,7.84,0,0,1,1.46-.7A2.43,2.43,0,0,1,13.1.92,7.35,7.35,0,0,1,14.43.61a5.35,5.35,0,0,1,.7-.08c.2,0,.42,0,.63,0s.51,0,.76,0l.22,0a8.86,8.86,0,0,1,1.38.26,9.66,9.66,0,0,1,1.21.44,9.93,9.93,0,0,1,1.07.57,8,8,0,0,1,1,.7,7.18,7.18,0,0,1,.85.8,7.86,7.86,0,0,1,.73.91,8.27,8.27,0,0,1,.62,1A9.68,9.68,0,0,1,24,6.42a8.22,8.22,0,0,1,.33,1.32,4.79,4.79,0,0,1,.1.76A6.28,6.28,0,0,1,24.51,9.25Z"/><path class="cls-2" d="M24.31,11.09a7.9,7.9,0,0,1-.35,1.2,8.52,8.52,0,0,1-.7,1.46A9.28,9.28,0,0,1,22.35,15a8.49,8.49,0,0,1-1.1,1.06,8,8,0,0,1-1.29.86,8,8,0,0,1-1.5.65,8.37,8.37,0,0,1-.86.23l5.93-5.93Z"/><path class="cls-2" d="M24.51,9.25a9.68,9.68,0,0,1-.1,1.33c0,.18-.06.34-.1.51a7.9,7.9,0,0,1-.35,1.2,8.52,8.52,0,0,1-.7,1.46A9.28,9.28,0,0,1,22.35,15a8.49,8.49,0,0,1-1.1,1.06,8,8,0,0,1-1.29.86,8,8,0,0,1-1.5.65,8.37,8.37,0,0,1-.86.23,7.06,7.06,0,0,1-.92.15c-.3,0-.61.05-.92.05l.48-.49,1.08-1.07,1.08-1.08,1.08-1.08,1.08-1.08,1.07-1.08,1.08-1.07L23.79,10Z"/><path class="cls-2" d="M24.51,9.25a9.68,9.68,0,0,1-.1,1.33c0,.18-.06.34-.1.51a7.9,7.9,0,0,1-.35,1.2,8.52,8.52,0,0,1-.7,1.46A9.28,9.28,0,0,1,22.35,15a8.49,8.49,0,0,1-1.1,1.06,8,8,0,0,1-1.29.86,8,8,0,0,1-1.5.65,8.37,8.37,0,0,1-.86.23,7.06,7.06,0,0,1-.92.15c-.3,0-.61.05-.92.05h0a7.59,7.59,0,0,1-1.27-.1l-.24,0,.1-.09,1.08-1.08,1.08-1.08,3.23-3.23,1.08-1.08,1.08-1.08L23,9.15,24,8.06l.33-.32a4.79,4.79,0,0,1,.1.76A6.28,6.28,0,0,1,24.51,9.25Z"/><path class="cls-2" d="M24.51,9.25a9.68,9.68,0,0,1-.1,1.33c0,.18-.06.34-.1.51a7.9,7.9,0,0,1-.35,1.2,8.52,8.52,0,0,1-.7,1.46A9.28,9.28,0,0,1,22.35,15a8.49,8.49,0,0,1-1.1,1.06,8,8,0,0,1-1.29.86,8,8,0,0,1-1.5.65,8.37,8.37,0,0,1-.86.23,7.06,7.06,0,0,1-.92.15c-.3,0-.61.05-.92.05h0a7.59,7.59,0,0,1-1.27-.1l-.24,0a7.18,7.18,0,0,1-1.31-.33l.59-.58,1.07-1.08,1.09-1.08,1.07-1.08,1.08-1.08,1.08-1.07L20,10.47,21.07,9.4l1.07-1.08,1.08-1.08L24,6.42a8.22,8.22,0,0,1,.33,1.32,4.79,4.79,0,0,1,.1.76A6.28,6.28,0,0,1,24.51,9.25Z"/><path class="cls-2" d="M24.51,9.25a9.68,9.68,0,0,1-.1,1.33c0,.18-.06.34-.1.51a7.9,7.9,0,0,1-.35,1.2,8.52,8.52,0,0,1-.7,1.46A9.28,9.28,0,0,1,22.35,15a8.49,8.49,0,0,1-1.1,1.06,8,8,0,0,1-1.29.86,8,8,0,0,1-1.5.65,8.37,8.37,0,0,1-.86.23,7.06,7.06,0,0,1-.92.15c-.3,0-.61.05-.92.05h0a7.59,7.59,0,0,1-1.27-.1l-.24,0a7.18,7.18,0,0,1-1.31-.33A7.79,7.79,0,0,1,11.78,17l.92-.92,1.07-1.07L14.85,14l1.08-1.08,3.24-3.24,1.07-1.07L21.32,7.5,22.4,6.42l1.15-1.15A9.68,9.68,0,0,1,24,6.42a8.22,8.22,0,0,1,.33,1.32,4.79,4.79,0,0,1,.1.76A6.28,6.28,0,0,1,24.51,9.25Z"/><path class="cls-2" d="M24.51,9.25a9.68,9.68,0,0,1-.1,1.33c0,.18-.06.34-.1.51a7.9,7.9,0,0,1-.35,1.2,8.52,8.52,0,0,1-.7,1.46A9.28,9.28,0,0,1,22.35,15a8.49,8.49,0,0,1-1.1,1.06,8,8,0,0,1-1.29.86,8,8,0,0,1-1.5.65,8.37,8.37,0,0,1-.86.23,7.06,7.06,0,0,1-.92.15c-.3,0-.61.05-.92.05h0a7.59,7.59,0,0,1-1.27-.1l-.24,0a7.18,7.18,0,0,1-1.31-.33A7.79,7.79,0,0,1,11.78,17a8.27,8.27,0,0,1-1-.62l1.12-1.12L13,14.22l5.39-5.39,1.08-1.08L20.5,6.68l2.43-2.44a8.27,8.27,0,0,1,.62,1A9.68,9.68,0,0,1,24,6.42a8.22,8.22,0,0,1,.33,1.32,4.79,4.79,0,0,1,.1.76A6.28,6.28,0,0,1,24.51,9.25Z"/><path class="cls-2" d="M24.51,9.25a9.68,9.68,0,0,1-.1,1.33c0,.18-.06.34-.1.51a7.9,7.9,0,0,1-.35,1.2,8.52,8.52,0,0,1-.7,1.46A9.28,9.28,0,0,1,22.35,15a8.49,8.49,0,0,1-1.1,1.06,8,8,0,0,1-1.29.86,8,8,0,0,1-1.5.65,8.37,8.37,0,0,1-.86.23,7.06,7.06,0,0,1-.92.15c-.3,0-.61.05-.92.05h0a7.59,7.59,0,0,1-1.27-.1l-.24,0a7.18,7.18,0,0,1-1.31-.33A7.79,7.79,0,0,1,11.78,17a8.27,8.27,0,0,1-1-.62,7.86,7.86,0,0,1-.91-.73L22.2,3.33a7.86,7.86,0,0,1,.73.91,8.27,8.27,0,0,1,.62,1A9.68,9.68,0,0,1,24,6.42a8.22,8.22,0,0,1,.33,1.32,4.79,4.79,0,0,1,.1.76A6.28,6.28,0,0,1,24.51,9.25Z"/><path class="cls-2" d="M24.51,9.25a9.68,9.68,0,0,1-.1,1.33c0,.18-.06.34-.1.51a7.9,7.9,0,0,1-.35,1.2,8.52,8.52,0,0,1-.7,1.46A9.28,9.28,0,0,1,22.35,15a8.49,8.49,0,0,1-1.1,1.06,8,8,0,0,1-1.29.86,8,8,0,0,1-1.5.65,8.37,8.37,0,0,1-.86.23,7.06,7.06,0,0,1-.92.15c-.3,0-.61.05-.92.05h0a7.59,7.59,0,0,1-1.27-.1l-.24,0a7.18,7.18,0,0,1-1.31-.33A7.79,7.79,0,0,1,11.78,17a8.27,8.27,0,0,1-1-.62,7.86,7.86,0,0,1-.91-.73A8,8,0,0,1,9,14.85l1.2-1.19,1.07-1.09,1.09-1.07,1.07-1.08,1.08-1.08,1.08-1.07,1.07-1.09,1.09-1.07L18.85,5,19.93,4l1.42-1.42a7.18,7.18,0,0,1,.85.8,7.86,7.86,0,0,1,.73.91,8.27,8.27,0,0,1,.62,1A9.68,9.68,0,0,1,24,6.42a8.22,8.22,0,0,1,.33,1.32,4.79,4.79,0,0,1,.1.76A6.28,6.28,0,0,1,24.51,9.25Z"/><path class="cls-2" d="M24.51,9.25a9.68,9.68,0,0,1-.1,1.33c0,.18-.06.34-.1.51a7.9,7.9,0,0,1-.35,1.2,8.52,8.52,0,0,1-.7,1.46A9.28,9.28,0,0,1,22.35,15a8.49,8.49,0,0,1-1.1,1.06,8,8,0,0,1-1.29.86,8,8,0,0,1-1.5.65,8.37,8.37,0,0,1-.86.23,7.06,7.06,0,0,1-.92.15c-.3,0-.61.05-.92.05h0a7.59,7.59,0,0,1-1.27-.1l-.24,0a7.18,7.18,0,0,1-1.31-.33A7.79,7.79,0,0,1,11.78,17a8.27,8.27,0,0,1-1-.62,7.86,7.86,0,0,1-.91-.73A8,8,0,0,1,9,14.85a8.36,8.36,0,0,1-.69-1l1.07-1.06,1.07-1.08,1.08-1.07L12.64,9.6l1.08-1.08L14.8,7.44l1.07-1.08L17,5.29,18,4.21l1.08-1.08,1.29-1.3a8,8,0,0,1,1,.7,7.18,7.18,0,0,1,.85.8,7.86,7.86,0,0,1,.73.91,8.27,8.27,0,0,1,.62,1A9.68,9.68,0,0,1,24,6.42a8.22,8.22,0,0,1,.33,1.32,4.79,4.79,0,0,1,.1.76A6.28,6.28,0,0,1,24.51,9.25Z"/><path class="cls-2" d="M24.51,9.25a9.68,9.68,0,0,1-.1,1.33c0,.18-.06.34-.1.51a7.9,7.9,0,0,1-.35,1.2,8.52,8.52,0,0,1-.7,1.46A9.28,9.28,0,0,1,22.35,15a8.49,8.49,0,0,1-1.1,1.06,8,8,0,0,1-1.29.86,8,8,0,0,1-1.5.65,8.37,8.37,0,0,1-.86.23,7.06,7.06,0,0,1-.92.15c-.3,0-.61.05-.92.05h0a7.59,7.59,0,0,1-1.27-.1l-.24,0a7.18,7.18,0,0,1-1.31-.33A7.79,7.79,0,0,1,11.78,17a8.27,8.27,0,0,1-1-.62,7.86,7.86,0,0,1-.91-.73A8,8,0,0,1,9,14.85a8.36,8.36,0,0,1-.69-1,9.06,9.06,0,0,1-.57-1.07L8.58,12l1.08-1.08,1.08-1.08,1.08-1.07L12.9,7.7,14,6.62l1.08-1.08,1.08-1.08,1.08-1.08,1.07-1.07,1-1a9.93,9.93,0,0,1,1.07.57,8,8,0,0,1,1,.7,7.18,7.18,0,0,1,.85.8,7.86,7.86,0,0,1,.73.91,8.27,8.27,0,0,1,.62,1A9.68,9.68,0,0,1,24,6.42a8.22,8.22,0,0,1,.33,1.32,4.79,4.79,0,0,1,.1.76A6.28,6.28,0,0,1,24.51,9.25Z"/><path class="cls-2" d="M24.51,9.25a9.68,9.68,0,0,1-.1,1.33c0,.18-.06.34-.1.51a7.9,7.9,0,0,1-.35,1.2,8.52,8.52,0,0,1-.7,1.46A9.28,9.28,0,0,1,22.35,15a8.49,8.49,0,0,1-1.1,1.06,8,8,0,0,1-1.29.86,8,8,0,0,1-1.5.65,8.37,8.37,0,0,1-.86.23,7.06,7.06,0,0,1-.92.15c-.3,0-.61.05-.92.05h0a7.59,7.59,0,0,1-1.27-.1l-.24,0a7.18,7.18,0,0,1-1.31-.33A7.79,7.79,0,0,1,11.78,17a8.27,8.27,0,0,1-1-.62,7.86,7.86,0,0,1-.91-.73A8,8,0,0,1,9,14.85a8.36,8.36,0,0,1-.69-1,9.06,9.06,0,0,1-.57-1.07,8.3,8.3,0,0,1-.44-1.21l.43-.42,1.08-1.08L9.92,9,11,8l1.08-1.08L13.15,5.8l1.08-1.08,1.08-1.08,1.07-1.08,1.08-1.08.66-.66a9.66,9.66,0,0,1,1.21.44,9.93,9.93,0,0,1,1.07.57,8,8,0,0,1,1,.7,7.18,7.18,0,0,1,.85.8,7.86,7.86,0,0,1,.73.91,8.27,8.27,0,0,1,.62,1A9.68,9.68,0,0,1,24,6.42a8.22,8.22,0,0,1,.33,1.32,4.79,4.79,0,0,1,.1.76A6.28,6.28,0,0,1,24.51,9.25Z"/><path class="cls-2" d="M24.51,9.25a9.68,9.68,0,0,1-.1,1.33c0,.18-.06.34-.1.51a7.9,7.9,0,0,1-.35,1.2,8.52,8.52,0,0,1-.7,1.46A9.28,9.28,0,0,1,22.35,15a8.49,8.49,0,0,1-1.1,1.06,8,8,0,0,1-1.29.86,8,8,0,0,1-1.5.65,8.37,8.37,0,0,1-.86.23,7.06,7.06,0,0,1-.92.15c-.3,0-.61.05-.92.05h0a7.59,7.59,0,0,1-1.27-.1l-.24,0a7.18,7.18,0,0,1-1.31-.33A7.79,7.79,0,0,1,11.78,17a8.27,8.27,0,0,1-1-.62,7.86,7.86,0,0,1-.91-.73A8,8,0,0,1,9,14.85a8.36,8.36,0,0,1-.69-1,9.06,9.06,0,0,1-.57-1.07,8.3,8.3,0,0,1-.44-1.21,9.4,9.4,0,0,1-.23-1.08l0-.3.94-1L9.1,8.21l1.07-1.08,1.08-1.08L12.33,5,13.4,3.9l1.09-1.08,1.07-1.08L16.74.56a8.86,8.86,0,0,1,1.38.26,9.66,9.66,0,0,1,1.21.44,9.93,9.93,0,0,1,1.07.57,8,8,0,0,1,1,.7,7.18,7.18,0,0,1,.85.8,7.86,7.86,0,0,1,.73.91,8.27,8.27,0,0,1,.62,1A9.68,9.68,0,0,1,24,6.42a8.22,8.22,0,0,1,.33,1.32,4.79,4.79,0,0,1,.1.76A6.28,6.28,0,0,1,24.51,9.25Z"/><path class="cls-2" d="M24.51,9.25a9.68,9.68,0,0,1-.1,1.33c0,.18-.06.34-.1.51a7.9,7.9,0,0,1-.35,1.2,8.52,8.52,0,0,1-.7,1.46A9.28,9.28,0,0,1,22.35,15a8.49,8.49,0,0,1-1.1,1.06,8,8,0,0,1-1.29.86,8,8,0,0,1-1.5.65,8.37,8.37,0,0,1-.86.23,7.06,7.06,0,0,1-.92.15c-.3,0-.61.05-.92.05h0a7.59,7.59,0,0,1-1.27-.1l-.24,0a7.18,7.18,0,0,1-1.31-.33A7.79,7.79,0,0,1,11.78,17a8.27,8.27,0,0,1-1-.62,7.86,7.86,0,0,1-.91-.73A8,8,0,0,1,9,14.85a8.36,8.36,0,0,1-.69-1,9.06,9.06,0,0,1-.57-1.07,8.3,8.3,0,0,1-.44-1.21,9.4,9.4,0,0,1-.23-1.08l0-.3a7.93,7.93,0,0,1-.06-1C7,9,7,8.83,7,8.62l.16-.16L8.27,7.39,9.35,6.31l1.08-1.08,1.08-1.08,1.07-1.08L13.66,2,14.74.92l.39-.39c.2,0,.42,0,.63,0s.51,0,.76,0l.22,0a8.86,8.86,0,0,1,1.38.26,9.66,9.66,0,0,1,1.21.44,9.93,9.93,0,0,1,1.07.57,8,8,0,0,1,1,.7,7.18,7.18,0,0,1,.85.8,7.86,7.86,0,0,1,.73.91,8.27,8.27,0,0,1,.62,1A9.68,9.68,0,0,1,24,6.42a8.22,8.22,0,0,1,.33,1.32,4.79,4.79,0,0,1,.1.76A6.28,6.28,0,0,1,24.51,9.25Z"/><path class="cls-2" d="M24.51,9.25a9.68,9.68,0,0,1-.1,1.33c0,.18-.06.34-.1.51a7.9,7.9,0,0,1-.35,1.2,8.52,8.52,0,0,1-.7,1.46A9.28,9.28,0,0,1,22.35,15a8.49,8.49,0,0,1-1.1,1.06,8,8,0,0,1-1.29.86,8,8,0,0,1-1.5.65,8.37,8.37,0,0,1-.86.23,7.06,7.06,0,0,1-.92.15c-.3,0-.61.05-.92.05h0a7.59,7.59,0,0,1-1.27-.1l-.24,0a7.18,7.18,0,0,1-1.31-.33A7.79,7.79,0,0,1,11.78,17a8.27,8.27,0,0,1-1-.62,7.86,7.86,0,0,1-.91-.73A8,8,0,0,1,9,14.85a8.36,8.36,0,0,1-.69-1,9.06,9.06,0,0,1-.57-1.07,8.3,8.3,0,0,1-.44-1.21,9.4,9.4,0,0,1-.23-1.08l0-.3a7.93,7.93,0,0,1-.06-1C7,9,7,8.83,7,8.62l0-.28a8.36,8.36,0,0,1,.36-1.75l5.42-5.42L13.1.92A7.35,7.35,0,0,1,14.43.61a5.35,5.35,0,0,1,.7-.08c.2,0,.42,0,.63,0s.51,0,.76,0l.22,0a8.86,8.86,0,0,1,1.38.26,9.66,9.66,0,0,1,1.21.44,9.93,9.93,0,0,1,1.07.57,8,8,0,0,1,1,.7,7.18,7.18,0,0,1,.85.8,7.86,7.86,0,0,1,.73.91,8.27,8.27,0,0,1,.62,1A9.68,9.68,0,0,1,24,6.42a8.22,8.22,0,0,1,.33,1.32,4.79,4.79,0,0,1,.1.76A6.28,6.28,0,0,1,24.51,9.25Z"/><path class="cls-2" d="M14.48,17.9l-.24,0a7.18,7.18,0,0,1-1.31-.33A7.79,7.79,0,0,1,11.78,17a8.27,8.27,0,0,1-1-.62,7.86,7.86,0,0,1-.91-.73A8,8,0,0,1,9,14.85a8.36,8.36,0,0,1-.69-1,9.06,9.06,0,0,1-.57-1.07,8.3,8.3,0,0,1-.44-1.21,9.4,9.4,0,0,1-.23-1.08l3.13,3.13.82.82.82.82Z"/><path class="cls-2" d="M16.68,18c-.3,0-.61.05-.92.05h0a7.59,7.59,0,0,1-1.27-.1l-.24,0a7.18,7.18,0,0,1-1.31-.33A7.79,7.79,0,0,1,11.78,17a8.27,8.27,0,0,1-1-.62,7.86,7.86,0,0,1-.91-.73A8,8,0,0,1,9,14.85a8.36,8.36,0,0,1-.69-1,9.06,9.06,0,0,1-.57-1.07,8.3,8.3,0,0,1-.44-1.21,9.4,9.4,0,0,1-.23-1.08l0-.3a7.93,7.93,0,0,1-.06-1C7,9,7,8.83,7,8.62l0-.28.13.12L8,9.28l.83.83.82.82.82.82.82.82.83.83,3.29,3.29.82.82Z"/><path class="cls-2" d="M18.46,17.57a8.37,8.37,0,0,1-.86.23,7.06,7.06,0,0,1-.92.15c-.3,0-.61.05-.92.05h0a7.59,7.59,0,0,1-1.27-.1l-.24,0a7.18,7.18,0,0,1-1.31-.33A7.79,7.79,0,0,1,11.78,17a8.27,8.27,0,0,1-1-.62,7.86,7.86,0,0,1-.91-.73A8,8,0,0,1,9,14.85a8.36,8.36,0,0,1-.69-1,9.06,9.06,0,0,1-.57-1.07,8.3,8.3,0,0,1-.44-1.21,9.4,9.4,0,0,1-.23-1.08l0-.3a7.93,7.93,0,0,1-.06-1C7,9,7,8.83,7,8.62l0-.28a8.36,8.36,0,0,1,.36-1.75l0,0h0l4.94,4.94.82.82.82.82.82.83,3.29,3.29Z"/><path class="cls-2" d="M16.68,18c-.3,0-.61.05-.92.05h0a7.59,7.59,0,0,1-1.27-.1l-.24,0a7.18,7.18,0,0,1-1.31-.33A7.79,7.79,0,0,1,11.78,17a8.27,8.27,0,0,1-1-.62,7.86,7.86,0,0,1-.91-.73A8,8,0,0,1,9,14.85a8.36,8.36,0,0,1-.69-1,9.06,9.06,0,0,1-.57-1.07,8.3,8.3,0,0,1-.44-1.21,9.4,9.4,0,0,1-.23-1.08l0-.3a7.93,7.93,0,0,1-.06-1C7,9,7,8.83,7,8.62l0-.28a8.36,8.36,0,0,1,.36-1.75l0,0a8.29,8.29,0,0,1,.65-1.5l.44.44.82.82L11,8l.83.83.82.82.82.82.82.82,2.47,2.47.82.82.83.83.82.82.74.74a8,8,0,0,1-1.5.65,8.37,8.37,0,0,1-.86.23A7.06,7.06,0,0,1,16.68,18Z"/><path class="cls-2" d="M16.68,18c-.3,0-.61.05-.92.05h0a7.59,7.59,0,0,1-1.27-.1l-.24,0a7.18,7.18,0,0,1-1.31-.33A7.79,7.79,0,0,1,11.78,17a8.27,8.27,0,0,1-1-.62,7.86,7.86,0,0,1-.91-.73A8,8,0,0,1,9,14.85a8.36,8.36,0,0,1-.69-1,9.06,9.06,0,0,1-.57-1.07,8.3,8.3,0,0,1-.44-1.21,9.4,9.4,0,0,1-.23-1.08l0-.3a7.93,7.93,0,0,1-.06-1C7,9,7,8.83,7,8.62l0-.28a8.36,8.36,0,0,1,.36-1.75l0,0a8.29,8.29,0,0,1,.65-1.5A7,7,0,0,1,9,3.76l.65.65.82.82,1.64,1.64.83.83.82.82.82.82.82.82L17,11.81l.82.82.82.82.83.83.82.82.95,1a8,8,0,0,1-1.29.86,8,8,0,0,1-1.5.65,8.37,8.37,0,0,1-.86.23A7.06,7.06,0,0,1,16.68,18Z"/><path class="cls-2" d="M22.35,15a8.49,8.49,0,0,1-1.1,1.06,8,8,0,0,1-1.29.86,8,8,0,0,1-1.5.65,8.37,8.37,0,0,1-.86.23,7.06,7.06,0,0,1-.92.15c-.3,0-.61.05-.92.05h0a7.59,7.59,0,0,1-1.27-.1l-.24,0a7.18,7.18,0,0,1-1.31-.33A7.79,7.79,0,0,1,11.78,17a8.27,8.27,0,0,1-1-.62,7.86,7.86,0,0,1-.91-.73A8,8,0,0,1,9,14.85a8.36,8.36,0,0,1-.69-1,9.06,9.06,0,0,1-.57-1.07,8.3,8.3,0,0,1-.44-1.21,9.4,9.4,0,0,1-.23-1.08l0-.3a7.93,7.93,0,0,1-.06-1C7,9,7,8.83,7,8.62l0-.28a8.36,8.36,0,0,1,.36-1.75l0,0a8.29,8.29,0,0,1,.65-1.5A7,7,0,0,1,9,3.76a7.28,7.28,0,0,1,1-1.1L14.8,7.44l.82.83,2.47,2.46.82.83L21.38,14Z"/><path class="cls-2" d="M23.26,13.75A9.28,9.28,0,0,1,22.35,15a8.49,8.49,0,0,1-1.1,1.06,8,8,0,0,1-1.29.86,8,8,0,0,1-1.5.65,8.37,8.37,0,0,1-.86.23,7.06,7.06,0,0,1-.92.15c-.3,0-.61.05-.92.05h0a7.59,7.59,0,0,1-1.27-.1l-.24,0a7.18,7.18,0,0,1-1.31-.33A7.79,7.79,0,0,1,11.78,17a8.27,8.27,0,0,1-1-.62,7.86,7.86,0,0,1-.91-.73A8,8,0,0,1,9,14.85a8.36,8.36,0,0,1-.69-1,9.06,9.06,0,0,1-.57-1.07,8.3,8.3,0,0,1-.44-1.21,9.4,9.4,0,0,1-.23-1.08l0-.3a7.93,7.93,0,0,1-.06-1C7,9,7,8.83,7,8.62l0-.28a8.36,8.36,0,0,1,.36-1.75l0,0a8.29,8.29,0,0,1,.65-1.5A7,7,0,0,1,9,3.76a7.28,7.28,0,0,1,1-1.1,8,8,0,0,1,1.25-.91l.5.5.82.82,1.65,1.65.82.82.82.82.82.82.83.83,3.29,3.29.82.82.83.82Z"/><path class="cls-2" d="M24,12.29a8.52,8.52,0,0,1-.7,1.46A9.28,9.28,0,0,1,22.35,15a8.49,8.49,0,0,1-1.1,1.06,8,8,0,0,1-1.29.86,8,8,0,0,1-1.5.65,8.37,8.37,0,0,1-.86.23,7.06,7.06,0,0,1-.92.15c-.3,0-.61.05-.92.05h0a7.59,7.59,0,0,1-1.27-.1l-.24,0a7.18,7.18,0,0,1-1.31-.33A7.79,7.79,0,0,1,11.78,17a8.27,8.27,0,0,1-1-.62,7.86,7.86,0,0,1-.91-.73A8,8,0,0,1,9,14.85a8.36,8.36,0,0,1-.69-1,9.06,9.06,0,0,1-.57-1.07,8.3,8.3,0,0,1-.44-1.21,9.4,9.4,0,0,1-.23-1.08l0-.3a7.93,7.93,0,0,1-.06-1C7,9,7,8.83,7,8.62l0-.28a8.36,8.36,0,0,1,.36-1.75l0,0a8.29,8.29,0,0,1,.65-1.5A7,7,0,0,1,9,3.76a7.28,7.28,0,0,1,1-1.1,8,8,0,0,1,1.25-.91,7.84,7.84,0,0,1,1.46-.7l5.06,5.06.82.82.82.82Z"/><path class="cls-2" d="M24.41,10.58c0,.18-.06.34-.1.51a7.9,7.9,0,0,1-.35,1.2,8.52,8.52,0,0,1-.7,1.46A9.28,9.28,0,0,1,22.35,15a8.49,8.49,0,0,1-1.1,1.06,8,8,0,0,1-1.29.86,8,8,0,0,1-1.5.65,8.37,8.37,0,0,1-.86.23,7.06,7.06,0,0,1-.92.15c-.3,0-.61.05-.92.05h0a7.59,7.59,0,0,1-1.27-.1l-.24,0a7.18,7.18,0,0,1-1.31-.33A7.79,7.79,0,0,1,11.78,17a8.27,8.27,0,0,1-1-.62,7.86,7.86,0,0,1-.91-.73A8,8,0,0,1,9,14.85a8.36,8.36,0,0,1-.69-1,9.06,9.06,0,0,1-.57-1.07,8.3,8.3,0,0,1-.44-1.21,9.4,9.4,0,0,1-.23-1.08l0-.3a7.93,7.93,0,0,1-.06-1C7,9,7,8.83,7,8.62l0-.28a8.36,8.36,0,0,1,.36-1.75l0,0a8.29,8.29,0,0,1,.65-1.5A7,7,0,0,1,9,3.76a7.28,7.28,0,0,1,1-1.1,8,8,0,0,1,1.25-.91,7.84,7.84,0,0,1,1.46-.7A2.43,2.43,0,0,1,13.1.92,7.35,7.35,0,0,1,14.43.61l.31.31.82.82.82.82L18.85,5l.82.82L23,9.15l.83.82Z"/><path class="cls-2" d="M22.35,15a8.49,8.49,0,0,1-1.1,1.06,8,8,0,0,1-1.29.86,8,8,0,0,1-1.5.65,8.37,8.37,0,0,1-.86.23,7.06,7.06,0,0,1-.92.15c-.3,0-.61.05-.92.05h0a7.59,7.59,0,0,1-1.27-.1l-.24,0a7.18,7.18,0,0,1-1.31-.33A7.79,7.79,0,0,1,11.78,17a8.27,8.27,0,0,1-1-.62,7.86,7.86,0,0,1-.91-.73A8,8,0,0,1,9,14.85a8.36,8.36,0,0,1-.69-1,9.06,9.06,0,0,1-.57-1.07,8.3,8.3,0,0,1-.44-1.21,9.4,9.4,0,0,1-.23-1.08l0-.3a7.93,7.93,0,0,1-.06-1C7,9,7,8.83,7,8.62l0-.28a8.36,8.36,0,0,1,.36-1.75l0,0a8.29,8.29,0,0,1,.65-1.5A7,7,0,0,1,9,3.76a7.28,7.28,0,0,1,1-1.1,8,8,0,0,1,1.25-.91,7.84,7.84,0,0,1,1.46-.7A2.43,2.43,0,0,1,13.1.92,7.35,7.35,0,0,1,14.43.61a5.35,5.35,0,0,1,.7-.08c.2,0,.42,0,.63,0s.51,0,.76,0l.12.13L19.93,4l.82.82.83.83.82.82L24,8.06l.43.44a6.28,6.28,0,0,1,0,.75,9.68,9.68,0,0,1-.1,1.33c0,.18-.06.34-.1.51a7.9,7.9,0,0,1-.35,1.2,8.52,8.52,0,0,1-.7,1.46A9.28,9.28,0,0,1,22.35,15Z"/><rect class="cls-3" x="40.26" y="23" width="25" height="25"/></g></g></svg>