<svg xmlns="http://www.w3.org/2000/svg" viewBox="0 0 65.63 36.77"><defs><style>.cls-1,.cls-2,.cls-3{fill:none;stroke:#000;stroke-miterlimit:10;}.cls-2{stroke-width:0.25px;}.cls-3{stroke-width:0.75px;}</style></defs><title>Artboard6</title><g id="Layer_2" data-name="Layer 2"><g id="Layer_1-2" data-name="Layer 1"><polygon class="cls-1" points="15.76 35.5 0.76 0.5 30.76 0.5 15.76 35.5"/><line class="cls-2" x1="52.36" y1="22.73" x2="52.36" y2="8.27"/><line class="cls-2" x1="53.16" y1="22.73" x2="53.16" y2="8.27"/><line class="cls-2" x1="59.99" y1="15.5" x2="45.53" y2="15.5"/><line class="cls-2" x1="59.99" y1="14.59" x2="45.53" y2="14.59"/><path class="cls-1" d="M22.76,9.37a7.59,7.59,0,0,1-.08,1.07c0,.13-.05.27-.08.4a6.7,6.7,0,0,1-.28,1A7.28,7.28,0,0,1,21.76,13,6,6,0,0,1,21,14a6.44,6.44,0,0,1-.88.85,6.61,6.61,0,0,1-1,.69,7.13,7.13,0,0,1-1.2.52q-.34.11-.69.18a5.85,5.85,0,0,1-.73.12,6,6,0,0,1-.74,0h0a5.77,5.77,0,0,1-1-.08l-.18,0A7,7,0,0,1,13.5,16a6.36,6.36,0,0,1-.93-.4,6.83,6.83,0,0,1-.82-.49,6.73,6.73,0,0,1-.73-.59,5.81,5.81,0,0,1-.64-.67,6,6,0,0,1-.55-.77,5.36,5.36,0,0,1-.46-.85,6.83,6.83,0,0,1-.53-1.83,2,2,0,0,1,0-.24,6.85,6.85,0,0,1,0-.79c0-.17,0-.34,0-.5a1.79,1.79,0,0,1,0-.23,6.57,6.57,0,0,1,.29-1.4v0A7.13,7.13,0,0,1,9.62,6a6.53,6.53,0,0,1,.7-1,6.27,6.27,0,0,1,.84-.87,6,6,0,0,1,1-.73,7,7,0,0,1,1.17-.56l.3-.11a6.27,6.27,0,0,1,1.06-.24l.56-.07.51,0q.3,0,.6,0l.19,0a6.89,6.89,0,0,1,1.1.21,7.06,7.06,0,0,1,1.82.81,7,7,0,0,1,.76.55,5.91,5.91,0,0,1,.68.64c.21.24.41.48.59.73a7,7,0,0,1,.49.83,5,5,0,0,1,.39.92,6.22,6.22,0,0,1,.27,1,4.07,4.07,0,0,1,.08.61Q22.76,9.07,22.76,9.37Z"/><rect class="cls-3" x="40.26" y="3" width="25" height="25"/></g></g></svg>