<svg xmlns="http://www.w3.org/2000/svg" viewBox="0 0 65.63 36.77"><defs><style>.cls-1,.cls-2,.cls-3,.cls-4{fill:none;stroke:#000;stroke-miterlimit:10;}.cls-2{stroke-width:0.25px;}.cls-3{stroke-width:0.75px;}.cls-4{stroke-width:2px;}</style></defs><title>Artboard5</title><g id="Layer_2" data-name="Layer 2"><g id="Layer_1-2" data-name="Layer 1"><polygon class="cls-1" points="15.76 35.5 0.76 0.5 30.76 0.5 15.76 35.5"/><path class="cls-1" d="M61.51,15.5a9.68,9.68,0,0,1-.1,1.33c0,.18-.06.34-.1.51a7.9,7.9,0,0,1-.35,1.2,8.52,8.52,0,0,1-.7,1.46,9.28,9.28,0,0,1-.91,1.25,8.49,8.49,0,0,1-1.1,1.06,8.9,8.9,0,0,1-2.79,1.51,8.37,8.37,0,0,1-.86.23,7.06,7.06,0,0,1-.92.15c-.3,0-.61.05-.92.05h0a7.59,7.59,0,0,1-1.27-.1l-.24,0a7.18,7.18,0,0,1-1.31-.33,7.79,7.79,0,0,1-1.15-.49,8.27,8.27,0,0,1-1-.62,7.86,7.86,0,0,1-.91-.73A8,8,0,0,1,46,21.1a8.36,8.36,0,0,1-.69-1,9.06,9.06,0,0,1-.57-1.07,8.3,8.3,0,0,1-.44-1.21,9.4,9.4,0,0,1-.23-1.08l0-.3a7.93,7.93,0,0,1-.06-1c0-.21,0-.42,0-.63l0-.28a8.36,8.36,0,0,1,.36-1.75l0,0a8.29,8.29,0,0,1,.65-1.5A7,7,0,0,1,46,10a7.28,7.28,0,0,1,1-1.1A8,8,0,0,1,48.26,8a7.84,7.84,0,0,1,1.46-.7,2.43,2.43,0,0,1,.38-.13,7.35,7.35,0,0,1,1.33-.31,5.35,5.35,0,0,1,.7-.08c.2,0,.42,0,.63,0s.51,0,.76,0l.22,0a8.86,8.86,0,0,1,1.38.26,9.66,9.66,0,0,1,1.21.44,9.93,9.93,0,0,1,1.07.57,8,8,0,0,1,1,.7,7.18,7.18,0,0,1,.85.8,7.86,7.86,0,0,1,.73.91,8.27,8.27,0,0,1,.62,1A9.68,9.68,0,0,1,61,12.67,8.22,8.22,0,0,1,61.37,14a4.79,4.79,0,0,1,.1.76A6.28,6.28,0,0,1,61.51,15.5Z"/><path class="cls-2" d="M61.31,17.34a7.9,7.9,0,0,1-.35,1.2,8.52,8.52,0,0,1-.7,1.46,9.28,9.28,0,0,1-.91,1.25,8.49,8.49,0,0,1-1.1,1.06,8.9,8.9,0,0,1-2.79,1.51,8.37,8.37,0,0,1-.86.23l5.93-5.93Z"/><path class="cls-2" d="M61.51,15.5a9.68,9.68,0,0,1-.1,1.33c0,.18-.06.34-.1.51a7.9,7.9,0,0,1-.35,1.2,8.52,8.52,0,0,1-.7,1.46,9.28,9.28,0,0,1-.91,1.25,8.49,8.49,0,0,1-1.1,1.06,8.9,8.9,0,0,1-2.79,1.51,8.37,8.37,0,0,1-.86.23,7.06,7.06,0,0,1-.92.15c-.3,0-.61.05-.92.05l.48-.49,1.08-1.07,1.08-1.08,1.08-1.08,1.08-1.08,1.07-1.08,1.08-1.07,1.08-1.08Z"/><path class="cls-2" d="M61.51,15.5a9.68,9.68,0,0,1-.1,1.33c0,.18-.06.34-.1.51a7.9,7.9,0,0,1-.35,1.2,8.52,8.52,0,0,1-.7,1.46,9.28,9.28,0,0,1-.91,1.25,8.49,8.49,0,0,1-1.1,1.06,8.9,8.9,0,0,1-2.79,1.51,8.37,8.37,0,0,1-.86.23,7.06,7.06,0,0,1-.92.15c-.3,0-.61.05-.92.05h0a7.59,7.59,0,0,1-1.27-.1l-.24,0,.1-.09,1.08-1.08,1.08-1.08,3.23-3.23,1.08-1.08,1.08-1.08L60,15.4,61,14.31l.33-.32a4.79,4.79,0,0,1,.1.76A6.28,6.28,0,0,1,61.51,15.5Z"/><path class="cls-2" d="M61.51,15.5a9.68,9.68,0,0,1-.1,1.33c0,.18-.06.34-.1.51a7.9,7.9,0,0,1-.35,1.2,8.52,8.52,0,0,1-.7,1.46,9.28,9.28,0,0,1-.91,1.25,8.49,8.49,0,0,1-1.1,1.06,8.9,8.9,0,0,1-2.79,1.51,8.37,8.37,0,0,1-.86.23,7.06,7.06,0,0,1-.92.15c-.3,0-.61.05-.92.05h0a7.59,7.59,0,0,1-1.27-.1l-.24,0a7.18,7.18,0,0,1-1.31-.33l.59-.58,1.07-1.08L52.68,21,53.75,20l1.08-1.08,1.08-1.07L57,16.72l1.08-1.07,1.07-1.08,1.08-1.08.82-.82A8.22,8.22,0,0,1,61.37,14a4.79,4.79,0,0,1,.1.76A6.28,6.28,0,0,1,61.51,15.5Z"/><path class="cls-2" d="M61.51,15.5a9.68,9.68,0,0,1-.1,1.33c0,.18-.06.34-.1.51a7.9,7.9,0,0,1-.35,1.2,8.52,8.52,0,0,1-.7,1.46,9.28,9.28,0,0,1-.91,1.25,8.49,8.49,0,0,1-1.1,1.06,8.9,8.9,0,0,1-2.79,1.51,8.37,8.37,0,0,1-.86.23,7.06,7.06,0,0,1-.92.15c-.3,0-.61.05-.92.05h0a7.59,7.59,0,0,1-1.27-.1l-.24,0a7.18,7.18,0,0,1-1.31-.33,7.79,7.79,0,0,1-1.15-.49l.92-.92,1.07-1.07,1.08-1.08,1.08-1.08,3.24-3.24,1.07-1.07,1.08-1.08,1.08-1.08,1.15-1.15A9.68,9.68,0,0,1,61,12.67,8.22,8.22,0,0,1,61.37,14a4.79,4.79,0,0,1,.1.76A6.28,6.28,0,0,1,61.51,15.5Z"/><path class="cls-2" d="M61.51,15.5a9.68,9.68,0,0,1-.1,1.33c0,.18-.06.34-.1.51a7.9,7.9,0,0,1-.35,1.2,8.52,8.52,0,0,1-.7,1.46,9.28,9.28,0,0,1-.91,1.25,8.49,8.49,0,0,1-1.1,1.06,8.9,8.9,0,0,1-2.79,1.51,8.37,8.37,0,0,1-.86.23,7.06,7.06,0,0,1-.92.15c-.3,0-.61.05-.92.05h0a7.59,7.59,0,0,1-1.27-.1l-.24,0a7.18,7.18,0,0,1-1.31-.33,7.79,7.79,0,0,1-1.15-.49,8.27,8.27,0,0,1-1-.62l1.12-1.12L50,20.47l5.39-5.39L56.42,14l1.08-1.07,2.43-2.44a8.27,8.27,0,0,1,.62,1A9.68,9.68,0,0,1,61,12.67,8.22,8.22,0,0,1,61.37,14a4.79,4.79,0,0,1,.1.76A6.28,6.28,0,0,1,61.51,15.5Z"/><path class="cls-2" d="M61.51,15.5a9.68,9.68,0,0,1-.1,1.33c0,.18-.06.34-.1.51a7.9,7.9,0,0,1-.35,1.2,8.52,8.52,0,0,1-.7,1.46,9.28,9.28,0,0,1-.91,1.25,8.49,8.49,0,0,1-1.1,1.06,8.9,8.9,0,0,1-2.79,1.51,8.37,8.37,0,0,1-.86.23,7.06,7.06,0,0,1-.92.15c-.3,0-.61.05-.92.05h0a7.59,7.59,0,0,1-1.27-.1l-.24,0a7.18,7.18,0,0,1-1.31-.33,7.79,7.79,0,0,1-1.15-.49,8.27,8.27,0,0,1-1-.62,7.86,7.86,0,0,1-.91-.73L59.2,9.58a7.86,7.86,0,0,1,.73.91,8.27,8.27,0,0,1,.62,1A9.68,9.68,0,0,1,61,12.67,8.22,8.22,0,0,1,61.37,14a4.79,4.79,0,0,1,.1.76A6.28,6.28,0,0,1,61.51,15.5Z"/><path class="cls-2" d="M61.51,15.5a9.68,9.68,0,0,1-.1,1.33c0,.18-.06.34-.1.51a7.9,7.9,0,0,1-.35,1.2,8.52,8.52,0,0,1-.7,1.46,9.28,9.28,0,0,1-.91,1.25,8.49,8.49,0,0,1-1.1,1.06,8.9,8.9,0,0,1-2.79,1.51,8.37,8.37,0,0,1-.86.23,7.06,7.06,0,0,1-.92.15c-.3,0-.61.05-.92.05h0a7.59,7.59,0,0,1-1.27-.1l-.24,0a7.18,7.18,0,0,1-1.31-.33,7.79,7.79,0,0,1-1.15-.49,8.27,8.27,0,0,1-1-.62,7.86,7.86,0,0,1-.91-.73A8,8,0,0,1,46,21.1l1.2-1.19,1.07-1.09,1.09-1.07,1.07-1.08,1.08-1.08,1.08-1.07,1.07-1.09,1.09-1.07,1.07-1.08,1.08-1.08,1.42-1.42a7.18,7.18,0,0,1,.85.8,7.86,7.86,0,0,1,.73.91,8.27,8.27,0,0,1,.62,1A9.68,9.68,0,0,1,61,12.67,8.22,8.22,0,0,1,61.37,14a4.79,4.79,0,0,1,.1.76A6.28,6.28,0,0,1,61.51,15.5Z"/><path class="cls-2" d="M61.51,15.5a9.68,9.68,0,0,1-.1,1.33c0,.18-.06.34-.1.51a7.9,7.9,0,0,1-.35,1.2,8.52,8.52,0,0,1-.7,1.46,9.28,9.28,0,0,1-.91,1.25,8.49,8.49,0,0,1-1.1,1.06,8.9,8.9,0,0,1-2.79,1.51,8.37,8.37,0,0,1-.86.23,7.06,7.06,0,0,1-.92.15c-.3,0-.61.05-.92.05h0a7.59,7.59,0,0,1-1.27-.1l-.24,0a7.18,7.18,0,0,1-1.31-.33,7.79,7.79,0,0,1-1.15-.49,8.27,8.27,0,0,1-1-.62,7.86,7.86,0,0,1-.91-.73A8,8,0,0,1,46,21.1a8.36,8.36,0,0,1-.69-1l1.07-1.06L47.48,18l1.08-1.07,1.08-1.08,1.08-1.08,1.08-1.08,1.07-1.08L54,11.54,55,10.46l1.08-1.08,1.29-1.3a8,8,0,0,1,1,.7,7.18,7.18,0,0,1,.85.8,7.86,7.86,0,0,1,.73.91,8.27,8.27,0,0,1,.62,1A9.68,9.68,0,0,1,61,12.67,8.22,8.22,0,0,1,61.37,14a4.79,4.79,0,0,1,.1.76A6.28,6.28,0,0,1,61.51,15.5Z"/><path class="cls-2" d="M61.51,15.5a9.68,9.68,0,0,1-.1,1.33c0,.18-.06.34-.1.51a7.9,7.9,0,0,1-.35,1.2,8.52,8.52,0,0,1-.7,1.46,9.28,9.28,0,0,1-.91,1.25,8.49,8.49,0,0,1-1.1,1.06,8.9,8.9,0,0,1-2.79,1.51,8.37,8.37,0,0,1-.86.23,7.06,7.06,0,0,1-.92.15c-.3,0-.61.05-.92.05h0a7.59,7.59,0,0,1-1.27-.1l-.24,0a7.18,7.18,0,0,1-1.31-.33,7.79,7.79,0,0,1-1.15-.49,8.27,8.27,0,0,1-1-.62,7.86,7.86,0,0,1-.91-.73A8,8,0,0,1,46,21.1a8.36,8.36,0,0,1-.69-1,9.06,9.06,0,0,1-.57-1.07l.81-.81,1.08-1.08,1.08-1.08L48.82,15,49.9,14,51,12.87l1.08-1.08,1.08-1.08,1.08-1.08,1.07-1.07,1-1.05a9.93,9.93,0,0,1,1.07.57,8,8,0,0,1,1,.7,7.18,7.18,0,0,1,.85.8,7.86,7.86,0,0,1,.73.91,8.27,8.27,0,0,1,.62,1A9.68,9.68,0,0,1,61,12.67,8.22,8.22,0,0,1,61.37,14a4.79,4.79,0,0,1,.1.76A6.28,6.28,0,0,1,61.51,15.5Z"/><path class="cls-2" d="M61.51,15.5a9.68,9.68,0,0,1-.1,1.33c0,.18-.06.34-.1.51a7.9,7.9,0,0,1-.35,1.2,8.52,8.52,0,0,1-.7,1.46,9.28,9.28,0,0,1-.91,1.25,8.49,8.49,0,0,1-1.1,1.06,8.9,8.9,0,0,1-2.79,1.51,8.37,8.37,0,0,1-.86.23,7.06,7.06,0,0,1-.92.15c-.3,0-.61.05-.92.05h0a7.59,7.59,0,0,1-1.27-.1l-.24,0a7.18,7.18,0,0,1-1.31-.33,7.79,7.79,0,0,1-1.15-.49,8.27,8.27,0,0,1-1-.62,7.86,7.86,0,0,1-.91-.73A8,8,0,0,1,46,21.1a8.36,8.36,0,0,1-.69-1,9.06,9.06,0,0,1-.57-1.07,8.3,8.3,0,0,1-.44-1.21l.43-.42,1.08-1.08,1.08-1.08L48,14.2l1.08-1.08,1.08-1.07L51.23,11l1.08-1.08,1.07-1.08,1.08-1.08.66-.66a9.66,9.66,0,0,1,1.21.44,9.93,9.93,0,0,1,1.07.57,8,8,0,0,1,1,.7,7.18,7.18,0,0,1,.85.8,7.86,7.86,0,0,1,.73.91,8.27,8.27,0,0,1,.62,1A9.68,9.68,0,0,1,61,12.67,8.22,8.22,0,0,1,61.37,14a4.79,4.79,0,0,1,.1.76A6.28,6.28,0,0,1,61.51,15.5Z"/><path class="cls-2" d="M61.51,15.5a9.68,9.68,0,0,1-.1,1.33c0,.18-.06.34-.1.51a7.9,7.9,0,0,1-.35,1.2,8.52,8.52,0,0,1-.7,1.46,9.28,9.28,0,0,1-.91,1.25,8.49,8.49,0,0,1-1.1,1.06,8.9,8.9,0,0,1-2.79,1.51,8.37,8.37,0,0,1-.86.23,7.06,7.06,0,0,1-.92.15c-.3,0-.61.05-.92.05h0a7.59,7.59,0,0,1-1.27-.1l-.24,0a7.18,7.18,0,0,1-1.31-.33,7.79,7.79,0,0,1-1.15-.49,8.27,8.27,0,0,1-1-.62,7.86,7.86,0,0,1-.91-.73A8,8,0,0,1,46,21.1a8.36,8.36,0,0,1-.69-1,9.06,9.06,0,0,1-.57-1.07,8.3,8.3,0,0,1-.44-1.21,9.4,9.4,0,0,1-.23-1.08l0-.3.94-1,1.09-1.07,1.07-1.08,1.08-1.08,1.08-1.07,1.07-1.08,1.09-1.08L52.56,8l1.18-1.18a8.86,8.86,0,0,1,1.38.26,9.66,9.66,0,0,1,1.21.44,9.93,9.93,0,0,1,1.07.57,8,8,0,0,1,1,.7,7.18,7.18,0,0,1,.85.8,7.86,7.86,0,0,1,.73.91,8.27,8.27,0,0,1,.62,1A9.68,9.68,0,0,1,61,12.67,8.22,8.22,0,0,1,61.37,14a4.79,4.79,0,0,1,.1.76A6.28,6.28,0,0,1,61.51,15.5Z"/><path class="cls-2" d="M61.51,15.5a9.68,9.68,0,0,1-.1,1.33c0,.18-.06.34-.1.51a7.9,7.9,0,0,1-.35,1.2,8.52,8.52,0,0,1-.7,1.46,9.28,9.28,0,0,1-.91,1.25,8.49,8.49,0,0,1-1.1,1.06,8.9,8.9,0,0,1-2.79,1.51,8.37,8.37,0,0,1-.86.23,7.06,7.06,0,0,1-.92.15c-.3,0-.61.05-.92.05h0a7.59,7.59,0,0,1-1.27-.1l-.24,0a7.18,7.18,0,0,1-1.31-.33,7.79,7.79,0,0,1-1.15-.49,8.27,8.27,0,0,1-1-.62,7.86,7.86,0,0,1-.91-.73A8,8,0,0,1,46,21.1a8.36,8.36,0,0,1-.69-1,9.06,9.06,0,0,1-.57-1.07,8.3,8.3,0,0,1-.44-1.21,9.4,9.4,0,0,1-.23-1.08l0-.3a7.93,7.93,0,0,1-.06-1c0-.21,0-.42,0-.63l.16-.16,1.08-1.07,1.08-1.08,1.08-1.08,1.08-1.08,1.07-1.08,1.08-1.07,1.08-1.08.39-.39c.2,0,.42,0,.63,0s.51,0,.76,0l.22,0a8.86,8.86,0,0,1,1.38.26,9.66,9.66,0,0,1,1.21.44,9.93,9.93,0,0,1,1.07.57,8,8,0,0,1,1,.7,7.18,7.18,0,0,1,.85.8,7.86,7.86,0,0,1,.73.91,8.27,8.27,0,0,1,.62,1A9.68,9.68,0,0,1,61,12.67,8.22,8.22,0,0,1,61.37,14a4.79,4.79,0,0,1,.1.76A6.28,6.28,0,0,1,61.51,15.5Z"/><path class="cls-2" d="M61.51,15.5a9.68,9.68,0,0,1-.1,1.33c0,.18-.06.34-.1.51a7.9,7.9,0,0,1-.35,1.2,8.52,8.52,0,0,1-.7,1.46,9.28,9.28,0,0,1-.91,1.25,8.49,8.49,0,0,1-1.1,1.06,8.9,8.9,0,0,1-2.79,1.51,8.37,8.37,0,0,1-.86.23,7.06,7.06,0,0,1-.92.15c-.3,0-.61.05-.92.05h0a7.59,7.59,0,0,1-1.27-.1l-.24,0a7.18,7.18,0,0,1-1.31-.33,7.79,7.79,0,0,1-1.15-.49,8.27,8.27,0,0,1-1-.62,7.86,7.86,0,0,1-.91-.73A8,8,0,0,1,46,21.1a8.36,8.36,0,0,1-.69-1,9.06,9.06,0,0,1-.57-1.07,8.3,8.3,0,0,1-.44-1.21,9.4,9.4,0,0,1-.23-1.08l0-.3a7.93,7.93,0,0,1-.06-1c0-.21,0-.42,0-.63l0-.28a8.36,8.36,0,0,1,.36-1.75l5.42-5.42.26-.25a7.35,7.35,0,0,1,1.33-.31,5.35,5.35,0,0,1,.7-.08c.2,0,.42,0,.63,0s.51,0,.76,0l.22,0a8.86,8.86,0,0,1,1.38.26,9.66,9.66,0,0,1,1.21.44,9.93,9.93,0,0,1,1.07.57,8,8,0,0,1,1,.7,7.18,7.18,0,0,1,.85.8,7.86,7.86,0,0,1,.73.91,8.27,8.27,0,0,1,.62,1A9.68,9.68,0,0,1,61,12.67,8.22,8.22,0,0,1,61.37,14a4.79,4.79,0,0,1,.1.76A6.28,6.28,0,0,1,61.51,15.5Z"/><path class="cls-2" d="M51.48,24.15l-.24,0a7.18,7.18,0,0,1-1.31-.33,7.79,7.79,0,0,1-1.15-.49,8.27,8.27,0,0,1-1-.62,7.86,7.86,0,0,1-.91-.73A8,8,0,0,1,46,21.1a8.36,8.36,0,0,1-.69-1,9.06,9.06,0,0,1-.57-1.07,8.3,8.3,0,0,1-.44-1.21,9.4,9.4,0,0,1-.23-1.08l3.13,3.13.82.82.82.82Z"/><path class="cls-2" d="M53.68,24.2c-.3,0-.61.05-.92.05h0a7.59,7.59,0,0,1-1.27-.1l-.24,0a7.18,7.18,0,0,1-1.31-.33,7.79,7.79,0,0,1-1.15-.49,8.27,8.27,0,0,1-1-.62,7.86,7.86,0,0,1-.91-.73A8,8,0,0,1,46,21.1a8.36,8.36,0,0,1-.69-1,9.06,9.06,0,0,1-.57-1.07,8.3,8.3,0,0,1-.44-1.21,9.4,9.4,0,0,1-.23-1.08l0-.3a7.93,7.93,0,0,1-.06-1c0-.21,0-.42,0-.63l0-.28.13.12.82.82.83.83.82.82.82.82.82.82.83.83,3.29,3.29.82.82Z"/><path class="cls-2" d="M55.46,23.82a8.37,8.37,0,0,1-.86.23,7.06,7.06,0,0,1-.92.15c-.3,0-.61.05-.92.05h0a7.59,7.59,0,0,1-1.27-.1l-.24,0a7.18,7.18,0,0,1-1.31-.33,7.79,7.79,0,0,1-1.15-.49,8.27,8.27,0,0,1-1-.62,7.86,7.86,0,0,1-.91-.73A8,8,0,0,1,46,21.1a8.36,8.36,0,0,1-.69-1,9.06,9.06,0,0,1-.57-1.07,8.3,8.3,0,0,1-.44-1.21,9.4,9.4,0,0,1-.23-1.08l0-.3a7.93,7.93,0,0,1-.06-1c0-.21,0-.42,0-.63l0-.28a8.36,8.36,0,0,1,.36-1.75l0,0h0l4.94,4.94.82.82.82.82.82.83,3.29,3.29Z"/><path class="cls-2" d="M53.68,24.2c-.3,0-.61.05-.92.05h0a7.59,7.59,0,0,1-1.27-.1l-.24,0a7.18,7.18,0,0,1-1.31-.33,7.79,7.79,0,0,1-1.15-.49,8.27,8.27,0,0,1-1-.62,7.86,7.86,0,0,1-.91-.73A8,8,0,0,1,46,21.1a8.36,8.36,0,0,1-.69-1,9.06,9.06,0,0,1-.57-1.07,8.3,8.3,0,0,1-.44-1.21,9.4,9.4,0,0,1-.23-1.08l0-.3a7.93,7.93,0,0,1-.06-1c0-.21,0-.42,0-.63l0-.28a8.36,8.36,0,0,1,.36-1.75l0,0a8.29,8.29,0,0,1,.65-1.5l.44.44.82.82L48,14.2l.83.83.82.82.82.82.82.82L53.75,20l.82.82.83.83.82.82.74.74a8,8,0,0,1-1.5.65,8.37,8.37,0,0,1-.86.23A7.06,7.06,0,0,1,53.68,24.2Z"/><path class="cls-2" d="M53.68,24.2c-.3,0-.61.05-.92.05h0a7.59,7.59,0,0,1-1.27-.1l-.24,0a7.18,7.18,0,0,1-1.31-.33,7.79,7.79,0,0,1-1.15-.49,8.27,8.27,0,0,1-1-.62,7.86,7.86,0,0,1-.91-.73A8,8,0,0,1,46,21.1a8.36,8.36,0,0,1-.69-1,9.06,9.06,0,0,1-.57-1.07,8.3,8.3,0,0,1-.44-1.21,9.4,9.4,0,0,1-.23-1.08l0-.3a7.93,7.93,0,0,1-.06-1c0-.21,0-.42,0-.63l0-.28a8.36,8.36,0,0,1,.36-1.75l0,0a8.29,8.29,0,0,1,.65-1.5A7,7,0,0,1,46,10l.65.65.82.82,1.64,1.64.83.83.82.82.82.82.82.82L54,18.06l.82.82.82.82.83.83.82.82,1,1a8.9,8.9,0,0,1-2.79,1.51,8.37,8.37,0,0,1-.86.23A7.06,7.06,0,0,1,53.68,24.2Z"/><path class="cls-2" d="M59.35,21.25a8.49,8.49,0,0,1-1.1,1.06,8.9,8.9,0,0,1-2.79,1.51,8.37,8.37,0,0,1-.86.23,7.06,7.06,0,0,1-.92.15c-.3,0-.61.05-.92.05h0a7.59,7.59,0,0,1-1.27-.1l-.24,0a7.18,7.18,0,0,1-1.31-.33,7.79,7.79,0,0,1-1.15-.49,8.27,8.27,0,0,1-1-.62,7.86,7.86,0,0,1-.91-.73A8,8,0,0,1,46,21.1a8.36,8.36,0,0,1-.69-1,9.06,9.06,0,0,1-.57-1.07,8.3,8.3,0,0,1-.44-1.21,9.4,9.4,0,0,1-.23-1.08l0-.3a7.93,7.93,0,0,1-.06-1c0-.21,0-.42,0-.63l0-.28a8.36,8.36,0,0,1,.36-1.75l0,0a8.29,8.29,0,0,1,.65-1.5A7,7,0,0,1,46,10a7.28,7.28,0,0,1,1-1.1l4.79,4.78.82.83L55.09,17l.82.83,2.47,2.46Z"/><path class="cls-2" d="M60.26,20a9.28,9.28,0,0,1-.91,1.25,8.49,8.49,0,0,1-1.1,1.06,8.9,8.9,0,0,1-2.79,1.51,8.37,8.37,0,0,1-.86.23,7.06,7.06,0,0,1-.92.15c-.3,0-.61.05-.92.05h0a7.59,7.59,0,0,1-1.27-.1l-.24,0a7.18,7.18,0,0,1-1.31-.33,7.79,7.79,0,0,1-1.15-.49,8.27,8.27,0,0,1-1-.62,7.86,7.86,0,0,1-.91-.73A8,8,0,0,1,46,21.1a8.36,8.36,0,0,1-.69-1,9.06,9.06,0,0,1-.57-1.07,8.3,8.3,0,0,1-.44-1.21,9.4,9.4,0,0,1-.23-1.08l0-.3a7.93,7.93,0,0,1-.06-1c0-.21,0-.42,0-.63l0-.28a8.36,8.36,0,0,1,.36-1.75l0,0a8.29,8.29,0,0,1,.65-1.5A7,7,0,0,1,46,10a7.28,7.28,0,0,1,1-1.1A8,8,0,0,1,48.26,8l.5.5.82.82L51.23,11l.82.82.82.82.82.82.83.83,3.29,3.29.82.82.83.82Z"/><path class="cls-2" d="M61,18.54a8.52,8.52,0,0,1-.7,1.46,9.28,9.28,0,0,1-.91,1.25,8.49,8.49,0,0,1-1.1,1.06,8.9,8.9,0,0,1-2.79,1.51,8.37,8.37,0,0,1-.86.23,7.06,7.06,0,0,1-.92.15c-.3,0-.61.05-.92.05h0a7.59,7.59,0,0,1-1.27-.1l-.24,0a7.18,7.18,0,0,1-1.31-.33,7.79,7.79,0,0,1-1.15-.49,8.27,8.27,0,0,1-1-.62,7.86,7.86,0,0,1-.91-.73A8,8,0,0,1,46,21.1a8.36,8.36,0,0,1-.69-1,9.06,9.06,0,0,1-.57-1.07,8.3,8.3,0,0,1-.44-1.21,9.4,9.4,0,0,1-.23-1.08l0-.3a7.93,7.93,0,0,1-.06-1c0-.21,0-.42,0-.63l0-.28a8.36,8.36,0,0,1,.36-1.75l0,0a8.29,8.29,0,0,1,.65-1.5A7,7,0,0,1,46,10a7.28,7.28,0,0,1,1-1.1A8,8,0,0,1,48.26,8a7.84,7.84,0,0,1,1.46-.7l5.06,5.06.82.82.82.82Z"/><path class="cls-2" d="M61.41,16.83c0,.18-.06.34-.1.51a7.9,7.9,0,0,1-.35,1.2,8.52,8.52,0,0,1-.7,1.46,9.28,9.28,0,0,1-.91,1.25,8.49,8.49,0,0,1-1.1,1.06,8.9,8.9,0,0,1-2.79,1.51,8.37,8.37,0,0,1-.86.23,7.06,7.06,0,0,1-.92.15c-.3,0-.61.05-.92.05h0a7.59,7.59,0,0,1-1.27-.1l-.24,0a7.18,7.18,0,0,1-1.31-.33,7.79,7.79,0,0,1-1.15-.49,8.27,8.27,0,0,1-1-.62,7.86,7.86,0,0,1-.91-.73A8,8,0,0,1,46,21.1a8.36,8.36,0,0,1-.69-1,9.06,9.06,0,0,1-.57-1.07,8.3,8.3,0,0,1-.44-1.21,9.4,9.4,0,0,1-.23-1.08l0-.3a7.93,7.93,0,0,1-.06-1c0-.21,0-.42,0-.63l0-.28a8.36,8.36,0,0,1,.36-1.75l0,0a8.29,8.29,0,0,1,.65-1.5A7,7,0,0,1,46,10a7.28,7.28,0,0,1,1-1.1A8,8,0,0,1,48.26,8a7.84,7.84,0,0,1,1.46-.7,2.43,2.43,0,0,1,.38-.13,7.35,7.35,0,0,1,1.33-.31l.31.31.82.82.82.82,2.47,2.47.82.82L60,15.4l.83.82Z"/><path class="cls-2" d="M59.35,21.25a8.49,8.49,0,0,1-1.1,1.06,8.9,8.9,0,0,1-2.79,1.51,8.37,8.37,0,0,1-.86.23,7.06,7.06,0,0,1-.92.15c-.3,0-.61.05-.92.05h0a7.59,7.59,0,0,1-1.27-.1l-.24,0a7.18,7.18,0,0,1-1.31-.33,7.79,7.79,0,0,1-1.15-.49,8.27,8.27,0,0,1-1-.62,7.86,7.86,0,0,1-.91-.73A8,8,0,0,1,46,21.1a8.36,8.36,0,0,1-.69-1,9.06,9.06,0,0,1-.57-1.07,8.3,8.3,0,0,1-.44-1.21,9.4,9.4,0,0,1-.23-1.08l0-.3a7.93,7.93,0,0,1-.06-1c0-.21,0-.42,0-.63l0-.28a8.36,8.36,0,0,1,.36-1.75l0,0a8.29,8.29,0,0,1,.65-1.5A7,7,0,0,1,46,10a7.28,7.28,0,0,1,1-1.1A8,8,0,0,1,48.26,8a7.84,7.84,0,0,1,1.46-.7,2.43,2.43,0,0,1,.38-.13,7.35,7.35,0,0,1,1.33-.31,5.35,5.35,0,0,1,.7-.08c.2,0,.42,0,.63,0s.51,0,.76,0l.12.13,3.29,3.29.82.82.83.83.82.82L61,14.31l.43.44a6.28,6.28,0,0,1,0,.75,9.68,9.68,0,0,1-.1,1.33c0,.18-.06.34-.1.51a7.9,7.9,0,0,1-.35,1.2,8.52,8.52,0,0,1-.7,1.46A9.28,9.28,0,0,1,59.35,21.25Z"/><rect class="cls-3" x="40.26" y="3" width="25" height="25"/><line class="cls-4" x1="15.76" y1="17.7" x2="15.76" y2="4.3"/><line class="cls-4" x1="22.45" y1="11" x2="9.06" y2="11"/></g></g></svg>