<svg xmlns="http://www.w3.org/2000/svg" viewBox="0 0 100 80"><title>Artboard6</title><g id="Layer_2" data-name="Layer 2"><g id="Layer_1-2" data-name="Layer 1"><polygon points="50.02 40 50.02 0 0.02 0 50.02 40 50.02 40"/><polygon points="50.02 40 50.02 40 50.02 40.01 50.02 40"/><polygon points="50.02 40.01 50.43 40.33 100 40.33 100 0 50.02 40 50.02 40.01"/><polygon points="0.04 80 49.61 40.33 0 40.33 0 80 0.04 80"/><polygon points="50.02 40.01 50.02 40 49.61 40.33 50.02 40.33 50.02 40.01"/><polygon points="50.43 40.33 50.02 40.01 50.02 40.33 50.43 40.33"/><polygon points="50.02 40.33 50.02 80 100 80 100 79.99 50.43 40.33 50.02 40.33"/></g></g></svg>