<svg xmlns="http://www.w3.org/2000/svg" viewBox="0 0 138.56 120"><title>Artboard2</title><g id="Layer_2" data-name="Layer 2"><g id="Layer_1-2" data-name="Layer 1"><polygon points="35.33 59.81 68.78 1.87 68.78 79.13 35.33 59.81"/><path d="M68.28,3.73V78.26L36,59.63,68.28,3.73m1-3.73L34.64,60,69.28,80V0Z"/><polygon points="69.3 80 69.29 80 69.3 80 69.3 80 69.3 80"/><polygon points="71.16 79.5 103.74 60.69 114.6 79.5 71.16 79.5"/><path d="M103.56,61.37,113.74,79H73l30.53-17.63m.37-1.36L69.3,80h46.17L103.93,60Z"/><polygon points="69.28 79.99 69.28 80 69.29 80 69.28 79.99 69.28 79.99"/><polygon points="69.29 80 69.28 80 69.28 80.01 69.3 80 69.29 80 69.29 80"/><polygon points="23.38 80.5 67.43 80.5 1.36 118.65 23.38 80.5"/><path d="M65.56,81,2.72,117.28,23.67,81H65.56m3.72-1H23.09L0,120H0L69.28,80Z"/><polygon points="69.78 119.5 69.78 80.86 136.71 119.5 69.78 119.5"/><path d="M70.28,81.73,134.84,119H70.28V81.73M69.3,80h0v40h69.28L69.3,80Z"/></g></g></svg>