<svg xmlns="http://www.w3.org/2000/svg" viewBox="0 0 106.42 86.42"><title>Artboard5</title><g id="Layer_2" data-name="Layer 2"><g id="Layer_1-2" data-name="Layer 1"><polygon points="53.12 43.32 53.12 3.32 3.11 3.32 53.11 43.32 53.12 43.32"/><polygon points="53.12 43.32 53.11 43.32 53.12 43.33 53.12 43.32"/><polygon points="56.44 40.01 56.84 40.33 106.42 40.33 106.42 0 56.44 40 56.44 40.01"/><polygon points="0.04 86.42 49.61 46.75 0 46.75 0 86.42 0.04 86.42"/><polygon points="53.12 43.33 53.11 43.32 52.7 43.65 53.12 43.65 53.12 43.33"/><polygon points="53.52 43.65 53.12 43.33 53.12 43.65 53.52 43.65"/><polygon points="53.12 43.65 53.12 83.32 103.1 83.32 103.1 83.31 53.52 43.65 53.12 43.65"/></g></g></svg>