<svg xmlns="http://www.w3.org/2000/svg" viewBox="0 0 100 80"><title>Artboard4</title><g id="Layer_2" data-name="Layer 2"><g id="Layer_1-2" data-name="Layer 1"><polygon points="100 0 50.02 0 50.02 40 100 0"/><polygon points="50.02 40 50.02 40 50.02 40.01 50.02 40"/><polygon points="100 79.99 100 40.33 50.43 40.33 100 79.99"/><polygon points="50.02 40 0.02 0 0 0 0 40.33 49.61 40.33 50.02 40"/><polygon points="50.02 40.01 50.02 40 49.61 40.33 50.02 40.33 50.02 40.01"/><polygon points="50.43 40.33 50.02 40.01 50.02 40.33 50.43 40.33"/><polygon points="49.61 40.33 0.04 80 50.02 80 50.02 40.33 49.61 40.33"/></g></g></svg>