<svg xmlns="http://www.w3.org/2000/svg" viewBox="0 0 109 88.99"><title>Artboard7</title><g id="Layer_2" data-name="Layer 2"><g id="Layer_1-2" data-name="Layer 1"><polygon points="105 5 55.02 5 55.02 45 105 5"/><polygon points="55.02 45 55.02 45 55.02 45.01 55.02 45"/><polygon points="109 88.99 109 49.33 59.43 49.33 109 88.99"/><polygon points="50.02 40 0.02 0 0 0 0 40.33 49.61 40.33 50.02 40"/><polygon points="55.02 45.01 55.02 45 54.61 45.33 55.02 45.33 55.02 45.01"/><polygon points="55.43 45.33 55.02 45.01 55.02 45.33 55.43 45.33"/><polygon points="54.61 45.33 5.04 85 55.02 85 55.02 45.33 54.61 45.33"/></g></g></svg>