<svg xmlns="http://www.w3.org/2000/svg" viewBox="0 0 102.83 82.07"><defs><style>.cls-1,.cls-2{stroke:#000;stroke-miterlimit:10;}.cls-2{fill:none;}</style></defs><title>Artboard3</title><g id="Layer_2" data-name="Layer 2"><g id="Layer_1-2" data-name="Layer 1"><polygon class="cls-1" points="51.43 41.04 51.43 1.04 1.43 1.04 51.43 41.04 51.43 41.04"/><polygon class="cls-2" points="101.41 1.04 51.43 1.04 51.43 41.04 101.41 1.04"/><polygon class="cls-2" points="51.43 41.04 51.43 41.04 51.43 41.05 51.43 41.04"/><polygon class="cls-1" points="51.43 41.05 51.84 41.37 101.41 41.37 101.41 1.04 51.43 41.04 51.43 41.05"/><polygon class="cls-2" points="101.41 81.03 101.41 41.37 51.84 41.37 101.41 81.03"/><polygon class="cls-2" points="51.43 41.04 1.43 1.04 1.41 1.04 1.41 41.37 51.02 41.37 51.43 41.04"/><polygon class="cls-1" points="1.45 81.04 51.02 41.37 1.41 41.37 1.41 81.04 1.45 81.04"/><polygon class="cls-2" points="51.43 41.05 51.43 41.04 51.02 41.37 51.43 41.37 51.43 41.05"/><polygon class="cls-2" points="51.84 41.37 51.43 41.05 51.43 41.37 51.84 41.37"/><polygon class="cls-2" points="51.02 41.37 1.45 81.04 51.43 81.04 51.43 41.37 51.02 41.37"/><polygon class="cls-1" points="51.43 41.37 51.43 81.04 101.41 81.04 101.41 81.03 51.84 41.37 51.43 41.37"/></g></g></svg>