<svg xmlns="http://www.w3.org/2000/svg" viewBox="0 0 30.33 70.41"><defs><style>.cls-1{fill:none;stroke:#000;stroke-miterlimit:10;stroke-width:0.25px;}</style></defs><title>Artboard4</title><g id="Layer_2" data-name="Layer 2"><g id="Layer_1-2" data-name="Layer 1"><path class="cls-1" d="M27,30.46a4.87,4.87,0,0,0-1.67-.33l1,1Z"/><path class="cls-1" d="M27.37,32.22l1-1a4.93,4.93,0,0,0-1.39-.8l-.67.67Z"/><path class="cls-1" d="M28.47,33.32l.89-.9a4.38,4.38,0,0,0-.66-.83q-.18-.18-.36-.33l-1,1Z"/><path class="cls-1" d="M29.56,34.41l.46-.47a4.59,4.59,0,0,0-.66-1.52l-.89.9Z"/><path class="cls-1" d="M30.16,35A4.18,4.18,0,0,0,30,33.94l-.46.47Z"/><path class="cls-1" d="M25.1,30.13a4.91,4.91,0,0,0-1.58.29l.65.65Z"/><polygon class="cls-1" points="25.26 32.16 26.28 31.13 25.28 30.13 25.1 30.13 24.17 31.07 25.26 32.16"/><polygon class="cls-1" points="27.37 32.22 26.28 31.13 25.26 32.16 26.35 33.25 27.37 32.22"/><polygon class="cls-1" points="27.44 34.34 28.47 33.32 27.37 32.22 26.35 33.25 27.44 34.34"/><polygon class="cls-1" points="27.44 34.34 28.53 35.43 29.56 34.41 28.47 33.32 27.44 34.34"/><path class="cls-1" d="M30.16,35l-.6-.6-1,1,1.09,1.09.55-.55v-.84A.49.49,0,0,0,30.16,35Z"/><polygon class="cls-1" points="30.17 37.07 30.17 35.97 29.62 36.52 30.17 37.07"/><path class="cls-1" d="M24.17,31.07l-.65-.65a4.49,4.49,0,0,0-1.33.71l.95,1Z"/><polygon class="cls-1" points="25.26 32.16 24.17 31.07 23.14 32.09 24.23 33.18 25.26 32.16"/><rect class="cls-1" x="24.57" y="32.44" width="1.45" height="1.55" transform="translate(-16.08 27.61) rotate(-45)"/><rect class="cls-1" x="25.66" y="33.53" width="1.44" height="1.54" transform="translate(-16.53 28.7) rotate(-45)"/><rect class="cls-1" x="26.75" y="34.62" width="1.44" height="1.54" transform="translate(-16.98 29.79) rotate(-45)"/><rect class="cls-1" x="27.84" y="35.71" width="1.44" height="1.54" transform="translate(-17.43 30.88) rotate(-45)"/><polygon class="cls-1" points="28.6 37.54 29.69 38.64 30.17 38.16 30.17 37.07 29.62 36.52 28.6 37.54"/><polygon class="cls-1" points="30.17 39.11 30.17 38.16 29.69 38.64 30.17 39.11"/><path class="cls-1" d="M23.14,32.09l-.95-1a4.38,4.38,0,0,0-1,1l1,1Z"/><polygon class="cls-1" points="24.23 33.18 23.14 32.09 22.12 33.12 23.21 34.21 24.23 33.18"/><rect class="cls-1" x="23.54" y="33.46" width="1.45" height="1.55" transform="translate(-17.14 27.39) rotate(-45.28)"/><rect class="cls-1" x="24.63" y="34.56" width="1.46" height="1.54" transform="translate(-17.55 28.28) rotate(-45)"/><rect class="cls-1" x="25.72" y="35.65" width="1.46" height="1.54" transform="translate(-18 29.37) rotate(-45)"/><rect class="cls-1" x="26.81" y="36.74" width="1.46" height="1.54" transform="translate(-18.46 30.46) rotate(-45)"/><rect class="cls-1" x="27.9" y="37.83" width="1.45" height="1.55" transform="translate(-18.94 31.78) rotate(-45.28)"/><polygon class="cls-1" points="28.67 39.67 29.76 40.76 30.17 40.34 30.17 39.11 29.69 38.64 28.67 39.67"/><polygon class="cls-1" points="30.17 41.17 30.17 40.34 29.76 40.76 30.17 41.17"/><path class="cls-1" d="M22.12,33.12l-1-1a4.79,4.79,0,0,0-.71,1.34l.64.64Z"/><polygon class="cls-1" points="22.12 33.12 21.09 34.14 22.18 35.23 23.21 34.21 22.12 33.12"/><rect class="cls-1" x="22.52" y="34.49" width="1.45" height="1.55" transform="translate(-18.13 26.76) rotate(-45)"/><rect class="cls-1" x="23.61" y="35.58" width="1.44" height="1.54" transform="translate(-18.58 27.85) rotate(-45)"/><rect class="cls-1" x="24.7" y="36.67" width="1.44" height="1.54" transform="translate(-19.03 28.94) rotate(-45)"/><rect class="cls-1" x="25.79" y="37.76" width="1.44" height="1.54" transform="translate(-19.48 30.03) rotate(-45)"/><rect class="cls-1" x="26.88" y="38.85" width="1.45" height="1.55" transform="translate(-19.9 30.91) rotate(-44.74)"/><polygon class="cls-1" points="28.73 41.78 29.76 40.76 28.67 39.67 27.64 40.69 28.73 41.78"/><polygon class="cls-1" points="28.73 41.78 29.83 42.87 30.17 42.53 30.17 41.17 29.76 40.76 28.73 41.78"/><polygon class="cls-1" points="30.17 43.21 30.17 42.53 29.83 42.87 30.17 43.21"/><path class="cls-1" d="M20.45,33.5a4.74,4.74,0,0,0-.28,1.56l.92-.92Z"/><polygon class="cls-1" points="21.16 36.25 22.18 35.23 21.09 34.14 20.17 35.06 20.17 35.27 21.16 36.25"/><rect class="cls-1" x="21.49" y="35.51" width="1.45" height="1.55" transform="translate(-19.19 26.52) rotate(-45.26)"/><rect class="cls-1" x="22.58" y="36.6" width="1.45" height="1.55" transform="translate(-19.6 27.43) rotate(-45)"/><rect class="cls-1" x="23.67" y="37.7" width="1.46" height="1.54" transform="translate(-20.05 28.52) rotate(-45)"/><rect class="cls-1" x="24.76" y="38.79" width="1.46" height="1.54" transform="translate(-20.51 29.61) rotate(-45)"/><polygon class="cls-1" points="26.62 41.71 27.64 40.69 26.55 39.59 25.52 40.62 26.62 41.71"/><rect class="cls-1" x="26.95" y="40.97" width="1.44" height="1.54" transform="translate(-21.41 31.79) rotate(-45)"/><polygon class="cls-1" points="28.8 43.9 29.83 42.87 28.73 41.78 27.71 42.8 28.8 43.9"/><polygon class="cls-1" points="28.8 43.9 29.89 44.99 30.17 44.71 30.17 43.21 29.83 42.87 28.8 43.9"/><polygon class="cls-1" points="30.17 45.27 30.17 44.71 29.89 44.99 30.17 45.27"/><polygon class="cls-1" points="21.16 36.25 20.17 35.27 20.17 37.24 21.16 36.25"/><polygon class="cls-1" points="20.17 37.24 20.13 37.28 20.17 37.31 20.17 37.24"/><polygon class="cls-1" points="20.17 37.31 21.22 38.37 22.25 37.34 21.16 36.25 20.17 37.24 20.17 37.31"/><polygon class="cls-1" points="23.34 38.44 22.25 37.34 21.22 38.37 22.32 39.46 23.34 38.44"/><rect class="cls-1" x="22.65" y="38.72" width="1.44" height="1.54" transform="translate(-21.08 28.09) rotate(-45)"/><rect class="cls-1" x="23.74" y="39.81" width="1.44" height="1.54" transform="translate(-21.53 29.18) rotate(-45)"/><polygon class="cls-1" points="24.5 41.64 25.59 42.74 26.62 41.71 25.52 40.62 24.5 41.64"/><rect class="cls-1" x="25.92" y="42" width="1.46" height="1.54" transform="translate(-22.44 31.37) rotate(-45)"/><polygon class="cls-1" points="26.68 43.83 27.78 44.92 28.8 43.9 27.71 42.8 26.68 43.83"/><rect class="cls-1" x="28.11" y="44.18" width="1.44" height="1.54" transform="translate(-23.34 33.55) rotate(-45)"/><polygon class="cls-1" points="28.87 46.01 29.96 47.1 30.17 46.89 30.17 45.27 29.89 44.99 28.87 46.01"/><polygon class="cls-1" points="30.17 47.31 30.17 46.89 29.96 47.1 30.17 47.31"/><polygon class="cls-1" points="20.2 39.39 21.22 38.37 20.17 37.31 20.17 39.37 20.2 39.39"/><polygon class="cls-1" points="21.29 40.49 22.32 39.46 21.22 38.37 20.2 39.39 21.29 40.49"/><rect class="cls-1" x="21.62" y="39.75" width="1.46" height="1.54" transform="translate(-22.11 27.67) rotate(-45)"/><rect class="cls-1" x="22.71" y="40.84" width="1.46" height="1.54" transform="translate(-22.56 28.76) rotate(-45)"/><polygon class="cls-1" points="24.57 43.76 25.59 42.74 24.5 41.64 23.47 42.67 24.57 43.76"/><rect class="cls-1" x="24.9" y="43.02" width="1.44" height="1.54" transform="translate(-23.46 30.94) rotate(-45)"/><polygon class="cls-1" points="26.75 45.95 27.78 44.92 26.68 43.83 25.66 44.85 26.75 45.95"/><rect class="cls-1" x="27.08" y="45.21" width="1.46" height="1.54" transform="translate(-24.37 33.13) rotate(-45)"/><rect class="cls-1" x="28.17" y="46.3" width="1.46" height="1.54" transform="translate(-24.82 34.22) rotate(-45)"/><polygon class="cls-1" points="28.93 48.13 30.02 49.22 30.17 49.07 30.17 47.31 29.96 47.1 28.93 48.13"/><polygon class="cls-1" points="30.17 49.37 30.17 49.07 30.02 49.22 30.17 49.37"/><polygon class="cls-1" points="20.2 39.39 20.17 39.37 20.17 39.42 20.2 39.39"/><polygon class="cls-1" points="20.17 41.41 20.27 41.51 21.29 40.49 20.2 39.39 20.17 39.42 20.17 41.41"/><rect class="cls-1" x="20.6" y="40.77" width="1.44" height="1.54" transform="translate(-23.13 27.24) rotate(-45)"/><rect class="cls-1" x="21.69" y="41.86" width="1.45" height="1.55" transform="translate(-23.65 28.56) rotate(-45.28)"/><rect class="cls-1" x="22.78" y="42.95" width="1.45" height="1.55" transform="translate(-24.04 29.43) rotate(-45)"/><rect class="cls-1" x="23.87" y="44.05" width="1.46" height="1.54" transform="translate(-24.49 30.52) rotate(-45)"/><polygon class="cls-1" points="24.63 45.88 25.73 46.97 26.75 45.95 25.66 44.85 24.63 45.88"/><rect class="cls-1" x="26.06" y="46.23" width="1.44" height="1.54" transform="translate(-25.39 32.7) rotate(-45)"/><rect class="cls-1" x="27.15" y="47.32" width="1.44" height="1.54" transform="translate(-25.84 33.79) rotate(-45)"/><rect class="cls-1" x="28.24" y="48.41" width="1.44" height="1.54" transform="translate(-26.29 34.88) rotate(-45)"/><polygon class="cls-1" points="29 50.24 30.09 51.34 30.17 51.26 30.17 49.37 30.02 49.22 29 50.24"/><polygon class="cls-1" points="30.17 51.41 30.17 51.26 30.09 51.34 30.17 51.41"/><polygon class="cls-1" points="20.27 41.51 20.17 41.41 20.17 41.61 20.27 41.51"/><polygon class="cls-1" points="20.17 43.47 20.33 43.63 21.36 42.6 20.27 41.51 20.17 41.61 20.17 43.47"/><polygon class="cls-1" points="20.33 43.63 21.43 44.72 22.45 43.7 21.36 42.6 20.33 43.63"/><rect class="cls-1" x="21.76" y="43.98" width="1.44" height="1.54" transform="translate(-25.06 29.01) rotate(-45)"/><rect class="cls-1" x="22.85" y="45.07" width="1.44" height="1.54" transform="translate(-25.51 30.09) rotate(-45)"/><polygon class="cls-1" points="24.7 48 25.73 46.97 24.63 45.88 23.61 46.9 24.7 48"/><rect class="cls-1" x="25.03" y="47.26" width="1.46" height="1.54" transform="translate(-26.42 32.28) rotate(-45)"/><rect class="cls-1" x="26.12" y="48.35" width="1.46" height="1.54" transform="translate(-26.87 33.37) rotate(-45)"/><rect class="cls-1" x="27.21" y="49.44" width="1.46" height="1.54" transform="translate(-27.32 34.46) rotate(-45)"/><polygon class="cls-1" points="29.07 52.36 30.09 51.34 29 50.24 27.97 51.27 29.07 52.36"/><polygon class="cls-1" points="29.07 52.36 30.16 53.45 30.17 53.44 30.17 51.41 30.09 51.34 29.07 52.36"/><polygon class="cls-1" points="30.17 53.47 30.17 53.44 30.16 53.45 30.17 53.47"/><polygon class="cls-1" points="20.17 43.79 20.33 43.63 20.17 43.47 20.17 43.79"/><polygon class="cls-1" points="20.17 45.51 20.4 45.74 21.43 44.72 20.33 43.63 20.17 43.79 20.17 45.51"/><polygon class="cls-1" points="20.4 45.74 21.5 46.84 22.52 45.81 21.43 44.72 20.4 45.74"/><polygon class="cls-1" points="22.59 47.93 23.61 46.9 22.52 45.81 21.5 46.84 22.59 47.93"/><rect class="cls-1" x="22.92" y="47.19" width="1.45" height="1.55" transform="translate(-26.99 30.76) rotate(-45)"/><rect class="cls-1" x="24.01" y="48.28" width="1.44" height="1.54" transform="translate(-27.44 31.85) rotate(-45)"/><rect class="cls-1" x="25.1" y="49.37" width="1.44" height="1.54" transform="translate(-27.89 32.94) rotate(-45)"/><rect class="cls-1" x="26.19" y="50.46" width="1.44" height="1.54" transform="translate(-28.34 34.03) rotate(-45)"/><rect class="cls-1" x="27.28" y="51.55" width="1.45" height="1.55" transform="translate(-28.8 35.13) rotate(-45)"/><polygon class="cls-1" points="29.14 54.48 30.16 53.45 29.07 52.36 28.05 53.39 29.14 54.48"/><polygon class="cls-1" points="29.14 54.48 30.17 55.51 30.17 53.47 30.16 53.45 29.14 54.48"/><polygon class="cls-1" points="20.17 45.98 20.4 45.74 20.17 45.51 20.17 45.98"/><polygon class="cls-1" points="20.17 47.57 20.47 47.86 21.5 46.84 20.4 45.74 20.17 45.98 20.17 47.57"/><polygon class="cls-1" points="20.47 47.86 21.56 48.95 22.59 47.93 21.5 46.84 20.47 47.86"/><polygon class="cls-1" points="22.65 50.04 23.68 49.02 22.59 47.93 21.56 48.95 22.65 50.04"/><rect class="cls-1" x="22.98" y="49.3" width="1.45" height="1.55" transform="translate(-28.38 31.19) rotate(-44.74)"/><rect class="cls-1" x="24.07" y="50.4" width="1.46" height="1.54" transform="translate(-28.92 32.52) rotate(-45)"/><rect class="cls-1" x="25.16" y="51.49" width="1.46" height="1.54" transform="translate(-29.37 33.61) rotate(-45)"/><rect class="cls-1" x="26.25" y="52.57" width="1.45" height="1.55" transform="translate(-29.73 34.43) rotate(-44.72)"/><polygon class="cls-1" points="27.02 54.41 28.11 55.5 29.14 54.48 28.05 53.39 27.02 54.41"/><polygon class="cls-1" points="28.11 55.5 29.2 56.59 30.17 55.62 30.17 55.51 29.14 54.48 28.11 55.5"/><polygon class="cls-1" points="30.17 57.57 30.17 55.62 29.2 56.59 30.17 57.57"/><polygon class="cls-1" points="20.17 48.16 20.47 47.86 20.17 47.57 20.17 48.16"/><polygon class="cls-1" points="20.17 49.61 20.54 49.98 21.56 48.95 20.47 47.86 20.17 48.16 20.17 49.61"/><polygon class="cls-1" points="20.54 49.98 21.63 51.07 22.65 50.04 21.56 48.95 20.54 49.98"/><rect class="cls-1" x="21.96" y="50.33" width="1.45" height="1.55" transform="translate(-29.49 31) rotate(-45)"/><rect class="cls-1" x="23.05" y="51.42" width="1.44" height="1.54" transform="translate(-29.94 32.09) rotate(-45)"/><rect class="cls-1" x="24.14" y="52.51" width="1.44" height="1.54" transform="translate(-30.4 33.19) rotate(-45)"/><rect class="cls-1" x="25.23" y="53.6" width="1.45" height="1.55" transform="translate(-30.85 34.28) rotate(-45)"/><polygon class="cls-1" points="26 55.44 27.09 56.53 28.11 55.5 27.02 54.41 26 55.44"/><polygon class="cls-1" points="28.18 57.62 29.2 56.59 28.11 55.5 27.09 56.53 28.18 57.62"/><polygon class="cls-1" points="28.18 57.62 29.27 58.71 30.17 57.8 30.17 57.57 29.2 56.59 28.18 57.62"/><polygon class="cls-1" points="30.17 59.61 30.17 57.8 29.27 58.71 30.17 59.61"/><polygon class="cls-1" points="20.17 50.34 20.54 49.98 20.17 49.61 20.17 50.34"/><polygon class="cls-1" points="20.17 51.66 20.6 52.09 21.63 51.07 20.54 49.98 20.17 50.34 20.17 51.66"/><polygon class="cls-1" points="20.6 52.09 21.7 53.19 22.72 52.16 21.63 51.07 20.6 52.09"/><polygon class="cls-1" points="22.79 54.28 23.81 53.25 22.72 52.16 21.7 53.19 22.79 54.28"/><polygon class="cls-1" points="22.79 54.28 23.88 55.37 24.9 54.34 23.81 53.25 22.79 54.28"/><polygon class="cls-1" points="23.88 55.37 24.97 56.46 26 55.44 24.9 54.34 23.88 55.37"/><polygon class="cls-1" points="26.06 57.55 27.09 56.53 26 55.44 24.97 56.46 26.06 57.55"/><polygon class="cls-1" points="26.06 57.55 27.15 58.64 28.18 57.62 27.09 56.53 26.06 57.55"/><polygon class="cls-1" points="28.24 59.73 29.27 58.71 28.18 57.62 27.15 58.64 28.24 59.73"/><polygon class="cls-1" points="28.24 59.73 29.34 60.83 30.17 59.99 30.17 59.61 29.27 58.71 28.24 59.73"/><polygon class="cls-1" points="30.17 61.66 30.17 59.99 29.34 60.83 30.17 61.66"/><polygon class="cls-1" points="20.17 52.52 20.6 52.09 20.17 51.66 20.17 52.52"/><polygon class="cls-1" points="20.17 53.71 20.67 54.21 21.7 53.19 20.6 52.09 20.17 52.52 20.17 53.71"/><polygon class="cls-1" points="20.67 54.21 21.76 55.3 22.79 54.28 21.7 53.19 20.67 54.21"/><polygon class="cls-1" points="21.76 55.3 22.85 56.39 23.88 55.37 22.79 54.28 21.76 55.3"/><polygon class="cls-1" points="23.95 57.49 24.97 56.46 23.88 55.37 22.85 56.39 23.95 57.49"/><polygon class="cls-1" points="23.95 57.49 25.04 58.58 26.06 57.55 24.97 56.46 23.95 57.49"/><polygon class="cls-1" points="26.13 59.67 27.15 58.64 26.06 57.55 25.04 58.58 26.13 59.67"/><polygon class="cls-1" points="26.13 59.67 27.22 60.76 28.24 59.73 27.15 58.64 26.13 59.67"/><polygon class="cls-1" points="28.31 61.85 29.34 60.83 28.24 59.73 27.22 60.76 28.31 61.85"/><polygon class="cls-1" points="28.31 61.85 29.4 62.94 30.17 62.17 30.17 61.66 29.34 60.83 28.31 61.85"/><polygon class="cls-1" points="30.17 63.71 30.17 62.17 29.4 62.94 30.17 63.71"/><polygon class="cls-1" points="20.17 54.71 20.67 54.21 20.17 53.71 20.17 54.71"/><polygon class="cls-1" points="20.17 54.71 20.17 55.76 20.74 56.33 21.76 55.3 20.67 54.21 20.17 54.71"/><polygon class="cls-1" points="21.83 57.42 22.85 56.39 21.76 55.3 20.74 56.33 21.83 57.42"/><polygon class="cls-1" points="21.83 57.42 22.92 58.51 23.95 57.49 22.85 56.39 21.83 57.42"/><polygon class="cls-1" points="24.01 59.6 25.04 58.58 23.95 57.49 22.92 58.51 24.01 59.6"/><polygon class="cls-1" points="24.01 59.6 25.1 60.69 26.13 59.67 25.04 58.58 24.01 59.6"/><polygon class="cls-1" points="26.19 61.78 27.22 60.76 26.13 59.67 25.1 60.69 26.19 61.78"/><polygon class="cls-1" points="26.19 61.78 27.29 62.88 28.31 61.85 27.22 60.76 26.19 61.78"/><polygon class="cls-1" points="28.38 63.97 29.4 62.94 28.31 61.85 27.29 62.88 28.38 63.97"/><polygon class="cls-1" points="28.38 63.97 29.47 65.06 30.17 64.36 30.17 63.71 29.4 62.94 28.38 63.97"/><polygon class="cls-1" points="30.17 65.76 30.17 64.36 29.47 65.06 30.17 65.76"/><polygon class="cls-1" points="20.74 56.33 20.17 55.76 20.17 56.89 20.74 56.33"/><polygon class="cls-1" points="20.17 56.89 20.17 57.81 20.8 58.44 21.83 57.42 20.74 56.33 20.17 56.89"/><polygon class="cls-1" points="21.9 59.54 22.92 58.51 21.83 57.42 20.8 58.44 21.9 59.54"/><polygon class="cls-1" points="21.9 59.54 22.99 60.63 24.01 59.6 22.92 58.51 21.9 59.54"/><polygon class="cls-1" points="24.08 61.72 25.1 60.69 24.01 59.6 22.99 60.63 24.08 61.72"/><polygon class="cls-1" points="24.08 61.72 25.17 62.81 26.19 61.78 25.1 60.69 24.08 61.72"/><polygon class="cls-1" points="26.26 63.9 27.29 62.88 26.19 61.78 25.17 62.81 26.26 63.9"/><polygon class="cls-1" points="26.26 63.9 27.35 64.99 28.38 63.97 27.29 62.88 26.26 63.9"/><polygon class="cls-1" points="28.45 66.09 29.47 65.06 28.38 63.97 27.35 64.99 28.45 66.09"/><polygon class="cls-1" points="28.45 66.09 29.54 67.18 30.17 66.54 30.17 65.76 29.47 65.06 28.45 66.09"/><polygon class="cls-1" points="30.17 67.81 30.17 66.54 29.54 67.18 30.17 67.81"/><polygon class="cls-1" points="20.8 58.44 20.17 57.81 20.17 59.07 20.8 58.44"/><polygon class="cls-1" points="20.17 59.07 20.17 59.86 20.87 60.56 21.9 59.54 20.8 58.44 20.17 59.07"/><polygon class="cls-1" points="21.96 61.65 22.99 60.63 21.9 59.54 20.87 60.56 21.96 61.65"/><polygon class="cls-1" points="21.96 61.65 23.05 62.74 24.08 61.72 22.99 60.63 21.96 61.65"/><polygon class="cls-1" points="24.14 63.83 25.17 62.81 24.08 61.72 23.05 62.74 24.14 63.83"/><polygon class="cls-1" points="24.14 63.83 25.24 64.93 26.26 63.9 25.17 62.81 24.14 63.83"/><polygon class="cls-1" points="26.33 66.02 27.35 64.99 26.26 63.9 25.24 64.93 26.33 66.02"/><polygon class="cls-1" points="26.33 66.02 27.42 67.11 28.45 66.09 27.35 64.99 26.33 66.02"/><polygon class="cls-1" points="28.51 68.2 29.54 67.18 28.45 66.09 27.42 67.11 28.51 68.2"/><polygon class="cls-1" points="28.51 68.2 29.6 69.29 30.17 68.72 30.17 67.81 29.54 67.18 28.51 68.2"/><polygon class="cls-1" points="30.17 69.86 30.17 68.72 29.6 69.29 30.17 69.86"/><polygon class="cls-1" points="20.87 60.56 20.17 59.86 20.17 61.26 20.87 60.56"/><polygon class="cls-1" points="20.17 61.26 20.17 61.91 20.94 62.68 21.96 61.65 20.87 60.56 20.17 61.26"/><polygon class="cls-1" points="22.03 63.77 23.05 62.74 21.96 61.65 20.94 62.68 22.03 63.77"/><polygon class="cls-1" points="22.03 63.77 23.12 64.86 24.14 63.83 23.05 62.74 22.03 63.77"/><polygon class="cls-1" points="24.14 63.83 23.12 64.86 24.21 65.95 25.24 64.93 24.14 63.83"/><polygon class="cls-1" points="24.21 65.95 25.3 67.04 26.33 66.02 25.24 64.93 24.21 65.95"/><polygon class="cls-1" points="26.33 66.02 25.3 67.04 26.4 68.14 27.42 67.11 26.33 66.02"/><polygon class="cls-1" points="26.4 68.14 27.49 69.23 28.51 68.2 27.42 67.11 26.4 68.14"/><polygon class="cls-1" points="28.51 68.2 27.49 69.23 28.39 70.13 28.76 70.13 29.6 69.29 28.51 68.2"/><polygon class="cls-1" points="28.76 70.13 30.17 70.13 30.17 69.86 29.6 69.29 28.76 70.13"/><polygon class="cls-1" points="20.17 63.44 20.94 62.68 20.17 61.91 20.17 63.44"/><polygon class="cls-1" points="20.94 62.68 20.17 63.44 20.17 63.96 21 64.79 22.03 63.77 20.94 62.68"/><polygon class="cls-1" points="21 64.79 22.09 65.88 23.12 64.86 22.03 63.77 21 64.79"/><polygon class="cls-1" points="22.09 65.88 23.19 66.98 24.21 65.95 23.12 64.86 22.09 65.88"/><polygon class="cls-1" points="24.21 65.95 23.19 66.98 24.28 68.07 25.3 67.04 24.21 65.95"/><polygon class="cls-1" points="24.28 68.07 25.37 69.16 26.4 68.14 25.3 67.04 24.28 68.07"/><polygon class="cls-1" points="26.4 68.14 25.37 69.16 26.34 70.13 26.58 70.13 27.49 69.23 26.4 68.14"/><polygon class="cls-1" points="26.58 70.13 28.39 70.13 27.49 69.23 26.58 70.13"/><polygon class="cls-1" points="20.17 65.62 21 64.79 20.17 63.96 20.17 65.62"/><polygon class="cls-1" points="21 64.79 20.17 65.62 20.17 66.01 21.07 66.91 22.09 65.88 21 64.79"/><polygon class="cls-1" points="21.07 66.91 22.16 68 23.19 66.98 22.09 65.88 21.07 66.91"/><polygon class="cls-1" points="22.16 68 23.25 69.09 24.28 68.07 23.19 66.98 22.16 68"/><polygon class="cls-1" points="24.28 68.07 23.25 69.09 24.29 70.13 24.4 70.13 25.37 69.16 24.28 68.07"/><polygon class="cls-1" points="24.4 70.13 26.34 70.13 25.37 69.16 24.4 70.13"/><polygon class="cls-1" points="20.17 67.8 21.07 66.91 20.17 66.01 20.17 67.8"/><polygon class="cls-1" points="21.07 66.91 20.17 67.8 20.17 68.05 21.14 69.02 22.16 68 21.07 66.91"/><rect class="cls-1" x="21.47" y="68.28" width="1.44" height="1.54" transform="translate(-42.33 35.92) rotate(-45)"/><polygon class="cls-1" points="22.23 70.11 22.25 70.13 24.29 70.13 23.25 69.09 22.23 70.11"/><polygon class="cls-1" points="20.17 69.99 21.14 69.02 20.17 68.05 20.17 69.99"/><polygon class="cls-1" points="21.14 69.02 20.17 69.99 20.17 70.11 20.19 70.13 22.21 70.13 22.23 70.11 21.14 69.02"/><polygon class="cls-1" points="22.21 70.13 22.25 70.13 22.23 70.11 22.21 70.13"/><polygon class="cls-1" points="20.17 70.13 20.19 70.13 20.17 70.11 20.17 70.13"/><path class="cls-1" d="M16.52,10.32a5.4,5.4,0,0,0-1-.18l.59.59Z"/><path class="cls-1" d="M17.21,11.82,18,11a4.8,4.8,0,0,0-1.48-.7l-.4.41Z"/><path class="cls-1" d="M18.3,12.91l.82-.82A5,5,0,0,0,18,11l-.79.8Z"/><path class="cls-1" d="M19.39,14l.49-.49a4.63,4.63,0,0,0-.76-1.42l-.82.82Z"/><path class="cls-1" d="M20.14,14.75a4.28,4.28,0,0,0-.26-1.24l-.49.49Z"/><path class="cls-1" d="M14.47,10.19a4.9,4.9,0,0,0-.78.16l.31.31Z"/><path class="cls-1" d="M15.09,11.75l1-1-.59-.59h-.37a3.93,3.93,0,0,0-.69.06l-.47.47Z"/><polygon class="cls-1" points="17.21 11.82 16.12 10.73 15.09 11.75 16.18 12.84 17.21 11.82"/><polygon class="cls-1" points="17.28 13.94 18.3 12.91 17.21 11.82 16.18 12.84 17.28 13.94"/><polygon class="cls-1" points="18.37 15.03 19.39 14 18.3 12.91 17.28 13.94 18.37 15.03"/><path class="cls-1" d="M18.37,15l1.09,1.09.7-.71v-.28a2.36,2.36,0,0,0,0-.38L19.39,14Z"/><polygon class="cls-1" points="20.16 16.82 20.16 15.41 19.46 16.12 20.16 16.82"/><path class="cls-1" d="M14,10.66l-.31-.31a5.19,5.19,0,0,0-1.38.67l.67.67Z"/><polygon class="cls-1" points="15.09 11.75 14 10.66 12.98 11.69 14.07 12.78 15.09 11.75"/><polygon class="cls-1" points="15.16 13.87 16.18 12.84 15.09 11.75 14.07 12.78 15.16 13.87"/><polygon class="cls-1" points="17.28 13.94 16.18 12.84 15.16 13.87 16.25 14.96 17.28 13.94"/><polygon class="cls-1" points="16.25 14.96 17.34 16.05 18.37 15.03 17.28 13.94 16.25 14.96"/><polygon class="cls-1" points="18.43 17.14 19.46 16.12 18.37 15.03 17.34 16.05 18.43 17.14"/><polygon class="cls-1" points="18.43 17.14 19.52 18.23 20.16 17.59 20.16 16.82 19.46 16.12 18.43 17.14"/><polygon class="cls-1" points="20.16 18.87 20.16 17.59 19.52 18.23 20.16 18.87"/><path class="cls-1" d="M13,11.69,12.31,11a5.27,5.27,0,0,0-.68.57,3.67,3.67,0,0,0-.37.43l.69.69Z"/><polygon class="cls-1" points="14.07 12.78 12.98 11.69 11.95 12.71 13.04 13.8 14.07 12.78"/><polygon class="cls-1" points="14.07 12.78 13.04 13.8 14.13 14.89 15.16 13.87 14.07 12.78"/><polygon class="cls-1" points="16.25 14.96 15.16 13.87 14.13 14.89 15.23 15.99 16.25 14.96"/><polygon class="cls-1" points="16.32 17.08 17.34 16.05 16.25 14.96 15.23 15.99 16.32 17.08"/><polygon class="cls-1" points="16.32 17.08 17.41 18.17 18.43 17.14 17.34 16.05 16.32 17.08"/><polygon class="cls-1" points="18.5 19.26 19.52 18.23 18.43 17.14 17.41 18.17 18.5 19.26"/><polygon class="cls-1" points="18.5 19.26 19.59 20.35 20.16 19.78 20.16 18.87 19.52 18.23 18.5 19.26"/><polygon class="cls-1" points="20.16 20.92 20.16 19.78 19.59 20.35 20.16 20.92"/><path class="cls-1" d="M12,12.71,11.26,12a4.24,4.24,0,0,0-.75,1.3l.42.42Z"/><polygon class="cls-1" points="11.95 12.71 10.93 13.74 12.02 14.83 13.04 13.8 11.95 12.71"/><polygon class="cls-1" points="14.13 14.89 13.04 13.8 12.02 14.83 13.11 15.92 14.13 14.89"/><polygon class="cls-1" points="15.23 15.99 14.13 14.89 13.11 15.92 14.2 17.01 15.23 15.99"/><polygon class="cls-1" points="14.2 17.01 15.29 18.1 16.32 17.08 15.23 15.99 14.2 17.01"/><polygon class="cls-1" points="16.38 19.19 17.41 18.17 16.32 17.08 15.29 18.1 16.38 19.19"/><polygon class="cls-1" points="16.38 19.19 17.47 20.28 18.5 19.26 17.41 18.17 16.38 19.19"/><polygon class="cls-1" points="18.57 21.38 19.59 20.35 18.5 19.26 17.47 20.28 18.57 21.38"/><polygon class="cls-1" points="18.57 21.38 19.66 22.47 20.16 21.96 20.16 20.92 19.59 20.35 18.57 21.38"/><polygon class="cls-1" points="20.16 22.97 20.16 21.96 19.66 22.47 20.16 22.97"/><path class="cls-1" d="M10.51,13.32a4.2,4.2,0,0,0-.29,1.12l.71-.7Z"/><path class="cls-1" d="M12,14.83l-1.09-1.09-.71.7a5.7,5.7,0,0,0-.06.58l.83.83Z"/><polygon class="cls-1" points="13.11 15.92 12.02 14.83 10.99 15.85 12.08 16.94 13.11 15.92"/><polygon class="cls-1" points="14.2 17.01 13.11 15.92 12.08 16.94 13.18 18.04 14.2 17.01"/><polygon class="cls-1" points="15.29 18.1 14.2 17.01 13.18 18.04 14.27 19.13 15.29 18.1"/><polygon class="cls-1" points="14.27 19.13 15.36 20.22 16.38 19.19 15.29 18.1 14.27 19.13"/><polygon class="cls-1" points="16.45 21.31 17.47 20.28 16.38 19.19 15.36 20.22 16.45 21.31"/><polygon class="cls-1" points="16.45 21.31 17.54 22.4 18.57 21.38 17.47 20.28 16.45 21.31"/><polygon class="cls-1" points="18.63 23.49 19.66 22.47 18.57 21.38 17.54 22.4 18.63 23.49"/><polygon class="cls-1" points="18.63 23.49 19.72 24.58 20.16 24.14 20.16 22.97 19.66 22.47 18.63 23.49"/><polygon class="cls-1" points="20.16 25.02 20.16 24.14 19.72 24.58 20.16 25.02"/><polygon class="cls-1" points="10.99 15.85 10.16 15.02 10.16 16.68 10.99 15.85"/><polygon class="cls-1" points="11.06 17.97 12.08 16.94 10.99 15.85 10.16 16.68 10.16 17.07 11.06 17.97"/><polygon class="cls-1" points="13.18 18.04 12.08 16.94 11.06 17.97 12.15 19.06 13.18 18.04"/><polygon class="cls-1" points="14.27 19.13 13.18 18.04 12.15 19.06 13.24 20.15 14.27 19.13"/><polygon class="cls-1" points="14.33 21.24 15.36 20.22 14.27 19.13 13.24 20.15 14.33 21.24"/><polygon class="cls-1" points="14.33 21.24 15.42 22.33 16.45 21.31 15.36 20.22 14.33 21.24"/><polygon class="cls-1" points="16.52 23.43 17.54 22.4 16.45 21.31 15.42 22.33 16.52 23.43"/><polygon class="cls-1" points="16.52 23.43 17.61 24.52 18.63 23.49 17.54 22.4 16.52 23.43"/><polygon class="cls-1" points="18.7 25.61 19.72 24.58 18.63 23.49 17.61 24.52 18.7 25.61"/><polygon class="cls-1" points="18.7 25.61 19.79 26.7 20.16 26.33 20.16 25.02 19.72 24.58 18.7 25.61"/><polygon class="cls-1" points="20.16 27.07 20.16 26.33 19.79 26.7 20.16 27.07"/><polygon class="cls-1" points="10.16 17.07 10.16 18.86 11.06 17.97 10.16 17.07"/><polygon class="cls-1" points="11.13 20.08 12.15 19.06 11.06 17.97 10.16 18.86 10.16 19.12 11.13 20.08"/><rect class="cls-1" x="11.46" y="19.34" width="1.44" height="1.54" transform="translate(-10.65 14.5) rotate(-45)"/><rect class="cls-1" x="12.55" y="20.43" width="1.44" height="1.54" transform="translate(-11.11 15.59) rotate(-45)"/><rect class="cls-1" x="13.64" y="21.52" width="1.45" height="1.55" transform="translate(-11.59 16.81) rotate(-45.28)"/><polygon class="cls-1" points="14.4 23.36 15.49 24.45 16.52 23.43 15.42 22.33 14.4 23.36"/><polygon class="cls-1" points="16.58 25.54 17.61 24.52 16.52 23.43 15.49 24.45 16.58 25.54"/><polygon class="cls-1" points="16.58 25.54 17.67 26.63 18.7 25.61 17.61 24.52 16.58 25.54"/><rect class="cls-1" x="18.01" y="25.89" width="1.45" height="1.55" transform="translate(-13.37 21.05) rotate(-45)"/><polygon class="cls-1" points="18.77 27.72 19.86 28.81 20.16 28.51 20.16 27.07 19.79 26.7 18.77 27.72"/><polygon class="cls-1" points="20.16 29.11 20.16 28.51 19.86 28.81 20.16 29.11"/><polygon class="cls-1" points="10.16 19.12 10.16 21.05 11.13 20.08 10.16 19.12"/><polygon class="cls-1" points="11.19 22.2 12.22 21.17 11.13 20.08 10.16 21.05 10.16 21.17 11.19 22.2"/><rect class="cls-1" x="11.52" y="21.46" width="1.46" height="1.54" transform="translate(-12.13 15.17) rotate(-45)"/><rect class="cls-1" x="12.61" y="22.55" width="1.45" height="1.55" transform="translate(-12.58 16.26) rotate(-45)"/><polygon class="cls-1" points="14.47 25.48 15.49 24.45 14.4 23.36 13.37 24.38 14.47 25.48"/><polygon class="cls-1" points="14.47 25.48 15.56 26.57 16.58 25.54 15.49 24.45 14.47 25.48"/><polygon class="cls-1" points="16.65 27.66 17.67 26.63 16.58 25.54 15.56 26.57 16.65 27.66"/><rect class="cls-1" x="16.98" y="26.91" width="1.45" height="1.55" transform="translate(-14.39 20.63) rotate(-45)"/><rect class="cls-1" x="18.07" y="28.01" width="1.46" height="1.54" transform="translate(-14.84 21.72) rotate(-45)"/><polygon class="cls-1" points="18.83 29.84 19.92 30.93 20.16 30.69 20.16 29.11 19.86 28.81 18.83 29.84"/><polygon class="cls-1" points="20.16 31.17 20.16 30.69 19.92 30.93 20.16 31.17"/><polygon class="cls-1" points="11.19 22.2 10.16 21.17 10.16 23.22 10.17 23.22 11.19 22.2"/><rect class="cls-1" x="10.5" y="22.48" width="1.44" height="1.54" transform="translate(-13.16 14.75) rotate(-45)"/><rect class="cls-1" x="11.59" y="23.57" width="1.45" height="1.55" transform="translate(-13.65 15.96) rotate(-45.28)"/><polygon class="cls-1" points="12.35 25.41 13.44 26.5 14.47 25.48 13.37 24.38 12.35 25.41"/><polygon class="cls-1" points="14.53 27.59 15.56 26.57 14.47 25.48 13.44 26.5 14.53 27.59"/><polygon class="cls-1" points="14.53 27.59 15.62 28.68 16.65 27.66 15.56 26.57 14.53 27.59"/><rect class="cls-1" x="15.96" y="27.94" width="1.45" height="1.55" transform="translate(-15.42 20.2) rotate(-45)"/><rect class="cls-1" x="17.05" y="29.03" width="1.44" height="1.54" transform="translate(-15.87 21.3) rotate(-45)"/><rect class="cls-1" x="18.14" y="30.12" width="1.44" height="1.54" transform="translate(-16.32 22.39) rotate(-45)"/><polygon class="cls-1" points="18.9 31.95 19.99 33.04 20.16 32.87 20.16 31.17 19.92 30.93 18.9 31.95"/><polygon class="cls-1" points="20.16 33.21 20.16 32.87 19.99 33.04 20.16 33.21"/><polygon class="cls-1" points="10.17 23.22 10.16 23.22 10.16 23.23 10.17 23.22"/><polygon class="cls-1" points="11.26 24.31 10.17 23.22 10.16 23.23 10.16 25.26 10.23 25.34 11.26 24.31"/><polygon class="cls-1" points="10.23 25.34 11.33 26.43 12.35 25.41 11.26 24.31 10.23 25.34"/><rect class="cls-1" x="11.66" y="25.69" width="1.44" height="1.54" transform="translate(-15.09 16.51) rotate(-45)"/><rect class="cls-1" x="12.75" y="26.78" width="1.44" height="1.54" transform="translate(-15.54 17.6) rotate(-45)"/><rect class="cls-1" x="13.84" y="27.87" width="1.44" height="1.54" transform="translate(-15.99 18.69) rotate(-45)"/><polygon class="cls-1" points="14.6 29.7 15.69 30.8 16.72 29.77 15.62 28.68 14.6 29.7"/><rect class="cls-1" x="16.02" y="30.06" width="1.46" height="1.54" transform="translate(-16.89 20.87) rotate(-45)"/><rect class="cls-1" x="17.11" y="31.15" width="1.46" height="1.54" transform="translate(-17.35 21.96) rotate(-45)"/><rect class="cls-1" x="18.2" y="32.24" width="1.46" height="1.54" transform="translate(-17.8 23.05) rotate(-45)"/><polygon class="cls-1" points="18.96 34.07 20.06 35.16 20.16 35.06 20.16 33.21 19.99 33.04 18.96 34.07"/><polygon class="cls-1" points="20.16 35.27 20.16 35.06 20.06 35.16 20.16 35.27"/><polygon class="cls-1" points="10.16 25.26 10.16 25.41 10.23 25.34 10.16 25.26"/><polygon class="cls-1" points="11.33 26.43 10.23 25.34 10.16 25.41 10.16 27.32 10.3 27.46 11.33 26.43"/><rect class="cls-1" x="10.63" y="26.72" width="1.46" height="1.54" transform="translate(-16.11 16.08) rotate(-45)"/><rect class="cls-1" x="11.72" y="27.81" width="1.46" height="1.54" transform="translate(-16.56 17.17) rotate(-45)"/><rect class="cls-1" x="12.81" y="28.9" width="1.46" height="1.54" transform="translate(-17.01 18.26) rotate(-45)"/><polygon class="cls-1" points="14.67 31.82 15.69 30.8 14.6 29.7 13.57 30.73 14.67 31.82"/><rect class="cls-1" x="15" y="31.08" width="1.44" height="1.54" transform="translate(-17.92 20.45) rotate(-45)"/><rect class="cls-1" x="16.09" y="32.17" width="1.44" height="1.54" transform="translate(-18.37 21.54) rotate(-45)"/><rect class="cls-1" x="17.18" y="33.26" width="1.44" height="1.54" transform="translate(-18.82 22.63) rotate(-45)"/><polygon class="cls-1" points="19.03 36.19 20.06 35.16 18.96 34.07 17.94 35.09 19.03 36.19"/><polygon class="cls-1" points="20.12 37.28 20.16 37.24 20.16 35.27 20.06 35.16 19.03 36.19 20.12 37.28"/><polygon class="cls-1" points="10.16 27.32 10.16 27.6 10.3 27.46 10.16 27.32"/><polygon class="cls-1" points="11.39 28.55 10.3 27.46 10.16 27.6 10.16 29.36 10.37 29.57 11.39 28.55"/><rect class="cls-1" x="10.7" y="28.83" width="1.44" height="1.54" transform="translate(-17.59 16.75) rotate(-45)"/><rect class="cls-1" x="11.79" y="29.92" width="1.44" height="1.54" transform="translate(-18.04 17.84) rotate(-45)"/><polygon class="cls-1" points="12.55 31.75 13.64 32.85 14.67 31.82 13.57 30.73 12.55 31.75"/><rect class="cls-1" x="13.97" y="32.11" width="1.46" height="1.54" transform="translate(-18.94 20.02) rotate(-45)"/><rect class="cls-1" x="15.06" y="33.2" width="1.46" height="1.54" transform="translate(-19.39 21.11) rotate(-45)"/><rect class="cls-1" x="16.15" y="34.29" width="1.46" height="1.54" transform="translate(-19.85 22.2) rotate(-45)"/><polygon class="cls-1" points="18.01 37.21 19.03 36.19 17.94 35.09 16.91 36.12 18.01 37.21"/><rect class="cls-1" x="18.34" y="36.47" width="1.44" height="1.54" transform="translate(-20.75 24.39) rotate(-45)"/><polygon class="cls-1" points="20.16 39.37 20.16 37.31 20.12 37.28 19.1 38.3 20.16 39.37"/><polygon class="cls-1" points="10.16 29.36 10.16 29.78 10.37 29.57 10.16 29.36"/><polygon class="cls-1" points="11.46 30.66 10.37 29.57 10.16 29.78 10.16 31.42 10.43 31.69 11.46 30.66"/><rect class="cls-1" x="10.76" y="30.95" width="1.46" height="1.54" transform="translate(-19.06 17.41) rotate(-45)"/><polygon class="cls-1" points="12.62 33.87 13.64 32.85 12.55 31.75 11.52 32.78 12.62 33.87"/><rect class="cls-1" x="12.95" y="33.13" width="1.44" height="1.54" transform="translate(-19.97 19.6) rotate(-45)"/><rect class="cls-1" x="14.04" y="34.22" width="1.44" height="1.54" transform="translate(-20.42 20.69) rotate(-45)"/><rect class="cls-1" x="15.13" y="35.31" width="1.44" height="1.54" transform="translate(-20.87 21.78) rotate(-45)"/><polygon class="cls-1" points="16.98 38.24 18.01 37.21 16.91 36.12 15.89 37.14 16.98 38.24"/><rect class="cls-1" x="17.31" y="37.5" width="1.46" height="1.54" transform="translate(-21.78 23.96) rotate(-45)"/><polygon class="cls-1" points="19.16 40.42 20.16 39.42 20.16 39.37 19.1 38.3 18.07 39.33 19.16 40.42"/><polygon class="cls-1" points="20.16 39.42 19.16 40.42 20.16 41.41 20.16 39.42"/><polygon class="cls-1" points="10.16 31.42 10.16 31.96 10.43 31.69 10.16 31.42"/><polygon class="cls-1" points="11.52 32.78 10.43 31.69 10.16 31.96 10.16 33.46 10.5 33.8 11.52 32.78"/><polygon class="cls-1" points="10.5 33.8 11.59 34.9 12.62 33.87 11.52 32.78 10.5 33.8"/><rect class="cls-1" x="11.92" y="34.16" width="1.46" height="1.54" transform="translate(-20.99 19.17) rotate(-45)"/><rect class="cls-1" x="13.01" y="35.25" width="1.46" height="1.54" transform="translate(-21.45 20.26) rotate(-45)"/><rect class="cls-1" x="14.1" y="36.34" width="1.46" height="1.54" transform="translate(-21.9 21.35) rotate(-45)"/><polygon class="cls-1" points="15.96 39.26 16.98 38.24 15.89 37.14 14.86 38.17 15.96 39.26"/><rect class="cls-1" x="16.29" y="38.52" width="1.44" height="1.54" transform="translate(-22.8 23.54) rotate(-45)"/><rect class="cls-1" x="17.38" y="39.61" width="1.44" height="1.54" transform="translate(-23.25 24.63) rotate(-45)"/><polygon class="cls-1" points="19.23 42.54 20.16 41.61 20.16 41.41 19.16 40.42 18.14 41.44 19.23 42.54"/><polygon class="cls-1" points="20.16 41.61 19.23 42.54 20.16 43.47 20.16 41.61"/><polygon class="cls-1" points="10.16 33.46 10.16 34.14 10.5 33.8 10.16 33.46"/><polygon class="cls-1" points="11.59 34.9 10.5 33.8 10.16 34.14 10.16 35.51 10.57 35.92 11.59 34.9"/><rect class="cls-1" x="10.9" y="35.18" width="1.44" height="1.54" transform="translate(-22.02 18.75) rotate(-45)"/><rect class="cls-1" x="11.99" y="36.27" width="1.44" height="1.54" transform="translate(-22.47 19.84) rotate(-45)"/><rect class="cls-1" x="13.08" y="37.36" width="1.44" height="1.54" transform="translate(-22.92 20.93) rotate(-45)"/><rect class="cls-1" x="14.17" y="38.45" width="1.45" height="1.55" transform="translate(-23.46 22.21) rotate(-45.28)"/><polygon class="cls-1" points="16.03 41.38 17.05 40.35 15.96 39.26 14.94 40.29 16.03 41.38"/><polygon class="cls-1" points="17.12 42.47 18.14 41.44 17.05 40.35 16.03 41.38 17.12 42.47"/><rect class="cls-1" x="17.45" y="41.73" width="1.45" height="1.55" transform="translate(-24.73 25.3) rotate(-45)"/><polygon class="cls-1" points="19.3 44.65 20.16 43.79 20.16 43.47 19.23 42.54 18.21 43.56 19.3 44.65"/><polygon class="cls-1" points="20.16 45.51 20.16 43.79 19.3 44.65 20.16 45.51"/><polygon class="cls-1" points="10.16 35.51 10.16 36.33 10.57 35.92 10.16 35.51"/><polygon class="cls-1" points="11.66 37.01 10.57 35.92 10.16 36.33 10.16 37.57 10.63 38.04 11.66 37.01"/><rect class="cls-1" x="10.96" y="37.3" width="1.46" height="1.54" transform="translate(-23.49 19.41) rotate(-45)"/><rect class="cls-1" x="12.05" y="38.38" width="1.45" height="1.55" transform="translate(-23.95 20.5) rotate(-45)"/><polygon class="cls-1" points="13.91 41.31 14.94 40.29 13.84 39.19 12.82 40.22 13.91 41.31"/><polygon class="cls-1" points="15 42.4 16.03 41.38 14.94 40.29 13.91 41.31 15 42.4"/><polygon class="cls-1" points="16.09 43.49 17.12 42.47 16.03 41.38 15 42.4 16.09 43.49"/><rect class="cls-1" x="16.42" y="42.75" width="1.45" height="1.55" transform="translate(-25.75 24.87) rotate(-45)"/><rect class="cls-1" x="17.51" y="43.85" width="1.46" height="1.54" transform="translate(-26.21 25.96) rotate(-45)"/><polygon class="cls-1" points="18.27 45.68 19.37 46.77 20.16 45.98 20.16 45.51 19.3 44.65 18.27 45.68"/><polygon class="cls-1" points="20.16 47.57 20.16 45.98 19.37 46.77 20.16 47.57"/><polygon class="cls-1" points="10.16 37.57 10.16 38.51 10.63 38.04 10.16 37.57"/><polygon class="cls-1" points="11.72 39.13 10.63 38.04 10.16 38.51 10.16 39.61 10.7 40.15 11.72 39.13"/><rect class="cls-1" x="11.03" y="39.41" width="1.45" height="1.55" transform="translate(-24.97 20.08) rotate(-45)"/><polygon class="cls-1" points="13.91 41.31 12.82 40.22 11.79 41.24 12.89 42.34 13.91 41.31"/><polygon class="cls-1" points="15 42.4 13.91 41.31 12.89 42.34 13.98 43.43 15 42.4"/><polygon class="cls-1" points="15.07 44.52 16.09 43.49 15 42.4 13.98 43.43 15.07 44.52"/><rect class="cls-1" x="15.4" y="43.78" width="1.45" height="1.55" transform="translate(-26.78 24.45) rotate(-45)"/><rect class="cls-1" x="16.49" y="44.87" width="1.44" height="1.54" transform="translate(-27.23 25.54) rotate(-45)"/><rect class="cls-1" x="17.58" y="45.96" width="1.45" height="1.55" transform="translate(-27.78 26.86) rotate(-45.28)"/><polygon class="cls-1" points="18.35 47.8 19.44 48.89 20.16 48.16 20.16 47.57 19.37 46.77 18.35 47.8"/><polygon class="cls-1" points="20.16 49.61 20.16 48.16 19.44 48.89 20.16 49.61"/><polygon class="cls-1" points="10.16 39.61 10.16 40.69 10.7 40.15 10.16 39.61"/><polygon class="cls-1" points="10.77 42.27 11.79 41.24 10.7 40.15 10.16 40.69 10.16 41.66 10.77 42.27"/><polygon class="cls-1" points="12.89 42.34 11.79 41.24 10.77 42.27 11.86 43.36 12.89 42.34"/><polygon class="cls-1" points="13.98 43.43 12.89 42.34 11.86 43.36 12.95 44.45 13.98 43.43"/><polygon class="cls-1" points="13.98 43.43 12.95 44.45 14.04 45.54 15.07 44.52 13.98 43.43"/><polygon class="cls-1" points="14.04 45.54 15.14 46.64 16.16 45.61 15.07 44.52 14.04 45.54"/><polygon class="cls-1" points="16.23 47.73 17.25 46.7 16.16 45.61 15.14 46.64 16.23 47.73"/><polygon class="cls-1" points="16.23 47.73 17.32 48.82 18.35 47.8 17.25 46.7 16.23 47.73"/><polygon class="cls-1" points="18.41 49.91 19.44 48.89 18.35 47.8 17.32 48.82 18.41 49.91"/><polygon class="cls-1" points="18.41 49.91 19.5 51 20.16 50.34 20.16 49.61 19.44 48.89 18.41 49.91"/><polygon class="cls-1" points="20.16 51.66 20.16 50.34 19.5 51 20.16 51.66"/><polygon class="cls-1" points="10.16 41.66 10.16 42.88 10.77 42.27 10.16 41.66"/><polygon class="cls-1" points="11.86 43.36 10.77 42.27 10.16 42.88 10.16 43.71 10.84 44.39 11.86 43.36"/><polygon class="cls-1" points="11.86 43.36 10.84 44.39 11.93 45.48 12.95 44.45 11.86 43.36"/><polygon class="cls-1" points="14.04 45.54 12.95 44.45 11.93 45.48 13.02 46.57 14.04 45.54"/><polygon class="cls-1" points="14.04 45.54 13.02 46.57 14.11 47.66 15.14 46.64 14.04 45.54"/><polygon class="cls-1" points="14.11 47.66 15.2 48.75 16.23 47.73 15.14 46.64 14.11 47.66"/><polygon class="cls-1" points="16.3 49.85 17.32 48.82 16.23 47.73 15.2 48.75 16.3 49.85"/><polygon class="cls-1" points="16.3 49.85 17.39 50.94 18.41 49.91 17.32 48.82 16.3 49.85"/><polygon class="cls-1" points="18.48 52.03 19.5 51 18.41 49.91 17.39 50.94 18.48 52.03"/><polygon class="cls-1" points="18.48 52.03 19.57 53.12 20.16 52.52 20.16 51.66 19.5 51 18.48 52.03"/><polygon class="cls-1" points="20.16 53.71 20.16 52.52 19.57 53.12 20.16 53.71"/><polygon class="cls-1" points="10.16 43.71 10.16 45.06 10.84 44.39 10.16 43.71"/><polygon class="cls-1" points="11.93 45.48 10.84 44.39 10.16 45.06 10.16 45.76 10.9 46.5 11.93 45.48"/><polygon class="cls-1" points="11.93 45.48 10.9 46.5 11.99 47.59 13.02 46.57 11.93 45.48"/><polygon class="cls-1" points="14.11 47.66 13.02 46.57 11.99 47.59 13.09 48.69 14.11 47.66"/><polygon class="cls-1" points="14.11 47.66 13.09 48.69 14.18 49.78 15.2 48.75 14.11 47.66"/><polygon class="cls-1" points="14.18 49.78 15.27 50.87 16.3 49.85 15.2 48.75 14.18 49.78"/><polygon class="cls-1" points="16.36 51.96 17.39 50.94 16.3 49.85 15.27 50.87 16.36 51.96"/><polygon class="cls-1" points="16.36 51.96 17.45 53.05 18.48 52.03 17.39 50.94 16.36 51.96"/><polygon class="cls-1" points="17.45 53.05 18.54 54.14 19.57 53.12 18.48 52.03 17.45 53.05"/><polygon class="cls-1" points="19.57 53.12 18.54 54.14 19.64 55.24 20.16 54.71 20.16 53.71 19.57 53.12"/><polygon class="cls-1" points="20.16 55.76 20.16 54.71 19.64 55.24 20.16 55.76"/><polygon class="cls-1" points="10.16 45.76 10.16 47.24 10.9 46.5 10.16 45.76"/><polygon class="cls-1" points="11.99 47.59 10.9 46.5 10.16 47.24 10.16 47.81 10.97 48.62 11.99 47.59"/><polygon class="cls-1" points="11.99 47.59 10.97 48.62 12.06 49.71 13.09 48.69 11.99 47.59"/><polygon class="cls-1" points="14.18 49.78 13.09 48.69 12.06 49.71 13.15 50.8 14.18 49.78"/><polygon class="cls-1" points="14.18 49.78 13.15 50.8 14.25 51.9 15.27 50.87 14.18 49.78"/><polygon class="cls-1" points="14.25 51.9 15.34 52.99 16.36 51.96 15.27 50.87 14.25 51.9"/><polygon class="cls-1" points="15.34 52.99 16.43 54.08 17.45 53.05 16.36 51.96 15.34 52.99"/><polygon class="cls-1" points="16.43 54.08 17.52 55.17 18.54 54.14 17.45 53.05 16.43 54.08"/><polygon class="cls-1" points="18.61 56.26 19.64 55.24 18.54 54.14 17.52 55.17 18.61 56.26"/><polygon class="cls-1" points="18.61 56.26 19.7 57.35 20.16 56.89 20.16 55.76 19.64 55.24 18.61 56.26"/><polygon class="cls-1" points="20.16 57.81 20.16 56.89 19.7 57.35 20.16 57.81"/><polygon class="cls-1" points="10.16 47.81 10.16 49.42 10.97 48.62 10.16 47.81"/><polygon class="cls-1" points="12.06 49.71 10.97 48.62 10.16 49.42 10.16 49.86 11.04 50.74 12.06 49.71"/><polygon class="cls-1" points="12.06 49.71 11.04 50.74 12.13 51.83 13.15 50.8 12.06 49.71"/><polygon class="cls-1" points="14.25 51.9 13.15 50.8 12.13 51.83 13.22 52.92 14.25 51.9"/><polygon class="cls-1" points="13.22 52.92 14.31 54.01 15.34 52.99 14.25 51.9 13.22 52.92"/><polygon class="cls-1" points="14.31 54.01 15.4 55.1 16.43 54.08 15.34 52.99 14.31 54.01"/><polygon class="cls-1" points="16.49 56.19 17.52 55.17 16.43 54.08 15.4 55.1 16.49 56.19"/><polygon class="cls-1" points="16.49 56.19 17.59 57.29 18.61 56.26 17.52 55.17 16.49 56.19"/><polygon class="cls-1" points="18.68 58.38 19.7 57.35 18.61 56.26 17.59 57.29 18.68 58.38"/><polygon class="cls-1" points="18.68 58.38 19.77 59.47 20.16 59.07 20.16 57.81 19.7 57.35 18.68 58.38"/><polygon class="cls-1" points="20.16 59.86 20.16 59.07 19.77 59.47 20.16 59.86"/><polygon class="cls-1" points="10.16 49.86 10.16 51.61 11.04 50.74 10.16 49.86"/><polygon class="cls-1" points="12.13 51.83 11.04 50.74 10.16 51.61 10.16 51.91 11.1 52.85 12.13 51.83"/><polygon class="cls-1" points="12.13 51.83 11.1 52.85 12.2 53.95 13.22 52.92 12.13 51.83"/><polygon class="cls-1" points="14.31 54.01 13.22 52.92 12.2 53.95 13.29 55.04 14.31 54.01"/><polygon class="cls-1" points="14.31 54.01 13.29 55.04 14.38 56.13 15.4 55.1 14.31 54.01"/><polygon class="cls-1" points="14.38 56.13 15.47 57.22 16.49 56.19 15.4 55.1 14.38 56.13"/><polygon class="cls-1" points="16.49 56.19 15.47 57.22 16.56 58.31 17.59 57.29 16.49 56.19"/><polygon class="cls-1" points="16.56 58.31 17.65 59.4 18.68 58.38 17.59 57.29 16.56 58.31"/><polygon class="cls-1" points="18.68 58.38 17.65 59.4 18.74 60.49 19.77 59.47 18.68 58.38"/><polygon class="cls-1" points="18.74 60.49 19.84 61.59 20.16 61.26 20.16 59.86 19.77 59.47 18.74 60.49"/><polygon class="cls-1" points="20.16 61.91 20.16 61.26 19.84 61.59 20.16 61.91"/><polygon class="cls-1" points="10.16 51.91 10.16 53.79 11.1 52.85 10.16 51.91"/><polygon class="cls-1" points="12.2 53.95 11.1 52.85 10.16 53.79 10.16 53.96 11.17 54.97 12.2 53.95"/><polygon class="cls-1" points="12.2 53.95 11.17 54.97 12.26 56.06 13.29 55.04 12.2 53.95"/><polygon class="cls-1" points="12.26 56.06 13.35 57.15 14.38 56.13 13.29 55.04 12.26 56.06"/><polygon class="cls-1" points="14.38 56.13 13.35 57.15 14.44 58.24 15.47 57.22 14.38 56.13"/><polygon class="cls-1" points="14.44 58.24 15.54 59.34 16.56 58.31 15.47 57.22 14.44 58.24"/><polygon class="cls-1" points="16.56 58.31 15.54 59.34 16.63 60.43 17.65 59.4 16.56 58.31"/><polygon class="cls-1" points="16.63 60.43 17.72 61.52 18.74 60.49 17.65 59.4 16.63 60.43"/><polygon class="cls-1" points="18.74 60.49 17.72 61.52 18.81 62.61 19.84 61.59 18.74 60.49"/><polygon class="cls-1" points="19.84 61.59 18.81 62.61 19.9 63.7 20.16 63.44 20.16 61.91 19.84 61.59"/><polygon class="cls-1" points="20.16 63.96 20.16 63.44 19.9 63.7 20.16 63.96"/><polygon class="cls-1" points="10.16 53.96 10.16 55.98 11.17 54.97 10.16 53.96"/><polygon class="cls-1" points="10.16 55.98 10.15 56 10.16 56.01 10.16 55.98"/><polygon class="cls-1" points="11.17 54.97 10.16 55.98 10.16 56.01 11.24 57.09 12.26 56.06 11.17 54.97"/><polygon class="cls-1" points="12.26 56.06 11.24 57.09 12.33 58.18 13.35 57.15 12.26 56.06"/><polygon class="cls-1" points="12.33 58.18 13.42 59.27 14.44 58.24 13.35 57.15 12.33 58.18"/><polygon class="cls-1" points="14.44 58.24 13.42 59.27 14.51 60.36 15.54 59.34 14.44 58.24"/><polygon class="cls-1" points="14.51 60.36 15.6 61.45 16.63 60.43 15.54 59.34 14.51 60.36"/><polygon class="cls-1" points="16.63 60.43 15.6 61.45 16.69 62.54 17.72 61.52 16.63 60.43"/><polygon class="cls-1" points="16.69 62.54 17.79 63.64 18.81 62.61 17.72 61.52 16.69 62.54"/><polygon class="cls-1" points="18.81 62.61 17.79 63.64 18.88 64.73 19.9 63.7 18.81 62.61"/><polygon class="cls-1" points="19.9 63.7 18.88 64.73 19.97 65.82 20.16 65.62 20.16 63.96 19.9 63.7"/><polygon class="cls-1" points="20.16 66.01 20.16 65.62 19.97 65.82 20.16 66.01"/><polygon class="cls-1" points="11.24 57.09 10.16 56.01 10.16 58.05 10.21 58.11 11.24 57.09"/><polygon class="cls-1" points="10.21 58.11 11.3 59.2 12.33 58.18 11.24 57.09 10.21 58.11"/><polygon class="cls-1" points="12.33 58.18 11.3 59.2 12.39 60.29 13.42 59.27 12.33 58.18"/><rect class="cls-1" x="12.73" y="59.55" width="1.45" height="1.55" transform="translate(-38.87 27.42) rotate(-45.26)"/><rect class="cls-1" x="13.82" y="60.64" width="1.44" height="1.54" transform="translate(-39.17 28.27) rotate(-45)"/><rect class="cls-1" x="14.91" y="61.73" width="1.44" height="1.54" transform="translate(-39.62 29.36) rotate(-45)"/><rect class="cls-1" x="16" y="62.82" width="1.45" height="1.55" transform="translate(-40.07 30.45) rotate(-45)"/><polygon class="cls-1" points="16.76 64.66 17.85 65.75 18.88 64.73 17.79 63.64 16.76 64.66"/><polygon class="cls-1" points="18.88 64.73 17.85 65.75 18.94 66.84 19.97 65.82 18.88 64.73"/><polygon class="cls-1" points="19.97 65.82 18.94 66.84 20.03 67.93 20.16 67.8 20.16 66.01 19.97 65.82"/><polygon class="cls-1" points="20.16 68.05 20.16 67.8 20.03 67.93 20.16 68.05"/><polygon class="cls-1" points="10.16 58.05 10.16 58.16 10.21 58.11 10.16 58.05"/><polygon class="cls-1" points="10.21 58.11 10.16 58.16 10.16 60.11 10.28 60.23 11.3 59.2 10.21 58.11"/><polygon class="cls-1" points="10.28 60.23 11.37 61.32 12.39 60.29 11.3 59.2 10.28 60.23"/><rect class="cls-1" x="11.7" y="60.57" width="1.45" height="1.55" transform="translate(-39.91 27.01) rotate(-45.28)"/><rect class="cls-1" x="12.79" y="61.67" width="1.46" height="1.54" transform="translate(-40.19 27.84) rotate(-45)"/><rect class="cls-1" x="13.88" y="62.76" width="1.46" height="1.54" transform="translate(-40.64 28.93) rotate(-45)"/><rect class="cls-1" x="14.97" y="63.85" width="1.45" height="1.55" transform="translate(-41.1 30.03) rotate(-45)"/><polygon class="cls-1" points="16.76 64.66 15.74 65.69 16.83 66.78 17.85 65.75 16.76 64.66"/><polygon class="cls-1" points="16.83 66.78 17.92 67.87 18.94 66.84 17.85 65.75 16.83 66.78"/><polygon class="cls-1" points="18.94 66.84 17.92 67.87 19.01 68.96 20.03 67.93 18.94 66.84"/><polygon class="cls-1" points="20.03 67.93 19.01 68.96 20.1 70.05 20.16 69.99 20.16 68.05 20.03 67.93"/><polygon class="cls-1" points="20.16 70.11 20.16 69.99 20.1 70.05 20.16 70.11"/><polygon class="cls-1" points="10.16 60.34 10.28 60.23 10.16 60.11 10.16 60.34"/><polygon class="cls-1" points="10.28 60.23 10.16 60.34 10.16 62.15 10.34 62.34 11.37 61.32 10.28 60.23"/><rect class="cls-1" x="10.68" y="61.6" width="1.45" height="1.55" transform="translate(-40.93 26.57) rotate(-45.26)"/><rect class="cls-1" x="11.77" y="62.69" width="1.44" height="1.54" transform="translate(-41.22 27.42) rotate(-45)"/><rect class="cls-1" x="12.86" y="63.78" width="1.44" height="1.54" transform="translate(-41.67 28.51) rotate(-45)"/><rect class="cls-1" x="13.95" y="64.87" width="1.45" height="1.55" transform="translate(-42.12 29.6) rotate(-45)"/><polygon class="cls-1" points="14.71 66.71 15.8 67.8 16.83 66.78 15.74 65.69 14.71 66.71"/><polygon class="cls-1" points="16.83 66.78 15.8 67.8 16.89 68.89 17.92 67.87 16.83 66.78"/><polygon class="cls-1" points="16.89 68.89 17.98 69.98 19.01 68.96 17.92 67.87 16.89 68.89"/><polygon class="cls-1" points="19.01 68.96 17.98 69.98 18.14 70.13 20.02 70.13 20.1 70.05 19.01 68.96"/><polygon class="cls-1" points="20.1 70.05 20.02 70.13 20.16 70.13 20.16 70.11 20.1 70.05"/><polygon class="cls-1" points="10.16 62.52 10.34 62.34 10.16 62.15 10.16 62.52"/><polygon class="cls-1" points="10.34 62.34 10.16 62.52 10.16 64.21 10.41 64.46 11.44 63.43 10.34 62.34"/><rect class="cls-1" x="10.74" y="63.72" width="1.46" height="1.54" transform="translate(-42.24 27) rotate(-45)"/><rect class="cls-1" x="11.83" y="64.81" width="1.46" height="1.54" transform="translate(-42.69 28.09) rotate(-45)"/><polygon class="cls-1" points="12.59 66.64 13.69 67.73 14.71 66.71 13.62 65.61 12.59 66.64"/><rect class="cls-1" x="14.02" y="66.99" width="1.44" height="1.54" transform="translate(-43.6 30.27) rotate(-45)"/><rect class="cls-1" x="15.11" y="68.08" width="1.44" height="1.54" transform="translate(-44.05 31.36) rotate(-45)"/><polygon class="cls-1" points="16.89 68.89 15.87 69.91 16.08 70.13 17.83 70.13 17.98 69.98 16.89 68.89"/><polygon class="cls-1" points="17.83 70.13 18.14 70.13 17.98 69.98 17.83 70.13"/><polygon class="cls-1" points="10.16 64.71 10.41 64.46 10.16 64.21 10.16 64.71"/><polygon class="cls-1" points="10.41 64.46 10.16 64.71 10.16 66.25 10.48 66.57 11.5 65.55 10.41 64.46"/><rect class="cls-1" x="10.81" y="65.83" width="1.44" height="1.54" transform="translate(-43.72 27.66) rotate(-45)"/><polygon class="cls-1" points="12.59 66.64 11.57 67.66 12.66 68.76 13.69 67.73 12.59 66.64"/><rect class="cls-1" x="12.99" y="68.02" width="1.46" height="1.54" transform="translate(-44.62 29.85) rotate(-45)"/><polygon class="cls-1" points="14.78 68.82 13.75 69.85 14.04 70.13 15.65 70.13 15.87 69.91 14.78 68.82"/><polygon class="cls-1" points="15.65 70.13 16.08 70.13 15.87 69.91 15.65 70.13"/><polygon class="cls-1" points="10.16 66.89 10.48 66.57 10.16 66.25 10.16 66.89"/><polygon class="cls-1" points="10.48 66.57 10.16 66.89 10.16 68.31 10.54 68.69 11.57 67.66 10.48 66.57"/><polygon class="cls-1" points="10.54 68.69 11.64 69.78 12.66 68.76 11.57 67.66 10.54 68.69"/><polygon class="cls-1" points="12.66 68.76 11.64 69.78 11.98 70.13 13.47 70.13 13.75 69.85 12.66 68.76"/><polygon class="cls-1" points="13.47 70.13 14.04 70.13 13.75 69.85 13.47 70.13"/><polygon class="cls-1" points="10.16 69.07 10.54 68.69 10.16 68.31 10.16 69.07"/><polygon class="cls-1" points="10.54 68.69 10.16 69.07 10.16 70.13 11.29 70.13 11.64 69.78 10.54 68.69"/><polygon class="cls-1" points="11.29 70.13 11.98 70.13 11.64 69.78 11.29 70.13"/><path class="cls-1" d="M6.78.4A5,5,0,0,0,5.53.15L6.28.9Z"/><path class="cls-1" d="M7.37,2l.82-.82A5,5,0,0,0,6.78.4l-.5.5Z"/><path class="cls-1" d="M8.47,3.09l.79-.8a4.79,4.79,0,0,0-.58-.7,3.89,3.89,0,0,0-.49-.42L7.37,2Z"/><path class="cls-1" d="M9.56,4.18l.4-.41a5,5,0,0,0-.7-1.48l-.79.8Z"/><path class="cls-1" d="M10.14,4.76a5.4,5.4,0,0,0-.18-1l-.4.41Z"/><path class="cls-1" d="M4.85.15A4.48,4.48,0,0,0,3.69.36l.48.48Z"/><path class="cls-1" d="M5.26,1.93l1-1L5.53.15l-.38,0a1.51,1.51,0,0,0-.3,0L4.17.84Z"/><polygon class="cls-1" points="7.37 1.99 6.28 0.9 5.26 1.93 6.35 3.02 7.37 1.99"/><polygon class="cls-1" points="7.44 4.11 8.47 3.09 7.37 1.99 6.35 3.02 7.44 4.11"/><polygon class="cls-1" points="8.53 5.2 9.56 4.18 8.47 3.09 7.44 4.11 8.53 5.2"/><path class="cls-1" d="M8.53,5.2,9.62,6.29l.53-.53V5.13c0-.12,0-.25,0-.37l-.58-.58Z"/><polygon class="cls-1" points="10.15 6.82 10.15 5.76 9.62 6.29 10.15 6.82"/><path class="cls-1" d="M4.17.84,3.69.36A4.65,4.65,0,0,0,2.31,1l.83.83Z"/><polygon class="cls-1" points="5.26 1.93 4.17 0.84 3.14 1.86 4.23 2.95 5.26 1.93"/><polygon class="cls-1" points="5.32 4.04 6.35 3.02 5.26 1.93 4.23 2.95 5.32 4.04"/><polygon class="cls-1" points="7.44 4.11 6.35 3.02 5.32 4.04 6.42 5.14 7.44 4.11"/><polygon class="cls-1" points="6.42 5.14 7.51 6.23 8.53 5.2 7.44 4.11 6.42 5.14"/><polygon class="cls-1" points="8.6 7.32 9.62 6.29 8.53 5.2 7.51 6.23 8.6 7.32"/><polygon class="cls-1" points="8.6 7.32 9.69 8.41 10.15 7.95 10.15 6.82 9.62 6.29 8.6 7.32"/><polygon class="cls-1" points="10.15 8.87 10.15 7.95 9.69 8.41 10.15 8.87"/><path class="cls-1" d="M3.14,1.86,2.31,1h0a4.71,4.71,0,0,0-1,1l.87.87Z"/><polygon class="cls-1" points="4.23 2.95 3.14 1.86 2.12 2.89 3.21 3.98 4.23 2.95"/><polygon class="cls-1" points="4.23 2.95 3.21 3.98 4.3 5.07 5.32 4.04 4.23 2.95"/><polygon class="cls-1" points="6.42 5.14 5.32 4.04 4.3 5.07 5.39 6.16 6.42 5.14"/><polygon class="cls-1" points="6.48 7.25 7.51 6.23 6.42 5.14 5.39 6.16 6.48 7.25"/><polygon class="cls-1" points="6.48 7.25 7.57 8.34 8.6 7.32 7.51 6.23 6.48 7.25"/><polygon class="cls-1" points="8.66 9.43 9.69 8.41 8.6 7.32 7.57 8.34 8.66 9.43"/><polygon class="cls-1" points="8.66 9.43 9.76 10.53 10.15 10.13 10.15 8.87 9.69 8.41 8.66 9.43"/><polygon class="cls-1" points="10.15 10.92 10.15 10.13 9.76 10.53 10.15 10.92"/><path class="cls-1" d="M2.12,2.89,1.25,2A4.69,4.69,0,0,0,.5,3.32l.59.59Z"/><polygon class="cls-1" points="2.12 2.89 1.09 3.91 2.18 5 3.21 3.98 2.12 2.89"/><polygon class="cls-1" points="4.3 5.07 3.21 3.98 2.18 5 3.27 6.09 4.3 5.07"/><polygon class="cls-1" points="4.3 5.07 3.27 6.09 4.37 7.19 5.39 6.16 4.3 5.07"/><polygon class="cls-1" points="6.48 7.25 5.39 6.16 4.37 7.19 5.46 8.28 6.48 7.25"/><polygon class="cls-1" points="6.55 9.37 7.57 8.34 6.48 7.25 5.46 8.28 6.55 9.37"/><polygon class="cls-1" points="6.55 9.37 7.64 10.46 8.66 9.43 7.57 8.34 6.55 9.37"/><polygon class="cls-1" points="8.73 11.55 9.76 10.53 8.66 9.43 7.64 10.46 8.73 11.55"/><polygon class="cls-1" points="8.73 11.55 9.82 12.64 10.15 12.31 10.15 10.92 9.76 10.53 8.73 11.55"/><polygon class="cls-1" points="10.15 12.97 10.15 12.31 9.82 12.64 10.15 12.97"/><path class="cls-1" d="M.5,3.32A4.74,4.74,0,0,0,.17,4.83l.92-.92Z"/><path class="cls-1" d="M2.18,5,1.09,3.91l-.92.92a.67.67,0,0,0,0,.2l1,1Z"/><polygon class="cls-1" points="2.18 5 1.16 6.03 2.25 7.12 3.27 6.09 2.18 5"/><polygon class="cls-1" points="4.37 7.19 3.27 6.09 2.25 7.12 3.34 8.21 4.37 7.19"/><polygon class="cls-1" points="5.46 8.28 4.37 7.19 3.34 8.21 4.43 9.3 5.46 8.28"/><polygon class="cls-1" points="4.43 9.3 5.52 10.39 6.55 9.37 5.46 8.28 4.43 9.3"/><polygon class="cls-1" points="6.61 11.48 7.64 10.46 6.55 9.37 5.52 10.39 6.61 11.48"/><polygon class="cls-1" points="6.61 11.48 7.71 12.58 8.73 11.55 7.64 10.46 6.61 11.48"/><polygon class="cls-1" points="8.8 13.67 9.82 12.64 8.73 11.55 7.71 12.58 8.8 13.67"/><polygon class="cls-1" points="8.8 13.67 9.89 14.76 10.15 14.49 10.15 12.97 9.82 12.64 8.8 13.67"/><polygon class="cls-1" points="10.15 15.02 10.15 14.49 9.89 14.76 10.15 15.02"/><path class="cls-1" d="M.16,5a.34.34,0,0,0,0,.1V7l1-1Z"/><polygon class="cls-1" points="2.25 7.12 1.16 6.03 0.15 7.03 0.15 7.07 1.22 8.14 2.25 7.12"/><polygon class="cls-1" points="3.34 8.21 2.25 7.12 1.22 8.14 2.32 9.24 3.34 8.21"/><polygon class="cls-1" points="3.34 8.21 2.32 9.24 3.41 10.33 4.43 9.3 3.34 8.21"/><polygon class="cls-1" points="5.52 10.39 4.43 9.3 3.41 10.33 4.5 11.42 5.52 10.39"/><polygon class="cls-1" points="4.5 11.42 5.59 12.51 6.61 11.48 5.52 10.39 4.5 11.42"/><polygon class="cls-1" points="6.68 13.6 7.71 12.58 6.61 11.48 5.59 12.51 6.68 13.6"/><polygon class="cls-1" points="6.68 13.6 7.77 14.69 8.8 13.67 7.71 12.58 6.68 13.6"/><polygon class="cls-1" points="8.86 15.78 9.89 14.76 8.8 13.67 7.77 14.69 8.86 15.78"/><polygon class="cls-1" points="8.86 15.78 9.96 16.88 10.15 16.68 10.15 15.02 9.89 14.76 8.86 15.78"/><polygon class="cls-1" points="10.15 16.68 9.96 16.88 10.15 17.07 10.15 16.68"/><polygon class="cls-1" points="1.22 8.14 0.15 7.07 0.15 9.12 0.2 9.16 1.22 8.14"/><rect class="cls-1" x="0.53" y="8.42" width="1.45" height="1.55" transform="translate(-6.14 3.58) rotate(-45)"/><polygon class="cls-1" points="3.41 10.33 2.32 9.24 1.29 10.26 2.38 11.35 3.41 10.33"/><polygon class="cls-1" points="3.41 10.33 2.38 11.35 3.47 12.44 4.5 11.42 3.41 10.33"/><polygon class="cls-1" points="5.59 12.51 4.5 11.42 3.47 12.44 4.56 13.53 5.59 12.51"/><rect class="cls-1" x="4.9" y="12.79" width="1.45" height="1.55" transform="translate(-7.97 8.01) rotate(-45.26)"/><rect class="cls-1" x="5.99" y="13.88" width="1.44" height="1.54" transform="translate(-8.4 9.04) rotate(-45)"/><rect class="cls-1" x="7.08" y="14.97" width="1.44" height="1.54" transform="translate(-8.85 10.13) rotate(-45)"/><rect class="cls-1" x="8.17" y="16.06" width="1.45" height="1.55" transform="translate(-9.27 11.13) rotate(-44.72)"/><polygon class="cls-1" points="10.02 18.99 10.15 18.86 10.15 17.07 9.96 16.88 8.93 17.9 10.02 18.99"/><polygon class="cls-1" points="10.15 18.86 10.02 18.99 10.15 19.12 10.15 18.86"/><polygon class="cls-1" points="0.15 9.12 0.15 9.21 0.2 9.16 0.15 9.12"/><polygon class="cls-1" points="1.29 10.26 0.2 9.16 0.15 9.21 0.15 11.17 0.27 11.29 1.29 10.26"/><polygon class="cls-1" points="1.29 10.26 0.27 11.29 1.36 12.38 2.38 11.35 1.29 10.26"/><polygon class="cls-1" points="3.47 12.44 2.38 11.35 1.36 12.38 2.45 13.47 3.47 12.44"/><polygon class="cls-1" points="3.47 12.44 2.45 13.47 3.54 14.56 4.56 13.53 3.47 12.44"/><rect class="cls-1" x="3.87" y="13.81" width="1.45" height="1.55" transform="translate(-9 7.58) rotate(-45.26)"/><rect class="cls-1" x="4.96" y="14.91" width="1.46" height="1.54" transform="translate(-9.42 8.61) rotate(-45)"/><rect class="cls-1" x="6.05" y="16" width="1.46" height="1.54" transform="translate(-9.87 9.7) rotate(-45)"/><rect class="cls-1" x="7.14" y="17.09" width="1.45" height="1.55" transform="translate(-10.36 10.88) rotate(-45.28)"/><polygon class="cls-1" points="9 20.02 10.02 18.99 8.93 17.9 7.91 18.93 9 20.02"/><polygon class="cls-1" points="10.09 21.11 10.15 21.05 10.15 19.12 10.02 18.99 9 20.02 10.09 21.11"/><polygon class="cls-1" points="10.15 21.05 10.09 21.11 10.15 21.17 10.15 21.05"/><polygon class="cls-1" points="0.15 11.17 0.15 11.4 0.27 11.29 0.15 11.17"/><polygon class="cls-1" points="1.36 12.38 0.27 11.29 0.15 11.4 0.15 13.22 0.33 13.4 1.36 12.38"/><polygon class="cls-1" points="1.36 12.38 0.33 13.4 1.42 14.49 2.45 13.47 1.36 12.38"/><polygon class="cls-1" points="3.54 14.56 2.45 13.47 1.42 14.49 2.51 15.58 3.54 14.56"/><rect class="cls-1" x="2.85" y="14.84" width="1.45" height="1.55" transform="translate(-9.95 7.03) rotate(-44.72)"/><rect class="cls-1" x="3.94" y="15.93" width="1.44" height="1.54" transform="translate(-10.45 8.19) rotate(-45)"/><rect class="cls-1" x="5.03" y="17.02" width="1.45" height="1.55" transform="translate(-10.9 9.28) rotate(-45)"/><polygon class="cls-1" points="7.91 18.93 6.81 17.83 5.79 18.86 6.88 19.95 7.91 18.93"/><polygon class="cls-1" points="7.97 21.04 9 20.02 7.91 18.93 6.88 19.95 7.97 21.04"/><rect class="cls-1" x="8.31" y="20.3" width="1.45" height="1.55" transform="translate(-12.26 12.56) rotate(-45)"/><polygon class="cls-1" points="10.15 23.22 10.15 21.17 10.09 21.11 9.07 22.13 10.15 23.22"/><polygon class="cls-1" points="0.15 13.22 0.15 13.58 0.33 13.4 0.15 13.22"/><polygon class="cls-1" points="1.42 14.49 0.33 13.4 0.15 13.58 0.15 15.26 0.4 15.51 1.42 14.49"/><rect class="cls-1" x="0.73" y="14.77" width="1.44" height="1.54" transform="translate(-10.57 5.58) rotate(-45)"/><polygon class="cls-1" points="3.61 16.67 2.51 15.58 1.49 16.6 2.58 17.7 3.61 16.67"/><rect class="cls-1" x="2.91" y="16.96" width="1.46" height="1.54" transform="translate(-11.47 7.76) rotate(-45)"/><polygon class="cls-1" points="5.79 18.86 4.7 17.76 3.67 18.79 4.77 19.88 5.79 18.86"/><rect class="cls-1" x="5.1" y="19.14" width="1.44" height="1.54" transform="translate(-12.38 9.95) rotate(-45)"/><rect class="cls-1" x="6.19" y="20.23" width="1.44" height="1.54" transform="translate(-12.83 11.04) rotate(-45)"/><polygon class="cls-1" points="7.97 21.04 6.95 22.06 8.04 23.16 9.07 22.13 7.97 21.04"/><polygon class="cls-1" points="10.15 23.23 10.15 23.22 9.07 22.13 8.04 23.16 9.13 24.25 10.15 23.23"/><polygon class="cls-1" points="9.13 24.25 10.15 25.26 10.15 23.23 9.13 24.25"/><polygon class="cls-1" points="0.15 15.26 0.15 15.76 0.4 15.51 0.15 15.26"/><polygon class="cls-1" points="1.49 16.6 0.4 15.51 0.15 15.76 0.15 17.32 0.46 17.63 1.49 16.6"/><polygon class="cls-1" points="1.49 16.6 0.46 17.63 1.56 18.72 2.58 17.7 1.49 16.6"/><rect class="cls-1" x="1.89" y="17.98" width="1.44" height="1.54" transform="translate(-12.5 7.34) rotate(-45)"/><polygon class="cls-1" points="3.67 18.79 2.65 19.81 3.74 20.91 4.77 19.88 3.67 18.79"/><rect class="cls-1" x="4.07" y="20.17" width="1.46" height="1.54" transform="translate(-13.4 9.52) rotate(-45)"/><rect class="cls-1" x="5.16" y="21.26" width="1.46" height="1.54" transform="translate(-13.85 10.61) rotate(-45)"/><polygon class="cls-1" points="8.04 23.16 6.95 22.06 5.92 23.09 7.02 24.18 8.04 23.16"/><rect class="cls-1" x="7.35" y="23.44" width="1.44" height="1.54" transform="translate(-14.76 12.8) rotate(-45)"/><polygon class="cls-1" points="10.15 25.41 10.15 25.26 9.13 24.25 8.11 25.27 9.2 26.36 10.15 25.41"/><polygon class="cls-1" points="9.2 26.36 10.15 27.32 10.15 25.41 9.2 26.36"/><polygon class="cls-1" points="0.15 17.32 0.15 17.94 0.46 17.63 0.15 17.32"/><polygon class="cls-1" points="1.56 18.72 0.46 17.63 0.15 17.94 0.15 19.36 0.53 19.75 1.56 18.72"/><rect class="cls-1" x="0.86" y="19.01" width="1.46" height="1.54" transform="translate(-13.52 6.91) rotate(-45)"/><polygon class="cls-1" points="3.74 20.91 2.65 19.81 1.62 20.84 2.72 21.93 3.74 20.91"/><rect class="cls-1" x="3.05" y="21.19" width="1.44" height="1.54" transform="translate(-14.43 9.1) rotate(-45)"/><rect class="cls-1" x="4.14" y="22.28" width="1.44" height="1.54" transform="translate(-14.88 10.19) rotate(-45)"/><rect class="cls-1" x="5.23" y="23.37" width="1.45" height="1.55" transform="translate(-15.33 11.28) rotate(-45)"/><rect class="cls-1" x="6.32" y="24.46" width="1.45" height="1.55" transform="translate(-15.78 12.37) rotate(-45)"/><rect class="cls-1" x="7.41" y="25.56" width="1.46" height="1.54" transform="translate(-16.23 13.46) rotate(-45)"/><polygon class="cls-1" points="10.15 27.6 10.15 27.32 9.2 26.36 8.17 27.39 9.27 28.48 10.15 27.6"/><polygon class="cls-1" points="9.27 28.48 10.15 29.36 10.15 27.6 9.27 28.48"/><polygon class="cls-1" points="0.15 19.36 0.15 20.13 0.53 19.75 0.15 19.36"/><polygon class="cls-1" points="1.62 20.84 0.53 19.75 0.15 20.13 0.15 21.42 0.6 21.86 1.62 20.84"/><polygon class="cls-1" points="1.62 20.84 0.6 21.86 1.69 22.96 2.72 21.93 1.62 20.84"/><rect class="cls-1" x="2.02" y="22.22" width="1.46" height="1.54" transform="translate(-15.45 8.67) rotate(-45)"/><rect class="cls-1" x="3.11" y="23.31" width="1.46" height="1.54" transform="translate(-15.9 9.76) rotate(-45)"/><rect class="cls-1" x="4.2" y="24.4" width="1.46" height="1.54" transform="translate(-16.35 10.85) rotate(-45)"/><polygon class="cls-1" points="5.99 25.2 4.96 26.23 6.06 27.32 7.08 26.3 5.99 25.2"/><rect class="cls-1" x="6.39" y="26.58" width="1.44" height="1.54" transform="translate(-17.26 13.04) rotate(-45)"/><polygon class="cls-1" points="8.17 27.39 7.15 28.41 8.24 29.51 9.27 28.48 8.17 27.39"/><polygon class="cls-1" points="10.15 29.78 10.15 29.36 9.27 28.48 8.24 29.51 9.33 30.6 10.15 29.78"/><polygon class="cls-1" points="9.33 30.6 10.15 31.42 10.15 29.78 9.33 30.6"/><polygon class="cls-1" points="0.15 21.42 0.15 22.31 0.6 21.86 0.15 21.42"/><polygon class="cls-1" points="1.69 22.96 0.6 21.86 0.15 22.31 0.15 23.46 0.67 23.98 1.69 22.96"/><rect class="cls-1" x="1" y="23.24" width="1.44" height="1.54" transform="translate(-16.47 8.25) rotate(-45)"/><rect class="cls-1" x="2.09" y="24.33" width="1.44" height="1.54" transform="translate(-16.93 9.34) rotate(-45)"/><rect class="cls-1" x="3.18" y="25.42" width="1.44" height="1.54" transform="translate(-17.38 10.43) rotate(-45)"/><polygon class="cls-1" points="6.06 27.32 4.96 26.23 3.94 27.25 5.03 28.35 6.06 27.32"/><rect class="cls-1" x="5.36" y="27.61" width="1.46" height="1.54" transform="translate(-18.28 12.61) rotate(-45)"/><polygon class="cls-1" points="8.24 29.51 7.15 28.41 6.12 29.44 7.22 30.53 8.24 29.51"/><rect class="cls-1" x="7.55" y="29.79" width="1.44" height="1.54" transform="translate(-19.19 14.8) rotate(-45)"/><polygon class="cls-1" points="10.15 31.96 10.15 31.42 9.33 30.6 8.31 31.62 9.4 32.71 10.15 31.96"/><polygon class="cls-1" points="9.4 32.71 10.15 33.46 10.15 31.96 9.4 32.71"/><polygon class="cls-1" points="0.15 23.46 0.15 24.5 0.67 23.98 0.15 23.46"/><polygon class="cls-1" points="1.76 25.07 0.67 23.98 0.15 24.5 0.15 25.51 0.74 26.1 1.76 25.07"/><polygon class="cls-1" points="1.76 25.07 0.74 26.1 1.83 27.19 2.85 26.16 1.76 25.07"/><polygon class="cls-1" points="3.94 27.25 2.85 26.16 1.83 27.19 2.92 28.28 3.94 27.25"/><rect class="cls-1" x="3.25" y="27.54" width="1.45" height="1.55" transform="translate(-18.94 11.21) rotate(-45.28)"/><rect class="cls-1" x="4.34" y="28.63" width="1.44" height="1.54" transform="translate(-19.31 12.19) rotate(-45)"/><rect class="cls-1" x="5.43" y="29.72" width="1.45" height="1.55" transform="translate(-19.76 13.28) rotate(-45)"/><polygon class="cls-1" points="8.31 31.62 7.22 30.53 6.2 31.56 7.29 32.65 8.31 31.62"/><polygon class="cls-1" points="8.31 31.62 7.29 32.65 8.38 33.74 9.4 32.71 8.31 31.62"/><polygon class="cls-1" points="10.15 34.14 10.15 33.46 9.4 32.71 8.38 33.74 9.47 34.83 10.15 34.14"/><polygon class="cls-1" points="9.47 34.83 10.15 35.51 10.15 34.14 9.47 34.83"/><polygon class="cls-1" points="0.15 25.51 0.15 26.68 0.74 26.1 0.15 25.51"/><polygon class="cls-1" points="1.83 27.19 0.74 26.1 0.15 26.68 0.15 27.56 0.8 28.21 1.83 27.19"/><polygon class="cls-1" points="1.83 27.19 0.8 28.21 1.89 29.3 2.92 28.28 1.83 27.19"/><rect class="cls-1" x="2.22" y="28.56" width="1.45" height="1.55" transform="translate(-19.88 10.68) rotate(-45)"/><rect class="cls-1" x="3.31" y="29.66" width="1.46" height="1.54" transform="translate(-20.33 11.77) rotate(-45)"/><rect class="cls-1" x="4.4" y="30.74" width="1.45" height="1.55" transform="translate(-20.79 12.86) rotate(-45)"/><polygon class="cls-1" points="6.2 31.56 5.17 32.58 6.26 33.67 7.29 32.65 6.2 31.56"/><polygon class="cls-1" points="8.38 33.74 7.29 32.65 6.26 33.67 7.35 34.76 8.38 33.74"/><polygon class="cls-1" points="8.38 33.74 7.35 34.76 8.44 35.85 9.47 34.83 8.38 33.74"/><polygon class="cls-1" points="10.15 36.33 10.15 35.51 9.47 34.83 8.44 35.85 9.53 36.95 10.15 36.33"/><polygon class="cls-1" points="9.53 36.95 10.15 37.57 10.15 36.33 9.53 36.95"/><polygon class="cls-1" points="0.15 27.56 0.15 28.86 0.8 28.21 0.15 27.56"/><polygon class="cls-1" points="1.89 29.3 0.8 28.21 0.15 28.86 0.15 29.61 0.87 30.33 1.89 29.3"/><rect class="cls-1" x="1.2" y="29.59" width="1.45" height="1.55" transform="translate(-21 10.36) rotate(-45.28)"/><rect class="cls-1" x="2.29" y="30.68" width="1.44" height="1.54" transform="translate(-21.36 11.34) rotate(-45)"/><rect class="cls-1" x="3.38" y="31.77" width="1.45" height="1.55" transform="translate(-21.81 12.44) rotate(-45)"/><polygon class="cls-1" points="6.26 33.67 5.17 32.58 4.15 33.61 5.24 34.7 6.26 33.67"/><polygon class="cls-1" points="6.26 33.67 5.24 34.7 6.33 35.79 7.35 34.76 6.26 33.67"/><polygon class="cls-1" points="8.44 35.85 7.35 34.76 6.33 35.79 7.42 36.88 8.44 35.85"/><rect class="cls-1" x="7.75" y="36.14" width="1.45" height="1.55" transform="translate(-23.72 16.96) rotate(-45.28)"/><polygon class="cls-1" points="10.15 38.51 10.15 37.57 9.53 36.95 8.51 37.97 9.6 39.06 10.15 38.51"/><polygon class="cls-1" points="9.6 39.06 10.15 39.61 10.15 38.51 9.6 39.06"/><polygon class="cls-1" points="0.15 29.61 0.15 31.04 0.87 30.33 0.15 29.61"/><polygon class="cls-1" points="1.96 31.42 0.87 30.33 0.15 31.04 0.15 31.66 0.94 32.45 1.96 31.42"/><polygon class="cls-1" points="1.96 31.42 0.94 32.45 2.03 33.54 3.05 32.51 1.96 31.42"/><polygon class="cls-1" points="4.15 33.61 3.05 32.51 2.03 33.54 3.12 34.63 4.15 33.61"/><polygon class="cls-1" points="4.15 33.61 3.12 34.63 4.21 35.72 5.24 34.7 4.15 33.61"/><polygon class="cls-1" points="6.33 35.79 5.24 34.7 4.21 35.72 5.3 36.81 6.33 35.79"/><polygon class="cls-1" points="6.33 35.79 5.3 36.81 6.39 37.9 7.42 36.88 6.33 35.79"/><polygon class="cls-1" points="8.51 37.97 7.42 36.88 6.39 37.9 7.49 39 8.51 37.97"/><polygon class="cls-1" points="8.51 37.97 7.49 39 8.58 40.09 9.6 39.06 8.51 37.97"/><polygon class="cls-1" points="10.15 40.69 10.15 39.61 9.6 39.06 8.58 40.09 9.67 41.18 10.15 40.69"/><polygon class="cls-1" points="10.15 40.69 9.67 41.18 10.15 41.66 10.15 40.69"/><polygon class="cls-1" points="0.15 31.66 0.15 33.23 0.94 32.45 0.15 31.66"/><polygon class="cls-1" points="2.03 33.54 0.94 32.45 0.15 33.23 0.15 33.71 1 34.56 2.03 33.54"/><polygon class="cls-1" points="2.03 33.54 1 34.56 2.1 35.66 3.12 34.63 2.03 33.54"/><polygon class="cls-1" points="4.21 35.72 3.12 34.63 2.1 35.66 3.19 36.75 4.21 35.72"/><polygon class="cls-1" points="4.21 35.72 3.19 36.75 4.28 37.84 5.3 36.81 4.21 35.72"/><polygon class="cls-1" points="6.39 37.9 5.3 36.81 4.28 37.84 5.37 38.93 6.39 37.9"/><polygon class="cls-1" points="6.39 37.9 5.37 38.93 6.46 40.02 7.49 39 6.39 37.9"/><polygon class="cls-1" points="8.58 40.09 7.49 39 6.46 40.02 7.55 41.11 8.58 40.09"/><polygon class="cls-1" points="9.67 41.18 8.58 40.09 7.55 41.11 8.64 42.2 9.67 41.18"/><polygon class="cls-1" points="10.15 41.66 9.67 41.18 8.64 42.2 9.74 43.3 10.15 42.88 10.15 41.66"/><polygon class="cls-1" points="10.15 42.88 9.74 43.3 10.15 43.71 10.15 42.88"/><polygon class="cls-1" points="0.15 33.71 0.15 35.41 1 34.56 0.15 33.71"/><polygon class="cls-1" points="2.1 35.66 1 34.56 0.15 35.41 0.15 35.76 1.07 36.68 2.1 35.66"/><polygon class="cls-1" points="2.1 35.66 1.07 36.68 2.16 37.77 3.19 36.75 2.1 35.66"/><polygon class="cls-1" points="4.28 37.84 3.19 36.75 2.16 37.77 3.25 38.86 4.28 37.84"/><polygon class="cls-1" points="4.28 37.84 3.25 38.86 4.34 39.95 5.37 38.93 4.28 37.84"/><polygon class="cls-1" points="6.46 40.02 5.37 38.93 4.34 39.95 5.44 41.05 6.46 40.02"/><polygon class="cls-1" points="7.55 41.11 6.46 40.02 5.44 41.05 6.53 42.14 7.55 41.11"/><polygon class="cls-1" points="7.55 41.11 6.53 42.14 7.62 43.23 8.64 42.2 7.55 41.11"/><polygon class="cls-1" points="9.74 43.3 8.64 42.2 7.62 43.23 8.71 44.32 9.74 43.3"/><polygon class="cls-1" points="10.15 43.71 9.74 43.3 8.71 44.32 9.8 45.41 10.15 45.06 10.15 43.71"/><polygon class="cls-1" points="10.15 45.06 9.8 45.41 10.15 45.76 10.15 45.06"/><polygon class="cls-1" points="0.15 35.76 0.15 37.6 1.07 36.68 0.15 35.76"/><polygon class="cls-1" points="2.16 37.77 1.07 36.68 0.15 37.6 0.15 37.81 1.14 38.8 2.16 37.77"/><polygon class="cls-1" points="2.16 37.77 1.14 38.8 2.23 39.89 3.25 38.86 2.16 37.77"/><polygon class="cls-1" points="4.34 39.95 3.25 38.86 2.23 39.89 3.32 40.98 4.34 39.95"/><polygon class="cls-1" points="5.44 41.05 4.34 39.95 3.32 40.98 4.41 42.07 5.44 41.05"/><polygon class="cls-1" points="5.44 41.05 4.41 42.07 5.5 43.16 6.53 42.14 5.44 41.05"/><polygon class="cls-1" points="7.62 43.23 6.53 42.14 5.5 43.16 6.59 44.25 7.62 43.23"/><polygon class="cls-1" points="7.62 43.23 6.59 44.25 7.69 45.35 8.71 44.32 7.62 43.23"/><polygon class="cls-1" points="9.8 45.41 8.71 44.32 7.69 45.35 8.78 46.44 9.8 45.41"/><polygon class="cls-1" points="10.15 45.76 9.8 45.41 8.78 46.44 9.87 47.53 10.15 47.24 10.15 45.76"/><polygon class="cls-1" points="10.15 47.24 9.87 47.53 10.15 47.81 10.15 47.24"/><polygon class="cls-1" points="0.15 37.81 0.15 39.78 1.14 38.8 0.15 37.81"/><polygon class="cls-1" points="2.23 39.89 1.14 38.8 0.15 39.78 0.15 39.86 1.2 40.91 2.23 39.89"/><polygon class="cls-1" points="3.32 40.98 2.23 39.89 1.2 40.91 2.29 42 3.32 40.98"/><polygon class="cls-1" points="3.32 40.98 2.29 42 3.39 43.1 4.41 42.07 3.32 40.98"/><polygon class="cls-1" points="5.5 43.16 4.41 42.07 3.39 43.1 4.48 44.19 5.5 43.16"/><polygon class="cls-1" points="5.5 43.16 4.48 44.19 5.57 45.28 6.59 44.25 5.5 43.16"/><polygon class="cls-1" points="7.69 45.35 6.59 44.25 5.57 45.28 6.66 46.37 7.69 45.35"/><polygon class="cls-1" points="7.69 45.35 6.66 46.37 7.75 47.46 8.78 46.44 7.69 45.35"/><polygon class="cls-1" points="9.87 47.53 8.78 46.44 7.75 47.46 8.84 48.55 9.87 47.53"/><polygon class="cls-1" points="10.15 47.81 9.87 47.53 8.84 48.55 9.93 49.64 10.15 49.42 10.15 47.81"/><polygon class="cls-1" points="10.15 49.42 9.93 49.64 10.15 49.86 10.15 49.42"/><polygon class="cls-1" points="1.2 40.91 0.15 39.86 0.15 41.91 0.18 41.94 1.2 40.91"/><polygon class="cls-1" points="1.2 40.91 0.18 41.94 1.27 43.03 2.29 42 1.2 40.91"/><polygon class="cls-1" points="3.39 43.1 2.29 42 1.27 43.03 2.36 44.12 3.39 43.1"/><polygon class="cls-1" points="3.39 43.1 2.36 44.12 3.45 45.21 4.48 44.19 3.39 43.1"/><polygon class="cls-1" points="5.57 45.28 4.48 44.19 3.45 45.21 4.54 46.3 5.57 45.28"/><polygon class="cls-1" points="5.57 45.28 4.54 46.3 5.64 47.4 6.66 46.37 5.57 45.28"/><polygon class="cls-1" points="7.75 47.46 6.66 46.37 5.64 47.4 6.73 48.49 7.75 47.46"/><polygon class="cls-1" points="7.75 47.46 6.73 48.49 7.82 49.58 8.84 48.55 7.75 47.46"/><polygon class="cls-1" points="9.93 49.64 8.84 48.55 7.82 49.58 8.91 50.67 9.93 49.64"/><polygon class="cls-1" points="10.15 49.86 9.93 49.64 8.91 50.67 10 51.76 10.15 51.61 10.15 49.86"/><polygon class="cls-1" points="10.15 51.61 10 51.76 10.15 51.91 10.15 51.61"/><polygon class="cls-1" points="0.15 41.91 0.15 41.96 0.18 41.94 0.15 41.91"/><polygon class="cls-1" points="1.27 43.03 0.18 41.94 0.15 41.96 0.15 43.96 0.24 44.05 1.27 43.03"/><polygon class="cls-1" points="1.27 43.03 0.24 44.05 1.34 45.15 2.36 44.12 1.27 43.03"/><polygon class="cls-1" points="3.45 45.21 2.36 44.12 1.34 45.15 2.43 46.24 3.45 45.21"/><polygon class="cls-1" points="3.45 45.21 2.43 46.24 3.52 47.33 4.54 46.3 3.45 45.21"/><polygon class="cls-1" points="5.64 47.4 4.54 46.3 3.52 47.33 4.61 48.42 5.64 47.4"/><polygon class="cls-1" points="5.64 47.4 4.61 48.42 5.7 49.51 6.73 48.49 5.64 47.4"/><polygon class="cls-1" points="7.82 49.58 6.73 48.49 5.7 49.51 6.79 50.6 7.82 49.58"/><polygon class="cls-1" points="7.82 49.58 6.79 50.6 7.88 51.69 8.91 50.67 7.82 49.58"/><polygon class="cls-1" points="10 51.76 8.91 50.67 7.88 51.69 8.98 52.79 10 51.76"/><polygon class="cls-1" points="10.15 51.91 10 51.76 8.98 52.79 10.07 53.88 10.15 53.79 10.15 51.91"/><polygon class="cls-1" points="10.15 53.79 10.07 53.88 10.15 53.96 10.15 53.79"/><polygon class="cls-1" points="0.15 43.96 0.15 44.14 0.24 44.05 0.15 43.96"/><polygon class="cls-1" points="1.34 45.15 0.24 44.05 0.15 44.14 0.15 46.01 0.31 46.17 1.34 45.15"/><polygon class="cls-1" points="1.34 45.15 0.31 46.17 1.4 47.26 2.43 46.24 1.34 45.15"/><polygon class="cls-1" points="3.52 47.33 2.43 46.24 1.4 47.26 2.49 48.35 3.52 47.33"/><polygon class="cls-1" points="3.52 47.33 2.49 48.35 3.59 49.45 4.61 48.42 3.52 47.33"/><polygon class="cls-1" points="5.7 49.51 4.61 48.42 3.59 49.45 4.68 50.54 5.7 49.51"/><polygon class="cls-1" points="5.7 49.51 4.68 50.54 5.77 51.63 6.79 50.6 5.7 49.51"/><polygon class="cls-1" points="7.88 51.69 6.79 50.6 5.77 51.63 6.86 52.72 7.88 51.69"/><polygon class="cls-1" points="7.88 51.69 6.86 52.72 7.95 53.81 8.98 52.79 7.88 51.69"/><polygon class="cls-1" points="10.07 53.88 8.98 52.79 7.95 53.81 9.04 54.9 10.07 53.88"/><polygon class="cls-1" points="10.15 53.96 10.07 53.88 9.04 54.9 10.14 56 10.15 55.98 10.15 53.96"/><polygon class="cls-1" points="0.15 46.01 0.15 46.33 0.31 46.17 0.15 46.01"/><polygon class="cls-1" points="1.4 47.26 0.31 46.17 0.15 46.33 0.15 48.05 0.38 48.28 1.4 47.26"/><rect class="cls-1" x="0.71" y="47.54" width="1.44" height="1.54" transform="translate(-33.74 15.16) rotate(-45)"/><rect class="cls-1" x="1.8" y="48.63" width="1.45" height="1.55" transform="translate(-34.2 16.25) rotate(-45)"/><polygon class="cls-1" points="3.59 49.45 2.56 50.47 3.65 51.56 4.68 50.54 3.59 49.45"/><polygon class="cls-1" points="5.77 51.63 4.68 50.54 3.65 51.56 4.74 52.65 5.77 51.63"/><polygon class="cls-1" points="5.77 51.63 4.74 52.65 5.83 53.74 6.86 52.72 5.77 51.63"/><rect class="cls-1" x="6.17" y="53" width="1.45" height="1.55" transform="translate(-36.01 20.62) rotate(-45)"/><rect class="cls-1" x="7.26" y="54.09" width="1.44" height="1.54" transform="translate(-36.46 21.71) rotate(-45)"/><rect class="cls-1" x="8.35" y="55.18" width="1.45" height="1.55" transform="translate(-36.91 22.81) rotate(-45)"/><polygon class="cls-1" points="10.14 56 9.11 57.02 10.15 58.05 10.15 56.01 10.14 56"/><polygon class="cls-1" points="0.15 48.05 0.15 48.51 0.38 48.28 0.15 48.05"/><polygon class="cls-1" points="1.47 49.37 0.38 48.28 0.15 48.51 0.15 50.11 0.44 50.4 1.47 49.37"/><rect class="cls-1" x="0.77" y="49.66" width="1.45" height="1.55" transform="translate(-35.22 15.83) rotate(-45)"/><polygon class="cls-1" points="3.65 51.56 2.56 50.47 1.54 51.5 2.63 52.59 3.65 51.56"/><polygon class="cls-1" points="3.65 51.56 2.63 52.59 3.72 53.68 4.74 52.65 3.65 51.56"/><polygon class="cls-1" points="5.83 53.74 4.74 52.65 3.72 53.68 4.81 54.77 5.83 53.74"/><rect class="cls-1" x="5.14" y="54.02" width="1.45" height="1.55" transform="translate(-37.2 20.41) rotate(-45.28)"/><rect class="cls-1" x="6.23" y="55.12" width="1.46" height="1.54" transform="translate(-37.48 21.29) rotate(-45)"/><rect class="cls-1" x="7.32" y="56.21" width="1.45" height="1.55" transform="translate(-37.94 22.38) rotate(-45)"/><polygon class="cls-1" points="10.15 58.16 10.15 58.05 9.11 57.02 8.09 58.05 9.18 59.14 10.15 58.16"/><polygon class="cls-1" points="9.18 59.14 10.15 60.11 10.15 58.16 9.18 59.14"/><polygon class="cls-1" points="0.15 50.11 0.15 50.69 0.44 50.4 0.15 50.11"/><polygon class="cls-1" points="1.54 51.5 0.44 50.4 0.15 50.69 0.15 52.15 0.51 52.52 1.54 51.5"/><polygon class="cls-1" points="1.54 51.5 0.51 52.52 1.6 53.61 2.63 52.59 1.54 51.5"/><polygon class="cls-1" points="3.72 53.68 2.63 52.59 1.6 53.61 2.69 54.7 3.72 53.68"/><polygon class="cls-1" points="3.72 53.68 2.69 54.7 3.78 55.79 4.81 54.77 3.72 53.68"/><rect class="cls-1" x="4.12" y="55.05" width="1.45" height="1.55" transform="translate(-38.06 19.77) rotate(-45)"/><rect class="cls-1" x="5.21" y="56.14" width="1.44" height="1.54" transform="translate(-38.51 20.86) rotate(-45)"/><rect class="cls-1" x="6.3" y="57.23" width="1.45" height="1.55" transform="translate(-38.96 21.96) rotate(-45)"/><polygon class="cls-1" points="8.09 58.05 7.06 59.07 8.15 60.16 9.18 59.14 8.09 58.05"/><polygon class="cls-1" points="10.15 60.34 10.15 60.11 9.18 59.14 8.15 60.16 9.24 61.25 10.15 60.34"/><polygon class="cls-1" points="10.15 62.15 10.15 60.34 9.24 61.25 10.15 62.15"/><polygon class="cls-1" points="0.15 52.15 0.15 52.88 0.51 52.52 0.15 52.15"/><polygon class="cls-1" points="1.6 53.61 0.51 52.52 0.15 52.88 0.15 54.21 0.58 54.63 1.6 53.61"/><rect class="cls-1" x="0.91" y="53.89" width="1.44" height="1.54" transform="translate(-38.17 17.16) rotate(-45)"/><rect class="cls-1" x="2" y="54.98" width="1.44" height="1.54" transform="translate(-38.63 18.25) rotate(-45)"/><polygon class="cls-1" points="3.78 55.79 2.76 56.81 3.85 57.91 4.88 56.88 3.78 55.79"/><rect class="cls-1" x="4.18" y="57.17" width="1.46" height="1.54" transform="translate(-39.53 20.44) rotate(-45)"/><polygon class="cls-1" points="5.97 57.97 4.94 59 6.04 60.09 7.06 59.07 5.97 57.97"/><rect class="cls-1" x="6.37" y="59.35" width="1.44" height="1.54" transform="translate(-40.44 22.62) rotate(-45)"/><rect class="cls-1" x="7.46" y="60.44" width="1.44" height="1.54" transform="translate(-40.89 23.72) rotate(-45)"/><polygon class="cls-1" points="9.24 61.25 8.22 62.27 9.31 63.36 10.15 62.52 10.15 62.15 9.24 61.25"/><polygon class="cls-1" points="10.15 64.21 10.15 62.52 9.31 63.36 10.15 64.21"/><polygon class="cls-1" points="0.15 54.21 0.15 55.06 0.58 54.63 0.15 54.21"/><polygon class="cls-1" points="1.67 55.72 0.58 54.63 0.15 55.06 0.15 56.25 0.64 56.75 1.67 55.72"/><rect class="cls-1" x="0.97" y="56.01" width="1.46" height="1.54" transform="translate(-39.65 17.83) rotate(-45)"/><polygon class="cls-1" points="3.85 57.91 2.76 56.81 1.73 57.84 2.83 58.93 3.85 57.91"/><rect class="cls-1" x="3.16" y="58.19" width="1.44" height="1.54" transform="translate(-40.56 20.01) rotate(-45)"/><polygon class="cls-1" points="6.04 60.09 4.94 59 3.92 60.02 5.01 61.12 6.04 60.09"/><rect class="cls-1" x="5.34" y="60.38" width="1.46" height="1.54" transform="translate(-41.46 22.2) rotate(-45)"/><rect class="cls-1" x="6.43" y="61.47" width="1.46" height="1.54" transform="translate(-41.91 23.29) rotate(-45)"/><rect class="cls-1" x="7.52" y="62.56" width="1.46" height="1.54" transform="translate(-42.36 24.38) rotate(-45)"/><polygon class="cls-1" points="9.31 63.36 8.28 64.39 9.38 65.48 10.15 64.71 10.15 64.21 9.31 63.36"/><polygon class="cls-1" points="10.15 66.25 10.15 64.71 9.38 65.48 10.15 66.25"/><polygon class="cls-1" points="0.15 56.25 0.15 57.24 0.64 56.75 0.15 56.25"/><polygon class="cls-1" points="1.73 57.84 0.64 56.75 0.15 57.24 0.15 58.31 0.71 58.86 1.73 57.84"/><polygon class="cls-1" points="1.73 57.84 0.71 58.86 1.8 59.96 2.83 58.93 1.73 57.84"/><rect class="cls-1" x="2.13" y="59.22" width="1.46" height="1.54" transform="translate(-41.58 19.59) rotate(-45)"/><polygon class="cls-1" points="3.92 60.02 2.89 61.05 3.99 62.14 5.01 61.12 3.92 60.02"/><rect class="cls-1" x="4.32" y="61.4" width="1.44" height="1.54" transform="translate(-42.48 21.77) rotate(-45)"/><rect class="cls-1" x="5.41" y="62.49" width="1.44" height="1.54" transform="translate(-42.94 22.86) rotate(-45)"/><rect class="cls-1" x="6.5" y="63.58" width="1.44" height="1.54" transform="translate(-43.39 23.96) rotate(-45)"/><polygon class="cls-1" points="8.28 64.39 7.26 65.41 8.35 66.51 9.38 65.48 8.28 64.39"/><polygon class="cls-1" points="9.38 65.48 8.35 66.51 9.44 67.6 10.15 66.89 10.15 66.25 9.38 65.48"/><polygon class="cls-1" points="10.15 68.31 10.15 66.89 9.44 67.6 10.15 68.31"/><polygon class="cls-1" points="0.15 58.31 0.15 59.42 0.71 58.86 0.15 58.31"/><polygon class="cls-1" points="1.8 59.96 0.71 58.86 0.15 59.42 0.15 60.35 0.78 60.98 1.8 59.96"/><rect class="cls-1" x="1.11" y="60.24" width="1.44" height="1.54" transform="translate(-42.6 19.16) rotate(-45)"/><polygon class="cls-1" points="3.99 62.14 2.89 61.05 1.87 62.07 2.96 63.17 3.99 62.14"/><rect class="cls-1" x="3.29" y="62.43" width="1.46" height="1.54" transform="translate(-43.51 21.35) rotate(-45)"/><rect class="cls-1" x="4.38" y="63.52" width="1.46" height="1.54" transform="translate(-43.96 22.44) rotate(-45)"/><rect class="cls-1" x="5.47" y="64.61" width="1.46" height="1.54" transform="translate(-44.41 23.53) rotate(-45)"/><polygon class="cls-1" points="6.23 66.44 7.33 67.53 8.35 66.51 7.26 65.41 6.23 66.44"/><rect class="cls-1" x="7.66" y="66.79" width="1.44" height="1.54" transform="translate(-45.32 25.72) rotate(-45)"/><polygon class="cls-1" points="9.44 67.6 8.42 68.62 9.51 69.71 10.15 69.07 10.15 68.31 9.44 67.6"/><polygon class="cls-1" points="9.51 69.71 9.93 70.13 10.15 70.13 10.15 69.07 9.51 69.71"/><polygon class="cls-1" points="0.15 60.35 0.15 61.61 0.78 60.98 0.15 60.35"/><polygon class="cls-1" points="1.87 62.07 0.78 60.98 0.15 61.61 0.15 62.41 0.84 63.1 1.87 62.07"/><polygon class="cls-1" points="1.87 62.07 0.84 63.1 1.94 64.19 2.96 63.17 1.87 62.07"/><rect class="cls-1" x="2.27" y="63.45" width="1.44" height="1.54" transform="translate(-44.54 20.93) rotate(-45)"/><rect class="cls-1" x="3.36" y="64.54" width="1.44" height="1.54" transform="translate(-44.99 22.02) rotate(-45)"/><rect class="cls-1" x="4.45" y="65.63" width="1.44" height="1.54" transform="translate(-45.44 23.1) rotate(-45)"/><polygon class="cls-1" points="6.23 66.44 5.21 67.46 6.3 68.56 7.33 67.53 6.23 66.44"/><rect class="cls-1" x="6.63" y="67.82" width="1.46" height="1.54" transform="translate(-46.34 25.29) rotate(-45)"/><polygon class="cls-1" points="8.42 68.62 7.39 69.65 7.87 70.13 9.09 70.13 9.51 69.71 8.42 68.62"/><polygon class="cls-1" points="9.09 70.13 9.93 70.13 9.51 69.71 9.09 70.13"/><polygon class="cls-1" points="0.15 62.41 0.15 63.79 0.84 63.1 0.15 62.41"/><polygon class="cls-1" points="1.94 64.19 0.84 63.1 0.15 63.79 0.15 64.45 0.92 65.22 1.94 64.19"/><polygon class="cls-1" points="1.94 64.19 0.92 65.22 2.01 66.31 3.03 65.28 1.94 64.19"/><polygon class="cls-1" points="4.12 66.37 3.03 65.28 2.01 66.31 3.1 67.4 4.12 66.37"/><polygon class="cls-1" points="4.12 66.37 3.1 67.4 4.19 68.49 5.21 67.46 4.12 66.37"/><rect class="cls-1" x="4.52" y="67.75" width="1.45" height="1.55" transform="translate(-46.91 23.77) rotate(-45)"/><polygon class="cls-1" points="6.3 68.56 5.28 69.58 5.83 70.13 6.91 70.13 7.39 69.65 6.3 68.56"/><polygon class="cls-1" points="6.91 70.13 7.87 70.13 7.39 69.65 6.91 70.13"/><polygon class="cls-1" points="0.15 64.45 0.15 65.98 0.92 65.22 0.15 64.45"/><polygon class="cls-1" points="2.01 66.31 0.92 65.22 0.15 65.98 0.15 66.51 0.98 67.33 2.01 66.31"/><polygon class="cls-1" points="2.01 66.31 0.98 67.33 2.07 68.42 3.1 67.4 2.01 66.31"/><polygon class="cls-1" points="2.07 68.42 3.16 69.51 4.19 68.49 3.1 67.4 2.07 68.42"/><polygon class="cls-1" points="4.19 68.49 3.16 69.51 3.77 70.13 4.73 70.13 5.28 69.58 4.19 68.49"/><polygon class="cls-1" points="4.73 70.13 5.83 70.13 5.28 69.58 4.73 70.13"/><polygon class="cls-1" points="0.15 66.51 0.15 68.16 0.98 67.33 0.15 66.51"/><polygon class="cls-1" points="2.07 68.42 0.98 67.33 0.15 68.16 0.15 68.55 1.05 69.45 2.07 68.42"/><polygon class="cls-1" points="2.07 68.42 1.05 69.45 1.73 70.13 2.54 70.13 3.16 69.51 2.07 68.42"/><polygon class="cls-1" points="2.54 70.13 3.77 70.13 3.16 69.51 2.54 70.13"/><polygon class="cls-1" points="0.15 68.55 0.15 70.13 0.36 70.13 1.05 69.45 0.15 68.55"/><polygon class="cls-1" points="0.36 70.13 1.73 70.13 1.05 69.45 0.36 70.13"/></g></g></svg>