<svg xmlns="http://www.w3.org/2000/svg" viewBox="0 0 71 101"><defs><style>.cls-1,.cls-2{fill:none;stroke:#000;stroke-miterlimit:10;}.cls-2{stroke-width:0.25px;}</style></defs><title>Artboard3</title><g id="Layer_2" data-name="Layer 2"><g id="Layer_1-2" data-name="Layer 1"><path class="cls-1" d="M65.5.5h0a5,5,0,0,1,5,5v95a0,0,0,0,1,0,0h-10a0,0,0,0,1,0,0V5.5a5,5,0,0,1,5-5Z"/><path class="cls-1" d="M.5,20.5h10a0,0,0,0,1,0,0v75a5,5,0,0,1-5,5h0a5,5,0,0,1-5-5v-75A0,0,0,0,1,.5,20.5Z" transform="translate(11 121) rotate(180)"/><path class="cls-1" d="M20.5,10.5h10a0,0,0,0,1,0,0v85a5,5,0,0,1-5,5h0a5,5,0,0,1-5-5v-85A0,0,0,0,1,20.5,10.5Z" transform="translate(51 111) rotate(180)"/><path class="cls-1" d="M40.5,50.5h10a0,0,0,0,1,0,0v45a5,5,0,0,1-5,5h0a5,5,0,0,1-5-5v-45a0,0,0,0,1,0,0Z" transform="translate(91 151) rotate(180)"/><path class="cls-2" d="M57.28,60.83a4.87,4.87,0,0,0-1.67-.33l1,1Z"/><path class="cls-2" d="M57.7,62.59l1-1a4.93,4.93,0,0,0-1.39-.8l-.67.67Z"/><path class="cls-2" d="M58.8,63.69l.89-.9A4.38,4.38,0,0,0,59,62q-.18-.18-.36-.33l-1,1Z"/><path class="cls-2" d="M59.89,64.78l.46-.47a4.59,4.59,0,0,0-.66-1.52l-.89.9Z"/><path class="cls-2" d="M60.49,65.38a4.18,4.18,0,0,0-.14-1.07l-.46.47Z"/><path class="cls-2" d="M55.43,60.5a4.91,4.91,0,0,0-1.58.29l.65.65Z"/><polygon class="cls-2" points="55.59 62.53 56.61 61.5 55.61 60.5 55.43 60.5 54.5 61.44 55.59 62.53"/><polygon class="cls-2" points="57.7 62.59 56.61 61.5 55.59 62.53 56.68 63.62 57.7 62.59"/><polygon class="cls-2" points="57.77 64.71 58.8 63.69 57.7 62.59 56.68 63.62 57.77 64.71"/><polygon class="cls-2" points="57.77 64.71 58.86 65.8 59.89 64.78 58.8 63.69 57.77 64.71"/><path class="cls-2" d="M60.49,65.38l-.6-.6-1,1L60,66.89l.55-.55V65.5A.49.49,0,0,0,60.49,65.38Z"/><polygon class="cls-2" points="60.5 67.44 60.5 66.34 59.95 66.89 60.5 67.44"/><path class="cls-2" d="M54.5,61.44l-.65-.65a4.49,4.49,0,0,0-1.33.71l.95,1Z"/><polygon class="cls-2" points="55.59 62.53 54.5 61.44 53.47 62.46 54.56 63.55 55.59 62.53"/><rect class="cls-2" x="54.9" y="62.81" width="1.45" height="1.55" transform="translate(-28.67 57.96) rotate(-45)"/><rect class="cls-2" x="55.99" y="63.9" width="1.44" height="1.54" transform="translate(-29.12 59.05) rotate(-45)"/><rect class="cls-2" x="57.08" y="64.99" width="1.44" height="1.54" transform="translate(-29.57 60.14) rotate(-45)"/><rect class="cls-2" x="58.17" y="66.08" width="1.44" height="1.54" transform="translate(-30.02 61.22) rotate(-45)"/><polygon class="cls-2" points="58.93 67.91 60.02 69.01 60.5 68.53 60.5 67.44 59.95 66.89 58.93 67.91"/><polygon class="cls-2" points="60.5 69.48 60.5 68.53 60.02 69.01 60.5 69.48"/><path class="cls-2" d="M53.47,62.46l-.95-1a4.38,4.38,0,0,0-1,1l1,1Z"/><polygon class="cls-2" points="54.56 63.55 53.47 62.46 52.45 63.49 53.54 64.58 54.56 63.55"/><rect class="cls-2" x="53.87" y="63.84" width="1.45" height="1.55" transform="translate(-29.73 57.94) rotate(-45.28)"/><rect class="cls-2" x="54.96" y="64.93" width="1.46" height="1.54" transform="translate(-30.15 58.62) rotate(-45)"/><rect class="cls-2" x="56.05" y="66.02" width="1.46" height="1.54" transform="translate(-30.6 59.71) rotate(-45)"/><rect class="cls-2" x="57.14" y="67.11" width="1.46" height="1.54" transform="translate(-31.05 60.8) rotate(-45)"/><rect class="cls-2" x="58.24" y="68.2" width="1.45" height="1.55" transform="translate(-31.54 62.33) rotate(-45.28)"/><polygon class="cls-2" points="59 70.04 60.09 71.13 60.5 70.71 60.5 69.48 60.02 69.01 59 70.04"/><polygon class="cls-2" points="60.5 71.54 60.5 70.71 60.09 71.13 60.5 71.54"/><path class="cls-2" d="M52.45,63.49l-1-1a4.79,4.79,0,0,0-.71,1.34l.64.64Z"/><polygon class="cls-2" points="52.45 63.49 51.42 64.51 52.51 65.6 53.54 64.58 52.45 63.49"/><rect class="cls-2" x="52.85" y="64.86" width="1.45" height="1.55" transform="translate(-30.72 57.11) rotate(-45)"/><rect class="cls-2" x="53.94" y="65.95" width="1.44" height="1.54" transform="translate(-31.17 58.2) rotate(-45)"/><rect class="cls-2" x="55.03" y="67.04" width="1.44" height="1.54" transform="translate(-31.62 59.29) rotate(-45)"/><rect class="cls-2" x="56.12" y="68.13" width="1.44" height="1.54" transform="translate(-32.07 60.38) rotate(-45)"/><rect class="cls-2" x="57.21" y="69.22" width="1.45" height="1.55" transform="translate(-32.49 61.06) rotate(-44.74)"/><polygon class="cls-2" points="59.06 72.15 60.09 71.13 59 70.04 57.97 71.06 59.06 72.15"/><polygon class="cls-2" points="59.06 72.15 60.16 73.24 60.5 72.9 60.5 71.54 60.09 71.13 59.06 72.15"/><polygon class="cls-2" points="60.5 73.58 60.5 72.9 60.16 73.24 60.5 73.58"/><path class="cls-2" d="M50.78,63.87a4.74,4.74,0,0,0-.28,1.56l.92-.92Z"/><polygon class="cls-2" points="51.49 66.62 52.51 65.6 51.42 64.51 50.5 65.43 50.5 65.64 51.49 66.62"/><rect class="cls-2" x="51.82" y="65.88" width="1.45" height="1.55" transform="translate(-31.79 57.06) rotate(-45.26)"/><rect class="cls-2" x="52.91" y="66.97" width="1.45" height="1.55" transform="translate(-32.19 57.77) rotate(-45)"/><rect class="cls-2" x="54" y="68.07" width="1.46" height="1.54" transform="translate(-32.65 58.86) rotate(-45)"/><rect class="cls-2" x="55.09" y="69.16" width="1.46" height="1.54" transform="translate(-33.1 59.96) rotate(-45)"/><polygon class="cls-2" points="56.95 72.08 57.97 71.06 56.88 69.96 55.85 70.99 56.95 72.08"/><rect class="cls-2" x="57.28" y="71.34" width="1.44" height="1.54" transform="translate(-34 62.14) rotate(-45)"/><polygon class="cls-2" points="59.13 74.27 60.16 73.24 59.06 72.15 58.04 73.17 59.13 74.27"/><polygon class="cls-2" points="59.13 74.27 60.22 75.36 60.5 75.08 60.5 73.58 60.16 73.24 59.13 74.27"/><polygon class="cls-2" points="60.5 75.64 60.5 75.08 60.22 75.36 60.5 75.64"/><polygon class="cls-2" points="51.49 66.62 50.5 65.64 50.5 67.61 51.49 66.62"/><polygon class="cls-2" points="50.5 67.61 50.46 67.65 50.5 67.68 50.5 67.61"/><polygon class="cls-2" points="50.5 67.68 51.55 68.74 52.58 67.71 51.49 66.62 50.5 67.61 50.5 67.68"/><polygon class="cls-2" points="53.67 68.81 52.58 67.71 51.55 68.74 52.65 69.83 53.67 68.81"/><rect class="cls-2" x="52.98" y="69.09" width="1.44" height="1.54" transform="translate(-33.67 58.44) rotate(-45)"/><rect class="cls-2" x="54.07" y="70.18" width="1.44" height="1.54" transform="translate(-34.12 59.53) rotate(-45)"/><polygon class="cls-2" points="54.83 72.01 55.92 73.11 56.95 72.08 55.85 70.99 54.83 72.01"/><rect class="cls-2" x="56.25" y="72.37" width="1.46" height="1.54" transform="translate(-35.03 61.71) rotate(-45)"/><polygon class="cls-2" points="57.01 74.2 58.11 75.29 59.13 74.27 58.04 73.17 57.01 74.2"/><rect class="cls-2" x="58.44" y="74.55" width="1.44" height="1.54" transform="translate(-35.93 63.9) rotate(-45)"/><polygon class="cls-2" points="59.2 76.38 60.29 77.47 60.5 77.26 60.5 75.64 60.22 75.36 59.2 76.38"/><polygon class="cls-2" points="60.5 77.68 60.5 77.26 60.29 77.47 60.5 77.68"/><polygon class="cls-2" points="50.53 69.76 51.55 68.74 50.5 67.68 50.5 69.74 50.53 69.76"/><polygon class="cls-2" points="51.62 70.86 52.65 69.83 51.55 68.74 50.53 69.76 51.62 70.86"/><rect class="cls-2" x="51.95" y="70.12" width="1.46" height="1.54" transform="translate(-34.7 58.01) rotate(-45)"/><rect class="cls-2" x="53.04" y="71.21" width="1.46" height="1.54" transform="translate(-35.15 59.11) rotate(-45)"/><polygon class="cls-2" points="54.9 74.13 55.92 73.11 54.83 72.01 53.8 73.04 54.9 74.13"/><rect class="cls-2" x="55.23" y="73.39" width="1.44" height="1.54" transform="translate(-36.05 61.29) rotate(-45)"/><polygon class="cls-2" points="57.08 76.32 58.11 75.29 57.01 74.2 55.99 75.22 57.08 76.32"/><rect class="cls-2" x="57.41" y="75.58" width="1.46" height="1.54" transform="translate(-36.96 63.48) rotate(-45)"/><rect class="cls-2" x="58.5" y="76.67" width="1.46" height="1.54" transform="translate(-37.41 64.56) rotate(-45)"/><polygon class="cls-2" points="59.26 78.5 60.35 79.59 60.5 79.44 60.5 77.68 60.29 77.47 59.26 78.5"/><polygon class="cls-2" points="60.5 79.74 60.5 79.44 60.35 79.59 60.5 79.74"/><polygon class="cls-2" points="50.53 69.76 50.5 69.74 50.5 69.79 50.53 69.76"/><polygon class="cls-2" points="50.5 71.78 50.6 71.88 51.62 70.86 50.53 69.76 50.5 69.79 50.5 71.78"/><rect class="cls-2" x="50.93" y="71.14" width="1.44" height="1.54" transform="translate(-35.72 57.59) rotate(-45)"/><rect class="cls-2" x="52.02" y="72.23" width="1.45" height="1.55" transform="translate(-36.24 59.11) rotate(-45.28)"/><rect class="cls-2" x="53.11" y="73.33" width="1.45" height="1.55" transform="translate(-36.63 59.77) rotate(-45)"/><rect class="cls-2" x="54.2" y="74.42" width="1.46" height="1.54" transform="translate(-37.08 60.87) rotate(-45)"/><polygon class="cls-2" points="54.96 76.25 56.06 77.34 57.08 76.32 55.99 75.22 54.96 76.25"/><rect class="cls-2" x="56.39" y="76.6" width="1.44" height="1.54" transform="translate(-37.98 63.05) rotate(-45)"/><rect class="cls-2" x="57.48" y="77.69" width="1.44" height="1.54" transform="translate(-38.43 64.14) rotate(-45)"/><rect class="cls-2" x="58.57" y="78.78" width="1.44" height="1.54" transform="translate(-38.89 65.23) rotate(-45)"/><polygon class="cls-2" points="59.33 80.61 60.42 81.71 60.5 81.63 60.5 79.74 60.35 79.59 59.33 80.61"/><polygon class="cls-2" points="60.5 81.78 60.5 81.63 60.42 81.71 60.5 81.78"/><polygon class="cls-2" points="50.6 71.88 50.5 71.78 50.5 71.98 50.6 71.88"/><polygon class="cls-2" points="50.5 73.84 50.66 74 51.69 72.97 50.6 71.88 50.5 71.98 50.5 73.84"/><polygon class="cls-2" points="50.66 74 51.76 75.09 52.78 74.07 51.69 72.97 50.66 74"/><rect class="cls-2" x="52.09" y="74.35" width="1.44" height="1.54" transform="translate(-37.65 59.35) rotate(-45)"/><rect class="cls-2" x="53.18" y="75.44" width="1.44" height="1.54" transform="translate(-38.1 60.44) rotate(-45)"/><polygon class="cls-2" points="55.03 78.37 56.06 77.34 54.96 76.25 53.94 77.27 55.03 78.37"/><rect class="cls-2" x="55.36" y="77.63" width="1.46" height="1.54" transform="translate(-39.01 62.62) rotate(-45)"/><rect class="cls-2" x="56.45" y="78.72" width="1.46" height="1.54" transform="translate(-39.46 63.71) rotate(-45)"/><rect class="cls-2" x="57.54" y="79.81" width="1.46" height="1.54" transform="translate(-39.91 64.8) rotate(-45)"/><polygon class="cls-2" points="59.4 82.73 60.42 81.71 59.33 80.61 58.3 81.64 59.4 82.73"/><polygon class="cls-2" points="59.4 82.73 60.49 83.82 60.5 83.81 60.5 81.78 60.42 81.71 59.4 82.73"/><polygon class="cls-2" points="60.5 83.84 60.5 83.81 60.49 83.82 60.5 83.84"/><polygon class="cls-2" points="50.5 74.16 50.66 74 50.5 73.84 50.5 74.16"/><polygon class="cls-2" points="50.5 75.88 50.73 76.11 51.76 75.09 50.66 74 50.5 74.16 50.5 75.88"/><polygon class="cls-2" points="50.73 76.11 51.83 77.21 52.85 76.18 51.76 75.09 50.73 76.11"/><polygon class="cls-2" points="52.92 78.3 53.94 77.27 52.85 76.18 51.83 77.21 52.92 78.3"/><rect class="cls-2" x="53.25" y="77.56" width="1.45" height="1.55" transform="translate(-39.58 61.11) rotate(-45)"/><rect class="cls-2" x="54.34" y="78.65" width="1.44" height="1.54" transform="translate(-40.03 62.2) rotate(-45)"/><rect class="cls-2" x="55.43" y="79.74" width="1.44" height="1.54" transform="translate(-40.48 63.29) rotate(-45)"/><rect class="cls-2" x="56.52" y="80.83" width="1.44" height="1.54" transform="translate(-40.94 64.38) rotate(-45)"/><rect class="cls-2" x="57.62" y="81.92" width="1.45" height="1.55" transform="translate(-41.39 65.47) rotate(-45)"/><polygon class="cls-2" points="59.47 84.85 60.49 83.82 59.4 82.73 58.38 83.76 59.47 84.85"/><polygon class="cls-2" points="59.47 84.85 60.5 85.88 60.5 83.84 60.49 83.82 59.47 84.85"/><polygon class="cls-2" points="50.5 76.35 50.73 76.11 50.5 75.88 50.5 76.35"/><polygon class="cls-2" points="50.5 77.94 50.8 78.23 51.83 77.21 50.73 76.11 50.5 76.35 50.5 77.94"/><polygon class="cls-2" points="50.8 78.23 51.89 79.32 52.92 78.3 51.83 77.21 50.8 78.23"/><polygon class="cls-2" points="52.98 80.41 54.01 79.39 52.92 78.3 51.89 79.32 52.98 80.41"/><rect class="cls-2" x="53.31" y="79.67" width="1.45" height="1.55" transform="translate(-40.97 61.34) rotate(-44.74)"/><rect class="cls-2" x="54.4" y="80.77" width="1.46" height="1.54" transform="translate(-41.51 62.87) rotate(-45)"/><rect class="cls-2" x="55.49" y="81.86" width="1.46" height="1.54" transform="translate(-41.96 63.95) rotate(-45)"/><rect class="cls-2" x="56.59" y="82.95" width="1.45" height="1.55" transform="translate(-42.32 64.56) rotate(-44.72)"/><polygon class="cls-2" points="57.35 84.78 58.44 85.87 59.47 84.85 58.38 83.76 57.35 84.78"/><polygon class="cls-2" points="58.44 85.87 59.53 86.96 60.5 85.99 60.5 85.88 59.47 84.85 58.44 85.87"/><polygon class="cls-2" points="60.5 87.94 60.5 85.99 59.53 86.96 60.5 87.94"/><polygon class="cls-2" points="50.5 78.53 50.8 78.23 50.5 77.94 50.5 78.53"/><polygon class="cls-2" points="50.5 79.98 50.87 80.35 51.89 79.32 50.8 78.23 50.5 78.53 50.5 79.98"/><polygon class="cls-2" points="50.87 80.35 51.96 81.44 52.98 80.41 51.89 79.32 50.87 80.35"/><rect class="cls-2" x="52.29" y="80.7" width="1.45" height="1.55" transform="translate(-42.08 61.35) rotate(-45)"/><rect class="cls-2" x="53.38" y="81.79" width="1.44" height="1.54" transform="translate(-42.53 62.44) rotate(-45)"/><rect class="cls-2" x="54.47" y="82.88" width="1.44" height="1.54" transform="translate(-42.99 63.53) rotate(-45)"/><rect class="cls-2" x="55.57" y="83.97" width="1.45" height="1.55" transform="translate(-43.44 64.63) rotate(-45)"/><polygon class="cls-2" points="56.33 85.81 57.42 86.9 58.44 85.87 57.35 84.78 56.33 85.81"/><polygon class="cls-2" points="58.51 87.99 59.53 86.96 58.44 85.87 57.42 86.9 58.51 87.99"/><polygon class="cls-2" points="58.51 87.99 59.6 89.08 60.5 88.17 60.5 87.94 59.53 86.96 58.51 87.99"/><polygon class="cls-2" points="60.5 89.98 60.5 88.17 59.6 89.08 60.5 89.98"/><polygon class="cls-2" points="50.5 80.71 50.87 80.35 50.5 79.98 50.5 80.71"/><polygon class="cls-2" points="50.5 82.03 50.93 82.46 51.96 81.44 50.87 80.35 50.5 80.71 50.5 82.03"/><polygon class="cls-2" points="50.93 82.46 52.03 83.56 53.05 82.53 51.96 81.44 50.93 82.46"/><polygon class="cls-2" points="53.12 84.65 54.14 83.62 53.05 82.53 52.03 83.56 53.12 84.65"/><polygon class="cls-2" points="53.12 84.65 54.21 85.74 55.23 84.71 54.14 83.62 53.12 84.65"/><polygon class="cls-2" points="54.21 85.74 55.3 86.83 56.33 85.81 55.23 84.71 54.21 85.74"/><polygon class="cls-2" points="56.39 87.92 57.42 86.9 56.33 85.81 55.3 86.83 56.39 87.92"/><polygon class="cls-2" points="56.39 87.92 57.48 89.01 58.51 87.99 57.42 86.9 56.39 87.92"/><polygon class="cls-2" points="58.57 90.1 59.6 89.08 58.51 87.99 57.48 89.01 58.57 90.1"/><polygon class="cls-2" points="58.57 90.1 59.67 91.2 60.5 90.36 60.5 89.98 59.6 89.08 58.57 90.1"/><polygon class="cls-2" points="60.5 92.03 60.5 90.36 59.67 91.2 60.5 92.03"/><polygon class="cls-2" points="50.5 82.89 50.93 82.46 50.5 82.03 50.5 82.89"/><polygon class="cls-2" points="50.5 84.08 51 84.58 52.03 83.56 50.93 82.46 50.5 82.89 50.5 84.08"/><polygon class="cls-2" points="51 84.58 52.09 85.67 53.12 84.65 52.03 83.56 51 84.58"/><polygon class="cls-2" points="52.09 85.67 53.18 86.76 54.21 85.74 53.12 84.65 52.09 85.67"/><polygon class="cls-2" points="54.28 87.86 55.3 86.83 54.21 85.74 53.18 86.76 54.28 87.86"/><polygon class="cls-2" points="54.28 87.86 55.37 88.95 56.39 87.92 55.3 86.83 54.28 87.86"/><polygon class="cls-2" points="56.46 90.04 57.48 89.01 56.39 87.92 55.37 88.95 56.46 90.04"/><polygon class="cls-2" points="56.46 90.04 57.55 91.13 58.57 90.1 57.48 89.01 56.46 90.04"/><polygon class="cls-2" points="58.64 92.22 59.67 91.2 58.57 90.1 57.55 91.13 58.64 92.22"/><polygon class="cls-2" points="58.64 92.22 59.73 93.31 60.5 92.54 60.5 92.03 59.67 91.2 58.64 92.22"/><polygon class="cls-2" points="60.5 94.08 60.5 92.54 59.73 93.31 60.5 94.08"/><polygon class="cls-2" points="50.5 85.08 51 84.58 50.5 84.08 50.5 85.08"/><polygon class="cls-2" points="50.5 85.08 50.5 86.13 51.07 86.7 52.09 85.67 51 84.58 50.5 85.08"/><polygon class="cls-2" points="52.16 87.79 53.18 86.76 52.09 85.67 51.07 86.7 52.16 87.79"/><polygon class="cls-2" points="52.16 87.79 53.25 88.88 54.28 87.86 53.18 86.76 52.16 87.79"/><polygon class="cls-2" points="54.34 89.97 55.37 88.95 54.28 87.86 53.25 88.88 54.34 89.97"/><polygon class="cls-2" points="54.34 89.97 55.43 91.06 56.46 90.04 55.37 88.95 54.34 89.97"/><polygon class="cls-2" points="56.52 92.15 57.55 91.13 56.46 90.04 55.43 91.06 56.52 92.15"/><polygon class="cls-2" points="56.52 92.15 57.62 93.25 58.64 92.22 57.55 91.13 56.52 92.15"/><polygon class="cls-2" points="58.71 94.34 59.73 93.31 58.64 92.22 57.62 93.25 58.71 94.34"/><polygon class="cls-2" points="58.71 94.34 59.8 95.43 60.5 94.73 60.5 94.08 59.73 93.31 58.71 94.34"/><polygon class="cls-2" points="60.5 96.13 60.5 94.73 59.8 95.43 60.5 96.13"/><polygon class="cls-2" points="51.07 86.7 50.5 86.13 50.5 87.26 51.07 86.7"/><polygon class="cls-2" points="50.5 87.26 50.5 88.18 51.13 88.81 52.16 87.79 51.07 86.7 50.5 87.26"/><polygon class="cls-2" points="52.23 89.91 53.25 88.88 52.16 87.79 51.13 88.81 52.23 89.91"/><polygon class="cls-2" points="52.23 89.91 53.32 91 54.34 89.97 53.25 88.88 52.23 89.91"/><polygon class="cls-2" points="54.41 92.09 55.43 91.06 54.34 89.97 53.32 91 54.41 92.09"/><polygon class="cls-2" points="54.41 92.09 55.5 93.18 56.52 92.15 55.43 91.06 54.41 92.09"/><polygon class="cls-2" points="56.59 94.27 57.62 93.25 56.52 92.15 55.5 93.18 56.59 94.27"/><polygon class="cls-2" points="56.59 94.27 57.68 95.36 58.71 94.34 57.62 93.25 56.59 94.27"/><polygon class="cls-2" points="58.78 96.46 59.8 95.43 58.71 94.34 57.68 95.36 58.78 96.46"/><polygon class="cls-2" points="58.78 96.46 59.87 97.55 60.5 96.91 60.5 96.13 59.8 95.43 58.78 96.46"/><polygon class="cls-2" points="60.5 98.18 60.5 96.91 59.87 97.55 60.5 98.18"/><polygon class="cls-2" points="51.13 88.81 50.5 88.18 50.5 89.44 51.13 88.81"/><polygon class="cls-2" points="50.5 89.44 50.5 90.23 51.2 90.93 52.23 89.91 51.13 88.81 50.5 89.44"/><polygon class="cls-2" points="52.29 92.02 53.32 91 52.23 89.91 51.2 90.93 52.29 92.02"/><polygon class="cls-2" points="52.29 92.02 53.38 93.11 54.41 92.09 53.32 91 52.29 92.02"/><polygon class="cls-2" points="54.47 94.2 55.5 93.18 54.41 92.09 53.38 93.11 54.47 94.2"/><polygon class="cls-2" points="54.47 94.2 55.57 95.3 56.59 94.27 55.5 93.18 54.47 94.2"/><polygon class="cls-2" points="56.66 96.39 57.68 95.36 56.59 94.27 55.57 95.3 56.66 96.39"/><polygon class="cls-2" points="56.66 96.39 57.75 97.48 58.78 96.46 57.68 95.36 56.66 96.39"/><polygon class="cls-2" points="58.84 98.57 59.87 97.55 58.78 96.46 57.75 97.48 58.84 98.57"/><polygon class="cls-2" points="58.84 98.57 59.93 99.66 60.5 99.09 60.5 98.18 59.87 97.55 58.84 98.57"/><polygon class="cls-2" points="60.5 100.23 60.5 99.09 59.93 99.66 60.5 100.23"/><polygon class="cls-2" points="51.2 90.93 50.5 90.23 50.5 91.63 51.2 90.93"/><polygon class="cls-2" points="50.5 91.63 50.5 92.28 51.27 93.05 52.29 92.02 51.2 90.93 50.5 91.63"/><polygon class="cls-2" points="52.36 94.14 53.38 93.11 52.29 92.02 51.27 93.05 52.36 94.14"/><polygon class="cls-2" points="52.36 94.14 53.45 95.23 54.47 94.2 53.38 93.11 52.36 94.14"/><polygon class="cls-2" points="54.47 94.2 53.45 95.23 54.54 96.32 55.57 95.3 54.47 94.2"/><polygon class="cls-2" points="54.54 96.32 55.63 97.41 56.66 96.39 55.57 95.3 54.54 96.32"/><polygon class="cls-2" points="56.66 96.39 55.63 97.41 56.73 98.51 57.75 97.48 56.66 96.39"/><polygon class="cls-2" points="56.73 98.51 57.82 99.6 58.84 98.57 57.75 97.48 56.73 98.51"/><polygon class="cls-2" points="58.84 98.57 57.82 99.6 58.72 100.5 59.09 100.5 59.93 99.66 58.84 98.57"/><polygon class="cls-2" points="59.09 100.5 60.5 100.5 60.5 100.23 59.93 99.66 59.09 100.5"/><polygon class="cls-2" points="50.5 93.81 51.27 93.05 50.5 92.28 50.5 93.81"/><polygon class="cls-2" points="51.27 93.05 50.5 93.81 50.5 94.33 51.33 95.16 52.36 94.14 51.27 93.05"/><polygon class="cls-2" points="51.33 95.16 52.42 96.25 53.45 95.23 52.36 94.14 51.33 95.16"/><polygon class="cls-2" points="52.42 96.25 53.52 97.35 54.54 96.32 53.45 95.23 52.42 96.25"/><polygon class="cls-2" points="54.54 96.32 53.52 97.35 54.61 98.44 55.63 97.41 54.54 96.32"/><polygon class="cls-2" points="54.61 98.44 55.7 99.53 56.73 98.51 55.63 97.41 54.61 98.44"/><polygon class="cls-2" points="56.73 98.51 55.7 99.53 56.67 100.5 56.91 100.5 57.82 99.6 56.73 98.51"/><polygon class="cls-2" points="56.91 100.5 58.72 100.5 57.82 99.6 56.91 100.5"/><polygon class="cls-2" points="50.5 95.99 51.33 95.16 50.5 94.33 50.5 95.99"/><polygon class="cls-2" points="51.33 95.16 50.5 95.99 50.5 96.38 51.4 97.28 52.42 96.25 51.33 95.16"/><polygon class="cls-2" points="51.4 97.28 52.49 98.37 53.52 97.35 52.42 96.25 51.4 97.28"/><polygon class="cls-2" points="52.49 98.37 53.58 99.46 54.61 98.44 53.52 97.35 52.49 98.37"/><polygon class="cls-2" points="54.61 98.44 53.58 99.46 54.62 100.5 54.73 100.5 55.7 99.53 54.61 98.44"/><polygon class="cls-2" points="54.73 100.5 56.67 100.5 55.7 99.53 54.73 100.5"/><polygon class="cls-2" points="50.5 98.17 51.4 97.28 50.5 96.38 50.5 98.17"/><polygon class="cls-2" points="51.4 97.28 50.5 98.17 50.5 98.42 51.47 99.39 52.49 98.37 51.4 97.28"/><rect class="cls-2" x="51.8" y="98.65" width="1.44" height="1.54" transform="translate(-54.92 66.26) rotate(-45)"/><polygon class="cls-2" points="52.56 100.48 52.58 100.5 54.62 100.5 53.58 99.46 52.56 100.48"/><polygon class="cls-2" points="50.5 100.36 51.47 99.39 50.5 98.42 50.5 100.36"/><polygon class="cls-2" points="51.47 99.39 50.5 100.36 50.5 100.48 50.52 100.5 52.54 100.5 52.56 100.48 51.47 99.39"/><polygon class="cls-2" points="52.54 100.5 52.58 100.5 52.56 100.48 52.54 100.5"/><polygon class="cls-2" points="50.5 100.5 50.52 100.5 50.5 100.48 50.5 100.5"/><path class="cls-2" d="M36.87,40.69a5.4,5.4,0,0,0-1-.18l.59.59Z"/><path class="cls-2" d="M37.56,42.19l.79-.8a4.8,4.8,0,0,0-1.48-.7l-.4.41Z"/><path class="cls-2" d="M38.65,43.28l.82-.82a5,5,0,0,0-1.12-1.07l-.79.8Z"/><path class="cls-2" d="M39.74,44.37l.49-.49a4.63,4.63,0,0,0-.76-1.42l-.82.82Z"/><path class="cls-2" d="M40.49,45.12a4.28,4.28,0,0,0-.26-1.24l-.49.49Z"/><path class="cls-2" d="M34.82,40.56a4.9,4.9,0,0,0-.78.16l.31.31Z"/><path class="cls-2" d="M35.43,42.12l1-1-.59-.59h-.37a3.93,3.93,0,0,0-.69.06l-.47.47Z"/><polygon class="cls-2" points="37.55 42.19 36.47 41.1 35.44 42.12 36.52 43.21 37.55 42.19"/><polygon class="cls-2" points="37.63 44.31 38.65 43.28 37.55 42.19 36.52 43.21 37.63 44.31"/><polygon class="cls-2" points="38.72 45.4 39.73 44.37 38.65 43.28 37.63 44.31 38.72 45.4"/><path class="cls-2" d="M38.72,45.4l1.09,1.09.7-.71V45.5a2.36,2.36,0,0,0,0-.38l-.75-.75Z"/><polygon class="cls-2" points="40.51 47.19 40.51 45.78 39.8 46.49 40.51 47.19"/><path class="cls-2" d="M34.35,41,34,40.72a5.19,5.19,0,0,0-1.38.67l.67.67Z"/><polygon class="cls-2" points="35.44 42.12 34.34 41.03 33.33 42.06 34.41 43.15 35.44 42.12"/><polygon class="cls-2" points="35.51 44.24 36.52 43.21 35.44 42.12 34.41 43.15 35.51 44.24"/><polygon class="cls-2" points="37.63 44.31 36.52 43.21 35.51 44.24 36.59 45.33 37.63 44.31"/><polygon class="cls-2" points="36.59 45.33 37.69 46.42 38.72 45.4 37.63 44.31 36.59 45.33"/><polygon class="cls-2" points="38.77 47.51 39.8 46.49 38.72 45.4 37.69 46.42 38.77 47.51"/><polygon class="cls-2" points="38.77 47.51 39.87 48.6 40.51 47.96 40.51 47.19 39.8 46.49 38.77 47.51"/><polygon class="cls-2" points="40.51 49.24 40.51 47.96 39.87 48.6 40.51 49.24"/><path class="cls-2" d="M33.33,42.06l-.67-.67A4.67,4.67,0,0,0,32,42a3.67,3.67,0,0,0-.37.43l.69.69Z"/><polygon class="cls-2" points="34.41 43.15 33.33 42.06 32.3 43.08 33.38 44.17 34.41 43.15"/><polygon class="cls-2" points="34.41 43.15 33.38 44.17 34.48 45.26 35.51 44.24 34.41 43.15"/><polygon class="cls-2" points="36.59 45.33 35.51 44.24 34.48 45.26 35.58 46.36 36.59 45.33"/><polygon class="cls-2" points="36.66 47.45 37.69 46.42 36.59 45.33 35.58 46.36 36.66 47.45"/><polygon class="cls-2" points="36.66 47.45 37.76 48.54 38.77 47.51 37.69 46.42 36.66 47.45"/><polygon class="cls-2" points="38.84 49.63 39.87 48.6 38.77 47.51 37.76 48.54 38.84 49.63"/><polygon class="cls-2" points="38.84 49.63 39.94 50.72 40.51 50.15 40.51 49.24 39.87 48.6 38.84 49.63"/><polygon class="cls-2" points="40.51 51.29 40.51 50.15 39.94 50.72 40.51 51.29"/><path class="cls-2" d="M32.3,43.08l-.69-.69a4.24,4.24,0,0,0-.75,1.3l.42.42Z"/><polygon class="cls-2" points="32.3 43.08 31.27 44.11 32.37 45.2 33.38 44.17 32.3 43.08"/><polygon class="cls-2" points="34.48 45.26 33.38 44.17 32.37 45.2 33.45 46.29 34.48 45.26"/><polygon class="cls-2" points="35.58 46.36 34.48 45.26 33.45 46.29 34.55 47.38 35.58 46.36"/><polygon class="cls-2" points="34.55 47.38 35.63 48.47 36.66 47.45 35.58 46.36 34.55 47.38"/><polygon class="cls-2" points="36.73 49.56 37.76 48.54 36.66 47.45 35.63 48.47 36.73 49.56"/><polygon class="cls-2" points="36.73 49.56 37.81 50.65 38.84 49.63 37.76 48.54 36.73 49.56"/><polygon class="cls-2" points="38.91 51.75 39.94 50.72 38.84 49.63 37.81 50.65 38.91 51.75"/><polygon class="cls-2" points="38.91 51.75 40.01 52.84 40.51 52.33 40.51 51.29 39.94 50.72 38.91 51.75"/><polygon class="cls-2" points="40.51 53.34 40.51 52.33 40.01 52.84 40.51 53.34"/><path class="cls-2" d="M30.86,43.69a4.2,4.2,0,0,0-.29,1.12l.71-.7Z"/><path class="cls-2" d="M32.37,45.2l-1.09-1.09-.71.7a5.7,5.7,0,0,0-.06.58l.83.83Z"/><polygon class="cls-2" points="33.45 46.29 32.37 45.2 31.34 46.22 32.42 47.31 33.45 46.29"/><polygon class="cls-2" points="34.55 47.38 33.45 46.29 32.42 47.31 33.52 48.41 34.55 47.38"/><polygon class="cls-2" points="35.63 48.47 34.55 47.38 33.52 48.41 34.62 49.5 35.63 48.47"/><polygon class="cls-2" points="34.62 49.5 35.7 50.59 36.73 49.56 35.63 48.47 34.62 49.5"/><polygon class="cls-2" points="36.8 51.68 37.81 50.65 36.73 49.56 35.7 50.59 36.8 51.68"/><polygon class="cls-2" points="36.8 51.68 37.88 52.77 38.91 51.75 37.81 50.65 36.8 51.68"/><polygon class="cls-2" points="38.98 53.86 40.01 52.84 38.91 51.75 37.88 52.77 38.98 53.86"/><polygon class="cls-2" points="38.98 53.86 40.06 54.95 40.51 54.51 40.51 53.34 40.01 52.84 38.98 53.86"/><polygon class="cls-2" points="40.51 55.39 40.51 54.51 40.06 54.95 40.51 55.39"/><polygon class="cls-2" points="31.34 46.22 30.5 45.39 30.5 47.05 31.34 46.22"/><polygon class="cls-2" points="31.41 48.34 32.42 47.31 31.34 46.22 30.5 47.05 30.5 47.44 31.41 48.34"/><polygon class="cls-2" points="33.52 48.41 32.42 47.31 31.41 48.34 32.49 49.43 33.52 48.41"/><polygon class="cls-2" points="34.62 49.5 33.52 48.41 32.49 49.43 33.59 50.52 34.62 49.5"/><polygon class="cls-2" points="34.67 51.61 35.7 50.59 34.62 49.5 33.59 50.52 34.67 51.61"/><polygon class="cls-2" points="34.67 51.61 35.77 52.7 36.8 51.68 35.7 50.59 34.67 51.61"/><polygon class="cls-2" points="36.87 53.8 37.88 52.77 36.8 51.68 35.77 52.7 36.87 53.8"/><polygon class="cls-2" points="36.87 53.8 37.95 54.89 38.98 53.86 37.88 52.77 36.87 53.8"/><polygon class="cls-2" points="39.05 55.98 40.06 54.95 38.98 53.86 37.95 54.89 39.05 55.98"/><polygon class="cls-2" points="39.05 55.98 40.13 57.07 40.51 56.7 40.51 55.39 40.06 54.95 39.05 55.98"/><polygon class="cls-2" points="40.51 57.44 40.51 56.7 40.13 57.07 40.51 57.44"/><polygon class="cls-2" points="30.5 47.44 30.5 49.23 31.41 48.34 30.5 47.44"/><polygon class="cls-2" points="31.48 50.45 32.49 49.43 31.41 48.34 30.5 49.23 30.5 49.49 31.48 50.45"/><rect class="cls-2" x="31.81" y="49.71" width="1.44" height="1.54" transform="translate(-26.17 37.79) rotate(-45)"/><rect class="cls-2" x="32.9" y="50.8" width="1.44" height="1.54" transform="translate(-26.62 38.88) rotate(-45)"/><rect class="cls-2" x="33.99" y="51.89" width="1.45" height="1.55" transform="translate(-27.14 40.27) rotate(-45.28)"/><polygon class="cls-2" points="34.74 53.73 35.84 54.82 36.87 53.8 35.77 52.7 34.74 53.73"/><polygon class="cls-2" points="36.92 55.91 37.95 54.89 36.87 53.8 35.84 54.82 36.92 55.91"/><polygon class="cls-2" points="36.92 55.91 38.02 57 39.05 55.98 37.95 54.89 36.92 55.91"/><rect class="cls-2" x="38.35" y="56.26" width="1.45" height="1.55" transform="translate(-28.88 44.34) rotate(-45)"/><polygon class="cls-2" points="39.12 58.09 40.2 59.18 40.51 58.88 40.51 57.44 40.13 57.07 39.12 58.09"/><polygon class="cls-2" points="40.51 59.48 40.51 58.88 40.2 59.18 40.51 59.48"/><polygon class="cls-2" points="30.5 49.49 30.5 51.42 31.48 50.45 30.5 49.49"/><polygon class="cls-2" points="31.54 52.57 32.56 51.54 31.48 50.45 30.5 51.42 30.5 51.54 31.54 52.57"/><rect class="cls-2" x="31.87" y="51.83" width="1.46" height="1.54" transform="translate(-27.65 38.45) rotate(-45)"/><rect class="cls-2" x="32.96" y="52.92" width="1.45" height="1.55" transform="translate(-28.1 39.55) rotate(-45)"/><polygon class="cls-2" points="34.81 55.85 35.84 54.82 34.74 53.73 33.72 54.75 34.81 55.85"/><polygon class="cls-2" points="34.81 55.85 35.91 56.94 36.92 55.91 35.84 54.82 34.81 55.85"/><polygon class="cls-2" points="36.99 58.03 38.02 57 36.92 55.91 35.91 56.94 36.99 58.03"/><rect class="cls-2" x="37.33" y="57.29" width="1.45" height="1.55" transform="translate(-29.91 43.91) rotate(-45)"/><rect class="cls-2" x="38.42" y="58.38" width="1.46" height="1.54" transform="translate(-30.36 45.01) rotate(-45)"/><polygon class="cls-2" points="39.17 60.21 40.27 61.3 40.51 61.06 40.51 59.48 40.2 59.18 39.17 60.21"/><polygon class="cls-2" points="40.51 61.54 40.51 61.06 40.27 61.3 40.51 61.54"/><polygon class="cls-2" points="31.54 52.57 30.5 51.54 30.5 53.59 30.52 53.59 31.54 52.57"/><rect class="cls-2" x="30.85" y="52.85" width="1.44" height="1.54" transform="translate(-28.67 38.03) rotate(-45)"/><rect class="cls-2" x="31.94" y="53.94" width="1.45" height="1.55" transform="translate(-29.2 39.42) rotate(-45.28)"/><polygon class="cls-2" points="32.7 55.78 33.78 56.87 34.81 55.85 33.72 54.75 32.7 55.78"/><polygon class="cls-2" points="34.88 57.96 35.91 56.94 34.81 55.85 33.78 56.87 34.88 57.96"/><polygon class="cls-2" points="34.88 57.96 35.97 59.05 36.99 58.03 35.91 56.94 34.88 57.96"/><rect class="cls-2" x="36.3" y="58.31" width="1.45" height="1.55" transform="translate(-30.93 43.49) rotate(-45)"/><rect class="cls-2" x="37.4" y="59.4" width="1.44" height="1.54" transform="translate(-31.39 44.58) rotate(-45)"/><rect class="cls-2" x="38.49" y="60.49" width="1.44" height="1.54" transform="translate(-31.84 45.67) rotate(-45)"/><polygon class="cls-2" points="39.24 62.32 40.34 63.41 40.51 63.24 40.51 61.54 40.27 61.3 39.24 62.32"/><polygon class="cls-2" points="40.51 63.58 40.51 63.24 40.34 63.41 40.51 63.58"/><polygon class="cls-2" points="30.52 53.59 30.5 53.59 30.5 53.6 30.52 53.59"/><polygon class="cls-2" points="31.61 54.68 30.52 53.59 30.5 53.6 30.5 55.63 30.57 55.71 31.61 54.68"/><polygon class="cls-2" points="30.57 55.71 31.68 56.8 32.7 55.78 31.61 54.68 30.57 55.71"/><rect class="cls-2" x="32.01" y="56.06" width="1.44" height="1.54" transform="translate(-30.6 39.79) rotate(-45)"/><rect class="cls-2" x="33.1" y="57.15" width="1.44" height="1.54" transform="translate(-31.05 40.88) rotate(-45)"/><rect class="cls-2" x="34.19" y="58.24" width="1.44" height="1.54" transform="translate(-31.5 41.97) rotate(-45)"/><polygon class="cls-2" points="34.95 60.07 36.03 61.17 37.06 60.14 35.97 59.05 34.95 60.07"/><rect class="cls-2" x="36.37" y="60.43" width="1.46" height="1.54" transform="translate(-32.41 44.16) rotate(-45)"/><rect class="cls-2" x="37.46" y="61.52" width="1.46" height="1.54" transform="translate(-32.86 45.25) rotate(-45)"/><rect class="cls-2" x="38.55" y="62.61" width="1.46" height="1.54" transform="translate(-33.31 46.34) rotate(-45)"/><polygon class="cls-2" points="39.3 64.44 40.41 65.53 40.51 65.43 40.51 63.58 40.34 63.41 39.3 64.44"/><polygon class="cls-2" points="40.51 65.64 40.51 65.43 40.41 65.53 40.51 65.64"/><polygon class="cls-2" points="30.5 55.63 30.5 55.78 30.57 55.71 30.5 55.63"/><polygon class="cls-2" points="31.68 56.8 30.57 55.71 30.5 55.78 30.5 57.69 30.64 57.83 31.68 56.8"/><rect class="cls-2" x="30.98" y="57.09" width="1.46" height="1.54" transform="translate(-31.63 39.37) rotate(-45)"/><rect class="cls-2" x="32.07" y="58.18" width="1.46" height="1.54" transform="translate(-32.08 40.46) rotate(-45)"/><rect class="cls-2" x="33.16" y="59.27" width="1.46" height="1.54" transform="translate(-32.53 41.55) rotate(-45)"/><polygon class="cls-2" points="35.02 62.19 36.03 61.17 34.95 60.07 33.91 61.1 35.02 62.19"/><rect class="cls-2" x="35.35" y="61.45" width="1.44" height="1.54" transform="translate(-33.44 43.73) rotate(-45)"/><rect class="cls-2" x="36.44" y="62.54" width="1.44" height="1.54" transform="translate(-33.89 44.82) rotate(-45)"/><rect class="cls-2" x="37.53" y="63.63" width="1.44" height="1.54" transform="translate(-34.34 45.91) rotate(-45)"/><polygon class="cls-2" points="39.38 66.56 40.41 65.53 39.3 64.44 38.28 65.46 39.38 66.56"/><polygon class="cls-2" points="40.47 67.65 40.51 67.61 40.51 65.64 40.41 65.53 39.38 66.56 40.47 67.65"/><polygon class="cls-2" points="30.5 57.69 30.5 57.97 30.64 57.83 30.5 57.69"/><polygon class="cls-2" points="31.73 58.92 30.64 57.83 30.5 57.97 30.5 59.73 30.71 59.94 31.73 58.92"/><rect class="cls-2" x="31.05" y="59.2" width="1.44" height="1.54" transform="translate(-33.1 40.03) rotate(-45)"/><rect class="cls-2" x="32.14" y="60.29" width="1.44" height="1.54" transform="translate(-33.55 41.12) rotate(-45)"/><polygon class="cls-2" points="32.9 62.12 33.98 63.22 35.02 62.19 33.91 61.1 32.9 62.12"/><rect class="cls-2" x="34.32" y="62.48" width="1.46" height="1.54" transform="translate(-34.46 43.31) rotate(-45)"/><rect class="cls-2" x="35.41" y="63.57" width="1.46" height="1.54" transform="translate(-34.91 44.4) rotate(-45)"/><rect class="cls-2" x="36.5" y="64.66" width="1.46" height="1.54" transform="translate(-35.36 45.48) rotate(-45)"/><polygon class="cls-2" points="38.35 67.58 39.38 66.56 38.28 65.46 37.26 66.49 38.35 67.58"/><rect class="cls-2" x="38.69" y="66.84" width="1.44" height="1.54" transform="translate(-36.27 47.67) rotate(-45)"/><polygon class="cls-2" points="40.51 69.74 40.51 67.68 40.47 67.65 39.45 68.67 40.51 69.74"/><polygon class="cls-2" points="30.5 59.73 30.5 60.15 30.71 59.94 30.5 59.73"/><polygon class="cls-2" points="31.8 61.03 30.71 59.94 30.5 60.15 30.5 61.79 30.77 62.06 31.8 61.03"/><rect class="cls-2" x="31.11" y="61.32" width="1.46" height="1.54" transform="translate(-34.58 40.7) rotate(-45)"/><polygon class="cls-2" points="32.97 64.24 33.98 63.22 32.9 62.12 31.86 63.15 32.97 64.24"/><rect class="cls-2" x="33.3" y="63.5" width="1.44" height="1.54" transform="translate(-35.49 42.88) rotate(-45)"/><rect class="cls-2" x="34.39" y="64.59" width="1.44" height="1.54" transform="translate(-35.94 43.97) rotate(-45)"/><rect class="cls-2" x="35.48" y="65.68" width="1.44" height="1.54" transform="translate(-36.39 45.06) rotate(-45)"/><polygon class="cls-2" points="37.33 68.61 38.35 67.58 37.26 66.49 36.23 67.51 37.33 68.61"/><rect class="cls-2" x="37.66" y="67.87" width="1.46" height="1.54" transform="translate(-37.29 47.25) rotate(-45)"/><polygon class="cls-2" points="39.51 70.79 40.51 69.79 40.51 69.74 39.45 68.67 38.41 69.7 39.51 70.79"/><polygon class="cls-2" points="40.51 69.79 39.51 70.79 40.51 71.78 40.51 69.79"/><polygon class="cls-2" points="30.5 61.79 30.5 62.33 30.77 62.06 30.5 61.79"/><polygon class="cls-2" points="31.86 63.15 30.77 62.06 30.5 62.33 30.5 63.83 30.84 64.17 31.86 63.15"/><polygon class="cls-2" points="30.84 64.17 31.93 65.27 32.97 64.24 31.86 63.15 30.84 64.17"/><rect class="cls-2" x="32.27" y="64.53" width="1.46" height="1.54" transform="translate(-36.51 42.45) rotate(-45)"/><rect class="cls-2" x="33.36" y="65.62" width="1.46" height="1.54" transform="translate(-36.96 43.55) rotate(-45)"/><rect class="cls-2" x="34.45" y="66.71" width="1.46" height="1.54" transform="translate(-37.41 44.63) rotate(-45)"/><polygon class="cls-2" points="36.3 69.63 37.33 68.61 36.23 67.51 35.2 68.54 36.3 69.63"/><rect class="cls-2" x="36.64" y="68.89" width="1.44" height="1.54" transform="translate(-38.32 46.82) rotate(-45)"/><rect class="cls-2" x="37.73" y="69.98" width="1.44" height="1.54" transform="translate(-38.77 47.91) rotate(-45)"/><polygon class="cls-2" points="39.58 72.91 40.51 71.98 40.51 71.78 39.51 70.79 38.48 71.81 39.58 72.91"/><polygon class="cls-2" points="40.51 71.98 39.58 72.91 40.51 73.84 40.51 71.98"/><polygon class="cls-2" points="30.5 63.83 30.5 64.51 30.84 64.17 30.5 63.83"/><polygon class="cls-2" points="31.93 65.27 30.84 64.17 30.5 64.51 30.5 65.88 30.91 66.29 31.93 65.27"/><rect class="cls-2" x="31.25" y="65.55" width="1.44" height="1.54" transform="translate(-37.54 42.03) rotate(-45)"/><rect class="cls-2" x="32.34" y="66.64" width="1.44" height="1.54" transform="translate(-37.99 43.12) rotate(-45)"/><rect class="cls-2" x="33.43" y="67.73" width="1.44" height="1.54" transform="translate(-38.44 44.21) rotate(-45)"/><rect class="cls-2" x="34.52" y="68.82" width="1.45" height="1.55" transform="translate(-39.01 45.67) rotate(-45.28)"/><polygon class="cls-2" points="36.38 71.75 37.4 70.72 36.3 69.63 35.28 70.66 36.38 71.75"/><polygon class="cls-2" points="37.47 72.84 38.48 71.81 37.4 70.72 36.38 71.75 37.47 72.84"/><rect class="cls-2" x="37.8" y="72.1" width="1.45" height="1.55" transform="translate(-40.25 48.58) rotate(-45)"/><polygon class="cls-2" points="39.65 75.02 40.51 74.16 40.51 73.84 39.58 72.91 38.55 73.93 39.65 75.02"/><polygon class="cls-2" points="40.51 75.88 40.51 74.16 39.65 75.02 40.51 75.88"/><polygon class="cls-2" points="30.5 65.88 30.5 66.7 30.91 66.29 30.5 65.88"/><polygon class="cls-2" points="32.01 67.38 30.91 66.29 30.5 66.7 30.5 67.94 30.98 68.41 32.01 67.38"/><rect class="cls-2" x="31.31" y="67.67" width="1.46" height="1.54" transform="translate(-39.01 42.7) rotate(-45)"/><rect class="cls-2" x="32.4" y="68.76" width="1.45" height="1.55" transform="translate(-39.46 43.79) rotate(-45)"/><polygon class="cls-2" points="34.26 71.68 35.28 70.66 34.19 69.56 33.16 70.59 34.26 71.68"/><polygon class="cls-2" points="35.34 72.77 36.38 71.75 35.28 70.66 34.26 71.68 35.34 72.77"/><polygon class="cls-2" points="36.44 73.86 37.47 72.84 36.38 71.75 35.34 72.77 36.44 73.86"/><rect class="cls-2" x="36.77" y="73.12" width="1.45" height="1.55" transform="translate(-41.27 48.16) rotate(-45)"/><rect class="cls-2" x="37.86" y="74.22" width="1.46" height="1.54" transform="translate(-41.72 49.25) rotate(-45)"/><polygon class="cls-2" points="38.62 76.05 39.72 77.14 40.51 76.35 40.51 75.88 39.65 75.02 38.62 76.05"/><polygon class="cls-2" points="40.51 77.94 40.51 76.35 39.72 77.14 40.51 77.94"/><polygon class="cls-2" points="30.5 67.94 30.5 68.88 30.98 68.41 30.5 67.94"/><polygon class="cls-2" points="32.06 69.5 30.98 68.41 30.5 68.88 30.5 69.98 31.05 70.52 32.06 69.5"/><rect class="cls-2" x="31.38" y="69.78" width="1.45" height="1.55" transform="translate(-40.49 43.37) rotate(-45)"/><polygon class="cls-2" points="34.26 71.68 33.16 70.59 32.13 71.61 33.23 72.71 34.26 71.68"/><polygon class="cls-2" points="35.34 72.77 34.26 71.68 33.23 72.71 34.33 73.8 35.34 72.77"/><polygon class="cls-2" points="35.41 74.89 36.44 73.86 35.34 72.77 34.33 73.8 35.41 74.89"/><rect class="cls-2" x="35.75" y="74.15" width="1.45" height="1.55" transform="translate(-42.3 47.73) rotate(-45)"/><rect class="cls-2" x="36.84" y="75.24" width="1.44" height="1.54" transform="translate(-42.75 48.82) rotate(-45)"/><rect class="cls-2" x="37.93" y="76.33" width="1.45" height="1.55" transform="translate(-43.33 50.32) rotate(-45.28)"/><polygon class="cls-2" points="38.7 78.17 39.78 79.26 40.51 78.53 40.51 77.94 39.72 77.14 38.7 78.17"/><polygon class="cls-2" points="40.51 79.98 40.51 78.53 39.78 79.26 40.51 79.98"/><polygon class="cls-2" points="30.5 69.98 30.5 71.06 31.05 70.52 30.5 69.98"/><polygon class="cls-2" points="31.11 72.64 32.13 71.61 31.05 70.52 30.5 71.06 30.5 72.03 31.11 72.64"/><polygon class="cls-2" points="33.23 72.71 32.13 71.61 31.11 72.64 32.2 73.73 33.23 72.71"/><polygon class="cls-2" points="34.33 73.8 33.23 72.71 32.2 73.73 33.3 74.82 34.33 73.8"/><polygon class="cls-2" points="34.33 73.8 33.3 74.82 34.38 75.91 35.41 74.89 34.33 73.8"/><polygon class="cls-2" points="34.38 75.91 35.48 77.01 36.51 75.98 35.41 74.89 34.38 75.91"/><polygon class="cls-2" points="36.58 78.1 37.59 77.07 36.51 75.98 35.48 77.01 36.58 78.1"/><polygon class="cls-2" points="36.58 78.1 37.66 79.19 38.7 78.17 37.59 77.07 36.58 78.1"/><polygon class="cls-2" points="38.76 80.28 39.78 79.26 38.7 78.17 37.66 79.19 38.76 80.28"/><polygon class="cls-2" points="38.76 80.28 39.84 81.37 40.51 80.71 40.51 79.98 39.78 79.26 38.76 80.28"/><polygon class="cls-2" points="40.51 82.03 40.51 80.71 39.84 81.37 40.51 82.03"/><polygon class="cls-2" points="30.5 72.03 30.5 73.25 31.11 72.64 30.5 72.03"/><polygon class="cls-2" points="32.2 73.73 31.11 72.64 30.5 73.25 30.5 74.08 31.18 74.76 32.2 73.73"/><polygon class="cls-2" points="32.2 73.73 31.18 74.76 32.27 75.85 33.3 74.82 32.2 73.73"/><polygon class="cls-2" points="34.38 75.91 33.3 74.82 32.27 75.85 33.37 76.94 34.38 75.91"/><polygon class="cls-2" points="34.38 75.91 33.37 76.94 34.45 78.03 35.48 77.01 34.38 75.91"/><polygon class="cls-2" points="34.45 78.03 35.55 79.12 36.58 78.1 35.48 77.01 34.45 78.03"/><polygon class="cls-2" points="36.65 80.22 37.66 79.19 36.58 78.1 35.55 79.12 36.65 80.22"/><polygon class="cls-2" points="36.65 80.22 37.73 81.31 38.76 80.28 37.66 79.19 36.65 80.22"/><polygon class="cls-2" points="38.83 82.4 39.84 81.37 38.76 80.28 37.73 81.31 38.83 82.4"/><polygon class="cls-2" points="38.83 82.4 39.91 83.49 40.51 82.89 40.51 82.03 39.84 81.37 38.83 82.4"/><polygon class="cls-2" points="40.51 84.08 40.51 82.89 39.91 83.49 40.51 84.08"/><polygon class="cls-2" points="30.5 74.08 30.5 75.43 31.18 74.76 30.5 74.08"/><polygon class="cls-2" points="32.27 75.85 31.18 74.76 30.5 75.43 30.5 76.13 31.25 76.87 32.27 75.85"/><polygon class="cls-2" points="32.27 75.85 31.25 76.87 32.34 77.96 33.37 76.94 32.27 75.85"/><polygon class="cls-2" points="34.45 78.03 33.37 76.94 32.34 77.96 33.44 79.06 34.45 78.03"/><polygon class="cls-2" points="34.45 78.03 33.44 79.06 34.52 80.15 35.55 79.12 34.45 78.03"/><polygon class="cls-2" points="34.52 80.15 35.62 81.24 36.65 80.22 35.55 79.12 34.52 80.15"/><polygon class="cls-2" points="36.7 82.33 37.73 81.31 36.65 80.22 35.62 81.24 36.7 82.33"/><polygon class="cls-2" points="36.7 82.33 37.8 83.42 38.83 82.4 37.73 81.31 36.7 82.33"/><polygon class="cls-2" points="37.8 83.42 38.88 84.51 39.91 83.49 38.83 82.4 37.8 83.42"/><polygon class="cls-2" points="39.91 83.49 38.88 84.51 39.98 85.61 40.51 85.08 40.51 84.08 39.91 83.49"/><polygon class="cls-2" points="40.51 86.13 40.51 85.08 39.98 85.61 40.51 86.13"/><polygon class="cls-2" points="30.5 76.13 30.5 77.61 31.25 76.87 30.5 76.13"/><polygon class="cls-2" points="32.34 77.96 31.25 76.87 30.5 77.61 30.5 78.18 31.32 78.99 32.34 77.96"/><polygon class="cls-2" points="32.34 77.96 31.32 78.99 32.41 80.08 33.44 79.06 32.34 77.96"/><polygon class="cls-2" points="34.52 80.15 33.44 79.06 32.41 80.08 33.49 81.17 34.52 80.15"/><polygon class="cls-2" points="34.52 80.15 33.49 81.17 34.59 82.27 35.62 81.24 34.52 80.15"/><polygon class="cls-2" points="34.59 82.27 35.69 83.36 36.7 82.33 35.62 81.24 34.59 82.27"/><polygon class="cls-2" points="35.69 83.36 36.77 84.45 37.8 83.42 36.7 82.33 35.69 83.36"/><polygon class="cls-2" points="36.77 84.45 37.87 85.54 38.88 84.51 37.8 83.42 36.77 84.45"/><polygon class="cls-2" points="38.95 86.63 39.98 85.61 38.88 84.51 37.87 85.54 38.95 86.63"/><polygon class="cls-2" points="38.95 86.63 40.05 87.72 40.51 87.26 40.51 86.13 39.98 85.61 38.95 86.63"/><polygon class="cls-2" points="40.51 88.18 40.51 87.26 40.05 87.72 40.51 88.18"/><polygon class="cls-2" points="30.5 78.18 30.5 79.79 31.32 78.99 30.5 78.18"/><polygon class="cls-2" points="32.41 80.08 31.32 78.99 30.5 79.79 30.5 80.23 31.39 81.11 32.41 80.08"/><polygon class="cls-2" points="32.41 80.08 31.39 81.11 32.48 82.2 33.49 81.17 32.41 80.08"/><polygon class="cls-2" points="34.59 82.27 33.49 81.17 32.48 82.2 33.56 83.29 34.59 82.27"/><polygon class="cls-2" points="33.56 83.29 34.66 84.38 35.69 83.36 34.59 82.27 33.56 83.29"/><polygon class="cls-2" points="34.66 84.38 35.74 85.47 36.77 84.45 35.69 83.36 34.66 84.38"/><polygon class="cls-2" points="36.84 86.56 37.87 85.54 36.77 84.45 35.74 85.47 36.84 86.56"/><polygon class="cls-2" points="36.84 86.56 37.94 87.66 38.95 86.63 37.87 85.54 36.84 86.56"/><polygon class="cls-2" points="39.02 88.75 40.05 87.72 38.95 86.63 37.94 87.66 39.02 88.75"/><polygon class="cls-2" points="39.02 88.75 40.12 89.84 40.51 89.44 40.51 88.18 40.05 87.72 39.02 88.75"/><polygon class="cls-2" points="40.51 90.23 40.51 89.44 40.12 89.84 40.51 90.23"/><polygon class="cls-2" points="30.5 80.23 30.5 81.98 31.39 81.11 30.5 80.23"/><polygon class="cls-2" points="32.48 82.2 31.39 81.11 30.5 81.98 30.5 82.28 31.45 83.22 32.48 82.2"/><polygon class="cls-2" points="32.48 82.2 31.45 83.22 32.55 84.32 33.56 83.29 32.48 82.2"/><polygon class="cls-2" points="34.66 84.38 33.56 83.29 32.55 84.32 33.63 85.41 34.66 84.38"/><polygon class="cls-2" points="34.66 84.38 33.63 85.41 34.73 86.5 35.74 85.47 34.66 84.38"/><polygon class="cls-2" points="34.73 86.5 35.81 87.59 36.84 86.56 35.74 85.47 34.73 86.5"/><polygon class="cls-2" points="36.84 86.56 35.81 87.59 36.91 88.68 37.94 87.66 36.84 86.56"/><polygon class="cls-2" points="36.91 88.68 37.99 89.77 39.02 88.75 37.94 87.66 36.91 88.68"/><polygon class="cls-2" points="39.02 88.75 37.99 89.77 39.09 90.86 40.12 89.84 39.02 88.75"/><polygon class="cls-2" points="39.09 90.86 40.19 91.96 40.51 91.63 40.51 90.23 40.12 89.84 39.09 90.86"/><polygon class="cls-2" points="40.51 92.28 40.51 91.63 40.19 91.96 40.51 92.28"/><polygon class="cls-2" points="30.5 82.28 30.5 84.16 31.45 83.22 30.5 82.28"/><polygon class="cls-2" points="32.55 84.32 31.45 83.22 30.5 84.16 30.5 84.33 31.52 85.34 32.55 84.32"/><polygon class="cls-2" points="32.55 84.32 31.52 85.34 32.6 86.43 33.63 85.41 32.55 84.32"/><polygon class="cls-2" points="32.6 86.43 33.7 87.52 34.73 86.5 33.63 85.41 32.6 86.43"/><polygon class="cls-2" points="34.73 86.5 33.7 87.52 34.78 88.61 35.81 87.59 34.73 86.5"/><polygon class="cls-2" points="34.78 88.61 35.88 89.71 36.91 88.68 35.81 87.59 34.78 88.61"/><polygon class="cls-2" points="36.91 88.68 35.88 89.71 36.98 90.8 37.99 89.77 36.91 88.68"/><polygon class="cls-2" points="36.98 90.8 38.06 91.89 39.09 90.86 37.99 89.77 36.98 90.8"/><polygon class="cls-2" points="39.09 90.86 38.06 91.89 39.16 92.98 40.19 91.96 39.09 90.86"/><polygon class="cls-2" points="40.19 91.96 39.16 92.98 40.24 94.07 40.51 93.81 40.51 92.28 40.19 91.96"/><polygon class="cls-2" points="40.51 94.33 40.51 93.81 40.24 94.07 40.51 94.33"/><polygon class="cls-2" points="30.5 84.33 30.5 86.35 31.52 85.34 30.5 84.33"/><polygon class="cls-2" points="30.5 86.35 30.5 86.37 30.5 86.38 30.5 86.35"/><polygon class="cls-2" points="31.52 85.34 30.5 86.35 30.5 86.38 31.59 87.46 32.6 86.43 31.52 85.34"/><polygon class="cls-2" points="32.6 86.43 31.59 87.46 32.67 88.55 33.7 87.52 32.6 86.43"/><polygon class="cls-2" points="32.67 88.55 33.77 89.64 34.78 88.61 33.7 87.52 32.67 88.55"/><polygon class="cls-2" points="34.78 88.61 33.77 89.64 34.85 90.73 35.88 89.71 34.78 88.61"/><polygon class="cls-2" points="34.85 90.73 35.95 91.82 36.98 90.8 35.88 89.71 34.85 90.73"/><polygon class="cls-2" points="36.98 90.8 35.95 91.82 37.03 92.91 38.06 91.89 36.98 90.8"/><polygon class="cls-2" points="37.03 92.91 38.13 94.01 39.16 92.98 38.06 91.89 37.03 92.91"/><polygon class="cls-2" points="39.16 92.98 38.13 94.01 39.23 95.1 40.24 94.07 39.16 92.98"/><polygon class="cls-2" points="40.24 94.07 39.23 95.1 40.31 96.19 40.51 95.99 40.51 94.33 40.24 94.07"/><polygon class="cls-2" points="40.51 96.38 40.51 95.99 40.31 96.19 40.51 96.38"/><polygon class="cls-2" points="31.59 87.46 30.5 86.38 30.5 88.42 30.55 88.48 31.59 87.46"/><polygon class="cls-2" points="30.55 88.48 31.64 89.57 32.67 88.55 31.59 87.46 30.55 88.48"/><polygon class="cls-2" points="32.67 88.55 31.64 89.57 32.73 90.66 33.77 89.64 32.67 88.55"/><rect class="cls-2" x="33.07" y="89.92" width="1.45" height="1.55" transform="translate(-54.41 50.86) rotate(-45.26)"/><rect class="cls-2" x="34.17" y="91.01" width="1.44" height="1.54" transform="translate(-54.68 51.55) rotate(-45)"/><rect class="cls-2" x="35.26" y="92.1" width="1.44" height="1.54" transform="translate(-55.13 52.64) rotate(-45)"/><rect class="cls-2" x="36.35" y="93.19" width="1.45" height="1.55" transform="translate(-55.59 53.74) rotate(-45)"/><polygon class="cls-2" points="37.1 95.03 38.2 96.12 39.23 95.1 38.13 94.01 37.1 95.03"/><polygon class="cls-2" points="39.23 95.1 38.2 96.12 39.28 97.21 40.31 96.19 39.23 95.1"/><polygon class="cls-2" points="40.31 96.19 39.28 97.21 40.38 98.3 40.51 98.17 40.51 96.38 40.31 96.19"/><polygon class="cls-2" points="40.51 98.42 40.51 98.17 40.38 98.3 40.51 98.42"/><polygon class="cls-2" points="30.5 88.42 30.5 88.53 30.55 88.48 30.5 88.42"/><polygon class="cls-2" points="30.55 88.48 30.5 88.53 30.5 90.48 30.63 90.6 31.64 89.57 30.55 88.48"/><polygon class="cls-2" points="30.63 90.6 31.71 91.69 32.73 90.66 31.64 89.57 30.63 90.6"/><rect class="cls-2" x="32.05" y="90.95" width="1.45" height="1.55" transform="translate(-55.46 50.47) rotate(-45.28)"/><rect class="cls-2" x="33.14" y="92.04" width="1.46" height="1.54" transform="translate(-55.71 51.13) rotate(-45)"/><rect class="cls-2" x="34.23" y="93.13" width="1.46" height="1.54" transform="translate(-56.16 52.22) rotate(-45)"/><rect class="cls-2" x="35.32" y="94.22" width="1.45" height="1.55" transform="translate(-56.61 53.31) rotate(-45)"/><polygon class="cls-2" points="37.1 95.03 36.09 96.06 37.17 97.15 38.2 96.12 37.1 95.03"/><polygon class="cls-2" points="37.17 97.15 38.27 98.24 39.28 97.21 38.2 96.12 37.17 97.15"/><polygon class="cls-2" points="39.28 97.21 38.27 98.24 39.35 99.33 40.38 98.3 39.28 97.21"/><polygon class="cls-2" points="40.38 98.3 39.35 99.33 40.45 100.42 40.51 100.36 40.51 98.42 40.38 98.3"/><polygon class="cls-2" points="40.51 100.48 40.51 100.36 40.45 100.42 40.51 100.48"/><polygon class="cls-2" points="30.5 90.71 30.63 90.6 30.5 90.48 30.5 90.71"/><polygon class="cls-2" points="30.63 90.6 30.5 90.71 30.5 92.52 30.68 92.71 31.71 91.69 30.63 90.6"/><rect class="cls-2" x="31.02" y="91.97" width="1.45" height="1.55" transform="translate(-56.48 50.02) rotate(-45.26)"/><rect class="cls-2" x="32.12" y="93.06" width="1.44" height="1.54" transform="translate(-56.73 50.71) rotate(-45)"/><rect class="cls-2" x="33.21" y="94.15" width="1.44" height="1.54" transform="translate(-57.19 51.8) rotate(-45)"/><rect class="cls-2" x="34.3" y="95.24" width="1.45" height="1.55" transform="translate(-57.64 52.89) rotate(-45)"/><polygon class="cls-2" points="35.05 97.08 36.15 98.17 37.17 97.15 36.09 96.06 35.05 97.08"/><polygon class="cls-2" points="37.17 97.15 36.15 98.17 37.23 99.26 38.27 98.24 37.17 97.15"/><polygon class="cls-2" points="37.23 99.26 38.33 100.35 39.35 99.33 38.27 98.24 37.23 99.26"/><polygon class="cls-2" points="39.35 99.33 38.33 100.35 38.48 100.5 40.37 100.5 40.45 100.42 39.35 99.33"/><polygon class="cls-2" points="40.45 100.42 40.37 100.5 40.51 100.5 40.51 100.48 40.45 100.42"/><polygon class="cls-2" points="30.5 92.89 30.68 92.71 30.5 92.52 30.5 92.89"/><polygon class="cls-2" points="30.68 92.71 30.5 92.89 30.5 94.58 30.75 94.83 31.79 93.8 30.68 92.71"/><rect class="cls-2" x="31.09" y="94.09" width="1.46" height="1.54" transform="translate(-57.76 50.28) rotate(-45)"/><rect class="cls-2" x="32.18" y="95.18" width="1.46" height="1.54" transform="translate(-58.21 51.37) rotate(-45)"/><polygon class="cls-2" points="32.94 97.01 34.03 98.1 35.05 97.08 33.97 95.98 32.94 97.01"/><rect class="cls-2" x="34.37" y="97.36" width="1.44" height="1.54" transform="translate(-59.11 53.55) rotate(-45)"/><rect class="cls-2" x="35.46" y="98.45" width="1.44" height="1.54" transform="translate(-59.57 54.65) rotate(-45)"/><polygon class="cls-2" points="37.23 99.26 36.22 100.28 36.42 100.5 38.17 100.5 38.33 100.35 37.23 99.26"/><polygon class="cls-2" points="38.17 100.5 38.48 100.5 38.33 100.35 38.17 100.5"/><polygon class="cls-2" points="30.5 95.08 30.75 94.83 30.5 94.58 30.5 95.08"/><polygon class="cls-2" points="30.75 94.83 30.5 95.08 30.5 96.62 30.82 96.94 31.84 95.92 30.75 94.83"/><rect class="cls-2" x="31.16" y="96.2" width="1.44" height="1.54" transform="translate(-59.24 50.95) rotate(-45)"/><polygon class="cls-2" points="32.94 97.01 31.91 98.03 33.01 99.13 34.03 98.1 32.94 97.01"/><rect class="cls-2" x="33.34" y="98.39" width="1.46" height="1.54" transform="translate(-60.14 53.13) rotate(-45)"/><polygon class="cls-2" points="35.13 99.19 34.09 100.22 34.38 100.5 35.99 100.5 36.22 100.28 35.13 99.19"/><polygon class="cls-2" points="35.99 100.5 36.42 100.5 36.22 100.28 35.99 100.5"/><polygon class="cls-2" points="30.5 97.26 30.82 96.94 30.5 96.62 30.5 97.26"/><polygon class="cls-2" points="30.82 96.94 30.5 97.26 30.5 98.68 30.89 99.06 31.91 98.03 30.82 96.94"/><polygon class="cls-2" points="30.89 99.06 31.98 100.15 33.01 99.13 31.91 98.03 30.89 99.06"/><polygon class="cls-2" points="33.01 99.13 31.98 100.15 32.33 100.5 33.81 100.5 34.09 100.22 33.01 99.13"/><polygon class="cls-2" points="33.81 100.5 34.38 100.5 34.09 100.22 33.81 100.5"/><polygon class="cls-2" points="30.5 99.44 30.89 99.06 30.5 98.68 30.5 99.44"/><polygon class="cls-2" points="30.89 99.06 30.5 99.44 30.5 100.5 31.64 100.5 31.98 100.15 30.89 99.06"/><polygon class="cls-2" points="31.64 100.5 32.33 100.5 31.98 100.15 31.64 100.5"/><path class="cls-2" d="M17.13,30.77a5,5,0,0,0-1.25-.25l.75.75Z"/><path class="cls-2" d="M17.72,32.36l.82-.82a5,5,0,0,0-1.41-.77l-.5.5Z"/><path class="cls-2" d="M18.82,33.46l.79-.8A4.79,4.79,0,0,0,19,32a3.89,3.89,0,0,0-.49-.42l-.82.82Z"/><path class="cls-2" d="M19.91,34.55l.4-.41a5,5,0,0,0-.7-1.48l-.79.8Z"/><path class="cls-2" d="M20.49,35.13a5.4,5.4,0,0,0-.18-1l-.4.41Z"/><path class="cls-2" d="M15.2,30.52a4.48,4.48,0,0,0-1.16.21l.48.48Z"/><path class="cls-2" d="M15.61,32.3l1-1-.75-.75-.38,0a1.51,1.51,0,0,0-.3,0l-.68.69Z"/><polygon class="cls-2" points="17.72 32.36 16.63 31.27 15.61 32.3 16.7 33.39 17.72 32.36"/><polygon class="cls-2" points="17.79 34.48 18.82 33.46 17.72 32.36 16.7 33.39 17.79 34.48"/><polygon class="cls-2" points="18.88 35.57 19.91 34.55 18.82 33.46 17.79 34.48 18.88 35.57"/><path class="cls-2" d="M18.88,35.57,20,36.66l.53-.53V35.5c0-.12,0-.25,0-.37l-.58-.58Z"/><polygon class="cls-2" points="20.5 37.19 20.5 36.13 19.97 36.66 20.5 37.19"/><path class="cls-2" d="M14.52,31.21,14,30.73a4.65,4.65,0,0,0-1.38.67l.83.83Z"/><polygon class="cls-2" points="15.61 32.3 14.52 31.21 13.49 32.23 14.58 33.32 15.61 32.3"/><polygon class="cls-2" points="15.67 34.41 16.7 33.39 15.61 32.3 14.58 33.32 15.67 34.41"/><polygon class="cls-2" points="17.79 34.48 16.7 33.39 15.67 34.41 16.77 35.51 17.79 34.48"/><polygon class="cls-2" points="16.77 35.51 17.86 36.6 18.88 35.57 17.79 34.48 16.77 35.51"/><polygon class="cls-2" points="18.95 37.69 19.97 36.66 18.88 35.57 17.86 36.6 18.95 37.69"/><polygon class="cls-2" points="18.95 37.69 20.04 38.78 20.5 38.32 20.5 37.19 19.97 36.66 18.95 37.69"/><polygon class="cls-2" points="20.5 39.24 20.5 38.32 20.04 38.78 20.5 39.24"/><path class="cls-2" d="M13.49,32.23l-.83-.83h0a4.71,4.71,0,0,0-1.05,1l.87.87Z"/><polygon class="cls-2" points="14.58 33.32 13.49 32.23 12.47 33.26 13.56 34.35 14.58 33.32"/><polygon class="cls-2" points="14.58 33.32 13.56 34.35 14.65 35.44 15.67 34.41 14.58 33.32"/><polygon class="cls-2" points="16.77 35.51 15.67 34.41 14.65 35.44 15.74 36.53 16.77 35.51"/><polygon class="cls-2" points="16.83 37.62 17.86 36.6 16.77 35.51 15.74 36.53 16.83 37.62"/><polygon class="cls-2" points="16.83 37.62 17.92 38.71 18.95 37.69 17.86 36.6 16.83 37.62"/><polygon class="cls-2" points="19.01 39.8 20.04 38.78 18.95 37.69 17.92 38.71 19.01 39.8"/><polygon class="cls-2" points="19.01 39.8 20.11 40.9 20.5 40.5 20.5 39.24 20.04 38.78 19.01 39.8"/><polygon class="cls-2" points="20.5 41.29 20.5 40.5 20.11 40.9 20.5 41.29"/><path class="cls-2" d="M12.47,33.26l-.87-.87a4.69,4.69,0,0,0-.75,1.3l.59.59Z"/><polygon class="cls-2" points="12.47 33.26 11.44 34.28 12.53 35.37 13.56 34.35 12.47 33.26"/><polygon class="cls-2" points="14.65 35.44 13.56 34.35 12.53 35.37 13.62 36.46 14.65 35.44"/><polygon class="cls-2" points="14.65 35.44 13.62 36.46 14.72 37.56 15.74 36.53 14.65 35.44"/><polygon class="cls-2" points="16.83 37.62 15.74 36.53 14.72 37.56 15.81 38.65 16.83 37.62"/><polygon class="cls-2" points="16.9 39.74 17.92 38.71 16.83 37.62 15.81 38.65 16.9 39.74"/><polygon class="cls-2" points="16.9 39.74 17.99 40.83 19.01 39.8 17.92 38.71 16.9 39.74"/><polygon class="cls-2" points="19.08 41.92 20.11 40.9 19.01 39.8 17.99 40.83 19.08 41.92"/><polygon class="cls-2" points="19.08 41.92 20.17 43.01 20.5 42.68 20.5 41.29 20.11 40.9 19.08 41.92"/><polygon class="cls-2" points="20.5 43.34 20.5 42.68 20.17 43.01 20.5 43.34"/><path class="cls-2" d="M10.85,33.69a4.74,4.74,0,0,0-.33,1.51l.92-.92Z"/><path class="cls-2" d="M12.53,35.37l-1.09-1.09-.92.92a.67.67,0,0,0,0,.2l1,1Z"/><polygon class="cls-2" points="12.53 35.37 11.51 36.4 12.6 37.49 13.62 36.46 12.53 35.37"/><polygon class="cls-2" points="14.72 37.56 13.62 36.46 12.6 37.49 13.69 38.58 14.72 37.56"/><polygon class="cls-2" points="15.81 38.65 14.72 37.56 13.69 38.58 14.78 39.67 15.81 38.65"/><polygon class="cls-2" points="14.78 39.67 15.87 40.76 16.9 39.74 15.81 38.65 14.78 39.67"/><polygon class="cls-2" points="16.96 41.85 17.99 40.83 16.9 39.74 15.87 40.76 16.96 41.85"/><polygon class="cls-2" points="16.96 41.85 18.06 42.95 19.08 41.92 17.99 40.83 16.96 41.85"/><polygon class="cls-2" points="19.15 44.04 20.17 43.01 19.08 41.92 18.06 42.95 19.15 44.04"/><polygon class="cls-2" points="19.15 44.04 20.24 45.13 20.5 44.86 20.5 43.34 20.17 43.01 19.15 44.04"/><polygon class="cls-2" points="20.5 45.39 20.5 44.86 20.24 45.13 20.5 45.39"/><path class="cls-2" d="M10.51,35.4a.34.34,0,0,0,0,.1v1.9l1-1Z"/><polygon class="cls-2" points="12.6 37.49 11.51 36.4 10.5 37.4 10.5 37.44 11.57 38.51 12.6 37.49"/><polygon class="cls-2" points="13.69 38.58 12.6 37.49 11.57 38.51 12.67 39.61 13.69 38.58"/><polygon class="cls-2" points="13.69 38.58 12.67 39.61 13.76 40.7 14.78 39.67 13.69 38.58"/><polygon class="cls-2" points="15.87 40.76 14.78 39.67 13.76 40.7 14.85 41.79 15.87 40.76"/><polygon class="cls-2" points="14.85 41.79 15.94 42.88 16.96 41.85 15.87 40.76 14.85 41.79"/><polygon class="cls-2" points="17.03 43.97 18.06 42.95 16.96 41.85 15.94 42.88 17.03 43.97"/><polygon class="cls-2" points="17.03 43.97 18.12 45.06 19.15 44.04 18.06 42.95 17.03 43.97"/><polygon class="cls-2" points="19.21 46.15 20.24 45.13 19.15 44.04 18.12 45.06 19.21 46.15"/><polygon class="cls-2" points="19.21 46.15 20.31 47.25 20.5 47.05 20.5 45.39 20.24 45.13 19.21 46.15"/><polygon class="cls-2" points="20.5 47.05 20.31 47.25 20.5 47.44 20.5 47.05"/><polygon class="cls-2" points="11.57 38.51 10.5 37.44 10.5 39.49 10.55 39.53 11.57 38.51"/><rect class="cls-2" x="10.88" y="38.79" width="1.45" height="1.55" transform="translate(-24.58 19.8) rotate(-45)"/><polygon class="cls-2" points="13.76 40.7 12.67 39.61 11.64 40.63 12.73 41.72 13.76 40.7"/><polygon class="cls-2" points="13.76 40.7 12.73 41.72 13.82 42.81 14.85 41.79 13.76 40.7"/><polygon class="cls-2" points="15.94 42.88 14.85 41.79 13.82 42.81 14.91 43.9 15.94 42.88"/><rect class="cls-2" x="15.25" y="43.16" width="1.45" height="1.55" transform="translate(-26.48 24.36) rotate(-45.26)"/><rect class="cls-2" x="16.34" y="44.25" width="1.44" height="1.54" transform="translate(-26.84 25.26) rotate(-45)"/><rect class="cls-2" x="17.43" y="45.34" width="1.44" height="1.54" transform="translate(-27.29 26.34) rotate(-45)"/><rect class="cls-2" x="18.52" y="46.43" width="1.45" height="1.55" transform="translate(-27.65 27.21) rotate(-44.72)"/><polygon class="cls-2" points="20.37 49.36 20.5 49.23 20.5 47.44 20.31 47.25 19.28 48.27 20.37 49.36"/><polygon class="cls-2" points="20.5 49.23 20.37 49.36 20.5 49.49 20.5 49.23"/><polygon class="cls-2" points="10.5 39.49 10.5 39.58 10.55 39.53 10.5 39.49"/><polygon class="cls-2" points="11.64 40.63 10.55 39.53 10.5 39.58 10.5 41.54 10.62 41.66 11.64 40.63"/><polygon class="cls-2" points="11.64 40.63 10.62 41.66 11.71 42.75 12.73 41.72 11.64 40.63"/><polygon class="cls-2" points="13.82 42.81 12.73 41.72 11.71 42.75 12.8 43.84 13.82 42.81"/><polygon class="cls-2" points="13.82 42.81 12.8 43.84 13.89 44.93 14.91 43.9 13.82 42.81"/><rect class="cls-2" x="14.22" y="44.19" width="1.45" height="1.55" transform="translate(-27.51 23.93) rotate(-45.26)"/><rect class="cls-2" x="15.31" y="45.28" width="1.46" height="1.54" transform="translate(-27.86 24.83) rotate(-45)"/><rect class="cls-2" x="16.4" y="46.37" width="1.46" height="1.54" transform="translate(-28.32 25.92) rotate(-45)"/><rect class="cls-2" x="17.5" y="47.46" width="1.45" height="1.55" transform="translate(-28.87 27.24) rotate(-45.28)"/><polygon class="cls-2" points="19.35 50.39 20.37 49.36 19.28 48.27 18.26 49.3 19.35 50.39"/><polygon class="cls-2" points="20.44 51.48 20.5 51.42 20.5 49.49 20.37 49.36 19.35 50.39 20.44 51.48"/><polygon class="cls-2" points="20.5 51.42 20.44 51.48 20.5 51.54 20.5 51.42"/><polygon class="cls-2" points="10.5 41.54 10.5 41.77 10.62 41.66 10.5 41.54"/><polygon class="cls-2" points="11.71 42.75 10.62 41.66 10.5 41.77 10.5 43.59 10.68 43.77 11.71 42.75"/><polygon class="cls-2" points="11.71 42.75 10.68 43.77 11.77 44.86 12.8 43.84 11.71 42.75"/><polygon class="cls-2" points="13.89 44.93 12.8 43.84 11.77 44.86 12.86 45.95 13.89 44.93"/><rect class="cls-2" x="13.2" y="45.21" width="1.45" height="1.55" transform="translate(-28.33 23.11) rotate(-44.72)"/><rect class="cls-2" x="14.29" y="46.3" width="1.44" height="1.54" transform="translate(-28.89 24.41) rotate(-45)"/><rect class="cls-2" x="15.38" y="47.39" width="1.45" height="1.55" transform="translate(-29.34 25.5) rotate(-45)"/><polygon class="cls-2" points="18.26 49.3 17.16 48.2 16.14 49.23 17.23 50.32 18.26 49.3"/><polygon class="cls-2" points="18.32 51.41 19.35 50.39 18.26 49.3 17.23 50.32 18.32 51.41"/><rect class="cls-2" x="18.66" y="50.67" width="1.45" height="1.55" transform="translate(-30.7 28.77) rotate(-45)"/><polygon class="cls-2" points="20.5 53.59 20.5 51.54 20.44 51.48 19.42 52.5 20.5 53.59"/><polygon class="cls-2" points="10.5 43.59 10.5 43.95 10.68 43.77 10.5 43.59"/><polygon class="cls-2" points="11.77 44.86 10.68 43.77 10.5 43.95 10.5 45.63 10.75 45.88 11.77 44.86"/><rect class="cls-2" x="11.08" y="45.14" width="1.44" height="1.54" transform="translate(-29.01 21.8) rotate(-45)"/><polygon class="cls-2" points="13.96 47.04 12.86 45.95 11.84 46.97 12.93 48.07 13.96 47.04"/><rect class="cls-2" x="13.26" y="47.33" width="1.46" height="1.54" transform="translate(-29.91 23.98) rotate(-45)"/><polygon class="cls-2" points="16.14 49.23 15.05 48.13 14.02 49.16 15.12 50.25 16.14 49.23"/><rect class="cls-2" x="15.45" y="49.51" width="1.44" height="1.54" transform="translate(-30.82 26.17) rotate(-45)"/><rect class="cls-2" x="16.54" y="50.6" width="1.44" height="1.54" transform="translate(-31.27 27.26) rotate(-45)"/><polygon class="cls-2" points="18.32 51.41 17.3 52.43 18.39 53.53 19.42 52.5 18.32 51.41"/><polygon class="cls-2" points="20.5 53.6 20.5 53.59 19.42 52.5 18.39 53.53 19.48 54.62 20.5 53.6"/><polygon class="cls-2" points="19.48 54.62 20.5 55.63 20.5 53.6 19.48 54.62"/><polygon class="cls-2" points="10.5 45.63 10.5 46.13 10.75 45.88 10.5 45.63"/><polygon class="cls-2" points="11.84 46.97 10.75 45.88 10.5 46.13 10.5 47.69 10.81 48 11.84 46.97"/><polygon class="cls-2" points="11.84 46.97 10.81 48 11.91 49.09 12.93 48.07 11.84 46.97"/><rect class="cls-2" x="12.24" y="48.35" width="1.44" height="1.54" transform="translate(-30.94 23.56) rotate(-45)"/><polygon class="cls-2" points="14.02 49.16 13 50.18 14.09 51.28 15.12 50.25 14.02 49.16"/><rect class="cls-2" x="14.42" y="50.54" width="1.46" height="1.54" transform="translate(-31.84 25.74) rotate(-45)"/><rect class="cls-2" x="15.51" y="51.63" width="1.46" height="1.54" transform="translate(-32.3 26.83) rotate(-45)"/><polygon class="cls-2" points="18.39 53.53 17.3 52.43 16.27 53.46 17.37 54.55 18.39 53.53"/><rect class="cls-2" x="17.7" y="53.81" width="1.44" height="1.54" transform="translate(-33.2 29.02) rotate(-45)"/><polygon class="cls-2" points="20.5 55.78 20.5 55.63 19.48 54.62 18.46 55.64 19.55 56.73 20.5 55.78"/><polygon class="cls-2" points="19.55 56.73 20.5 57.69 20.5 55.78 19.55 56.73"/><polygon class="cls-2" points="10.5 47.69 10.5 48.31 10.81 48 10.5 47.69"/><polygon class="cls-2" points="11.91 49.09 10.81 48 10.5 48.31 10.5 49.73 10.88 50.12 11.91 49.09"/><rect class="cls-2" x="11.21" y="49.38" width="1.46" height="1.54" transform="translate(-31.96 23.13) rotate(-45)"/><polygon class="cls-2" points="14.09 51.28 13 50.18 11.97 51.21 13.07 52.3 14.09 51.28"/><rect class="cls-2" x="13.4" y="51.56" width="1.44" height="1.54" transform="translate(-32.87 25.32) rotate(-45)"/><rect class="cls-2" x="14.49" y="52.65" width="1.44" height="1.54" transform="translate(-33.32 26.41) rotate(-45)"/><rect class="cls-2" x="15.58" y="53.74" width="1.45" height="1.55" transform="translate(-33.77 27.5) rotate(-45)"/><rect class="cls-2" x="16.67" y="54.83" width="1.45" height="1.55" transform="translate(-34.22 28.59) rotate(-45)"/><rect class="cls-2" x="17.76" y="55.93" width="1.46" height="1.54" transform="translate(-34.68 29.68) rotate(-45)"/><polygon class="cls-2" points="20.5 57.97 20.5 57.69 19.55 56.73 18.52 57.76 19.62 58.85 20.5 57.97"/><polygon class="cls-2" points="19.62 58.85 20.5 59.73 20.5 57.97 19.62 58.85"/><polygon class="cls-2" points="10.5 49.73 10.5 50.5 10.88 50.12 10.5 49.73"/><polygon class="cls-2" points="11.97 51.21 10.88 50.12 10.5 50.5 10.5 51.79 10.95 52.23 11.97 51.21"/><polygon class="cls-2" points="11.97 51.21 10.95 52.23 12.04 53.33 13.07 52.3 11.97 51.21"/><rect class="cls-2" x="12.37" y="52.59" width="1.46" height="1.54" transform="translate(-33.89 24.89) rotate(-45)"/><rect class="cls-2" x="13.46" y="53.68" width="1.46" height="1.54" transform="translate(-34.34 25.98) rotate(-45)"/><rect class="cls-2" x="14.55" y="54.77" width="1.46" height="1.54" transform="translate(-34.8 27.07) rotate(-45)"/><polygon class="cls-2" points="16.34 55.57 15.31 56.6 16.41 57.69 17.43 56.67 16.34 55.57"/><rect class="cls-2" x="16.74" y="56.95" width="1.44" height="1.54" transform="translate(-35.7 29.26) rotate(-45)"/><polygon class="cls-2" points="18.52 57.76 17.5 58.78 18.59 59.88 19.62 58.85 18.52 57.76"/><polygon class="cls-2" points="20.5 60.15 20.5 59.73 19.62 58.85 18.59 59.88 19.68 60.97 20.5 60.15"/><polygon class="cls-2" points="19.68 60.97 20.5 61.79 20.5 60.15 19.68 60.97"/><polygon class="cls-2" points="10.5 51.79 10.5 52.68 10.95 52.23 10.5 51.79"/><polygon class="cls-2" points="12.04 53.33 10.95 52.23 10.5 52.68 10.5 53.83 11.02 54.35 12.04 53.33"/><rect class="cls-2" x="11.35" y="53.61" width="1.44" height="1.54" transform="translate(-34.92 24.47) rotate(-45)"/><rect class="cls-2" x="12.44" y="54.7" width="1.44" height="1.54" transform="translate(-35.37 25.56) rotate(-45)"/><rect class="cls-2" x="13.53" y="55.79" width="1.44" height="1.54" transform="translate(-35.82 26.65) rotate(-45)"/><polygon class="cls-2" points="16.41 57.69 15.31 56.6 14.29 57.62 15.38 58.72 16.41 57.69"/><rect class="cls-2" x="15.71" y="57.98" width="1.46" height="1.54" transform="translate(-36.73 28.83) rotate(-45)"/><polygon class="cls-2" points="18.59 59.88 17.5 58.78 16.47 59.81 17.57 60.9 18.59 59.88"/><rect class="cls-2" x="17.9" y="60.16" width="1.44" height="1.54" transform="translate(-37.63 31.02) rotate(-45)"/><polygon class="cls-2" points="20.5 62.33 20.5 61.79 19.68 60.97 18.66 61.99 19.75 63.08 20.5 62.33"/><polygon class="cls-2" points="19.75 63.08 20.5 63.83 20.5 62.33 19.75 63.08"/><polygon class="cls-2" points="10.5 53.83 10.5 54.87 11.02 54.35 10.5 53.83"/><polygon class="cls-2" points="12.11 55.44 11.02 54.35 10.5 54.87 10.5 55.88 11.09 56.47 12.11 55.44"/><polygon class="cls-2" points="12.11 55.44 11.09 56.47 12.18 57.56 13.2 56.53 12.11 55.44"/><polygon class="cls-2" points="14.29 57.62 13.2 56.53 12.18 57.56 13.27 58.65 14.29 57.62"/><rect class="cls-2" x="13.6" y="57.91" width="1.45" height="1.55" transform="translate(-37.45 27.57) rotate(-45.28)"/><rect class="cls-2" x="14.69" y="59" width="1.44" height="1.54" transform="translate(-37.75 28.41) rotate(-45)"/><rect class="cls-2" x="15.79" y="60.09" width="1.45" height="1.55" transform="translate(-38.2 29.5) rotate(-45)"/><polygon class="cls-2" points="18.66 61.99 17.57 60.9 16.55 61.93 17.64 63.02 18.66 61.99"/><polygon class="cls-2" points="18.66 61.99 17.64 63.02 18.73 64.11 19.75 63.08 18.66 61.99"/><polygon class="cls-2" points="20.5 64.51 20.5 63.83 19.75 63.08 18.73 64.11 19.82 65.2 20.5 64.51"/><polygon class="cls-2" points="19.82 65.2 20.5 65.88 20.5 64.51 19.82 65.2"/><polygon class="cls-2" points="10.5 55.88 10.5 57.05 11.09 56.47 10.5 55.88"/><polygon class="cls-2" points="12.18 57.56 11.09 56.47 10.5 57.05 10.5 57.93 11.15 58.58 12.18 57.56"/><polygon class="cls-2" points="12.18 57.56 11.15 58.58 12.24 59.67 13.27 58.65 12.18 57.56"/><rect class="cls-2" x="12.57" y="58.93" width="1.45" height="1.55" transform="translate(-38.33 26.89) rotate(-45)"/><rect class="cls-2" x="13.66" y="60.03" width="1.46" height="1.54" transform="translate(-38.78 27.98) rotate(-45)"/><rect class="cls-2" x="14.76" y="61.12" width="1.45" height="1.55" transform="translate(-39.23 29.08) rotate(-45)"/><polygon class="cls-2" points="16.55 61.93 15.52 62.95 16.61 64.04 17.64 63.02 16.55 61.93"/><polygon class="cls-2" points="18.73 64.11 17.64 63.02 16.61 64.04 17.7 65.13 18.73 64.11"/><polygon class="cls-2" points="18.73 64.11 17.7 65.13 18.79 66.22 19.82 65.2 18.73 64.11"/><polygon class="cls-2" points="20.5 66.7 20.5 65.88 19.82 65.2 18.79 66.22 19.88 67.32 20.5 66.7"/><polygon class="cls-2" points="19.88 67.32 20.5 67.94 20.5 66.7 19.88 67.32"/><polygon class="cls-2" points="10.5 57.93 10.5 59.23 11.15 58.58 10.5 57.93"/><polygon class="cls-2" points="12.24 59.67 11.15 58.58 10.5 59.23 10.5 59.98 11.22 60.7 12.24 59.67"/><rect class="cls-2" x="11.55" y="59.96" width="1.45" height="1.55" transform="translate(-39.52 26.72) rotate(-45.28)"/><rect class="cls-2" x="12.64" y="61.05" width="1.44" height="1.54" transform="translate(-39.8 27.56) rotate(-45)"/><rect class="cls-2" x="13.74" y="62.14" width="1.45" height="1.55" transform="translate(-40.25 28.65) rotate(-45)"/><polygon class="cls-2" points="16.61 64.04 15.52 62.95 14.5 63.98 15.59 65.07 16.61 64.04"/><polygon class="cls-2" points="16.61 64.04 15.59 65.07 16.68 66.16 17.7 65.13 16.61 64.04"/><polygon class="cls-2" points="18.79 66.22 17.7 65.13 16.68 66.16 17.77 67.25 18.79 66.22"/><rect class="cls-2" x="18.1" y="66.51" width="1.45" height="1.55" transform="translate(-42.23 33.32) rotate(-45.28)"/><polygon class="cls-2" points="20.5 68.88 20.5 67.94 19.88 67.32 18.86 68.34 19.95 69.43 20.5 68.88"/><polygon class="cls-2" points="19.95 69.43 20.5 69.98 20.5 68.88 19.95 69.43"/><polygon class="cls-2" points="10.5 59.98 10.5 61.41 11.22 60.7 10.5 59.98"/><polygon class="cls-2" points="12.31 61.79 11.22 60.7 10.5 61.41 10.5 62.03 11.29 62.82 12.31 61.79"/><polygon class="cls-2" points="12.31 61.79 11.29 62.82 12.38 63.91 13.4 62.88 12.31 61.79"/><polygon class="cls-2" points="14.5 63.98 13.4 62.88 12.38 63.91 13.47 65 14.5 63.98"/><polygon class="cls-2" points="14.5 63.98 13.47 65 14.56 66.09 15.59 65.07 14.5 63.98"/><polygon class="cls-2" points="16.68 66.16 15.59 65.07 14.56 66.09 15.65 67.18 16.68 66.16"/><polygon class="cls-2" points="16.68 66.16 15.65 67.18 16.74 68.27 17.77 67.25 16.68 66.16"/><polygon class="cls-2" points="18.86 68.34 17.77 67.25 16.74 68.27 17.84 69.37 18.86 68.34"/><polygon class="cls-2" points="18.86 68.34 17.84 69.37 18.93 70.46 19.95 69.43 18.86 68.34"/><polygon class="cls-2" points="20.5 71.06 20.5 69.98 19.95 69.43 18.93 70.46 20.02 71.55 20.5 71.06"/><polygon class="cls-2" points="20.5 71.06 20.02 71.55 20.5 72.03 20.5 71.06"/><polygon class="cls-2" points="10.5 62.03 10.5 63.6 11.29 62.82 10.5 62.03"/><polygon class="cls-2" points="12.38 63.91 11.29 62.82 10.5 63.6 10.5 64.08 11.35 64.93 12.38 63.91"/><polygon class="cls-2" points="12.38 63.91 11.35 64.93 12.45 66.03 13.47 65 12.38 63.91"/><polygon class="cls-2" points="14.56 66.09 13.47 65 12.45 66.03 13.54 67.12 14.56 66.09"/><polygon class="cls-2" points="14.56 66.09 13.54 67.12 14.63 68.21 15.65 67.18 14.56 66.09"/><polygon class="cls-2" points="16.74 68.27 15.65 67.18 14.63 68.21 15.72 69.3 16.74 68.27"/><polygon class="cls-2" points="16.74 68.27 15.72 69.3 16.81 70.39 17.84 69.37 16.74 68.27"/><polygon class="cls-2" points="18.93 70.46 17.84 69.37 16.81 70.39 17.9 71.48 18.93 70.46"/><polygon class="cls-2" points="20.02 71.55 18.93 70.46 17.9 71.48 18.99 72.57 20.02 71.55"/><polygon class="cls-2" points="20.5 72.03 20.02 71.55 18.99 72.57 20.09 73.67 20.5 73.25 20.5 72.03"/><polygon class="cls-2" points="20.5 73.25 20.09 73.67 20.5 74.08 20.5 73.25"/><polygon class="cls-2" points="10.5 64.08 10.5 65.78 11.35 64.93 10.5 64.08"/><polygon class="cls-2" points="12.45 66.03 11.35 64.93 10.5 65.78 10.5 66.13 11.42 67.05 12.45 66.03"/><polygon class="cls-2" points="12.45 66.03 11.42 67.05 12.51 68.14 13.54 67.12 12.45 66.03"/><polygon class="cls-2" points="14.63 68.21 13.54 67.12 12.51 68.14 13.6 69.23 14.63 68.21"/><polygon class="cls-2" points="14.63 68.21 13.6 69.23 14.69 70.32 15.72 69.3 14.63 68.21"/><polygon class="cls-2" points="16.81 70.39 15.72 69.3 14.69 70.32 15.79 71.42 16.81 70.39"/><polygon class="cls-2" points="17.9 71.48 16.81 70.39 15.79 71.42 16.88 72.51 17.9 71.48"/><polygon class="cls-2" points="17.9 71.48 16.88 72.51 17.97 73.6 18.99 72.57 17.9 71.48"/><polygon class="cls-2" points="20.09 73.67 18.99 72.57 17.97 73.6 19.06 74.69 20.09 73.67"/><polygon class="cls-2" points="20.5 74.08 20.09 73.67 19.06 74.69 20.15 75.78 20.5 75.43 20.5 74.08"/><polygon class="cls-2" points="20.5 75.43 20.15 75.78 20.5 76.13 20.5 75.43"/><polygon class="cls-2" points="10.5 66.13 10.5 67.97 11.42 67.05 10.5 66.13"/><polygon class="cls-2" points="12.51 68.14 11.42 67.05 10.5 67.97 10.5 68.18 11.49 69.17 12.51 68.14"/><polygon class="cls-2" points="12.51 68.14 11.49 69.17 12.58 70.26 13.6 69.23 12.51 68.14"/><polygon class="cls-2" points="14.69 70.32 13.6 69.23 12.58 70.26 13.67 71.35 14.69 70.32"/><polygon class="cls-2" points="15.79 71.42 14.69 70.32 13.67 71.35 14.76 72.44 15.79 71.42"/><polygon class="cls-2" points="15.79 71.42 14.76 72.44 15.85 73.53 16.88 72.51 15.79 71.42"/><polygon class="cls-2" points="17.97 73.6 16.88 72.51 15.85 73.53 16.94 74.62 17.97 73.6"/><polygon class="cls-2" points="17.97 73.6 16.94 74.62 18.04 75.72 19.06 74.69 17.97 73.6"/><polygon class="cls-2" points="20.15 75.78 19.06 74.69 18.04 75.72 19.13 76.81 20.15 75.78"/><polygon class="cls-2" points="20.5 76.13 20.15 75.78 19.13 76.81 20.22 77.9 20.5 77.61 20.5 76.13"/><polygon class="cls-2" points="20.5 77.61 20.22 77.9 20.5 78.18 20.5 77.61"/><polygon class="cls-2" points="10.5 68.18 10.5 70.15 11.49 69.17 10.5 68.18"/><polygon class="cls-2" points="12.58 70.26 11.49 69.17 10.5 70.15 10.5 70.23 11.55 71.28 12.58 70.26"/><polygon class="cls-2" points="13.67 71.35 12.58 70.26 11.55 71.28 12.64 72.37 13.67 71.35"/><polygon class="cls-2" points="13.67 71.35 12.64 72.37 13.74 73.47 14.76 72.44 13.67 71.35"/><polygon class="cls-2" points="15.85 73.53 14.76 72.44 13.74 73.47 14.83 74.56 15.85 73.53"/><polygon class="cls-2" points="15.85 73.53 14.83 74.56 15.92 75.65 16.94 74.62 15.85 73.53"/><polygon class="cls-2" points="18.04 75.72 16.94 74.62 15.92 75.65 17.01 76.74 18.04 75.72"/><polygon class="cls-2" points="18.04 75.72 17.01 76.74 18.1 77.83 19.13 76.81 18.04 75.72"/><polygon class="cls-2" points="20.22 77.9 19.13 76.81 18.1 77.83 19.19 78.92 20.22 77.9"/><polygon class="cls-2" points="20.5 78.18 20.22 77.9 19.19 78.92 20.28 80.01 20.5 79.79 20.5 78.18"/><polygon class="cls-2" points="20.5 79.79 20.28 80.01 20.5 80.23 20.5 79.79"/><polygon class="cls-2" points="11.55 71.28 10.5 70.23 10.5 72.28 10.53 72.31 11.55 71.28"/><polygon class="cls-2" points="11.55 71.28 10.53 72.31 11.62 73.4 12.64 72.37 11.55 71.28"/><polygon class="cls-2" points="13.74 73.47 12.64 72.37 11.62 73.4 12.71 74.49 13.74 73.47"/><polygon class="cls-2" points="13.74 73.47 12.71 74.49 13.8 75.58 14.83 74.56 13.74 73.47"/><polygon class="cls-2" points="15.92 75.65 14.83 74.56 13.8 75.58 14.89 76.67 15.92 75.65"/><polygon class="cls-2" points="15.92 75.65 14.89 76.67 15.99 77.77 17.01 76.74 15.92 75.65"/><polygon class="cls-2" points="18.1 77.83 17.01 76.74 15.99 77.77 17.08 78.86 18.1 77.83"/><polygon class="cls-2" points="18.1 77.83 17.08 78.86 18.17 79.95 19.19 78.92 18.1 77.83"/><polygon class="cls-2" points="20.28 80.01 19.19 78.92 18.17 79.95 19.26 81.04 20.28 80.01"/><polygon class="cls-2" points="20.5 80.23 20.28 80.01 19.26 81.04 20.35 82.13 20.5 81.98 20.5 80.23"/><polygon class="cls-2" points="20.5 81.98 20.35 82.13 20.5 82.28 20.5 81.98"/><polygon class="cls-2" points="10.5 72.28 10.5 72.33 10.53 72.31 10.5 72.28"/><polygon class="cls-2" points="11.62 73.4 10.53 72.31 10.5 72.33 10.5 74.33 10.59 74.42 11.62 73.4"/><polygon class="cls-2" points="11.62 73.4 10.59 74.42 11.69 75.52 12.71 74.49 11.62 73.4"/><polygon class="cls-2" points="13.8 75.58 12.71 74.49 11.69 75.52 12.78 76.61 13.8 75.58"/><polygon class="cls-2" points="13.8 75.58 12.78 76.61 13.87 77.7 14.89 76.67 13.8 75.58"/><polygon class="cls-2" points="15.99 77.77 14.89 76.67 13.87 77.7 14.96 78.79 15.99 77.77"/><polygon class="cls-2" points="15.99 77.77 14.96 78.79 16.05 79.88 17.08 78.86 15.99 77.77"/><polygon class="cls-2" points="18.17 79.95 17.08 78.86 16.05 79.88 17.14 80.97 18.17 79.95"/><polygon class="cls-2" points="18.17 79.95 17.14 80.97 18.23 82.06 19.26 81.04 18.17 79.95"/><polygon class="cls-2" points="20.35 82.13 19.26 81.04 18.23 82.06 19.33 83.16 20.35 82.13"/><polygon class="cls-2" points="20.5 82.28 20.35 82.13 19.33 83.16 20.42 84.25 20.5 84.16 20.5 82.28"/><polygon class="cls-2" points="20.5 84.16 20.42 84.25 20.5 84.33 20.5 84.16"/><polygon class="cls-2" points="10.5 74.33 10.5 74.51 10.59 74.42 10.5 74.33"/><polygon class="cls-2" points="11.69 75.52 10.59 74.42 10.5 74.51 10.5 76.38 10.66 76.54 11.69 75.52"/><polygon class="cls-2" points="11.69 75.52 10.66 76.54 11.75 77.63 12.78 76.61 11.69 75.52"/><polygon class="cls-2" points="13.87 77.7 12.78 76.61 11.75 77.63 12.84 78.72 13.87 77.7"/><polygon class="cls-2" points="13.87 77.7 12.84 78.72 13.94 79.82 14.96 78.79 13.87 77.7"/><polygon class="cls-2" points="16.05 79.88 14.96 78.79 13.94 79.82 15.03 80.91 16.05 79.88"/><polygon class="cls-2" points="16.05 79.88 15.03 80.91 16.12 82 17.14 80.97 16.05 79.88"/><polygon class="cls-2" points="18.23 82.06 17.14 80.97 16.12 82 17.21 83.09 18.23 82.06"/><polygon class="cls-2" points="18.23 82.06 17.21 83.09 18.3 84.18 19.33 83.16 18.23 82.06"/><polygon class="cls-2" points="20.42 84.25 19.33 83.16 18.3 84.18 19.39 85.27 20.42 84.25"/><polygon class="cls-2" points="20.5 84.33 20.42 84.25 19.39 85.27 20.49 86.37 20.5 86.35 20.5 84.33"/><polygon class="cls-2" points="10.5 76.38 10.5 76.7 10.66 76.54 10.5 76.38"/><polygon class="cls-2" points="11.75 77.63 10.66 76.54 10.5 76.7 10.5 78.42 10.73 78.65 11.75 77.63"/><rect class="cls-2" x="11.06" y="77.91" width="1.44" height="1.54" transform="translate(-52.19 31.38) rotate(-45)"/><rect class="cls-2" x="12.15" y="79" width="1.45" height="1.55" transform="translate(-52.64 32.47) rotate(-45)"/><polygon class="cls-2" points="13.94 79.82 12.91 80.84 14 81.93 15.03 80.91 13.94 79.82"/><polygon class="cls-2" points="16.12 82 15.03 80.91 14 81.93 15.09 83.02 16.12 82"/><polygon class="cls-2" points="16.12 82 15.09 83.02 16.18 84.11 17.21 83.09 16.12 82"/><rect class="cls-2" x="16.52" y="83.37" width="1.45" height="1.55" transform="translate(-54.45 36.84) rotate(-45)"/><rect class="cls-2" x="17.61" y="84.46" width="1.44" height="1.54" transform="translate(-54.9 37.93) rotate(-45)"/><rect class="cls-2" x="18.7" y="85.55" width="1.45" height="1.55" transform="translate(-55.35 39.02) rotate(-45)"/><polygon class="cls-2" points="20.49 86.37 19.46 87.39 20.5 88.42 20.5 86.38 20.49 86.37"/><polygon class="cls-2" points="10.5 78.42 10.5 78.88 10.73 78.65 10.5 78.42"/><polygon class="cls-2" points="11.82 79.74 10.73 78.65 10.5 78.88 10.5 80.48 10.79 80.77 11.82 79.74"/><rect class="cls-2" x="11.13" y="80.03" width="1.45" height="1.55" transform="translate(-53.67 32.05) rotate(-45)"/><polygon class="cls-2" points="14 81.93 12.91 80.84 11.89 81.87 12.98 82.96 14 81.93"/><polygon class="cls-2" points="14 81.93 12.98 82.96 14.07 84.05 15.09 83.02 14 81.93"/><polygon class="cls-2" points="16.18 84.11 15.09 83.02 14.07 84.05 15.16 85.14 16.18 84.11"/><rect class="cls-2" x="15.49" y="84.4" width="1.45" height="1.55" transform="translate(-55.71 36.77) rotate(-45.28)"/><rect class="cls-2" x="16.58" y="85.49" width="1.46" height="1.54" transform="translate(-55.93 37.5) rotate(-45)"/><rect class="cls-2" x="17.68" y="86.58" width="1.45" height="1.55" transform="translate(-56.38 38.6) rotate(-45)"/><polygon class="cls-2" points="20.5 88.53 20.5 88.42 19.46 87.39 18.44 88.42 19.53 89.51 20.5 88.53"/><polygon class="cls-2" points="19.53 89.51 20.5 90.48 20.5 88.53 19.53 89.51"/><polygon class="cls-2" points="10.5 80.48 10.5 81.06 10.79 80.77 10.5 80.48"/><polygon class="cls-2" points="11.89 81.87 10.79 80.77 10.5 81.06 10.5 82.52 10.86 82.89 11.89 81.87"/><polygon class="cls-2" points="11.89 81.87 10.86 82.89 11.95 83.98 12.98 82.96 11.89 81.87"/><polygon class="cls-2" points="14.07 84.05 12.98 82.96 11.95 83.98 13.04 85.07 14.07 84.05"/><polygon class="cls-2" points="14.07 84.05 13.04 85.07 14.13 86.16 15.16 85.14 14.07 84.05"/><rect class="cls-2" x="14.47" y="85.42" width="1.45" height="1.55" transform="translate(-56.5 35.99) rotate(-45)"/><rect class="cls-2" x="15.56" y="86.51" width="1.44" height="1.54" transform="translate(-56.95 37.08) rotate(-45)"/><rect class="cls-2" x="16.65" y="87.6" width="1.45" height="1.55" transform="translate(-57.4 38.17) rotate(-45)"/><polygon class="cls-2" points="18.44 88.42 17.41 89.44 18.5 90.53 19.53 89.51 18.44 88.42"/><polygon class="cls-2" points="20.5 90.71 20.5 90.48 19.53 89.51 18.5 90.53 19.59 91.62 20.5 90.71"/><polygon class="cls-2" points="20.5 92.52 20.5 90.71 19.59 91.62 20.5 92.52"/><polygon class="cls-2" points="10.5 82.52 10.5 83.25 10.86 82.89 10.5 82.52"/><polygon class="cls-2" points="11.95 83.98 10.86 82.89 10.5 83.25 10.5 84.58 10.93 85 11.95 83.98"/><rect class="cls-2" x="11.26" y="84.26" width="1.44" height="1.54" transform="translate(-56.62 33.38) rotate(-45)"/><rect class="cls-2" x="12.35" y="85.35" width="1.44" height="1.54" transform="translate(-57.07 34.47) rotate(-45)"/><polygon class="cls-2" points="14.13 86.16 13.11 87.18 14.2 88.28 15.23 87.25 14.13 86.16"/><rect class="cls-2" x="14.53" y="87.54" width="1.46" height="1.54" transform="translate(-57.97 36.65) rotate(-45)"/><polygon class="cls-2" points="16.32 88.34 15.29 89.37 16.39 90.46 17.41 89.44 16.32 88.34"/><rect class="cls-2" x="16.72" y="89.72" width="1.44" height="1.54" transform="translate(-58.88 38.84) rotate(-45)"/><rect class="cls-2" x="17.81" y="90.81" width="1.44" height="1.54" transform="translate(-59.33 39.93) rotate(-45)"/><polygon class="cls-2" points="19.59 91.62 18.57 92.64 19.66 93.73 20.5 92.89 20.5 92.52 19.59 91.62"/><polygon class="cls-2" points="20.5 94.58 20.5 92.89 19.66 93.73 20.5 94.58"/><polygon class="cls-2" points="10.5 84.58 10.5 85.43 10.93 85 10.5 84.58"/><polygon class="cls-2" points="12.02 86.09 10.93 85 10.5 85.43 10.5 86.62 10.99 87.12 12.02 86.09"/><rect class="cls-2" x="11.32" y="86.38" width="1.46" height="1.54" transform="translate(-58.09 34.04) rotate(-45)"/><polygon class="cls-2" points="14.2 88.28 13.11 87.18 12.08 88.21 13.18 89.3 14.2 88.28"/><rect class="cls-2" x="13.51" y="88.56" width="1.44" height="1.54" transform="translate(-59 36.23) rotate(-45)"/><polygon class="cls-2" points="16.39 90.46 15.29 89.37 14.27 90.39 15.36 91.49 16.39 90.46"/><rect class="cls-2" x="15.69" y="90.75" width="1.46" height="1.54" transform="translate(-59.91 38.42) rotate(-45)"/><rect class="cls-2" x="16.78" y="91.84" width="1.46" height="1.54" transform="translate(-60.36 39.5) rotate(-45)"/><rect class="cls-2" x="17.87" y="92.93" width="1.46" height="1.54" transform="translate(-60.81 40.6) rotate(-45)"/><polygon class="cls-2" points="19.66 93.73 18.63 94.76 19.73 95.85 20.5 95.08 20.5 94.58 19.66 93.73"/><polygon class="cls-2" points="20.5 96.62 20.5 95.08 19.73 95.85 20.5 96.62"/><polygon class="cls-2" points="10.5 86.62 10.5 87.61 10.99 87.12 10.5 86.62"/><polygon class="cls-2" points="12.08 88.21 10.99 87.12 10.5 87.61 10.5 88.68 11.06 89.23 12.08 88.21"/><polygon class="cls-2" points="12.08 88.21 11.06 89.23 12.15 90.33 13.18 89.3 12.08 88.21"/><rect class="cls-2" x="12.48" y="89.59" width="1.46" height="1.54" transform="translate(-60.03 35.81) rotate(-45)"/><polygon class="cls-2" points="14.27 90.39 13.24 91.42 14.34 92.51 15.36 91.49 14.27 90.39"/><rect class="cls-2" x="14.67" y="91.77" width="1.44" height="1.54" transform="translate(-60.93 37.99) rotate(-45)"/><rect class="cls-2" x="15.76" y="92.86" width="1.44" height="1.54" transform="translate(-61.38 39.08) rotate(-45)"/><rect class="cls-2" x="16.85" y="93.95" width="1.44" height="1.54" transform="translate(-61.83 40.17) rotate(-45)"/><polygon class="cls-2" points="18.63 94.76 17.61 95.78 18.7 96.88 19.73 95.85 18.63 94.76"/><polygon class="cls-2" points="19.73 95.85 18.7 96.88 19.79 97.97 20.5 97.26 20.5 96.62 19.73 95.85"/><polygon class="cls-2" points="20.5 98.68 20.5 97.26 19.79 97.97 20.5 98.68"/><polygon class="cls-2" points="10.5 88.68 10.5 89.79 11.06 89.23 10.5 88.68"/><polygon class="cls-2" points="12.15 90.33 11.06 89.23 10.5 89.79 10.5 90.72 11.13 91.35 12.15 90.33"/><rect class="cls-2" x="11.46" y="90.61" width="1.44" height="1.54" transform="translate(-61.05 35.38) rotate(-45)"/><polygon class="cls-2" points="14.34 92.51 13.24 91.42 12.22 92.44 13.31 93.54 14.34 92.51"/><rect class="cls-2" x="13.64" y="92.8" width="1.46" height="1.54" transform="translate(-61.95 37.56) rotate(-45)"/><rect class="cls-2" x="14.73" y="93.89" width="1.46" height="1.54" transform="translate(-62.41 38.66) rotate(-45)"/><rect class="cls-2" x="15.82" y="94.98" width="1.46" height="1.54" transform="translate(-62.86 39.74) rotate(-45)"/><polygon class="cls-2" points="16.58 96.81 17.68 97.9 18.7 96.88 17.61 95.78 16.58 96.81"/><rect class="cls-2" x="18.01" y="97.16" width="1.44" height="1.54" transform="translate(-63.76 41.93) rotate(-45)"/><polygon class="cls-2" points="19.79 97.97 18.77 98.99 19.86 100.08 20.5 99.44 20.5 98.68 19.79 97.97"/><polygon class="cls-2" points="19.86 100.08 20.28 100.5 20.5 100.5 20.5 99.44 19.86 100.08"/><polygon class="cls-2" points="10.5 90.72 10.5 91.98 11.13 91.35 10.5 90.72"/><polygon class="cls-2" points="12.22 92.44 11.13 91.35 10.5 91.98 10.5 92.78 11.19 93.47 12.22 92.44"/><polygon class="cls-2" points="12.22 92.44 11.19 93.47 12.29 94.56 13.31 93.54 12.22 92.44"/><rect class="cls-2" x="12.62" y="93.82" width="1.44" height="1.54" transform="translate(-62.98 37.14) rotate(-45)"/><rect class="cls-2" x="13.71" y="94.91" width="1.44" height="1.54" transform="translate(-63.43 38.23) rotate(-45)"/><rect class="cls-2" x="14.8" y="96" width="1.44" height="1.54" transform="translate(-63.88 39.32) rotate(-45)"/><polygon class="cls-2" points="16.58 96.81 15.56 97.83 16.65 98.93 17.68 97.9 16.58 96.81"/><rect class="cls-2" x="16.98" y="98.19" width="1.46" height="1.54" transform="translate(-64.79 41.51) rotate(-45)"/><polygon class="cls-2" points="18.77 98.99 17.74 100.02 18.22 100.5 19.44 100.5 19.86 100.08 18.77 98.99"/><polygon class="cls-2" points="19.44 100.5 20.28 100.5 19.86 100.08 19.44 100.5"/><polygon class="cls-2" points="10.5 92.78 10.5 94.16 11.19 93.47 10.5 92.78"/><polygon class="cls-2" points="12.29 94.56 11.19 93.47 10.5 94.16 10.5 94.82 11.27 95.59 12.29 94.56"/><polygon class="cls-2" points="12.29 94.56 11.27 95.59 12.36 96.68 13.38 95.65 12.29 94.56"/><polygon class="cls-2" points="14.47 96.74 13.38 95.65 12.36 96.68 13.45 97.77 14.47 96.74"/><polygon class="cls-2" points="14.47 96.74 13.45 97.77 14.54 98.86 15.56 97.83 14.47 96.74"/><rect class="cls-2" x="14.87" y="98.12" width="1.45" height="1.55" transform="translate(-65.36 39.99) rotate(-45)"/><polygon class="cls-2" points="16.65 98.93 15.63 99.95 16.18 100.5 17.26 100.5 17.74 100.02 16.65 98.93"/><polygon class="cls-2" points="17.26 100.5 18.22 100.5 17.74 100.02 17.26 100.5"/><polygon class="cls-2" points="10.5 94.82 10.5 96.35 11.27 95.59 10.5 94.82"/><polygon class="cls-2" points="12.36 96.68 11.27 95.59 10.5 96.35 10.5 96.88 11.33 97.7 12.36 96.68"/><polygon class="cls-2" points="12.36 96.68 11.33 97.7 12.42 98.79 13.45 97.77 12.36 96.68"/><polygon class="cls-2" points="12.42 98.79 13.51 99.88 14.54 98.86 13.45 97.77 12.42 98.79"/><polygon class="cls-2" points="14.54 98.86 13.51 99.88 14.12 100.5 15.08 100.5 15.63 99.95 14.54 98.86"/><polygon class="cls-2" points="15.08 100.5 16.18 100.5 15.63 99.95 15.08 100.5"/><polygon class="cls-2" points="10.5 96.88 10.5 98.53 11.33 97.7 10.5 96.88"/><polygon class="cls-2" points="12.42 98.79 11.33 97.7 10.5 98.53 10.5 98.92 11.4 99.82 12.42 98.79"/><polygon class="cls-2" points="12.42 98.79 11.4 99.82 12.08 100.5 12.89 100.5 13.51 99.88 12.42 98.79"/><polygon class="cls-2" points="12.89 100.5 14.12 100.5 13.51 99.88 12.89 100.5"/><polygon class="cls-2" points="10.5 98.92 10.5 100.5 10.71 100.5 11.4 99.82 10.5 98.92"/><polygon class="cls-2" points="10.71 100.5 12.08 100.5 11.4 99.82 10.71 100.5"/></g></g></svg>