<svg id="Layer_1" data-name="Layer 1" xmlns="http://www.w3.org/2000/svg" viewBox="0 0 200 200"><defs><style>.cls-1{fill:none;stroke:#000;stroke-miterlimit:10;stroke-width:0.25px;}</style></defs><title>Artboard 7</title><path class="cls-1" d="M95.89,77.94a28.36,28.36,0,0,1,0-14.7h8.24a28.24,28.24,0,0,0,0,14.7Z"/><path class="cls-1" d="M104.11,136.77a28.45,28.45,0,0,0,0-14.72H95.89a28.3,28.3,0,0,1,0,14.7Z"/><path class="cls-1" d="M95.89,92.64a28.36,28.36,0,0,1,0-14.7h8.24a28.22,28.22,0,0,0,0,14.7Z"/><path class="cls-1" d="M95.89,107.35a28.36,28.36,0,0,1,0-14.7h8.24a28.24,28.24,0,0,0,0,14.7Z"/><path class="cls-1" d="M95.89,122.06a28.35,28.35,0,0,1,0-14.7h8.24a28.24,28.24,0,0,0,0,14.7Z"/></svg>