<svg id="Layer_1" data-name="Layer 1" xmlns="http://www.w3.org/2000/svg" viewBox="0 0 200 200"><defs><style>.cls-1{fill:none;stroke:#000;stroke-miterlimit:10;stroke-width:0.25px;}</style></defs><title>Artboard 3</title><path class="cls-1" d="M95.89,92.65a28.3,28.3,0,0,1,0-14.7h8.24a28.31,28.31,0,0,0,0,14.69Z"/><path class="cls-1" d="M104.1,78a28.31,28.31,0,0,0,0-14.72H95.88a28.36,28.36,0,0,1,0,14.7Z"/><path class="cls-1" d="M95.89,136.76a28.3,28.3,0,0,1,0-14.7h8.24a28.31,28.31,0,0,0,0,14.69Z"/><path class="cls-1" d="M104.11,107.36a28.32,28.32,0,0,0,0-14.72H95.89a28.36,28.36,0,0,1,0,14.7Z"/><path class="cls-1" d="M95.89,122.06a28.29,28.29,0,0,1,0-14.7h8.24a28.36,28.36,0,0,0,0,14.7Z"/></svg>