<svg id="Layer_1" data-name="Layer 1" xmlns="http://www.w3.org/2000/svg" viewBox="0 0 200 200"><defs><style>.cls-1{fill:none;stroke:#000;stroke-miterlimit:10;stroke-width:0.25px;}</style></defs><title>Artboard 1</title><path class="cls-1" d="M96.37,75.12a28.36,28.36,0,0,1,0-14.7h8.23a28.25,28.25,0,0,0,0,14.69Z"/><path class="cls-1" d="M104.6,89.83a28.45,28.45,0,0,0,0-14.72H96.38a28.3,28.3,0,0,1,0,14.7Z"/><path class="cls-1" d="M96.37,133.94a28.36,28.36,0,0,1,0-14.7h8.23a28.3,28.3,0,0,0,0,14.7Z"/><path class="cls-1" d="M104.6,104.53a28.4,28.4,0,0,0,0-14.71H96.38a28.3,28.3,0,0,1,0,14.7Z"/><path class="cls-1" d="M104.58,119.23a28.3,28.3,0,0,0,0-14.7H96.36a28.31,28.31,0,0,1,0,14.69Z"/></svg>