<svg id="Layer_1" data-name="Layer 1" xmlns="http://www.w3.org/2000/svg" viewBox="0 0 200 200"><defs><style>.cls-1{fill:none;stroke:#000;stroke-miterlimit:10;stroke-width:0.25px;}</style></defs><title>Artboard 6</title><path class="cls-1" d="M95.41,77.94a28.25,28.25,0,0,1,0-14.69h8.24a28.24,28.24,0,0,0,0,14.7Z"/><path class="cls-1" d="M95.41,92.65a28.3,28.3,0,0,1,0-14.7h8.24a28.24,28.24,0,0,0,0,14.7Z"/><path class="cls-1" d="M95.41,136.76a28.3,28.3,0,0,1,0-14.7h8.24a28.19,28.19,0,0,0,0,14.69Z"/><path class="cls-1" d="M95.41,122.06a28.3,28.3,0,0,1,0-14.7h8.24a28.24,28.24,0,0,0,0,14.7Z"/><path class="cls-1" d="M103.63,107.36a28.45,28.45,0,0,0,0-14.72H95.41a28.3,28.3,0,0,1,0,14.7Z"/></svg>