<svg id="Layer_1" data-name="Layer 1" xmlns="http://www.w3.org/2000/svg" viewBox="0 0 200 200"><defs><style>.cls-1{fill:none;stroke:#000;stroke-miterlimit:10;stroke-width:0.25px;}</style></defs><title>Artboard 2</title><path class="cls-1" d="M95.89,107.36a28.3,28.3,0,0,1,0-14.7h8.24a28.31,28.31,0,0,0,0,14.69Z"/><path class="cls-1" d="M104.11,78a28.32,28.32,0,0,0,0-14.72H95.89a28.36,28.36,0,0,1,0,14.7Z"/><path class="cls-1" d="M104.11,92.66a28.31,28.31,0,0,0,0-14.72H95.89a28.36,28.36,0,0,1,0,14.7Z"/><path class="cls-1" d="M104.11,122.07a28.32,28.32,0,0,0,0-14.72H95.89a28.36,28.36,0,0,1,0,14.7Z"/><path class="cls-1" d="M104.1,136.77a28.22,28.22,0,0,0,0-14.7H95.88a28.36,28.36,0,0,1,0,14.7Z"/></svg>