<svg id="Layer_1" data-name="Layer 1" xmlns="http://www.w3.org/2000/svg" viewBox="0 0 55.67 200"><defs><style>.cls-1{fill:none;stroke:#000;stroke-miterlimit:10;stroke-width:5px;}</style></defs><title>Artboard 5</title><path class="cls-1" d="M10.16,81c-9.7-20-.06-38-.06-38l36.4,0S36.86,61,46.56,81Z"/><path class="cls-1" d="M46.46,43c9.7-20.05,0-38,0-38L10.12,5S19.76,23,10.06,43Z"/><path class="cls-1" d="M10.16,195c-9.7-20.05-.06-38-.06-38l36.4,0s-9.64,17.93.06,38Z"/><path class="cls-1" d="M46.51,119c9.7-20,.05-38,.05-38L10.17,81s9.64,17.93-.06,38Z"/><path class="cls-1" d="M46.46,157c9.7-20.05,0-38,0-38l-36.39,0s9.64,17.93-.06,38Z"/></svg>