<svg id="Layer_1" data-name="Layer 1" xmlns="http://www.w3.org/2000/svg" viewBox="0 0 200 200"><defs><style>.cls-1{fill:none;stroke:#000;stroke-miterlimit:10;stroke-width:0.25px;}</style></defs><title>Artboard 4</title><path class="cls-1" d="M95.26,77.94a28.25,28.25,0,0,1,0-14.69h8.24a28.36,28.36,0,0,0,0,14.7Z"/><path class="cls-1" d="M103.48,92.65a28.28,28.28,0,0,0,0-14.71H95.26a28.36,28.36,0,0,1,0,14.7Z"/><path class="cls-1" d="M95.26,122.05a28.25,28.25,0,0,1,0-14.69h8.24a28.36,28.36,0,0,0,0,14.7Z"/><path class="cls-1" d="M103.48,107.36a28.32,28.32,0,0,0,0-14.72H95.26a28.36,28.36,0,0,1,0,14.7Z"/><path class="cls-1" d="M103.48,136.76a28.24,28.24,0,0,0,0-14.7H95.26a28.36,28.36,0,0,1,0,14.7Z"/></svg>