<svg id="Layer_1" data-name="Layer 1" xmlns="http://www.w3.org/2000/svg" viewBox="0 0 56.33 200"><defs><style>.cls-1{fill:none;stroke:#000;stroke-miterlimit:10;stroke-width:5px;}</style></defs><title>Artboard 6</title><path class="cls-1" d="M9.83,43C.13,23,9.77,5,9.77,5L46.16,5s-9.64,17.93.07,38Z"/><path class="cls-1" d="M9.83,81C.13,61,9.77,43,9.77,43l36.39,0s-9.64,17.93.07,38Z"/><path class="cls-1" d="M9.83,195c-9.7-20.05-.06-38-.06-38l36.39,0s-9.64,17.92.07,38Z"/><path class="cls-1" d="M9.83,157c-9.7-20.06-.06-38-.06-38l36.39,0s-9.64,17.93.07,38Z"/><path class="cls-1" d="M46.18,119c9.7-20.05,0-38,0-38L9.84,81s9.64,17.93-.06,38Z"/></svg>