<svg id="Layer_1" data-name="Layer 1" xmlns="http://www.w3.org/2000/svg" viewBox="0 0 55.67 200"><defs><style>.cls-1{fill:none;stroke:#000;stroke-miterlimit:10;stroke-width:5px;}</style></defs><title>Artboard 2</title><path class="cls-1" d="M10.16,119c-9.7-20-.06-38-.06-38l36.39,0s-9.64,17.93.06,38Z"/><path class="cls-1" d="M46.5,43c9.7-20.05,0-38,0-38L10.17,5S19.81,23,10.11,43Z"/><path class="cls-1" d="M46.5,81c9.7-20,0-38,0-38L10.17,43S19.81,61,10.11,81Z"/><path class="cls-1" d="M46.51,157c9.7-20.05,0-38,0-38l-36.36,0s9.63,17.93-.07,38Z"/><path class="cls-1" d="M46.46,195c9.7-20.05.06-38,.06-38l-36.38,0s9.63,17.93-.07,38Z"/></svg>