<svg id="Layer_1" data-name="Layer 1" xmlns="http://www.w3.org/2000/svg" viewBox="0 0 57 200"><defs><style>.cls-1{fill:none;stroke:#000;stroke-miterlimit:10;stroke-width:5px;}</style></defs><title>Artboard 7</title><path class="cls-1" d="M11.17,43C1.45,23,11.1,5,11.1,5L47.54,5s-9.65,17.93.07,38Z"/><path class="cls-1" d="M47.5,195c9.72-20.05,0-38,0-38l-36.42,0s9.65,17.93-.07,38Z"/><path class="cls-1" d="M11.17,81c-9.72-20-.07-38-.07-38l36.44,0s-9.65,17.93.07,38Z"/><path class="cls-1" d="M11.17,119c-9.72-20-.07-38-.07-38l36.44,0s-9.65,17.93.07,38Z"/><path class="cls-1" d="M11.17,157c-9.72-20.05-.07-38-.07-38l36.44,0s-9.65,17.93.07,38Z"/></svg>