<svg id="Layer_1" data-name="Layer 1" xmlns="http://www.w3.org/2000/svg" viewBox="0 0 200 200"><defs><style>.cls-1{fill:blue;}</style></defs><title>Artboard 2</title><path d="M68.84,77.25A22.75,22.75,0,1,1,46.09,100,22.77,22.77,0,0,1,68.84,77.25m0-.25a23,23,0,1,0,23,23,23,23,0,0,0-23-23Z"/><path d="M93.59,75.25v49.5H44.09V75.25h49.5m.25-.25h-50v50h50V75Z"/><polygon class="cls-1" points="95.76 75.63 155.93 75.63 125.84 124.76 95.76 75.63"/><path d="M155.71,75.75l-29.87,48.77L96,75.75h59.73m.45-.25H95.53L125.84,125l30.32-49.5Z"/></svg>