<svg id="Layer_1" data-name="Layer 1" xmlns="http://www.w3.org/2000/svg" viewBox="0 0 200 90.25"><defs><style>.cls-1{fill:blue;}</style></defs><title>Artboard 2</title><path d="M46.05,8.42A36.83,36.83,0,1,1,9.21,45.25,36.88,36.88,0,0,1,46.05,8.42m0-3A39.83,39.83,0,1,0,85.88,45.25,39.84,39.84,0,0,0,46.05,5.42Z"/><path d="M86.34,5V85.54H5.75V5H86.34m3-3H2.75V88.54H89.34V2Z"/><polygon class="cls-1" points="94.94 4.32 194.57 4.32 144.76 85.67 94.94 4.32"/><path d="M191.9,5.82l-47.14,77-47.14-77H191.9m5.35-3h-105l52.49,85.72L197.25,2.82Z"/></svg>