<svg id="Layer_1" data-name="Layer 1" xmlns="http://www.w3.org/2000/svg" viewBox="0 0 200 67"><defs><style>.cls-1{fill:blue;}</style></defs><title>Artboard 1</title><circle class="cls-1" cx="167.36" cy="33.69" r="29.14"/><path d="M167.36,6.06a27.64,27.64,0,1,1-27.63,27.63A27.66,27.66,0,0,1,167.36,6.06m0-3A30.64,30.64,0,1,0,198,33.69,30.63,30.63,0,0,0,167.36,3.06Z"/><path d="M131.53,6.06V61.33H76.26V6.06h55.27m3-3H73.26V64.33h61.27V3.06Z"/><path d="M37,10.28,66.85,61.94H7.2L37,10.28m0-6L2,64.94H72L37,4.28Z"/></svg>