<svg id="Layer_1" data-name="Layer 1" xmlns="http://www.w3.org/2000/svg" viewBox="0 0 200 200"><defs><style>.cls-1{fill:none;stroke:#000;stroke-miterlimit:10;stroke-width:0.25px;}</style></defs><title>Artboard 2</title><rect class="cls-1" x="75" y="75" width="50" height="50"/><path d="M112.5,79.25a1.25,1.25,0,1,1-1.25,1.25,1.25,1.25,0,0,1,1.25-1.25m0-.25a1.5,1.5,0,1,0,1.5,1.5,1.5,1.5,0,0,0-1.5-1.5Z"/><path d="M119.5,84.25a1.25,1.25,0,1,1-1.25,1.25,1.25,1.25,0,0,1,1.25-1.25m0-.25a1.5,1.5,0,1,0,1.5,1.5,1.5,1.5,0,0,0-1.5-1.5Z"/><path d="M113.5,120.25a1.25,1.25,0,1,1-1.25,1.25,1.25,1.25,0,0,1,1.25-1.25m0-.25a1.5,1.5,0,1,0,1.5,1.5,1.5,1.5,0,0,0-1.5-1.5Z"/><path d="M78.5,113.25a1.25,1.25,0,1,1-1.25,1.25,1.25,1.25,0,0,1,1.25-1.25m0-.25a1.5,1.5,0,1,0,1.5,1.5,1.5,1.5,0,0,0-1.5-1.5Z"/><path d="M85.5,87.25a1.25,1.25,0,1,1-1.25,1.25,1.25,1.25,0,0,1,1.25-1.25m0-.25A1.5,1.5,0,1,0,87,88.5,1.5,1.5,0,0,0,85.5,87Z"/><path d="M96.5,103.25a1.25,1.25,0,1,1-1.25,1.25,1.25,1.25,0,0,1,1.25-1.25m0-.25a1.5,1.5,0,1,0,1.5,1.5,1.5,1.5,0,0,0-1.5-1.5Z"/></svg>