<svg id="Layer_1" data-name="Layer 1" xmlns="http://www.w3.org/2000/svg" viewBox="0 0 200 176"><title>Artboard 7</title><path d="M146.11,9.13,192.23,89l-46.12,79.87H53.89L7.77,89,53.89,9.13h92.22m2.89-5H51L2,89l49,84.87h98L198,89,149,4.13Z"/><path d="M67.66,59.6a2.94,2.94,0,1,0,2.94,2.94,2.94,2.94,0,0,0-2.94-2.94Z"/><path d="M134.3,140a2.94,2.94,0,1,0,2.94,2.94A2.94,2.94,0,0,0,134.3,140Z"/><path d="M67.66,157.6a2.94,2.94,0,1,0,2.94,2.94,2.94,2.94,0,0,0-2.94-2.94Z"/><path d="M159.78,73.32a2.94,2.94,0,1,0,2.94,2.94,2.94,2.94,0,0,0-2.94-2.94Z"/></svg>