<svg id="Layer_1" data-name="Layer 1" xmlns="http://www.w3.org/2000/svg" viewBox="0 0 200 200"><title>Artboard 3</title><path d="M100,50.28,138.87,69l9.61,42.06L121.57,144.8H78.43L51.52,111.06,61.13,69,100,50.28m0-.28L60.91,68.83l-9.66,42.3,27.06,33.92h43.38l27.06-33.92-9.66-42.3L100,50Z"/><path d="M85.5,68.25a1.25,1.25,0,1,1-1.25,1.25,1.25,1.25,0,0,1,1.25-1.25m0-.25A1.5,1.5,0,1,0,87,69.5,1.5,1.5,0,0,0,85.5,68Z"/><path d="M79.5,103.25a1.25,1.25,0,1,1-1.25,1.25,1.25,1.25,0,0,1,1.25-1.25m0-.25a1.5,1.5,0,1,0,1.5,1.5,1.5,1.5,0,0,0-1.5-1.5Z"/><path d="M124.5,122.25a1.25,1.25,0,1,1-1.25,1.25,1.25,1.25,0,0,1,1.25-1.25m0-.25a1.5,1.5,0,1,0,1.5,1.5,1.5,1.5,0,0,0-1.5-1.5Z"/></svg>