<svg id="Layer_1" data-name="Layer 1" xmlns="http://www.w3.org/2000/svg" viewBox="0 0 200 194"><title>Artboard3</title><path d="M100,7l74.25,35.75,18.34,80.35-51.38,64.43H58.79L7.41,123.11,25.75,42.76,100,7m0-5.55L21.41,39.3,2,124.35l54.39,68.19h87.22L198,124.35l-19.41-85L100,1.46Z"/><path d="M70.85,42.64a5,5,0,1,1-5,5,5,5,0,0,1,5-5m0-5a10,10,0,1,0,10,10,10,10,0,0,0-10-10Z"/><path d="M58.79,113a5,5,0,1,1-5,5,5,5,0,0,1,5-5m0-5a10,10,0,1,0,10,10,10,10,0,0,0-10-10Z"/><path d="M149.25,151.21a5,5,0,1,1-5,5,5,5,0,0,1,5-5m0-5a10,10,0,1,0,10,10,10,10,0,0,0-10-10Z"/></svg>