<svg id="Layer_1" data-name="Layer 1" xmlns="http://www.w3.org/2000/svg" viewBox="0 0 200 190"><defs><style>.cls-1{fill:blue;}</style></defs><title>Artboard 1</title><path d="M100,7.59l92.12,66.93-35.19,108.3H43.07L7.88,74.52,100,7.59m0-6.18L2,72.61,39.43,187.82H160.57L198,72.61,100,1.41Z"/><path class="cls-1" d="M73.21,50.37a5.69,5.69,0,1,1,5.68-5.68A5.69,5.69,0,0,1,73.21,50.37Z"/><path d="M73.21,39.5A5.19,5.19,0,1,1,68,44.69a5.19,5.19,0,0,1,5.18-5.19m0-1a6.19,6.19,0,1,0,6.18,6.19,6.18,6.18,0,0,0-6.18-6.19Z"/><circle class="cls-1" cx="52.6" cy="151.85" r="5.68"/><path d="M52.6,146.67a5.18,5.18,0,1,1-5.18,5.18,5.18,5.18,0,0,1,5.18-5.18m0-1a6.18,6.18,0,1,0,6.18,6.18,6.18,6.18,0,0,0-6.18-6.18Z"/><circle class="cls-1" cx="139.16" cy="168.34" r="5.68"/><path d="M139.16,163.16a5.18,5.18,0,1,1-5.19,5.18,5.19,5.19,0,0,1,5.19-5.18m0-1a6.18,6.18,0,1,0,6.18,6.18,6.18,6.18,0,0,0-6.18-6.18Z"/><circle class="cls-1" cx="122.67" cy="57.05" r="5.68"/><path d="M122.67,51.87a5.19,5.19,0,1,1-5.18,5.18,5.18,5.18,0,0,1,5.18-5.18m0-1a6.19,6.19,0,1,0,6.18,6.18,6.18,6.18,0,0,0-6.18-6.18Z"/><circle class="cls-1" cx="110.3" cy="24.08" r="5.68"/><path d="M110.3,18.9a5.18,5.18,0,1,1-5.18,5.18,5.19,5.19,0,0,1,5.18-5.18m0-1a6.18,6.18,0,1,0,6.19,6.18,6.18,6.18,0,0,0-6.19-6.18Z"/></svg>