<svg id="Layer_1" data-name="Layer 1" xmlns="http://www.w3.org/2000/svg" viewBox="0 0 200 176"><title>Artboard7</title><path d="M146.11,9.13,192.23,89l-46.12,79.87H53.89L7.77,89,53.89,9.13h92.22m2.89-5H51L2,89l49,84.87h98L198,89,149,4.13Z"/><path d="M67.66,33.6a5,5,0,1,1-5,5,5,5,0,0,1,5-5m0-5a10,10,0,1,0,10,10,10,10,0,0,0-10-10Z"/><path d="M139.3,117a5,5,0,1,1-5,5,5,5,0,0,1,5-5m0-5a10,10,0,1,0,10,10,10,10,0,0,0-10-10Z"/><path d="M68.66,127.6a5,5,0,1,1-5,5,5,5,0,0,1,5-5m0-5a10,10,0,1,0,10,10,10,10,0,0,0-10-10Z"/><path d="M132.78,54.32a5,5,0,1,1-5,5,5,5,0,0,1,5-5m0-5a10,10,0,1,0,10,10,10,10,0,0,0-10-10Z"/></svg>