<svg id="Layer_1" data-name="Layer 1" xmlns="http://www.w3.org/2000/svg" viewBox="0 0 200 178"><defs><style>.cls-1{fill:blue;}</style></defs><title>Artboard 4</title><path d="M146.11,9.13,192.23,89l-46.12,79.87H53.89L7.77,89,53.89,9.13h92.22m2.89-5H51L2,89l49,84.87h98L198,89,149,4.13Z"/><circle class="cls-1" cx="42.18" cy="86.06" r="2.44"/><path d="M42.18,84.12a1.94,1.94,0,1,1-1.94,1.94,1.94,1.94,0,0,1,1.94-1.94m0-1a2.94,2.94,0,1,0,2.94,2.94,2.94,2.94,0,0,0-2.94-2.94Z"/><path class="cls-1" d="M134.3,147.3a2.44,2.44,0,1,1,2.44-2.44A2.44,2.44,0,0,1,134.3,147.3Z"/><path d="M134.3,142.92a1.94,1.94,0,1,1-1.94,1.94,1.94,1.94,0,0,1,1.94-1.94m0-1a2.94,2.94,0,1,0,2.94,2.94,2.94,2.94,0,0,0-2.94-2.94Z"/><path class="cls-1" d="M134.3,23.82a2.44,2.44,0,1,1,2.44-2.44A2.44,2.44,0,0,1,134.3,23.82Z"/><path d="M134.3,19.44a1.94,1.94,0,1,1-1.94,1.94,1.94,1.94,0,0,1,1.94-1.94m0-1a2.94,2.94,0,1,0,2.94,2.94,2.94,2.94,0,0,0-2.94-2.94Z"/></svg>