<svg id="Layer_1" data-name="Layer 1" xmlns="http://www.w3.org/2000/svg" viewBox="0 0 200 200"><defs><style>.cls-1{fill:none;stroke:#000;stroke-miterlimit:10;stroke-width:5px;}</style></defs><title>Artboard2</title><rect class="cls-1" x="9" y="9" width="182" height="182"/><path d="M145.5,28.56a5,5,0,1,1-5,5,5,5,0,0,1,5-5m0-5a10,10,0,1,0,10,10,10,10,0,0,0-10-10Z"/><path d="M169,64.76a5,5,0,1,1-5,5,5,5,0,0,1,5-5m0-5a10,10,0,1,0,10,10,10,10,0,0,0-10-10Z"/><path d="M149.14,169.8a5,5,0,1,1-5,5,5,5,0,0,1,5-5m0-5a10,10,0,1,0,10,10,10,10,0,0,0-10-10Z"/><path d="M26.74,141.32a5,5,0,1,1-5,5,5,5,0,0,1,5-5m0-5a10,10,0,1,0,10,10,10,10,0,0,0-10-10Z"/><path d="M47.22,57.68a5,5,0,1,1-5,5,5,5,0,0,1,5-5m0-5a10,10,0,1,0,10,10,10,10,0,0,0-10-10Z"/><path d="M87.26,115.92a5,5,0,1,1-5,5,5,5,0,0,1,5-5m0-5a10,10,0,1,0,10,10,10,10,0,0,0-10-10Z"/></svg>