<svg id="Layer_1" data-name="Layer 1" xmlns="http://www.w3.org/2000/svg" viewBox="0 0 200 200"><title>Artboard 7</title><path d="M124.86,57,149.71,100l-24.85,43.05H75.14L50.29,100,75.14,57h49.72m.14-.25H75L50,100l25,43.3h50L150,100,125,56.7Z"/><path d="M83.5,85.25a1.25,1.25,0,1,1-1.25,1.25,1.25,1.25,0,0,1,1.25-1.25m0-.25A1.5,1.5,0,1,0,85,86.5,1.5,1.5,0,0,0,83.5,85Z"/><path d="M117.5,126.25a1.25,1.25,0,1,1-1.25,1.25,1.25,1.25,0,0,1,1.25-1.25m0-.25a1.5,1.5,0,1,0,1.5,1.5,1.5,1.5,0,0,0-1.5-1.5Z"/><path d="M83.5,135.25a1.25,1.25,0,1,1-1.25,1.25,1.25,1.25,0,0,1,1.25-1.25m0-.25a1.5,1.5,0,1,0,1.5,1.5,1.5,1.5,0,0,0-1.5-1.5Z"/><path d="M130.5,92.25a1.25,1.25,0,1,1-1.25,1.25,1.25,1.25,0,0,1,1.25-1.25m0-.25a1.5,1.5,0,1,0,1.5,1.5,1.5,1.5,0,0,0-1.5-1.5Z"/></svg>