<svg id="Layer_1" data-name="Layer 1" xmlns="http://www.w3.org/2000/svg" viewBox="0 0 200 180"><defs><style>.cls-1{fill:blue;}</style></defs><title>Artboard 5</title><path d="M145.61,9.26,192.23,90l-46.62,80.74H52.39L5.77,90,52.39,9.26h93.22m2.89-5h-99L0,90l49.5,85.74h99L198,90,148.5,4.26Z"/><path class="cls-1" d="M66.33,65.74a2.47,2.47,0,1,1,2.47-2.47A2.48,2.48,0,0,1,66.33,65.74Z"/><path d="M66.33,61.3a2,2,0,1,1-2,2,2,2,0,0,1,2-2m0-1a3,3,0,1,0,3,3,3,3,0,0,0-3-3Z"/><path class="cls-1" d="M125.73,170.68a2.47,2.47,0,1,1,2.47-2.47A2.48,2.48,0,0,1,125.73,170.68Z"/><path d="M125.73,166.24a2,2,0,1,1-2,2,2,2,0,0,1,2-2m0-1a3,3,0,1,0,3,3,3,3,0,0,0-3-3Z"/><path class="cls-1" d="M56.43,152.86a2.47,2.47,0,1,1,2.47-2.47A2.48,2.48,0,0,1,56.43,152.86Z"/><path d="M56.43,148.42a2,2,0,1,1-2,2,2,2,0,0,1,2-2m0-1a3,3,0,1,0,3,3,3,3,0,0,0-3-3Z"/><path class="cls-1" d="M159.39,79.6a2.47,2.47,0,1,1,2.47-2.47A2.48,2.48,0,0,1,159.39,79.6Z"/><path d="M159.39,75.16a2,2,0,1,1-2,2,2,2,0,0,1,2-2m0-1a3,3,0,1,0,3,3,3,3,0,0,0-3-3Z"/></svg>