<svg id="Layer_1" data-name="Layer 1" xmlns="http://www.w3.org/2000/svg" viewBox="0 0 200 191"><defs><style>.cls-1{fill:blue;}</style></defs><title>Artboard 6</title><path d="M100,8l92.12,66.93L156.93,183.2H43.07L7.88,74.91,100,8m0-6.18L2,73,39.43,188.2H160.57L198,73,100,1.8Z"/><circle class="cls-1" cx="73.21" cy="45.07" r="5.68"/><path d="M73.21,39.89A5.19,5.19,0,1,1,68,45.07a5.19,5.19,0,0,1,5.18-5.18m0-1a6.19,6.19,0,1,0,6.18,6.18,6.18,6.18,0,0,0-6.18-6.18Z"/><path class="cls-1" d="M52.6,157.92a5.68,5.68,0,1,1,5.68-5.68A5.69,5.69,0,0,1,52.6,157.92Z"/><path d="M52.6,147.06a5.18,5.18,0,1,1-5.18,5.18,5.18,5.18,0,0,1,5.18-5.18m0-1a6.18,6.18,0,1,0,6.18,6.18,6.18,6.18,0,0,0-6.18-6.18Z"/><circle class="cls-1" cx="122.67" cy="57.44" r="5.68"/><path d="M122.67,52.26a5.18,5.18,0,1,1-5.18,5.18,5.18,5.18,0,0,1,5.18-5.18m0-1a6.18,6.18,0,1,0,6.18,6.18,6.18,6.18,0,0,0-6.18-6.18Z"/><circle class="cls-1" cx="110.3" cy="24.47" r="5.68"/><path d="M110.3,19.28a5.19,5.19,0,1,1-5.18,5.19,5.2,5.2,0,0,1,5.18-5.19m0-1a6.19,6.19,0,1,0,6.19,6.19,6.19,6.19,0,0,0-6.19-6.19Z"/></svg>