<svg xmlns="http://www.w3.org/2000/svg" viewBox="0 0 131.13 131"><defs><style>.cls-1,.cls-2{stroke:#000;stroke-miterlimit:10;}.cls-2{fill:none;}</style></defs><title>Artboard5</title><g id="Layer_2" data-name="Layer 2"><g id="Layer_1-2" data-name="Layer 1"><path class="cls-1" d="M55.5,5.55a50,50,0,0,0-50,50h50Z"/><path class="cls-2" d="M55.74,125.33v-50h-50A50,50,0,0,0,55.74,125.33Z"/><path class="cls-2" d="M125.53,55.55a50,50,0,0,0-50-50v50Z"/><path class="cls-1" d="M75,125.33a50,50,0,0,0,50-50H75Z"/><path class="cls-2" d="M60.5.55a60,60,0,0,0-60,60h60Z"/><path class="cls-2" d="M130.53,60.55a60,60,0,0,0-60-60v60Z"/><path class="cls-2" d="M60.74,130.33v-60H.74A60,60,0,0,0,60.74,130.33Z"/><path class="cls-2" d="M130,70.33H70v60A60,60,0,0,0,130,70.33Z"/><line class="cls-2" x1="62.84" y1="131" x2="62.84"/><line class="cls-2" x1="67.77" y1="131" x2="67.77"/><line class="cls-2" x1="131.13" y1="67.78" x2="0.13" y2="67.78"/><line class="cls-2" x1="131.13" y1="62.86" x2="0.13" y2="62.86"/></g></g></svg>