<svg id="Layer_1" data-name="Layer 1" xmlns="http://www.w3.org/2000/svg" viewBox="0 0 200 200"><defs><style>.cls-1{fill:blue;}</style></defs><title>Artboard 3</title><path d="M100,86.25A19.75,19.75,0,1,1,80.25,106,19.77,19.77,0,0,1,100,86.25m0-.25a20,20,0,1,0,20,20,20,20,0,0,0-20-20Z"/><path d="M99.5,135.25A6.75,6.75,0,1,1,92.75,142a6.76,6.76,0,0,1,6.75-6.75m0-.25a7,7,0,1,0,7,7,7,7,0,0,0-7-7Z"/><circle class="cls-1" cx="99.5" cy="142" r="4.88"/><path d="M99.5,137.25A4.75,4.75,0,1,1,94.75,142a4.75,4.75,0,0,1,4.75-4.75m0-.25a5,5,0,1,0,5,5,5,5,0,0,0-5-5Z"/><path d="M100,98.92A7.08,7.08,0,1,1,92.92,106,7.08,7.08,0,0,1,100,98.92m0-.25a7.33,7.33,0,1,0,7.33,7.33A7.33,7.33,0,0,0,100,98.67Z"/><path d="M99.5,57.25A9.75,9.75,0,1,1,89.75,67a9.76,9.76,0,0,1,9.75-9.75m0-.25a10,10,0,1,0,10,10,10,10,0,0,0-10-10Z"/></svg>