<svg id="Layer_1" data-name="Layer 1" xmlns="http://www.w3.org/2000/svg" viewBox="0 0 88 200"><defs><style>.cls-1{fill:blue;}</style></defs><title>Artboard 6</title><path d="M44,115.65A39.18,39.18,0,1,1,4.83,154.83,39.22,39.22,0,0,1,44,115.65m0-3a42.18,42.18,0,1,0,42.17,42.18A42.17,42.17,0,0,0,44,112.65Z"/><path d="M44,50.28A28.63,28.63,0,1,1,15.37,78.91,28.66,28.66,0,0,1,44,50.28m0-3A31.63,31.63,0,1,0,75.63,78.91,31.63,31.63,0,0,0,44,47.28Z"/><circle class="cls-1" cx="44" cy="78.91" r="9.04"/><path d="M44,71.37a7.55,7.55,0,1,1-7.54,7.54A7.55,7.55,0,0,1,44,71.37m0-3A10.55,10.55,0,1,0,54.54,78.91,10.54,10.54,0,0,0,44,68.37Z"/><path d="M44,11.62A12.47,12.47,0,1,1,31.54,24.09,12.48,12.48,0,0,1,44,11.62m0-3A15.47,15.47,0,1,0,59.46,24.09,15.47,15.47,0,0,0,44,8.62Z"/><path d="M44,6A18.09,18.09,0,1,1,25.91,24.09,18.11,18.11,0,0,1,44,6m0-3A21.09,21.09,0,1,0,65.09,24.09,21.09,21.09,0,0,0,44,3Z"/></svg>