<svg id="Layer_1" data-name="Layer 1" xmlns="http://www.w3.org/2000/svg" viewBox="0 0 106 200"><defs><style>.cls-1{fill:blue;}</style></defs><title>Artboard 2</title><path d="M53,44.29A48.05,48.05,0,1,1,5,92.34,48.1,48.1,0,0,1,53,44.29m0-3a51.05,51.05,0,1,0,51.05,51.05A51,51,0,0,0,53,41.29Z"/><path d="M53,6A14.87,14.87,0,1,1,38.13,20.87,14.89,14.89,0,0,1,53,6m0-3A17.87,17.87,0,1,0,70.87,20.87,17.87,17.87,0,0,0,53,3Z"/><path class="cls-1" d="M53,32.13A11.26,11.26,0,1,1,64.26,20.87,11.27,11.27,0,0,1,53,32.13Z"/><path d="M53,11.11a9.76,9.76,0,1,1-9.76,9.76A9.77,9.77,0,0,1,53,11.11m0-3A12.76,12.76,0,1,0,65.76,20.87,12.76,12.76,0,0,0,53,8.11Z"/><path d="M53,76.62A15.72,15.72,0,1,1,37.28,92.34,15.74,15.74,0,0,1,53,76.62m0-3A18.72,18.72,0,1,0,71.72,92.34,18.72,18.72,0,0,0,53,73.62Z"/><path d="M53,149a22.53,22.53,0,1,1-22.53,22.52A22.55,22.55,0,0,1,53,149m0-3a25.53,25.53,0,1,0,25.53,25.52A25.53,25.53,0,0,0,53,146Z"/></svg>