<svg id="Layer_1" data-name="Layer 1" xmlns="http://www.w3.org/2000/svg" viewBox="0 0 200 200"><defs><style>.cls-1{fill:blue;}</style></defs><title>Artboard 7</title><path d="M100,78.25A19.75,19.75,0,1,1,80.25,98,19.77,19.77,0,0,1,100,78.25m0-.25a20,20,0,1,0,20,20,20,20,0,0,0-20-20Z"/><path d="M100,43.25A10.75,10.75,0,1,1,89.25,54,10.76,10.76,0,0,1,100,43.25m0-.25a11,11,0,1,0,11,11,11,11,0,0,0-11-11Z"/><path d="M100,127.25A14.75,14.75,0,1,1,85.25,142,14.77,14.77,0,0,1,100,127.25m0-.25a15,15,0,1,0,15,15,15,15,0,0,0-15-15Z"/><path d="M100,39.25A14.75,14.75,0,1,1,85.25,54,14.77,14.77,0,0,1,100,39.25m0-.25a15,15,0,1,0,15,15,15,15,0,0,0-15-15Z"/><circle class="cls-1" cx="100" cy="142" r="4.88"/><path d="M100,137.25A4.75,4.75,0,1,1,95.25,142a4.75,4.75,0,0,1,4.75-4.75m0-.25a5,5,0,1,0,5,5,5,5,0,0,0-5-5Z"/></svg>