<svg id="Layer_1" data-name="Layer 1" xmlns="http://www.w3.org/2000/svg" viewBox="0 0 200 200"><defs><style>.cls-1{fill:blue;}</style></defs><title>Artboard 4</title><path d="M100,85.25A19.75,19.75,0,1,1,80.25,105,19.77,19.77,0,0,1,100,85.25m0-.25a20,20,0,1,0,20,20,20,20,0,0,0-20-20Z"/><path d="M100,50.25A14.75,14.75,0,1,1,85.25,65,14.77,14.77,0,0,1,100,50.25m0-.25a15,15,0,1,0,15,15,15,15,0,0,0-15-15Z"/><circle class="cls-1" cx="100" cy="65" r="4.88"/><path d="M100,60.25A4.75,4.75,0,1,1,95.25,65,4.75,4.75,0,0,1,100,60.25m0-.25a5,5,0,1,0,5,5,5,5,0,0,0-5-5Z"/><path d="M100,132.92A7.08,7.08,0,1,1,92.92,140a7.08,7.08,0,0,1,7.08-7.08m0-.25a7.33,7.33,0,1,0,7.33,7.33,7.33,7.33,0,0,0-7.33-7.33Z"/><path d="M100,130.25A9.75,9.75,0,1,1,90.25,140a9.76,9.76,0,0,1,9.75-9.75m0-.25a10,10,0,1,0,10,10,10,10,0,0,0-10-10Z"/></svg>