<svg id="Layer_1" data-name="Layer 1" xmlns="http://www.w3.org/2000/svg" viewBox="0 0 106 200"><defs><style>.cls-1{fill:blue;}</style></defs><title>Artboard 3</title><path d="M53,59.61A48.05,48.05,0,1,1,5,107.66,48.1,48.1,0,0,1,53,59.61m0-3a51.05,51.05,0,1,0,51.05,51.05,51,51,0,0,0-51-51Z"/><path d="M53,164.26a14.87,14.87,0,1,1-14.87,14.87A14.89,14.89,0,0,1,53,164.26m0-3a17.87,17.87,0,1,0,17.87,17.87A17.87,17.87,0,0,0,53,161.26Z"/><path class="cls-1" d="M53,190.39a11.26,11.26,0,1,1,11.26-11.26A11.27,11.27,0,0,1,53,190.39Z"/><path d="M53,169.37a9.76,9.76,0,1,1-9.76,9.76A9.77,9.77,0,0,1,53,169.37m0-3a12.76,12.76,0,1,0,12.76,12.76A12.76,12.76,0,0,0,53,166.37Z"/><path d="M53,91.94a15.72,15.72,0,1,1-15.72,15.72A15.74,15.74,0,0,1,53,91.94m0-3a18.72,18.72,0,1,0,18.72,18.72A18.72,18.72,0,0,0,53,88.94Z"/><path d="M53,6A22.53,22.53,0,1,1,30.47,28.53,22.56,22.56,0,0,1,53,6m0-3A25.53,25.53,0,1,0,78.53,28.53,25.53,25.53,0,0,0,53,3Z"/></svg>