<svg id="Layer_1" data-name="Layer 1" xmlns="http://www.w3.org/2000/svg" viewBox="0 0 88 200"><defs><style>.cls-1{fill:blue;}</style></defs><title>Artboard 4</title><path d="M44,71.37A39.18,39.18,0,1,1,4.83,110.54,39.21,39.21,0,0,1,44,71.37m0-3a42.18,42.18,0,1,0,42.17,42.17A42.17,42.17,0,0,0,44,68.37Z"/><path d="M44,6A28.63,28.63,0,1,1,15.37,34.63,28.66,28.66,0,0,1,44,6m0-3A31.63,31.63,0,1,0,75.63,34.63,31.63,31.63,0,0,0,44,3Z"/><circle class="cls-1" cx="44" cy="34.63" r="9.04"/><path d="M44,27.09a7.54,7.54,0,1,1-7.54,7.54A7.55,7.55,0,0,1,44,27.09m0-3A10.54,10.54,0,1,0,54.54,34.63,10.54,10.54,0,0,0,44,24.09Z"/><path d="M44,163.45a12.47,12.47,0,1,1-12.46,12.46A12.47,12.47,0,0,1,44,163.45m0-3a15.47,15.47,0,1,0,15.46,15.46A15.46,15.46,0,0,0,44,160.45Z"/><path d="M44,157.83a18.09,18.09,0,1,1-18.09,18.08A18.11,18.11,0,0,1,44,157.83m0-3a21.09,21.09,0,1,0,21.09,21.08A21.08,21.08,0,0,0,44,154.83Z"/></svg>