<svg id="Layer_1" data-name="Layer 1" xmlns="http://www.w3.org/2000/svg" viewBox="0 0 81 200"><defs><style>.cls-1{fill:blue;}</style></defs><title>Artboard 7</title><path d="M40,65.69A34.31,34.31,0,1,1,5.69,100,34.35,34.35,0,0,1,40,65.69m0-3A37.31,37.31,0,1,0,77.31,100,37.32,37.32,0,0,0,40,62.69Z"/><path d="M40,13.46A17.52,17.52,0,1,1,22.48,31,17.54,17.54,0,0,1,40,13.46m0-3A20.52,20.52,0,1,0,60.52,31,20.52,20.52,0,0,0,40,10.46Z"/><path d="M40,144a25,25,0,1,1-25,25,25,25,0,0,1,25-25m0-3a28,28,0,1,0,28,28,28,28,0,0,0-28-28Z"/><path d="M40,6A25,25,0,1,1,15,31,25,25,0,0,1,40,6m0-3A28,28,0,1,0,68,31,28,28,0,0,0,40,3Z"/><path class="cls-1" d="M40,176.85A7.83,7.83,0,1,1,47.83,169,7.84,7.84,0,0,1,40,176.85Z"/><path d="M40,162.69A6.33,6.33,0,1,1,33.67,169,6.34,6.34,0,0,1,40,162.69m0-3A9.33,9.33,0,1,0,49.33,169,9.33,9.33,0,0,0,40,159.69Z"/></svg>