<svg id="Layer_1" data-name="Layer 1" xmlns="http://www.w3.org/2000/svg" viewBox="0 0 104 200"><defs><style>.cls-1{fill:blue;}</style></defs><title>Artboard 1</title><path d="M52,6A48.06,48.06,0,1,1,4,54.05,48.1,48.1,0,0,1,52,6m0-3a51.06,51.06,0,1,0,51.05,51.05A51,51,0,0,0,52,3Z"/><path d="M52,110.66a14.87,14.87,0,1,1-14.87,14.87A14.89,14.89,0,0,1,52,110.66m0-3a17.87,17.87,0,1,0,17.87,17.87A17.87,17.87,0,0,0,52,107.66Z"/><circle class="cls-1" cx="52" cy="125.53" r="11.26"/><path d="M52,115.76a9.77,9.77,0,1,1-9.76,9.77A9.78,9.78,0,0,1,52,115.76m0-3a12.77,12.77,0,1,0,12.76,12.77A12.76,12.76,0,0,0,52,112.76Z"/><path d="M52,38.33A15.72,15.72,0,1,1,36.28,54.05,15.74,15.74,0,0,1,52,38.33m0-3A18.72,18.72,0,1,0,70.72,54.05,18.72,18.72,0,0,0,52,35.33Z"/><path d="M52,149a22.53,22.53,0,1,1-22.53,22.52A22.55,22.55,0,0,1,52,149m0-3a25.53,25.53,0,1,0,25.53,25.52A25.53,25.53,0,0,0,52,146Z"/></svg>