<svg id="Layer_1" data-name="Layer 1" xmlns="http://www.w3.org/2000/svg" viewBox="0 0 200 200"><defs><style>.cls-1{fill:blue;}</style></defs><title>Artboard 5</title><path d="M100,123.25A19.75,19.75,0,1,1,80.25,143,19.77,19.77,0,0,1,100,123.25m0-.25a20,20,0,1,0,20,20,20,20,0,0,0-20-20Z"/><path d="M100,91.92A7.08,7.08,0,1,1,92.92,99,7.08,7.08,0,0,1,100,91.92m0-.25A7.33,7.33,0,1,0,107.33,99,7.33,7.33,0,0,0,100,91.67Z"/><path d="M100,45.25A14.75,14.75,0,1,1,85.25,60,14.77,14.77,0,0,1,100,45.25m0-.25a15,15,0,1,0,15,15,15,15,0,0,0-15-15Z"/><path d="M100,89.25A9.75,9.75,0,1,1,90.25,99,9.76,9.76,0,0,1,100,89.25m0-.25a10,10,0,1,0,10,10,10,10,0,0,0-10-10Z"/><circle class="cls-1" cx="100" cy="60" r="4.88"/><path d="M100,55.25A4.75,4.75,0,1,1,95.25,60,4.75,4.75,0,0,1,100,55.25m0-.25a5,5,0,1,0,5,5,5,5,0,0,0-5-5Z"/></svg>