<svg id="Layer_1" data-name="Layer 1" xmlns="http://www.w3.org/2000/svg" viewBox="0 0 200 200"><defs><style>.cls-1{fill:blue;}</style></defs><title>Artboard 6</title><path d="M100,119.25A19.75,19.75,0,1,1,80.25,139,19.77,19.77,0,0,1,100,119.25m0-.25a20,20,0,1,0,20,20,20,20,0,0,0-20-20Z"/><path d="M100,80.25A14.75,14.75,0,1,1,85.25,95,14.77,14.77,0,0,1,100,80.25m0-.25a15,15,0,1,0,15,15,15,15,0,0,0-15-15Z"/><circle class="cls-1" cx="100" cy="95" r="4.88"/><path d="M100,90.25A4.75,4.75,0,1,1,95.25,95,4.75,4.75,0,0,1,100,90.25m0-.25a5,5,0,1,0,5,5,5,5,0,0,0-5-5Z"/><path d="M100,52.92A7.08,7.08,0,1,1,92.92,60,7.08,7.08,0,0,1,100,52.92m0-.25A7.33,7.33,0,1,0,107.33,60,7.33,7.33,0,0,0,100,52.67Z"/><path d="M100,50.25A9.75,9.75,0,1,1,90.25,60,9.76,9.76,0,0,1,100,50.25m0-.25a10,10,0,1,0,10,10,10,10,0,0,0-10-10Z"/></svg>