<svg id="Layer_1" data-name="Layer 1" xmlns="http://www.w3.org/2000/svg" viewBox="0 0 200 200"><defs><style>.cls-1{fill:blue;}.cls-1,.cls-2{stroke:#000;stroke-linejoin:round;stroke-width:0.25px;}.cls-2{fill:none;}</style></defs><title>Artboard 2</title><path class="cls-1" d="M181.05,74c-19,13-56-9-61-11,16,4,47,14,51,6,0-2,1-2-4-6-3-3,0-7,4-4S185.05,69,181.05,74Z"/><path class="cls-1" d="M19.65,63c19-13,56,9,61,11-16-4-47-14-51-6,0,2-1,2,4,6,3,3,0,7-4,4S15.65,68,19.65,63Z"/><path class="cls-2" d="M181.76,105.32c-5,3-10,2-5-4,4-3,5-7-1-7s-13-4-60,13c-6,2-6-2-1-4s45-17,62-15c10,0,17,6,13,10A84.32,84.32,0,0,1,181.76,105.32Z"/><path class="cls-1" d="M18.94,105.32c5,3,10,2,5-4-4-3-5-7,1-7s13-4,60,13c6,2,6-2,1-4s-45-17-62-15c-10,0-17,6-13,10A84.32,84.32,0,0,0,18.94,105.32Z"/><path class="cls-1" d="M171.29,132c3.85-7.69-12-11-39-18-5-2-9,1-1,3s23,10,25,11,2,5-2,6-4,4,2,3c2-1,1-3,19,6-6-5-2-2-7-6C166.29,135,170.29,134,171.29,132Z"/><path class="cls-2" d="M32.64,139.8C35.36,148,48.9,139.09,73,125c5-2.12,5.65-7.07-1.42-2.83S48.2,131.31,46.08,132s-4.95-2.12-2.83-5.66,0-5.65-3.54-.7c-.7,2.12,1.42,2.82-17.68,9.19,7.78-.71,2.83,0,9.2-.71C34.06,134.14,31.93,137.68,32.64,139.8Z"/><ellipse class="cls-1" cx="100" cy="100" rx="5" ry="10"/></svg>