<svg id="Layer_1" data-name="Layer 1" xmlns="http://www.w3.org/2000/svg" viewBox="0 0 200 97.5"><defs><style>.cls-1{fill:blue;}.cls-1,.cls-2{stroke:#000;stroke-linejoin:round;stroke-width:3px;}.cls-2{fill:none;}</style></defs><title>Artboard 2</title><path class="cls-1" d="M186.48,20.72C166.21,34.59,126.72,11.11,121.38,9c17.08,4.27,50.16,14.94,54.43,6.4,0-2.13,1.07-2.13-4.27-6.4-3.2-3.2,0-7.47,4.27-4.27S190.75,15.38,186.48,20.72Z"/><path class="cls-1" d="M14.22,9C34.5-4.87,74,18.61,79.32,20.74,62.25,16.47,29.16,5.8,24.89,14.34c0,2.13-1.07,2.13,4.27,6.4,3.2,3.21,0,7.48-4.27,4.27S10,14.34,14.22,9Z"/><path class="cls-2" d="M187.24,54.15c-5.34,3.2-10.67,2.13-5.34-4.27,4.27-3.2,5.34-7.47-1.06-7.47s-13.88-4.27-64,13.87c-6.4,2.14-6.4-2.13-1.07-4.27s48-18.14,66.17-16c10.68,0,18.15,6.41,13.88,10.68A89.76,89.76,0,0,1,187.24,54.15Z"/><path class="cls-1" d="M13.46,54.15c5.34,3.2,10.68,2.13,5.34-4.27-4.27-3.2-5.34-7.47,1.07-7.47s13.87-4.27,64,13.87C90.31,58.42,90.31,54.15,85,52s-48-18.14-66.17-16C8.13,36,.66,42.41,4.92,46.68A89.76,89.76,0,0,0,13.46,54.15Z"/><path class="cls-1" d="M176.06,82.62c4.11-8.21-12.8-11.74-41.62-19.21-5.34-2.13-9.61,1.07-1.07,3.2s24.55,10.68,26.69,11.74,2.13,5.34-2.14,6.41S153.65,89,160.06,88c2.13-1.07,1.06-3.2,20.27,6.4-6.4-5.33-2.13-2.13-7.47-6.4C170.73,85.82,175,84.76,176.06,82.62Z"/><path class="cls-2" d="M28.09,90.94c2.9,8.71,17.35-.75,43-15.84,5.29-2.27,6-7.55-1.51-3s-24.9,9.81-27.17,10.56-5.28-2.26-3-6,0-6-3.78-.75c-.75,2.26,1.51,3-18.86,9.81,8.3-.75,3,0,9.81-.75C29.59,84.91,27.33,88.68,28.09,90.94Z"/><ellipse class="cls-1" cx="99.98" cy="48.47" rx="5.34" ry="10.67"/></svg>