<svg id="Layer_1" data-name="Layer 1" xmlns="http://www.w3.org/2000/svg" viewBox="0 0 200 200"><defs><style>.cls-1{fill:none;}.cls-1,.cls-2{stroke:#000;stroke-linejoin:round;stroke-width:0.25px;}.cls-2{fill:blue;}</style></defs><title>Artboard 1</title><path class="cls-1" d="M24,67.53c19,13,56-9,61-11-16,4-47,14-51,6,0-2-1-2,4-6,3-3,0-7-4-4S20,62.53,24,67.53Z"/><path class="cls-1" d="M23.26,91.3c5-3,10-2,5,4-4,3-5,7,1,7s13,4,60-13c6-2,6,2,1,4s-45,17-62,15c-10,0-17-6-13-10A84.32,84.32,0,0,1,23.26,91.3Z"/><path class="cls-2" d="M32.73,137.53c-3.85-7.69,12-11,39-18,5-2,9,1,1,3s-23,10-25,11-2,5,2,6,4,4-2,3c-2-1-1-3-19,6,6-5,2-2,7-6C37.73,140.53,33.73,139.53,32.73,137.53Z"/><path class="cls-1" d="M176,58.09c-19-13-56,9-61,11,16-4,47-14,51-6,0,2,1,2-4,6-3,3,0,7,4,4S180,63.09,176,58.09Z"/><path class="cls-2" d="M176.74,90.3c-5-3-10-2-5,4,4,3,5,7-1,7s-13,4-60-13c-6-2-6,2-1,4s45,17,62,15c10,0,17-6,13-10A84.32,84.32,0,0,0,176.74,90.3Z"/><path class="cls-1" d="M166.27,127.34c3.85,7.69-12,11-39,18-5,2-9-1-1-3s23-10,25-11,2-5-2-6-4-4,2-3c2,1,1,3,19-6-6,5-2,2-7,6C161.27,124.34,165.27,125.34,166.27,127.34Z"/><ellipse class="cls-1" cx="100" cy="100" rx="5" ry="10"/></svg>