<svg id="Layer_1" data-name="Layer 1" xmlns="http://www.w3.org/2000/svg" viewBox="0 0 200 200"><defs><style>.cls-1{fill:none;}.cls-1,.cls-2{stroke:#000;stroke-linejoin:round;stroke-width:0.25px;}.cls-2{fill:blue;}</style></defs><title>Artboard 5</title><path class="cls-1" d="M178.7,82.48c-19,13-56-9-61-11,16,4,47,14,51,6,0-2,1-2-4-6-3-3,0-7,4-4S182.7,77.48,178.7,82.48Z"/><path class="cls-2" d="M179.41,107.32c-5,3-10,2-5-4,4-3,5-7-1-7s-13-4-60,13c-6,2-6-2-1-4s45-17,62-15c10,0,17,6,13,10A84.32,84.32,0,0,1,179.41,107.32Z"/><path class="cls-1" d="M168.94,134.79c3.85-7.7-12-11-39-18-5-2-9,1-1,3s23,10,25,11,2,5-2,6-4,4,2,3c2-1,1-3,19,6-6-5-2-2-7-6C163.94,137.79,167.94,136.79,168.94,134.79Z"/><path class="cls-2" d="M22.06,70.5c19-13,56,9,61,11-16-4-47-14-51-6,0,2-1,2,4,6,3,3,0,7-4,4S18.06,75.5,22.06,70.5Z"/><path class="cls-1" d="M21.35,92.68c5-3,10-2,5,4-4,3-5,7,1,7s13,4,60-13c6-2,6,2,1,4s-45,17-62,15c-10,0-17-6-13-10A84.32,84.32,0,0,1,21.35,92.68Z"/><path class="cls-2" d="M31.82,134.79c-3.85-7.7,12-11,39-18,5-2,9,1,1,3s-23,10-25,11-2,5,2,6,4,4-2,3c-2-1-1-3-19,6,6-5,2-2,7-6C36.82,137.79,32.82,136.79,31.82,134.79Z"/><ellipse class="cls-1" cx="100" cy="100" rx="5" ry="10"/></svg>