<svg id="Layer_1" data-name="Layer 1" xmlns="http://www.w3.org/2000/svg" viewBox="0 0 200 91.5"><defs><style>.cls-1{fill:blue;}.cls-1,.cls-2{stroke:#000;stroke-linejoin:round;stroke-width:3px;}.cls-2{fill:none;}</style></defs><title>Artboard 7</title><path class="cls-1" d="M13.1,21.83c20.54,14.05,60.55-9.73,66-11.89-17.3,4.32-50.81,15.13-55.14,6.48,0-2.16-1.08-2.16,4.33-6.48,3.24-3.25,0-7.57-4.33-4.33S8.78,16.42,13.1,21.83Z"/><path class="cls-2" d="M12.34,34.39c5.4-3.24,10.81-2.16,5.4,4.33-4.32,3.24-5.4,7.56,1.08,7.56s14.06,4.33,64.87-14.05c6.49-2.16,6.49,2.16,1.08,4.32s-48.65,18.38-67,16.22C6.93,52.77-.64,46.28,3.69,42A89.75,89.75,0,0,1,12.34,34.39Z"/><path class="cls-1" d="M27.47,83.16C30.41,92,45.05,82.4,71,67.11c5.35-2.29,6.12-7.65-1.53-3.06S44.28,74,42,74.75s-5.35-2.29-3.06-6.11,0-6.12-3.82-.77c-.76,2.3,1.53,3.06-19.11,9.94,8.41-.76,3.06,0,9.94-.76C29,77.05,26.7,80.87,27.47,83.16Z"/><path class="cls-2" d="M186.9,6.94C166.36-7.12,126.35,16.67,121,18.83c17.3-4.33,50.81-15.14,55.14-6.49,0,2.16,1.08,2.16-4.33,6.49-3.24,3.24,0,7.57,4.33,4.32S191.22,12.34,186.9,6.94Z"/><path class="cls-1" d="M187.66,32.45c-5.4-3.25-10.81-2.17-5.4,4.32,4.32,3.24,5.4,7.57-1.08,7.57s-14.06,4.32-64.87-14.06c-6.49-2.16-6.49,2.17-1.08,4.33s48.65,18.38,67,16.21c10.81,0,18.38-6.48,14.05-10.81A90.44,90.44,0,0,0,187.66,32.45Z"/><path class="cls-2" d="M176.34,76.59c4.16-8.32-13-11.89-42.16-19.46-5.41-2.16-9.73,1.08-1.08,3.24s24.86,10.81,27,11.89,2.17,5.41-2.16,6.49-4.32,4.33,2.16,3.24c2.17-1.08,1.09-3.24,20.55,6.49-6.49-5.4-2.17-2.16-7.57-6.49C170.94,79.83,175.26,78.75,176.34,76.59Z"/><ellipse class="cls-2" cx="101.13" cy="45.5" rx="5.41" ry="10.81"/></svg>