<svg id="Layer_1" data-name="Layer 1" xmlns="http://www.w3.org/2000/svg" viewBox="0 0 200 200"><defs><style>.cls-1{fill:none;}.cls-1,.cls-2{stroke:#000;stroke-linejoin:round;stroke-width:0.25px;}.cls-2{fill:blue;}</style></defs><title>Artboard 4</title><path class="cls-1" d="M178.26,70.56c-19,13-56-9-61-11,16,4,47,14,51,6,0-2,1-2-4-6-3-3,0-7,4-4S182.26,65.56,178.26,70.56Z"/><path class="cls-2" d="M21.75,56.35c19-13,56,9,61,11-16-4-47-14-51-6,0,2-1,2,4,6,3,3,0,7-4,4S17.75,61.35,21.75,56.35Z"/><path class="cls-2" d="M179,90.77c-5-3-10-2-5,4,4,3,5,7-1,7s-13,4-60-13c-6-2-6,2-1,4s45,17,62,15c10,0,17-6,13-10A84.32,84.32,0,0,0,179,90.77Z"/><path class="cls-1" d="M21,91.63c5-3,10-2,5,4-4,3-5,7,1,7s13,4,60-13c6-2,6,2,1,4s-45,17-62,15c-10,0-17-6-13-10A84.32,84.32,0,0,1,21,91.63Z"/><path class="cls-1" d="M168.5,137.73c3.85-7.69-12-11-39-18-5-2-9,1-1,3s23,10,25,11,2,5-2,6-4,4,2,3c2-1,1-3,19,6-6-5-2-2-7-6C163.5,140.73,167.5,139.73,168.5,137.73Z"/><path class="cls-2" d="M31.51,137.73c-3.85-7.69,12-11,39-18,5-2,9,1,1,3s-23,10-25,11-2,5,2,6,4,4-2,3c-2-1-1-3-19,6,6-5,2-2,7-6C36.51,140.73,32.51,139.73,31.51,137.73Z"/><ellipse class="cls-1" cx="100" cy="100.5" rx="5" ry="10"/></svg>