<svg id="Layer_1" data-name="Layer 1" xmlns="http://www.w3.org/2000/svg" viewBox="0 0 200 99.33"><defs><style>.cls-1{fill:none;}.cls-1,.cls-2{stroke:#000;stroke-linejoin:round;stroke-width:3px;}.cls-2{fill:blue;}</style></defs><title>Artboard 6</title><path class="cls-1" d="M15.11,9C35.62-5,75.56,18.74,81,20.9c-17.27-4.31-50.73-15.11-55-6.47,0,2.16-1.08,2.16,4.32,6.47,3.24,3.24,0,7.56-4.32,4.32S10.79,14.43,15.11,9Z"/><path class="cls-2" d="M14.34,39.28c5.4-3.24,10.8-2.16,5.4,4.31-4.32,3.24-5.4,7.56,1.08,7.56s14,4.32,64.77-14c6.47-2.16,6.47,2.16,1.08,4.32S38.09,59.79,19.74,57.63c-10.79,0-18.35-6.48-14-10.8A91,91,0,0,1,14.34,39.28Z"/><path class="cls-1" d="M25.65,86.63c-4.16-8.31,13-11.88,42.09-19.43,5.4-2.16,9.72,1.08,1.08,3.24S44,81.23,41.84,82.31s-2.16,5.4,2.16,6.48S48.31,93.1,41.84,92C39.68,91,40.76,88.79,21.33,98.5c6.47-5.4,2.16-2.16,7.55-6.47C31,89.87,26.72,88.79,25.65,86.63Z"/><ellipse class="cls-2" cx="99.94" cy="47.18" rx="5.4" ry="10.79"/><path class="cls-1" d="M186.36,9c-20.5-14-60.44,9.71-65.84,11.87,17.27-4.31,50.73-15.11,55.05-6.47,0,2.16,1.08,2.16-4.32,6.47-3.24,3.24,0,7.56,4.32,4.32S190.68,14.43,186.36,9Z"/><path class="cls-2" d="M187.13,55.08c-5.4,3.24-10.8,2.16-5.4-4.32,4.32-3.24,5.4-7.56-1.08-7.56s-14-4.31-64.76,14c-6.48,2.16-6.48-2.16-1.08-4.32s48.57-18.35,66.92-16.19c10.8,0,18.35,6.47,14,10.79A90.28,90.28,0,0,1,187.13,55.08Z"/><path class="cls-2" d="M173.19,89.16c-2.05,9.06-17.55,1-44.88-11.66-5.54-1.75-6.83-7,1.22-3.19s26.05,7.39,28.4,7.93,5.09-2.81,2.44-6.38-.61-6.08,3.72-1.14c1,2.21-1.22,3.19,20,8-8.43.07-3,.3-9.95.22C171.07,83.24,173.72,86.81,173.19,89.16Z"/></svg>