<svg id="Layer_1" data-name="Layer 1" xmlns="http://www.w3.org/2000/svg" viewBox="0 0 200 200"><defs><style>.cls-1{fill:none;}.cls-1,.cls-2{stroke:#000;stroke-linejoin:round;stroke-width:0.25px;}.cls-2{fill:blue;}</style></defs><title>Artboard 6</title><path class="cls-1" d="M21.41,64.66c19-13,56,9,61,11-16-4-47-14-51-6,0,2-1,2,4,6,3,3,0,7-4,4S17.41,69.66,21.41,64.66Z"/><path class="cls-2" d="M20.7,92.68c5-3,10-2,5,4-4,3-5,7,1,7s13,4,60-13c6-2,6,2,1,4s-45,17-62,15c-10,0-17-6-13-10A84.32,84.32,0,0,1,20.7,92.68Z"/><path class="cls-1" d="M31.17,136.55c-3.84-7.7,12-11,39-18,5-2,9,1,1,3s-23,10-25,11-2,5,2,6,4,4-2,3c-2-1-1-3-19,6,6-5,2-2,7-6C36.17,139.55,32.17,138.55,31.17,136.55Z"/><ellipse class="cls-2" cx="100" cy="100" rx="5" ry="10"/><path class="cls-1" d="M180.06,64.66c-19-13-56,9-61,11,16-4,47-14,51-6,0,2,1,2-4,6-3,3,0,7,4,4S184.06,69.66,180.06,64.66Z"/><path class="cls-2" d="M180.77,107.32c-5,3-10,2-5-4,4-3,5-7-1-7s-13-4-60,13c-6,2-6-2-1-4s45-17,62-15c10,0,17,6,13,10A84.32,84.32,0,0,1,180.77,107.32Z"/><path class="cls-2" d="M167.86,138.9c-1.9,8.38-16.26.9-41.58-10.81-5.13-1.62-6.32-6.48,1.13-3s24.13,6.85,26.31,7.34,4.72-2.6,2.26-5.91-.56-5.63,3.45-1c.91,2-1.13,3,18.49,7.4-7.81.07-2.81.28-9.21.21C165.89,133.41,168.35,136.71,167.86,138.9Z"/></svg>