<svg id="Layer_1" data-name="Layer 1" xmlns="http://www.w3.org/2000/svg" viewBox="0 0 200 200"><defs><style>.cls-1{fill:blue;}.cls-1,.cls-2{stroke:#000;stroke-linejoin:round;stroke-width:0.25px;}.cls-2{fill:none;}</style></defs><title>Artboard 3</title><path class="cls-1" d="M179.16,64c-19-13-56,9-61,11,16-4,47-14,51-6,0,2,1,2-4,6-3,3,0,7,4,4S183.16,69,179.16,64Z"/><path class="cls-2" d="M19.65,76c19,13,56-9,61-11-16,4-47,14-51,6,0-2-1-2,4-6,3-3,0-7-4-4S15.65,71,19.65,76Z"/><path class="cls-2" d="M179.87,88.18c-5-3-10-2-5,4,4,3,5,7-1,7s-13,4-60-13c-6-2-6,2-1,4s45,17,62,15c10,0,17-6,13-10A84.32,84.32,0,0,0,179.87,88.18Z"/><path class="cls-1" d="M18.94,103.82c5,3,10,2,5-4-4-3-5-7,1-7s13-4,60,13c6,2,6-2,1-4s-45-17-62-15c-10,0-17,6-13,10A84.32,84.32,0,0,0,18.94,103.82Z"/><path class="cls-1" d="M166.17,137.8c-2.72,8.16-16.27-.71-40.31-14.85-5-2.12-5.66-7.07,1.41-2.83s23.34,9.19,25.46,9.9,5-2.12,2.83-5.66,0-5.65,3.53-.7c.71,2.12-1.41,2.82,17.68,9.19-7.78-.71-2.83,0-9.19-.71C164.75,132.14,166.87,135.68,166.17,137.8Z"/><path class="cls-2" d="M32.64,139.8C35.36,148,48.9,139.09,73,125c5-2.12,5.65-7.07-1.42-2.83S48.2,131.31,46.08,132s-4.95-2.12-2.83-5.66,0-5.65-3.54-.7c-.7,2.12,1.42,2.82-17.68,9.19,7.78-.71,2.83,0,9.2-.71C34.06,134.14,31.93,137.68,32.64,139.8Z"/><ellipse class="cls-1" cx="100" cy="100" rx="5" ry="10"/></svg>