<svg id="Layer_1" data-name="Layer 1" xmlns="http://www.w3.org/2000/svg" viewBox="0 0 200 94.62"><defs><style>.cls-1{fill:none;}.cls-1,.cls-2{stroke:#000;stroke-linejoin:round;stroke-width:3px;}.cls-2{fill:blue;}</style></defs><title>Artboard 5</title><path class="cls-1" d="M186.2,21.51c-20.82,14.24-61.36-9.87-66.84-12.06,17.54,4.39,51.5,15.34,55.89,6.58,0-2.19,1.09-2.19-4.39-6.58-3.28-3.28,0-7.67,4.39-4.38S190.59,16,186.2,21.51Z"/><path class="cls-2" d="M187,48.73c-5.48,3.28-11,2.19-5.48-4.39,4.38-3.28,5.48-7.67-1.09-7.67s-14.25-4.38-65.75,14.25c-6.57,2.19-6.57-2.19-1.1-4.38S162.87,27.91,181.5,30.1c11,0,18.63,6.57,14.25,11A93.65,93.65,0,0,1,187,48.73Z"/><path class="cls-1" d="M175.51,78.83c4.21-8.43-13.15-12.06-42.74-19.73-5.48-2.19-9.86,1.1-1.09,3.29s25.2,11,27.39,12,2.19,5.48-2.19,6.58-4.38,4.38,2.19,3.29c2.19-1.1,1.1-3.29,20.82,6.57-6.58-5.48-2.19-2.19-7.67-6.57C170,82.11,174.41,81,175.51,78.83Z"/><path class="cls-2" d="M14.56,8.38C35.38-5.86,75.92,18.25,81.4,20.44,63.87,16.05,29.9,5.1,25.51,13.86c0,2.19-1.09,2.19,4.39,6.58,3.29,3.28,0,7.67-4.39,4.38S10.17,13.86,14.56,8.38Z"/><path class="cls-1" d="M13.78,32.69c5.48-3.29,11-2.19,5.48,4.38-4.38,3.29-5.48,7.67,1.1,7.67S34.6,49.12,86.1,30.5c6.58-2.19,6.58,2.19,1.1,4.38S37.89,53.51,19.26,51.32c-11,0-18.63-6.58-14.24-11A92.84,92.84,0,0,1,13.78,32.69Z"/><path class="cls-2" d="M25.26,78.83C21,70.4,38.4,66.77,68,59.1c5.48-2.19,9.86,1.1,1.1,3.29s-25.21,11-27.4,12S39.5,79.92,43.88,81s4.39,4.38-2.19,3.29C39.5,83.21,40.6,81,20.87,90.88c6.58-5.48,2.19-2.19,7.67-6.57C30.73,82.11,26.35,81,25.26,78.83Z"/><ellipse class="cls-1" cx="99.96" cy="40.71" rx="5.48" ry="10.96"/></svg>