<svg id="Layer_1" data-name="Layer 1" xmlns="http://www.w3.org/2000/svg" viewBox="0 0 200 200"><defs><style>.cls-1{fill:blue;}.cls-1,.cls-2{stroke:#000;stroke-linejoin:round;stroke-width:0.25px;}.cls-2{fill:none;}</style></defs><title>Artboard 7</title><path class="cls-1" d="M18.57,78.11c19,13,56-9,61-11-16,4-47,14-51,6,0-2-1-2,4-6,3-3,0-7-4-4S14.57,73.11,18.57,78.11Z"/><path class="cls-2" d="M17.87,89.72c5-3,10-2,5,4-4,3-5,7,1,7s13,4,60-13c6-2,6,2,1,4s-45,17-62,15c-10,0-17-6-13-10A84.32,84.32,0,0,1,17.87,89.72Z"/><path class="cls-1" d="M31.86,134.84c2.72,8.16,16.26-.71,40.3-14.85,5-2.12,5.66-7.07-1.41-2.83s-23.33,9.19-25.46,9.9-4.94-2.12-2.82-5.66,0-5.65-3.54-.7c-.71,2.12,1.42,2.82-17.68,9.19,7.78-.71,2.83,0,9.2-.71C33.27,129.18,31.15,132.72,31.86,134.84Z"/><path class="cls-2" d="M179.33,64.33c-19-13-56,9-61,11,16-4,47-14,51-6,0,2,1,2-4,6-3,3,0,7,4,4S183.33,69.33,179.33,64.33Z"/><path class="cls-1" d="M180,87.93c-5-3-10-2-5,4,4,3,5,7-1,7s-13,4-60-13c-6-2-6,2-1,4s45,17,62,15c10,0,17-6,13-10A84.32,84.32,0,0,0,180,87.93Z"/><path class="cls-2" d="M169.56,128.76c3.85-7.7-12-11-39-18-5-2-9,1-1,3s23,10,25,11,2,5-2,6-4,4,2,3c2-1,1-3,19,6-6-5-2-2-7-6C164.56,131.76,168.56,130.76,169.56,128.76Z"/><ellipse class="cls-2" cx="100" cy="100" rx="5" ry="10"/></svg>