<svg id="Layer_1" data-name="Layer 1" xmlns="http://www.w3.org/2000/svg" viewBox="0 0 200 114"><defs><style>.cls-1{fill:none;}.cls-1,.cls-2{stroke:#000;stroke-linejoin:round;stroke-width:3px;}.cls-2{fill:blue;}</style></defs><title>Artboard 1</title><path class="cls-1" d="M14.57,20.52C35.92,35.13,77.49,10.41,83.11,8.16c-18,4.5-52.81,15.73-57.3,6.74,0-2.24-1.13-2.24,4.49-6.74,3.37-3.37,0-7.86-4.49-4.49S10.08,14.9,14.57,20.52Z"/><path class="cls-1" d="M13.77,47.23C19.39,43.86,25,45,19.39,51.72c-4.49,3.37-5.62,7.87,1.13,7.87S35.12,64.08,87.93,45c6.74-2.25,6.74,2.25,1.12,4.5S38.49,68.58,19.39,66.33c-11.23,0-19.1-6.74-14.6-11.24A94.91,94.91,0,0,1,13.77,47.23Z"/><path class="cls-2" d="M24.42,99.17C20.09,90.52,37.9,86.81,68.23,78.94c5.62-2.24,10.12,1.13,1.13,3.37S43.52,93.55,41.27,94.67s-2.25,5.62,2.25,6.75,4.49,4.49-2.25,3.37c-2.25-1.13-1.12-3.37-21.35,6.74,6.74-5.62,2.25-2.25,7.87-6.74C30,102.54,25.54,101.42,24.42,99.17Z"/><path class="cls-1" d="M185.43,9.91C164.08-4.7,122.51,20,116.89,22.27c18-4.5,52.81-15.73,57.3-6.74,0,2.24,1.13,2.24-4.49,6.74-3.37,3.37,0,7.86,4.49,4.49S189.92,15.53,185.43,9.91Z"/><path class="cls-2" d="M186.23,46.11c-5.62-3.38-11.24-2.25-5.62,4.49,4.49,3.37,5.62,7.86-1.13,7.86s-14.6,4.5-67.41-14.6c-6.74-2.25-6.74,2.25-1.12,4.49s50.56,19.1,69.66,16.86c11.23,0,19.1-6.75,14.6-11.24A94.91,94.91,0,0,0,186.23,46.11Z"/><path class="cls-1" d="M174.46,87.72c4.32,8.64-13.48,12.36-43.82,20.22-5.62,2.25-10.11-1.12-1.12-3.37s25.84-11.23,28.09-12.36,2.24-5.62-2.25-6.74-4.49-4.49,2.25-3.37c2.24,1.12,1.12,3.37,21.35-6.74-6.75,5.62-2.25,2.25-7.87,6.74C168.84,84.35,173.34,85.47,174.46,87.72Z"/><ellipse class="cls-1" cx="100" cy="57" rx="5.62" ry="11.24"/></svg>