<svg id="Layer_1" data-name="Layer 1" xmlns="http://www.w3.org/2000/svg" viewBox="0 0 200 111.5"><defs><style>.cls-1{fill:none;}.cls-1,.cls-2{stroke:#000;stroke-linejoin:round;stroke-width:3px;}.cls-2{fill:blue;}</style></defs><title>Artboard 4</title><path class="cls-1" d="M185.71,23.71c-20.81,14.23-61.33-9.86-66.81-12C136.43,16,170.38,27,174.76,18.23c0-2.19,1.09-2.19-4.38-6.57-3.29-3.28,0-7.67,4.38-4.38S190.09,18.23,185.71,23.71Z"/><path class="cls-2" d="M14.3,8.15C35.11-6.09,75.63,18,81.1,20.2,63.58,15.82,29.63,4.86,25.25,13.63c0,2.19-1.1,2.19,4.38,6.57,3.29,3.28,0,7.66-4.38,4.38S9.92,13.63,14.3,8.15Z"/><path class="cls-2" d="M186.49,45.85c-5.48-3.29-11-2.19-5.48,4.38,4.38,3.28,5.48,7.66-1.1,7.66s-14.23,4.38-65.71-14.23c-6.57-2.19-6.57,2.19-1.09,4.38S162.39,66.66,181,64.46c11,0,18.62-6.57,14.24-10.95A91.83,91.83,0,0,0,186.49,45.85Z"/><path class="cls-1" d="M13.52,46.79C19,43.5,24.47,44.6,19,51.17c-4.38,3.28-5.48,7.66,1.09,7.66S34.33,63.21,85.8,44.6c6.57-2.19,6.57,2.19,1.1,4.38S37.62,67.6,19,65.4c-10.95,0-18.62-6.57-14.24-11A91.83,91.83,0,0,1,13.52,46.79Z"/><path class="cls-1" d="M175,97.28c4.21-8.43-13.14-12-42.71-19.71-5.48-2.2-9.86,1.09-1.1,3.28s25.19,11,27.38,12.05,2.19,5.47-2.19,6.57-4.38,4.38,2.19,3.28c2.19-1.09,1.1-3.28,20.81,6.58-6.57-5.48-2.19-2.2-7.67-6.58C169.54,100.56,173.92,99.47,175,97.28Z"/><path class="cls-2" d="M25,97.28c-4.21-8.43,13.14-12,42.71-19.71,5.48-2.2,9.86,1.09,1.1,3.28S43.61,91.8,41.42,92.9s-2.19,5.47,2.19,6.57,4.38,4.38-2.19,3.28c-2.19-1.09-1.1-3.28-20.81,6.58,6.57-5.48,2.19-2.2,7.67-6.58C30.47,100.56,26.09,99.47,25,97.28Z"/><ellipse class="cls-1" cx="100" cy="56.5" rx="5.48" ry="10.95"/></svg>