<svg id="Layer_1" data-name="Layer 1" xmlns="http://www.w3.org/2000/svg" viewBox="0 0 200 96"><defs><style>.cls-1{fill:blue;}.cls-1,.cls-2{stroke:#000;stroke-linejoin:round;stroke-width:3px;}.cls-2{fill:none;}</style></defs><title>Artboard 3</title><path class="cls-1" d="M186.87,7.76c-20.7-14.16-61,9.8-66.44,12,17.42-4.35,51.19-15.25,55.54-6.53,0,2.18,1.09,2.18-4.35,6.53-3.27,3.27,0,7.63,4.35,4.36S191.22,13.21,186.87,7.76Z"/><path class="cls-2" d="M13.13,20.81c20.7,14.16,61-9.81,66.44-12C62.15,13.18,28.38,24.07,24,15.36c0-2.18-1.09-2.18,4.35-6.53,3.27-3.27,0-7.63-4.35-4.36S8.78,15.36,13.13,20.81Z"/><path class="cls-2" d="M187.64,34.08c-5.45-3.27-10.89-2.18-5.45,4.35,4.36,3.27,5.45,7.63-1.09,7.63s-14.16,4.35-65.35-14.16c-6.53-2.18-6.53,2.18-1.09,4.35s49,18.52,67.53,16.34c10.89,0,18.52-6.53,14.16-10.89A91.54,91.54,0,0,0,187.64,34.08Z"/><path class="cls-1" d="M12.36,51.11c5.45,3.27,10.89,2.18,5.45-4.36-4.36-3.27-5.45-7.62,1.09-7.62s14.16-4.36,65.35,14.16c6.53,2.18,6.53-2.18,1.09-4.36s-49-18.52-67.53-16.34C6.92,32.59-.71,39.13,3.65,43.48A92.56,92.56,0,0,0,12.36,51.11Z"/><path class="cls-1" d="M172.71,88.11c-3,8.89-17.71-.77-43.89-16.17-5.4-2.31-6.17-7.7,1.54-3.08s25.41,10,27.72,10.78,5.39-2.31,3.08-6.16,0-6.16,3.85-.77c.77,2.31-1.54,3.08,19.26,10-8.48-.77-3.08,0-10-.77C171.17,82,173.48,85.8,172.71,88.11Z"/><path class="cls-2" d="M27.29,90.29c3,8.89,17.71-.77,43.89-16.17,5.4-2.31,6.17-7.7-1.54-3.08s-25.41,10-27.72,10.78-5.39-2.31-3.08-6.16,0-6.16-3.85-.77c-.77,2.31,1.54,3.08-19.26,10,8.48-.77,3.08,0,10-.77C28.83,84.13,26.52,88,27.29,90.29Z"/><ellipse class="cls-1" cx="100.65" cy="46.95" rx="5.45" ry="10.89"/></svg>