<svg xmlns="http://www.w3.org/2000/svg" viewBox="0 0 100 100"><title>Artboard1</title><g id="Layer_2" data-name="Layer 2"><g id="Layer_1-2" data-name="Layer 1"><path d="M100,100H0V0H100Zm-.83-32.87H67.08v32H99.17ZM34,32.75H66V.77H34ZM33,66V34H.84V66Zm1,33.18H66.08v-32H34ZM67.1,33.93v32H99.18v-32ZM33,99.14v-32H.83v32ZM99.16,32.81V.79H67.09v32ZM33,32.78V.77H.83v32ZM66.06,65.92V34H34V65.92Z"/><path d="M45.93,4.7a9,9,0,0,1,8.11,0,59.75,59.75,0,0,0,0,24.34,8.3,8.3,0,0,1-8.09.07A59.1,59.1,0,0,0,45.93,4.7Z"/><path d="M13.13,37.58A9,9,0,0,1,21,37.7a59.44,59.44,0,0,0,0,24.49,9,9,0,0,1-7.84.11c.35-4.1,1-8.23,1-12.37S13.48,41.74,13.13,37.58Z"/><path d="M54.1,95.3a9.11,9.11,0,0,1-8.11,0,60.31,60.31,0,0,0,0-24.49,9.08,9.08,0,0,1,8.11,0A59.39,59.39,0,0,0,54.1,95.3Z"/><path d="M87.21,37.51c-.36,3-.75,5.94-1,8.88-.48,4.91.22,9.76.95,14.6.15,1,0,1.33-1,1.59a10.45,10.45,0,0,1-5.18.17c-1.34-.3-1.64-.87-1.45-2.21a63.46,63.46,0,0,0,1-9.49c0-4-.54-8-1-12-.14-1.23.11-1.74,1.34-2A9,9,0,0,1,87.21,37.51Z"/><path d="M7.3,73.37c3,.79,5.68,1.5,8.36,2.23a1.34,1.34,0,0,1,.57.34L26.45,86.1l-6.53,6.55c-2.38-2.37-4.71-4.93-7.28-7.21a11.88,11.88,0,0,1-4.29-7.61A45,45,0,0,0,7.3,73.37ZM25.88,86.09c-2.51-2.5-5.16-5-7.61-7.66a9.92,9.92,0,0,0-5.9-3.36c-1.46-.23-2.88-.73-4.55-1.17.38,1.6.78,2.89,1,4.2a10.72,10.72,0,0,0,3.75,6.71c2.6,2.32,5,4.9,7.34,7.29Z"/><path d="M92.69,19.94l-6.5,6.45a7.59,7.59,0,0,1-.7-.59q-4.58-4.56-9.12-9.15a3.43,3.43,0,0,1-.91-1.44c-.68-2.59-1.29-5.2-2-8,1.21.3,2.29.66,3.4.84A14.3,14.3,0,0,1,86,13.14C88,15.56,90.41,17.67,92.69,19.94Zm-.6-.07c-2.57-2.56-5.23-5.05-7.69-7.73a9.76,9.76,0,0,0-5.66-3.27C77.18,8.6,75.67,8.11,74,7.68c.66,2.64,1.23,5,1.87,7.42a3.26,3.26,0,0,0,.82,1.33c2.39,2.43,4.83,4.82,7.22,7.26.75.76,1.39,1.64,2,2.38C88.11,23.83,90,21.91,92.09,19.87Z"/><path d="M7.29,7.12c2.9.78,5.5,1.46,8.09,2.17a2.14,2.14,0,0,1,.92.48c3.42,3.38,6.81,6.78,10.15,10.11L20,26.37c-.17-.14-.44-.35-.68-.59-3-3-6.05-6-9-9.06a4.36,4.36,0,0,1-1-1.81C8.54,12.42,8,9.9,7.29,7.12ZM19.82,25.88l6-6-9.71-9.72a1.18,1.18,0,0,0-.42-.33L7.93,7.68A5,5,0,0,0,8,8.43c1.38,6.91,1.38,6.91,6.38,11.91.44.44.89.88,1.33,1.33Z"/><path d="M40.39,40.25l8.21,2.19a1.8,1.8,0,0,1,.8.44c3.41,3.38,6.8,6.77,10.11,10.07l-6.58,6.58-10-10.13a1.29,1.29,0,0,1-.36-.54C41.83,46.09,41.15,43.31,40.39,40.25Zm.51.53c.64,2.56,1.16,4.83,1.78,7.07a4.52,4.52,0,0,0,1,1.81c2.47,2.54,5,5,7.49,7.54.62.64,1.13,1.38,1.53,1.87l6.17-6.2c-3.13-3.13-6.4-6.4-9.67-9.65a1.25,1.25,0,0,0-.54-.38C46.18,42.16,43.68,41.51,40.9,40.78Z"/></g></g></svg>