<svg xmlns="http://www.w3.org/2000/svg" viewBox="0 0 124.92 125.12"><title>Artboard5</title><g id="Layer_2" data-name="Layer 2"><g id="Layer_1-2" data-name="Layer 1"><path d="M0,125.12V0H124.92V125.12Zm2.91-3c1.67.16,3,.39,4.27.39,36.79,0,73.59,0,110.39.09,3.62,0,4.92-1,4.91-4.77-.13-36.8-.07-73.6-.09-110.39,0-1.45-.19-2.91-.31-4.48H2.91Z"/><path d="M97.89,74,73,99a69.86,69.86,0,0,0-5.31-6.77c-9.92-10.08-20-20-29.94-30.07-1.25-1.26-2.68-2.72-3.11-4.34-2.69-10.06-5.11-20.19-7.87-31.28,11.19,3,21.54,5.76,31.89,8.56a3,3,0,0,1,1.21.83Q78.89,55,97.89,74Z"/></g></g></svg>