<svg xmlns="http://www.w3.org/2000/svg" viewBox="0 0 125.5 125.49"><title>Artboard4</title><g id="Layer_2" data-name="Layer 2"><g id="Layer_1-2" data-name="Layer 1"><path d="M125.37,0V5.77c0,37.82-.12,75.65.13,113.47,0,5.26-1.55,6.28-6.45,6.25-37.65-.2-75.31-.11-113-.11H0V0Zm-3.16,2.86H3V122c1.6.15,2.9.38,4.2.38,36.8,0,73.59,0,110.39.11,4.24,0,4.88-1.68,4.87-5.32q-.14-54.69-.06-109.39C122.42,6.2,122.28,4.58,122.21,2.86Z"/><path d="M97.87,73.69,73.61,97.91c-8.43-8.43-16.67-17.64-25.93-25.68-9.61-8.35-15.62-18.08-17.21-30.74-.6-4.74-2.24-9.35-3.65-15,4.66,1.2,8.68,2.65,12.81,3.24,13.77,2,24.56,8.52,33.63,19.12C80.89,57.76,89.78,65.61,97.87,73.69ZM28.7,28.34C31,37.85,33,46.28,35.26,54.59a16.29,16.29,0,0,0,3.82,6.69c9.16,9.43,18.59,18.6,27.79,28a83.7,83.7,0,0,1,5.86,7.41l22.91-22.8a12.08,12.08,0,0,0-1.21-1.63Q77.33,55.11,60.19,38a7.2,7.2,0,0,0-2.76-2C48.19,33.43,38.92,31,28.7,28.34Z"/></g></g></svg>