<svg xmlns="http://www.w3.org/2000/svg" viewBox="0 0 124.99 124.96"><title>Artboard2</title><g id="Layer_2" data-name="Layer 2"><g id="Layer_1-2" data-name="Layer 1"><path d="M125,0V125H0V0ZM2.75,2.73c-.08,1.89-.21,3.36-.21,4.83,0,36.48.07,73-.11,109.45,0,4.43,1.18,5.59,5.58,5.57q54.24-.26,108.46,0c4.51,0,6-1.11,5.93-5.81-.19-36.31-.1-72.63-.12-108.95,0-1.62-.15-3.24-.24-5.09Z"/><path d="M47.39,17.28c9.71-5,18.86-5.1,30-.22a221.2,221.2,0,0,0,.11,90.7c-10.19,4.69-19.76,4.85-30.08,0A220,220,0,0,0,47.39,17.28Z"/></g></g></svg>