<svg xmlns="http://www.w3.org/2000/svg" viewBox="0 0 125.18 125.05"><title>Artboard3</title><g id="Layer_2" data-name="Layer 2"><g id="Layer_1-2" data-name="Layer 1"><path d="M125.18,125.05H0V0H125.18ZM122.47,2.84H2.93C2.83,4.78,2.69,6.41,2.69,8c0,36.31.07,72.63-.12,108.94,0,4.51,1.35,5.57,5.66,5.55,36.48-.15,73-.08,109.44-.1,1.58,0,3.16-.21,4.8-.32Z"/><path d="M27.48,51.14l24.18-24.2C64.1,39.38,76.82,52.05,89.46,64.8a8,8,0,0,1,1.64,3.55c2.42,9.66,4.76,19.34,7.35,29.93-6.07-1.58-11.54-3.5-17.16-4.35C70.58,92.3,62.41,87.1,55.21,79.08,46.45,69.32,36.76,60.4,27.48,51.14ZM52.09,29.26,29.66,51.53c8.47,8.42,17.78,16.77,26,26.09,7.4,8.38,16,13.52,27,15.24,4.47.71,8.82,2.15,13.93,3.44C94.75,89,92.86,82.8,91.76,76.46c-1.21-7-4.44-12.42-9.64-17.32C71.61,49.23,61.61,38.79,52.09,29.26Z"/></g></g></svg>