<svg id="Layer_1" data-name="Layer 1" xmlns="http://www.w3.org/2000/svg" viewBox="0 0 200 200"><defs><style>.cls-1{fill:none;stroke:#000;stroke-miterlimit:10;stroke-width:5px;}.cls-2{fill:blue;}</style></defs><title>Artboard 7</title><path class="cls-1" d="M100,195A95,95,0,0,1,100,5"/><path d="M100,72.7a33,33,0,1,1-33,33,33,33,0,0,1,33-33m0-5a38,38,0,1,0,38,38,38,38,0,0,0-38-38Z"/><line class="cls-1" x1="5" y1="105.7" x2="100" y2="105.7"/><line class="cls-1" x1="100" y1="105.7" x2="195" y2="105.7"/><circle class="cls-2" cx="100" cy="105.7" r="9"/><path d="M100,97.2a8.5,8.5,0,1,1-8.5,8.5,8.51,8.51,0,0,1,8.5-8.5m0-1a9.5,9.5,0,1,0,9.5,9.5,9.5,9.5,0,0,0-9.5-9.5Z"/></svg>