<svg id="Layer_1" data-name="Layer 1" xmlns="http://www.w3.org/2000/svg" viewBox="0 0 200 200"><defs><style>.cls-1{fill:none;stroke:#000;stroke-miterlimit:10;stroke-width:5px;}</style></defs><title>Artboard 5</title><path class="cls-1" d="M100,194A94,94,0,0,1,100,6"/><path d="M100,73a32.6,32.6,0,1,1-32.6,32.6A32.63,32.63,0,0,1,100,73m0-5a37.6,37.6,0,1,0,37.6,37.6A37.59,37.59,0,0,0,100,68Z"/><path d="M100,101.24a4.4,4.4,0,1,1-4.4,4.4,4.4,4.4,0,0,1,4.4-4.4m0-5a9.4,9.4,0,1,0,9.4,9.4,9.4,9.4,0,0,0-9.4-9.4Z"/><line class="cls-1" x1="6" y1="105.64" x2="100" y2="105.64"/><line class="cls-1" x1="100" y1="105.64" x2="194" y2="105.64"/></svg>