<svg xmlns="http://www.w3.org/2000/svg" viewBox="0 0 201 201"><defs><style>.cls-1{fill:none;stroke:#000;stroke-miterlimit:10;}</style></defs><title>Artboard1</title><g id="Layer_2" data-name="Layer 2"><g id="Layer_1-2" data-name="Layer 1"><path class="cls-1" d="M200.5,100.5H102.59l0,0-.06,0h-1v0l-1,0v100a100,100,0,1,1,100-100Z"/><path d="M145.5,100.5H102.59l0,0-.06,0h-1v0l-1,0v-1h35.1a5,5,0,0,1,9.9,1Z"/><path d="M99.5,100.49h1v45a1.51,1.51,0,0,1-.3,0,5,5,0,0,1-.93-9.91l.21-31.38h0v-3.71Z"/><path d="M100.5,100.5v2l0,0-1,1.7h0l-15.94,27a5,5,0,1,1-1.72-1l15.93-27,1-1.71.37-.63.22-.37.16-.26.13-.23Z"/><path d="M100.5,100.5v1.15l-.38.21-.63.35-1.74,1L70.4,118.58a5,5,0,1,1-1-1.74l27.35-15.39,1.74-1,.64-.36.36-.2.28-.15.22-.13Z"/><path d="M60.44,105a5,5,0,0,0,5-3.94l35.1.47,0-2L65.42,99a5,5,0,1,0-5,5.94Z"/><path d="M63.61,84.26a5,5,0,0,0,6.25-.92l30.13,18,1-1.72-30.12-18a5,5,0,1,0-7.28,2.64Z"/><path d="M76.74,67.93a5,5,0,0,0,5.88,2.35l17,30.7,1.74-1-17-30.71a5,5,0,1,0-7.63-1.38Z"/><path d="M106.3,60.61a5,5,0,0,1-4.1,4.82l-.63,31.38,0,2v1.73l-1,0-1,0V98.76l0-2,.63-31.39a5,5,0,1,1,6.1-4.78Z"/><path d="M125.54,68.91a5,5,0,0,1-6,2.11L103.28,97.84l-1,1.66-.39.65-.21.35h-.17v0l-1,0-.85-.52.14-.22.16-.27.21-.36.38-.61,1-1.71L117.86,70a5,5,0,1,1,7.68-1.07Z"/><path d="M138,85.74a5,5,0,0,1-6.21-1.17L104.43,99.5l-1.84,1,0,0-.06,0h-1v0l-1,0-.48-.88.23-.12h0l.26-.15.37-.2.64-.36,1.75-1,27.56-15A5,5,0,1,1,138,85.74Z"/></g></g></svg>