<svg xmlns="http://www.w3.org/2000/svg" viewBox="0 0 100 100"><title>Artboard3</title><g id="Layer_2" data-name="Layer 2"><g id="Layer_1-2" data-name="Layer 1"><path d="M0,0H100V100H0ZM1.52,1.56V98.38H98.4V1.56Z"/><path d="M87.55,50.08c-7.27,8.43-14.41,16.72-21.6,25a3,3,0,0,1-2,.91q-25.38,0-50.75,0c-.08,0-.16-.07-.44-.2V24.09h2.74c15.77,0,31.54,0,47.31.06a5,5,0,0,1,3.44,1.27C73.34,33.49,80.33,41.69,87.55,50.08Zm-1,0c-7-8.16-13.9-16.21-20.88-24.16a4.07,4.07,0,0,0-2.81-1c-15.77-.06-31.53,0-47.3,0a20.3,20.3,0,0,0-2.28.24v50c1.15.06,2.19.15,3.22.15,13.46,0,26.94-.29,40.38.15,5.76.2,9.69-1.32,13.22-6C75.17,62.68,81,56.53,86.56,50.06Z"/></g></g></svg>