<svg xmlns="http://www.w3.org/2000/svg" viewBox="0 0 100 100"><title>Artboard5</title><g id="Layer_2" data-name="Layer 2"><g id="Layer_1-2" data-name="Layer 1"><path d="M100,100H0V0H100Zm-1.56-1.57V1.54H1.64V98.43Z"/><path d="M75.77,12.44v2.79c0,15.89,0,31.78,0,47.67a5,5,0,0,1-1,3.33c-8.07,7.23-16.27,14.32-24.63,21.62-2.37-2.06-4.71-4.06-7-6.09-5.69-5-11.41-9.9-17-15a4.85,4.85,0,0,1-1.67-3.05c-.1-16.78-.06-33.56-.05-50.35a6,6,0,0,1,.21-1Zm-50.69.77v3.05c0,13.83.25,27.66-.13,41.49-.14,5.28,1.24,8.88,5.47,12.16,6.78,5.26,13,11.2,19.59,16.93.83-.69,1.51-1.22,2.17-1.8,7-6.13,14-12.3,21.1-18.37a4.79,4.79,0,0,0,1.87-4.09c-.06-15.53,0-31.06,0-46.58,0-.87-.07-1.74-.12-2.79Z"/></g></g></svg>