<svg xmlns="http://www.w3.org/2000/svg" viewBox="0 0 100 100"><title>Artboard4</title><g id="Layer_2" data-name="Layer 2"><g id="Layer_1-2" data-name="Layer 1"><path d="M0,0H100V100H0ZM98.45,98.46V1.62H1.52V98.46Z"/><path d="M12.43,50.05C19.72,41.6,26.9,33.25,34.14,25a3,3,0,0,1,2.07-.83q25.08-.06,50.17,0a5.23,5.23,0,0,1,.9.2V76H84.52C68.77,76,53,76,37.27,76A5,5,0,0,1,33,74C26.24,66,19.37,58.1,12.43,50.05Zm1,0c7,8.18,13.92,16.22,20.9,24.16a4,4,0,0,0,2.79,1c15.75.06,31.51,0,47.26.07,1.79,0,2.48-.47,2.48-2.4q-.1-22.89,0-45.78c0-1.8-.64-2.27-2.32-2.26-15.84.05-31.68,0-47.52.07A4.06,4.06,0,0,0,34.22,26C27.3,33.89,20.48,41.85,13.4,50.05Z"/></g></g></svg>