<svg xmlns="http://www.w3.org/2000/svg" viewBox="0 0 100 100"><title>Artboard2</title><g id="Layer_2" data-name="Layer 2"><g id="Layer_1-2" data-name="Layer 1"><path d="M100,100H0V0H100Zm-1.57-1.57V1.59H1.56V98.43Z"/><path d="M82.34,73c-1.34-.59-2.7-1.18-4-1.79-8.55-3.88-17.12-7.72-25.61-11.7a6,6,0,0,0-5.67,0C38.06,63.72,29,67.82,20,72c-.78.36-1.6.65-2.74,1.1V60.57c0-5.62-.07-11.25.07-16.87A3.44,3.44,0,0,1,19,41.19q14.52-6.88,29.18-13.47a4.67,4.67,0,0,1,3.43,0q14.8,6.59,29.49,13.42a3,3,0,0,1,1.6,2c.09,9.73,0,19.46,0,29.19C82.68,72.49,82.53,72.63,82.34,73Zm-.49-1a14.7,14.7,0,0,0,.22-1.5c0-8.75,0-17.5.05-26.25,0-1.74-.94-2.25-2.22-2.83-9.44-4.27-18.84-8.61-28.3-12.82a4.67,4.67,0,0,0-3.41-.07c-9.44,4.25-18.81,8.67-28.25,12.94a3,3,0,0,0-2,3.25c.07,8.3,0,16.61,0,24.91,0,.66.15,1.33.26,2.29,1.05-.45,1.85-.76,2.63-1.12,8.76-4,17.56-8,26.27-12.16a5.72,5.72,0,0,1,5.46,0c7.36,3.48,14.8,6.8,22.21,10.16C77,69.82,79.27,70.81,81.85,72Z"/></g></g></svg>