<svg xmlns="http://www.w3.org/2000/svg" viewBox="0 0 100 100"><defs><style>.cls-1{font-size:17.39px;font-family:Georgia, Georgia;}</style></defs><title>Artboard1</title><g id="Layer_2" data-name="Layer 2"><g id="Layer_1-2" data-name="Layer 1"><path d="M100,100H0V0H100Zm-.77-.87V50.46H50.59V99.13ZM50.57.76v48.7H99.22V.76ZM49.4,49.47V.78H.79V49.47Zm0,.89H47.8c-15.13,0-30.27,0-45.4,0C1.06,50.33.66,50.64.67,52c0,15.17,0,30.35,0,45.53V99.1H49.43Z"/><path d="M8.54,36.74V29.48c0-2.47,0-4.94,0-7.41a1.31,1.31,0,0,1,.9-1.42c4.94-2.23,9.85-4.52,14.8-6.72A2.35,2.35,0,0,1,26,14c5,2.18,9.89,4.44,14.83,6.66.62.27,1,.52,1,1.33,0,4.71,0,9.42,0,14.14a5.55,5.55,0,0,1-.1.65c-.52-.22-1-.39-1.4-.58-4.66-2.1-9.32-4.19-14-6.33a2.66,2.66,0,0,0-2.5,0C19.23,32,14.57,34.08,9.93,36.2,9.53,36.38,9.12,36.52,8.54,36.74Zm32.85-.52c0-4.94,0-9.61,0-14.28,0-.36-.53-.88-.93-1.06Q33.22,17.55,26,14.34a2.4,2.4,0,0,0-1.73,0c-4.79,2.14-9.54,4.36-14.32,6.51a1.41,1.41,0,0,0-1,1.51c0,3.95,0,7.91,0,11.86v2c.63-.26,1-.42,1.43-.6,4.45-2,8.91-4,13.32-6.12a2.88,2.88,0,0,1,2.76,0c3.2,1.52,6.44,2.94,9.67,4.4Z"/><path d="M63.42,10h7.27c2.47,0,4.93,0,7.4,0a1.33,1.33,0,0,1,1.43.9c2.22,5,4.51,9.86,6.72,14.81a2.4,2.4,0,0,1,0,1.73c-2.19,5-4.45,9.89-6.66,14.83-.28.62-.53,1-1.34,1-4.71,0-9.42,0-14.13,0a5.25,5.25,0,0,1-.65-.1c.22-.52.38-1,.58-1.4,2.1-4.66,4.19-9.32,6.32-14a2.66,2.66,0,0,0,0-2.5C68.18,20.66,66.08,16,64,11.36,63.78,11,63.65,10.56,63.42,10ZM64,42.83c4.94,0,9.61,0,14.27,0,.37,0,.88-.53,1.07-.93,2.21-4.81,4.4-9.62,6.53-14.46a2.35,2.35,0,0,0,0-1.73c-2.13-4.79-4.35-9.54-6.51-14.33a1.39,1.39,0,0,0-1.51-1c-3.95,0-7.9,0-11.85,0H64c.27.63.42,1,.6,1.44,2,4.44,4,8.9,6.12,13.32a2.88,2.88,0,0,1,0,2.76c-1.52,3.2-2.94,6.44-4.4,9.67C65.54,39.25,64.8,40.92,64,42.83Z"/><path d="M25.17,55.74c4.25,3.68,8.4,7.26,12.51,10.87a1.7,1.7,0,0,1,.51,1.15q0,12.66,0,25.33a3.19,3.19,0,0,1-.11.58H12.22c0-.46-.08-.93-.08-1.4,0-8,0-16,0-24a2.41,2.41,0,0,1,.94-2.06C17.09,62.78,21.07,59.29,25.17,55.74ZM12.49,93.32H37.85V91.74q0-9.36,0-18.71c0-1.93.51-4.11-.23-5.71s-2.71-2.64-4.16-3.91L25.2,56.26c-.38.31-.7.55-1,.81-3.6,3.11-7.17,6.25-10.8,9.33a2.43,2.43,0,0,0-.94,2.06c0,7.63,0,15.26,0,22.88Z"/><text class="cls-1" transform="translate(71.26 78.62)">?</text></g></g></svg>