<svg xmlns="http://www.w3.org/2000/svg" viewBox="0 0 201 201"><defs><style>.cls-1,.cls-2{fill:none;stroke:#000;}.cls-1{stroke-miterlimit:10;}.cls-2{stroke-linejoin:round;}</style></defs><title>Artboard1</title><g id="Layer_2" data-name="Layer 2"><g id="Layer_1-2" data-name="Layer 1"><rect class="cls-1" x="0.5" y="100.5" width="100" height="100"/><rect class="cls-1" x="0.5" y="0.5" width="100" height="100"/><rect class="cls-1" x="100.5" y="100.5" width="100" height="100"/><circle class="cls-1" cx="125.5" cy="125.5" r="25"/><circle class="cls-1" cx="188" cy="188" r="12.5"/><path class="cls-2" d="M125.5,150.5c15.9,21.41,30.42,13.22,53.66,28.66-15.43-23.64-7.49-38-28.66-53.66"/><circle class="cls-1" cx="75.5" cy="75.5" r="25"/><circle class="cls-1" cx="13" cy="13" r="12.5"/><path class="cls-2" d="M75.5,50.5C59.6,29.09,45.08,37.28,21.84,21.84c15.43,23.64,7.49,38,28.66,53.66"/><circle class="cls-1" cx="75.5" cy="125.5" r="25"/><circle class="cls-1" cx="13" cy="188" r="12.5"/><path class="cls-2" d="M75.5,150.5c-15.9,21.41-30.42,13.22-53.66,28.66,15.43-23.64,7.49-38,28.66-53.66"/><circle cx="5.5" cy="105.5" r="5"/><circle cx="95.5" cy="195.5" r="5"/><circle cx="105.5" cy="195.5" r="5"/><circle cx="195.5" cy="105.5" r="5"/><circle cx="95.5" cy="5.5" r="5"/><circle cx="5.5" cy="95.5" r="5"/></g></g></svg>