<svg id="Layer_1" data-name="Layer 1" xmlns="http://www.w3.org/2000/svg" viewBox="0 0 200 200"><defs><style>.cls-1{fill:none;stroke:#000;stroke-miterlimit:10;stroke-width:0.25px;}.cls-2{fill:blue;}</style></defs><title>Artboard 4</title><path class="cls-1" d="M129.75,70.79c-4.92,9.77-25.64,10.84-29.75-.29,0,0-10.46,17.7-30,.63"/><path class="cls-1" d="M100,130.5c-33.61-15.65-29.88-60-29.88-60"/><path class="cls-1" d="M100,130.5c33.61-15.65,29.88-60,29.88-60"/><ellipse class="cls-2" cx="80.78" cy="86.5" rx="3.39" ry="5.83"/><path class="cls-2" d="M100,111.09a4,4,0,0,1,4,4,11.85,11.85,0,0,1-4,8.54,14.38,14.38,0,0,1-4-8c0-.37,0-.57,0-.57A4,4,0,0,1,100,111.09Z"/><polygon class="cls-1" points="100 104.38 105.5 95.63 94.5 95.63 100 104.38"/><polygon class="cls-2" points="126.74 91.07 122.96 87.4 122.96 81.93 114.23 81.93 114.23 87.4 110.45 91.07 126.74 91.07"/></svg>