<svg id="Layer_1" data-name="Layer 1" xmlns="http://www.w3.org/2000/svg" viewBox="0 0 200 200"><defs><style>.cls-1{fill:none;stroke:#000;stroke-miterlimit:10;stroke-width:3px;}.cls-2{fill:blue;}</style></defs><title>Artboard 4</title><path class="cls-1" d="M195.7,4.44C179.89,35.87,113.22,39.31,100,3.5c0,0-33.64,56.94-96.5,2"/><path class="cls-1" d="M100,196.5C-8.12,146.15,3.9,3.5,3.9,3.5"/><path class="cls-1" d="M100,196.5c108.12-50.35,96.1-193,96.1-193"/><ellipse class="cls-2" cx="38.16" cy="54.97" rx="10.91" ry="18.76"/><path class="cls-2" d="M100,134.08A12.87,12.87,0,0,1,112.87,147c0,17-12.87,27.47-12.87,27.47C90,163.67,87.74,153,87.26,148.78c-.13-1.19-.13-1.83-.13-1.83A12.87,12.87,0,0,1,100,134.08Z"/><polygon class="cls-1" points="100 112.47 117.69 84.32 82.31 84.32 100 112.47"/><polygon class="cls-2" points="186 69.67 173.87 57.86 173.87 40.26 145.77 40.26 145.77 57.86 133.63 69.67 186 69.67"/></svg>