<svg id="Layer_1" data-name="Layer 1" xmlns="http://www.w3.org/2000/svg" viewBox="0 0 200 200"><defs><style>.cls-1{fill:none;stroke:#000;stroke-miterlimit:10;stroke-width:3px;}.cls-2{fill:blue;}</style></defs><title>Artboard 1</title><path class="cls-1" d="M195.7,4.44C179.89,35.87,113.22,39.31,100,3.5c0,0-33.64,56.94-96.5,2"/><path class="cls-1" d="M100,196.5C-8.12,146.15,3.9,3.5,3.9,3.5"/><path class="cls-1" d="M100,196.5c108.12-50.35,96.1-193,96.1-193"/><polygon class="cls-2" points="100 81.31 104.56 96.05 119.3 96.05 107.37 105.16 111.93 119.91 100 110.79 88.07 119.91 92.63 105.16 80.7 96.05 95.44 96.05 100 81.31"/><ellipse class="cls-1" cx="45.67" cy="67.79" rx="17.58" ry="30.24"/><path class="cls-1" d="M157.5,37a19.63,19.63,0,0,1,19.63,19.63c0,26-19.63,41.92-19.63,41.92-15.31-16.39-18.7-32.74-19.44-39.12-.19-1.81-.19-2.8-.19-2.8A19.63,19.63,0,0,1,157.5,37Z"/><polygon class="cls-1" points="126.19 168.39 114.05 156.58 114.05 138.97 85.95 138.97 85.95 156.58 73.81 168.39 126.19 168.39"/></svg>