<svg id="Layer_1" data-name="Layer 1" xmlns="http://www.w3.org/2000/svg" viewBox="0 0 200 200"><defs><style>.cls-1{fill:none;stroke:#000;stroke-miterlimit:10;stroke-width:0.25px;}.cls-2{fill:blue;}</style></defs><title>Artboard 5</title><path class="cls-1" d="M130.25,75.1c-4.92,9.77-25.64,10.84-29.75-.29,0,0-10.46,17.7-30,.63"/><path class="cls-1" d="M100.5,134.81c-33.61-15.65-29.88-60-29.88-60"/><path class="cls-1" d="M100.5,134.81c33.61-15.65,29.88-60,29.88-60"/><polygon class="cls-1" points="108.14 104.57 104.37 100.9 104.37 95.43 95.63 95.43 95.63 100.9 91.86 104.57 108.14 104.57"/><polygon class="cls-2" points="121.35 96.97 128.44 85.7 114.27 85.7 121.35 96.97"/><circle class="cls-2" cx="100" cy="123.33" r="5"/><path class="cls-2" d="M83.38,93a1.71,1.71,0,1,0,0-3.41A1.69,1.69,0,0,0,81.7,91H79.47L81,89.45a1.68,1.68,0,0,0,2.21-.16,1.71,1.71,0,1,0-2.61-.24L79.06,90.6V88.46a1.71,1.71,0,1,0-.57,0V90.6L77,89.1a1.71,1.71,0,0,0-.21-2.16,1.71,1.71,0,0,0-2.42,0,1.7,1.7,0,0,0-.5,1.21,1.74,1.74,0,0,0,.5,1.21,1.71,1.71,0,0,0,1.21.49,1.74,1.74,0,0,0,1-.34L78.09,91H75.93a1.69,1.69,0,1,0,0,.57h2.12l-1.56,1.56a1.71,1.71,0,0,0-2.1.25,1.7,1.7,0,0,0,0,2.41,1.67,1.67,0,0,0,1.21.5,1.65,1.65,0,0,0,1.2-.5A1.69,1.69,0,0,0,77,93.51L78.49,92v2.25a1.72,1.72,0,0,0-1.33,1.67,1.71,1.71,0,1,0,1.9-1.7V92l1.6,1.6a1.69,1.69,0,0,0-.29,1,1.7,1.7,0,0,0,2.91,1.21,1.71,1.71,0,0,0-1.2-2.92,1.73,1.73,0,0,0-1,.35l-1.59-1.59H81.7A1.69,1.69,0,0,0,83.38,93Z"/></svg>