<svg id="Layer_1" data-name="Layer 1" xmlns="http://www.w3.org/2000/svg" viewBox="0 0 200 200"><defs><style>.cls-1{fill:none;stroke:#000;stroke-miterlimit:10;stroke-width:0.25px;}.cls-2{fill:blue;}</style></defs><title>Artboard 2</title><path class="cls-1" d="M130.25,74.13c-4.92,9.77-25.64,10.84-29.75-.29,0,0-10.46,17.7-30,.63"/><path class="cls-1" d="M100.5,133.84c-33.61-15.65-29.88-60-29.88-60"/><path class="cls-1" d="M100.5,133.84c33.61-15.65,29.88-60,29.88-60"/><rect class="cls-2" x="96" y="95.81" width="8" height="8" transform="translate(-41.29 99.94) rotate(-45)"/><polygon class="cls-2" points="100 122.33 105.5 113.58 94.5 113.58 100 122.33"/><circle class="cls-2" cx="115" cy="91.23" r="5"/><path class="cls-2" d="M89,92.51A1.32,1.32,0,1,0,87.72,91H86l1.2-1.2a1.29,1.29,0,0,0,1.7-.13A1.32,1.32,0,1,0,87,87.79a1.31,1.31,0,0,0-.15,1.68l-1.2,1.2V89a1.32,1.32,0,1,0-.44,0v1.65l-1.16-1.16a1.3,1.3,0,0,0,.23-.74,1.32,1.32,0,1,0-2.25.94,1.34,1.34,0,0,0,.93.38,1.31,1.31,0,0,0,.79-.26L84.93,91H83.27a1.33,1.33,0,1,0,0,.44h1.64l-1.2,1.2a1.32,1.32,0,0,0-1.62,2.06,1.33,1.33,0,0,0,1.86,0,1.31,1.31,0,0,0,.08-1.76l1.19-1.19v1.73a1.32,1.32,0,0,0,.3,2.61,1.32,1.32,0,0,0,.14-2.63V91.73L86.92,93a1.29,1.29,0,0,0-.23.73,1.32,1.32,0,0,0,.39.94A1.33,1.33,0,0,0,88,95a1.32,1.32,0,0,0,.93-2.25,1.33,1.33,0,0,0-1.72-.12L86,91.42h1.73A1.31,1.31,0,0,0,89,92.51Z"/></svg>