<svg id="Layer_1" data-name="Layer 1" xmlns="http://www.w3.org/2000/svg" viewBox="0 0 200 200"><defs><style>.cls-1{fill:none;stroke:#000;stroke-miterlimit:10;stroke-width:0.25px;}.cls-2{fill:blue;}</style></defs><title>Artboard 7</title><path class="cls-1" d="M129.75,70.29C124.83,80.06,104.11,81.13,100,70c0,0-10.46,17.7-30,.63"/><path class="cls-1" d="M100,130C66.39,114.35,70.12,70,70.12,70"/><path class="cls-1" d="M100,130c33.61-15.65,29.88-60,29.88-60"/><polygon class="cls-1" points="100 94.5 100.94 97.56 104 97.56 101.53 99.44 102.47 102.5 100 100.61 97.53 102.5 98.47 99.44 96 97.56 99.06 97.56 100 94.5"/><path class="cls-2" d="M99.75,110.2a4,4,0,0,1,4,4,11.85,11.85,0,0,1-4,8.54,14.38,14.38,0,0,1-4-8c0-.37,0-.57,0-.57A4,4,0,0,1,99.75,110.2Z"/><rect class="cls-2" x="76.1" y="81.2" width="11.02" height="11.02" transform="translate(-37.41 83.1) rotate(-45)"/><polygon class="cls-2" points="126.68 92.35 122.02 87.82 122.02 81.06 111.24 81.06 111.24 87.82 106.58 92.35 126.68 92.35"/></svg>