<svg id="Layer_1" data-name="Layer 1" xmlns="http://www.w3.org/2000/svg" viewBox="0 0 200 200"><defs><style>.cls-1{fill:none;stroke:#000;stroke-miterlimit:10;stroke-width:3px;}.cls-2{fill:blue;}</style></defs><title>Artboard 7</title><path class="cls-1" d="M196.44,3.7c-15.93,31.67-83.12,35.14-96.44-1,0,0-33.9,57.38-97.25,2"/><path class="cls-1" d="M100,197.25C-9,146.51,3.15,2.75,3.15,2.75"/><path class="cls-1" d="M100,197.25c109-50.74,96.85-194.5,96.85-194.5"/><polygon class="cls-1" points="100 82.17 103.06 92.08 112.97 92.08 104.95 98.2 108.01 108.1 100 101.98 91.99 108.1 95.05 98.2 87.03 92.08 96.94 92.08 100 82.17"/><path class="cls-2" d="M99.19,133.08a13,13,0,0,1,13,13c0,17.15-13,27.69-13,27.69-10.11-10.83-12.35-21.62-12.84-25.84-.13-1.2-.13-1.85-.13-1.85A13,13,0,0,1,99.19,133.08Z"/><rect class="cls-2" x="22.52" y="39.05" width="35.72" height="35.72" transform="translate(-28.42 45.22) rotate(-45)"/><polygon class="cls-2" points="186.5 75.21 171.39 60.52 171.39 38.62 136.44 38.62 136.44 60.52 121.34 75.21 186.5 75.21"/></svg>