<svg id="Layer_1" data-name="Layer 1" xmlns="http://www.w3.org/2000/svg" viewBox="0 0 200 200"><defs><style>.cls-1{fill:none;stroke:#000;stroke-miterlimit:10;stroke-width:0.25px;}.cls-2{fill:blue;}</style></defs><title>Artboard 1</title><path class="cls-1" d="M129.75,70.1c-4.92,9.77-25.64,10.84-29.75-.29,0,0-10.46,17.7-30,.63"/><path class="cls-1" d="M100,129.81c-33.61-15.65-29.88-60-29.88-60"/><path class="cls-1" d="M100,129.81c33.61-15.65,29.88-60,29.88-60"/><polygon class="cls-2" points="100 94 101.42 98.58 106 98.58 102.29 101.42 103.71 106 100 103.17 96.29 106 97.71 101.42 94 98.58 98.58 98.58 100 94"/><ellipse class="cls-1" cx="83.11" cy="89.8" rx="5.46" ry="9.4"/><path class="cls-1" d="M117.88,80.23a6.1,6.1,0,0,1,6.1,6.1c0,8.07-6.1,13-6.1,13a21.88,21.88,0,0,1-6-12.16c-.06-.56-.06-.87-.06-.87A6.1,6.1,0,0,1,117.88,80.23Z"/><polygon class="cls-1" points="108.14 121.07 104.37 117.4 104.37 111.93 95.63 111.93 95.63 117.4 91.86 121.07 108.14 121.07"/></svg>