<svg id="Layer_1" data-name="Layer 1" xmlns="http://www.w3.org/2000/svg" viewBox="0 0 200 200"><defs><style>.cls-1{fill:none;stroke:#000;stroke-miterlimit:10;stroke-width:0.25px;}.cls-2{fill:blue;}</style></defs><title>Artboard 3</title><path class="cls-1" d="M129.75,70.1c-4.92,9.77-25.64,10.84-29.75-.29,0,0-10.46,17.7-30,.63"/><path class="cls-1" d="M100,129.81c-33.61-15.65-29.88-60-29.88-60"/><path class="cls-1" d="M100,129.81c33.61-15.65,29.88-60,29.88-60"/><polygon class="cls-2" points="108.14 104.57 104.37 100.9 104.37 95.43 95.63 95.43 95.63 100.9 91.86 104.57 108.14 104.57"/><polygon class="cls-1" points="117.3 90.25 122.8 81.5 111.8 81.5 117.3 90.25"/><circle class="cls-1" cx="100" cy="116.5" r="5"/><path class="cls-1" d="M87.25,86.12a1.74,1.74,0,1,0,0-.58H85L86.56,84a1.69,1.69,0,0,0,1,.33,1.73,1.73,0,1,0-1.42-.75l-1.58,1.58V83A1.74,1.74,0,1,0,84,83v2.18L82.47,83.6a1.73,1.73,0,0,0,.29-1,1.69,1.69,0,0,0-.51-1.22A1.72,1.72,0,0,0,81,80.9a1.74,1.74,0,0,0-1.73,1.73,1.72,1.72,0,0,0,.51,1.23,1.73,1.73,0,0,0,2.27.16l1.52,1.52h-2.2a1.73,1.73,0,1,0-1.69,2.12,1.75,1.75,0,0,0,1.73-1.54h2.16L82,87.71a1.73,1.73,0,0,0-2.13,2.7,1.7,1.7,0,0,0,1.22.51,1.73,1.73,0,0,0,1.34-2.83L84,86.53v2.28a1.74,1.74,0,1,0,.57,0V86.53l1.63,1.62a1.73,1.73,0,0,0,2.67,2.19,1.69,1.69,0,0,0,.51-1.22,1.74,1.74,0,0,0-1.74-1.74,1.69,1.69,0,0,0-1,.35L85,86.12ZM89,84.67a1.16,1.16,0,1,1-1.15,1.16A1.16,1.16,0,0,1,89,84.67Zm-2.2-2.92a1.15,1.15,0,0,1,1.63,0,1.15,1.15,0,0,1,0,1.63,1.15,1.15,0,0,1-1.63-1.63Zm-6.55,1.7a1.15,1.15,0,0,1-.34-.82,1.13,1.13,0,0,1,.34-.81,1.15,1.15,0,0,1,1.63,0,1.13,1.13,0,0,1,.34.81,1.15,1.15,0,0,1-.34.82A1.17,1.17,0,0,1,80.21,83.45Zm-.51,3.63a1.16,1.16,0,1,1,1.16-1.16A1.16,1.16,0,0,1,79.7,87.08ZM81.91,90a1.16,1.16,0,1,1,0-1.64A1.16,1.16,0,0,1,81.91,90Zm1.22-8.76a1.16,1.16,0,1,1,1.16,1.16A1.16,1.16,0,0,1,83.13,81.24Zm2.41,9.27a1.16,1.16,0,1,1-1.16-1.16A1.16,1.16,0,0,1,85.54,90.51ZM87.64,88a1.16,1.16,0,0,1,1.16,1.16,1.13,1.13,0,0,1-.34.81,1.15,1.15,0,0,1-1.64,0,1.13,1.13,0,0,1-.34-.81A1.16,1.16,0,0,1,87.64,88Z"/></svg>