<svg id="Layer_1" data-name="Layer 1" xmlns="http://www.w3.org/2000/svg" viewBox="0 0 200 200"><defs><style>.cls-1{fill:none;stroke:#000;stroke-miterlimit:10;stroke-width:3px;}.cls-2{fill:blue;}</style></defs><title>Artboard 3</title><path class="cls-1" d="M194.71,5.43C179.06,36.53,113.08,39.94,100,4.5c0,0-33.29,56.35-95.5,2"/><path class="cls-1" d="M100,195.5C-7,145.67,4.89,4.5,4.89,4.5"/><path class="cls-1" d="M100,195.5c107-49.83,95.11-191,95.11-191"/><polygon class="cls-2" points="125.92 115.15 113.9 103.47 113.9 86.05 86.1 86.05 86.1 103.47 74.08 115.15 125.92 115.15"/><polygon class="cls-1" points="155.07 69.56 172.57 41.71 137.57 41.71 155.07 69.56"/><circle class="cls-1" cx="100" cy="153.13" r="15.92"/><path class="cls-1" d="M59.43,56.4a5.53,5.53,0,1,0,0-1.84H52.2l5-5a5.53,5.53,0,1,0-1.29-1.32l-5,5V46.34a5.53,5.53,0,1,0-1.85,0v6.92L44.19,48.4a5.6,5.6,0,1,0-1.27,1.33l4.83,4.83h-7a5.52,5.52,0,1,0,.11,1.84h6.87l-5.06,5.06a5.59,5.59,0,1,0,1.38,1.23l5-5V65a5.51,5.51,0,1,0,1.85-.11V57.71l5.17,5.17a5.51,5.51,0,0,0,.68,7,5.54,5.54,0,1,0,.59-8.32L52.2,56.4Zm5.44-4.6a3.69,3.69,0,1,1-3.69,3.68A3.69,3.69,0,0,1,64.87,51.8Zm-7-9.3a3.68,3.68,0,1,1,0,5.21A3.67,3.67,0,0,1,57.84,42.5ZM37,47.93a3.69,3.69,0,1,1,5.21,0A3.78,3.78,0,0,1,37,47.93Zm-1.6,11.54a3.69,3.69,0,1,1,3.68-3.68A3.69,3.69,0,0,1,35.39,59.47Zm7,9.3a3.68,3.68,0,1,1,0-5.21A3.68,3.68,0,0,1,42.42,68.77Zm3.87-27.88A3.69,3.69,0,1,1,50,44.58,3.68,3.68,0,0,1,46.29,40.89ZM54,70.38a3.69,3.69,0,1,1-3.69-3.69A3.69,3.69,0,0,1,54,70.38Zm6.69-8.12a3.69,3.69,0,1,1-2.6,1.08A3.69,3.69,0,0,1,60.66,62.26Z"/></svg>