<svg id="Layer_1" data-name="Layer 1" xmlns="http://www.w3.org/2000/svg" viewBox="0 0 200 200"><defs><style>.cls-1{fill:none;stroke:#000;stroke-miterlimit:10;stroke-width:3px;}.cls-2{fill:blue;}</style></defs><title>Artboard 5</title><path class="cls-1" d="M195.2,4.93C179.47,36.2,113.15,39.62,100,4c0,0-33.46,56.65-96,2"/><path class="cls-1" d="M100,196C-7.55,145.91,4.4,4,4.4,4"/><path class="cls-1" d="M100,196C207.56,145.91,195.6,4,195.6,4"/><polygon class="cls-1" points="124.45 99.24 112.38 87.5 112.38 69.98 84.42 69.98 84.42 87.5 72.35 99.24 124.45 99.24"/><polygon class="cls-2" points="166.73 74.92 189.4 38.84 144.05 38.84 166.73 74.92"/><circle class="cls-2" cx="98.4" cy="159.28" r="16"/><path class="cls-2" d="M45.21,62.19a5.47,5.47,0,1,0-5.38-6.38H32.69l4.93-4.94a5.51,5.51,0,0,0,3.21,1.06,5.47,5.47,0,1,0-4.48-2.36l-5,5V47.69a5.46,5.46,0,1,0-1.82,0v6.84l-4.81-4.81a5.35,5.35,0,0,0,.93-3A5.47,5.47,0,1,0,23.51,51l4.77,4.77H21.39a5.48,5.48,0,1,0,.1,1.83h6.8l-5,5a5.51,5.51,0,1,0,1.37,1.22l4.92-4.93v7.19a5.47,5.47,0,1,0,1.82-.1V58.93L36.5,64a5.48,5.48,0,1,0,4.55-2.42,5.47,5.47,0,0,0-3.29,1.1l-5.08-5.08h7.15A5.47,5.47,0,0,0,45.21,62.19Z"/></svg>