<svg id="Layer_1" data-name="Layer 1" xmlns="http://www.w3.org/2000/svg" viewBox="0 0 200 200"><defs><style>.cls-1{fill:none;stroke:#000;stroke-miterlimit:10;stroke-width:3px;}.cls-2{fill:blue;}</style></defs><title>Artboard 2</title><path class="cls-1" d="M195.2,4.93C179.47,36.2,113.15,39.62,100,4c0,0-33.46,56.65-96,2"/><path class="cls-1" d="M100,196C-7.55,145.91,4.4,4,4.4,4"/><path class="cls-1" d="M100,196C207.56,145.91,195.6,4,195.6,4"/><rect class="cls-2" x="85.6" y="74.31" width="25.6" height="25.6" transform="translate(-32.78 95.09) rotate(-45)"/><polygon class="cls-2" points="98.4 159.18 116 131.18 80.81 131.18 98.4 159.18"/><circle class="cls-2" cx="146.4" cy="59.66" r="16"/><path class="cls-2" d="M63.25,63.76a4.22,4.22,0,1,0-4.16-4.92H53.58L57.39,55a4.28,4.28,0,0,0,2.48.82A4.22,4.22,0,1,0,56.41,54l-3.83,3.83V52.57a4.22,4.22,0,1,0-1.4,0v5.28l-3.71-3.72a4.19,4.19,0,0,0,.71-2.34,4.22,4.22,0,1,0-8.43,0,4.21,4.21,0,0,0,6.75,3.36l3.68,3.69H44.86a4.22,4.22,0,1,0,.08,1.4h5.25l-3.87,3.87a4.25,4.25,0,1,0,1,.93l3.81-3.8V66.8a4.21,4.21,0,1,0,1.4-.08V61.24l4,3.95a4.09,4.09,0,0,0-.71,2.34A4.22,4.22,0,0,0,60,71.74a4.21,4.21,0,1,0-2.54-7.57l-3.92-3.93h5.51A4.22,4.22,0,0,0,63.25,63.76Z"/></svg>