<svg id="Layer_1" data-name="Layer 1" xmlns="http://www.w3.org/2000/svg" viewBox="0 0 200 200"><defs><style>.cls-1{fill:none;stroke:#000;stroke-miterlimit:10;stroke-width:0.25px;}.cls-2{fill:blue;}</style></defs><title>Artboard 6</title><path class="cls-1" d="M129.75,70.29C124.83,80.06,104.11,81.13,100,70c0,0-10.46,17.7-30,.63"/><path class="cls-1" d="M100,130C66.39,114.35,70.12,70,70.12,70"/><path class="cls-1" d="M100,130c33.61-15.65,29.88-60,29.88-60"/><ellipse class="cls-1" cx="81.63" cy="87.38" rx="4.62" ry="7.4"/><polygon class="cls-2" points="100 104.75 104.33 97.25 95.67 97.25 100 104.75"/><polygon class="cls-1" points="126.11 91.95 122.33 88.28 122.33 82.8 113.6 82.8 113.6 88.28 109.83 91.95 126.11 91.95"/><path class="cls-1" d="M100.25,111.72a4,4,0,0,1,4,4,11.85,11.85,0,0,1-4,8.54,14.38,14.38,0,0,1-4-8c0-.37,0-.57,0-.57A4,4,0,0,1,100.25,111.72Z"/></svg>