<svg xmlns="http://www.w3.org/2000/svg" viewBox="0 0 91.42 80.07"><defs><style>.cls-1,.cls-2,.cls-3{fill:none;}.cls-2,.cls-3,.cls-4{stroke:#000;stroke-miterlimit:10;}.cls-3{stroke-width:0.25px;}</style></defs><title>Artboard2</title><g id="Layer_2" data-name="Layer 2"><g id="Layer_1-2" data-name="Layer 1"><polygon class="cls-1" points="16.59 63.95 16.59 64.17 16.71 63.95 16.59 63.95"/><polygon class="cls-2" points="45.71 32.81 18.71 79.57 72.71 79.57 45.71 32.81"/><line class="cls-3" x1="21.29" y1="79.57" x2="21.29" y2="75.1"/><line class="cls-3" x1="23.86" y1="79.57" x2="23.86" y2="70.65"/><line class="cls-3" x1="26.43" y1="79.57" x2="26.43" y2="66.2"/><line class="cls-3" x1="29" y1="79.57" x2="29" y2="61.75"/><line class="cls-3" x1="31.57" y1="79.57" x2="31.57" y2="57.3"/><line class="cls-3" x1="34.14" y1="79.57" x2="34.14" y2="52.85"/><line class="cls-3" x1="36.71" y1="79.57" x2="36.71" y2="48.4"/><line class="cls-3" x1="39.28" y1="79.57" x2="39.28" y2="43.95"/><line class="cls-3" x1="41.85" y1="79.57" x2="41.85" y2="39.49"/><line class="cls-3" x1="44.43" y1="79.57" x2="44.43" y2="35.03"/><line class="cls-3" x1="47" y1="79.57" x2="47" y2="35.04"/><line class="cls-3" x1="49.57" y1="79.57" x2="49.57" y2="39.49"/><line class="cls-3" x1="52.14" y1="79.57" x2="52.14" y2="43.95"/><line class="cls-3" x1="54.71" y1="79.57" x2="54.71" y2="48.4"/><line class="cls-3" x1="57.28" y1="79.57" x2="57.28" y2="52.85"/><line class="cls-3" x1="59.85" y1="79.57" x2="59.85" y2="57.3"/><line class="cls-3" x1="62.42" y1="79.57" x2="62.42" y2="61.75"/><line class="cls-3" x1="65" y1="79.57" x2="65" y2="66.22"/><line class="cls-3" x1="67.57" y1="79.57" x2="67.57" y2="70.67"/><line class="cls-3" x1="70.14" y1="79.57" x2="70.14" y2="75.12"/><polygon class="cls-4" points="0.87 0.61 17.04 0.61 17.04 28.63 0.87 0.61"/><polygon class="cls-2" points="74.25 28.74 20.25 28.74 20.13 28.52 20.13 0.5 90.55 0.5 74.25 28.74"/><line class="cls-3" x1="23.48" y1="28.74" x2="23.48" y2="0.5"/><line class="cls-3" x1="26.84" y1="28.74" x2="26.84" y2="0.5"/><line class="cls-3" x1="30.19" y1="28.74" x2="30.19" y2="0.5"/><line class="cls-3" x1="33.54" y1="28.74" x2="33.54" y2="0.5"/><line class="cls-3" x1="36.9" y1="28.74" x2="36.9" y2="0.5"/><line class="cls-3" x1="40.25" y1="28.74" x2="40.25" y2="0.5"/><line class="cls-3" x1="43.61" y1="28.74" x2="43.61" y2="0.5"/><line class="cls-3" x1="46.96" y1="28.74" x2="46.96" y2="0.5"/><line class="cls-3" x1="50.31" y1="28.74" x2="50.31" y2="0.5"/><line class="cls-3" x1="53.67" y1="28.74" x2="53.67" y2="0.5"/><line class="cls-3" x1="57.02" y1="28.74" x2="57.02" y2="0.5"/><line class="cls-3" x1="60.37" y1="28.74" x2="60.37" y2="0.5"/><line class="cls-3" x1="63.73" y1="28.74" x2="63.73" y2="0.5"/><line class="cls-3" x1="67.08" y1="28.74" x2="67.08" y2="0.5"/><line class="cls-3" x1="70.43" y1="28.74" x2="70.43" y2="0.5"/><line class="cls-3" x1="73.79" y1="28.74" x2="73.79" y2="0.5"/><line class="cls-3" x1="77.14" y1="23.74" x2="77.14" y2="0.5"/><line class="cls-3" x1="80.49" y1="17.94" x2="80.49" y2="0.5"/><line class="cls-3" x1="83.85" y1="12.12" x2="83.85" y2="0.5"/><line class="cls-3" x1="87.2" y1="6.32" x2="87.2" y2="0.5"/><polyline class="cls-3" points="37.97 28.74 36.9 28.45 33.54 27.55 30.19 26.66 26.84 25.76 23.48 24.86 20.13 23.96"/><polyline class="cls-3" points="50.97 28.74 50.31 28.56 46.96 27.66 43.61 26.77 40.25 25.87 36.9 24.97 33.54 24.07 30.19 23.17 26.84 22.27 23.48 21.37 20.13 20.48"/><polyline class="cls-3" points="63.98 28.74 63.73 28.67 60.37 27.77 57.02 26.87 53.67 25.98 50.31 25.08 46.96 24.18 43.61 23.28 40.25 22.38 36.9 21.48 33.54 20.58 30.19 19.69 26.84 18.79 23.48 17.89 20.13 16.99"/><polyline class="cls-3" points="74.62 28.1 73.79 27.88 70.43 26.98 67.08 26.09 63.73 25.19 60.37 24.29 57.02 23.39 53.67 22.49 50.31 21.59 46.96 20.69 43.61 19.8 40.25 18.9 36.9 18 33.54 17.1 30.19 16.2 26.84 15.3 23.48 14.4 20.13 13.51"/><polyline class="cls-3" points="76.36 25.09 73.79 24.4 70.43 23.5 67.08 22.6 63.73 21.7 60.37 20.8 57.02 19.9 53.67 19.01 50.31 18.11 46.96 17.21 43.61 16.31 40.25 15.41 36.9 14.51 33.54 13.61 30.19 12.72 26.84 11.82 23.48 10.92 20.13 10.02"/><polyline class="cls-3" points="78.1 22.07 77.14 21.81 73.79 20.91 70.43 20.01 67.08 19.12 63.73 18.22 60.37 17.32 57.02 16.42 53.67 15.52 50.31 14.62 46.96 13.72 43.61 12.83 40.25 11.93 36.9 11.03 33.54 10.13 30.19 9.23 26.84 8.33 23.48 7.43 20.13 6.54"/><polyline class="cls-3" points="79.84 19.05 77.14 18.32 73.79 17.43 70.43 16.53 67.08 15.63 63.73 14.73 60.37 13.83 57.02 12.93 53.67 12.04 50.31 11.14 46.96 10.24 43.61 9.34 40.25 8.44 36.9 7.54 33.54 6.64 30.19 5.75 26.84 4.85 23.48 3.95 20.13 3.05"/><polyline class="cls-3" points="81.58 16.03 80.49 15.74 77.14 14.84 73.79 13.94 70.43 13.04 67.08 12.15 63.73 11.25 60.37 10.35 57.02 9.45 53.67 8.55 50.31 7.65 46.96 6.75 43.61 5.86 40.25 4.96 36.9 4.06 33.54 3.16 30.19 2.26 26.84 1.36 23.62 0.5"/><polyline class="cls-3" points="83.33 13.01 80.49 12.25 77.14 11.35 73.79 10.46 70.43 9.56 67.08 8.66 63.73 7.76 60.37 6.86 57.02 5.96 53.67 5.07 50.31 4.17 46.96 3.27 43.61 2.37 40.25 1.47 36.9 0.57 36.62 0.5"/><polyline class="cls-3" points="85.07 10 83.85 9.67 80.49 8.77 77.14 7.87 73.79 6.97 70.43 6.07 67.08 5.18 63.73 4.28 60.37 3.38 57.02 2.48 53.67 1.58 50.31 0.68 49.63 0.5"/><polyline class="cls-3" points="86.81 6.98 83.85 6.18 80.49 5.28 77.14 4.38 73.79 3.49 70.43 2.59 67.08 1.69 63.73 0.79 62.64 0.5"/><polyline class="cls-3" points="88.55 3.96 87.2 3.6 83.85 2.7 80.49 1.8 77.14 0.9 75.64 0.5"/></g></g></svg>