<svg xmlns="http://www.w3.org/2000/svg" viewBox="0 0 123.27 109.33"><defs><style>.cls-1,.cls-2,.cls-3{stroke:#000;stroke-miterlimit:10;}.cls-2,.cls-3{fill:none;}.cls-3{stroke-width:0.25px;}</style></defs><title>Artboard6</title><g id="Layer_2" data-name="Layer 2"><g id="Layer_1-2" data-name="Layer 1"><polygon class="cls-1" points="0.5 80.5 0.5 0.5 60.5 0.5 60.5 52.17 0.5 80.5"/><rect class="cls-2" x="62.77" y="0.5" width="60" height="51.67"/><polyline class="cls-3" points="66.52 52.17 66.52 48.94 66.52 45.71 66.52 42.48 66.52 39.25 66.52 36.02 66.52 32.79 66.52 29.56 66.52 26.33 66.52 23.1 66.52 19.88 66.52 16.65 66.52 13.42 66.52 10.19 66.52 6.96 66.52 3.73 66.52 0.5"/><polyline class="cls-3" points="70.27 52.17 70.27 48.94 70.27 45.71 70.27 42.48 70.27 39.25 70.27 36.02 70.27 32.79 70.27 29.56 70.27 26.33 70.27 23.1 70.27 19.88 70.27 16.65 70.27 13.42 70.27 10.19 70.27 6.96 70.27 3.73 70.27 0.5"/><polyline class="cls-3" points="74.02 52.17 74.02 48.94 74.02 45.71 74.02 42.48 74.02 39.25 74.02 36.02 74.02 32.79 74.02 29.56 74.02 26.33 74.02 23.1 74.02 19.88 74.02 16.65 74.02 13.42 74.02 10.19 74.02 6.96 74.02 3.73 74.02 0.5"/><polyline class="cls-3" points="77.77 52.17 77.77 48.94 77.77 45.71 77.77 42.48 77.77 39.25 77.77 36.02 77.77 32.79 77.77 29.56 77.77 26.33 77.77 23.1 77.77 19.88 77.77 16.65 77.77 13.42 77.77 10.19 77.77 6.96 77.77 3.73 77.77 0.5"/><polyline class="cls-3" points="81.52 52.17 81.52 48.94 81.52 45.71 81.52 42.48 81.52 39.25 81.52 36.02 81.52 32.79 81.52 29.56 81.52 26.33 81.52 23.1 81.52 19.88 81.52 16.65 81.52 13.42 81.52 10.19 81.52 6.96 81.52 3.73 81.52 0.5"/><polyline class="cls-3" points="85.27 52.17 85.27 48.94 85.27 45.71 85.27 42.48 85.27 39.25 85.27 36.02 85.27 32.79 85.27 29.56 85.27 26.33 85.27 23.1 85.27 19.88 85.27 16.65 85.27 13.42 85.27 10.19 85.27 6.96 85.27 3.73 85.27 0.5"/><polyline class="cls-3" points="89.02 52.17 89.02 48.94 89.02 45.71 89.02 42.48 89.02 39.25 89.02 36.02 89.02 32.79 89.02 29.56 89.02 26.33 89.02 23.1 89.02 19.88 89.02 16.65 89.02 13.42 89.02 10.19 89.02 6.96 89.02 3.73 89.02 0.5"/><polyline class="cls-3" points="92.77 52.17 92.77 48.94 92.77 45.71 92.77 42.48 92.77 39.25 92.77 36.02 92.77 32.79 92.77 29.56 92.77 26.33 92.77 23.1 92.77 19.88 92.77 16.65 92.77 13.42 92.77 10.19 92.77 6.96 92.77 3.73 92.77 0.5"/><polyline class="cls-3" points="96.52 52.17 96.52 48.94 96.52 45.71 96.52 42.48 96.52 39.25 96.52 36.02 96.52 32.79 96.52 29.56 96.52 26.33 96.52 23.1 96.52 19.88 96.52 16.65 96.52 13.42 96.52 10.19 96.52 6.96 96.52 3.73 96.52 0.5"/><polyline class="cls-3" points="100.27 52.17 100.27 48.94 100.27 45.71 100.27 42.48 100.27 39.25 100.27 36.02 100.27 32.79 100.27 29.56 100.27 26.33 100.27 23.1 100.27 19.88 100.27 16.65 100.27 13.42 100.27 10.19 100.27 6.96 100.27 3.73 100.27 0.5"/><polyline class="cls-3" points="104.02 52.17 104.02 48.94 104.02 45.71 104.02 42.48 104.02 39.25 104.02 36.02 104.02 32.79 104.02 29.56 104.02 26.33 104.02 23.1 104.02 19.88 104.02 16.65 104.02 13.42 104.02 10.19 104.02 6.96 104.02 3.73 104.02 0.5"/><polyline class="cls-3" points="107.77 52.17 107.77 48.94 107.77 45.71 107.77 42.48 107.77 39.25 107.77 36.02 107.77 32.79 107.77 29.56 107.77 26.33 107.77 23.1 107.77 19.88 107.77 16.65 107.77 13.42 107.77 10.19 107.77 6.96 107.77 3.73 107.77 0.5"/><polyline class="cls-3" points="111.52 52.17 111.52 48.94 111.52 45.71 111.52 42.48 111.52 39.25 111.52 36.02 111.52 32.79 111.52 29.56 111.52 26.33 111.52 23.1 111.52 19.88 111.52 16.65 111.52 13.42 111.52 10.19 111.52 6.96 111.52 3.73 111.52 0.5"/><polyline class="cls-3" points="115.27 52.17 115.27 48.94 115.27 45.71 115.27 42.48 115.27 39.25 115.27 36.02 115.27 32.79 115.27 29.56 115.27 26.33 115.27 23.1 115.27 19.88 115.27 16.65 115.27 13.42 115.27 10.19 115.27 6.96 115.27 3.73 115.27 0.5"/><polyline class="cls-3" points="119.02 52.17 119.02 48.94 119.02 45.71 119.02 42.48 119.02 39.25 119.02 36.02 119.02 32.79 119.02 29.56 119.02 26.33 119.02 23.1 119.02 19.88 119.02 16.65 119.02 13.42 119.02 10.19 119.02 6.96 119.02 3.73 119.02 0.5"/><polyline class="cls-3" points="122.77 48.94 119.02 48.94 115.27 48.94 111.52 48.94 107.77 48.94 104.02 48.94 100.27 48.94 96.52 48.94 92.77 48.94 89.02 48.94 85.27 48.94 81.52 48.94 77.77 48.94 74.02 48.94 70.27 48.94 66.52 48.94 62.77 48.94"/><polyline class="cls-3" points="122.77 45.71 119.02 45.71 115.27 45.71 111.52 45.71 107.77 45.71 104.02 45.71 100.27 45.71 96.52 45.71 92.77 45.71 89.02 45.71 85.27 45.71 81.52 45.71 77.77 45.71 74.02 45.71 70.27 45.71 66.52 45.71 62.77 45.71"/><polyline class="cls-3" points="122.77 42.48 119.02 42.48 115.27 42.48 111.52 42.48 107.77 42.48 104.02 42.48 100.27 42.48 96.52 42.48 92.77 42.48 89.02 42.48 85.27 42.48 81.52 42.48 77.77 42.48 74.02 42.48 70.27 42.48 66.52 42.48 62.77 42.48"/><polyline class="cls-3" points="122.77 39.25 119.02 39.25 115.27 39.25 111.52 39.25 107.77 39.25 104.02 39.25 100.27 39.25 96.52 39.25 92.77 39.25 89.02 39.25 85.27 39.25 81.52 39.25 77.77 39.25 74.02 39.25 70.27 39.25 66.52 39.25 62.77 39.25"/><polyline class="cls-3" points="122.77 36.02 119.02 36.02 115.27 36.02 111.52 36.02 107.77 36.02 104.02 36.02 100.27 36.02 96.52 36.02 92.77 36.02 89.02 36.02 85.27 36.02 81.52 36.02 77.77 36.02 74.02 36.02 70.27 36.02 66.52 36.02 62.77 36.02"/><polyline class="cls-3" points="122.77 32.79 119.02 32.79 115.27 32.79 111.52 32.79 107.77 32.79 104.02 32.79 100.27 32.79 96.52 32.79 92.77 32.79 89.02 32.79 85.27 32.79 81.52 32.79 77.77 32.79 74.02 32.79 70.27 32.79 66.52 32.79 62.77 32.79"/><polyline class="cls-3" points="122.77 29.56 119.02 29.56 115.27 29.56 111.52 29.56 107.77 29.56 104.02 29.56 100.27 29.56 96.52 29.56 92.77 29.56 89.02 29.56 85.27 29.56 81.52 29.56 77.77 29.56 74.02 29.56 70.27 29.56 66.52 29.56 62.77 29.56"/><polyline class="cls-3" points="122.77 26.33 119.02 26.33 115.27 26.33 111.52 26.33 107.77 26.33 104.02 26.33 100.27 26.33 96.52 26.33 92.77 26.33 89.02 26.33 85.27 26.33 81.52 26.33 77.77 26.33 74.02 26.33 70.27 26.33 66.52 26.33 62.77 26.33"/><polyline class="cls-3" points="122.77 23.1 119.02 23.1 115.27 23.1 111.52 23.1 107.77 23.1 104.02 23.1 100.27 23.1 96.52 23.1 92.77 23.1 89.02 23.1 85.27 23.1 81.52 23.1 77.77 23.1 74.02 23.1 70.27 23.1 66.52 23.1 62.77 23.1"/><polyline class="cls-3" points="122.77 19.88 119.02 19.88 115.27 19.88 111.52 19.88 107.77 19.88 104.02 19.88 100.27 19.88 96.52 19.88 92.77 19.88 89.02 19.88 85.27 19.88 81.52 19.88 77.77 19.88 74.02 19.88 70.27 19.88 66.52 19.88 62.77 19.88"/><polyline class="cls-3" points="122.77 16.65 119.02 16.65 115.27 16.65 111.52 16.65 107.77 16.65 104.02 16.65 100.27 16.65 96.52 16.65 92.77 16.65 89.02 16.65 85.27 16.65 81.52 16.65 77.77 16.65 74.02 16.65 70.27 16.65 66.52 16.65 62.77 16.65"/><polyline class="cls-3" points="122.77 13.42 119.02 13.42 115.27 13.42 111.52 13.42 107.77 13.42 104.02 13.42 100.27 13.42 96.52 13.42 92.77 13.42 89.02 13.42 85.27 13.42 81.52 13.42 77.77 13.42 74.02 13.42 70.27 13.42 66.52 13.42 62.77 13.42"/><polyline class="cls-3" points="122.77 10.19 119.02 10.19 115.27 10.19 111.52 10.19 107.77 10.19 104.02 10.19 100.27 10.19 96.52 10.19 92.77 10.19 89.02 10.19 85.27 10.19 81.52 10.19 77.77 10.19 74.02 10.19 70.27 10.19 66.52 10.19 62.77 10.19"/><polyline class="cls-3" points="122.77 6.96 119.02 6.96 115.27 6.96 111.52 6.96 107.77 6.96 104.02 6.96 100.27 6.96 96.52 6.96 92.77 6.96 89.02 6.96 85.27 6.96 81.52 6.96 77.77 6.96 74.02 6.96 70.27 6.96 66.52 6.96 62.77 6.96"/><polyline class="cls-3" points="122.77 3.73 119.02 3.73 115.27 3.73 111.52 3.73 107.77 3.73 104.02 3.73 100.27 3.73 96.52 3.73 92.77 3.73 89.02 3.73 85.27 3.73 81.52 3.73 77.77 3.73 74.02 3.73 70.27 3.73 66.52 3.73 62.77 3.73"/><polygon class="cls-2" points="2.77 80.5 62.77 108.83 122.77 108.83 122.77 80.5 2.77 80.5"/><line class="cls-3" x1="7.38" y1="82.68" x2="7.38" y2="80.5"/><line class="cls-3" x1="12" y1="84.86" x2="12" y2="80.5"/><line class="cls-3" x1="16.61" y1="87.03" x2="16.61" y2="80.5"/><line class="cls-3" x1="21.23" y1="89.22" x2="21.23" y2="80.5"/><line class="cls-3" x1="25.84" y1="91.39" x2="25.84" y2="80.5"/><line class="cls-3" x1="30.46" y1="93.57" x2="30.46" y2="80.5"/><line class="cls-3" x1="35.07" y1="95.75" x2="35.07" y2="80.5"/><line class="cls-3" x1="39.69" y1="97.93" x2="39.69" y2="80.5"/><line class="cls-3" x1="44.31" y1="100.11" x2="44.31" y2="80.5"/><line class="cls-3" x1="48.92" y1="102.29" x2="48.92" y2="80.5"/><line class="cls-3" x1="53.54" y1="104.47" x2="53.54" y2="80.5"/><line class="cls-3" x1="58.15" y1="106.65" x2="58.15" y2="80.5"/><line class="cls-3" x1="62.77" y1="108.83" x2="62.77" y2="80.5"/><line class="cls-3" x1="67.38" y1="108.83" x2="67.38" y2="80.5"/><line class="cls-3" x1="72" y1="108.83" x2="72" y2="80.5"/><line class="cls-3" x1="76.61" y1="108.83" x2="76.61" y2="80.5"/><line class="cls-3" x1="81.23" y1="108.83" x2="81.23" y2="80.5"/><line class="cls-3" x1="85.84" y1="108.83" x2="85.84" y2="80.5"/><line class="cls-3" x1="90.46" y1="108.83" x2="90.46" y2="80.5"/><line class="cls-3" x1="95.07" y1="108.83" x2="95.07" y2="80.5"/><line class="cls-3" x1="99.69" y1="108.83" x2="99.69" y2="80.5"/><line class="cls-3" x1="104.31" y1="108.83" x2="104.31" y2="80.5"/><line class="cls-3" x1="108.92" y1="108.83" x2="108.92" y2="80.5"/><line class="cls-3" x1="113.54" y1="108.83" x2="113.54" y2="80.5"/><line class="cls-3" x1="118.15" y1="108.83" x2="118.15" y2="80.5"/></g></g></svg>