<svg xmlns="http://www.w3.org/2000/svg" viewBox="0 0 126.35 110.1"><defs><style>.cls-1,.cls-3{fill:none;}.cls-1,.cls-2,.cls-3{stroke:#000;stroke-miterlimit:10;}.cls-3{stroke-width:0.25px;}</style></defs><title>Artboard5</title><g id="Layer_2" data-name="Layer 2"><g id="Layer_1-2" data-name="Layer 1"><polygon class="cls-1" points="5.85 81.27 65.85 109.6 125.85 109.6 125.85 81.27 5.85 81.27"/><polygon class="cls-2" points="0.5 80.5 0.5 0.5 60.5 0.5 60.5 52.17 0.5 80.5"/><rect class="cls-1" x="63.93" y="0.5" width="60" height="51.67"/><polyline class="cls-3" points="67.68 52.17 67.68 48.94 67.68 45.71 67.68 42.48 67.68 39.25 67.68 36.02 67.68 32.79 67.68 29.56 67.68 26.33 67.68 23.1 67.68 19.88 67.68 16.65 67.68 13.42 67.68 10.19 67.68 6.96 67.68 3.73 67.68 0.5"/><polyline class="cls-3" points="71.43 52.17 71.43 48.94 71.43 45.71 71.43 42.48 71.43 39.25 71.43 36.02 71.43 32.79 71.43 29.56 71.43 26.33 71.43 23.1 71.43 19.88 71.43 16.65 71.43 13.42 71.43 10.19 71.43 6.96 71.43 3.73 71.43 0.5"/><polyline class="cls-3" points="75.18 52.17 75.18 48.94 75.18 45.71 75.18 42.48 75.18 39.25 75.18 36.02 75.18 32.79 75.18 29.56 75.18 26.33 75.18 23.1 75.18 19.88 75.18 16.65 75.18 13.42 75.18 10.19 75.18 6.96 75.18 3.73 75.18 0.5"/><polyline class="cls-3" points="78.93 52.17 78.93 48.94 78.93 45.71 78.93 42.48 78.93 39.25 78.93 36.02 78.93 32.79 78.93 29.56 78.93 26.33 78.93 23.1 78.93 19.88 78.93 16.65 78.93 13.42 78.93 10.19 78.93 6.96 78.93 3.73 78.93 0.5"/><polyline class="cls-3" points="82.68 52.17 82.68 48.94 82.68 45.71 82.68 42.48 82.68 39.25 82.68 36.02 82.68 32.79 82.68 29.56 82.68 26.33 82.68 23.1 82.68 19.88 82.68 16.65 82.68 13.42 82.68 10.19 82.68 6.96 82.68 3.73 82.68 0.5"/><polyline class="cls-3" points="86.43 52.17 86.43 48.94 86.43 45.71 86.43 42.48 86.43 39.25 86.43 36.02 86.43 32.79 86.43 29.56 86.43 26.33 86.43 23.1 86.43 19.88 86.43 16.65 86.43 13.42 86.43 10.19 86.43 6.96 86.43 3.73 86.43 0.5"/><polyline class="cls-3" points="90.18 52.17 90.18 48.94 90.18 45.71 90.18 42.48 90.18 39.25 90.18 36.02 90.18 32.79 90.18 29.56 90.18 26.33 90.18 23.1 90.18 19.88 90.18 16.65 90.18 13.42 90.18 10.19 90.18 6.96 90.18 3.73 90.18 0.5"/><polyline class="cls-3" points="93.93 52.17 93.93 48.94 93.93 45.71 93.93 42.48 93.93 39.25 93.93 36.02 93.93 32.79 93.93 29.56 93.93 26.33 93.93 23.1 93.93 19.88 93.93 16.65 93.93 13.42 93.93 10.19 93.93 6.96 93.93 3.73 93.93 0.5"/><polyline class="cls-3" points="97.68 52.17 97.68 48.94 97.68 45.71 97.68 42.48 97.68 39.25 97.68 36.02 97.68 32.79 97.68 29.56 97.68 26.33 97.68 23.1 97.68 19.88 97.68 16.65 97.68 13.42 97.68 10.19 97.68 6.96 97.68 3.73 97.68 0.5"/><polyline class="cls-3" points="101.43 52.17 101.43 48.94 101.43 45.71 101.43 42.48 101.43 39.25 101.43 36.02 101.43 32.79 101.43 29.56 101.43 26.33 101.43 23.1 101.43 19.88 101.43 16.65 101.43 13.42 101.43 10.19 101.43 6.96 101.43 3.73 101.43 0.5"/><polyline class="cls-3" points="105.18 52.17 105.18 48.94 105.18 45.71 105.18 42.48 105.18 39.25 105.18 36.02 105.18 32.79 105.18 29.56 105.18 26.33 105.18 23.1 105.18 19.88 105.18 16.65 105.18 13.42 105.18 10.19 105.18 6.96 105.18 3.73 105.18 0.5"/><polyline class="cls-3" points="108.93 52.17 108.93 48.94 108.93 45.71 108.93 42.48 108.93 39.25 108.93 36.02 108.93 32.79 108.93 29.56 108.93 26.33 108.93 23.1 108.93 19.88 108.93 16.65 108.93 13.42 108.93 10.19 108.93 6.96 108.93 3.73 108.93 0.5"/><polyline class="cls-3" points="112.68 52.17 112.68 48.94 112.68 45.71 112.68 42.48 112.68 39.25 112.68 36.02 112.68 32.79 112.68 29.56 112.68 26.33 112.68 23.1 112.68 19.88 112.68 16.65 112.68 13.42 112.68 10.19 112.68 6.96 112.68 3.73 112.68 0.5"/><polyline class="cls-3" points="116.43 52.17 116.43 48.94 116.43 45.71 116.43 42.48 116.43 39.25 116.43 36.02 116.43 32.79 116.43 29.56 116.43 26.33 116.43 23.1 116.43 19.88 116.43 16.65 116.43 13.42 116.43 10.19 116.43 6.96 116.43 3.73 116.43 0.5"/><polyline class="cls-3" points="120.18 52.17 120.18 48.94 120.18 45.71 120.18 42.48 120.18 39.25 120.18 36.02 120.18 32.79 120.18 29.56 120.18 26.33 120.18 23.1 120.18 19.88 120.18 16.65 120.18 13.42 120.18 10.19 120.18 6.96 120.18 3.73 120.18 0.5"/><polyline class="cls-3" points="123.93 48.94 120.18 48.94 116.43 48.94 112.68 48.94 108.93 48.94 105.18 48.94 101.43 48.94 97.68 48.94 93.93 48.94 90.18 48.94 86.43 48.94 82.68 48.94 78.93 48.94 75.18 48.94 71.43 48.94 67.68 48.94 63.93 48.94"/><polyline class="cls-3" points="123.93 45.71 120.18 45.71 116.43 45.71 112.68 45.71 108.93 45.71 105.18 45.71 101.43 45.71 97.68 45.71 93.93 45.71 90.18 45.71 86.43 45.71 82.68 45.71 78.93 45.71 75.18 45.71 71.43 45.71 67.68 45.71 63.93 45.71"/><polyline class="cls-3" points="123.93 42.48 120.18 42.48 116.43 42.48 112.68 42.48 108.93 42.48 105.18 42.48 101.43 42.48 97.68 42.48 93.93 42.48 90.18 42.48 86.43 42.48 82.68 42.48 78.93 42.48 75.18 42.48 71.43 42.48 67.68 42.48 63.93 42.48"/><polyline class="cls-3" points="123.93 39.25 120.18 39.25 116.43 39.25 112.68 39.25 108.93 39.25 105.18 39.25 101.43 39.25 97.68 39.25 93.93 39.25 90.18 39.25 86.43 39.25 82.68 39.25 78.93 39.25 75.18 39.25 71.43 39.25 67.68 39.25 63.93 39.25"/><polyline class="cls-3" points="123.93 36.02 120.18 36.02 116.43 36.02 112.68 36.02 108.93 36.02 105.18 36.02 101.43 36.02 97.68 36.02 93.93 36.02 90.18 36.02 86.43 36.02 82.68 36.02 78.93 36.02 75.18 36.02 71.43 36.02 67.68 36.02 63.93 36.02"/><polyline class="cls-3" points="123.93 32.79 120.18 32.79 116.43 32.79 112.68 32.79 108.93 32.79 105.18 32.79 101.43 32.79 97.68 32.79 93.93 32.79 90.18 32.79 86.43 32.79 82.68 32.79 78.93 32.79 75.18 32.79 71.43 32.79 67.68 32.79 63.93 32.79"/><polyline class="cls-3" points="123.93 29.56 120.18 29.56 116.43 29.56 112.68 29.56 108.93 29.56 105.18 29.56 101.43 29.56 97.68 29.56 93.93 29.56 90.18 29.56 86.43 29.56 82.68 29.56 78.93 29.56 75.18 29.56 71.43 29.56 67.68 29.56 63.93 29.56"/><polyline class="cls-3" points="123.93 26.33 120.18 26.33 116.43 26.33 112.68 26.33 108.93 26.33 105.18 26.33 101.43 26.33 97.68 26.33 93.93 26.33 90.18 26.33 86.43 26.33 82.68 26.33 78.93 26.33 75.18 26.33 71.43 26.33 67.68 26.33 63.93 26.33"/><polyline class="cls-3" points="123.93 23.1 120.18 23.1 116.43 23.1 112.68 23.1 108.93 23.1 105.18 23.1 101.43 23.1 97.68 23.1 93.93 23.1 90.18 23.1 86.43 23.1 82.68 23.1 78.93 23.1 75.18 23.1 71.43 23.1 67.68 23.1 63.93 23.1"/><polyline class="cls-3" points="123.93 19.88 120.18 19.88 116.43 19.88 112.68 19.88 108.93 19.88 105.18 19.88 101.43 19.88 97.68 19.88 93.93 19.88 90.18 19.88 86.43 19.88 82.68 19.88 78.93 19.88 75.18 19.88 71.43 19.88 67.68 19.88 63.93 19.88"/><polyline class="cls-3" points="123.93 16.65 120.18 16.65 116.43 16.65 112.68 16.65 108.93 16.65 105.18 16.65 101.43 16.65 97.68 16.65 93.93 16.65 90.18 16.65 86.43 16.65 82.68 16.65 78.93 16.65 75.18 16.65 71.43 16.65 67.68 16.65 63.93 16.65"/><polyline class="cls-3" points="123.93 13.42 120.18 13.42 116.43 13.42 112.68 13.42 108.93 13.42 105.18 13.42 101.43 13.42 97.68 13.42 93.93 13.42 90.18 13.42 86.43 13.42 82.68 13.42 78.93 13.42 75.18 13.42 71.43 13.42 67.68 13.42 63.93 13.42"/><polyline class="cls-3" points="123.93 10.19 120.18 10.19 116.43 10.19 112.68 10.19 108.93 10.19 105.18 10.19 101.43 10.19 97.68 10.19 93.93 10.19 90.18 10.19 86.43 10.19 82.68 10.19 78.93 10.19 75.18 10.19 71.43 10.19 67.68 10.19 63.93 10.19"/><polyline class="cls-3" points="123.93 6.96 120.18 6.96 116.43 6.96 112.68 6.96 108.93 6.96 105.18 6.96 101.43 6.96 97.68 6.96 93.93 6.96 90.18 6.96 86.43 6.96 82.68 6.96 78.93 6.96 75.18 6.96 71.43 6.96 67.68 6.96 63.93 6.96"/><polyline class="cls-3" points="123.93 3.73 120.18 3.73 116.43 3.73 112.68 3.73 108.93 3.73 105.18 3.73 101.43 3.73 97.68 3.73 93.93 3.73 90.18 3.73 86.43 3.73 82.68 3.73 78.93 3.73 75.18 3.73 71.43 3.73 67.68 3.73 63.93 3.73"/></g></g></svg>