<svg xmlns="http://www.w3.org/2000/svg" viewBox="0 0 125.07 112.8"><defs><style>.cls-1,.cls-2,.cls-3{stroke:#000;stroke-miterlimit:10;}.cls-2,.cls-3{fill:none;}.cls-3{stroke-width:0.25px;}</style></defs><title>Artboard4</title><g id="Layer_2" data-name="Layer 2"><g id="Layer_1-2" data-name="Layer 1"><polygon class="cls-1" points="0.5 80.5 0.5 0.5 60.5 0.5 60.5 52.17 0.5 80.5"/><rect class="cls-2" x="64.57" y="0.5" width="60" height="51.67"/><polygon class="cls-2" points="4.57 83.96 64.57 112.3 124.57 112.3 124.57 83.96 4.57 83.96"/><line class="cls-3" x1="9.18" y1="86.14" x2="9.18" y2="83.96"/><line class="cls-3" x1="13.8" y1="88.32" x2="13.8" y2="83.96"/><line class="cls-3" x1="18.41" y1="90.49" x2="18.41" y2="83.96"/><line class="cls-3" x1="23.03" y1="92.68" x2="23.03" y2="83.96"/><line class="cls-3" x1="27.64" y1="94.85" x2="27.64" y2="83.96"/><line class="cls-3" x1="32.26" y1="97.03" x2="32.26" y2="83.96"/><line class="cls-3" x1="36.87" y1="99.21" x2="36.87" y2="83.96"/><line class="cls-3" x1="41.49" y1="101.39" x2="41.49" y2="83.96"/><line class="cls-3" x1="46.11" y1="103.57" x2="46.11" y2="83.96"/><line class="cls-3" x1="50.72" y1="105.75" x2="50.72" y2="83.96"/><line class="cls-3" x1="55.34" y1="107.93" x2="55.34" y2="83.96"/><line class="cls-3" x1="59.95" y1="110.11" x2="59.95" y2="83.96"/><line class="cls-3" x1="64.57" y1="112.29" x2="64.57" y2="83.96"/><line class="cls-3" x1="69.18" y1="112.29" x2="69.18" y2="83.96"/><line class="cls-3" x1="73.8" y1="112.29" x2="73.8" y2="83.96"/><line class="cls-3" x1="78.41" y1="112.29" x2="78.41" y2="83.96"/><line class="cls-3" x1="83.03" y1="112.29" x2="83.03" y2="83.96"/><line class="cls-3" x1="87.64" y1="112.29" x2="87.64" y2="83.96"/><line class="cls-3" x1="92.26" y1="112.29" x2="92.26" y2="83.96"/><line class="cls-3" x1="96.87" y1="112.29" x2="96.87" y2="83.96"/><line class="cls-3" x1="101.49" y1="112.29" x2="101.49" y2="83.96"/><line class="cls-3" x1="106.11" y1="112.29" x2="106.11" y2="83.96"/><line class="cls-3" x1="110.72" y1="112.29" x2="110.72" y2="83.96"/><line class="cls-3" x1="115.34" y1="112.29" x2="115.34" y2="83.96"/><line class="cls-3" x1="119.95" y1="112.29" x2="119.95" y2="83.96"/></g></g></svg>