<svg xmlns="http://www.w3.org/2000/svg" viewBox="0 0 125.07 110.82"><defs><style>.cls-1,.cls-2,.cls-3{stroke:#000;stroke-miterlimit:10;}.cls-2,.cls-3{fill:none;}.cls-3{stroke-width:0.25px;}</style></defs><title>Artboard7</title><g id="Layer_2" data-name="Layer 2"><g id="Layer_1-2" data-name="Layer 1"><polygon class="cls-1" points="0.5 80.5 0.5 0.5 60.5 0.5 60.5 52.17 0.5 80.5"/><polygon class="cls-1" points="4.58 81.99 64.58 110.32 124.58 110.32 124.58 81.99 4.58 81.99"/><rect class="cls-2" x="64.46" y="0.5" width="60" height="51.67"/><polyline class="cls-3" points="68.21 52.17 68.21 48.94 68.21 45.71 68.21 42.48 68.21 39.25 68.21 36.02 68.21 32.79 68.21 29.56 68.21 26.33 68.21 23.1 68.21 19.88 68.21 16.65 68.21 13.42 68.21 10.19 68.21 6.96 68.21 3.73 68.21 0.5"/><polyline class="cls-3" points="71.96 52.17 71.96 48.94 71.96 45.71 71.96 42.48 71.96 39.25 71.96 36.02 71.96 32.79 71.96 29.56 71.96 26.33 71.96 23.1 71.96 19.88 71.96 16.65 71.96 13.42 71.96 10.19 71.96 6.96 71.96 3.73 71.96 0.5"/><polyline class="cls-3" points="75.71 52.17 75.71 48.94 75.71 45.71 75.71 42.48 75.71 39.25 75.71 36.02 75.71 32.79 75.71 29.56 75.71 26.33 75.71 23.1 75.71 19.88 75.71 16.65 75.71 13.42 75.71 10.19 75.71 6.96 75.71 3.73 75.71 0.5"/><polyline class="cls-3" points="79.46 52.17 79.46 48.94 79.46 45.71 79.46 42.48 79.46 39.25 79.46 36.02 79.46 32.79 79.46 29.56 79.46 26.33 79.46 23.1 79.46 19.88 79.46 16.65 79.46 13.42 79.46 10.19 79.46 6.96 79.46 3.73 79.46 0.5"/><polyline class="cls-3" points="83.21 52.17 83.21 48.94 83.21 45.71 83.21 42.48 83.21 39.25 83.21 36.02 83.21 32.79 83.21 29.56 83.21 26.33 83.21 23.1 83.21 19.88 83.21 16.65 83.21 13.42 83.21 10.19 83.21 6.96 83.21 3.73 83.21 0.5"/><polyline class="cls-3" points="86.96 52.17 86.96 48.94 86.96 45.71 86.96 42.48 86.96 39.25 86.96 36.02 86.96 32.79 86.96 29.56 86.96 26.33 86.96 23.1 86.96 19.88 86.96 16.65 86.96 13.42 86.96 10.19 86.96 6.96 86.96 3.73 86.96 0.5"/><polyline class="cls-3" points="90.71 52.17 90.71 48.94 90.71 45.71 90.71 42.48 90.71 39.25 90.71 36.02 90.71 32.79 90.71 29.56 90.71 26.33 90.71 23.1 90.71 19.88 90.71 16.65 90.71 13.42 90.71 10.19 90.71 6.96 90.71 3.73 90.71 0.5"/><polyline class="cls-3" points="94.46 52.17 94.46 48.94 94.46 45.71 94.46 42.48 94.46 39.25 94.46 36.02 94.46 32.79 94.46 29.56 94.46 26.33 94.46 23.1 94.46 19.88 94.46 16.65 94.46 13.42 94.46 10.19 94.46 6.96 94.46 3.73 94.46 0.5"/><polyline class="cls-3" points="98.21 52.17 98.21 48.94 98.21 45.71 98.21 42.48 98.21 39.25 98.21 36.02 98.21 32.79 98.21 29.56 98.21 26.33 98.21 23.1 98.21 19.88 98.21 16.65 98.21 13.42 98.21 10.19 98.21 6.96 98.21 3.73 98.21 0.5"/><polyline class="cls-3" points="101.96 52.17 101.96 48.94 101.96 45.71 101.96 42.48 101.96 39.25 101.96 36.02 101.96 32.79 101.96 29.56 101.96 26.33 101.96 23.1 101.96 19.88 101.96 16.65 101.96 13.42 101.96 10.19 101.96 6.96 101.96 3.73 101.96 0.5"/><polyline class="cls-3" points="105.71 52.17 105.71 48.94 105.71 45.71 105.71 42.48 105.71 39.25 105.71 36.02 105.71 32.79 105.71 29.56 105.71 26.33 105.71 23.1 105.71 19.88 105.71 16.65 105.71 13.42 105.71 10.19 105.71 6.96 105.71 3.73 105.71 0.5"/><polyline class="cls-3" points="109.46 52.17 109.46 48.94 109.46 45.71 109.46 42.48 109.46 39.25 109.46 36.02 109.46 32.79 109.46 29.56 109.46 26.33 109.46 23.1 109.46 19.88 109.46 16.65 109.46 13.42 109.46 10.19 109.46 6.96 109.46 3.73 109.46 0.5"/><polyline class="cls-3" points="113.21 52.17 113.21 48.94 113.21 45.71 113.21 42.48 113.21 39.25 113.21 36.02 113.21 32.79 113.21 29.56 113.21 26.33 113.21 23.1 113.21 19.88 113.21 16.65 113.21 13.42 113.21 10.19 113.21 6.96 113.21 3.73 113.21 0.5"/><polyline class="cls-3" points="116.96 52.17 116.96 48.94 116.96 45.71 116.96 42.48 116.96 39.25 116.96 36.02 116.96 32.79 116.96 29.56 116.96 26.33 116.96 23.1 116.96 19.88 116.96 16.65 116.96 13.42 116.96 10.19 116.96 6.96 116.96 3.73 116.96 0.5"/><polyline class="cls-3" points="120.71 52.17 120.71 48.94 120.71 45.71 120.71 42.48 120.71 39.25 120.71 36.02 120.71 32.79 120.71 29.56 120.71 26.33 120.71 23.1 120.71 19.88 120.71 16.65 120.71 13.42 120.71 10.19 120.71 6.96 120.71 3.73 120.71 0.5"/><polyline class="cls-3" points="124.46 48.94 120.71 48.94 116.96 48.94 113.21 48.94 109.46 48.94 105.71 48.94 101.96 48.94 98.21 48.94 94.46 48.94 90.71 48.94 86.96 48.94 83.21 48.94 79.46 48.94 75.71 48.94 71.96 48.94 68.21 48.94 64.46 48.94"/><polyline class="cls-3" points="124.46 45.71 120.71 45.71 116.96 45.71 113.21 45.71 109.46 45.71 105.71 45.71 101.96 45.71 98.21 45.71 94.46 45.71 90.71 45.71 86.96 45.71 83.21 45.71 79.46 45.71 75.71 45.71 71.96 45.71 68.21 45.71 64.46 45.71"/><polyline class="cls-3" points="124.46 42.48 120.71 42.48 116.96 42.48 113.21 42.48 109.46 42.48 105.71 42.48 101.96 42.48 98.21 42.48 94.46 42.48 90.71 42.48 86.96 42.48 83.21 42.48 79.46 42.48 75.71 42.48 71.96 42.48 68.21 42.48 64.46 42.48"/><polyline class="cls-3" points="124.46 39.25 120.71 39.25 116.96 39.25 113.21 39.25 109.46 39.25 105.71 39.25 101.96 39.25 98.21 39.25 94.46 39.25 90.71 39.25 86.96 39.25 83.21 39.25 79.46 39.25 75.71 39.25 71.96 39.25 68.21 39.25 64.46 39.25"/><polyline class="cls-3" points="124.46 36.02 120.71 36.02 116.96 36.02 113.21 36.02 109.46 36.02 105.71 36.02 101.96 36.02 98.21 36.02 94.46 36.02 90.71 36.02 86.96 36.02 83.21 36.02 79.46 36.02 75.71 36.02 71.96 36.02 68.21 36.02 64.46 36.02"/><polyline class="cls-3" points="124.46 32.79 120.71 32.79 116.96 32.79 113.21 32.79 109.46 32.79 105.71 32.79 101.96 32.79 98.21 32.79 94.46 32.79 90.71 32.79 86.96 32.79 83.21 32.79 79.46 32.79 75.71 32.79 71.96 32.79 68.21 32.79 64.46 32.79"/><polyline class="cls-3" points="124.46 29.56 120.71 29.56 116.96 29.56 113.21 29.56 109.46 29.56 105.71 29.56 101.96 29.56 98.21 29.56 94.46 29.56 90.71 29.56 86.96 29.56 83.21 29.56 79.46 29.56 75.71 29.56 71.96 29.56 68.21 29.56 64.46 29.56"/><polyline class="cls-3" points="124.46 26.33 120.71 26.33 116.96 26.33 113.21 26.33 109.46 26.33 105.71 26.33 101.96 26.33 98.21 26.33 94.46 26.33 90.71 26.33 86.96 26.33 83.21 26.33 79.46 26.33 75.71 26.33 71.96 26.33 68.21 26.33 64.46 26.33"/><polyline class="cls-3" points="124.46 23.1 120.71 23.1 116.96 23.1 113.21 23.1 109.46 23.1 105.71 23.1 101.96 23.1 98.21 23.1 94.46 23.1 90.71 23.1 86.96 23.1 83.21 23.1 79.46 23.1 75.71 23.1 71.96 23.1 68.21 23.1 64.46 23.1"/><polyline class="cls-3" points="124.46 19.88 120.71 19.88 116.96 19.88 113.21 19.88 109.46 19.88 105.71 19.88 101.96 19.88 98.21 19.88 94.46 19.88 90.71 19.88 86.96 19.88 83.21 19.88 79.46 19.88 75.71 19.88 71.96 19.88 68.21 19.88 64.46 19.88"/><polyline class="cls-3" points="124.46 16.65 120.71 16.65 116.96 16.65 113.21 16.65 109.46 16.65 105.71 16.65 101.96 16.65 98.21 16.65 94.46 16.65 90.71 16.65 86.96 16.65 83.21 16.65 79.46 16.65 75.71 16.65 71.96 16.65 68.21 16.65 64.46 16.65"/><polyline class="cls-3" points="124.46 13.42 120.71 13.42 116.96 13.42 113.21 13.42 109.46 13.42 105.71 13.42 101.96 13.42 98.21 13.42 94.46 13.42 90.71 13.42 86.96 13.42 83.21 13.42 79.46 13.42 75.71 13.42 71.96 13.42 68.21 13.42 64.46 13.42"/><polyline class="cls-3" points="124.46 10.19 120.71 10.19 116.96 10.19 113.21 10.19 109.46 10.19 105.71 10.19 101.96 10.19 98.21 10.19 94.46 10.19 90.71 10.19 86.96 10.19 83.21 10.19 79.46 10.19 75.71 10.19 71.96 10.19 68.21 10.19 64.46 10.19"/><polyline class="cls-3" points="124.46 6.96 120.71 6.96 116.96 6.96 113.21 6.96 109.46 6.96 105.71 6.96 101.96 6.96 98.21 6.96 94.46 6.96 90.71 6.96 86.96 6.96 83.21 6.96 79.46 6.96 75.71 6.96 71.96 6.96 68.21 6.96 64.46 6.96"/><polyline class="cls-3" points="124.46 3.73 120.71 3.73 116.96 3.73 113.21 3.73 109.46 3.73 105.71 3.73 101.96 3.73 98.21 3.73 94.46 3.73 90.71 3.73 86.96 3.73 83.21 3.73 79.46 3.73 75.71 3.73 71.96 3.73 68.21 3.73 64.46 3.73"/></g></g></svg>