<svg xmlns="http://www.w3.org/2000/svg" viewBox="0 0 96.14 111.62"><defs><style>.cls-1,.cls-2,.cls-4{stroke:#000;stroke-miterlimit:10;}.cls-2,.cls-4{fill:none;}.cls-3{font-size:9px;font-family:Georgia, Georgia;}.cls-4{stroke-width:0.25px;}</style></defs><title>Artboard5</title><g id="Layer_2" data-name="Layer 2"><g id="Layer_1-2" data-name="Layer 1"><polygon class="cls-1" points="47.55 77.58 64.87 32.58 30.23 32.58 47.55 77.58"/><circle class="cls-2" cx="15.5" cy="54.87" r="15"/><text class="cls-3" transform="translate(22.59 57.83) rotate(180)">V V<tspan x="0" y="10.8" xml:space="preserve">  V</tspan></text><circle class="cls-2" cx="80.64" cy="54.87" r="15"/><text class="cls-3" transform="translate(87.74 57.83) rotate(180)">V V<tspan x="0" y="10.8" xml:space="preserve">  V</tspan></text><rect class="cls-2" x="27.55" y="81.12" width="40" height="30"/><line class="cls-4" x1="29.22" y1="111.12" x2="29.22" y2="81.12"/><line class="cls-4" x1="31.37" y1="111.12" x2="31.37" y2="81.12"/><line class="cls-4" x1="33.51" y1="111.12" x2="33.51" y2="81.12"/><line class="cls-4" x1="35.65" y1="111.12" x2="35.65" y2="81.12"/><line class="cls-4" x1="37.79" y1="111.12" x2="37.79" y2="81.12"/><line class="cls-4" x1="39.94" y1="111.12" x2="39.94" y2="81.12"/><line class="cls-4" x1="42.08" y1="111.12" x2="42.08" y2="81.12"/><line class="cls-4" x1="44.22" y1="111.12" x2="44.22" y2="81.12"/><line class="cls-4" x1="46.36" y1="111.12" x2="46.36" y2="81.12"/><line class="cls-4" x1="48.5" y1="111.12" x2="48.5" y2="81.12"/><line class="cls-4" x1="50.65" y1="111.12" x2="50.65" y2="81.12"/><line class="cls-4" x1="52.79" y1="111.12" x2="52.79" y2="81.12"/><line class="cls-4" x1="54.93" y1="111.12" x2="54.93" y2="81.12"/><line class="cls-4" x1="57.07" y1="111.12" x2="57.07" y2="81.12"/><line class="cls-4" x1="59.22" y1="111.12" x2="59.22" y2="81.12"/><line class="cls-4" x1="61.36" y1="111.12" x2="61.36" y2="81.12"/><line class="cls-4" x1="63.5" y1="111.12" x2="63.5" y2="81.12"/><line class="cls-4" x1="65.64" y1="111.12" x2="65.64" y2="81.12"/><rect class="cls-2" x="17.55" y="0.5" width="60" height="30"/><line class="cls-4" x1="19.57" y1="30.5" x2="19.57" y2="0.5"/><line class="cls-4" x1="21.71" y1="30.5" x2="21.71" y2="0.5"/><line class="cls-4" x1="23.86" y1="30.5" x2="23.86" y2="0.5"/><line class="cls-4" x1="26" y1="30.5" x2="26" y2="0.5"/><line class="cls-4" x1="28.14" y1="30.5" x2="28.14" y2="0.5"/><line class="cls-4" x1="30.28" y1="30.5" x2="30.28" y2="0.5"/><line class="cls-4" x1="32.43" y1="30.5" x2="32.43" y2="0.5"/><line class="cls-4" x1="34.57" y1="30.5" x2="34.57" y2="0.5"/><line class="cls-4" x1="36.71" y1="30.5" x2="36.71" y2="0.5"/><line class="cls-4" x1="38.85" y1="30.5" x2="38.85" y2="0.5"/><line class="cls-4" x1="41" y1="30.5" x2="41" y2="0.5"/><line class="cls-4" x1="43.14" y1="30.5" x2="43.14" y2="0.5"/><line class="cls-4" x1="45.28" y1="30.5" x2="45.28" y2="0.5"/><line class="cls-4" x1="47.42" y1="30.5" x2="47.42" y2="0.5"/><line class="cls-4" x1="49.56" y1="30.5" x2="49.56" y2="0.5"/><line class="cls-4" x1="51.71" y1="30.5" x2="51.71" y2="0.5"/><line class="cls-4" x1="53.85" y1="30.5" x2="53.85" y2="0.5"/><line class="cls-4" x1="55.99" y1="30.5" x2="55.99" y2="0.5"/><line class="cls-4" x1="58.13" y1="30.5" x2="58.13" y2="0.5"/><line class="cls-4" x1="60.28" y1="30.5" x2="60.28" y2="0.5"/><line class="cls-4" x1="62.42" y1="30.5" x2="62.42" y2="0.5"/><line class="cls-4" x1="64.56" y1="30.5" x2="64.56" y2="0.5"/><line class="cls-4" x1="66.7" y1="30.5" x2="66.7" y2="0.5"/><line class="cls-4" x1="68.84" y1="30.5" x2="68.84" y2="0.5"/><line class="cls-4" x1="70.99" y1="30.5" x2="70.99" y2="0.5"/><line class="cls-4" x1="73.13" y1="30.5" x2="73.13" y2="0.5"/><line class="cls-4" x1="75.27" y1="30.5" x2="75.27" y2="0.5"/></g></g></svg>