<svg xmlns="http://www.w3.org/2000/svg" viewBox="0 0 96.92 110.7"><defs><style>.cls-1,.cls-2,.cls-4{stroke:#000;stroke-miterlimit:10;}.cls-2,.cls-4{fill:none;}.cls-3{font-size:9px;font-family:Georgia, Georgia;}.cls-4{stroke-width:0.25px;}</style></defs><title>Artboard6</title><g id="Layer_2" data-name="Layer 2"><g id="Layer_1-2" data-name="Layer 1"><polygon class="cls-1" points="48.83 77.58 66.15 32.58 31.51 32.58 48.83 77.58"/><circle class="cls-2" cx="81.42" cy="54.3" r="15"/><text class="cls-3" transform="matrix(-1, 0, 0, 1, 88.51, 51.34)">V V<tspan x="0" y="10.8" xml:space="preserve">  V</tspan></text><circle class="cls-2" cx="15.5" cy="54.3" r="15"/><text class="cls-3" transform="matrix(-1, 0, 0, 1, 22.6, 51.34)">V V<tspan x="0" y="10.8" xml:space="preserve">  V</tspan></text><rect class="cls-2" x="28.83" y="80.2" width="40" height="30"/><line class="cls-4" x1="30.5" y1="110.2" x2="30.5" y2="80.2"/><line class="cls-4" x1="32.65" y1="110.2" x2="32.65" y2="80.2"/><line class="cls-4" x1="34.79" y1="110.2" x2="34.79" y2="80.2"/><line class="cls-4" x1="36.93" y1="110.2" x2="36.93" y2="80.2"/><line class="cls-4" x1="39.07" y1="110.2" x2="39.07" y2="80.2"/><line class="cls-4" x1="41.22" y1="110.2" x2="41.22" y2="80.2"/><line class="cls-4" x1="43.36" y1="110.2" x2="43.36" y2="80.2"/><line class="cls-4" x1="45.5" y1="110.2" x2="45.5" y2="80.2"/><line class="cls-4" x1="47.64" y1="110.2" x2="47.64" y2="80.2"/><line class="cls-4" x1="49.78" y1="110.2" x2="49.78" y2="80.2"/><line class="cls-4" x1="51.93" y1="110.2" x2="51.93" y2="80.2"/><line class="cls-4" x1="54.07" y1="110.2" x2="54.07" y2="80.2"/><line class="cls-4" x1="56.21" y1="110.2" x2="56.21" y2="80.2"/><line class="cls-4" x1="58.35" y1="110.2" x2="58.35" y2="80.2"/><line class="cls-4" x1="60.5" y1="110.2" x2="60.5" y2="80.2"/><line class="cls-4" x1="62.64" y1="110.2" x2="62.64" y2="80.2"/><line class="cls-4" x1="64.78" y1="110.2" x2="64.78" y2="80.2"/><line class="cls-4" x1="66.92" y1="110.2" x2="66.92" y2="80.2"/><rect class="cls-2" x="18.83" y="0.5" width="60" height="30"/><line class="cls-4" x1="20.85" y1="30.5" x2="20.85" y2="0.5"/><line class="cls-4" x1="22.99" y1="30.5" x2="22.99" y2="0.5"/><line class="cls-4" x1="25.14" y1="30.5" x2="25.14" y2="0.5"/><line class="cls-4" x1="27.28" y1="30.5" x2="27.28" y2="0.5"/><line class="cls-4" x1="29.42" y1="30.5" x2="29.42" y2="0.5"/><line class="cls-4" x1="31.56" y1="30.5" x2="31.56" y2="0.5"/><line class="cls-4" x1="33.71" y1="30.5" x2="33.71" y2="0.5"/><line class="cls-4" x1="35.85" y1="30.5" x2="35.85" y2="0.5"/><line class="cls-4" x1="37.99" y1="30.5" x2="37.99" y2="0.5"/><line class="cls-4" x1="40.13" y1="30.5" x2="40.13" y2="0.5"/><line class="cls-4" x1="42.28" y1="30.5" x2="42.28" y2="0.5"/><line class="cls-4" x1="44.42" y1="30.5" x2="44.42" y2="0.5"/><line class="cls-4" x1="46.56" y1="30.5" x2="46.56" y2="0.5"/><line class="cls-4" x1="48.7" y1="30.5" x2="48.7" y2="0.5"/><line class="cls-4" x1="50.84" y1="30.5" x2="50.84" y2="0.5"/><line class="cls-4" x1="52.99" y1="30.5" x2="52.99" y2="0.5"/><line class="cls-4" x1="55.13" y1="30.5" x2="55.13" y2="0.5"/><line class="cls-4" x1="57.27" y1="30.5" x2="57.27" y2="0.5"/><line class="cls-4" x1="59.41" y1="30.5" x2="59.41" y2="0.5"/><line class="cls-4" x1="61.56" y1="30.5" x2="61.56" y2="0.5"/><line class="cls-4" x1="63.7" y1="30.5" x2="63.7" y2="0.5"/><line class="cls-4" x1="65.84" y1="30.5" x2="65.84" y2="0.5"/><line class="cls-4" x1="67.98" y1="30.5" x2="67.98" y2="0.5"/><line class="cls-4" x1="70.12" y1="30.5" x2="70.12" y2="0.5"/><line class="cls-4" x1="72.27" y1="30.5" x2="72.27" y2="0.5"/><line class="cls-4" x1="74.41" y1="30.5" x2="74.41" y2="0.5"/><line class="cls-4" x1="76.55" y1="30.5" x2="76.55" y2="0.5"/></g></g></svg>