<svg xmlns="http://www.w3.org/2000/svg" viewBox="0 0 98.95 114.07"><defs><style>.cls-1,.cls-2,.cls-4{stroke:#000;stroke-miterlimit:10;}.cls-2,.cls-4{fill:none;}.cls-3{font-size:9px;font-family:Georgia, Georgia;}.cls-4{stroke-width:0.25px;}</style></defs><title>Artboard2</title><g id="Layer_2" data-name="Layer 2"><g id="Layer_1-2" data-name="Layer 1"><rect class="cls-1" x="34.42" y="49.98" width="30" height="30"/><circle class="cls-2" cx="15.5" cy="64.98" r="15"/><text class="cls-3" transform="translate(8.4 62.03)">V V<tspan x="0" y="10.8" xml:space="preserve">  V</tspan></text><circle class="cls-2" cx="83.45" cy="64.98" r="15"/><text class="cls-3" transform="matrix(1, 0, 0, -1, 76.36, 67.94)">V V<tspan x="0" y="10.8" xml:space="preserve">  V</tspan></text><polygon class="cls-2" points="49.68 1.39 32.36 46.39 67 46.39 49.68 1.39"/><line class="cls-4" x1="34.19" y1="46.39" x2="34.19" y2="41.64"/><line class="cls-4" x1="36.02" y1="46.39" x2="36.02" y2="36.88"/><line class="cls-4" x1="37.85" y1="46.39" x2="37.85" y2="32.13"/><line class="cls-4" x1="39.68" y1="46.39" x2="39.68" y2="27.37"/><line class="cls-4" x1="41.51" y1="46.39" x2="41.51" y2="22.62"/><line class="cls-4" x1="43.34" y1="46.39" x2="43.34" y2="17.86"/><line class="cls-4" x1="45.17" y1="46.39" x2="45.17" y2="13.11"/><line class="cls-4" x1="47" y1="46.39" x2="47" y2="8.35"/><line class="cls-4" x1="48.83" y1="46.39" x2="48.83" y2="3.6"/><line class="cls-4" x1="50.66" y1="46.39" x2="50.66" y2="3.94"/><line class="cls-4" x1="52.49" y1="46.39" x2="52.49" y2="8.69"/><line class="cls-4" x1="54.32" y1="46.39" x2="54.32" y2="13.45"/><line class="cls-4" x1="56.15" y1="46.39" x2="56.15" y2="18.2"/><line class="cls-4" x1="57.98" y1="46.39" x2="57.98" y2="22.95"/><line class="cls-4" x1="59.81" y1="46.39" x2="59.81" y2="27.71"/><line class="cls-4" x1="61.64" y1="46.39" x2="61.64" y2="32.46"/><line class="cls-4" x1="63.47" y1="46.39" x2="63.47" y2="37.22"/><line class="cls-4" x1="65.3" y1="46.39" x2="65.3" y2="41.97"/><polygon class="cls-2" points="49.68 83.57 32.36 113.57 67 113.57 49.68 83.57"/><line class="cls-4" x1="34.07" y1="113.57" x2="34.07" y2="110.63"/><line class="cls-4" x1="35.9" y1="113.57" x2="35.9" y2="107.46"/><line class="cls-4" x1="37.73" y1="113.57" x2="37.73" y2="104.29"/><line class="cls-4" x1="39.56" y1="113.57" x2="39.56" y2="101.12"/><line class="cls-4" x1="41.39" y1="113.57" x2="41.39" y2="97.95"/><line class="cls-4" x1="43.22" y1="113.57" x2="43.22" y2="94.78"/><line class="cls-4" x1="45.05" y1="113.57" x2="45.05" y2="91.61"/><line class="cls-4" x1="46.88" y1="113.57" x2="46.88" y2="88.44"/><line class="cls-4" x1="48.71" y1="113.57" x2="48.71" y2="85.27"/><line class="cls-4" x1="50.54" y1="113.57" x2="50.54" y2="85.04"/><line class="cls-4" x1="52.37" y1="113.57" x2="52.37" y2="88.21"/><line class="cls-4" x1="54.2" y1="113.57" x2="54.2" y2="91.38"/><line class="cls-4" x1="56.03" y1="113.57" x2="56.03" y2="94.55"/><line class="cls-4" x1="57.86" y1="113.57" x2="57.86" y2="97.72"/><line class="cls-4" x1="59.69" y1="113.57" x2="59.69" y2="100.89"/><line class="cls-4" x1="61.52" y1="113.57" x2="61.52" y2="104.06"/><line class="cls-4" x1="63.35" y1="113.57" x2="63.35" y2="107.23"/><line class="cls-4" x1="65.18" y1="113.57" x2="65.18" y2="110.4"/></g></g></svg>