<svg xmlns="http://www.w3.org/2000/svg" viewBox="0 0 201 201"><defs><style>.cls-1{fill:none;stroke:#000;stroke-miterlimit:10;}</style></defs><title>Artboard1</title><g id="Layer_2" data-name="Layer 2"><g id="Layer_1-2" data-name="Layer 1"><rect class="cls-1" x="0.5" y="0.5" width="200" height="200"/><polyline class="cls-1" points="125.5 200.5 75.5 200.5 75.5 0.5 125.5 0.5 125.5 100.75"/><polyline class="cls-1" points="100.5 125.5 0.5 125.5 0.5 75.5 200.5 75.5 200.5 125.5"/><line class="cls-1" x1="0.5" y1="125.5" x2="75.5" y2="200.5"/><line class="cls-1" x1="75.5" y1="125.5" x2="38" y2="163"/><line class="cls-1" x1="0.5" y1="150.5" x2="50.5" y2="200.5"/><line class="cls-1" x1="75.5" y1="1" x2="0.5" y2="76"/><line class="cls-1" x1="75.5" y1="76" x2="38" y2="38.5"/><line class="cls-1" x1="50.5" y1="1" x2="0.5" y2="51"/><line class="cls-1" x1="200" y1="76" x2="125" y2="1"/><line class="cls-1" x1="125" y1="76" x2="162.5" y2="38.5"/><line class="cls-1" x1="200" y1="51" x2="150" y2="1"/><line class="cls-1" x1="0.5" y1="100.5" x2="200.5" y2="100.5"/><line class="cls-1" x1="100.5" y1="0.5" x2="100.5" y2="200.5"/><circle cx="87" cy="87.5" r="2.5"/><circle cx="88" cy="113" r="2.5"/><circle cx="113.5" cy="87.5" r="2.5"/></g></g></svg>