<svg xmlns="http://www.w3.org/2000/svg" xmlns:xlink="http://www.w3.org/1999/xlink" viewBox="0 0 121.66 111.21"><defs><style>.cls-1,.cls-2,.cls-3,.cls-4,.cls-5{fill:none;}.cls-2{stroke:#231f20;stroke-linecap:square;stroke-linejoin:bevel;stroke-width:0.3px;}.cls-3,.cls-4,.cls-5{stroke:#000;}.cls-3,.cls-4{stroke-miterlimit:10;}.cls-3{stroke-width:2px;}.cls-5{stroke-linejoin:round;}.cls-6{fill-rule:evenodd;fill:url(#Diamond_2);}</style><pattern id="Diamond_2" data-name="Diamond 2" width="72" height="72" patternTransform="translate(28.5 2)" patternUnits="userSpaceOnUse" viewBox="0 0 72 72"><rect class="cls-1" width="72" height="72"/><line class="cls-2" x1="72" y1="72" x2="144" y2="144"/><line class="cls-2" x1="144" y1="72" x2="72" y2="144"/><line class="cls-2" x1="138" y1="72" x2="69" y2="141"/><line class="cls-2" x1="132" y1="72" x2="68.99" y2="135.01"/><line class="cls-2" x1="126" y1="72" x2="68.99" y2="129.01"/><line class="cls-2" x1="120" y1="72" x2="68.99" y2="123.01"/><line class="cls-2" x1="114" y1="72" x2="68.98" y2="117.02"/><line class="cls-2" x1="108" y1="72" x2="68.98" y2="111.02"/><line class="cls-2" x1="102" y1="72" x2="68.98" y2="105.03"/><line class="cls-2" x1="96" y1="72" x2="68.97" y2="99.03"/><line class="cls-2" x1="90" y1="72" x2="68.97" y2="93.03"/><line class="cls-2" x1="84" y1="72" x2="68.96" y2="87.04"/><line class="cls-2" x1="78" y1="72" x2="68.96" y2="81.04"/><line class="cls-2" x1="72" y1="72" x2="68.96" y2="75.04"/><line class="cls-2" y1="72" x2="72" y2="144"/><line class="cls-2" x1="6" y1="72" x2="75" y2="141"/><line class="cls-2" x1="12" y1="72" x2="75" y2="135.01"/><line class="cls-2" x1="18" y1="72" x2="75.01" y2="129.01"/><line class="cls-2" x1="24" y1="72" x2="75.01" y2="123.01"/><line class="cls-2" x1="30" y1="72" x2="75.02" y2="117.02"/><line class="cls-2" x1="36" y1="72" x2="75.02" y2="111.02"/><line class="cls-2" x1="42" y1="72" x2="75.02" y2="105.03"/><line class="cls-2" x1="48" y1="72" x2="75.03" y2="99.03"/><line class="cls-2" x1="54" y1="72" x2="75.03" y2="93.03"/><line class="cls-2" x1="60" y1="72" x2="75.03" y2="87.04"/><line class="cls-2" x1="66" y1="72" x2="75.04" y2="81.04"/><line class="cls-2" x1="72" y1="72" x2="75.04" y2="75.04"/><line class="cls-2" x1="72" y1="72" y2="144"/><line class="cls-2" x1="66" y1="72" x2="-3" y2="141"/><line class="cls-2" x1="60" y1="72" x2="-3.01" y2="135.01"/><line class="cls-2" x1="54" y1="72" x2="-3.01" y2="129.01"/><line class="cls-2" x1="48" y1="72" x2="-3.01" y2="123.01"/><line class="cls-2" x1="42" y1="72" x2="-3.02" y2="117.02"/><line class="cls-2" x1="36" y1="72" x2="-3.02" y2="111.02"/><line class="cls-2" x1="30" y1="72" x2="-3.02" y2="105.03"/><line class="cls-2" x1="24" y1="72" x2="-3.03" y2="99.03"/><line class="cls-2" x1="18" y1="72" x2="-3.03" y2="93.03"/><line class="cls-2" x1="12" y1="72" x2="-3.04" y2="87.04"/><line class="cls-2" x1="6" y1="72" x2="-3.04" y2="81.04"/><line class="cls-2" y1="72" x2="-3.04" y2="75.04"/><line class="cls-2" x1="-72" y1="72" y2="144"/><line class="cls-2" x1="-66" y1="72" x2="3" y2="141"/><line class="cls-2" x1="-60" y1="72" x2="3" y2="135.01"/><line class="cls-2" x1="-54" y1="72" x2="3.01" y2="129.01"/><line class="cls-2" x1="-48" y1="72" x2="3.01" y2="123.01"/><line class="cls-2" x1="-42" y1="72" x2="3.02" y2="117.02"/><line class="cls-2" x1="-36" y1="72" x2="3.02" y2="111.02"/><line class="cls-2" x1="-30" y1="72" x2="3.02" y2="105.03"/><line class="cls-2" x1="-24" y1="72" x2="3.03" y2="99.03"/><line class="cls-2" x1="-18" y1="72" x2="3.03" y2="93.03"/><line class="cls-2" x1="-12" y1="72" x2="3.03" y2="87.04"/><line class="cls-2" x1="-6" y1="72" x2="3.04" y2="81.04"/><line class="cls-2" y1="72" x2="3.04" y2="75.04"/><line class="cls-2" y1="72" x2="-72" y2="144"/><line class="cls-2" x1="72" x2="144" y2="72"/><line class="cls-2" x1="69" y1="3" x2="138" y2="72"/><line class="cls-2" x1="68.99" y1="9" x2="132" y2="72"/><line class="cls-2" x1="68.99" y1="14.99" x2="126" y2="72"/><line class="cls-2" x1="68.99" y1="20.99" x2="120" y2="72"/><line class="cls-2" x1="68.98" y1="26.98" x2="114" y2="72"/><line class="cls-2" x1="68.98" y1="32.98" x2="108" y2="72"/><line class="cls-2" x1="68.98" y1="38.98" x2="102" y2="72"/><line class="cls-2" x1="68.97" y1="44.97" x2="96" y2="72"/><line class="cls-2" x1="68.97" y1="50.97" x2="90" y2="72"/><line class="cls-2" x1="68.96" y1="56.96" x2="84" y2="72"/><line class="cls-2" x1="68.96" y1="62.96" x2="78" y2="72"/><line class="cls-2" x1="68.96" y1="68.96" x2="72" y2="72"/><line class="cls-2" x1="144" x2="72" y2="72"/><line class="cls-2" x1="138" x2="69" y2="69"/><line class="cls-2" x1="132" x2="68.99" y2="63.01"/><line class="cls-2" x1="126" x2="68.99" y2="57.01"/><line class="cls-2" x1="120" x2="68.99" y2="51.01"/><line class="cls-2" x1="114" x2="68.98" y2="45.02"/><line class="cls-2" x1="108" x2="68.98" y2="39.02"/><line class="cls-2" x1="102" x2="68.98" y2="33.03"/><line class="cls-2" x1="96" x2="68.97" y2="27.03"/><line class="cls-2" x1="90" x2="68.97" y2="21.03"/><line class="cls-2" x1="84" x2="68.96" y2="15.04"/><line class="cls-2" x1="78" x2="68.96" y2="9.04"/><line class="cls-2" x1="72" x2="68.96" y2="3.04"/><line class="cls-2" x2="72" y2="72"/><line class="cls-2" x1="-3" y1="3" x2="66" y2="72"/><line class="cls-2" x1="-3.01" y1="9" x2="60" y2="72"/><line class="cls-2" x1="-3.01" y1="14.99" x2="54" y2="72"/><line class="cls-2" x1="-3.01" y1="20.99" x2="48" y2="72"/><line class="cls-2" x1="-3.02" y1="26.98" x2="42" y2="72"/><line class="cls-2" x1="-3.02" y1="32.98" x2="36" y2="72"/><line class="cls-2" x1="-3.02" y1="38.98" x2="30" y2="72"/><line class="cls-2" x1="-3.03" y1="44.97" x2="24" y2="72"/><line class="cls-2" x1="-3.03" y1="50.97" x2="18" y2="72"/><line class="cls-2" x1="-3.04" y1="56.96" x2="12" y2="72"/><line class="cls-2" x1="-3.04" y1="62.96" x2="6" y2="72"/><line class="cls-2" x1="-3.04" y1="68.96" y2="72"/><line class="cls-2" x1="6" x2="75" y2="69"/><line class="cls-2" x1="12" x2="75" y2="63.01"/><line class="cls-2" x1="18" x2="75.01" y2="57.01"/><line class="cls-2" x1="24" x2="75.01" y2="51.01"/><line class="cls-2" x1="30" x2="75.02" y2="45.02"/><line class="cls-2" x1="36" x2="75.02" y2="39.02"/><line class="cls-2" x1="42" x2="75.02" y2="33.03"/><line class="cls-2" x1="48" x2="75.03" y2="27.03"/><line class="cls-2" x1="54" x2="75.03" y2="21.03"/><line class="cls-2" x1="60" x2="75.03" y2="15.04"/><line class="cls-2" x1="66" x2="75.04" y2="9.04"/><line class="cls-2" x1="72" x2="75.04" y2="3.04"/><line class="cls-2" x1="72" y2="72"/><line class="cls-2" x1="66" x2="-3" y2="69"/><line class="cls-2" x1="60" x2="-3.01" y2="63.01"/><line class="cls-2" x1="54" x2="-3.01" y2="57.01"/><line class="cls-2" x1="48" x2="-3.01" y2="51.01"/><line class="cls-2" x1="42" x2="-3.02" y2="45.02"/><line class="cls-2" x1="36" x2="-3.02" y2="39.02"/><line class="cls-2" x1="30" x2="-3.02" y2="33.03"/><line class="cls-2" x1="24" x2="-3.03" y2="27.03"/><line class="cls-2" x1="18" x2="-3.03" y2="21.03"/><line class="cls-2" x1="12" x2="-3.04" y2="15.04"/><line class="cls-2" x1="6" x2="-3.04" y2="9.04"/><line class="cls-2" x2="-3.04" y2="3.04"/><line class="cls-2" x1="75" y1="3" x2="6" y2="72"/><line class="cls-2" x1="75" y1="9" x2="12" y2="72"/><line class="cls-2" x1="75.01" y1="14.99" x2="18" y2="72"/><line class="cls-2" x1="75.01" y1="20.99" x2="24" y2="72"/><line class="cls-2" x1="75.02" y1="26.98" x2="30" y2="72"/><line class="cls-2" x1="75.02" y1="32.98" x2="36" y2="72"/><line class="cls-2" x1="75.02" y1="38.98" x2="42" y2="72"/><line class="cls-2" x1="75.03" y1="44.97" x2="48" y2="72"/><line class="cls-2" x1="75.03" y1="50.97" x2="54" y2="72"/><line class="cls-2" x1="75.03" y1="56.96" x2="60" y2="72"/><line class="cls-2" x1="75.04" y1="62.96" x2="66" y2="72"/><line class="cls-2" x1="75.04" y1="68.96" x2="72" y2="72"/><line class="cls-2" x1="-72" y2="72"/><line class="cls-2" x1="-66" x2="3" y2="69"/><line class="cls-2" x1="-60" x2="3" y2="63.01"/><line class="cls-2" x1="-54" x2="3.01" y2="57.01"/><line class="cls-2" x1="-48" x2="3.01" y2="51.01"/><line class="cls-2" x1="-42" x2="3.02" y2="45.02"/><line class="cls-2" x1="-36" x2="3.02" y2="39.02"/><line class="cls-2" x1="-30" x2="3.02" y2="33.03"/><line class="cls-2" x1="-24" x2="3.03" y2="27.03"/><line class="cls-2" x1="-18" x2="3.03" y2="21.03"/><line class="cls-2" x1="-12" x2="3.03" y2="15.04"/><line class="cls-2" x1="-6" x2="3.04" y2="9.04"/><line class="cls-2" x2="3.04" y2="3.04"/><line class="cls-2" x2="-72" y2="72"/><line class="cls-2" x1="3" y1="3" x2="-66" y2="72"/><line class="cls-2" x1="3" y1="9" x2="-60" y2="72"/><line class="cls-2" x1="3.01" y1="14.99" x2="-54" y2="72"/><line class="cls-2" x1="3.01" y1="20.99" x2="-48" y2="72"/><line class="cls-2" x1="3.02" y1="26.98" x2="-42" y2="72"/><line class="cls-2" x1="3.02" y1="32.98" x2="-36" y2="72"/><line class="cls-2" x1="3.02" y1="38.98" x2="-30" y2="72"/><line class="cls-2" x1="3.03" y1="44.97" x2="-24" y2="72"/><line class="cls-2" x1="3.03" y1="50.97" x2="-18" y2="72"/><line class="cls-2" x1="3.03" y1="56.96" x2="-12" y2="72"/><line class="cls-2" x1="3.04" y1="62.96" x2="-6" y2="72"/><line class="cls-2" x1="3.04" y1="68.96" y2="72"/><line class="cls-2" x1="72" y1="-72" x2="144"/><line class="cls-2" x1="69" y1="-69" x2="138"/><line class="cls-2" x1="68.99" y1="-63" x2="132"/><line class="cls-2" x1="68.99" y1="-57.01" x2="126"/><line class="cls-2" x1="68.99" y1="-51.01" x2="120"/><line class="cls-2" x1="68.98" y1="-45.02" x2="114"/><line class="cls-2" x1="68.98" y1="-39.02" x2="108"/><line class="cls-2" x1="68.98" y1="-33.02" x2="102"/><line class="cls-2" x1="68.97" y1="-27.03" x2="96"/><line class="cls-2" x1="68.97" y1="-21.03" x2="90"/><line class="cls-2" x1="68.96" y1="-15.04" x2="84"/><line class="cls-2" x1="68.96" y1="-9.04" x2="78"/><line class="cls-2" x1="68.96" y1="-3.04" x2="72"/><line class="cls-2" x1="144" y1="-72" x2="72"/><line class="cls-2" y1="-72" x2="72"/><line class="cls-2" x1="-3" y1="-69" x2="66"/><line class="cls-2" x1="-3.01" y1="-63" x2="60"/><line class="cls-2" x1="-3.01" y1="-57.01" x2="54"/><line class="cls-2" x1="-3.01" y1="-51.01" x2="48"/><line class="cls-2" x1="-3.02" y1="-45.02" x2="42"/><line class="cls-2" x1="-3.02" y1="-39.02" x2="36"/><line class="cls-2" x1="-3.02" y1="-33.02" x2="30"/><line class="cls-2" x1="-3.03" y1="-27.03" x2="24"/><line class="cls-2" x1="-3.03" y1="-21.03" x2="18"/><line class="cls-2" x1="-3.04" y1="-15.04" x2="12"/><line class="cls-2" x1="-3.04" y1="-9.04" x2="6"/><line class="cls-2" x1="-3.04" y1="-3.04"/><line class="cls-2" x1="72" y1="-72"/><line class="cls-2" x1="75" y1="-69" x2="6"/><line class="cls-2" x1="75" y1="-63" x2="12"/><line class="cls-2" x1="75.01" y1="-57.01" x2="18"/><line class="cls-2" x1="75.01" y1="-51.01" x2="24"/><line class="cls-2" x1="75.02" y1="-45.02" x2="30"/><line class="cls-2" x1="75.02" y1="-39.02" x2="36"/><line class="cls-2" x1="75.02" y1="-33.02" x2="42"/><line class="cls-2" x1="75.03" y1="-27.03" x2="48"/><line class="cls-2" x1="75.03" y1="-21.03" x2="54"/><line class="cls-2" x1="75.03" y1="-15.04" x2="60"/><line class="cls-2" x1="75.04" y1="-9.04" x2="66"/><line class="cls-2" x1="75.04" y1="-3.04" x2="72"/><line class="cls-2" x1="-72" y1="-72"/><line class="cls-2" y1="-72" x2="-72"/><line class="cls-2" x1="3" y1="-69" x2="-66"/><line class="cls-2" x1="3" y1="-63" x2="-60"/><line class="cls-2" x1="3.01" y1="-57.01" x2="-54"/><line class="cls-2" x1="3.01" y1="-51.01" x2="-48"/><line class="cls-2" x1="3.02" y1="-45.02" x2="-42"/><line class="cls-2" x1="3.02" y1="-39.02" x2="-36"/><line class="cls-2" x1="3.02" y1="-33.02" x2="-30"/><line class="cls-2" x1="3.03" y1="-27.03" x2="-24"/><line class="cls-2" x1="3.03" y1="-21.03" x2="-18"/><line class="cls-2" x1="3.03" y1="-15.04" x2="-12"/><line class="cls-2" x1="3.04" y1="-9.04" x2="-6"/><line class="cls-2" x1="3.04" y1="-3.04"/></pattern></defs><title>Artboard7</title><g id="Layer_2" data-name="Layer 2"><g id="Layer_1-2" data-name="Layer 1"><line class="cls-3" x1="81.16" y1="0.71" x2="41.16" y2="40.71"/><polyline class="cls-4" points="101.16 40.71 1.16 40.71 38.81 0.71 121.16 0.71"/><polyline class="cls-5" points="121.16 0.69 121.16 0.69 66.16 110.71 66.16 110.71 1.16 110.71 1.16 40.71 101.16 40.71"/><polyline class="cls-6" points="121.16 0.69 121.16 0.69 66.16 110.71 66.16 110.71 1.16 110.71 1.16 40.71 101.16 40.71"/></g></g></svg>