<svg xmlns="http://www.w3.org/2000/svg" xmlns:xlink="http://www.w3.org/1999/xlink" viewBox="0 0 100 100"><defs><style>.cls-1,.cls-2,.cls-3,.cls-4{fill:none;}.cls-2,.cls-3,.cls-4{stroke:#231f20;stroke-width:0.3px;}.cls-2{stroke-linejoin:round;}.cls-3{stroke-linecap:square;stroke-linejoin:bevel;}.cls-4{stroke-dasharray:2 2;}.cls-5{fill:url(#Diamond);}.cls-6{fill:url(#USGS_19_Land_Inundation);}.cls-7{fill:url(#Diagonal_Lines);}</style><pattern id="Diamond" data-name="Diamond" width="72" height="72" patternTransform="translate(0 34) rotate(-90)" patternUnits="userSpaceOnUse" viewBox="0 0 72 72"><rect class="cls-1" width="72" height="72"/><line class="cls-3" x1="72" y1="72" x2="144" y2="144"/><line class="cls-3" x1="144" y1="72" x2="72" y2="144"/><line class="cls-3" x1="138" y1="72" x2="69" y2="141"/><line class="cls-3" x1="132" y1="72" x2="68.99" y2="135.01"/><line class="cls-3" x1="126" y1="72" x2="68.99" y2="129.01"/><line class="cls-3" x1="120" y1="72" x2="68.99" y2="123.01"/><line class="cls-3" x1="114" y1="72" x2="68.98" y2="117.02"/><line class="cls-3" x1="108" y1="72" x2="68.98" y2="111.02"/><line class="cls-3" x1="102" y1="72" x2="68.98" y2="105.03"/><line class="cls-3" x1="96" y1="72" x2="68.97" y2="99.03"/><line class="cls-3" x1="90" y1="72" x2="68.97" y2="93.03"/><line class="cls-3" x1="84" y1="72" x2="68.96" y2="87.04"/><line class="cls-3" x1="78" y1="72" x2="68.96" y2="81.04"/><line class="cls-3" x1="72" y1="72" x2="68.96" y2="75.04"/><line class="cls-3" y1="72" x2="72" y2="144"/><line class="cls-3" x1="6" y1="72" x2="75" y2="141"/><line class="cls-3" x1="12" y1="72" x2="75" y2="135.01"/><line class="cls-3" x1="18" y1="72" x2="75.01" y2="129.01"/><line class="cls-3" x1="24" y1="72" x2="75.01" y2="123.01"/><line class="cls-3" x1="30" y1="72" x2="75.02" y2="117.02"/><line class="cls-3" x1="36" y1="72" x2="75.02" y2="111.02"/><line class="cls-3" x1="42" y1="72" x2="75.02" y2="105.03"/><line class="cls-3" x1="48" y1="72" x2="75.03" y2="99.03"/><line class="cls-3" x1="54" y1="72" x2="75.03" y2="93.03"/><line class="cls-3" x1="60" y1="72" x2="75.03" y2="87.04"/><line class="cls-3" x1="66" y1="72" x2="75.04" y2="81.04"/><line class="cls-3" x1="72" y1="72" x2="75.04" y2="75.04"/><line class="cls-3" x1="72" y1="72" y2="144"/><line class="cls-3" x1="66" y1="72" x2="-3" y2="141"/><line class="cls-3" x1="60" y1="72" x2="-3.01" y2="135.01"/><line class="cls-3" x1="54" y1="72" x2="-3.01" y2="129.01"/><line class="cls-3" x1="48" y1="72" x2="-3.01" y2="123.01"/><line class="cls-3" x1="42" y1="72" x2="-3.02" y2="117.02"/><line class="cls-3" x1="36" y1="72" x2="-3.02" y2="111.02"/><line class="cls-3" x1="30" y1="72" x2="-3.02" y2="105.03"/><line class="cls-3" x1="24" y1="72" x2="-3.03" y2="99.03"/><line class="cls-3" x1="18" y1="72" x2="-3.03" y2="93.03"/><line class="cls-3" x1="12" y1="72" x2="-3.04" y2="87.04"/><line class="cls-3" x1="6" y1="72" x2="-3.04" y2="81.04"/><line class="cls-3" y1="72" x2="-3.04" y2="75.04"/><line class="cls-3" x1="-72" y1="72" y2="144"/><line class="cls-3" x1="-66" y1="72" x2="3" y2="141"/><line class="cls-3" x1="-60" y1="72" x2="3" y2="135.01"/><line class="cls-3" x1="-54" y1="72" x2="3.01" y2="129.01"/><line class="cls-3" x1="-48" y1="72" x2="3.01" y2="123.01"/><line class="cls-3" x1="-42" y1="72" x2="3.02" y2="117.02"/><line class="cls-3" x1="-36" y1="72" x2="3.02" y2="111.02"/><line class="cls-3" x1="-30" y1="72" x2="3.02" y2="105.03"/><line class="cls-3" x1="-24" y1="72" x2="3.03" y2="99.03"/><line class="cls-3" x1="-18" y1="72" x2="3.03" y2="93.03"/><line class="cls-3" x1="-12" y1="72" x2="3.03" y2="87.04"/><line class="cls-3" x1="-6" y1="72" x2="3.04" y2="81.04"/><line class="cls-3" y1="72" x2="3.04" y2="75.04"/><line class="cls-3" y1="72" x2="-72" y2="144"/><line class="cls-3" x1="72" x2="144" y2="72"/><line class="cls-3" x1="69" y1="3" x2="138" y2="72"/><line class="cls-3" x1="68.99" y1="9" x2="132" y2="72"/><line class="cls-3" x1="68.99" y1="14.99" x2="126" y2="72"/><line class="cls-3" x1="68.99" y1="20.99" x2="120" y2="72"/><line class="cls-3" x1="68.98" y1="26.98" x2="114" y2="72"/><line class="cls-3" x1="68.98" y1="32.98" x2="108" y2="72"/><line class="cls-3" x1="68.98" y1="38.98" x2="102" y2="72"/><line class="cls-3" x1="68.97" y1="44.97" x2="96" y2="72"/><line class="cls-3" x1="68.97" y1="50.97" x2="90" y2="72"/><line class="cls-3" x1="68.96" y1="56.96" x2="84" y2="72"/><line class="cls-3" x1="68.96" y1="62.96" x2="78" y2="72"/><line class="cls-3" x1="68.96" y1="68.96" x2="72" y2="72"/><line class="cls-3" x1="144" x2="72" y2="72"/><line class="cls-3" x1="138" x2="69" y2="69"/><line class="cls-3" x1="132" x2="68.99" y2="63.01"/><line class="cls-3" x1="126" x2="68.99" y2="57.01"/><line class="cls-3" x1="120" x2="68.99" y2="51.01"/><line class="cls-3" x1="114" x2="68.98" y2="45.02"/><line class="cls-3" x1="108" x2="68.98" y2="39.02"/><line class="cls-3" x1="102" x2="68.98" y2="33.03"/><line class="cls-3" x1="96" x2="68.97" y2="27.03"/><line class="cls-3" x1="90" x2="68.97" y2="21.03"/><line class="cls-3" x1="84" x2="68.96" y2="15.04"/><line class="cls-3" x1="78" x2="68.96" y2="9.04"/><line class="cls-3" x1="72" x2="68.96" y2="3.04"/><line class="cls-3" x2="72" y2="72"/><line class="cls-3" x1="-3" y1="3" x2="66" y2="72"/><line class="cls-3" x1="-3.01" y1="9" x2="60" y2="72"/><line class="cls-3" x1="-3.01" y1="14.99" x2="54" y2="72"/><line class="cls-3" x1="-3.01" y1="20.99" x2="48" y2="72"/><line class="cls-3" x1="-3.02" y1="26.98" x2="42" y2="72"/><line class="cls-3" x1="-3.02" y1="32.98" x2="36" y2="72"/><line class="cls-3" x1="-3.02" y1="38.98" x2="30" y2="72"/><line class="cls-3" x1="-3.03" y1="44.97" x2="24" y2="72"/><line class="cls-3" x1="-3.03" y1="50.97" x2="18" y2="72"/><line class="cls-3" x1="-3.04" y1="56.96" x2="12" y2="72"/><line class="cls-3" x1="-3.04" y1="62.96" x2="6" y2="72"/><line class="cls-3" x1="-3.04" y1="68.96" y2="72"/><line class="cls-3" x1="6" x2="75" y2="69"/><line class="cls-3" x1="12" x2="75" y2="63.01"/><line class="cls-3" x1="18" x2="75.01" y2="57.01"/><line class="cls-3" x1="24" x2="75.01" y2="51.01"/><line class="cls-3" x1="30" x2="75.02" y2="45.02"/><line class="cls-3" x1="36" x2="75.02" y2="39.02"/><line class="cls-3" x1="42" x2="75.02" y2="33.03"/><line class="cls-3" x1="48" x2="75.03" y2="27.03"/><line class="cls-3" x1="54" x2="75.03" y2="21.03"/><line class="cls-3" x1="60" x2="75.03" y2="15.04"/><line class="cls-3" x1="66" x2="75.04" y2="9.04"/><line class="cls-3" x1="72" x2="75.04" y2="3.04"/><line class="cls-3" x1="72" y2="72"/><line class="cls-3" x1="66" x2="-3" y2="69"/><line class="cls-3" x1="60" x2="-3.01" y2="63.01"/><line class="cls-3" x1="54" x2="-3.01" y2="57.01"/><line class="cls-3" x1="48" x2="-3.01" y2="51.01"/><line class="cls-3" x1="42" x2="-3.02" y2="45.02"/><line class="cls-3" x1="36" x2="-3.02" y2="39.02"/><line class="cls-3" x1="30" x2="-3.02" y2="33.03"/><line class="cls-3" x1="24" x2="-3.03" y2="27.03"/><line class="cls-3" x1="18" x2="-3.03" y2="21.03"/><line class="cls-3" x1="12" x2="-3.04" y2="15.04"/><line class="cls-3" x1="6" x2="-3.04" y2="9.04"/><line class="cls-3" x2="-3.04" y2="3.04"/><line class="cls-3" x1="75" y1="3" x2="6" y2="72"/><line class="cls-3" x1="75" y1="9" x2="12" y2="72"/><line class="cls-3" x1="75.01" y1="14.99" x2="18" y2="72"/><line class="cls-3" x1="75.01" y1="20.99" x2="24" y2="72"/><line class="cls-3" x1="75.02" y1="26.98" x2="30" y2="72"/><line class="cls-3" x1="75.02" y1="32.98" x2="36" y2="72"/><line class="cls-3" x1="75.02" y1="38.98" x2="42" y2="72"/><line class="cls-3" x1="75.03" y1="44.97" x2="48" y2="72"/><line class="cls-3" x1="75.03" y1="50.97" x2="54" y2="72"/><line class="cls-3" x1="75.03" y1="56.96" x2="60" y2="72"/><line class="cls-3" x1="75.04" y1="62.96" x2="66" y2="72"/><line class="cls-3" x1="75.04" y1="68.96" x2="72" y2="72"/><line class="cls-3" x1="-72" y2="72"/><line class="cls-3" x1="-66" x2="3" y2="69"/><line class="cls-3" x1="-60" x2="3" y2="63.01"/><line class="cls-3" x1="-54" x2="3.01" y2="57.01"/><line class="cls-3" x1="-48" x2="3.01" y2="51.01"/><line class="cls-3" x1="-42" x2="3.02" y2="45.02"/><line class="cls-3" x1="-36" x2="3.02" y2="39.02"/><line class="cls-3" x1="-30" x2="3.02" y2="33.03"/><line class="cls-3" x1="-24" x2="3.03" y2="27.03"/><line class="cls-3" x1="-18" x2="3.03" y2="21.03"/><line class="cls-3" x1="-12" x2="3.03" y2="15.04"/><line class="cls-3" x1="-6" x2="3.04" y2="9.04"/><line class="cls-3" x2="3.04" y2="3.04"/><line class="cls-3" x2="-72" y2="72"/><line class="cls-3" x1="3" y1="3" x2="-66" y2="72"/><line class="cls-3" x1="3" y1="9" x2="-60" y2="72"/><line class="cls-3" x1="3.01" y1="14.99" x2="-54" y2="72"/><line class="cls-3" x1="3.01" y1="20.99" x2="-48" y2="72"/><line class="cls-3" x1="3.02" y1="26.98" x2="-42" y2="72"/><line class="cls-3" x1="3.02" y1="32.98" x2="-36" y2="72"/><line class="cls-3" x1="3.02" y1="38.98" x2="-30" y2="72"/><line class="cls-3" x1="3.03" y1="44.97" x2="-24" y2="72"/><line class="cls-3" x1="3.03" y1="50.97" x2="-18" y2="72"/><line class="cls-3" x1="3.03" y1="56.96" x2="-12" y2="72"/><line class="cls-3" x1="3.04" y1="62.96" x2="-6" y2="72"/><line class="cls-3" x1="3.04" y1="68.96" y2="72"/><line class="cls-3" x1="72" y1="-72" x2="144"/><line class="cls-3" x1="69" y1="-69" x2="138"/><line class="cls-3" x1="68.99" y1="-63" x2="132"/><line class="cls-3" x1="68.99" y1="-57.01" x2="126"/><line class="cls-3" x1="68.99" y1="-51.01" x2="120"/><line class="cls-3" x1="68.98" y1="-45.02" x2="114"/><line class="cls-3" x1="68.98" y1="-39.02" x2="108"/><line class="cls-3" x1="68.98" y1="-33.02" x2="102"/><line class="cls-3" x1="68.97" y1="-27.03" x2="96"/><line class="cls-3" x1="68.97" y1="-21.03" x2="90"/><line class="cls-3" x1="68.96" y1="-15.04" x2="84"/><line class="cls-3" x1="68.96" y1="-9.04" x2="78"/><line class="cls-3" x1="68.96" y1="-3.04" x2="72"/><line class="cls-3" x1="144" y1="-72" x2="72"/><line class="cls-3" y1="-72" x2="72"/><line class="cls-3" x1="-3" y1="-69" x2="66"/><line class="cls-3" x1="-3.01" y1="-63" x2="60"/><line class="cls-3" x1="-3.01" y1="-57.01" x2="54"/><line class="cls-3" x1="-3.01" y1="-51.01" x2="48"/><line class="cls-3" x1="-3.02" y1="-45.02" x2="42"/><line class="cls-3" x1="-3.02" y1="-39.02" x2="36"/><line class="cls-3" x1="-3.02" y1="-33.02" x2="30"/><line class="cls-3" x1="-3.03" y1="-27.03" x2="24"/><line class="cls-3" x1="-3.03" y1="-21.03" x2="18"/><line class="cls-3" x1="-3.04" y1="-15.04" x2="12"/><line class="cls-3" x1="-3.04" y1="-9.04" x2="6"/><line class="cls-3" x1="-3.04" y1="-3.04"/><line class="cls-3" x1="72" y1="-72"/><line class="cls-3" x1="75" y1="-69" x2="6"/><line class="cls-3" x1="75" y1="-63" x2="12"/><line class="cls-3" x1="75.01" y1="-57.01" x2="18"/><line class="cls-3" x1="75.01" y1="-51.01" x2="24"/><line class="cls-3" x1="75.02" y1="-45.02" x2="30"/><line class="cls-3" x1="75.02" y1="-39.02" x2="36"/><line class="cls-3" x1="75.02" y1="-33.02" x2="42"/><line class="cls-3" x1="75.03" y1="-27.03" x2="48"/><line class="cls-3" x1="75.03" y1="-21.03" x2="54"/><line class="cls-3" x1="75.03" y1="-15.04" x2="60"/><line class="cls-3" x1="75.04" y1="-9.04" x2="66"/><line class="cls-3" x1="75.04" y1="-3.04" x2="72"/><line class="cls-3" x1="-72" y1="-72"/><line class="cls-3" y1="-72" x2="-72"/><line class="cls-3" x1="3" y1="-69" x2="-66"/><line class="cls-3" x1="3" y1="-63" x2="-60"/><line class="cls-3" x1="3.01" y1="-57.01" x2="-54"/><line class="cls-3" x1="3.01" y1="-51.01" x2="-48"/><line class="cls-3" x1="3.02" y1="-45.02" x2="-42"/><line class="cls-3" x1="3.02" y1="-39.02" x2="-36"/><line class="cls-3" x1="3.02" y1="-33.02" x2="-30"/><line class="cls-3" x1="3.03" y1="-27.03" x2="-24"/><line class="cls-3" x1="3.03" y1="-21.03" x2="-18"/><line class="cls-3" x1="3.03" y1="-15.04" x2="-12"/><line class="cls-3" x1="3.04" y1="-9.04" x2="-6"/><line class="cls-3" x1="3.04" y1="-3.04"/></pattern><pattern id="USGS_19_Land_Inundation" data-name="USGS 19 Land Inundation" width="72" height="72" patternTransform="translate(0 34) rotate(-90)" patternUnits="userSpaceOnUse" viewBox="0 0 72 72"><rect class="cls-1" width="72" height="72"/><line class="cls-4" x1="71" y1="71" x2="144.44" y2="71"/><line class="cls-4" x1="71" y1="67" x2="144.44" y2="67"/><line class="cls-4" x1="71" y1="63" x2="144.44" y2="63"/><line class="cls-4" x1="71" y1="59" x2="144.44" y2="59"/><line class="cls-4" x1="71" y1="55" x2="144.44" y2="55"/><line class="cls-4" x1="71" y1="51" x2="144.44" y2="51"/><line class="cls-4" x1="71" y1="47" x2="144.44" y2="47"/><line class="cls-4" x1="71" y1="43" x2="144.44" y2="43"/><line class="cls-4" x1="71" y1="39" x2="144.44" y2="39"/><line class="cls-4" x1="71" y1="35" x2="144.44" y2="35"/><line class="cls-4" x1="71" y1="31" x2="144.44" y2="31"/><line class="cls-4" x1="71" y1="27" x2="144.44" y2="27"/><line class="cls-4" x1="71" y1="23" x2="144.44" y2="23"/><line class="cls-4" x1="71" y1="19" x2="144.44" y2="19"/><line class="cls-4" x1="71" y1="15" x2="144.44" y2="15"/><line class="cls-4" x1="71" y1="11" x2="144.44" y2="11"/><line class="cls-4" x1="71" y1="7" x2="144.44" y2="7"/><line class="cls-4" x1="71" y1="3" x2="144.44" y2="3"/><line class="cls-4" x1="-1" y1="71" x2="72.44" y2="71"/><line class="cls-4" x1="-1" y1="67" x2="72.44" y2="67"/><line class="cls-4" x1="-1" y1="63" x2="72.44" y2="63"/><line class="cls-4" x1="-1" y1="59" x2="72.44" y2="59"/><line class="cls-4" x1="-1" y1="55" x2="72.44" y2="55"/><line class="cls-4" x1="-1" y1="51" x2="72.44" y2="51"/><line class="cls-4" x1="-1" y1="47" x2="72.44" y2="47"/><line class="cls-4" x1="-1" y1="43" x2="72.44" y2="43"/><line class="cls-4" x1="-1" y1="39" x2="72.44" y2="39"/><line class="cls-4" x1="-1" y1="35" x2="72.44" y2="35"/><line class="cls-4" x1="-1" y1="31" x2="72.44" y2="31"/><line class="cls-4" x1="-1" y1="27" x2="72.44" y2="27"/><line class="cls-4" x1="-1" y1="23" x2="72.44" y2="23"/><line class="cls-4" x1="-1" y1="19" x2="72.44" y2="19"/><line class="cls-4" x1="-1" y1="15" x2="72.44" y2="15"/><line class="cls-4" x1="-1" y1="11" x2="72.44" y2="11"/><line class="cls-4" x1="-1" y1="7" x2="72.44" y2="7"/><line class="cls-4" x1="-1" y1="3" x2="72.44" y2="3"/><line class="cls-4" x1="1.04" y1="69" x2="74.48" y2="69"/><line class="cls-4" x1="1.04" y1="65" x2="74.48" y2="65"/><line class="cls-4" x1="1.04" y1="61" x2="74.48" y2="61"/><line class="cls-4" x1="1.04" y1="57" x2="74.48" y2="57"/><line class="cls-4" x1="1.04" y1="53" x2="74.48" y2="53"/><line class="cls-4" x1="1.04" y1="49" x2="74.48" y2="49"/><line class="cls-4" x1="1.04" y1="45" x2="74.48" y2="45"/><line class="cls-4" x1="1.04" y1="41" x2="74.48" y2="41"/><line class="cls-4" x1="1.04" y1="37" x2="74.48" y2="37"/><line class="cls-4" x1="1.04" y1="33" x2="74.48" y2="33"/><line class="cls-4" x1="1.04" y1="29" x2="74.48" y2="29"/><line class="cls-4" x1="1.04" y1="25" x2="74.48" y2="25"/><line class="cls-4" x1="1.04" y1="21" x2="74.48" y2="21"/><line class="cls-4" x1="1.04" y1="17" x2="74.48" y2="17"/><line class="cls-4" x1="1.04" y1="13" x2="74.48" y2="13"/><line class="cls-4" x1="1.04" y1="9" x2="74.48" y2="9"/><line class="cls-4" x1="1.04" y1="5" x2="74.48" y2="5"/><line class="cls-4" x1="1.04" y1="1" x2="74.48" y2="1"/><line class="cls-4" x1="-73" y1="71" x2="0.44" y2="71"/><line class="cls-4" x1="-73" y1="67" x2="0.44" y2="67"/><line class="cls-4" x1="-73" y1="63" x2="0.44" y2="63"/><line class="cls-4" x1="-73" y1="59" x2="0.44" y2="59"/><line class="cls-4" x1="-73" y1="55" x2="0.44" y2="55"/><line class="cls-4" x1="-73" y1="51" x2="0.44" y2="51"/><line class="cls-4" x1="-73" y1="47" x2="0.44" y2="47"/><line class="cls-4" x1="-73" y1="43" x2="0.44" y2="43"/><line class="cls-4" x1="-73" y1="39" x2="0.44" y2="39"/><line class="cls-4" x1="-73" y1="35" x2="0.44" y2="35"/><line class="cls-4" x1="-73" y1="31" x2="0.44" y2="31"/><line class="cls-4" x1="-73" y1="27" x2="0.44" y2="27"/><line class="cls-4" x1="-73" y1="23" x2="0.44" y2="23"/><line class="cls-4" x1="-73" y1="19" x2="0.44" y2="19"/><line class="cls-4" x1="-73" y1="15" x2="0.44" y2="15"/><line class="cls-4" x1="-73" y1="11" x2="0.44" y2="11"/><line class="cls-4" x1="-73" y1="7" x2="0.44" y2="7"/><line class="cls-4" x1="-73" y1="3" x2="0.44" y2="3"/><line class="cls-4" x1="-70.96" y1="69" x2="2.48" y2="69"/><line class="cls-4" x1="-70.96" y1="65" x2="2.48" y2="65"/><line class="cls-4" x1="-70.96" y1="61" x2="2.48" y2="61"/><line class="cls-4" x1="-70.96" y1="57" x2="2.48" y2="57"/><line class="cls-4" x1="-70.96" y1="53" x2="2.48" y2="53"/><line class="cls-4" x1="-70.96" y1="49" x2="2.48" y2="49"/><line class="cls-4" x1="-70.96" y1="45" x2="2.48" y2="45"/><line class="cls-4" x1="-70.96" y1="41" x2="2.48" y2="41"/><line class="cls-4" x1="-70.96" y1="37" x2="2.48" y2="37"/><line class="cls-4" x1="-70.96" y1="33" x2="2.48" y2="33"/><line class="cls-4" x1="-70.96" y1="29" x2="2.48" y2="29"/><line class="cls-4" x1="-70.96" y1="25" x2="2.48" y2="25"/><line class="cls-4" x1="-70.96" y1="21" x2="2.48" y2="21"/><line class="cls-4" x1="-70.96" y1="17" x2="2.48" y2="17"/><line class="cls-4" x1="-70.96" y1="13" x2="2.48" y2="13"/><line class="cls-4" x1="-70.96" y1="9" x2="2.48" y2="9"/><line class="cls-4" x1="-70.96" y1="5" x2="2.48" y2="5"/><line class="cls-4" x1="-70.96" y1="1" x2="2.48" y2="1"/></pattern><pattern id="Diagonal_Lines" data-name="Diagonal Lines" width="72" height="72" patternTransform="translate(0 34) rotate(-90)" patternUnits="userSpaceOnUse" viewBox="0 0 72 72"><rect class="cls-1" width="72" height="72"/><line class="cls-2" x1="66" y1="84" x2="84" y2="66"/><line class="cls-2" x1="66" y1="90" x2="90" y2="66"/><line class="cls-2" x1="66" y1="96" x2="96" y2="66"/><line class="cls-2" x1="66" y1="102" x2="102" y2="66"/><line class="cls-2" x1="66" y1="108" x2="108" y2="66"/><line class="cls-2" x1="66" y1="114" x2="114" y2="66"/><line class="cls-2" x1="66" y1="120" x2="120" y2="66"/><line class="cls-2" x1="66" y1="126" x2="126" y2="66"/><line class="cls-2" x1="66" y1="132" x2="132" y2="66"/><line class="cls-2" x1="66" y1="138" x2="138" y2="66"/><line class="cls-2" x1="66" y1="144" x2="144" y2="66"/><line class="cls-2" x1="66" y1="150" x2="150" y2="66"/><line class="cls-2" x1="72" y1="150" x2="150" y2="72"/><line class="cls-2" x1="-6" y1="84" x2="12" y2="66"/><line class="cls-2" x1="-6" y1="90" x2="18" y2="66"/><line class="cls-2" x1="-6" y1="96" x2="24" y2="66"/><line class="cls-2" x1="-6" y1="102" x2="30" y2="66"/><line class="cls-2" x1="-6" y1="108" x2="36" y2="66"/><line class="cls-2" x1="-6" y1="114" x2="42" y2="66"/><line class="cls-2" x1="-6" y1="120" x2="48" y2="66"/><line class="cls-2" x1="-6" y1="126" x2="54" y2="66"/><line class="cls-2" x1="-6" y1="132" x2="60" y2="66"/><line class="cls-2" x1="-6" y1="138" x2="66" y2="66"/><line class="cls-2" x1="-6" y1="144" x2="72" y2="66"/><line class="cls-2" x1="-6" y1="150" x2="78" y2="66"/><line class="cls-2" y1="150" x2="78" y2="72"/><line class="cls-2" x1="-78" y1="144" y2="66"/><line class="cls-2" x1="-78" y1="150" x2="6" y2="66"/><line class="cls-2" x1="-72" y1="150" x2="6" y2="72"/><line class="cls-2" x1="66" y1="12" x2="84" y2="-6"/><line class="cls-2" x1="66" y1="18" x2="90" y2="-6"/><line class="cls-2" x1="66" y1="24" x2="96" y2="-6"/><line class="cls-2" x1="66" y1="30" x2="102" y2="-6"/><line class="cls-2" x1="66" y1="36" x2="108" y2="-6"/><line class="cls-2" x1="66" y1="42" x2="114" y2="-6"/><line class="cls-2" x1="66" y1="48" x2="120" y2="-6"/><line class="cls-2" x1="66" y1="54" x2="126" y2="-6"/><line class="cls-2" x1="66" y1="60" x2="132" y2="-6"/><line class="cls-2" x1="66" y1="66" x2="138" y2="-6"/><line class="cls-2" x1="66" y1="72" x2="144" y2="-6"/><line class="cls-2" x1="66" y1="78" x2="150" y2="-6"/><line class="cls-2" x1="72" y1="78" x2="150"/><line class="cls-2" x1="-6" y1="12" x2="12" y2="-6"/><line class="cls-2" x1="-6" y1="18" x2="18" y2="-6"/><line class="cls-2" x1="-6" y1="24" x2="24" y2="-6"/><line class="cls-2" x1="-6" y1="30" x2="30" y2="-6"/><line class="cls-2" x1="-6" y1="36" x2="36" y2="-6"/><line class="cls-2" x1="-6" y1="42" x2="42" y2="-6"/><line class="cls-2" x1="-6" y1="48" x2="48" y2="-6"/><line class="cls-2" x1="-6" y1="54" x2="54" y2="-6"/><line class="cls-2" x1="-6" y1="60" x2="60" y2="-6"/><line class="cls-2" x1="-6" y1="66" x2="66" y2="-6"/><line class="cls-2" x1="-6" y1="72" x2="72" y2="-6"/><line class="cls-2" x1="-6" y1="78" x2="78" y2="-6"/><line class="cls-2" y1="78" x2="78"/><line class="cls-2" x1="6" y1="78" x2="78" y2="6"/><line class="cls-2" x1="12" y1="78" x2="78" y2="12"/><line class="cls-2" x1="18" y1="78" x2="78" y2="18"/><line class="cls-2" x1="24" y1="78" x2="78" y2="24"/><line class="cls-2" x1="30" y1="78" x2="78" y2="30"/><line class="cls-2" x1="36" y1="78" x2="78" y2="36"/><line class="cls-2" x1="42" y1="78" x2="78" y2="42"/><line class="cls-2" x1="48" y1="78" x2="78" y2="48"/><line class="cls-2" x1="54" y1="78" x2="78" y2="54"/><line class="cls-2" x1="60" y1="78" x2="78" y2="60"/><line class="cls-2" x1="66" y1="78" x2="78" y2="66"/><line class="cls-2" x1="-78" y1="72" y2="-6"/><line class="cls-2" x1="-78" y1="78" x2="6" y2="-6"/><line class="cls-2" x1="-72" y1="78" x2="6"/><line class="cls-2" x1="-66" y1="78" x2="6" y2="6"/><line class="cls-2" x1="-60" y1="78" x2="6" y2="12"/><line class="cls-2" x1="-54" y1="78" x2="6" y2="18"/><line class="cls-2" x1="-48" y1="78" x2="6" y2="24"/><line class="cls-2" x1="-42" y1="78" x2="6" y2="30"/><line class="cls-2" x1="-36" y1="78" x2="6" y2="36"/><line class="cls-2" x1="-30" y1="78" x2="6" y2="42"/><line class="cls-2" x1="-24" y1="78" x2="6" y2="48"/><line class="cls-2" x1="-18" y1="78" x2="6" y2="54"/><line class="cls-2" x1="-12" y1="78" x2="6" y2="60"/><line class="cls-2" x1="-6" y1="78" x2="6" y2="66"/><line class="cls-2" x1="66" x2="144" y2="-78"/><line class="cls-2" x1="66" y1="6" x2="150" y2="-78"/><line class="cls-2" x1="72" y1="6" x2="150" y2="-72"/><line class="cls-2" x1="-6" x2="72" y2="-78"/><line class="cls-2" x1="-6" y1="6" x2="78" y2="-78"/><line class="cls-2" y1="6" x2="78" y2="-72"/><line class="cls-2" x1="6" y1="6" x2="78" y2="-66"/><line class="cls-2" x1="12" y1="6" x2="78" y2="-60"/><line class="cls-2" x1="18" y1="6" x2="78" y2="-54"/><line class="cls-2" x1="24" y1="6" x2="78" y2="-48"/><line class="cls-2" x1="30" y1="6" x2="78" y2="-42"/><line class="cls-2" x1="36" y1="6" x2="78" y2="-36"/><line class="cls-2" x1="42" y1="6" x2="78" y2="-30"/><line class="cls-2" x1="48" y1="6" x2="78" y2="-24"/><line class="cls-2" x1="54" y1="6" x2="78" y2="-18"/><line class="cls-2" x1="60" y1="6" x2="78" y2="-12"/><line class="cls-2" x1="66" y1="6" x2="78" y2="-6"/><line class="cls-2" x1="-78" y2="-78"/><line class="cls-2" x1="-78" y1="6" x2="6" y2="-78"/><line class="cls-2" x1="-72" y1="6" x2="6" y2="-72"/><line class="cls-2" x1="-66" y1="6" x2="6" y2="-66"/><line class="cls-2" x1="-60" y1="6" x2="6" y2="-60"/><line class="cls-2" x1="-54" y1="6" x2="6" y2="-54"/><line class="cls-2" x1="-48" y1="6" x2="6" y2="-48"/><line class="cls-2" x1="-42" y1="6" x2="6" y2="-42"/><line class="cls-2" x1="-36" y1="6" x2="6" y2="-36"/><line class="cls-2" x1="-30" y1="6" x2="6" y2="-30"/><line class="cls-2" x1="-24" y1="6" x2="6" y2="-24"/><line class="cls-2" x1="-18" y1="6" x2="6" y2="-18"/><line class="cls-2" x1="-12" y1="6" x2="6" y2="-12"/><line class="cls-2" x1="-6" y1="6" x2="6" y2="-6"/></pattern></defs><title>Artboard6</title><g id="Layer_2" data-name="Layer 2"><g id="Layer_1-2" data-name="Layer 1"><path class="cls-5" d="M15.35,14.65a49.5,49.5,0,0,1,69.3,0L50,49.29Z"/><path d="M50,1A48.65,48.65,0,0,1,83.93,14.65L50,48.59,16.07,14.65A48.65,48.65,0,0,1,50,1m0-1A49.88,49.88,0,0,0,14.64,14.64L50,50,85.36,14.64A49.88,49.88,0,0,0,50,0Z"/><path class="cls-6" d="M50,99.5A49.18,49.18,0,0,1,15.35,85.35L50,50.71,84.65,85.35A49.18,49.18,0,0,1,50,99.5Z"/><path d="M50,51.41,83.93,85.35a49,49,0,0,1-67.86,0L50,51.41M50,50,14.64,85.36a50,50,0,0,0,70.72,0L50,50Z"/><path class="cls-7" d="M50.71,50,85.35,15.35a49.5,49.5,0,0,1,0,69.3Z"/><path d="M85.35,16.07a49,49,0,0,1,0,67.86L51.41,50,85.35,16.07m0-1.43L50,50,85.36,85.36a50,50,0,0,0,0-70.72Z"/><path d="M47.59,51,14.65,83.93A48.64,48.64,0,0,1,1,51H47.59M50,50H0A49.88,49.88,0,0,0,14.64,85.36L50,50Z"/><path d="M.5,49.5A49.19,49.19,0,0,1,14.65,15.35L48.79,49.5Z"/><path d="M14.65,16.07,47.59,49H1A48.64,48.64,0,0,1,14.65,16.07m0-1.43A49.88,49.88,0,0,0,0,50H50L14.64,14.64Z"/></g></g></svg>