<svg xmlns="http://www.w3.org/2000/svg" viewBox="0 0 101 80.87"><defs><style>.cls-1,.cls-2{fill:none;stroke:#000;stroke-miterlimit:10;}.cls-2{stroke-width:0.25px;}</style></defs><title>Artboard7</title><g id="Layer_2" data-name="Layer 2"><g id="Layer_1-2" data-name="Layer 1"><rect class="cls-1" x="0.5" y="20.37" width="100" height="60"/><polygon class="cls-2" points="100.5 25.14 100.5 20.37 95.73 20.37 100.5 25.14"/><polygon class="cls-2" points="100.5 29.4 100.5 20.37 91.47 20.37 100.5 29.4"/><polygon class="cls-2" points="100.5 33.68 100.5 20.37 87.19 20.37 100.5 33.68"/><polygon class="cls-2" points="100.5 37.95 100.5 20.37 82.92 20.37 100.5 37.95"/><polygon class="cls-2" points="100.5 42.22 100.5 20.37 78.65 20.37 100.5 42.22"/><polygon class="cls-2" points="100.5 46.5 100.5 20.37 74.37 20.37 100.5 46.5"/><polygon class="cls-2" points="100.5 50.77 100.5 20.37 70.1 20.37 100.5 50.77"/><polygon class="cls-2" points="100.5 55.04 100.5 20.37 65.83 20.37 100.5 55.04"/><polygon class="cls-2" points="100.5 59.32 100.5 20.37 61.55 20.37 100.5 59.32"/><polygon class="cls-2" points="100.5 63.58 100.5 20.37 57.29 20.37 100.5 63.58"/><polygon class="cls-2" points="100.5 67.86 100.5 20.37 53.01 20.37 100.5 67.86"/><polygon class="cls-2" points="100.5 72.14 100.5 20.37 48.74 20.37 100.5 72.14"/><polygon class="cls-2" points="100.5 76.4 100.5 20.37 44.47 20.37 100.5 76.4"/><polygon class="cls-2" points="100.5 80.37 100.5 20.37 40.19 20.37 100.19 80.37 100.5 80.37"/><polygon class="cls-2" points="100.5 80.37 100.5 20.37 35.92 20.37 95.92 80.37 100.5 80.37"/><polygon class="cls-2" points="100.5 80.37 100.5 20.37 31.65 20.37 91.65 80.37 100.5 80.37"/><polygon class="cls-2" points="100.5 80.37 100.5 20.37 27.37 20.37 87.37 80.37 100.5 80.37"/><polygon class="cls-2" points="100.5 80.37 100.5 20.37 23.1 20.37 83.1 80.37 100.5 80.37"/><polygon class="cls-2" points="100.5 80.37 100.5 20.37 18.83 20.37 78.83 80.37 100.5 80.37"/><polygon class="cls-2" points="100.5 80.37 100.5 20.37 14.55 20.37 74.55 80.37 100.5 80.37"/><polygon class="cls-2" points="100.5 80.37 100.5 20.37 10.28 20.37 70.29 80.37 100.5 80.37"/><polygon class="cls-2" points="100.5 80.37 100.5 20.37 6.01 20.37 66.01 80.37 100.5 80.37"/><polygon class="cls-2" points="100.5 80.37 100.5 20.37 1.74 20.37 61.73 80.37 100.5 80.37"/><polygon class="cls-2" points="100.5 80.37 100.5 20.37 0.5 20.37 0.5 23.4 57.47 80.37 100.5 80.37"/><polygon class="cls-2" points="100.5 80.37 100.5 20.37 0.5 20.37 0.5 27.68 53.19 80.37 100.5 80.37"/><polygon class="cls-2" points="100.5 80.37 100.5 20.37 0.5 20.37 0.5 31.95 48.92 80.37 100.5 80.37"/><polygon class="cls-2" points="100.5 80.37 100.5 20.37 0.5 20.37 0.5 36.22 44.65 80.37 100.5 80.37"/><polygon class="cls-2" points="100.5 80.37 100.5 20.37 0.5 20.37 0.5 40.5 40.37 80.37 100.5 80.37"/><polygon class="cls-2" points="100.5 80.37 100.5 20.37 0.5 20.37 0.5 44.77 36.1 80.37 100.5 80.37"/><polygon class="cls-2" points="100.5 80.37 100.5 20.37 0.5 20.37 0.5 49.04 31.83 80.37 100.5 80.37"/><polygon class="cls-2" points="100.5 80.37 100.5 20.37 0.5 20.37 0.5 53.32 27.55 80.37 100.5 80.37"/><polygon class="cls-2" points="100.5 80.37 100.5 20.37 0.5 20.37 0.5 57.58 23.29 80.37 100.5 80.37"/><polygon class="cls-2" points="100.5 80.37 100.5 20.37 0.5 20.37 0.5 61.86 19.01 80.37 100.5 80.37"/><polygon class="cls-2" points="100.5 80.37 100.5 20.37 0.5 20.37 0.5 66.13 14.73 80.37 100.5 80.37"/><polygon class="cls-2" points="100.5 80.37 100.5 20.37 0.5 20.37 0.5 70.4 10.47 80.37 100.5 80.37"/><polygon class="cls-2" points="100.5 80.37 100.5 20.37 0.5 20.37 0.5 74.68 6.19 80.37 100.5 80.37"/><polygon class="cls-1" points="65.5 4.53 61.47 0.5 39.77 0.5 35.5 4.77 35.5 15.93 40.08 20.5 61.44 20.5 65.5 16.44 65.5 4.53"/></g></g></svg>