<svg xmlns="http://www.w3.org/2000/svg" viewBox="0 0 101 61"><defs><style>.cls-1,.cls-2{fill:none;stroke:#000;stroke-miterlimit:10;}.cls-2{stroke-width:0.25px;}</style></defs><title>Artboard6</title><g id="Layer_2" data-name="Layer 2"><g id="Layer_1-2" data-name="Layer 1"><rect class="cls-1" x="0.5" y="0.5" width="100" height="60"/><polygon class="cls-2" points="100.5 55.73 100.5 60.5 95.73 60.5 100.5 55.73"/><polygon class="cls-2" points="100.5 51.47 100.5 60.5 91.47 60.5 100.5 51.47"/><polygon class="cls-2" points="100.5 47.19 100.5 60.5 87.19 60.5 100.5 47.19"/><polygon class="cls-2" points="100.5 42.92 100.5 60.5 82.92 60.5 100.5 42.92"/><polygon class="cls-2" points="100.5 38.65 100.5 60.5 78.65 60.5 100.5 38.65"/><polygon class="cls-2" points="100.5 34.37 100.5 60.5 74.37 60.5 100.5 34.37"/><polygon class="cls-2" points="100.5 30.1 100.5 60.5 70.1 60.5 100.5 30.1"/><polygon class="cls-2" points="100.5 25.83 100.5 60.5 65.83 60.5 100.5 25.83"/><polygon class="cls-2" points="100.5 21.55 100.5 60.5 61.55 60.5 100.5 21.55"/><polygon class="cls-2" points="100.5 17.29 100.5 60.5 57.29 60.5 100.5 17.29"/><polygon class="cls-2" points="100.5 13.01 100.5 60.5 53.01 60.5 100.5 13.01"/><polygon class="cls-2" points="100.5 8.73 100.5 60.5 48.74 60.5 100.5 8.73"/><polygon class="cls-2" points="100.5 4.47 100.5 60.5 44.47 60.5 100.5 4.47"/><polygon class="cls-2" points="100.5 0.5 100.5 60.5 40.19 60.5 100.19 0.5 100.5 0.5"/><polygon class="cls-2" points="100.5 0.5 100.5 60.5 35.92 60.5 95.92 0.5 100.5 0.5"/><polygon class="cls-2" points="100.5 0.5 100.5 60.5 31.65 60.5 91.65 0.5 100.5 0.5"/><polygon class="cls-2" points="100.5 0.5 100.5 60.5 27.37 60.5 87.37 0.5 100.5 0.5"/><polygon class="cls-2" points="100.5 0.5 100.5 60.5 23.1 60.5 83.1 0.5 100.5 0.5"/><polygon class="cls-2" points="100.5 0.5 100.5 60.5 18.83 60.5 78.83 0.5 100.5 0.5"/><polygon class="cls-2" points="100.5 0.5 100.5 60.5 14.55 60.5 74.55 0.5 100.5 0.5"/><polygon class="cls-2" points="100.5 0.5 100.5 60.5 10.28 60.5 70.29 0.5 100.5 0.5"/><polygon class="cls-2" points="100.5 0.5 100.5 60.5 6.01 60.5 66.01 0.5 100.5 0.5"/><polygon class="cls-2" points="100.5 0.5 100.5 60.5 1.74 60.5 61.73 0.5 100.5 0.5"/><polygon class="cls-2" points="100.5 0.5 100.5 60.5 0.5 60.5 0.5 57.47 57.47 0.5 100.5 0.5"/><polygon class="cls-2" points="100.5 0.5 100.5 60.5 0.5 60.5 0.5 53.19 53.19 0.5 100.5 0.5"/><polygon class="cls-2" points="100.5 0.5 100.5 60.5 0.5 60.5 0.5 48.92 48.92 0.5 100.5 0.5"/><polygon class="cls-2" points="100.5 0.5 100.5 60.5 0.5 60.5 0.5 44.65 44.65 0.5 100.5 0.5"/><polygon class="cls-2" points="100.5 0.5 100.5 60.5 0.5 60.5 0.5 40.37 40.37 0.5 100.5 0.5"/><polygon class="cls-2" points="100.5 0.5 100.5 60.5 0.5 60.5 0.5 36.1 36.1 0.5 100.5 0.5"/><polygon class="cls-2" points="100.5 0.5 100.5 60.5 0.5 60.5 0.5 31.83 31.83 0.5 100.5 0.5"/><polygon class="cls-2" points="100.5 0.5 100.5 60.5 0.5 60.5 0.5 27.55 27.55 0.5 100.5 0.5"/><polygon class="cls-2" points="100.5 0.5 100.5 60.5 0.5 60.5 0.5 23.29 23.29 0.5 100.5 0.5"/><polygon class="cls-2" points="100.5 0.5 100.5 60.5 0.5 60.5 0.5 19.01 19.01 0.5 100.5 0.5"/><polygon class="cls-2" points="100.5 0.5 100.5 60.5 0.5 60.5 0.5 14.74 14.73 0.5 100.5 0.5"/><polygon class="cls-2" points="100.5 0.5 100.5 60.5 0.5 60.5 0.5 10.47 10.47 0.5 100.5 0.5"/><polygon class="cls-2" points="100.5 0.5 100.5 60.5 0.5 60.5 0.5 6.19 6.19 0.5 100.5 0.5"/></g></g></svg>