<svg xmlns="http://www.w3.org/2000/svg" viewBox="0 0 101 80.83"><defs><style>.cls-1,.cls-2{fill:none;stroke:#000;stroke-miterlimit:10;}.cls-2{stroke-width:0.25px;}</style></defs><title>Artboard4</title><g id="Layer_2" data-name="Layer 2"><g id="Layer_1-2" data-name="Layer 1"><rect class="cls-1" x="0.5" y="20.33" width="100" height="60"/><polygon class="cls-2" points="100.5 75.56 100.5 80.33 95.73 80.33 100.5 75.56"/><polygon class="cls-2" points="100.5 71.31 100.5 80.33 91.47 80.33 100.5 71.31"/><polygon class="cls-2" points="100.5 67.03 100.5 80.33 87.19 80.33 100.5 67.03"/><polygon class="cls-2" points="100.5 62.76 100.5 80.33 82.92 80.33 100.5 62.76"/><polygon class="cls-2" points="100.5 58.48 100.5 80.33 78.65 80.33 100.5 58.48"/><polygon class="cls-2" points="100.5 54.2 100.5 80.33 74.37 80.33 100.5 54.2"/><polygon class="cls-2" points="100.5 49.94 100.5 80.33 70.1 80.33 100.5 49.94"/><polygon class="cls-2" points="100.5 45.66 100.5 80.33 65.83 80.33 100.5 45.66"/><polygon class="cls-2" points="100.5 41.38 100.5 80.33 61.55 80.33 100.5 41.38"/><polygon class="cls-2" points="100.5 37.13 100.5 80.33 57.29 80.33 100.5 37.13"/><polygon class="cls-2" points="100.5 32.84 100.5 80.33 53.01 80.33 100.5 32.84"/><polygon class="cls-2" points="100.5 28.57 100.5 80.33 48.74 80.33 100.5 28.57"/><polygon class="cls-2" points="100.5 24.3 100.5 80.33 44.47 80.33 100.5 24.3"/><polygon class="cls-2" points="100.5 20.34 100.5 80.33 40.19 80.33 100.19 20.34 100.5 20.34"/><polygon class="cls-2" points="100.5 20.34 100.5 80.33 35.92 80.33 95.92 20.34 100.5 20.34"/><polygon class="cls-2" points="100.5 20.34 100.5 80.33 31.65 80.33 91.65 20.34 100.5 20.34"/><polygon class="cls-2" points="100.5 20.34 100.5 80.33 27.37 80.33 87.37 20.34 100.5 20.34"/><polygon class="cls-2" points="100.5 20.34 100.5 80.33 23.1 80.33 83.1 20.34 100.5 20.34"/><polygon class="cls-2" points="100.5 20.34 100.5 80.33 18.83 80.33 78.83 20.34 100.5 20.34"/><polygon class="cls-2" points="100.5 20.34 100.5 80.33 14.55 80.33 74.55 20.34 100.5 20.34"/><polygon class="cls-2" points="100.5 20.34 100.5 80.33 10.28 80.33 70.29 20.34 100.5 20.34"/><polygon class="cls-2" points="100.5 20.34 100.5 80.33 6.01 80.33 66.01 20.34 100.5 20.34"/><polygon class="cls-2" points="100.5 20.34 100.5 80.33 1.74 80.33 61.73 20.34 100.5 20.34"/><polygon class="cls-2" points="100.5 20.34 100.5 80.33 0.5 80.33 0.5 77.31 57.47 20.34 100.5 20.34"/><polygon class="cls-2" points="100.5 20.34 100.5 80.33 0.5 80.33 0.5 73.03 53.19 20.34 100.5 20.34"/><polygon class="cls-2" points="100.5 20.34 100.5 80.33 0.5 80.33 0.5 68.75 48.92 20.34 100.5 20.34"/><polygon class="cls-2" points="100.5 20.34 100.5 80.33 0.5 80.33 0.5 64.48 44.65 20.34 100.5 20.34"/><polygon class="cls-2" points="100.5 20.34 100.5 80.33 0.5 80.33 0.5 60.2 40.37 20.34 100.5 20.34"/><polygon class="cls-2" points="100.5 20.34 100.5 80.33 0.5 80.33 0.5 55.94 36.1 20.34 100.5 20.34"/><polygon class="cls-2" points="100.5 20.34 100.5 80.33 0.5 80.33 0.5 51.66 31.83 20.34 100.5 20.34"/><polygon class="cls-2" points="100.5 20.34 100.5 80.33 0.5 80.33 0.5 47.38 27.55 20.34 100.5 20.34"/><polygon class="cls-2" points="100.5 20.34 100.5 80.33 0.5 80.33 0.5 43.13 23.29 20.34 100.5 20.34"/><polygon class="cls-2" points="100.5 20.34 100.5 80.33 0.5 80.33 0.5 38.84 19.01 20.34 100.5 20.34"/><polygon class="cls-2" points="100.5 20.34 100.5 80.33 0.5 80.33 0.5 34.58 14.73 20.34 100.5 20.34"/><polygon class="cls-2" points="100.5 20.34 100.5 80.33 0.5 80.33 0.5 30.3 10.47 20.34 100.5 20.34"/><polygon class="cls-2" points="100.5 20.34 100.5 80.33 0.5 80.33 0.5 26.02 6.19 20.34 100.5 20.34"/><polygon class="cls-2" points="65.5 4.15 61.47 0.13 39.77 0.13 35.5 4.4 35.5 15.55 40.08 20.13 61.44 20.13 65.5 16.07 65.5 4.15"/></g></g></svg>