<svg xmlns="http://www.w3.org/2000/svg" viewBox="0 0 100.25 100.25"><defs><style>.cls-1{fill:none;stroke:#000;stroke-miterlimit:10;stroke-width:0.25px;}</style></defs><title>Artboard1</title><g id="Layer_2" data-name="Layer 2"><g id="Layer_1-2" data-name="Layer 1"><rect class="cls-1" x="40.13" y="40.13" width="20" height="20"/><polygon class="cls-1" points="60.13 56.92 60.13 60.13 56.92 60.13 60.13 56.92"/><polygon class="cls-1" points="60.13 53.97 60.13 60.13 53.97 60.13 60.13 53.97"/><polygon class="cls-1" points="60.13 51.01 60.13 60.13 51.01 60.13 60.13 51.01"/><polygon class="cls-1" points="60.13 48.05 60.13 60.13 48.05 60.13 60.13 48.05"/><polygon class="cls-1" points="60.13 45.06 60.13 60.13 45.09 60.13 60.13 45.06"/><polygon class="cls-1" points="60.13 42.1 60.13 60.13 42.13 60.13 60.13 42.1"/><polygon class="cls-1" points="60.13 40.13 60.13 60.13 40.13 60.13 40.13 59.16 59.15 40.13 60.13 40.13"/><polygon class="cls-1" points="60.13 40.13 60.13 60.13 40.13 60.13 40.13 56.2 56.19 40.13 60.13 40.13"/><polygon class="cls-1" points="60.13 40.13 60.13 60.13 40.13 60.13 40.13 53.23 53.23 40.13 60.13 40.13"/><polygon class="cls-1" points="60.13 40.13 60.13 60.13 40.13 60.13 40.13 50.27 50.27 40.13 60.13 40.13"/><polygon class="cls-1" points="60.13 40.13 60.13 60.13 40.13 60.13 40.13 47.3 47.3 40.13 60.13 40.13"/><polygon class="cls-1" points="60.13 40.13 60.13 60.13 40.13 60.13 40.13 44.34 44.34 40.13 60.13 40.13"/><circle class="cls-1" cx="50.13" cy="50.13" r="50"/></g></g></svg>