<svg xmlns="http://www.w3.org/2000/svg" viewBox="0 0 100.25 59.92"><defs><style>.cls-1{fill:none;stroke:#000;stroke-miterlimit:10;stroke-width:0.25px;}</style></defs><title>Artboard2</title><g id="Layer_2" data-name="Layer 2"><g id="Layer_1-2" data-name="Layer 1"><path class="cls-1" d="M100.13,59.79H.13c0-.76,0-1.52,0-2.27.05-1.38.18-2.75.35-4.1.2-1.54.46-3.07.8-4.56a53.09,53.09,0,0,1,1.46-5.23,52.05,52.05,0,0,1,2.75-6.51,50.34,50.34,0,0,1,21.91-21.9A48.74,48.74,0,0,1,39.2,11c1.5-.34,3-.6,4.56-.8,1.35-.17,2.72-.29,4.1-.35.75,0,1.5-.05,2.27-.05.51,0,1,0,1.52,0,1.19,0,2.37.1,3.52.23s2.24.25,3.32.44,2.11.39,3.14.63,2,.5,3,.8,1.89.6,2.82.94,1.8.69,2.68,1.08,1.72.77,2.56,1.2,1.63.85,2.44,1.32,1.57.93,2.32,1.43,1.5,1,2.23,1.54,1.44,1.07,2.13,1.64,1.37,1.15,2,1.74,1.3,1.22,1.92,1.85,1.22,1.28,1.82,1.94,1.15,1.34,1.71,2,1.1,1.41,1.62,2.14,1,1.49,1.5,2.26,1,1.55,1.42,2.35.89,1.63,1.29,2.47.81,1.71,1.17,2.58.73,1.8,1.05,2.72.63,1.89.91,2.85.53,2,.76,3,.43,2.1.58,3.17.32,2.23.41,3.36C100.07,57,100.13,58.36,100.13,59.79Z"/><path class="cls-1" d="M100.13,59.79H95.71L100,55.55C100.07,57,100.13,58.36,100.13,59.79Z"/><path class="cls-1" d="M92,59.79l7.59-7.6c.19,1.11.32,2.23.41,3.36.12,1.4.18,2.81.18,4.24Z"/><path class="cls-1" d="M88.18,59.79,99,49c.24,1,.43,2.1.58,3.17s.32,2.23.41,3.36c.12,1.4.18,2.81.18,4.24Z"/><path class="cls-1" d="M84.42,59.79,98.2,46c.28,1,.53,2,.76,3s.43,2.1.58,3.17.32,2.23.41,3.36c.12,1.4.18,2.81.18,4.24Z"/><path class="cls-1" d="M80.66,59.79,97.29,43.16c.34.94.63,1.89.91,2.85s.53,2,.76,3,.43,2.1.58,3.17.32,2.23.41,3.36c.12,1.4.18,2.81.18,4.24Z"/><path class="cls-1" d="M100.13,59.79H76.91L96.24,40.44c.37.9.73,1.8,1.05,2.72s.63,1.89.91,2.85.53,2,.76,3,.43,2.1.58,3.17.32,2.23.41,3.36C100.07,57,100.13,58.36,100.13,59.79Z"/><path class="cls-1" d="M100.13,59.79h-27L95.07,37.86c.41.85.81,1.71,1.17,2.58s.73,1.8,1.05,2.72.63,1.89.91,2.85.53,2,.76,3,.43,2.1.58,3.17.32,2.23.41,3.36C100.07,57,100.13,58.36,100.13,59.79Z"/><path class="cls-1" d="M100.13,59.79H69.38l24.4-24.4c.45.81.89,1.63,1.29,2.47s.81,1.71,1.17,2.58.73,1.8,1.05,2.72.63,1.89.91,2.85.53,2,.76,3,.43,2.1.58,3.17.32,2.23.41,3.36C100.07,57,100.13,58.36,100.13,59.79Z"/><path class="cls-1" d="M100.13,59.79H65.61L92.36,33c.5.77,1,1.55,1.42,2.35s.89,1.63,1.29,2.47.81,1.71,1.17,2.58.73,1.8,1.05,2.72.63,1.89.91,2.85.53,2,.76,3,.43,2.1.58,3.17.32,2.23.41,3.36C100.07,57,100.13,58.36,100.13,59.79Z"/><path class="cls-1" d="M100.13,59.79H61.86l29-29c.53.74,1,1.49,1.5,2.26s1,1.55,1.42,2.35.89,1.63,1.29,2.47.81,1.71,1.17,2.58.73,1.8,1.05,2.72.63,1.89.91,2.85.53,2,.76,3,.43,2.1.58,3.17.32,2.23.41,3.36C100.07,57,100.13,58.36,100.13,59.79Z"/><path class="cls-1" d="M100.13,59.79h-42L89.24,28.64c.55.7,1.1,1.41,1.62,2.14s1,1.49,1.5,2.26,1,1.55,1.42,2.35.89,1.63,1.29,2.47.81,1.71,1.17,2.58.73,1.8,1.05,2.72.63,1.89.91,2.85.53,2,.76,3,.43,2.1.58,3.17.32,2.23.41,3.36C100.07,57,100.13,58.36,100.13,59.79Z"/><path class="cls-1" d="M100.13,59.79H54.34L87.53,26.6q.87,1,1.71,2c.55.7,1.1,1.41,1.62,2.14s1,1.49,1.5,2.26,1,1.55,1.42,2.35.89,1.63,1.29,2.47.81,1.71,1.17,2.58.73,1.8,1.05,2.72.63,1.89.91,2.85.53,2,.76,3,.43,2.1.58,3.17.32,2.23.41,3.36C100.07,57,100.13,58.36,100.13,59.79Z"/><path class="cls-1" d="M100.13,59.79H50.58L85.71,24.66c.63.63,1.22,1.28,1.82,1.94s1.15,1.34,1.71,2,1.1,1.41,1.62,2.14,1,1.49,1.5,2.26,1,1.55,1.42,2.35.89,1.63,1.29,2.47.81,1.71,1.17,2.58.73,1.8,1.05,2.72.63,1.89.91,2.85.53,2,.76,3,.43,2.1.58,3.17.32,2.23.41,3.36C100.07,57,100.13,58.36,100.13,59.79Z"/><path class="cls-1" d="M46.8,59.79l37-37c.67.61,1.3,1.22,1.92,1.85s1.22,1.28,1.82,1.94,1.15,1.34,1.71,2,1.1,1.41,1.62,2.14,1,1.49,1.5,2.26,1,1.55,1.42,2.35.89,1.63,1.29,2.47.81,1.71,1.17,2.58.73,1.8,1.05,2.72.63,1.89.91,2.85.53,2,.76,3,.43,2.1.58,3.17.32,2.23.41,3.36c.12,1.4.18,2.81.18,4.24Z"/><path class="cls-1" d="M43,59.79,81.78,21.07c.69.57,1.37,1.15,2,1.74s1.3,1.22,1.92,1.85,1.22,1.28,1.82,1.94,1.15,1.34,1.71,2,1.1,1.41,1.62,2.14,1,1.49,1.5,2.26,1,1.55,1.42,2.35.89,1.63,1.29,2.47.81,1.71,1.17,2.58.73,1.8,1.05,2.72.63,1.89.91,2.85.53,2,.76,3,.43,2.1.58,3.17.32,2.23.41,3.36c.12,1.4.18,2.81.18,4.24Z"/><path class="cls-1" d="M39.29,59.79,79.65,19.43c.73.52,1.44,1.07,2.13,1.64s1.37,1.15,2,1.74,1.3,1.22,1.92,1.85,1.22,1.28,1.82,1.94,1.15,1.34,1.71,2,1.1,1.41,1.62,2.14,1,1.49,1.5,2.26,1,1.55,1.42,2.35.89,1.63,1.29,2.47.81,1.71,1.17,2.58.73,1.8,1.05,2.72.63,1.89.91,2.85.53,2,.76,3,.43,2.1.58,3.17.32,2.23.41,3.36c.12,1.4.18,2.81.18,4.24Z"/><path class="cls-1" d="M100,55.55c.12,1.4.18,2.81.18,4.24H35.53l41.89-41.9c.76.49,1.5,1,2.23,1.54s1.44,1.07,2.13,1.64,1.37,1.15,2,1.74,1.3,1.22,1.92,1.85,1.22,1.28,1.82,1.94,1.15,1.34,1.71,2,1.1,1.41,1.62,2.14,1,1.49,1.5,2.26,1,1.55,1.42,2.35.89,1.63,1.29,2.47.81,1.71,1.17,2.58.73,1.8,1.05,2.72.63,1.89.91,2.85.53,2,.76,3,.43,2.1.58,3.17S99.86,54.42,100,55.55Z"/><path class="cls-1" d="M100,55.55c.12,1.4.18,2.81.18,4.24H31.77L75.1,16.46c.79.45,1.57.93,2.32,1.43s1.5,1,2.23,1.54,1.44,1.07,2.13,1.64,1.37,1.15,2,1.74,1.3,1.22,1.92,1.85,1.22,1.28,1.82,1.94,1.15,1.34,1.71,2,1.1,1.41,1.62,2.14,1,1.49,1.5,2.26,1,1.55,1.42,2.35.89,1.63,1.29,2.47.81,1.71,1.17,2.58.73,1.8,1.05,2.72.63,1.89.91,2.85.53,2,.76,3,.43,2.1.58,3.17S99.86,54.42,100,55.55Z"/><path class="cls-1" d="M100,55.55c.12,1.4.18,2.81.18,4.24H28L72.66,15.14c.82.41,1.63.85,2.44,1.32s1.57.93,2.32,1.43,1.5,1,2.23,1.54,1.44,1.07,2.13,1.64,1.37,1.15,2,1.74,1.3,1.22,1.92,1.85,1.22,1.28,1.82,1.94,1.15,1.34,1.71,2,1.1,1.41,1.62,2.14,1,1.49,1.5,2.26,1,1.55,1.42,2.35.89,1.63,1.29,2.47.81,1.71,1.17,2.58.73,1.8,1.05,2.72.63,1.89.91,2.85.53,2,.76,3,.43,2.1.58,3.17S99.86,54.42,100,55.55Z"/><path class="cls-1" d="M100,55.55c.12,1.4.18,2.81.18,4.24H24.24L70.1,13.94c.87.37,1.72.77,2.56,1.2s1.63.85,2.44,1.32,1.57.93,2.32,1.43,1.5,1,2.23,1.54,1.44,1.07,2.13,1.64,1.37,1.15,2,1.74,1.3,1.22,1.92,1.85,1.22,1.28,1.82,1.94,1.15,1.34,1.71,2,1.1,1.41,1.62,2.14,1,1.49,1.5,2.26,1,1.55,1.42,2.35.89,1.63,1.29,2.47.81,1.71,1.17,2.58.73,1.8,1.05,2.72.63,1.89.91,2.85.53,2,.76,3,.43,2.1.58,3.17S99.86,54.42,100,55.55Z"/><path class="cls-1" d="M100,55.55c.12,1.4.18,2.81.18,4.24H20.48L67.42,12.86c.91.33,1.8.69,2.68,1.08s1.72.77,2.56,1.2,1.63.85,2.44,1.32,1.57.93,2.32,1.43,1.5,1,2.23,1.54,1.44,1.07,2.13,1.64,1.37,1.15,2,1.74,1.3,1.22,1.92,1.85,1.22,1.28,1.82,1.94,1.15,1.34,1.71,2,1.1,1.41,1.62,2.14,1,1.49,1.5,2.26,1,1.55,1.42,2.35.89,1.63,1.29,2.47.81,1.71,1.17,2.58.73,1.8,1.05,2.72.63,1.89.91,2.85.53,2,.76,3,.43,2.1.58,3.17S99.86,54.42,100,55.55Z"/><path class="cls-1" d="M100,55.55c.12,1.4.18,2.81.18,4.24H16.73L64.6,11.92c.94.28,1.89.6,2.82.94s1.8.69,2.68,1.08,1.72.77,2.56,1.2,1.63.85,2.44,1.32,1.57.93,2.32,1.43,1.5,1,2.23,1.54,1.44,1.07,2.13,1.64,1.37,1.15,2,1.74,1.3,1.22,1.92,1.85,1.22,1.28,1.82,1.94,1.15,1.34,1.71,2,1.1,1.41,1.62,2.14,1,1.49,1.5,2.26,1,1.55,1.42,2.35.89,1.63,1.29,2.47.81,1.71,1.17,2.58.73,1.8,1.05,2.72.63,1.89.91,2.85.53,2,.76,3,.43,2.1.58,3.17S99.86,54.42,100,55.55Z"/><path class="cls-1" d="M100.13,59.79H13L61.63,11.12c1,.23,2,.5,3,.8s1.89.6,2.82.94,1.8.69,2.68,1.08,1.72.77,2.56,1.2,1.63.85,2.44,1.32,1.57.93,2.32,1.43,1.5,1,2.23,1.54,1.44,1.07,2.13,1.64,1.37,1.15,2,1.74,1.3,1.22,1.92,1.85,1.22,1.28,1.82,1.94,1.15,1.34,1.71,2,1.1,1.41,1.62,2.14,1,1.49,1.5,2.26,1,1.55,1.42,2.35.89,1.63,1.29,2.47.81,1.71,1.17,2.58.73,1.8,1.05,2.72.63,1.89.91,2.85.53,2,.76,3,.43,2.1.58,3.17.32,2.23.41,3.36C100.07,57,100.13,58.36,100.13,59.79Z"/><path class="cls-1" d="M100.13,59.79H9.21l49.28-49.3c1.06.17,2.11.39,3.14.63s2,.5,3,.8,1.89.6,2.82.94,1.8.69,2.68,1.08,1.72.77,2.56,1.2,1.63.85,2.44,1.32,1.57.93,2.32,1.43,1.5,1,2.23,1.54,1.44,1.07,2.13,1.64,1.37,1.15,2,1.74,1.3,1.22,1.92,1.85,1.22,1.28,1.82,1.94,1.15,1.34,1.71,2,1.1,1.41,1.62,2.14,1,1.49,1.5,2.26,1,1.55,1.42,2.35.89,1.63,1.29,2.47.81,1.71,1.17,2.58.73,1.8,1.05,2.72.63,1.89.91,2.85.53,2,.76,3,.43,2.1.58,3.17.32,2.23.41,3.36C100.07,57,100.13,58.36,100.13,59.79Z"/><path class="cls-1" d="M100.13,59.79H5.43L55.17,10.05c1.12.1,2.24.25,3.32.44s2.11.39,3.14.63,2,.5,3,.8,1.89.6,2.82.94,1.8.69,2.68,1.08,1.72.77,2.56,1.2,1.63.85,2.44,1.32,1.57.93,2.32,1.43,1.5,1,2.23,1.54,1.44,1.07,2.13,1.64,1.37,1.15,2,1.74,1.3,1.22,1.92,1.85,1.22,1.28,1.82,1.94,1.15,1.34,1.71,2,1.1,1.41,1.62,2.14,1,1.49,1.5,2.26,1,1.55,1.42,2.35.89,1.63,1.29,2.47.81,1.71,1.17,2.58.73,1.8,1.05,2.72.63,1.89.91,2.85.53,2,.76,3,.43,2.1.58,3.17.32,2.23.41,3.36C100.07,57,100.13,58.36,100.13,59.79Z"/><path class="cls-1" d="M100.13,59.79H1.67l50-50c1.19,0,2.37.1,3.52.23s2.24.25,3.32.44,2.11.39,3.14.63,2,.5,3,.8,1.89.6,2.82.94,1.8.69,2.68,1.08,1.72.77,2.56,1.2,1.63.85,2.44,1.32,1.57.93,2.32,1.43,1.5,1,2.23,1.54,1.44,1.07,2.13,1.64,1.37,1.15,2,1.74,1.3,1.22,1.92,1.85,1.22,1.28,1.82,1.94,1.15,1.34,1.71,2,1.1,1.41,1.62,2.14,1,1.49,1.5,2.26,1,1.55,1.42,2.35.89,1.63,1.29,2.47.81,1.71,1.17,2.58.73,1.8,1.05,2.72.63,1.89.91,2.85.53,2,.76,3,.43,2.1.58,3.17.32,2.23.41,3.36C100.07,57,100.13,58.36,100.13,59.79Z"/><path class="cls-1" d="M100.13,59.79H.13c0-.76,0-1.52,0-2.27L47.86,9.84c.75,0,1.5-.05,2.27-.05.51,0,1,0,1.52,0,1.19,0,2.37.1,3.52.23s2.24.25,3.32.44,2.11.39,3.14.63,2,.5,3,.8,1.89.6,2.82.94,1.8.69,2.68,1.08,1.72.77,2.56,1.2,1.63.85,2.44,1.32,1.57.93,2.32,1.43,1.5,1,2.23,1.54,1.44,1.07,2.13,1.64,1.37,1.15,2,1.74,1.3,1.22,1.92,1.85,1.22,1.28,1.82,1.94,1.15,1.34,1.71,2,1.1,1.41,1.62,2.14,1,1.49,1.5,2.26,1,1.55,1.42,2.35.89,1.63,1.29,2.47.81,1.71,1.17,2.58.73,1.8,1.05,2.72.63,1.89.91,2.85.53,2,.76,3,.43,2.1.58,3.17.32,2.23.41,3.36C100.07,57,100.13,58.36,100.13,59.79Z"/><path class="cls-1" d="M100.13,59.79H.13c0-.76,0-1.52,0-2.27.05-1.38.18-2.75.35-4.1L43.76,10.19c1.35-.17,2.72-.29,4.1-.35.75,0,1.5-.05,2.27-.05.51,0,1,0,1.52,0,1.19,0,2.37.1,3.52.23s2.24.25,3.32.44,2.11.39,3.14.63,2,.5,3,.8,1.89.6,2.82.94,1.8.69,2.68,1.08,1.72.77,2.56,1.2,1.63.85,2.44,1.32,1.57.93,2.32,1.43,1.5,1,2.23,1.54,1.44,1.07,2.13,1.64,1.37,1.15,2,1.74,1.3,1.22,1.92,1.85,1.22,1.28,1.82,1.94,1.15,1.34,1.71,2,1.1,1.41,1.62,2.14,1,1.49,1.5,2.26,1,1.55,1.42,2.35.89,1.63,1.29,2.47.81,1.71,1.17,2.58.73,1.8,1.05,2.72.63,1.89.91,2.85.53,2,.76,3,.43,2.1.58,3.17.32,2.23.41,3.36C100.07,57,100.13,58.36,100.13,59.79Z"/><path class="cls-1" d="M100.13,59.79H.13c0-.76,0-1.52,0-2.27.05-1.38.18-2.75.35-4.1.2-1.54.46-3.07.8-4.56L39.2,11c1.5-.34,3-.6,4.56-.8,1.35-.17,2.72-.29,4.1-.35.75,0,1.5-.05,2.27-.05.51,0,1,0,1.52,0,1.19,0,2.37.1,3.52.23s2.24.25,3.32.44,2.11.39,3.14.63,2,.5,3,.8,1.89.6,2.82.94,1.8.69,2.68,1.08,1.72.77,2.56,1.2,1.63.85,2.44,1.32,1.57.93,2.32,1.43,1.5,1,2.23,1.54,1.44,1.07,2.13,1.64,1.37,1.15,2,1.74,1.3,1.22,1.92,1.85,1.22,1.28,1.82,1.94,1.15,1.34,1.71,2,1.1,1.41,1.62,2.14,1,1.49,1.5,2.26,1,1.55,1.42,2.35.89,1.63,1.29,2.47.81,1.71,1.17,2.58.73,1.8,1.05,2.72.63,1.89.91,2.85.53,2,.76,3,.43,2.1.58,3.17.32,2.23.41,3.36C100.07,57,100.13,58.36,100.13,59.79Z"/><path class="cls-1" d="M100.13,59.79H.13c0-.76,0-1.52,0-2.27.05-1.38.18-2.75.35-4.1.2-1.54.46-3.07.8-4.56a53.09,53.09,0,0,1,1.46-5.23L34,12.45A49.6,49.6,0,0,1,39.2,11c1.5-.34,3-.6,4.56-.8,1.35-.17,2.72-.29,4.1-.35.75,0,1.5-.05,2.27-.05.51,0,1,0,1.52,0,1.19,0,2.37.1,3.52.23s2.24.25,3.32.44,2.11.39,3.14.63,2,.5,3,.8,1.89.6,2.82.94,1.8.69,2.68,1.08,1.72.77,2.56,1.2,1.63.85,2.44,1.32,1.57.93,2.32,1.43,1.5,1,2.23,1.54,1.44,1.07,2.13,1.64,1.37,1.15,2,1.74,1.3,1.22,1.92,1.85,1.22,1.28,1.82,1.94,1.15,1.34,1.71,2,1.1,1.41,1.62,2.14,1,1.49,1.5,2.26,1,1.55,1.42,2.35.89,1.63,1.29,2.47.81,1.71,1.17,2.58.73,1.8,1.05,2.72.63,1.89.91,2.85.53,2,.76,3,.43,2.1.58,3.17.32,2.23.41,3.36C100.07,57,100.13,58.36,100.13,59.79Z"/><path class="cls-1" d="M100.13,59.79H.13c0-.76,0-1.52,0-2.27.05-1.38.18-2.75.35-4.1.2-1.54.46-3.07.8-4.56a53.09,53.09,0,0,1,1.46-5.23,52.05,52.05,0,0,1,2.75-6.51l21.91-21.9A48.74,48.74,0,0,1,39.2,11c1.5-.34,3-.6,4.56-.8,1.35-.17,2.72-.29,4.1-.35.75,0,1.5-.05,2.27-.05.51,0,1,0,1.52,0,1.19,0,2.37.1,3.52.23s2.24.25,3.32.44,2.11.39,3.14.63,2,.5,3,.8,1.89.6,2.82.94,1.8.69,2.68,1.08,1.72.77,2.56,1.2,1.63.85,2.44,1.32,1.57.93,2.32,1.43,1.5,1,2.23,1.54,1.44,1.07,2.13,1.64,1.37,1.15,2,1.74,1.3,1.22,1.92,1.85,1.22,1.28,1.82,1.94,1.15,1.34,1.71,2,1.1,1.41,1.62,2.14,1,1.49,1.5,2.26,1,1.55,1.42,2.35.89,1.63,1.29,2.47.81,1.71,1.17,2.58.73,1.8,1.05,2.72.63,1.89.91,2.85.53,2,.76,3,.43,2.1.58,3.17.32,2.23.41,3.36C100.07,57,100.13,58.36,100.13,59.79Z"/><rect class="cls-1" x="45.13" y="0.13" width="10" height="10"/></g></g></svg>