<svg xmlns="http://www.w3.org/2000/svg" viewBox="0 0 101 81.21"><defs><style>.cls-1,.cls-2{fill:none;stroke:#000;stroke-miterlimit:10;}.cls-2{stroke-width:0.25px;}</style></defs><title>Artboard4</title><g id="Layer_2" data-name="Layer 2"><g id="Layer_1-2" data-name="Layer 1"><rect class="cls-1" x="0.5" y="20.71" width="100" height="60"/><polygon class="cls-2" points="100.5 75.94 100.5 80.71 95.73 80.71 100.5 75.94"/><polygon class="cls-2" points="100.5 71.68 100.5 80.71 91.47 80.71 100.5 71.68"/><polygon class="cls-2" points="100.5 67.4 100.5 80.71 87.19 80.71 100.5 67.4"/><polygon class="cls-2" points="100.5 63.13 100.5 80.71 82.92 80.71 100.5 63.13"/><polygon class="cls-2" points="100.5 58.86 100.5 80.71 78.65 80.71 100.5 58.86"/><polygon class="cls-2" points="100.5 54.58 100.5 80.71 74.37 80.71 100.5 54.58"/><polygon class="cls-2" points="100.5 50.31 100.5 80.71 70.1 80.71 100.5 50.31"/><polygon class="cls-2" points="100.5 46.04 100.5 80.71 65.83 80.71 100.5 46.04"/><polygon class="cls-2" points="100.5 41.76 100.5 80.71 61.55 80.71 100.5 41.76"/><polygon class="cls-2" points="100.5 37.5 100.5 80.71 57.29 80.71 100.5 37.5"/><polygon class="cls-2" points="100.5 33.22 100.5 80.71 53.01 80.71 100.5 33.22"/><polygon class="cls-2" points="100.5 28.94 100.5 80.71 48.74 80.71 100.5 28.94"/><polygon class="cls-2" points="100.5 24.68 100.5 80.71 44.47 80.71 100.5 24.68"/><polygon class="cls-2" points="100.5 20.71 100.5 80.71 40.19 80.71 100.19 20.71 100.5 20.71"/><polygon class="cls-2" points="100.5 20.71 100.5 80.71 35.92 80.71 95.92 20.71 100.5 20.71"/><polygon class="cls-2" points="100.5 20.71 100.5 80.71 31.65 80.71 91.65 20.71 100.5 20.71"/><polygon class="cls-2" points="100.5 20.71 100.5 80.71 27.37 80.71 87.37 20.71 100.5 20.71"/><polygon class="cls-2" points="100.5 20.71 100.5 80.71 23.1 80.71 83.1 20.71 100.5 20.71"/><polygon class="cls-2" points="100.5 20.71 100.5 80.71 18.83 80.71 78.83 20.71 100.5 20.71"/><polygon class="cls-2" points="100.5 20.71 100.5 80.71 14.55 80.71 74.55 20.71 100.5 20.71"/><polygon class="cls-2" points="100.5 20.71 100.5 80.71 10.28 80.71 70.29 20.71 100.5 20.71"/><polygon class="cls-2" points="100.5 20.71 100.5 80.71 6.01 80.71 66.01 20.71 100.5 20.71"/><polygon class="cls-2" points="100.5 20.71 100.5 80.71 1.74 80.71 61.73 20.71 100.5 20.71"/><polygon class="cls-2" points="100.5 20.71 100.5 80.71 0.5 80.71 0.5 77.68 57.47 20.71 100.5 20.71"/><polygon class="cls-2" points="100.5 20.71 100.5 80.71 0.5 80.71 0.5 73.4 53.19 20.71 100.5 20.71"/><polygon class="cls-2" points="100.5 20.71 100.5 80.71 0.5 80.71 0.5 69.13 48.92 20.71 100.5 20.71"/><polygon class="cls-2" points="100.5 20.71 100.5 80.71 0.5 80.71 0.5 64.86 44.65 20.71 100.5 20.71"/><polygon class="cls-2" points="100.5 20.71 100.5 80.71 0.5 80.71 0.5 60.58 40.37 20.71 100.5 20.71"/><polygon class="cls-2" points="100.5 20.71 100.5 80.71 0.5 80.71 0.5 56.31 36.1 20.71 100.5 20.71"/><polygon class="cls-2" points="100.5 20.71 100.5 80.71 0.5 80.71 0.5 52.04 31.83 20.71 100.5 20.71"/><polygon class="cls-2" points="100.5 20.71 100.5 80.71 0.5 80.71 0.5 47.76 27.55 20.71 100.5 20.71"/><polygon class="cls-2" points="100.5 20.71 100.5 80.71 0.5 80.71 0.5 43.5 23.29 20.71 100.5 20.71"/><polygon class="cls-2" points="100.5 20.71 100.5 80.71 0.5 80.71 0.5 39.22 19.01 20.71 100.5 20.71"/><polygon class="cls-2" points="100.5 20.71 100.5 80.71 0.5 80.71 0.5 34.95 14.73 20.71 100.5 20.71"/><polygon class="cls-2" points="100.5 20.71 100.5 80.71 0.5 80.71 0.5 30.68 10.47 20.71 100.5 20.71"/><polygon class="cls-2" points="100.5 20.71 100.5 80.71 0.5 80.71 0.5 26.4 6.19 20.71 100.5 20.71"/><polygon class="cls-1" points="65.5 4.53 61.47 0.5 39.77 0.5 35.5 4.77 35.5 15.93 40.08 20.5 61.44 20.5 65.5 16.44 65.5 4.53"/></g></g></svg>