<svg xmlns="http://www.w3.org/2000/svg" viewBox="0 0 141 101"><defs><style>.cls-1,.cls-2{fill:none;stroke:#000;stroke-miterlimit:10;}.cls-2{stroke-width:0.5px;}</style></defs><title>Artboard3</title><g id="Layer_2" data-name="Layer 2"><g id="Layer_1-2" data-name="Layer 1"><rect class="cls-1" x="0.5" y="0.5" width="140" height="100"/><polygon class="cls-1" points="100.5 38.55 92.45 30.5 49.04 30.5 40.5 39.04 40.5 61.35 49.65 70.5 92.39 70.5 100.5 62.39 100.5 38.55"/><line class="cls-2" x1="56.62" y1="30.5" x2="40.5" y2="46.62"/><line class="cls-2" x1="64.2" y1="30.5" x2="40.5" y2="54.2"/><line class="cls-2" x1="71.78" y1="30.5" x2="40.72" y2="61.57"/><line class="cls-2" x1="79.35" y1="30.5" x2="44.5" y2="65.35"/><line class="cls-2" x1="86.93" y1="30.5" x2="48.29" y2="69.14"/><line class="cls-2" x1="93.48" y1="31.53" x2="54.5" y2="70.5"/><line class="cls-2" x1="97.27" y1="35.32" x2="62.09" y2="70.5"/><line class="cls-2" x1="100.5" y1="39.66" x2="69.66" y2="70.5"/><line class="cls-2" x1="100.5" y1="47.24" x2="77.24" y2="70.5"/><line class="cls-2" x1="100.5" y1="54.81" x2="84.81" y2="70.5"/></g></g></svg>