<svg xmlns="http://www.w3.org/2000/svg" viewBox="0 0 140.25 100.25"><defs><style>.cls-1{fill:none;stroke:#000;stroke-miterlimit:10;stroke-width:0.25px;}</style></defs><title>Artboard3</title><g id="Layer_2" data-name="Layer 2"><g id="Layer_1-2" data-name="Layer 1"><rect class="cls-1" x="0.13" y="0.13" width="140" height="100"/><polygon class="cls-1" points="85.13 44.16 85.13 56.06 81.06 60.13 59.7 60.13 59.34 59.77 58.27 58.7 57.2 57.63 55.13 55.55 55.13 44.4 59.4 40.13 81.09 40.13 81.13 40.16 83.28 42.3 84.36 43.38 85.13 44.16"/><polygon class="cls-1" points="81.06 60.13 78.36 60.13 85.13 53.37 85.13 56.06 81.06 60.13"/><polygon class="cls-1" points="85.13 51.2 85.13 56.06 81.06 60.13 76.2 60.13 85.13 51.2"/><polygon class="cls-1" points="74.06 60.13 85.13 49.06 85.13 56.06 81.06 60.13 74.06 60.13"/><polygon class="cls-1" points="85.13 46.91 85.13 56.06 81.06 60.13 71.91 60.13 85.13 46.91"/><polygon class="cls-1" points="85.13 44.76 85.13 56.06 81.06 60.13 69.75 60.13 85.13 44.76"/><polygon class="cls-1" points="85.13 44.16 85.13 56.06 81.06 60.13 67.61 60.13 84.36 43.38 85.13 44.16"/><polygon class="cls-1" points="85.13 44.16 85.13 56.06 81.06 60.13 65.45 60.13 83.28 42.3 84.36 43.38 85.13 44.16"/><polygon class="cls-1" points="85.13 44.16 85.13 56.06 81.06 60.13 63.3 60.13 82.2 41.23 83.28 42.3 84.36 43.38 85.13 44.16"/><polygon class="cls-1" points="85.13 44.16 85.13 56.06 81.06 60.13 61.15 60.13 81.13 40.16 83.28 42.3 84.36 43.38 85.13 44.16"/><polygon class="cls-1" points="85.13 44.16 85.13 56.06 81.06 60.13 59.7 60.13 59.34 59.77 79 40.13 81.09 40.13 81.13 40.16 83.28 42.3 84.36 43.38 85.13 44.16"/><polygon class="cls-1" points="85.13 44.16 85.13 56.06 81.06 60.13 59.7 60.13 59.34 59.77 58.27 58.7 76.84 40.13 81.09 40.13 81.13 40.16 83.28 42.3 84.36 43.38 85.13 44.16"/><polygon class="cls-1" points="85.13 44.16 85.13 56.06 81.06 60.13 59.7 60.13 59.34 59.77 58.27 58.7 57.2 57.63 74.7 40.13 81.09 40.13 81.13 40.16 83.28 42.3 84.36 43.38 85.13 44.16"/><polygon class="cls-1" points="85.13 44.16 85.13 56.06 81.06 60.13 59.7 60.13 59.34 59.77 58.27 58.7 57.2 57.63 56.13 56.55 72.55 40.13 81.09 40.13 81.13 40.16 83.28 42.3 84.36 43.38 85.13 44.16"/><polygon class="cls-1" points="85.13 44.16 85.13 56.06 81.06 60.13 59.7 60.13 59.34 59.77 58.27 58.7 57.2 57.63 55.13 55.55 55.13 55.4 70.39 40.13 81.09 40.13 81.13 40.16 83.28 42.3 84.36 43.38 85.13 44.16"/><polygon class="cls-1" points="85.13 44.16 85.13 56.06 81.06 60.13 59.7 60.13 59.34 59.77 58.27 58.7 57.2 57.63 55.13 55.55 55.13 53.24 68.25 40.13 81.09 40.13 81.13 40.16 83.28 42.3 84.36 43.38 85.13 44.16"/><polygon class="cls-1" points="85.13 44.16 85.13 56.06 81.06 60.13 59.7 60.13 59.34 59.77 58.27 58.7 57.2 57.63 55.13 55.55 55.13 51.09 66.09 40.13 81.09 40.13 81.13 40.16 83.28 42.3 84.36 43.38 85.13 44.16"/><polygon class="cls-1" points="85.13 44.16 85.13 56.06 81.06 60.13 59.7 60.13 59.34 59.77 58.27 58.7 57.2 57.63 55.13 55.55 55.13 48.95 63.95 40.13 81.09 40.13 81.13 40.16 83.28 42.3 84.36 43.38 85.13 44.16"/><polygon class="cls-1" points="85.13 44.16 85.13 56.06 81.06 60.13 59.7 60.13 59.34 59.77 58.27 58.7 57.2 57.63 55.13 55.55 55.13 46.78 61.78 40.13 81.09 40.13 81.13 40.16 83.28 42.3 84.36 43.38 85.13 44.16"/></g></g></svg>