<svg xmlns="http://www.w3.org/2000/svg" viewBox="0 0 101 80.49"><defs><style>.cls-1,.cls-2{fill:none;stroke:#000;stroke-miterlimit:10;}.cls-2{stroke-width:0.25px;}</style></defs><title>Artboard7</title><g id="Layer_2" data-name="Layer 2"><g id="Layer_1-2" data-name="Layer 1"><rect class="cls-1" x="0.5" y="19.99" width="100" height="60"/><polygon class="cls-2" points="100.5 75.22 100.5 79.99 95.73 79.99 100.5 75.22"/><polygon class="cls-2" points="100.5 70.96 100.5 79.99 91.47 79.99 100.5 70.96"/><polygon class="cls-2" points="100.5 66.68 100.5 79.99 87.19 79.99 100.5 66.68"/><polygon class="cls-2" points="100.5 62.41 100.5 79.99 82.92 79.99 100.5 62.41"/><polygon class="cls-2" points="100.5 58.14 100.5 79.99 78.65 79.99 100.5 58.14"/><polygon class="cls-2" points="100.5 53.86 100.5 79.99 74.37 79.99 100.5 53.86"/><polygon class="cls-2" points="100.5 49.59 100.5 79.99 70.1 79.99 100.5 49.59"/><polygon class="cls-2" points="100.5 45.32 100.5 79.99 65.83 79.99 100.5 45.32"/><polygon class="cls-2" points="100.5 41.04 100.5 79.99 61.55 79.99 100.5 41.04"/><polygon class="cls-2" points="100.5 36.78 100.5 79.99 57.29 79.99 100.5 36.78"/><polygon class="cls-2" points="100.5 32.5 100.5 79.99 53.01 79.99 100.5 32.5"/><polygon class="cls-2" points="100.5 28.22 100.5 79.99 48.74 79.99 100.5 28.22"/><polygon class="cls-2" points="100.5 23.96 100.5 79.99 44.47 79.99 100.5 23.96"/><polygon class="cls-2" points="100.5 19.99 100.5 79.99 40.19 79.99 100.19 19.99 100.5 19.99"/><polygon class="cls-2" points="100.5 19.99 100.5 79.99 35.92 79.99 95.92 19.99 100.5 19.99"/><polygon class="cls-2" points="100.5 19.99 100.5 79.99 31.65 79.99 91.65 19.99 100.5 19.99"/><polygon class="cls-2" points="100.5 19.99 100.5 79.99 27.37 79.99 87.37 19.99 100.5 19.99"/><polygon class="cls-2" points="100.5 19.99 100.5 79.99 23.1 79.99 83.1 19.99 100.5 19.99"/><polygon class="cls-2" points="100.5 19.99 100.5 79.99 18.83 79.99 78.83 19.99 100.5 19.99"/><polygon class="cls-2" points="100.5 19.99 100.5 79.99 14.55 79.99 74.55 19.99 100.5 19.99"/><polygon class="cls-2" points="100.5 19.99 100.5 79.99 10.28 79.99 70.29 19.99 100.5 19.99"/><polygon class="cls-2" points="100.5 19.99 100.5 79.99 6.01 79.99 66.01 19.99 100.5 19.99"/><polygon class="cls-2" points="100.5 19.99 100.5 79.99 1.74 79.99 61.73 19.99 100.5 19.99"/><polygon class="cls-2" points="100.5 19.99 100.5 79.99 0.5 79.99 0.5 76.96 57.47 19.99 100.5 19.99"/><polygon class="cls-2" points="100.5 19.99 100.5 79.99 0.5 79.99 0.5 72.68 53.19 19.99 100.5 19.99"/><polygon class="cls-2" points="100.5 19.99 100.5 79.99 0.5 79.99 0.5 68.41 48.92 19.99 100.5 19.99"/><polygon class="cls-2" points="100.5 19.99 100.5 79.99 0.5 79.99 0.5 64.14 44.65 19.99 100.5 19.99"/><polygon class="cls-2" points="100.5 19.99 100.5 79.99 0.5 79.99 0.5 59.86 40.37 19.99 100.5 19.99"/><polygon class="cls-2" points="100.5 19.99 100.5 79.99 0.5 79.99 0.5 55.59 36.1 19.99 100.5 19.99"/><polygon class="cls-2" points="100.5 19.99 100.5 79.99 0.5 79.99 0.5 51.32 31.83 19.99 100.5 19.99"/><polygon class="cls-2" points="100.5 19.99 100.5 79.99 0.5 79.99 0.5 47.04 27.55 19.99 100.5 19.99"/><polygon class="cls-2" points="100.5 19.99 100.5 79.99 0.5 79.99 0.5 42.78 23.29 19.99 100.5 19.99"/><polygon class="cls-2" points="100.5 19.99 100.5 79.99 0.5 79.99 0.5 38.5 19.01 19.99 100.5 19.99"/><polygon class="cls-2" points="100.5 19.99 100.5 79.99 0.5 79.99 0.5 34.23 14.73 19.99 100.5 19.99"/><polygon class="cls-2" points="100.5 19.99 100.5 79.99 0.5 79.99 0.5 29.96 10.47 19.99 100.5 19.99"/><polygon class="cls-2" points="100.5 19.99 100.5 79.99 0.5 79.99 0.5 25.68 6.19 19.99 100.5 19.99"/><polygon class="cls-2" points="65.5 4.15 61.47 0.13 39.77 0.13 35.5 4.4 35.5 15.55 40.08 20.13 61.44 20.13 65.5 16.07 65.5 4.15"/></g></g></svg>