<svg xmlns="http://www.w3.org/2000/svg" viewBox="0 0 101 81.29"><defs><style>.cls-1,.cls-2{fill:none;stroke:#000;stroke-miterlimit:10;}.cls-2{stroke-width:0.25px;}</style></defs><title>Artboard5</title><g id="Layer_2" data-name="Layer 2"><g id="Layer_1-2" data-name="Layer 1"><rect class="cls-1" x="0.5" y="0.5" width="100" height="60"/><polygon class="cls-2" points="100.5 5.27 100.5 0.5 95.73 0.5 100.5 5.27"/><polygon class="cls-2" points="100.5 9.53 100.5 0.5 91.47 0.5 100.5 9.53"/><polygon class="cls-2" points="100.5 13.81 100.5 0.5 87.19 0.5 100.5 13.81"/><polygon class="cls-2" points="100.5 18.08 100.5 0.5 82.92 0.5 100.5 18.08"/><polygon class="cls-2" points="100.5 22.35 100.5 0.5 78.65 0.5 100.5 22.35"/><polygon class="cls-2" points="100.5 26.63 100.5 0.5 74.37 0.5 100.5 26.63"/><polygon class="cls-2" points="100.5 30.9 100.5 0.5 70.1 0.5 100.5 30.9"/><polygon class="cls-2" points="100.5 35.17 100.5 0.5 65.83 0.5 100.5 35.17"/><polygon class="cls-2" points="100.5 39.45 100.5 0.5 61.55 0.5 100.5 39.45"/><polygon class="cls-2" points="100.5 43.71 100.5 0.5 57.29 0.5 100.5 43.71"/><polygon class="cls-2" points="100.5 47.99 100.5 0.5 53.01 0.5 100.5 47.99"/><polygon class="cls-2" points="100.5 52.27 100.5 0.5 48.74 0.5 100.5 52.27"/><polygon class="cls-2" points="100.5 56.53 100.5 0.5 44.47 0.5 100.5 56.53"/><polygon class="cls-2" points="100.5 60.5 100.5 0.5 40.19 0.5 100.19 60.5 100.5 60.5"/><polygon class="cls-2" points="100.5 60.5 100.5 0.5 35.92 0.5 95.92 60.5 100.5 60.5"/><polygon class="cls-2" points="100.5 60.5 100.5 0.5 31.65 0.5 91.65 60.5 100.5 60.5"/><polygon class="cls-2" points="100.5 60.5 100.5 0.5 27.37 0.5 87.37 60.5 100.5 60.5"/><polygon class="cls-2" points="100.5 60.5 100.5 0.5 23.1 0.5 83.1 60.5 100.5 60.5"/><polygon class="cls-2" points="100.5 60.5 100.5 0.5 18.83 0.5 78.83 60.5 100.5 60.5"/><polygon class="cls-2" points="100.5 60.5 100.5 0.5 14.55 0.5 74.55 60.5 100.5 60.5"/><polygon class="cls-2" points="100.5 60.5 100.5 0.5 10.28 0.5 70.29 60.5 100.5 60.5"/><polygon class="cls-2" points="100.5 60.5 100.5 0.5 6.01 0.5 66.01 60.5 100.5 60.5"/><polygon class="cls-2" points="100.5 60.5 100.5 0.5 1.74 0.5 61.73 60.5 100.5 60.5"/><polygon class="cls-2" points="100.5 60.5 100.5 0.5 0.5 0.5 0.5 3.53 57.47 60.5 100.5 60.5"/><polygon class="cls-2" points="100.5 60.5 100.5 0.5 0.5 0.5 0.5 7.81 53.19 60.5 100.5 60.5"/><polygon class="cls-2" points="100.5 60.5 100.5 0.5 0.5 0.5 0.5 12.08 48.92 60.5 100.5 60.5"/><polygon class="cls-2" points="100.5 60.5 100.5 0.5 0.5 0.5 0.5 16.35 44.65 60.5 100.5 60.5"/><polygon class="cls-2" points="100.5 60.5 100.5 0.5 0.5 0.5 0.5 20.63 40.37 60.5 100.5 60.5"/><polygon class="cls-2" points="100.5 60.5 100.5 0.5 0.5 0.5 0.5 24.9 36.1 60.5 100.5 60.5"/><polygon class="cls-2" points="100.5 60.5 100.5 0.5 0.5 0.5 0.5 29.17 31.83 60.5 100.5 60.5"/><polygon class="cls-2" points="100.5 60.5 100.5 0.5 0.5 0.5 0.5 33.45 27.55 60.5 100.5 60.5"/><polygon class="cls-2" points="100.5 60.5 100.5 0.5 0.5 0.5 0.5 37.71 23.29 60.5 100.5 60.5"/><polygon class="cls-2" points="100.5 60.5 100.5 0.5 0.5 0.5 0.5 41.99 19.01 60.5 100.5 60.5"/><polygon class="cls-2" points="100.5 60.5 100.5 0.5 0.5 0.5 0.5 46.26 14.73 60.5 100.5 60.5"/><polygon class="cls-2" points="100.5 60.5 100.5 0.5 0.5 0.5 0.5 50.53 10.47 60.5 100.5 60.5"/><polygon class="cls-2" points="100.5 60.5 100.5 0.5 0.5 0.5 0.5 54.81 6.19 60.5 100.5 60.5"/><polygon class="cls-2" points="65.5 65.19 61.47 61.17 39.77 61.17 35.5 65.44 35.5 76.59 40.08 81.17 61.44 81.17 65.5 77.11 65.5 65.19"/></g></g></svg>