<svg xmlns="http://www.w3.org/2000/svg" viewBox="0 0 47.14 32.4"><defs><style>.cls-1{fill:none;stroke:#000;stroke-miterlimit:10;}</style></defs><title>Artboard3</title><g id="Layer_2" data-name="Layer 2"><g id="Layer_1-2" data-name="Layer 1"><rect class="cls-1" x="0.5" y="0.5" width="46.14" height="31.4"/><path class="cls-1" d="M46.64.5V31.9H9.07A46.18,46.18,0,0,1,12.5,20.61,47,47,0,0,1,29.66.5Z"/><path class="cls-1" d="M37.1,31.9H.5V.5H20a45.07,45.07,0,0,1,4.38,4,47.05,47.05,0,0,1,10.41,17A46.32,46.32,0,0,1,37.1,31.9Z"/><path class="cls-1" d="M46.64.5V17.43a47,47,0,0,1-11.87,4.09,47,47,0,0,1-9.25.91,47.4,47.4,0,0,1-13-1.82,46.56,46.56,0,0,1-12-5.39V.5Z"/></g></g></svg>