<svg xmlns="http://www.w3.org/2000/svg" viewBox="0 0 168 167"><title>Artboard1</title><g id="Layer_2" data-name="Layer 2"><g id="Layer_1-2" data-name="Layer 1"><path d="M50,68a48.57,48.57,0,0,1,25.68,7.27H60.35v33.39H98.29A49,49,0,1,1,37.82,69.54,48.52,48.52,0,0,1,50,68m0-1a49.46,49.46,0,0,0-12.43,1.57,50,50,0,1,0,61.55,39.09H61.35V76.27H79A49.73,49.73,0,0,0,50,67Z"/><path d="M84,1a49,49,0,0,1,24.49,91.44V75.27H60.35V92.92A49,49,0,0,1,84,1m0-1A50,50,0,0,0,61.35,94.58V76.27h46.14V94.14A50,50,0,0,0,84,0Z"/><path d="M118,68a49,49,0,0,1,49,49,49,49,0,1,1-97.29-8.34h38.78V75.27H92.32A48.57,48.57,0,0,1,118,68m0-1a49.73,49.73,0,0,0-29,9.27h18.48v31.39H68.88A50,50,0,1,0,118,67Z"/></g></g></svg>