<svg xmlns="http://www.w3.org/2000/svg" viewBox="0 0 100 120"><defs><style>.cls-1,.cls-3{fill:none;}.cls-1,.cls-2,.cls-3{stroke:#000;stroke-miterlimit:10;}.cls-3{stroke-width:0.25px;}</style></defs><title>Artboard7</title><g id="Layer_2" data-name="Layer 2"><g id="Layer_1-2" data-name="Layer 1"><path d="M91.59,1c.54,3.12,3.59,5.58,7.41,6v106.1c-3.82.37-6.87,2.83-7.41,6H8.41c-.54-3.12-3.59-5.58-7.41-6V7C4.82,6.58,7.87,4.12,8.41,1H91.59m.91-1H7.5C7.5,3.31,4.14,6,0,6V114c4.14,0,7.5,2.69,7.5,6h85c0-3.31,3.36-6,7.5-6V6c-4.14,0-7.5-2.69-7.5-6Z"/><polygon class="cls-1" points="5 87.33 5 32.67 50 5.33 95 32.67 95 87.33 50 114.67 5 87.33"/><ellipse class="cls-2" cx="51" cy="21.17" rx="12.5" ry="4.5"/><ellipse class="cls-2" cx="51" cy="98.53" rx="12.5" ry="4.5"/><line class="cls-1" x1="38.5" y1="21.17" x2="38.5" y2="98.53"/><line class="cls-1" x1="63.5" y1="21.17" x2="63.5" y2="98.53"/><circle class="cls-3" cx="78.59" cy="60" r="8"/><polygon class="cls-3" points="64.94 60 69.1 57.6 69.1 62.4 64.94 60"/><polygon class="cls-3" points="68.94 69.65 70.18 65.02 73.58 68.41 68.94 69.65"/><polygon class="cls-3" points="78.59 73.65 76.19 69.5 81 69.5 78.59 73.65"/><polygon class="cls-3" points="88.25 69.65 83.61 68.41 87.01 65.02 88.25 69.65"/><polygon class="cls-3" points="92.25 60 88.09 62.4 88.09 57.6 92.25 60"/><polygon class="cls-3" points="88.25 50.35 87.01 54.98 83.61 51.59 88.25 50.35"/><polygon class="cls-3" points="78.59 46.35 81 50.51 76.19 50.51 78.59 46.35"/><polygon class="cls-3" points="68.94 50.35 73.58 51.59 70.18 54.98 68.94 50.35"/><polygon points="23.6 65.93 26.98 65.95 21.7 75 16.5 65.9 19.87 65.92 19.87 61.87 15.8 61.87 15.79 65.24 6.74 59.96 15.83 54.76 15.82 58.13 19.87 58.13 19.87 54.08 16.27 54.1 21.46 45 26.74 54.05 23.6 54.06 23.6 58.13 27.65 58.13 27.64 55.02 36.73 60.22 27.68 65.5 27.67 61.87 23.6 61.87 23.6 65.93"/></g></g></svg>