<svg xmlns="http://www.w3.org/2000/svg" viewBox="0 0 113 133"><defs><style>.cls-1,.cls-3{fill:none;}.cls-1,.cls-2,.cls-3{stroke:#000;stroke-miterlimit:10;}.cls-3{stroke-width:0.25px;}</style></defs><title>Artboard3</title><g id="Layer_2" data-name="Layer 2"><g id="Layer_1-2" data-name="Layer 1"><polygon class="cls-1" points="11.5 39.17 11.5 93.83 56.5 121.17 101.5 93.83 101.5 39.17 56.5 11.83 11.5 39.17"/><ellipse class="cls-2" cx="49.52" cy="66.5" rx="2.52" ry="19.35"/><ellipse class="cls-2" cx="92.88" cy="66.5" rx="2.52" ry="19.35"/><line class="cls-1" x1="49.52" y1="47.15" x2="92.88" y2="47.15"/><line class="cls-1" x1="49.52" y1="85.85" x2="92.88" y2="85.85"/><circle class="cls-3" cx="29.5" cy="66.5" r="8"/><polygon class="cls-3" points="15.85 66.5 20 68.9 20 64.1 15.85 66.5"/><polygon class="cls-3" points="19.85 56.85 21.09 61.48 24.48 58.09 19.85 56.85"/><polygon class="cls-3" points="29.5 52.85 27.1 57.01 31.9 57.01 29.5 52.85"/><polygon class="cls-3" points="39.15 56.85 34.52 58.09 37.91 61.48 39.15 56.85"/><polygon class="cls-3" points="43.15 66.5 38.99 64.1 38.99 68.9 43.15 66.5"/><polygon class="cls-3" points="39.15 76.15 37.91 71.52 34.52 74.91 39.15 76.15"/><polygon class="cls-3" points="29.5 80.15 31.9 76 27.1 76 29.5 80.15"/><polygon class="cls-3" points="19.85 76.15 24.48 74.91 21.09 71.52 19.85 76.15"/><polygon points="73.06 60.57 76.44 60.55 71.16 51.5 65.96 60.6 69.34 60.58 69.34 64.64 65.27 64.64 65.25 61.26 56.2 66.54 65.3 71.74 65.28 68.36 69.34 68.36 69.34 72.42 65.73 72.4 70.93 81.5 76.21 72.45 73.06 72.44 73.06 68.36 77.12 68.36 77.1 71.48 86.2 66.28 77.15 61 77.13 64.64 73.06 64.64 73.06 60.57"/><path d="M105.5,7.5v118H7.5V7.5h98m1-1H6.5v120h100V6.5Z"/><circle class="cls-2" cx="6.5" cy="6.5" r="6"/><circle class="cls-2" cx="6.5" cy="126.5" r="6"/><circle class="cls-2" cx="106.5" cy="126.5" r="6"/><circle class="cls-2" cx="106.5" cy="6.5" r="6"/></g></g></svg>