<svg xmlns="http://www.w3.org/2000/svg" viewBox="0 0 100 120"><defs><style>.cls-1,.cls-4{fill:none;}.cls-1,.cls-2,.cls-3,.cls-4{stroke:#000;stroke-miterlimit:10;}.cls-3,.cls-4{stroke-width:0.25px;}</style></defs><title>Artboard6</title><g id="Layer_2" data-name="Layer 2"><g id="Layer_1-2" data-name="Layer 1"><path d="M91.59,1c.54,3.12,3.59,5.58,7.41,6v106.1c-3.82.37-6.87,2.83-7.41,6H8.41c-.54-3.12-3.59-5.58-7.41-6V7C4.82,6.58,7.87,4.12,8.41,1H91.59m.91-1H7.5C7.5,3.31,4.14,6,0,6V114c4.14,0,7.5,2.69,7.5,6h85c0-3.31,3.36-6,7.5-6V6c-4.14,0-7.5-2.69-7.5-6Z"/><polygon class="cls-1" points="95 87.33 95 32.67 50 5.33 5 32.67 5 87.33 50 114.67 95 87.33"/><ellipse class="cls-2" cx="49" cy="21.17" rx="12.5" ry="4.5"/><ellipse class="cls-2" cx="49" cy="98.53" rx="12.5" ry="4.5"/><line class="cls-1" x1="61.5" y1="21.17" x2="61.5" y2="98.53"/><line class="cls-1" x1="36.5" y1="21.17" x2="36.5" y2="98.53"/><circle class="cls-3" cx="21.41" cy="60" r="8"/><polygon class="cls-4" points="35.06 60 30.9 57.6 30.9 62.4 35.06 60"/><polygon class="cls-4" points="31.06 69.65 29.82 65.02 26.42 68.41 31.06 69.65"/><polygon class="cls-4" points="21.41 73.65 23.8 69.5 19 69.5 21.41 73.65"/><polygon class="cls-4" points="11.75 69.65 16.39 68.41 12.99 65.02 11.75 69.65"/><polygon class="cls-4" points="7.75 60 11.91 62.4 11.91 57.6 7.75 60"/><polygon class="cls-4" points="11.75 50.35 12.99 54.98 16.39 51.59 11.75 50.35"/><polygon class="cls-4" points="21.41 46.35 19 50.51 23.8 50.51 21.41 46.35"/><polygon class="cls-4" points="31.06 50.35 26.42 51.59 29.82 54.98 31.06 50.35"/><polygon points="76.4 65.93 73.02 65.95 78.3 75 83.5 65.9 80.13 65.92 80.13 61.87 84.2 61.87 84.21 65.24 93.27 59.96 84.17 54.76 84.18 58.13 80.13 58.13 80.13 54.08 83.73 54.1 78.53 45 73.26 54.05 76.4 54.06 76.4 58.13 72.35 58.13 72.36 55.02 63.27 60.22 72.32 65.5 72.33 61.87 76.4 61.87 76.4 65.93"/></g></g></svg>