<svg xmlns="http://www.w3.org/2000/svg" viewBox="0 0 133 113"><defs><style>.cls-1,.cls-3{fill:none;}.cls-1,.cls-2,.cls-3{stroke:#000;stroke-miterlimit:10;}.cls-3{stroke-width:0.25px;}</style></defs><title>Artboard2</title><g id="Layer_2" data-name="Layer 2"><g id="Layer_1-2" data-name="Layer 1"><polygon class="cls-1" points="93.83 11.5 39.17 11.5 11.83 56.5 39.17 101.5 93.83 101.5 121.17 56.5 93.83 11.5"/><ellipse class="cls-2" cx="66.5" cy="49.52" rx="19.35" ry="2.52"/><ellipse class="cls-2" cx="66.5" cy="92.88" rx="19.35" ry="2.52"/><line class="cls-1" x1="85.85" y1="49.52" x2="85.85" y2="92.88"/><line class="cls-1" x1="47.15" y1="49.52" x2="47.15" y2="92.88"/><circle class="cls-3" cx="66.5" cy="29.5" r="8"/><polygon class="cls-3" points="66.5 15.85 64.1 20 68.9 20 66.5 15.85"/><polygon class="cls-3" points="76.15 19.85 71.52 21.09 74.91 24.48 76.15 19.85"/><polygon class="cls-3" points="80.15 29.5 76 27.1 76 31.9 80.15 29.5"/><polygon class="cls-3" points="76.15 39.15 74.91 34.52 71.52 37.91 76.15 39.15"/><polygon class="cls-3" points="66.5 43.15 68.9 38.99 64.1 38.99 66.5 43.15"/><polygon class="cls-3" points="56.85 39.15 61.48 37.91 58.09 34.52 56.85 39.15"/><polygon class="cls-3" points="52.85 29.5 57.01 31.9 57.01 27.1 52.85 29.5"/><polygon class="cls-3" points="56.85 19.85 58.09 24.48 61.48 21.09 56.85 19.85"/><polygon points="72.43 73.06 72.45 76.44 81.5 71.16 72.4 65.96 72.42 69.34 68.36 69.34 68.36 65.27 71.74 65.25 66.46 56.2 61.26 65.3 64.64 65.28 64.64 69.34 60.58 69.34 60.6 65.73 51.5 70.93 60.55 76.21 60.56 73.06 64.64 73.06 64.64 77.12 61.52 77.1 66.72 86.2 72 77.15 68.36 77.13 68.36 73.06 72.43 73.06"/><path d="M125.5,7.5v98H7.5V7.5h118m1-1H6.5v100h120V6.5Z"/><circle class="cls-2" cx="126.5" cy="6.5" r="6"/><circle class="cls-2" cx="6.5" cy="6.5" r="6"/><circle class="cls-2" cx="6.5" cy="106.5" r="6"/><circle class="cls-2" cx="126.5" cy="106.5" r="6"/></g></g></svg>