<svg xmlns="http://www.w3.org/2000/svg" viewBox="0 0 120 100"><defs><style>.cls-1,.cls-3{fill:none;}.cls-1,.cls-2,.cls-3{stroke:#000;stroke-miterlimit:10;}.cls-3{stroke-width:0.25px;}</style></defs><title>Artboard1</title><g id="Layer_2" data-name="Layer 2"><g id="Layer_1-2" data-name="Layer 1"><path d="M113.05,1c.37,3.82,2.83,6.87,6,7.41V91.59c-3.12.54-5.58,3.59-6,7.41H7C6.58,95.18,4.12,92.13,1,91.59V8.41C4.12,7.87,6.58,4.82,7,1h106.1m1-1H6C6,4.14,3.31,7.5,0,7.5v85c3.31,0,6,3.36,6,7.5H114c0-4.14,2.69-7.5,6-7.5V7.5c-3.31,0-6-3.36-6-7.5Z"/><polygon class="cls-1" points="87.33 5 32.67 5 5.33 50 32.67 95 87.33 95 114.67 50 87.33 5"/><ellipse class="cls-2" cx="21.17" cy="50" rx="4.5" ry="12.5"/><ellipse class="cls-2" cx="98.53" cy="50" rx="4.5" ry="12.5"/><line class="cls-1" x1="21.17" y1="37.5" x2="98.53" y2="37.5"/><line class="cls-1" x1="21.17" y1="62.5" x2="98.53" y2="62.5"/><circle class="cls-3" cx="60" cy="78.59" r="8"/><polygon class="cls-3" points="60 64.94 57.6 69.1 62.4 69.1 60 64.94"/><polygon class="cls-3" points="69.65 68.94 65.02 70.18 68.41 73.58 69.65 68.94"/><polygon class="cls-3" points="73.65 78.59 69.5 76.19 69.5 81 73.65 78.59"/><polygon class="cls-3" points="69.65 88.25 68.41 83.61 65.02 87.01 69.65 88.25"/><polygon class="cls-3" points="60 92.25 62.4 88.09 57.6 88.09 60 92.25"/><polygon class="cls-3" points="50.35 88.25 54.98 87.01 51.59 83.61 50.35 88.25"/><polygon class="cls-3" points="46.35 78.59 50.51 81 50.51 76.19 46.35 78.59"/><polygon class="cls-3" points="50.35 68.94 51.59 73.58 54.98 70.18 50.35 68.94"/><polygon points="65.93 22.6 65.95 25.98 75 20.7 65.9 15.5 65.92 18.87 61.87 18.87 61.87 14.8 65.24 14.79 59.96 5.74 54.76 14.83 58.13 14.82 58.13 18.87 54.08 18.87 54.1 15.27 45 20.46 54.05 25.74 54.06 22.6 58.13 22.6 58.13 26.65 55.02 26.64 60.22 35.73 65.5 26.68 61.87 26.67 61.87 22.6 65.93 22.6"/></g></g></svg>