<svg xmlns="http://www.w3.org/2000/svg" viewBox="0 0 100 120"><defs><style>.cls-1,.cls-3{fill:none;}.cls-1,.cls-2,.cls-3{stroke:#000;stroke-miterlimit:10;}.cls-3{stroke-width:0.25px;}</style></defs><title>Artboard5</title><g id="Layer_2" data-name="Layer 2"><g id="Layer_1-2" data-name="Layer 1"><path d="M91.59,1c.54,3.12,3.59,5.58,7.41,6v106.1c-3.82.37-6.87,2.83-7.41,6H8.41c-.54-3.12-3.59-5.58-7.41-6V7C4.82,6.58,7.87,4.12,8.41,1H91.59m.91-1H7.5C7.5,3.31,4.14,6,0,6V114c4.14,0,7.5,2.69,7.5,6h85c0-3.31,3.36-6,7.5-6V6c-4.14,0-7.5-2.69-7.5-6Z"/><polygon class="cls-1" points="95 87.33 95 32.67 50 5.33 5 32.67 5 87.33 50 114.67 95 87.33"/><ellipse class="cls-2" cx="49" cy="21.17" rx="12.5" ry="4.5"/><ellipse class="cls-2" cx="49" cy="98.53" rx="12.5" ry="4.5"/><line class="cls-1" x1="61.5" y1="21.17" x2="61.5" y2="98.53"/><line class="cls-1" x1="36.5" y1="21.17" x2="36.5" y2="98.53"/><circle class="cls-3" cx="21.41" cy="60" r="8"/><polygon class="cls-3" points="35.06 60 30.9 57.6 30.9 62.4 35.06 60"/><polygon class="cls-3" points="31.06 69.65 29.82 65.02 26.42 68.41 31.06 69.65"/><polygon class="cls-3" points="21.41 73.65 23.8 69.5 19 69.5 21.41 73.65"/><polygon class="cls-3" points="11.75 69.65 16.39 68.41 12.99 65.02 11.75 69.65"/><polygon class="cls-3" points="7.75 60 11.91 62.4 11.91 57.6 7.75 60"/><polygon class="cls-3" points="11.75 50.35 12.99 54.98 16.39 51.59 11.75 50.35"/><polygon class="cls-3" points="21.41 46.35 19 50.51 23.8 50.51 21.41 46.35"/><polygon class="cls-3" points="31.06 50.35 26.42 51.59 29.82 54.98 31.06 50.35"/><circle class="cls-3" cx="78.21" cy="59.85" r="8"/><polygon class="cls-3" points="91.86 59.85 87.7 57.45 87.7 62.25 91.86 59.85"/><polygon class="cls-3" points="87.86 69.5 86.62 64.86 83.23 68.26 87.86 69.5"/><polygon class="cls-3" points="78.21 73.5 80.61 69.34 75.81 69.34 78.21 73.5"/><polygon class="cls-3" points="68.56 69.5 73.19 68.26 69.8 64.86 68.56 69.5"/><polygon class="cls-3" points="64.56 59.85 68.72 62.25 68.72 57.45 64.56 59.85"/><polygon class="cls-3" points="68.56 50.2 69.8 54.83 73.19 51.44 68.56 50.2"/><polygon class="cls-3" points="78.21 46.2 75.81 50.35 80.61 50.35 78.21 46.2"/><polygon class="cls-3" points="87.86 50.2 83.23 51.44 86.62 54.83 87.86 50.2"/></g></g></svg>