<svg id="Layer_1" data-name="Layer 1" xmlns="http://www.w3.org/2000/svg" viewBox="0 0 112 200"><title>Artboard 4</title><path d="M56,142.05l45.76,25.78L56,192.46,10.24,167.83,56,142.05m0-4.59L1.94,167.92,56,197l54.06-29.08L56,137.46Z"/><path d="M56,64.62c13.68,0,24.81,15.44,24.81,34.42S69.68,133.46,56,133.46,31.19,118,31.19,99,42.32,64.62,56,64.62m0-4c-15.91,0-28.81,17.2-28.81,38.42S40.09,137.46,56,137.46,84.81,120.26,84.81,99,71.91,60.62,56,60.62Z"/><path d="M80.81,7V56.62H31.19V7H80.81m4-4H27.19V60.62H84.81V3Z"/></svg>