<svg id="Layer_1" data-name="Layer 1" xmlns="http://www.w3.org/2000/svg" viewBox="0 0 200 200"><title>Artboard 4</title><path d="M100,119.79l27.62,15.56L100,150.22,72.38,135.35,100,119.79m0-.29L71.86,135.36,100,150.5l28.14-15.14L100,119.5Z"/><path d="M100,79.75c8.13,0,14.75,8.86,14.75,19.75s-6.62,19.75-14.75,19.75S85.25,110.39,85.25,99.5,91.87,79.75,100,79.75m0-.25c-8.28,0-15,9-15,20s6.72,20,15,20,15-9,15-20-6.72-20-15-20Z"/><path d="M114.75,49.75v29.5H85.25V49.75h29.5m.25-.25H85v30h30v-30Z"/></svg>