<svg id="Layer_1" data-name="Layer 1" xmlns="http://www.w3.org/2000/svg" viewBox="0 0 95 200"><title>Artboard 7</title><path d="M48.08,78l31.47,55.84L48.08,189.71,18,133.86,48.08,78M48,69.72,13.49,133.86,48,198l36.14-64.14L48,69.72Z"/><path d="M48,6C70.93,6,89.58,19.54,89.58,36.19S70.93,66.37,48,66.37,6.42,52.83,6.42,36.19,25.07,6,48,6m0-4C22.83,2,2.42,17.31,2.42,36.19S22.83,70.37,48,70.37s45.58-15.3,45.58-34.18S73.17,2,48,2Z"/><path d="M71.35,17.4V55H24.65V17.4h46.7m4-4H20.65V59h54.7V13.4Z"/></svg>