<svg id="Layer_1" data-name="Layer 1" xmlns="http://www.w3.org/2000/svg" viewBox="0 0 114 200"><title>Artboard 5</title><path d="M57,142.05l45.76,25.78L57,192.46,11.24,167.83,57,142.05m0-4.59L2.94,167.92,57,197l54.06-29.08L57,137.46Z"/><path d="M57,7C70.68,7,81.81,22.44,81.81,41.42S70.68,75.83,57,75.83,32.19,60.39,32.19,41.42,43.32,7,57,7m0-4C41.09,3,28.19,20.2,28.19,41.42S41.09,79.83,57,79.83s28.81-17.2,28.81-38.41S72.91,3,57,3Z"/><path d="M81.81,83.83v49.63H32.19V83.83H81.81m4-4H28.19v57.63H85.81V79.83Z"/></svg>