<svg id="Layer_1" data-name="Layer 1" xmlns="http://www.w3.org/2000/svg" viewBox="0 0 200 200"><title>Artboard 2</title><path d="M100,92.73l10.21,18.13L100,129l-9.76-18.12L100,92.73m0-.51L90,110.86l10,18.64,10.5-18.64L100,92.22Z"/><path d="M100,85.75c17.87,0,32.42,10.88,32.42,24.25S117.87,134.25,100,134.25,67.58,123.37,67.58,110,82.13,85.75,100,85.75m0-.25c-18,0-32.67,11-32.67,24.5S82,134.5,100,134.5s32.67-11,32.67-24.5S118,85.5,100,85.5Z"/><path d="M100,65.75c8.13,0,14.75,4.37,14.75,9.75s-6.62,9.75-14.75,9.75S85.25,80.88,85.25,75.5s6.62-9.75,14.75-9.75m0-.25c-8.28,0-15,4.48-15,10s6.72,10,15,10,15-4.48,15-10-6.72-10-15-10Z"/></svg>