<svg id="Layer_1" data-name="Layer 1" xmlns="http://www.w3.org/2000/svg" viewBox="0 0 200 200"><title>Artboard 1</title><path d="M100,54.79l27.62,15.56L100,85.22,72.38,70.35,100,54.79m0-.29L71.86,70.36,100,85.5l28.14-15.14L100,54.5Z"/><path d="M100,85.75c10.89,0,19.75,6.62,19.75,14.75s-8.86,14.75-19.75,14.75-19.75-6.62-19.75-14.75S89.11,85.75,100,85.75m0-.25c-11,0-20,6.72-20,15s9,15,20,15,20-6.72,20-15-9-15-20-15Z"/><path d="M100,115.75c5.38,0,9.75,6.62,9.75,14.75s-4.37,14.75-9.75,14.75-9.75-6.62-9.75-14.75,4.37-14.75,9.75-14.75m0-.25c-5.52,0-10,6.72-10,15s4.48,15,10,15,10-6.72,10-15-4.48-15-10-15Z"/></svg>