<svg id="Layer_1" data-name="Layer 1" xmlns="http://www.w3.org/2000/svg" viewBox="0 0 106 200"><title>Artboard 3</title><path d="M54.58,11.29,81.7,59.41,54.58,107.53,28.69,59.41,54.58,11.29M54.5,3,24.15,59.41,54.5,115.82,86.29,59.41,54.5,3Z"/><path d="M53,130.84c19.9,0,36.09,11.7,36.09,26.07S72.9,183,53,183s-36.09-11.7-36.09-26.07S33.1,130.84,53,130.84m0-4c-22.14,0-40.09,13.47-40.09,30.07S30.86,187,53,187s40.09-13.46,40.09-30.07-18-30.07-40.09-30.07Z"/><path d="M99.11,120.82V193H6.89V120.82H99.11m4-4H2.89V197H103.11V116.82Z"/></svg>