<svg id="Layer_1" data-name="Layer 1" xmlns="http://www.w3.org/2000/svg" viewBox="0 0 200 200"><title>Artboard 5</title><path d="M100,119.79l27.62,15.56L100,150.22,72.38,135.35,100,119.79m0-.29L71.86,135.36,100,150.5l28.14-15.14L100,119.5Z"/><path d="M100,49.75c8.13,0,14.75,8.86,14.75,19.75S108.13,89.25,100,89.25,85.25,80.39,85.25,69.5,91.87,49.75,100,49.75m0-.25c-8.28,0-15,9-15,20s6.72,20,15,20,15-9,15-20-6.72-20-15-20Z"/><path d="M114.75,89.75v29.5H85.25V89.75h29.5m.25-.25H85v30h30v-30Z"/></svg>