<svg id="Layer_1" data-name="Layer 1" xmlns="http://www.w3.org/2000/svg" viewBox="0 0 122 200"><title>Artboard 1</title><path d="M61,7.59l51.7,29.14L61,64.55,9.3,36.73,61,7.59M61,3,1,36.81,61,69.09l60-32.28L61,3Z"/><path d="M61,73.09c21.3,0,38.64,12.55,38.64,28S82.3,129,61,129s-38.64-12.55-38.64-28,17.34-28,38.64-28m0-4c-23.55,0-42.64,14.31-42.64,32S37.45,133,61,133s42.64-14.31,42.64-32-19.09-32-42.64-32Z"/><path d="M61,137c9.39,0,17.32,12.82,17.32,28S70.39,193,61,193s-17.32-12.81-17.32-28S51.61,137,61,137m0-4c-11.77,0-21.32,14.32-21.32,32S49.23,197,61,197s21.32-14.32,21.32-32S72.77,133,61,133Z"/></svg>