<svg id="Layer_1" data-name="Layer 1" xmlns="http://www.w3.org/2000/svg" viewBox="0 0 188 200"><title>Artboard 2</title><path d="M94.08,86.37,119,130.58,94.08,174.79,70.29,130.58,94.08,86.37M94,78.08l-28.25,52.5L94,183.08l29.58-52.5L94,78.08Z"/><path d="M94,63.16c48.52,0,88,29.16,88,65s-39.48,65-88,65S6,164,6,128.16s39.48-65,88-65m0-4c-50.81,0-92,30.9-92,69s41.19,69,92,69,92-30.89,92-69-41.19-69-92-69Z"/><path d="M94,6.84c10.5,0,20.32,2.69,27.65,7.57C128.48,19,132.24,24.86,132.24,31s-3.76,12-10.59,16.59c-7.33,4.88-17.15,7.57-27.65,7.57s-20.32-2.69-27.65-7.57C59.52,43,55.76,37.14,55.76,31s3.76-12,10.59-16.59C73.68,9.53,83.5,6.84,94,6.84m0-4C70.67,2.84,51.76,15.45,51.76,31S70.67,59.16,94,59.16,136.24,46.55,136.24,31,117.33,2.84,94,2.84Z"/></svg>