<svg id="Layer_1" data-name="Layer 1" xmlns="http://www.w3.org/2000/svg" viewBox="0 0 200 200"><title>Artboard 3</title><path d="M100.76,52.13l15.56,27.62-15.56,27.62L85.89,79.75l14.87-27.62m0-.52L85.61,79.75l15.14,28.14,15.86-28.14L100.75,51.61Z"/><path d="M100,113.64c10.89,0,19.75,6.62,19.75,14.75s-8.86,14.75-19.75,14.75-19.75-6.61-19.75-14.75,8.86-14.75,19.75-14.75m0-.25c-11,0-20,6.72-20,15s9,15,20,15,20-6.71,20-15-9-15-20-15Z"/><path d="M124.75,108.64v39.5H75.25v-39.5h49.5m.25-.25H75v40h50v-40Z"/></svg>