<svg id="Layer_1" data-name="Layer 1" xmlns="http://www.w3.org/2000/svg" viewBox="0 0 200 100.33"><defs><style>.cls-1{fill:none;stroke:#000;stroke-miterlimit:10;stroke-width:3px;}</style></defs><title>Artboard5</title><path d="M194.33,18.37V82l-54.4-9.35V28.57l54.4-10.2m3-3.62-60.4,11.33V75.15l60.4,10.38V14.75Z"/><path d="M70,4.61c35.44,0,64.28,20.21,64.28,45.06S105.39,94.73,70,94.73,5.67,74.51,5.67,49.67,34.5,4.61,70,4.61m0-3C32.79,1.61,2.67,23.12,2.67,49.67S32.79,97.73,70,97.73s67.28-21.52,67.28-48.06S107.11,1.61,70,1.61Z"/><polygon class="cls-1" points="100.31 75.39 69.95 23.94 39.59 75.39 100.31 75.39"/></svg>