<svg id="Layer_1" data-name="Layer 1" xmlns="http://www.w3.org/2000/svg" viewBox="0 0 200 200"><defs><style>.cls-1{fill:none;stroke:#000;stroke-miterlimit:10;stroke-width:0.25px;}</style></defs><title>Artboard 2</title><path d="M149.79,43.21l18.91,99.54H34.29L50.21,43.21h99.58M150,43H50L34,143H169L150,43Z"/><path d="M56.51,47.39v.25a5.94,5.94,0,0,1,5.08,3.52,2.39,2.39,0,0,1-.12,2.26,2.33,2.33,0,0,1-2,.87,5.94,5.94,0,0,1-5.08-3.52,2.39,2.39,0,0,1,.12-2.26,2.33,2.33,0,0,1,2-.87v-.25m0,0a2.56,2.56,0,0,0-2.18,1c-1,1.36-.09,3.62,1.94,5a5.7,5.7,0,0,0,3.22,1.13,2.59,2.59,0,0,0,2.18-1c1-1.36.09-3.62-1.94-5a5.7,5.7,0,0,0-3.22-1.13Z"/><polygon class="cls-1" points="107.07 149.96 100 142.89 92.93 149.96 107.07 149.96"/></svg>