<svg id="Layer_1" data-name="Layer 1" xmlns="http://www.w3.org/2000/svg" viewBox="0 0 200 200"><defs><style>.cls-1{fill:none;stroke:#000;stroke-miterlimit:10;stroke-width:0.25px;}</style></defs><title>Artboard 4</title><path d="M100.79,66.25l11.91,63.5H38.3l10.91-63.5h51.58M101,66H49L38,130h75L101,66Z"/><path d="M75,30.25c27.43,0,49.75,31.29,49.75,69.75S102.43,169.75,75,169.75,25.25,138.46,25.25,100,47.57,30.25,75,30.25M75,30c-27.61,0-50,31.34-50,70s22.39,70,50,70,50-31.34,50-70S102.61,30,75,30Z"/><polygon class="cls-1" points="178 68.21 124.46 99.79 178 131.38 178 68.21"/></svg>