<svg id="Layer_1" data-name="Layer 1" xmlns="http://www.w3.org/2000/svg" viewBox="0 0 101.67 200"><defs><style>.cls-1{fill:none;stroke:#000;stroke-miterlimit:10;stroke-width:3px;}</style></defs><title>Artboard6</title><path d="M85.13,6,95.28,60.1H7.34L16.63,6h68.5m2.49-3H14.11L3.78,63.1H98.89L87.62,3Z"/><path d="M51.33,66.1c24.72,0,44.82,28.69,44.82,64S76.05,194,51.33,194,6.51,165.31,6.51,130.05s20.11-64,44.82-64m0-3c-26.41,0-47.82,30-47.82,67S24.92,197,51.33,197s47.82-30,47.82-66.95-21.41-67-47.82-67Z"/><polygon class="cls-1" points="50.48 81.88 3.51 135.95 50.48 190.03 99.15 135.95 50.48 81.88"/></svg>