<svg id="Layer_1" data-name="Layer 1" xmlns="http://www.w3.org/2000/svg" viewBox="0 0 200 97.67"><title>Artboard 7</title><path d="M156.86,28.92c19.95,0,36.81,9,36.81,19.75s-16.86,19.74-36.81,19.74-36.8-9-36.8-19.74,16.85-19.75,36.8-19.75m0-3c-22,0-39.8,10.18-39.8,22.75s17.82,22.74,39.8,22.74,39.81-10.18,39.81-22.74-17.82-22.75-39.81-22.75Z"/><path d="M60.2,6.18c29.7,0,53.86,19.06,53.86,42.49S89.9,91.16,60.2,91.16,6.33,72.1,6.33,48.67,30.5,6.18,60.2,6.18m0-3C28.79,3.18,3.33,23.54,3.33,48.67S28.79,94.16,60.2,94.16s56.86-20.37,56.86-45.49S91.6,3.18,60.2,3.18Z"/><path d="M60.2,20.55,84.55,62.73H35.85L60.2,20.55m0-6L30.65,65.73H89.74L60.2,14.55Z"/></svg>