<svg id="Layer_1" data-name="Layer 1" xmlns="http://www.w3.org/2000/svg" viewBox="0 0 200 181.33"><defs><style>.cls-1{fill:none;stroke:#000;stroke-miterlimit:10;stroke-width:3px;}</style></defs><title>Artboard4</title><path d="M96.88,51.37l14,74.87H23.32L36.19,51.37H96.88m2.49-3H33.66l-13.9,80.87h94.77L99.37,48.37Z"/><path d="M66.51,5.88c33.19,0,60.18,38.33,60.18,85.45s-27,85.46-60.18,85.46S6.33,138.45,6.33,91.33s27-85.45,60.18-85.45m0-3c-34.89,0-63.18,39.6-63.18,88.45s28.29,88.46,63.18,88.46,63.18-39.61,63.18-88.46S101.41,2.88,66.51,2.88Z"/><polygon class="cls-1" points="196.67 51.16 129.02 91.07 196.67 130.98 196.67 51.16"/></svg>