<svg id="Layer_1" data-name="Layer 1" xmlns="http://www.w3.org/2000/svg" viewBox="0 0 200 200"><title>Artboard 7</title><path d="M150,80.25c19.16,0,34.75,8.86,34.75,19.75S169.16,119.75,150,119.75s-34.75-8.86-34.75-19.75S130.84,80.25,150,80.25m0-.25c-19.33,0-35,9-35,20s15.67,20,35,20,35-9,35-20-15.67-20-35-20Z"/><path d="M65,60.25c27.43,0,49.75,17.83,49.75,39.75S92.43,139.75,65,139.75,15.25,121.92,15.25,100,37.57,60.25,65,60.25M65,60c-27.61,0-50,17.91-50,40s22.39,40,50,40,50-17.91,50-40S92.61,60,65,60Z"/><path d="M65,70.5l25.55,44.25H39.45L65,70.5m0-.5L39,115H91L65,70Z"/></svg>