<svg id="Layer_1" data-name="Layer 1" xmlns="http://www.w3.org/2000/svg" viewBox="0 0 200 161.33"><defs><style>.cls-1{fill:none;stroke:#000;stroke-miterlimit:10;stroke-width:3px;}</style></defs><title>Artboard 2</title><path d="M168.11,7.58,194,144.1H8.85L30.69,7.58H168.11m2.49-3H28.13L5.33,147.1H197.67L170.6,4.58Z"/><path d="M37.41,13.89h0a5.31,5.31,0,0,1,2.85,1c1.75,1.25,2.15,2.73,2.06,3a1.21,1.21,0,0,1-.68.13,5.25,5.25,0,0,1-2.85-1c-1.75-1.24-2.15-2.72-2.06-3a1.21,1.21,0,0,1,.68-.13m0-3a3.66,3.66,0,0,0-3.12,1.38c-1.36,1.93-.12,5.15,2.77,7.19a8.1,8.1,0,0,0,4.58,1.6,3.69,3.69,0,0,0,3.12-1.38c1.36-1.93.13-5.15-2.76-7.19a8.15,8.15,0,0,0-4.59-1.6Z"/><polygon class="cls-1" points="109.44 157.02 99.36 146.94 89.29 157.02 109.44 157.02"/></svg>