<svg id="Layer_1" data-name="Layer 1" xmlns="http://www.w3.org/2000/svg" viewBox="0 0 200 200"><defs><style>.cls-1{fill:none;stroke:#000;stroke-miterlimit:10;stroke-width:0.25px;}</style></defs><title>Artboard 6</title><path d="M133.61,15.12,144,70.62H56l9.54-55.5h68.09m.2-.25H65.31l-9.62,56h88.62l-10.5-56Z"/><path d="M100,71.12c24.43,0,44.31,27.88,44.31,62.13S124.43,195.39,100,195.39s-44.31-27.88-44.31-62.14S75.57,71.12,100,71.12m0-.25c-24.61,0-44.56,27.93-44.56,62.38s20,62.39,44.56,62.39,44.56-27.93,44.56-62.39-20-62.38-44.56-62.38Z"/><polygon class="cls-1" points="99.21 88.37 55.44 138.75 99.21 189.14 144.56 138.75 99.21 88.37"/></svg>