<svg id="Layer_1" data-name="Layer 1" xmlns="http://www.w3.org/2000/svg" viewBox="0 0 200 161.33"><defs><style>.cls-1{fill:none;stroke:#000;stroke-miterlimit:10;stroke-width:3px;}</style></defs><title>Artboard2</title><path d="M168.11,7.58,194,144.1H8.85L30.69,7.58H168.11m2.49-3H28.13L5.33,147.1H197.67L170.6,4.58Z"/><path d="M43.66,18.51h0c4.48,0,13,5.08,19,13.29,3.92,5.38,4.89,9.7,4.13,11.44-.11.25-.32.73-1.46.86a5.35,5.35,0,0,1-.58,0c-4.48,0-13-5.08-19-13.28-3.92-5.39-4.89-9.71-4.13-11.44.11-.26.32-.73,1.46-.86a5.28,5.28,0,0,1,.58,0m0-3a7.3,7.3,0,0,0-.94.06c-6,.71-5.73,8.34.61,17,6,8.27,15.34,14.52,21.41,14.52a7.3,7.3,0,0,0,.94-.05c6-.71,5.73-8.34-.61-17-6-8.26-15.34-14.52-21.41-14.52Z"/><polygon class="cls-1" points="109.44 157.02 99.36 146.94 89.29 157.02 109.44 157.02"/></svg>