<svg id="Layer_1" data-name="Layer 1" xmlns="http://www.w3.org/2000/svg" viewBox="0 0 200 200"><defs><style>.cls-1{fill:none;stroke:#000;stroke-miterlimit:10;stroke-width:0.25px;}</style></defs><title>Artboard 5</title><path d="M190,67.93v65l-55.5-9.54V78.34L190,67.93m.25-.3-56,10.5v45.5l56,9.62V67.63Z"/><path d="M72.14,55.69c34.26,0,62.13,19.88,62.13,44.31s-27.87,44.31-62.13,44.31S10,124.43,10,100,37.88,55.69,72.14,55.69m0-.25c-34.45,0-62.38,20-62.38,44.56s27.93,44.56,62.38,44.56,62.38-20,62.38-44.56S106.59,55.44,72.14,55.44Z"/><polygon class="cls-1" points="100.28 123.85 72.14 76.15 43.99 123.85 100.28 123.85"/></svg>