<svg xmlns="http://www.w3.org/2000/svg" viewBox="0 0 121 81"><defs><style>.cls-1,.cls-2{fill:none;stroke:#000;stroke-linejoin:round;}.cls-2{stroke-width:0.5px;}</style></defs><title>Artboard1</title><g id="Layer_2" data-name="Layer 2"><g id="Layer_1-2" data-name="Layer 1"><polygon class="cls-1" points="38.58 0.5 0.5 38.59 0.5 48.11 48.11 0.5 38.58 0.5"/><polygon class="cls-1" points="29.06 0.5 0.5 29.07 0.5 38.59 38.58 0.5 29.06 0.5"/><polygon class="cls-1" points="90.5 20.5 90.5 24.76 114.76 0.5 105.24 0.5 85.24 20.5 90.5 20.5"/><polygon class="cls-1" points="66.19 20.5 86.19 0.5 76.67 0.5 56.67 20.5 66.19 20.5"/><polygon class="cls-1" points="85.24 20.5 105.24 0.5 95.72 0.5 75.72 20.5 85.24 20.5"/><polygon class="cls-1" points="56.67 20.5 76.67 0.5 67.15 0.5 47.15 20.5 56.67 20.5"/><polygon class="cls-1" points="75.72 20.5 95.72 0.5 86.19 0.5 66.19 20.5 75.72 20.5"/><polygon class="cls-1" points="19.54 0.5 0.5 19.55 0.5 29.07 29.06 0.5 19.54 0.5"/><polygon class="cls-1" points="10.02 0.5 0.5 10.03 0.5 19.55 19.54 0.5 10.02 0.5"/><polygon class="cls-1" points="98.43 73.96 107.95 73.96 101.41 80.5 91.89 80.5 98.43 73.96"/><polygon class="cls-1" points="120.5 51.89 120.5 61.41 111.89 70.02 111.89 60.5 120.5 51.89"/><polygon class="cls-1" points="120.5 80.5 120.5 70.93 110.93 80.5 120.5 80.5"/><polygon class="cls-1" points="120.5 61.41 120.5 70.93 110.93 80.5 101.41 80.5 107.95 73.96 111.89 73.96 111.89 70.02 120.5 61.41"/><polygon class="cls-1" points="0.5 0.5 0.5 10.03 10.02 0.5 0.5 0.5"/><polygon class="cls-1" points="79.39 73.96 88.91 73.96 82.37 80.5 72.85 80.5 79.39 73.96"/><polygon class="cls-1" points="120.5 32.85 120.5 42.37 111.89 50.98 111.89 43.96 109.39 43.96 120.5 32.85"/><polygon class="cls-1" points="88.91 73.96 98.43 73.96 91.89 80.5 82.37 80.5 88.91 73.96"/><polygon class="cls-1" points="120.5 42.37 120.5 51.89 111.89 60.5 111.89 50.98 120.5 42.37"/><polygon class="cls-1" points="71.89 60.5 71.89 62.41 53.8 80.5 44.28 80.5 64.28 60.5 71.89 60.5"/><polygon class="cls-1" points="54.76 60.5 34.76 80.5 44.28 80.5 64.28 60.5 54.76 60.5"/><polygon class="cls-1" points="71.89 73.96 79.39 73.96 72.85 80.5 63.32 80.5 71.89 71.93 71.89 73.96"/><polygon class="cls-1" points="120.5 23.32 120.5 32.85 109.39 43.96 99.86 43.96 120.5 23.32"/><polygon class="cls-1" points="71.89 62.41 71.89 71.93 63.32 80.5 53.8 80.5 71.89 62.41"/><polygon class="cls-1" points="47.15 20.5 67.15 0.5 57.63 0.5 37.63 20.5 47.15 20.5"/><polygon class="cls-1" points="30.5 46.68 0.5 76.68 0.5 80.5 6.19 80.5 30.5 56.19 30.5 46.68"/><polygon class="cls-1" points="30.5 60.5 30.5 56.19 6.19 80.5 15.71 80.5 35.71 60.5 30.5 60.5"/><polygon class="cls-1" points="35.71 60.5 15.71 80.5 25.24 80.5 45.24 60.5 35.71 60.5"/><polygon class="cls-1" points="45.24 60.5 25.24 80.5 34.76 80.5 54.76 60.5 45.24 60.5"/><polygon class="cls-1" points="30.5 37.16 0.5 67.16 0.5 76.68 30.5 46.68 30.5 37.16"/><polygon class="cls-1" points="30.5 27.64 0.5 57.64 0.5 67.16 30.5 37.16 30.5 27.64"/><polygon class="cls-1" points="120.5 13.8 120.5 23.32 99.86 43.96 90.5 43.96 90.5 43.8 120.5 13.8"/><polygon class="cls-1" points="30.5 20.5 37.63 20.5 57.63 0.5 48.11 0.5 0.5 48.11 0.5 57.64 30.5 27.64 30.5 20.5"/><polygon class="cls-1" points="114.76 0.5 90.5 24.76 90.5 34.28 120.5 4.28 120.5 0.5 114.76 0.5"/><polygon class="cls-1" points="90.5 43.8 120.5 13.8 120.5 4.28 90.5 34.28 90.5 43.8"/><polygon class="cls-1" points="90.5 20.5 90.5 43.96 71.89 43.96 71.89 60.5 30.5 60.5 30.5 20.5 90.5 20.5"/><line class="cls-2" x1="38.19" y1="60.5" x2="30.5" y2="52.82"/><line class="cls-2" x1="45.88" y1="60.5" x2="30.5" y2="45.12"/><line class="cls-2" x1="53.57" y1="60.5" x2="30.5" y2="37.43"/><line class="cls-2" x1="61.26" y1="60.5" x2="30.5" y2="29.73"/><line class="cls-2" x1="68.96" y1="60.5" x2="30.5" y2="22.04"/><line class="cls-2" x1="71.89" y1="55.75" x2="36.65" y2="20.5"/><line class="cls-2" x1="71.89" y1="48.05" x2="44.35" y2="20.5"/><line class="cls-2" x1="75.5" y1="43.96" x2="52.03" y2="20.5"/><line class="cls-2" x1="83.19" y1="43.96" x2="59.73" y2="20.5"/><line class="cls-2" x1="90.5" y1="43.58" x2="67.42" y2="20.5"/><line class="cls-2" x1="90.5" y1="35.89" x2="75.11" y2="20.5"/><line class="cls-2" x1="90.5" y1="28.19" x2="82.81" y2="20.5"/></g></g></svg>