<svg xmlns="http://www.w3.org/2000/svg" viewBox="0 0 41 31"><defs><style>.cls-1,.cls-2{fill:none;stroke:#000;stroke-linejoin:round;}.cls-2{stroke-width:0.5px;}</style></defs><title>Artboard5</title><g id="Layer_2" data-name="Layer 2"><g id="Layer_1-2" data-name="Layer 1"><rect class="cls-1" x="0.5" y="0.5" width="20" height="15"/><line class="cls-2" x1="6.34" y1="0.5" x2="0.5" y2="6.34"/><line class="cls-2" x1="12.17" y1="0.5" x2="0.5" y2="12.17"/><line class="cls-2" x1="18.01" y1="0.5" x2="3" y2="15.5"/><line class="cls-2" x1="20.5" y1="3.84" x2="8.84" y2="15.5"/><line class="cls-2" x1="20.5" y1="9.67" x2="14.67" y2="15.5"/><polygon class="cls-1" points="40.5 0.5 40.5 30.5 0.5 30.5 0.5 15.5 20.5 15.5 20.5 0.5 40.5 0.5"/><line class="cls-2" x1="6.86" y1="30.5" x2="0.5" y2="24.13"/><line class="cls-2" x1="13.23" y1="30.5" x2="0.5" y2="17.78"/><line class="cls-2" x1="19.59" y1="30.5" x2="4.59" y2="15.5"/><line class="cls-2" x1="25.95" y1="30.5" x2="10.96" y2="15.5"/><line class="cls-2" x1="32.32" y1="30.5" x2="17.32" y2="15.5"/><line class="cls-2" x1="38.69" y1="30.5" x2="20.5" y2="12.32"/><line class="cls-2" x1="40.5" y1="25.96" x2="20.5" y2="5.95"/><line class="cls-2" x1="40.5" y1="19.59" x2="21.41" y2="0.5"/><line class="cls-2" x1="40.5" y1="13.22" x2="27.77" y2="0.5"/><line class="cls-2" x1="40.5" y1="6.87" x2="34.14" y2="0.5"/></g></g></svg>