<svg id="Layer_1" data-name="Layer 1" xmlns="http://www.w3.org/2000/svg" viewBox="0 0 200 200"><defs><style>.cls-1,.cls-2{fill:none;stroke:#000;stroke-miterlimit:10;}.cls-1{stroke-width:5px;}.cls-2{stroke-width:4px;}</style></defs><title>Artboard 5</title><circle class="cls-1" cx="100" cy="100" r="95"/><circle class="cls-1" cx="168.4" cy="96.2" r="20.9"/><circle class="cls-1" cx="109.63" cy="84.92" r="11.4"/><path class="cls-1" d="M109.63,84.92s2.48,20.84,18.54,23.25"/><circle class="cls-2" cx="130.4" cy="122.8" r="1.9"/><path class="cls-2" d="M155.28,106.8c-2,7.54-8,11.47-13.57,13.52a10.6,10.6,0,1,0,.27,1.3c0-.29-.12-.56-.17-.84a23.8,23.8,0,0,0,10.47-7,18,18,0,0,0,3.46-6.86Zm-13.92,14.14c0,.24.12.47.14.72a11.72,11.72,0,1,1-.24-1.18"/></svg>