<svg id="Layer_1" data-name="Layer 1" xmlns="http://www.w3.org/2000/svg" viewBox="0 0 200 200"><defs><style>.cls-1,.cls-2{fill:none;stroke:#000;stroke-miterlimit:10;}.cls-1{stroke-width:5px;}.cls-2{stroke-width:4px;}</style></defs><title>Artboard 2</title><circle class="cls-1" cx="100" cy="100" r="95"/><circle class="cls-1" cx="166.5" cy="100" r="20.9"/><circle cx="166.5" cy="100" r="1.9"/><circle class="cls-2" cx="65.8" cy="98.1" r="1.9"/><path class="cls-2" d="M93.91,107.29c-7.09,3.23-13.91,1.07-19-2a10.59,10.59,0,1,0-.83,1c.2-.21.35-.44.54-.66a23.79,23.79,0,0,0,12,3.69,18,18,0,0,0,7.5-1.64Zm-19.75-1.87c-.16.19-.29.39-.47.57a11.75,11.75,0,1,1,.76-.93"/><circle class="cls-2" cx="98.1" cy="69.6" r="1.9"/><path class="cls-2" d="M98.1,58.5a11.62,11.62,0,0,0-11,15.3c-3.33,2.56-6.3,6.71-6.3,13.43h.48c0-6.44,2.81-10.46,6-13A11.63,11.63,0,1,0,98.1,58.5Zm-10.63,15a11.44,11.44,0,1,1,.17.47"/></svg>