<svg id="Layer_1" data-name="Layer 1" xmlns="http://www.w3.org/2000/svg" viewBox="0 0 200 200"><defs><style>.cls-1{fill:none;stroke:#000;stroke-miterlimit:10;stroke-width:0.25px;}</style></defs><title>Artboard 7</title><circle class="cls-1" cx="100" cy="100" r="50"/><circle class="cls-1" cx="139" cy="100" r="11"/><circle class="cls-1" cx="121" cy="111" r="6"/><path class="cls-1" d="M121,111s9-1,9-9"/><circle cx="105.52" cy="93.69" r="1"/><path d="M116.12,105.09c-4.09-.32-6.68-3.06-8.26-5.77a5.6,5.6,0,1,0-.65.26,3.07,3.07,0,0,0,.42-.17,12.52,12.52,0,0,0,4.6,4.78,9.33,9.33,0,0,0,3.87,1.15Zm-8.61-5.9c-.13,0-.24.11-.37.15a5.88,5.88,0,1,1,1.23-10.78,5.84,5.84,0,0,1-.64,10.54"/></svg>