<svg id="Layer_1" data-name="Layer 1" xmlns="http://www.w3.org/2000/svg" viewBox="0 0 200 200"><defs><style>.cls-1{fill:none;stroke:#000;stroke-miterlimit:10;stroke-width:0.25px;}</style></defs><title>Artboard 3</title><circle class="cls-1" cx="100" cy="100" r="50"/><circle class="cls-1" cx="135" cy="100" r="11"/><circle cx="135" cy="100" r="1"/><circle cx="108" cy="83" r="1"/><path d="M98.74,95.51c-.43-4.07,1.78-7.13,4.16-9.18a5.52,5.52,0,1,0-.38-.59c.07.14.17.25.24.38a12.47,12.47,0,0,0-3.84,5.4,9.27,9.27,0,0,0-.43,4ZM103,86a3.7,3.7,0,0,1-.21-.33,5.87,5.87,0,0,1,10.5-5.26,5.86,5.86,0,0,1-10.16,5.8"/><circle cx="116.8" cy="101.1" r="1"/><path d="M122.35,103a6.12,6.12,0,0,0-5.81-8.06,8.46,8.46,0,0,0-5.66-5.37l-.08.23a8.2,8.2,0,0,1,5.47,5.15,6.13,6.13,0,1,0,6.08,8Zm-5.74-7.81a6.15,6.15,0,0,1,1.78.3,5.9,5.9,0,1,1-2-.29"/></svg>