<svg id="Layer_1" data-name="Layer 1" xmlns="http://www.w3.org/2000/svg" viewBox="0 0 200 200"><defs><style>.cls-1{fill:none;stroke:#000;stroke-miterlimit:10;stroke-width:0.25px;}</style></defs><title>Artboard 4</title><circle class="cls-1" cx="100" cy="100" r="50"/><circle class="cls-1" cx="65" cy="92" r="11"/><circle cx="65" cy="92" r="1"/><circle class="cls-1" cx="82" cy="93" r="6"/><path class="cls-1" d="M82,93s1,9,9,9"/><circle cx="88" cy="111" r="1"/><path d="M101.09,102.58c-1,4-4.19,6-7.14,7.12a5.61,5.61,0,1,0,.14.68,3.12,3.12,0,0,0-.09-.44,12.51,12.51,0,0,0,5.51-3.69,9.47,9.47,0,0,0,1.83-3.61ZM93.77,110c0,.13.06.25.07.38a6.1,6.1,0,1,1-.12-.62"/></svg>