<svg id="Layer_1" data-name="Layer 1" xmlns="http://www.w3.org/2000/svg" viewBox="0 0 200 200"><defs><style>.cls-1,.cls-2{fill:none;stroke:#000;stroke-miterlimit:10;}.cls-1{stroke-width:5px;}.cls-2{stroke-width:4px;}</style></defs><title>Artboard 3</title><circle class="cls-1" cx="100" cy="100" r="93"/><circle class="cls-1" cx="165.1" cy="100" r="20.46"/><circle cx="165.1" cy="100" r="1.86"/><circle class="cls-2" cx="114.88" cy="68.38" r="1.86"/><path class="cls-2" d="M97.65,91.65c-.8-7.58,3.32-13.25,7.74-17.08a10.28,10.28,0,1,0-.7-1.09c.13.25.31.46.45.7a23.32,23.32,0,0,0-7.16,10,17.52,17.52,0,0,0-.79,7.47Zm7.85-17.77c-.13-.21-.28-.39-.39-.61a11.47,11.47,0,1,1,.63,1"/><circle class="cls-2" cx="131.25" cy="102.05" r="1.86"/><path class="cls-2" d="M141.56,105.49a11.4,11.4,0,0,0-7.21-14.41,11.24,11.24,0,0,0-3.59-.58c-1.34-3.88-4.29-7.92-10.53-10l-.15.44c6,2,8.86,5.85,10.19,9.58a11.39,11.39,0,1,0,11.29,15ZM130.89,91a11.1,11.1,0,1,1-.48,0"/></svg>