<svg id="Layer_1" data-name="Layer 1" xmlns="http://www.w3.org/2000/svg" viewBox="0 0 200 200"><defs><style>.cls-1{fill:none;stroke:#000;stroke-miterlimit:10;stroke-width:0.25px;}</style></defs><title>Artboard 2</title><circle class="cls-1" cx="100" cy="100" r="50"/><circle class="cls-1" cx="135" cy="100" r="11"/><circle cx="135" cy="100" r="1"/><circle cx="82" cy="99" r="1"/><path d="M96.8,103.84c-3.74,1.69-7.33.56-10-1a5.59,5.59,0,1,0-.44.54,3.07,3.07,0,0,0,.28-.35,12.57,12.57,0,0,0,6.34,2,9.3,9.3,0,0,0,4-.87Zm-10.4-1a3.61,3.61,0,0,1-.25.3,6.18,6.18,0,1,1,.4-.49"/><circle cx="99" cy="84" r="1"/><path d="M99,78.16a6.13,6.13,0,0,0-5.81,8,8.45,8.45,0,0,0-3.31,7.07h.25a8.2,8.2,0,0,1,3.15-6.82A6.12,6.12,0,1,0,99,78.16Zm-5.6,7.9a5.81,5.81,0,0,1-.27-1.78,5.87,5.87,0,1,1,.36,2"/></svg>