<svg id="Layer_1" data-name="Layer 1" xmlns="http://www.w3.org/2000/svg" viewBox="0 0 200 200"><defs><style>.cls-1,.cls-2{fill:none;stroke:#000;stroke-miterlimit:10;}.cls-1{stroke-width:5px;}.cls-2{stroke-width:4px;}</style></defs><title>Artboard 7</title><circle class="cls-1" cx="100" cy="100" r="95"/><circle class="cls-1" cx="174.1" cy="100" r="20.9"/><circle class="cls-1" cx="139.9" cy="120.9" r="11.4"/><path class="cls-1" d="M139.9,120.9S157,119,157,103.8"/><circle class="cls-2" cx="110.5" cy="88.01" r="1.9"/><path class="cls-2" d="M130.63,109.68c-7.76-.62-12.69-5.81-15.7-11a10.6,10.6,0,1,0-1.22.49c.27-.08.52-.22.79-.31a23.76,23.76,0,0,0,8.74,9.07,18,18,0,0,0,7.36,2.19ZM114.26,98.47a7.07,7.07,0,0,1-.69.27,11.69,11.69,0,1,1,1.12-.44"/></svg>