<svg id="Layer_1" data-name="Layer 1" xmlns="http://www.w3.org/2000/svg" viewBox="0 0 200 200"><defs><style>.cls-1,.cls-2{fill:none;stroke:#000;stroke-miterlimit:10;}.cls-1{stroke-width:5px;}.cls-2{stroke-width:4px;}</style></defs><title>Artboard 4</title><circle class="cls-1" cx="100" cy="100" r="95"/><circle class="cls-1" cx="33.5" cy="84.8" r="20.9"/><circle cx="33.5" cy="84.8" r="1.9"/><circle class="cls-1" cx="65.8" cy="86.7" r="11.4"/><path class="cls-1" d="M65.8,86.7s1.94,17.1,17.14,17.06"/><circle class="cls-2" cx="77.2" cy="120.9" r="1.9"/><path class="cls-2" d="M102.08,104.9c-2,7.54-8,11.47-13.57,13.52a10.6,10.6,0,1,0,.27,1.3c0-.29-.12-.56-.17-.84a23.8,23.8,0,0,0,10.47-7,18,18,0,0,0,3.46-6.86ZM88.16,119c0,.24.12.47.14.72a11.72,11.72,0,1,1-.24-1.18"/></svg>