<svg id="Layer_1" data-name="Layer 1" xmlns="http://www.w3.org/2000/svg" viewBox="0 0 200 200"><defs><style>.cls-1{fill:none;stroke:#000;stroke-miterlimit:10;stroke-width:0.25px;}</style></defs><title>Artboard 5</title><circle class="cls-1" cx="100" cy="102" r="50"/><circle class="cls-1" cx="136" cy="100" r="11"/><circle class="cls-1" cx="105.07" cy="94.06" r="6"/><path class="cls-1" d="M105.07,94.06s1.31,11,9.76,12.24"/><circle cx="116" cy="114" r="1"/><path d="M129.09,105.58c-1,4-4.19,6-7.14,7.12a5.61,5.61,0,1,0,.14.68,3.12,3.12,0,0,0-.09-.44,12.51,12.51,0,0,0,5.51-3.69,9.47,9.47,0,0,0,1.83-3.61ZM121.77,113c0,.13.06.25.07.38a6.1,6.1,0,1,1-.12-.62"/></svg>