<svg xmlns="http://www.w3.org/2000/svg" viewBox="0 0 201 201"><defs><style>.cls-1,.cls-2{fill:none;stroke:#000;}.cls-1{stroke-miterlimit:10;}.cls-2{stroke-linejoin:round;}</style></defs><title>Artboard1</title><g id="Layer_2" data-name="Layer 2"><g id="Layer_1-2" data-name="Layer 1"><rect class="cls-1" x="0.5" y="0.5" width="200" height="200"/><line class="cls-1" x1="0.5" y1="100.5" x2="200.5" y2="100.5"/><line class="cls-1" x1="100.5" y1="200.5" x2="100.5" y2="0.5"/><path class="cls-2" d="M100.5.5S113,22.89,113,50.5s-12.5,50-12.5,50S88,78.11,88,50.5,100.5.5,100.5.5Z"/><path class="cls-2" d="M100.5,100.5S122.89,88,150.5,88s50,12.5,50,12.5"/><path class="cls-2" d="M100.5,100.5S78.11,113,50.5,113,.5,100.5.5,100.5,22.89,88,50.5,88,100.5,100.5,100.5,100.5Z"/><path class="cls-2" d="M100.5,200.5S88,178.11,88,150.5s12.5-50,12.5-50"/><path class="cls-1" d="M100.5,200.5a100,100,0,1,1,100-100"/></g></g></svg>