<svg xmlns="http://www.w3.org/2000/svg" viewBox="0 0 86.89 89.26"><defs><style>.cls-1{fill:none;stroke:#000;stroke-miterlimit:10;}.cls-2{fill-rule:evenodd;}</style></defs><title>Artboard7</title><g id="Layer_2" data-name="Layer 2"><g id="Layer_1-2" data-name="Layer 1"><line class="cls-1" x1="24.65" y1="23.9" x2="24.65" y2="53.9"/><polygon class="cls-2" points="24.65 61.36 20.32 53.86 28.98 53.86 24.65 61.36"/><line class="cls-1" x1="62.67" y1="23.8" x2="32.67" y2="23.8"/><polygon class="cls-2" points="25.21 23.8 32.71 19.48 32.71 28.14 25.21 23.8"/><line class="cls-1" x1="14.95" y1="13.04" x2="64.95" y2="13.04"/><polygon class="cls-2" points="72.94 13.04 64.93 17.37 64.93 8.71 72.94 13.04"/><line class="cls-1" x1="3.95" y1="4.33" x2="73.95" y2="4.33"/><polygon class="cls-2" points="81.94 4.33 73.93 8.66 73.93 0 81.94 4.33"/><line class="cls-1" x1="82.56" y1="5.64" x2="82.56" y2="75.64"/><polygon class="cls-2" points="82.56 83.62 78.23 75.61 86.89 75.61 82.56 83.62"/><line class="cls-1" x1="81.94" y1="84.93" x2="11.94" y2="84.93"/><polygon class="cls-2" points="3.95 84.93 11.96 80.6 11.96 89.26 3.95 84.93"/><line class="cls-1" x1="4.33" y1="83.62" x2="4.33" y2="13.62"/><polygon class="cls-2" points="4.33 5.64 8.66 13.65 0 13.65 4.33 5.64"/><line class="cls-1" x1="14.16" y1="13.64" x2="14.16" y2="63.64"/><polygon class="cls-2" points="14.16 71.62 18.49 63.61 9.83 63.61 14.16 71.62"/><line class="cls-1" x1="72.94" y1="72.22" x2="22.94" y2="72.22"/><polygon class="cls-2" points="14.95 72.22 22.96 67.89 22.96 76.55 14.95 72.22"/><line class="cls-1" x1="73.73" y1="13.64" x2="73.73" y2="63.64"/><polygon class="cls-2" points="73.73 71.62 69.4 63.61 78.06 63.61 73.73 71.62"/><line class="cls-1" x1="63.24" y1="61.36" x2="63.24" y2="31.36"/><polygon class="cls-2" points="63.23 23.9 67.56 31.4 58.91 31.4 63.23 23.9"/><line class="cls-1" x1="25.21" y1="61.45" x2="55.21" y2="61.45"/><polygon class="cls-2" points="62.67 61.45 55.17 65.78 55.17 57.12 62.67 61.45"/></g></g></svg>