<svg xmlns="http://www.w3.org/2000/svg" viewBox="0 0 87.89 87.26"><defs><style>.cls-1{fill:none;stroke:#000;stroke-miterlimit:10;}.cls-2{fill-rule:evenodd;}</style></defs><title>Artboard3</title><g id="Layer_2" data-name="Layer 2"><g id="Layer_1-2" data-name="Layer 1"><line class="cls-1" x1="24.65" y1="24.9" x2="24.65" y2="54.9"/><polygon class="cls-2" points="24.65 62.36 20.32 54.86 28.98 54.86 24.65 62.36"/><line class="cls-1" x1="62.67" y1="24.8" x2="32.67" y2="24.8"/><polygon class="cls-2" points="25.21 24.8 32.71 20.48 32.71 29.14 25.21 24.8"/><line class="cls-1" x1="14.95" y1="14.04" x2="64.95" y2="14.04"/><polygon class="cls-2" points="72.94 14.04 64.93 18.37 64.93 9.71 72.94 14.04"/><line class="cls-1" x1="82.94" y1="4.33" x2="12.94" y2="4.33"/><polygon class="cls-2" points="4.95 4.33 12.96 8.66 12.96 0 4.95 4.33"/><line class="cls-1" x1="83.56" y1="82.62" x2="83.56" y2="12.62"/><polygon class="cls-2" points="83.56 4.64 79.23 12.65 87.89 12.65 83.56 4.64"/><line class="cls-1" x1="4.95" y1="82.93" x2="74.95" y2="82.93"/><polygon class="cls-2" points="82.94 82.93 74.93 78.6 74.93 87.26 82.94 82.93"/><line class="cls-1" x1="4.33" y1="4.64" x2="4.33" y2="74.64"/><polygon class="cls-2" points="4.33 82.62 8.66 74.61 0 74.61 4.33 82.62"/><line class="cls-1" x1="14.16" y1="14.64" x2="14.16" y2="64.64"/><polygon class="cls-2" points="14.16 72.62 18.49 64.61 9.83 64.61 14.16 72.62"/><line class="cls-1" x1="72.94" y1="73.22" x2="22.94" y2="73.22"/><polygon class="cls-2" points="14.95 73.22 22.96 68.89 22.96 77.55 14.95 73.22"/><line class="cls-1" x1="73.73" y1="14.64" x2="73.73" y2="64.64"/><polygon class="cls-2" points="73.73 72.62 69.4 64.61 78.06 64.61 73.73 72.62"/><line class="cls-1" x1="63.24" y1="62.36" x2="63.24" y2="32.36"/><polygon class="cls-2" points="63.23 24.9 67.56 32.4 58.91 32.4 63.23 24.9"/><line class="cls-1" x1="25.21" y1="62.45" x2="55.21" y2="62.45"/><polygon class="cls-2" points="62.67 62.45 55.17 66.78 55.17 58.12 62.67 62.45"/></g></g></svg>