<svg xmlns="http://www.w3.org/2000/svg" viewBox="0 0 87.89 87.26"><defs><style>.cls-1{fill:none;stroke:#000;stroke-miterlimit:10;}.cls-2{fill-rule:evenodd;}</style></defs><title>Artboard6</title><g id="Layer_2" data-name="Layer 2"><g id="Layer_1-2" data-name="Layer 1"><line class="cls-1" x1="24.65" y1="62.45" x2="24.65" y2="32.45"/><polygon class="cls-2" points="24.65 24.99 20.32 32.49 28.98 32.49 24.65 24.99"/><line class="cls-1" x1="25.29" y1="24.8" x2="55.29" y2="24.8"/><polygon class="cls-2" points="62.75 24.8 55.25 20.48 55.25 29.14 62.75 24.8"/><line class="cls-1" x1="71.71" y1="14.04" x2="21.71" y2="14.04"/><polygon class="cls-2" points="13.73 14.04 21.74 18.37 21.74 9.71 13.73 14.04"/><line class="cls-1" x1="6.12" y1="4.33" x2="76.12" y2="4.33"/><polygon class="cls-2" points="84.11 4.33 76.1 8.66 76.1 0 84.11 4.33"/><line class="cls-1" x1="83.56" y1="5.69" x2="83.56" y2="75.69"/><polygon class="cls-2" points="83.56 83.67 79.23 75.66 87.89 75.66 83.56 83.67"/><line class="cls-1" x1="81.69" y1="82.93" x2="11.69" y2="82.93"/><polygon class="cls-2" points="3.71 82.93 11.71 78.6 11.71 87.26 3.71 82.93"/><line class="cls-1" x1="4.33" y1="81.88" x2="4.33" y2="11.88"/><polygon class="cls-2" points="4.33 3.9 8.66 11.9 0 11.9 4.33 3.9"/><line class="cls-1" x1="14.16" y1="15.73" x2="14.16" y2="65.73"/><polygon class="cls-2" points="14.16 73.72 18.49 65.71 9.83 65.71 14.16 73.72"/><line class="cls-1" x1="15.74" y1="73.22" x2="65.74" y2="73.22"/><polygon class="cls-2" points="73.73 73.22 65.72 68.89 65.72 77.55 73.73 73.22"/><line class="cls-1" x1="73.73" y1="71.2" x2="73.73" y2="21.2"/><polygon class="cls-2" points="73.73 13.22 69.4 21.23 78.06 21.23 73.73 13.22"/><line class="cls-1" x1="63.24" y1="24.99" x2="63.24" y2="54.99"/><polygon class="cls-2" points="63.23 62.45 67.56 54.95 58.91 54.95 63.23 62.45"/><line class="cls-1" x1="62.75" y1="62.45" x2="32.75" y2="62.45"/><polygon class="cls-2" points="25.29 62.45 32.79 66.78 32.79 58.12 25.29 62.45"/></g></g></svg>