<svg xmlns="http://www.w3.org/2000/svg" viewBox="0 0 89.89 87.26"><defs><style>.cls-1{fill:none;stroke:#000;stroke-miterlimit:10;}.cls-2{fill-rule:evenodd;}</style></defs><title>Artboard5</title><g id="Layer_2" data-name="Layer 2"><g id="Layer_1-2" data-name="Layer 1"><line class="cls-1" x1="23.65" y1="24.9" x2="23.65" y2="54.9"/><polygon class="cls-2" points="23.65 62.36 19.32 54.86 27.98 54.86 23.65 62.36"/><line class="cls-1" x1="61.67" y1="24.8" x2="31.67" y2="24.8"/><polygon class="cls-2" points="24.21 24.8 31.71 20.48 31.71 29.14 24.21 24.8"/><line class="cls-1" x1="73.94" y1="14.04" x2="23.94" y2="14.04"/><polygon class="cls-2" points="15.95 14.04 23.96 18.37 23.96 9.71 15.95 14.04"/><line class="cls-1" x1="5.95" y1="4.33" x2="75.95" y2="4.33"/><polygon class="cls-2" points="83.94 4.33 75.93 8.66 75.93 0 83.94 4.33"/><line class="cls-1" x1="85.56" y1="5.64" x2="85.56" y2="75.64"/><polygon class="cls-2" points="85.56 83.62 81.23 75.61 89.89 75.61 85.56 83.62"/><line class="cls-1" x1="83.94" y1="82.93" x2="13.94" y2="82.93"/><polygon class="cls-2" points="5.95 82.93 13.96 78.6 13.96 87.26 5.95 82.93"/><line class="cls-1" x1="4.33" y1="82.62" x2="4.33" y2="12.62"/><polygon class="cls-2" points="4.33 4.64 8.66 12.65 0 12.65 4.33 4.64"/><line class="cls-1" x1="15.16" y1="15.64" x2="15.16" y2="65.64"/><polygon class="cls-2" points="15.16 73.62 19.49 65.61 10.83 65.61 15.16 73.62"/><line class="cls-1" x1="15.95" y1="73.22" x2="65.95" y2="73.22"/><polygon class="cls-2" points="73.94 73.22 65.93 68.89 65.93 77.55 73.94 73.22"/><line class="cls-1" x1="74.73" y1="72.62" x2="74.73" y2="22.62"/><polygon class="cls-2" points="74.73 14.64 70.4 22.65 79.06 22.65 74.73 14.64"/><line class="cls-1" x1="62.24" y1="62.36" x2="62.24" y2="32.36"/><polygon class="cls-2" points="62.23 24.9 66.56 32.4 57.91 32.4 62.23 24.9"/><line class="cls-1" x1="24.21" y1="62.45" x2="54.21" y2="62.45"/><polygon class="cls-2" points="61.67 62.45 54.17 66.78 54.17 58.12 61.67 62.45"/></g></g></svg>