<svg xmlns="http://www.w3.org/2000/svg" viewBox="0 0 108.63 107.56"><defs><style>.cls-1{fill:none;stroke:#000;stroke-miterlimit:10;}.cls-2{fill-rule:evenodd;}</style></defs><title>Artboard1</title><g id="Layer_2" data-name="Layer 2"><g id="Layer_1-2" data-name="Layer 1"><line class="cls-1" x1="35.02" y1="72.6" x2="35.02" y2="42.6"/><polygon class="cls-2" points="35.02 35.14 30.69 42.64 39.35 42.64 35.02 35.14"/><line class="cls-1" x1="35.66" y1="34.95" x2="65.66" y2="34.95"/><polygon class="cls-2" points="73.13 34.95 65.63 30.62 65.63 39.28 73.13 34.95"/><line class="cls-1" x1="82.09" y1="24.19" x2="32.09" y2="24.19"/><polygon class="cls-2" points="24.1 24.19 32.11 28.52 32.11 19.86 24.1 24.19"/><line class="cls-1" x1="16.49" y1="14.48" x2="86.49" y2="14.48"/><polygon class="cls-2" points="94.48 14.48 86.47 18.81 86.47 10.15 94.48 14.48"/><line class="cls-1" x1="101.68" y1="4.33" x2="11.68" y2="4.33"/><polygon class="cls-2" points="3.7 4.33 11.71 8.66 11.71 0 3.7 4.33"/><line class="cls-1" x1="4.33" y1="5.78" x2="4.33" y2="95.78"/><polygon class="cls-2" points="4.33 103.76 8.66 95.76 0 95.76 4.33 103.76"/><line class="cls-1" x1="6.7" y1="103.23" x2="96.7" y2="103.23"/><polygon class="cls-2" points="104.68 103.23 96.67 98.9 96.67 107.56 104.68 103.23"/><line class="cls-1" x1="104.3" y1="101.11" x2="104.3" y2="11.11"/><polygon class="cls-2" points="104.3 3.13 99.97 11.13 108.63 11.13 104.3 3.13"/><line class="cls-1" x1="93.93" y1="15.84" x2="93.93" y2="85.84"/><polygon class="cls-2" points="93.93 93.82 89.6 85.81 98.26 85.81 93.93 93.82"/><line class="cls-1" x1="92.06" y1="93.08" x2="22.06" y2="93.08"/><polygon class="cls-2" points="14.07 93.08 22.08 88.75 22.08 97.41 14.07 93.08"/><line class="cls-1" x1="14.7" y1="92.03" x2="14.7" y2="22.03"/><polygon class="cls-2" points="14.7 14.05 19.03 22.05 10.37 22.05 14.7 14.05"/><line class="cls-1" x1="24.53" y1="25.88" x2="24.53" y2="75.88"/><polygon class="cls-2" points="24.53 83.87 28.86 75.86 20.2 75.86 24.53 83.87"/><line class="cls-1" x1="26.11" y1="83.37" x2="76.11" y2="83.37"/><polygon class="cls-2" points="84.1 83.37 76.09 79.03 76.09 87.7 84.1 83.37"/><line class="cls-1" x1="84.1" y1="81.35" x2="84.1" y2="31.35"/><polygon class="cls-2" points="84.1 23.37 79.77 31.37 88.43 31.37 84.1 23.37"/><line class="cls-1" x1="73.61" y1="35.14" x2="73.61" y2="65.14"/><polygon class="cls-2" points="73.61 72.6 77.94 65.1 69.28 65.1 73.61 72.6"/><line class="cls-1" x1="73.12" y1="72.6" x2="43.12" y2="72.6"/><polygon class="cls-2" points="35.66 72.6 43.16 76.93 43.16 68.27 35.66 72.6"/></g></g></svg>