<svg xmlns="http://www.w3.org/2000/svg" viewBox="0 0 108.63 107.56"><defs><style>.cls-1{fill:none;stroke:#000;stroke-miterlimit:10;}.cls-2{fill-rule:evenodd;}</style></defs><title>Artboard2</title><g id="Layer_2" data-name="Layer 2"><g id="Layer_1-2" data-name="Layer 1"><line class="cls-1" x1="35.02" y1="35.05" x2="35.02" y2="65.05"/><polygon class="cls-2" points="35.02 72.51 30.69 65.01 39.35 65.01 35.02 72.51"/><line class="cls-1" x1="73.04" y1="34.95" x2="43.04" y2="34.95"/><polygon class="cls-2" points="35.58 34.95 43.08 30.62 43.08 39.28 35.58 34.95"/><line class="cls-1" x1="25.32" y1="24.19" x2="75.32" y2="24.19"/><polygon class="cls-2" points="83.31 24.19 75.3 28.52 75.3 19.86 83.31 24.19"/><line class="cls-1" x1="93.31" y1="14.48" x2="23.31" y2="14.48"/><polygon class="cls-2" points="15.32 14.48 23.33 18.81 23.33 10.15 15.32 14.48"/><line class="cls-1" x1="5.32" y1="4.33" x2="95.32" y2="4.33"/><polygon class="cls-2" points="103.31 4.33 95.3 8.66 95.3 0 103.31 4.33"/><line class="cls-1" x1="4.33" y1="102.77" x2="4.33" y2="12.77"/><polygon class="cls-2" points="4.33 4.79 8.66 12.79 0 12.79 4.33 4.79"/><line class="cls-1" x1="103.31" y1="103.23" x2="13.31" y2="103.23"/><polygon class="cls-2" points="5.32 103.23 13.33 98.9 13.33 107.56 5.32 103.23"/><line class="cls-1" x1="104.3" y1="4.79" x2="104.3" y2="94.79"/><polygon class="cls-2" points="104.3 102.77 99.97 94.76 108.63 94.76 104.3 102.77"/><line class="cls-1" x1="93.93" y1="92.77" x2="93.93" y2="22.77"/><polygon class="cls-2" points="93.93 14.79 89.6 22.8 98.26 22.8 93.93 14.79"/><line class="cls-1" x1="15.32" y1="93.08" x2="85.32" y2="93.08"/><polygon class="cls-2" points="93.31 93.08 85.3 88.75 85.3 97.41 93.31 93.08"/><line class="cls-1" x1="14.7" y1="92.77" x2="14.7" y2="22.77"/><polygon class="cls-2" points="14.7 14.79 19.03 22.8 10.37 22.8 14.7 14.79"/><line class="cls-1" x1="24.53" y1="24.79" x2="24.53" y2="74.79"/><polygon class="cls-2" points="24.53 82.77 28.86 74.76 20.2 74.76 24.53 82.77"/><line class="cls-1" x1="83.31" y1="83.37" x2="33.31" y2="83.37"/><polygon class="cls-2" points="25.32 83.37 33.33 79.03 33.33 87.7 25.32 83.37"/><line class="cls-1" x1="84.1" y1="24.79" x2="84.1" y2="74.79"/><polygon class="cls-2" points="84.1 82.77 79.77 74.76 88.43 74.76 84.1 82.77"/><line class="cls-1" x1="73.61" y1="72.51" x2="73.61" y2="42.51"/><polygon class="cls-2" points="73.61 35.05 77.94 42.55 69.28 42.55 73.61 35.05"/><line class="cls-1" x1="35.58" y1="72.6" x2="65.58" y2="72.6"/><polygon class="cls-2" points="73.04 72.6 65.54 76.93 65.54 68.27 73.04 72.6"/></g></g></svg>