<svg xmlns="http://www.w3.org/2000/svg" viewBox="0 0 91 26"><defs><style>.cls-1,.cls-2,.cls-3{stroke:#000;stroke-miterlimit:10;}.cls-2,.cls-3{fill:none;}.cls-3{stroke-width:0.25px;}</style></defs><title>Artboard6</title><g id="Layer_2" data-name="Layer 2"><g id="Layer_1-2" data-name="Layer 1"><rect class="cls-1" x="15.5" y="0.5" width="15" height="25"/><path class="cls-2" d="M90.5,25.5V.5h-15v25ZM77.86,1.68v0Zm2.09,0v0Zm2.08,0v0Zm2.08,0v0Zm2.09,0v0Zm2.08,0v0Zm-10.42,3v0Zm2.09,0v0Zm2.08,0v0Zm2.08,0v0Zm2.09,0v0Zm2.08,0v0Zm-10.42,3v0Zm2.09,0v0Zm2.08,0v0Zm2.08,0v0Zm2.09,0v0Zm2.08,0v0Zm-10.42,3v0Zm2.09,0v0Zm2.08,0v0Zm2.08,0v0Zm2.09,0v0Zm2.08,0v0Zm-10.42,3v0Zm2.09,0v0Zm2.08,0v0Zm2.08,0v0Zm2.09,0v0Zm2.08,0v0Zm-10.42,3v0Zm2.09,0v0Zm2.08,0v0Zm2.08,0v0Zm2.09,0v0Zm2.08,0v0Zm-10.42,3v0Zm2.09,0v0Zm2.08,0v0Zm2.08,0v0Zm2.09,0v0Zm2.08,0v0Zm-10.42,3v0Zm2.09,0v0Zm2.08,0v0Zm2.08,0v0Zm2.09,0v0Zm2.08,0v0Z"/><rect class="cls-2" x="45.5" y="0.5" width="15" height="25"/><polygon class="cls-3" points="48.51 25.5 45.5 25.5 45.5 22.49 48.51 25.5"/><polygon class="cls-3" points="50.54 25.5 45.5 25.5 45.5 20.46 50.54 25.5"/><polygon class="cls-3" points="52.57 25.5 45.5 25.5 45.5 18.43 52.57 25.5"/><polygon class="cls-3" points="54.6 25.5 45.5 25.5 45.5 16.4 54.6 25.5"/><polygon class="cls-3" points="56.63 25.5 45.5 25.5 45.5 14.37 56.63 25.5"/><polygon class="cls-3" points="58.66 25.5 45.5 25.5 45.5 12.34 58.66 25.5"/><polygon class="cls-3" points="60.5 25.5 45.5 25.5 45.5 10.31 60.5 25.31 60.5 25.5"/><polygon class="cls-3" points="60.5 25.5 45.5 25.5 45.5 8.29 60.5 23.29 60.5 25.5"/><polygon class="cls-3" points="60.5 25.5 45.5 25.5 45.5 6.25 60.5 21.25 60.5 25.5"/><polygon class="cls-3" points="60.5 25.5 45.5 25.5 45.5 4.23 60.5 19.23 60.5 25.5"/><polygon class="cls-3" points="60.5 25.5 45.5 25.5 45.5 2.2 60.5 17.2 60.5 25.5"/><polygon class="cls-3" points="60.5 25.5 45.5 25.5 45.5 0.5 45.83 0.5 60.5 15.17 60.5 25.5"/><polygon class="cls-3" points="60.5 25.5 45.5 25.5 45.5 0.5 47.86 0.5 60.5 13.14 60.5 25.5"/><polygon class="cls-3" points="60.5 25.5 45.5 25.5 45.5 0.5 49.89 0.5 60.5 11.11 60.5 25.5"/><polygon class="cls-3" points="60.5 25.5 45.5 25.5 45.5 0.5 51.92 0.5 60.5 9.08 60.5 25.5"/><polygon class="cls-3" points="60.5 25.5 45.5 25.5 45.5 0.5 53.95 0.5 60.5 7.05 60.5 25.5"/><polygon class="cls-3" points="60.5 25.5 45.5 25.5 45.5 0.5 55.98 0.5 60.5 5.02 60.5 25.5"/><polygon class="cls-3" points="60.5 25.5 45.5 25.5 45.5 0.5 58.01 0.5 60.5 2.99 60.5 25.5"/><rect class="cls-2" x="0.5" y="0.5" width="15" height="25"/><polygon class="cls-3" points="0.5 3.58 0.5 0.5 3.58 0.5 0.5 3.58"/><polygon class="cls-3" points="0.5 5.75 0.5 0.5 5.75 0.5 0.5 5.75"/><polygon class="cls-3" points="0.5 7.91 0.5 0.5 7.91 0.5 0.5 7.91"/><polygon class="cls-3" points="0.5 10.08 0.5 0.5 10.08 0.5 0.5 10.08"/><polygon class="cls-3" points="0.5 12.25 0.5 0.5 12.25 0.5 0.5 12.25"/><polygon class="cls-3" points="0.5 0.5 14.41 0.5 0.5 14.41 0.5 0.5"/><polygon class="cls-3" points="0.5 16.58 0.5 0.5 15.5 0.5 15.5 1.58 0.5 16.58"/><polygon class="cls-3" points="0.5 18.75 0.5 0.5 15.5 0.5 15.5 3.75 0.5 18.75"/><polygon class="cls-3" points="0.5 0.5 15.5 0.5 15.5 5.91 0.5 20.91 0.5 0.5"/><polygon class="cls-3" points="0.5 23.08 0.5 0.5 15.5 0.5 15.5 8.08 0.5 23.08"/><polygon class="cls-3" points="0.5 25.25 0.5 0.5 15.5 0.5 15.5 10.25 0.5 25.25"/><polygon class="cls-3" points="0.5 0.5 15.5 0.5 15.5 12.41 2.41 25.5 0.5 25.5 0.5 0.5"/><polygon class="cls-3" points="4.58 25.5 0.5 25.5 0.5 0.5 15.5 0.5 15.5 14.58 4.58 25.5"/><polygon class="cls-3" points="6.75 25.5 0.5 25.5 0.5 0.5 15.5 0.5 15.5 16.75 6.75 25.5"/><polygon class="cls-3" points="0.5 0.5 15.5 0.5 15.5 18.91 8.91 25.5 0.5 25.5 0.5 0.5"/><polygon class="cls-3" points="11.08 25.5 0.5 25.5 0.5 0.5 15.5 0.5 15.5 21.08 11.08 25.5"/><polygon class="cls-3" points="13.25 25.5 0.5 25.5 0.5 0.5 15.5 0.5 15.5 23.25 13.25 25.5"/><rect class="cls-2" x="60.5" y="0.5" width="15" height="25"/><polygon class="cls-3" points="60.5 4 60.5 0.5 64 0.5 60.5 4"/><polygon class="cls-3" points="60.5 5.97 60.5 0.5 65.97 0.5 65.5 0.97 64.42 2.05 61.19 5.28 60.5 5.97"/><polygon class="cls-3" points="60.5 7.94 60.5 0.5 67.94 0.5 67.56 0.88 66.48 1.96 65.41 3.03 64.33 4.11 63.25 5.19 62.17 6.27 61.09 7.35 60.5 7.94"/><polygon class="cls-3" points="60.5 9.91 60.5 0.5 69.91 0.5 69.63 0.78 68.55 1.86 67.47 2.94 66.39 4.02 65.31 5.1 64.24 6.17 63.16 7.25 62.08 8.33 61 9.41 60.5 9.91"/><polygon class="cls-3" points="60.5 11.87 60.5 0.5 71.88 0.5 70.61 1.77 69.53 2.84 68.45 3.92 67.38 5 64.14 8.24 63.06 9.31 61.99 10.39 60.91 11.47 60.5 11.87"/><polygon class="cls-3" points="60.5 13.84 60.5 0.5 73.84 0.5 70.51 3.83 69.43 4.91 68.36 5.98 67.28 7.06 66.2 8.14 65.12 9.22 64.04 10.3 60.5 13.84"/><polygon class="cls-3" points="60.5 15.81 60.5 0.5 75.5 0.5 75.5 0.81 71.5 4.81 70.42 5.89 69.34 6.97 66.11 10.2 65.03 11.28 63.95 12.36 61.8 14.51 60.72 15.59 60.5 15.81"/><polygon class="cls-3" points="60.5 17.78 60.5 0.5 75.5 0.5 75.5 2.78 74.64 3.64 73.56 4.72 72.48 5.8 64.94 13.34 63.86 14.42 62.78 15.5 61.7 16.58 60.62 17.66 60.5 17.78"/><polygon class="cls-3" points="60.5 19.75 60.5 0.5 75.5 0.5 75.5 4.75 74.55 5.7 73.47 6.78 72.39 7.86 71.31 8.94 70.23 10.02 69.16 11.09 68.08 12.17 67 13.25 65.92 14.33 64.84 15.41 60.5 19.75"/><polygon class="cls-3" points="60.5 21.71 60.5 0.5 75.5 0.5 75.5 6.66 75.53 6.69 75.5 6.72 74.45 7.76 73.37 8.84 72.3 9.92 71.22 11 70.14 12.08 69.06 13.16 67.98 14.23 60.5 21.71"/><polygon class="cls-3" points="60.5 23.68 60.5 0.5 75.5 0.5 75.5 6.66 75.53 6.69 75.5 6.72 75.5 8.68 75.43 8.75 74.35 9.83 73.28 10.9 72.2 11.98 71.12 13.06 70.04 14.14 68.96 15.22 66.81 17.37 65.73 18.45 64.65 19.53 63.57 20.61 62.49 21.69 61.42 22.76 60.5 23.68"/><polygon class="cls-3" points="60.66 25.5 60.5 25.5 60.5 0.5 75.5 0.5 75.5 6.66 75.53 6.69 75.5 6.72 75.5 10.65 74.26 11.89 73.18 12.97 72.11 14.04 71.03 15.12 69.95 16.2 68.88 17.28 67.8 18.36 66.72 19.44 65.64 20.52 64.56 21.59 63.48 22.67 62.41 23.75 60.66 25.5"/><polygon class="cls-3" points="62.63 25.5 60.5 25.5 60.5 0.5 75.5 0.5 75.5 6.66 75.53 6.69 75.5 6.72 75.5 12.62 75.25 12.87 74.17 13.95 73.1 15.03 72.02 16.11 62.63 25.5"/><polygon class="cls-3" points="64.6 25.5 60.5 25.5 60.5 0.5 75.5 0.5 75.5 6.66 75.53 6.69 75.5 6.72 75.5 14.59 69.76 20.33 68.69 21.41 67.61 22.49 66.53 23.56 65.45 24.64 64.6 25.5"/><polygon class="cls-3" points="66.57 25.5 60.5 25.5 60.5 0.5 75.5 0.5 75.5 6.66 75.53 6.69 75.5 6.72 75.5 16.57 66.57 25.5"/><polygon class="cls-3" points="68.53 25.5 60.5 25.5 60.5 0.5 75.5 0.5 75.5 6.66 75.53 6.69 75.5 6.72 75.5 18.54 74.97 19.06 73.89 20.14 72.81 21.22 71.73 22.3 68.53 25.5"/><polygon class="cls-3" points="70.5 25.5 60.5 25.5 60.5 0.5 75.5 0.5 75.5 6.66 75.53 6.69 75.5 6.72 75.5 20.5 73.8 22.2 72.72 23.28 71.64 24.36 70.5 25.5"/><polygon class="cls-3" points="72.47 25.5 60.5 25.5 60.5 0.5 75.5 0.5 75.5 6.66 75.53 6.69 75.5 6.72 75.5 22.47 74.78 23.19 72.47 25.5"/><polygon class="cls-3" points="64.15 25.5 60.5 25.5 60.5 21.84 61.42 22.76 62.41 23.75 63.39 24.74 64.15 25.5"/><polygon class="cls-3" points="66.31 25.5 60.5 25.5 60.5 19.69 60.53 19.72 61.51 20.7 62.49 21.69 63.48 22.67 64.47 23.66 65.45 24.64 66.31 25.5"/><polygon class="cls-3" points="68.47 25.5 60.5 25.5 60.5 17.53 60.62 17.66 61.61 18.64 62.59 19.62 63.57 20.61 64.56 21.59 65.55 22.58 66.53 23.56 68.47 25.5"/><polygon class="cls-3" points="70.63 25.5 60.5 25.5 60.5 15.38 60.72 15.59 61.7 16.58 62.69 17.56 63.67 18.54 64.65 19.53 65.64 20.52 66.63 21.5 67.61 22.49 68.6 23.47 69.58 24.45 70.56 25.44 70.63 25.5"/><polygon class="cls-3" points="72.79 25.5 60.5 25.5 60.5 13.22 60.81 13.53 61.8 14.51 62.78 15.5 63.77 16.48 64.75 17.46 65.73 18.45 66.72 19.44 67.71 20.42 68.69 21.41 69.68 22.39 70.66 23.37 71.64 24.36 72.63 25.34 72.79 25.5"/><polygon class="cls-3" points="74.93 25.5 60.5 25.5 60.5 11.06 60.91 11.47 61.89 12.45 62.87 13.44 63.86 14.42 64.84 15.41 65.82 16.39 66.81 17.37 67.8 18.36 68.78 19.35 69.76 20.33 70.75 21.32 71.73 22.3 72.72 23.28 73.7 24.27 74.93 25.5"/><polygon class="cls-3" points="75.5 25.5 60.5 25.5 60.5 8.9 61 9.41 61.99 10.39 62.97 11.37 63.95 12.36 64.94 13.34 65.92 14.33 66.9 15.31 67.89 16.29 68.88 17.28 69.86 18.27 70.84 19.25 72.81 21.22 73.8 22.2 74.78 23.19 75.5 23.91 75.5 25.5"/><polygon class="cls-3" points="75.5 25.5 60.5 25.5 60.5 6.75 61.09 7.35 62.08 8.33 63.06 9.31 64.04 10.3 65.03 11.28 66.01 12.27 67 13.25 67.98 14.23 68.96 15.22 69.95 16.2 70.94 17.19 71.92 18.17 72.91 19.16 73.89 20.14 74.87 21.13 75.5 21.75 75.5 25.5"/><polygon class="cls-3" points="75.5 25.5 60.5 25.5 60.5 4.6 61.19 5.28 62.17 6.27 63.16 7.25 64.14 8.24 65.12 9.22 66.11 10.2 67.09 11.19 68.08 12.17 69.06 13.16 70.04 14.14 71.03 15.12 72.02 16.11 73 17.09 73.99 18.08 74.97 19.06 75.5 19.59 75.5 25.5"/><polygon class="cls-3" points="75.5 25.5 60.5 25.5 60.5 2.44 61.28 3.22 62.27 4.2 63.25 5.19 64.24 6.17 65.22 7.16 66.2 8.14 67.19 9.12 68.17 10.11 69.16 11.09 70.14 12.08 71.12 13.06 72.11 14.04 75.5 17.43 75.5 25.5"/><polygon class="cls-3" points="75.5 25.5 60.5 25.5 60.5 0.5 60.72 0.5 62.36 2.14 63.34 3.13 64.33 4.11 65.31 5.1 66.3 6.08 67.28 7.06 68.26 8.05 69.25 9.03 70.23 10.02 71.22 11 72.2 11.98 73.18 12.97 74.17 13.95 75.15 14.94 75.5 15.29 75.5 25.5"/><polygon class="cls-3" points="75.5 25.5 60.5 25.5 60.5 0.5 62.88 0.5 63.44 1.06 64.42 2.05 65.41 3.03 66.39 4.02 67.38 5 68.36 5.98 69.34 6.97 70.33 7.95 71.31 8.94 72.3 9.92 73.28 10.9 74.26 11.89 75.25 12.87 75.5 13.13 75.5 25.5"/><polygon class="cls-3" points="75.5 25.5 60.5 25.5 60.5 0.5 65.03 0.5 65.5 0.97 66.48 1.96 67.47 2.94 68.45 3.92 69.43 4.91 70.42 5.89 71.4 6.88 72.39 7.86 73.37 8.84 74.35 9.83 75.34 10.81 75.5 10.97 75.5 25.5"/><polygon class="cls-3" points="75.5 25.5 60.5 25.5 60.5 0.5 67.19 0.5 67.56 0.88 68.55 1.86 69.53 2.84 70.51 3.83 71.5 4.81 72.48 5.8 73.47 6.78 74.45 7.76 75.43 8.75 75.5 8.81 75.5 25.5"/><polygon class="cls-3" points="75.5 25.5 60.5 25.5 60.5 0.5 69.34 0.5 69.63 0.78 70.61 1.77 71.59 2.75 72.58 3.73 73.56 4.72 74.55 5.7 75.5 6.66 75.53 6.69 75.5 6.72 75.5 25.5"/><polygon class="cls-3" points="75.5 25.5 60.5 25.5 60.5 0.5 71.5 0.5 71.69 0.69 72.67 1.67 73.65 2.66 74.64 3.64 75.5 4.5 75.5 6.66 75.53 6.69 75.5 6.72 75.5 25.5"/><rect class="cls-2" x="30.5" y="0.5" width="15" height="25"/><rect x="37.88" y="-4.51" width="0.25" height="15" transform="translate(41 -35.01) rotate(90)"/><rect x="37.88" y="-2.01" width="0.25" height="15" transform="translate(43.5 -32.51) rotate(90)"/><rect x="37.88" y="0.49" width="0.25" height="15" transform="translate(46 -30.01) rotate(90)"/><rect x="37.88" y="2.99" width="0.25" height="15" transform="translate(48.5 -27.51) rotate(90)"/><rect x="37.88" y="5.49" width="0.25" height="15" transform="translate(51 -25.01) rotate(90)"/><rect x="37.88" y="7.99" width="0.25" height="15" transform="translate(53.5 -22.51) rotate(90)"/><rect x="37.88" y="10.49" width="0.25" height="15" transform="translate(56 -20.01) rotate(90)"/><rect x="37.88" y="12.99" width="0.25" height="15" transform="translate(58.5 -17.51) rotate(90)"/><rect x="37.88" y="15.49" width="0.25" height="15" transform="translate(61 -15.01) rotate(90)"/></g></g></svg>