<svg xmlns="http://www.w3.org/2000/svg" viewBox="0 0 26 91"><defs><style>.cls-1,.cls-2,.cls-3{stroke:#000;stroke-miterlimit:10;}.cls-2,.cls-3{fill:none;}.cls-3{stroke-width:0.25px;}</style></defs><title>Artboard1</title><g id="Layer_2" data-name="Layer 2"><g id="Layer_1-2" data-name="Layer 1"><rect class="cls-1" x="0.5" y="45.5" width="25" height="15"/><path class="cls-2" d="M25.5.5H.5v15h25ZM1.68,13.14h0Zm0-2.09h0ZM1.68,9h0Zm0-2.08h0Zm0-2.09h0Zm0-2.08h0Zm3,10.42h0Zm0-2.09h0ZM4.65,9h0Zm0-2.08h0Zm0-2.09h0Zm0-2.08h0Zm3,10.42h0Zm0-2.09h0ZM7.61,9h0Zm0-2.08h0Zm0-2.09h0Zm0-2.08h0Zm3,10.42h0Zm0-2.09h0Zm0-2.08h0Zm0-2.08h0Zm0-2.09h0Zm0-2.08h0Zm3,10.42h0Zm0-2.09h0Zm0-2.08h0Zm0-2.08h0Zm0-2.09h0Zm0-2.08h0Zm3,10.42h0Zm0-2.09h0Zm0-2.08h0Zm0-2.08h0Zm0-2.09h0Zm0-2.08h0Zm3,10.42h0Zm0-2.09h0Zm0-2.08h0Zm0-2.08h0Zm0-2.09h0Zm0-2.08h0Zm3,10.42h0Zm0-2.09h0Zm0-2.08h0Zm0-2.08h0Zm0-2.09h0Zm0-2.08h0Z"/><rect class="cls-2" x="0.5" y="75.5" width="25" height="15"/><polygon class="cls-3" points="25.5 87.49 25.5 90.5 22.49 90.5 25.5 87.49"/><polygon class="cls-3" points="25.5 85.46 25.5 90.5 20.46 90.5 25.5 85.46"/><polygon class="cls-3" points="25.5 83.43 25.5 90.5 18.43 90.5 25.5 83.43"/><polygon class="cls-3" points="25.5 81.4 25.5 90.5 16.4 90.5 25.5 81.4"/><polygon class="cls-3" points="25.5 79.37 25.5 90.5 14.37 90.5 25.5 79.37"/><polygon class="cls-3" points="25.5 77.34 25.5 90.5 12.34 90.5 25.5 77.34"/><polygon class="cls-3" points="25.5 75.5 25.5 90.5 10.31 90.5 25.31 75.5 25.5 75.5"/><polygon class="cls-3" points="25.5 75.5 25.5 90.5 8.29 90.5 23.29 75.5 25.5 75.5"/><polygon class="cls-3" points="25.5 75.5 25.5 90.5 6.25 90.5 21.25 75.5 25.5 75.5"/><polygon class="cls-3" points="25.5 75.5 25.5 90.5 4.23 90.5 19.23 75.5 25.5 75.5"/><polygon class="cls-3" points="25.5 75.5 25.5 90.5 2.2 90.5 17.2 75.5 25.5 75.5"/><polygon class="cls-3" points="25.5 75.5 25.5 90.5 0.5 90.5 0.5 90.17 15.17 75.5 25.5 75.5"/><polygon class="cls-3" points="25.5 75.5 25.5 90.5 0.5 90.5 0.5 88.14 13.14 75.5 25.5 75.5"/><polygon class="cls-3" points="25.5 75.5 25.5 90.5 0.5 90.5 0.5 86.11 11.11 75.5 25.5 75.5"/><polygon class="cls-3" points="25.5 75.5 25.5 90.5 0.5 90.5 0.5 84.08 9.08 75.5 25.5 75.5"/><polygon class="cls-3" points="25.5 75.5 25.5 90.5 0.5 90.5 0.5 82.05 7.05 75.5 25.5 75.5"/><polygon class="cls-3" points="25.5 75.5 25.5 90.5 0.5 90.5 0.5 80.02 5.02 75.5 25.5 75.5"/><polygon class="cls-3" points="25.5 75.5 25.5 90.5 0.5 90.5 0.5 77.99 2.99 75.5 25.5 75.5"/><rect class="cls-2" x="0.5" y="30.5" width="25" height="15"/><polygon class="cls-3" points="3.58 45.5 0.5 45.5 0.5 42.42 3.58 45.5"/><polygon class="cls-3" points="5.75 45.5 0.5 45.5 0.5 40.25 5.75 45.5"/><polygon class="cls-3" points="7.91 45.5 0.5 45.5 0.5 38.09 7.91 45.5"/><polygon class="cls-3" points="10.08 45.5 0.5 45.5 0.5 35.92 10.08 45.5"/><polygon class="cls-3" points="12.25 45.5 0.5 45.5 0.5 33.75 12.25 45.5"/><polygon class="cls-3" points="0.5 45.5 0.5 31.59 14.41 45.5 0.5 45.5"/><polygon class="cls-3" points="16.58 45.5 0.5 45.5 0.5 30.5 1.58 30.5 16.58 45.5"/><polygon class="cls-3" points="18.75 45.5 0.5 45.5 0.5 30.5 3.75 30.5 18.75 45.5"/><polygon class="cls-3" points="0.5 45.5 0.5 30.5 5.91 30.5 20.91 45.5 0.5 45.5"/><polygon class="cls-3" points="23.08 45.5 0.5 45.5 0.5 30.5 8.08 30.5 23.08 45.5"/><polygon class="cls-3" points="25.25 45.5 0.5 45.5 0.5 30.5 10.25 30.5 25.25 45.5"/><polygon class="cls-3" points="0.5 45.5 0.5 30.5 12.41 30.5 25.5 43.59 25.5 45.5 0.5 45.5"/><polygon class="cls-3" points="25.5 41.42 25.5 45.5 0.5 45.5 0.5 30.5 14.58 30.5 25.5 41.42"/><polygon class="cls-3" points="25.5 39.25 25.5 45.5 0.5 45.5 0.5 30.5 16.75 30.5 25.5 39.25"/><polygon class="cls-3" points="0.5 45.5 0.5 30.5 18.91 30.5 25.5 37.09 25.5 45.5 0.5 45.5"/><polygon class="cls-3" points="25.5 34.92 25.5 45.5 0.5 45.5 0.5 30.5 21.08 30.5 25.5 34.92"/><polygon class="cls-3" points="25.5 32.75 25.5 45.5 0.5 45.5 0.5 30.5 23.25 30.5 25.5 32.75"/><rect class="cls-2" x="0.5" y="15.5" width="25" height="15"/><polygon class="cls-3" points="4 30.5 0.5 30.5 0.5 27 4 30.5"/><polygon class="cls-3" points="5.97 30.5 0.5 30.5 0.5 25.03 0.97 25.5 2.05 26.58 5.28 29.81 5.97 30.5"/><polygon class="cls-3" points="7.94 30.5 0.5 30.5 0.5 23.06 0.88 23.44 1.96 24.52 3.03 25.59 4.11 26.67 5.19 27.75 6.27 28.83 7.35 29.91 7.94 30.5"/><polygon class="cls-3" points="9.91 30.5 0.5 30.5 0.5 21.09 0.78 21.37 1.86 22.45 2.94 23.53 4.02 24.61 5.1 25.69 6.17 26.76 7.25 27.84 8.33 28.92 9.41 30 9.91 30.5"/><polygon class="cls-3" points="11.87 30.5 0.5 30.5 0.5 19.12 1.77 20.39 2.84 21.47 3.92 22.55 5 23.62 8.24 26.86 9.31 27.94 10.39 29.01 11.47 30.09 11.87 30.5"/><polygon class="cls-3" points="13.84 30.5 0.5 30.5 0.5 17.16 3.83 20.49 4.91 21.57 5.98 22.64 7.06 23.72 8.14 24.8 9.22 25.88 10.3 26.96 13.84 30.5"/><polygon class="cls-3" points="15.81 30.5 0.5 30.5 0.5 15.5 0.81 15.5 4.81 19.5 5.89 20.58 6.97 21.66 10.2 24.89 11.28 25.97 12.36 27.05 14.51 29.2 15.59 30.28 15.81 30.5"/><polygon class="cls-3" points="17.78 30.5 0.5 30.5 0.5 15.5 2.78 15.5 3.64 16.36 4.72 17.44 5.8 18.52 13.34 26.06 14.42 27.14 15.5 28.22 16.58 29.3 17.66 30.38 17.78 30.5"/><polygon class="cls-3" points="19.75 30.5 0.5 30.5 0.5 15.5 4.75 15.5 5.7 16.45 6.78 17.53 7.86 18.61 8.94 19.69 10.02 20.77 11.09 21.84 12.17 22.92 13.25 24 14.33 25.08 15.41 26.16 19.75 30.5"/><polygon class="cls-3" points="21.71 30.5 0.5 30.5 0.5 15.5 6.66 15.5 6.69 15.47 6.72 15.5 7.76 16.55 8.84 17.63 9.92 18.7 11 19.78 12.08 20.86 13.16 21.94 14.23 23.02 21.71 30.5"/><polygon class="cls-3" points="23.68 30.5 0.5 30.5 0.5 15.5 6.66 15.5 6.69 15.47 6.72 15.5 8.68 15.5 8.75 15.57 9.83 16.65 10.9 17.72 11.98 18.8 13.06 19.88 14.14 20.96 15.22 22.04 17.37 24.19 18.45 25.27 19.53 26.35 20.61 27.43 21.69 28.51 22.76 29.58 23.68 30.5"/><polygon class="cls-3" points="25.5 30.34 25.5 30.5 0.5 30.5 0.5 15.5 6.66 15.5 6.69 15.47 6.72 15.5 10.65 15.5 11.89 16.74 12.97 17.82 14.04 18.89 15.12 19.97 16.2 21.05 17.28 22.12 18.36 23.2 19.44 24.28 20.52 25.36 21.59 26.44 22.67 27.52 23.75 28.59 25.5 30.34"/><polygon class="cls-3" points="25.5 28.37 25.5 30.5 0.5 30.5 0.5 15.5 6.66 15.5 6.69 15.47 6.72 15.5 12.62 15.5 12.87 15.75 13.95 16.83 15.03 17.9 16.11 18.98 25.5 28.37"/><polygon class="cls-3" points="25.5 26.4 25.5 30.5 0.5 30.5 0.5 15.5 6.66 15.5 6.69 15.47 6.72 15.5 14.59 15.5 20.33 21.24 21.41 22.31 22.49 23.39 23.56 24.47 24.64 25.55 25.5 26.4"/><polygon class="cls-3" points="25.5 24.43 25.5 30.5 0.5 30.5 0.5 15.5 6.66 15.5 6.69 15.47 6.72 15.5 16.57 15.5 25.5 24.43"/><polygon class="cls-3" points="25.5 22.47 25.5 30.5 0.5 30.5 0.5 15.5 6.66 15.5 6.69 15.47 6.72 15.5 18.54 15.5 19.06 16.03 20.14 17.11 21.22 18.19 22.3 19.27 25.5 22.47"/><polygon class="cls-3" points="25.5 20.5 25.5 30.5 0.5 30.5 0.5 15.5 6.66 15.5 6.69 15.47 6.72 15.5 20.5 15.5 22.2 17.2 23.28 18.28 24.36 19.36 25.5 20.5"/><polygon class="cls-3" points="25.5 18.53 25.5 30.5 0.5 30.5 0.5 15.5 6.66 15.5 6.69 15.47 6.72 15.5 22.47 15.5 23.19 16.22 25.5 18.53"/><polygon class="cls-3" points="25.5 26.85 25.5 30.5 21.84 30.5 22.76 29.58 23.75 28.59 24.74 27.61 25.5 26.85"/><polygon class="cls-3" points="25.5 24.69 25.5 30.5 19.69 30.5 19.72 30.47 20.7 29.49 21.69 28.51 22.67 27.52 23.66 26.53 24.64 25.55 25.5 24.69"/><polygon class="cls-3" points="25.5 22.53 25.5 30.5 17.53 30.5 17.66 30.38 18.64 29.39 19.62 28.41 20.61 27.43 21.59 26.44 22.58 25.45 23.56 24.47 25.5 22.53"/><polygon class="cls-3" points="25.5 20.37 25.5 30.5 15.38 30.5 15.59 30.28 16.58 29.3 17.56 28.31 18.54 27.33 19.53 26.35 20.52 25.36 21.5 24.37 22.49 23.39 23.47 22.4 24.45 21.42 25.44 20.44 25.5 20.37"/><polygon class="cls-3" points="25.5 18.21 25.5 30.5 13.22 30.5 13.53 30.19 14.51 29.2 15.5 28.22 16.48 27.23 17.46 26.25 18.45 25.27 19.44 24.28 20.42 23.29 21.41 22.31 22.39 21.32 23.37 20.34 24.36 19.36 25.34 18.37 25.5 18.21"/><polygon class="cls-3" points="25.5 16.07 25.5 30.5 11.06 30.5 11.47 30.09 12.45 29.11 13.44 28.13 14.42 27.14 15.41 26.16 16.39 25.18 17.37 24.19 18.36 23.2 19.35 22.22 20.33 21.24 21.32 20.25 22.3 19.27 23.28 18.28 24.27 17.3 25.5 16.07"/><polygon class="cls-3" points="25.5 15.5 25.5 30.5 8.9 30.5 9.41 30 10.39 29.01 11.37 28.03 12.36 27.05 13.34 26.06 14.33 25.08 15.31 24.1 16.29 23.11 17.28 22.12 18.27 21.14 19.25 20.16 21.22 18.19 22.2 17.2 23.19 16.22 23.91 15.5 25.5 15.5"/><polygon class="cls-3" points="25.5 15.5 25.5 30.5 6.75 30.5 7.35 29.91 8.33 28.92 9.31 27.94 10.3 26.96 11.28 25.97 12.27 24.99 13.25 24 14.23 23.02 15.22 22.04 16.2 21.05 17.19 20.06 18.17 19.08 19.16 18.09 20.14 17.11 21.13 16.13 21.75 15.5 25.5 15.5"/><polygon class="cls-3" points="25.5 15.5 25.5 30.5 4.6 30.5 5.28 29.81 6.27 28.83 7.25 27.84 8.24 26.86 9.22 25.88 10.2 24.89 11.19 23.91 12.17 22.92 13.16 21.94 14.14 20.96 15.12 19.97 16.11 18.98 17.09 18 18.08 17.01 19.06 16.03 19.59 15.5 25.5 15.5"/><polygon class="cls-3" points="25.5 15.5 25.5 30.5 2.44 30.5 3.22 29.72 4.2 28.73 5.19 27.75 6.17 26.76 7.16 25.78 8.14 24.8 9.12 23.81 10.11 22.83 11.09 21.84 12.08 20.86 13.06 19.88 14.04 18.89 17.43 15.5 25.5 15.5"/><polygon class="cls-3" points="25.5 15.5 25.5 30.5 0.5 30.5 0.5 30.28 2.14 28.64 3.13 27.66 4.11 26.67 5.1 25.69 6.08 24.7 7.06 23.72 8.05 22.74 9.03 21.75 10.02 20.77 11 19.78 11.98 18.8 12.97 17.82 13.95 16.83 14.94 15.85 15.29 15.5 25.5 15.5"/><polygon class="cls-3" points="25.5 15.5 25.5 30.5 0.5 30.5 0.5 28.12 1.06 27.56 2.05 26.58 3.03 25.59 4.02 24.61 5 23.62 5.98 22.64 6.97 21.66 7.95 20.67 8.94 19.69 9.92 18.7 10.9 17.72 11.89 16.74 12.87 15.75 13.13 15.5 25.5 15.5"/><polygon class="cls-3" points="25.5 15.5 25.5 30.5 0.5 30.5 0.5 25.97 0.97 25.5 1.96 24.52 2.94 23.53 3.92 22.55 4.91 21.57 5.89 20.58 6.88 19.6 7.86 18.61 8.84 17.63 9.83 16.65 10.81 15.66 10.97 15.5 25.5 15.5"/><polygon class="cls-3" points="25.5 15.5 25.5 30.5 0.5 30.5 0.5 23.81 0.88 23.44 1.86 22.45 2.84 21.47 3.83 20.49 4.81 19.5 5.8 18.52 6.78 17.53 7.76 16.55 8.75 15.57 8.81 15.5 25.5 15.5"/><polygon class="cls-3" points="25.5 15.5 25.5 30.5 0.5 30.5 0.5 21.66 0.78 21.37 1.77 20.39 2.75 19.41 3.73 18.42 4.72 17.44 5.7 16.45 6.66 15.5 6.69 15.47 6.72 15.5 25.5 15.5"/><polygon class="cls-3" points="25.5 15.5 25.5 30.5 0.5 30.5 0.5 19.5 0.69 19.31 1.67 18.33 2.66 17.35 3.64 16.36 4.5 15.5 6.66 15.5 6.69 15.47 6.72 15.5 25.5 15.5"/><rect class="cls-2" x="0.5" y="60.5" width="25" height="15"/><rect x="2.87" y="60.5" width="0.25" height="15"/><rect x="5.37" y="60.5" width="0.25" height="15"/><rect x="7.87" y="60.5" width="0.25" height="15"/><rect x="10.37" y="60.5" width="0.25" height="15"/><rect x="12.87" y="60.5" width="0.25" height="15"/><rect x="15.37" y="60.5" width="0.25" height="15"/><rect x="17.87" y="60.5" width="0.25" height="15"/><rect x="20.37" y="60.5" width="0.25" height="15"/><rect x="22.87" y="60.5" width="0.25" height="15"/></g></g></svg>