<svg xmlns="http://www.w3.org/2000/svg" viewBox="0 0 91 26"><defs><style>.cls-1,.cls-2,.cls-3{stroke:#000;stroke-miterlimit:10;}.cls-2,.cls-3{fill:none;}.cls-3{stroke-width:0.25px;}</style></defs><title>Artboard4</title><g id="Layer_2" data-name="Layer 2"><g id="Layer_1-2" data-name="Layer 1"><rect class="cls-1" x="30.5" y="0.5" width="15" height="25"/><path class="cls-2" d="M90.5,25.5V.5h-15v25ZM77.86,1.68v0Zm2.09,0v0Zm2.08,0v0Zm2.08,0v0Zm2.09,0v0Zm2.08,0v0Zm-10.42,3v0Zm2.09,0v0Zm2.08,0v0Zm2.08,0v0Zm2.09,0v0Zm2.08,0v0Zm-10.42,3v0Zm2.09,0v0Zm2.08,0v0Zm2.08,0v0Zm2.09,0v0Zm2.08,0v0Zm-10.42,3v0Zm2.09,0v0Zm2.08,0v0Zm2.08,0v0Zm2.09,0v0Zm2.08,0v0Zm-10.42,3v0Zm2.09,0v0Zm2.08,0v0Zm2.08,0v0Zm2.09,0v0Zm2.08,0v0Zm-10.42,3v0Zm2.09,0v0Zm2.08,0v0Zm2.08,0v0Zm2.09,0v0Zm2.08,0v0Zm-10.42,3v0Zm2.09,0v0Zm2.08,0v0Zm2.08,0v0Zm2.09,0v0Zm2.08,0v0Zm-10.42,3v0Zm2.09,0v0Zm2.08,0v0Zm2.08,0v0Zm2.09,0v0Zm2.08,0v0Z"/><rect class="cls-2" x="60.5" y="0.5" width="15" height="25"/><polygon class="cls-3" points="63.51 25.5 60.5 25.5 60.5 22.49 63.51 25.5"/><polygon class="cls-3" points="65.54 25.5 60.5 25.5 60.5 20.46 65.54 25.5"/><polygon class="cls-3" points="67.57 25.5 60.5 25.5 60.5 18.43 67.57 25.5"/><polygon class="cls-3" points="69.6 25.5 60.5 25.5 60.5 16.4 69.6 25.5"/><polygon class="cls-3" points="71.63 25.5 60.5 25.5 60.5 14.37 71.63 25.5"/><polygon class="cls-3" points="73.66 25.5 60.5 25.5 60.5 12.34 73.66 25.5"/><polygon class="cls-3" points="75.5 25.5 60.5 25.5 60.5 10.31 75.5 25.31 75.5 25.5"/><polygon class="cls-3" points="75.5 25.5 60.5 25.5 60.5 8.29 75.5 23.29 75.5 25.5"/><polygon class="cls-3" points="75.5 25.5 60.5 25.5 60.5 6.25 75.5 21.25 75.5 25.5"/><polygon class="cls-3" points="75.5 25.5 60.5 25.5 60.5 4.23 75.5 19.23 75.5 25.5"/><polygon class="cls-3" points="75.5 25.5 60.5 25.5 60.5 2.2 75.5 17.2 75.5 25.5"/><polygon class="cls-3" points="75.5 25.5 60.5 25.5 60.5 0.5 60.83 0.5 75.5 15.17 75.5 25.5"/><polygon class="cls-3" points="75.5 25.5 60.5 25.5 60.5 0.5 62.86 0.5 75.5 13.14 75.5 25.5"/><polygon class="cls-3" points="75.5 25.5 60.5 25.5 60.5 0.5 64.89 0.5 75.5 11.11 75.5 25.5"/><polygon class="cls-3" points="75.5 25.5 60.5 25.5 60.5 0.5 66.92 0.5 75.5 9.08 75.5 25.5"/><polygon class="cls-3" points="75.5 25.5 60.5 25.5 60.5 0.5 68.95 0.5 75.5 7.05 75.5 25.5"/><polygon class="cls-3" points="75.5 25.5 60.5 25.5 60.5 0.5 70.98 0.5 75.5 5.02 75.5 25.5"/><polygon class="cls-3" points="75.5 25.5 60.5 25.5 60.5 0.5 73.01 0.5 75.5 2.99 75.5 25.5"/><rect class="cls-2" x="15.5" y="0.5" width="15" height="25"/><polygon class="cls-3" points="15.5 3.58 15.5 0.5 18.58 0.5 15.5 3.58"/><polygon class="cls-3" points="15.5 5.75 15.5 0.5 20.75 0.5 15.5 5.75"/><polygon class="cls-3" points="15.5 7.91 15.5 0.5 22.91 0.5 15.5 7.91"/><polygon class="cls-3" points="15.5 10.08 15.5 0.5 25.08 0.5 15.5 10.08"/><polygon class="cls-3" points="15.5 12.25 15.5 0.5 27.25 0.5 15.5 12.25"/><polygon class="cls-3" points="15.5 0.5 29.41 0.5 15.5 14.41 15.5 0.5"/><polygon class="cls-3" points="15.5 16.58 15.5 0.5 30.5 0.5 30.5 1.58 15.5 16.58"/><polygon class="cls-3" points="15.5 18.75 15.5 0.5 30.5 0.5 30.5 3.75 15.5 18.75"/><polygon class="cls-3" points="15.5 0.5 30.5 0.5 30.5 5.91 15.5 20.91 15.5 0.5"/><polygon class="cls-3" points="15.5 23.08 15.5 0.5 30.5 0.5 30.5 8.08 15.5 23.08"/><polygon class="cls-3" points="15.5 25.25 15.5 0.5 30.5 0.5 30.5 10.25 15.5 25.25"/><polygon class="cls-3" points="15.5 0.5 30.5 0.5 30.5 12.41 17.41 25.5 15.5 25.5 15.5 0.5"/><polygon class="cls-3" points="19.58 25.5 15.5 25.5 15.5 0.5 30.5 0.5 30.5 14.58 19.58 25.5"/><polygon class="cls-3" points="21.75 25.5 15.5 25.5 15.5 0.5 30.5 0.5 30.5 16.75 21.75 25.5"/><polygon class="cls-3" points="15.5 0.5 30.5 0.5 30.5 18.91 23.91 25.5 15.5 25.5 15.5 0.5"/><polygon class="cls-3" points="26.08 25.5 15.5 25.5 15.5 0.5 30.5 0.5 30.5 21.08 26.08 25.5"/><polygon class="cls-3" points="28.25 25.5 15.5 25.5 15.5 0.5 30.5 0.5 30.5 23.25 28.25 25.5"/><rect class="cls-2" x="0.5" y="0.5" width="15" height="25"/><polygon class="cls-3" points="0.5 4 0.5 0.5 4 0.5 0.5 4"/><polygon class="cls-3" points="0.5 5.97 0.5 0.5 5.97 0.5 5.5 0.97 4.42 2.05 1.19 5.28 0.5 5.97"/><polygon class="cls-3" points="0.5 7.94 0.5 0.5 7.94 0.5 7.56 0.88 6.48 1.96 5.41 3.03 4.33 4.11 3.25 5.19 2.17 6.27 1.09 7.35 0.5 7.94"/><polygon class="cls-3" points="0.5 9.91 0.5 0.5 9.91 0.5 9.63 0.78 8.55 1.86 7.47 2.94 6.39 4.02 5.31 5.1 4.24 6.17 3.16 7.25 2.08 8.33 1 9.41 0.5 9.91"/><polygon class="cls-3" points="0.5 11.87 0.5 0.5 11.88 0.5 10.61 1.77 9.53 2.84 8.45 3.92 7.38 5 4.14 8.24 3.06 9.31 1.99 10.39 0.91 11.47 0.5 11.87"/><polygon class="cls-3" points="0.5 13.84 0.5 0.5 13.84 0.5 10.51 3.83 9.43 4.91 8.36 5.98 7.28 7.06 6.2 8.14 5.12 9.22 4.04 10.3 0.5 13.84"/><polygon class="cls-3" points="0.5 15.81 0.5 0.5 15.5 0.5 15.5 0.81 11.5 4.81 10.42 5.89 9.34 6.97 6.11 10.2 5.03 11.28 3.95 12.36 1.8 14.51 0.72 15.59 0.5 15.81"/><polygon class="cls-3" points="0.5 17.78 0.5 0.5 15.5 0.5 15.5 2.78 14.64 3.64 13.56 4.72 12.48 5.8 4.94 13.34 3.86 14.42 2.78 15.5 1.7 16.58 0.62 17.66 0.5 17.78"/><polygon class="cls-3" points="0.5 19.75 0.5 0.5 15.5 0.5 15.5 4.75 14.55 5.7 13.47 6.78 12.39 7.86 11.31 8.94 10.23 10.02 9.16 11.09 8.08 12.17 7 13.25 5.92 14.33 4.84 15.41 0.5 19.75"/><polygon class="cls-3" points="0.5 21.71 0.5 0.5 15.5 0.5 15.5 6.66 15.53 6.69 15.5 6.72 14.45 7.76 13.37 8.84 12.3 9.92 11.22 11 10.14 12.08 9.06 13.16 7.98 14.23 0.5 21.71"/><polygon class="cls-3" points="0.5 23.68 0.5 0.5 15.5 0.5 15.5 6.66 15.53 6.69 15.5 6.72 15.5 8.68 15.43 8.75 14.35 9.83 13.28 10.9 12.2 11.98 11.12 13.06 10.04 14.14 8.96 15.22 6.81 17.37 5.73 18.45 4.65 19.53 3.57 20.61 2.49 21.69 1.42 22.76 0.5 23.68"/><polygon class="cls-3" points="0.66 25.5 0.5 25.5 0.5 0.5 15.5 0.5 15.5 6.66 15.53 6.69 15.5 6.72 15.5 10.65 14.26 11.89 13.18 12.97 12.11 14.04 11.03 15.12 9.95 16.2 8.88 17.28 7.8 18.36 6.72 19.44 5.64 20.52 4.56 21.59 3.48 22.67 2.41 23.75 0.66 25.5"/><polygon class="cls-3" points="2.63 25.5 0.5 25.5 0.5 0.5 15.5 0.5 15.5 6.66 15.53 6.69 15.5 6.72 15.5 12.62 15.25 12.87 14.17 13.95 13.1 15.03 12.02 16.11 2.63 25.5"/><polygon class="cls-3" points="4.6 25.5 0.5 25.5 0.5 0.5 15.5 0.5 15.5 6.66 15.53 6.69 15.5 6.72 15.5 14.59 9.76 20.33 8.69 21.41 7.61 22.49 6.53 23.56 5.45 24.64 4.6 25.5"/><polygon class="cls-3" points="6.57 25.5 0.5 25.5 0.5 0.5 15.5 0.5 15.5 6.66 15.53 6.69 15.5 6.72 15.5 16.57 6.57 25.5"/><polygon class="cls-3" points="8.53 25.5 0.5 25.5 0.5 0.5 15.5 0.5 15.5 6.66 15.53 6.69 15.5 6.72 15.5 18.54 14.97 19.06 13.89 20.14 12.81 21.22 11.73 22.3 8.53 25.5"/><polygon class="cls-3" points="10.5 25.5 0.5 25.5 0.5 0.5 15.5 0.5 15.5 6.66 15.53 6.69 15.5 6.72 15.5 20.5 13.8 22.2 12.72 23.28 11.64 24.36 10.5 25.5"/><polygon class="cls-3" points="12.47 25.5 0.5 25.5 0.5 0.5 15.5 0.5 15.5 6.66 15.53 6.69 15.5 6.72 15.5 22.47 14.78 23.19 12.47 25.5"/><polygon class="cls-3" points="4.15 25.5 0.5 25.5 0.5 21.84 1.42 22.76 2.41 23.75 3.39 24.74 4.15 25.5"/><polygon class="cls-3" points="6.31 25.5 0.5 25.5 0.5 19.69 0.53 19.72 1.51 20.7 2.49 21.69 3.48 22.67 4.47 23.66 5.45 24.64 6.31 25.5"/><polygon class="cls-3" points="8.47 25.5 0.5 25.5 0.5 17.53 0.62 17.66 1.61 18.64 2.59 19.62 3.57 20.61 4.56 21.59 5.55 22.58 6.53 23.56 8.47 25.5"/><polygon class="cls-3" points="10.63 25.5 0.5 25.5 0.5 15.38 0.72 15.59 1.7 16.58 2.69 17.56 3.67 18.54 4.65 19.53 5.64 20.52 6.63 21.5 7.61 22.49 8.6 23.47 9.58 24.45 10.56 25.44 10.63 25.5"/><polygon class="cls-3" points="12.79 25.5 0.5 25.5 0.5 13.22 0.81 13.53 1.8 14.51 2.78 15.5 3.77 16.48 4.75 17.46 5.73 18.45 6.72 19.44 7.71 20.42 8.69 21.41 9.68 22.39 10.66 23.37 11.64 24.36 12.63 25.34 12.79 25.5"/><polygon class="cls-3" points="14.93 25.5 0.5 25.5 0.5 11.06 0.91 11.47 1.89 12.45 2.87 13.44 3.86 14.42 4.84 15.41 5.82 16.39 6.81 17.37 7.8 18.36 8.78 19.35 9.76 20.33 10.75 21.32 11.73 22.3 12.72 23.28 13.7 24.27 14.93 25.5"/><polygon class="cls-3" points="15.5 25.5 0.5 25.5 0.5 8.9 1 9.41 1.99 10.39 2.97 11.37 3.95 12.36 4.94 13.34 5.92 14.33 6.9 15.31 7.89 16.29 8.88 17.28 9.86 18.27 10.84 19.25 12.81 21.22 13.8 22.2 14.78 23.19 15.5 23.91 15.5 25.5"/><polygon class="cls-3" points="15.5 25.5 0.5 25.5 0.5 6.75 1.09 7.35 2.08 8.33 3.06 9.31 4.04 10.3 5.03 11.28 6.01 12.27 7 13.25 7.98 14.23 8.96 15.22 9.95 16.2 10.94 17.19 11.92 18.17 12.91 19.16 13.89 20.14 14.87 21.13 15.5 21.75 15.5 25.5"/><polygon class="cls-3" points="15.5 25.5 0.5 25.5 0.5 4.6 1.19 5.28 2.17 6.27 3.16 7.25 4.14 8.24 5.12 9.22 6.11 10.2 7.09 11.19 8.08 12.17 9.06 13.16 10.04 14.14 11.03 15.12 12.02 16.11 13 17.09 13.99 18.08 14.97 19.06 15.5 19.59 15.5 25.5"/><polygon class="cls-3" points="15.5 25.5 0.5 25.5 0.5 2.44 1.28 3.22 2.27 4.2 3.25 5.19 4.24 6.17 5.22 7.16 6.2 8.14 7.19 9.12 8.17 10.11 9.16 11.09 10.14 12.08 11.12 13.06 12.11 14.04 15.5 17.43 15.5 25.5"/><polygon class="cls-3" points="15.5 25.5 0.5 25.5 0.5 0.5 0.72 0.5 2.36 2.14 3.34 3.13 4.33 4.11 5.31 5.1 6.3 6.08 7.28 7.06 8.26 8.05 9.25 9.03 10.23 10.02 11.22 11 12.2 11.98 13.18 12.97 14.17 13.95 15.15 14.94 15.5 15.29 15.5 25.5"/><polygon class="cls-3" points="15.5 25.5 0.5 25.5 0.5 0.5 2.88 0.5 3.44 1.06 4.42 2.05 5.41 3.03 6.39 4.02 7.38 5 8.36 5.98 9.34 6.97 10.33 7.95 11.31 8.94 12.3 9.92 13.28 10.9 14.26 11.89 15.25 12.87 15.5 13.13 15.5 25.5"/><polygon class="cls-3" points="15.5 25.5 0.5 25.5 0.5 0.5 5.03 0.5 5.5 0.97 6.48 1.96 7.47 2.94 8.45 3.92 9.43 4.91 10.42 5.89 11.4 6.88 12.39 7.86 13.37 8.84 14.35 9.83 15.34 10.81 15.5 10.97 15.5 25.5"/><polygon class="cls-3" points="15.5 25.5 0.5 25.5 0.5 0.5 7.19 0.5 7.56 0.88 8.55 1.86 9.53 2.84 10.51 3.83 11.5 4.81 12.48 5.8 13.47 6.78 14.45 7.76 15.43 8.75 15.5 8.81 15.5 25.5"/><polygon class="cls-3" points="15.5 25.5 0.5 25.5 0.5 0.5 9.34 0.5 9.63 0.78 10.61 1.77 11.59 2.75 12.58 3.73 13.56 4.72 14.55 5.7 15.5 6.66 15.53 6.69 15.5 6.72 15.5 25.5"/><polygon class="cls-3" points="15.5 25.5 0.5 25.5 0.5 0.5 11.5 0.5 11.69 0.69 12.67 1.67 13.65 2.66 14.64 3.64 15.5 4.5 15.5 6.66 15.53 6.69 15.5 6.72 15.5 25.5"/><rect class="cls-2" x="45.5" y="0.5" width="15" height="25"/><rect x="52.88" y="-4.51" width="0.25" height="15" transform="translate(55.99 -50.01) rotate(90)"/><rect x="52.88" y="-2.01" width="0.25" height="15" transform="translate(58.49 -47.51) rotate(90)"/><rect x="52.88" y="0.49" width="0.25" height="15" transform="translate(60.99 -45.01) rotate(90)"/><rect x="52.88" y="2.99" width="0.25" height="15" transform="translate(63.49 -42.51) rotate(90)"/><rect x="52.88" y="5.49" width="0.25" height="15" transform="translate(65.99 -40.01) rotate(90)"/><rect x="52.88" y="7.99" width="0.25" height="15" transform="translate(68.49 -37.51) rotate(90)"/><rect x="52.88" y="10.49" width="0.25" height="15" transform="translate(70.99 -35.01) rotate(90)"/><rect x="52.88" y="12.99" width="0.25" height="15" transform="translate(73.49 -32.51) rotate(90)"/><rect x="52.88" y="15.49" width="0.25" height="15" transform="translate(75.99 -30.01) rotate(90)"/></g></g></svg>