<svg xmlns="http://www.w3.org/2000/svg" viewBox="0 0 90.99 26"><defs><style>.cls-1,.cls-2,.cls-3{stroke:#000;stroke-miterlimit:10;}.cls-2,.cls-3{fill:none;}.cls-3{stroke-width:0.25px;}</style></defs><title>Artboard5</title><g id="Layer_2" data-name="Layer 2"><g id="Layer_1-2" data-name="Layer 1"><rect class="cls-1" x="45.5" y="0.5" width="15" height="25"/><path class="cls-2" d="M15.5,25.5V.5H.5v25ZM2.86,1.68v0ZM5,1.68v0ZM7,1.68v0Zm2.08,0v0Zm2.09,0v0Zm2.08,0v0Zm-10.42,3v0ZM5,4.65v0ZM7,4.65v0Zm2.08,0v0Zm2.09,0v0Zm2.08,0v0Zm-10.42,3v0ZM5,7.61v0ZM7,7.61v0Zm2.08,0v0Zm2.09,0v0Zm2.08,0v0Zm-10.42,3v0Zm2.09,0v0Zm2.08,0v0Zm2.08,0v0Zm2.09,0v0Zm2.08,0v0Zm-10.42,3v0Zm2.09,0v0Zm2.08,0v0Zm2.08,0v0Zm2.09,0v0Zm2.08,0v0Zm-10.42,3v0Zm2.09,0v0Zm2.08,0v0Zm2.08,0v0Zm2.09,0v0Zm2.08,0v0Zm-10.42,3v0Zm2.09,0v0Zm2.08,0v0Zm2.08,0v0Zm2.09,0v0Zm2.08,0v0Zm-10.42,3v0Zm2.09,0v0Zm2.08,0v0Zm2.08,0v0Zm2.09,0v0Zm2.08,0v0Z"/><rect class="cls-2" x="75.49" y="0.5" width="15" height="25"/><polygon class="cls-3" points="78.5 25.5 75.49 25.5 75.49 22.49 78.5 25.5"/><polygon class="cls-3" points="80.53 25.5 75.49 25.5 75.49 20.46 80.53 25.5"/><polygon class="cls-3" points="82.56 25.5 75.49 25.5 75.49 18.43 82.56 25.5"/><polygon class="cls-3" points="84.59 25.5 75.49 25.5 75.49 16.4 84.59 25.5"/><polygon class="cls-3" points="86.62 25.5 75.49 25.5 75.49 14.37 86.62 25.5"/><polygon class="cls-3" points="88.65 25.5 75.49 25.5 75.49 12.34 88.65 25.5"/><polygon class="cls-3" points="90.49 25.5 75.49 25.5 75.49 10.31 90.49 25.31 90.49 25.5"/><polygon class="cls-3" points="90.49 25.5 75.49 25.5 75.49 8.29 90.49 23.29 90.49 25.5"/><polygon class="cls-3" points="90.49 25.5 75.49 25.5 75.49 6.25 90.49 21.25 90.49 25.5"/><polygon class="cls-3" points="90.49 25.5 75.49 25.5 75.49 4.23 90.49 19.23 90.49 25.5"/><polygon class="cls-3" points="90.49 25.5 75.49 25.5 75.49 2.2 90.49 17.2 90.49 25.5"/><polygon class="cls-3" points="90.49 25.5 75.49 25.5 75.49 0.5 75.82 0.5 90.49 15.17 90.49 25.5"/><polygon class="cls-3" points="90.49 25.5 75.49 25.5 75.49 0.5 77.85 0.5 90.49 13.14 90.49 25.5"/><polygon class="cls-3" points="90.49 25.5 75.49 25.5 75.49 0.5 79.88 0.5 90.49 11.11 90.49 25.5"/><polygon class="cls-3" points="90.49 25.5 75.49 25.5 75.49 0.5 81.91 0.5 90.49 9.08 90.49 25.5"/><polygon class="cls-3" points="90.49 25.5 75.49 25.5 75.49 0.5 83.94 0.5 90.49 7.05 90.49 25.5"/><polygon class="cls-3" points="90.49 25.5 75.49 25.5 75.49 0.5 85.97 0.5 90.49 5.02 90.49 25.5"/><polygon class="cls-3" points="90.49 25.5 75.49 25.5 75.49 0.5 88 0.5 90.49 2.99 90.49 25.5"/><rect class="cls-2" x="30.5" y="0.5" width="15" height="25"/><polygon class="cls-3" points="30.5 3.58 30.5 0.5 33.58 0.5 30.5 3.58"/><polygon class="cls-3" points="30.5 5.75 30.5 0.5 35.75 0.5 30.5 5.75"/><polygon class="cls-3" points="30.5 7.91 30.5 0.5 37.91 0.5 30.5 7.91"/><polygon class="cls-3" points="30.5 10.08 30.5 0.5 40.08 0.5 30.5 10.08"/><polygon class="cls-3" points="30.5 12.25 30.5 0.5 42.25 0.5 30.5 12.25"/><polygon class="cls-3" points="30.5 0.5 44.41 0.5 30.5 14.41 30.5 0.5"/><polygon class="cls-3" points="30.5 16.58 30.5 0.5 45.5 0.5 45.5 1.58 30.5 16.58"/><polygon class="cls-3" points="30.5 18.75 30.5 0.5 45.5 0.5 45.5 3.75 30.5 18.75"/><polygon class="cls-3" points="30.5 0.5 45.5 0.5 45.5 5.91 30.5 20.91 30.5 0.5"/><polygon class="cls-3" points="30.5 23.08 30.5 0.5 45.5 0.5 45.5 8.08 30.5 23.08"/><polygon class="cls-3" points="30.5 25.25 30.5 0.5 45.5 0.5 45.5 10.25 30.5 25.25"/><polygon class="cls-3" points="30.5 0.5 45.5 0.5 45.5 12.41 32.41 25.5 30.5 25.5 30.5 0.5"/><polygon class="cls-3" points="34.58 25.5 30.5 25.5 30.5 0.5 45.5 0.5 45.5 14.58 34.58 25.5"/><polygon class="cls-3" points="36.75 25.5 30.5 25.5 30.5 0.5 45.5 0.5 45.5 16.75 36.75 25.5"/><polygon class="cls-3" points="30.5 0.5 45.5 0.5 45.5 18.91 38.91 25.5 30.5 25.5 30.5 0.5"/><polygon class="cls-3" points="41.08 25.5 30.5 25.5 30.5 0.5 45.5 0.5 45.5 21.08 41.08 25.5"/><polygon class="cls-3" points="43.25 25.5 30.5 25.5 30.5 0.5 45.5 0.5 45.5 23.25 43.25 25.5"/><rect class="cls-2" x="15.5" y="0.5" width="15" height="25"/><polygon class="cls-3" points="15.5 4 15.5 0.5 19 0.5 15.5 4"/><polygon class="cls-3" points="15.5 5.97 15.5 0.5 20.97 0.5 20.5 0.97 19.42 2.05 16.19 5.28 15.5 5.97"/><polygon class="cls-3" points="15.5 7.94 15.5 0.5 22.94 0.5 22.56 0.88 21.48 1.96 20.41 3.03 19.33 4.11 18.25 5.19 17.17 6.27 16.09 7.35 15.5 7.94"/><polygon class="cls-3" points="15.5 9.91 15.5 0.5 24.91 0.5 24.63 0.78 23.55 1.86 22.47 2.94 21.39 4.02 20.31 5.1 19.24 6.17 18.16 7.25 17.08 8.33 16 9.41 15.5 9.91"/><polygon class="cls-3" points="15.5 11.87 15.5 0.5 26.88 0.5 25.61 1.77 24.53 2.84 23.45 3.92 22.38 5 19.14 8.24 18.06 9.31 16.99 10.39 15.91 11.47 15.5 11.87"/><polygon class="cls-3" points="15.5 13.84 15.5 0.5 28.84 0.5 25.51 3.83 24.43 4.91 23.36 5.98 22.28 7.06 21.2 8.14 20.12 9.22 19.04 10.3 15.5 13.84"/><polygon class="cls-3" points="15.5 15.81 15.5 0.5 30.5 0.5 30.5 0.81 26.5 4.81 25.42 5.89 24.34 6.97 21.11 10.2 20.03 11.28 18.95 12.36 16.8 14.51 15.72 15.59 15.5 15.81"/><polygon class="cls-3" points="15.5 17.78 15.5 0.5 30.5 0.5 30.5 2.78 29.64 3.64 28.56 4.72 27.48 5.8 19.94 13.34 18.86 14.42 17.78 15.5 16.7 16.58 15.62 17.66 15.5 17.78"/><polygon class="cls-3" points="15.5 19.75 15.5 0.5 30.5 0.5 30.5 4.75 29.55 5.7 28.47 6.78 27.39 7.86 26.31 8.94 25.23 10.02 24.16 11.09 23.08 12.17 22 13.25 20.92 14.33 19.84 15.41 15.5 19.75"/><polygon class="cls-3" points="15.5 21.71 15.5 0.5 30.5 0.5 30.5 6.66 30.53 6.69 30.5 6.72 29.45 7.76 28.37 8.84 27.3 9.92 26.22 11 25.14 12.08 24.06 13.16 22.98 14.23 15.5 21.71"/><polygon class="cls-3" points="15.5 23.68 15.5 0.5 30.5 0.5 30.5 6.66 30.53 6.69 30.5 6.72 30.5 8.68 30.43 8.75 29.35 9.83 28.28 10.9 27.2 11.98 26.12 13.06 25.04 14.14 23.96 15.22 21.81 17.37 20.73 18.45 19.65 19.53 18.57 20.61 17.49 21.69 16.42 22.76 15.5 23.68"/><polygon class="cls-3" points="15.66 25.5 15.5 25.5 15.5 0.5 30.5 0.5 30.5 6.66 30.53 6.69 30.5 6.72 30.5 10.65 29.26 11.89 28.18 12.97 27.11 14.04 26.03 15.12 24.95 16.2 23.88 17.28 22.8 18.36 21.72 19.44 20.64 20.52 19.56 21.59 18.48 22.67 17.41 23.75 15.66 25.5"/><polygon class="cls-3" points="17.63 25.5 15.5 25.5 15.5 0.5 30.5 0.5 30.5 6.66 30.53 6.69 30.5 6.72 30.5 12.62 30.25 12.87 29.17 13.95 28.1 15.03 27.02 16.11 17.63 25.5"/><polygon class="cls-3" points="19.6 25.5 15.5 25.5 15.5 0.5 30.5 0.5 30.5 6.66 30.53 6.69 30.5 6.72 30.5 14.59 24.76 20.33 23.69 21.41 22.61 22.49 21.53 23.56 20.45 24.64 19.6 25.5"/><polygon class="cls-3" points="21.57 25.5 15.5 25.5 15.5 0.5 30.5 0.5 30.5 6.66 30.53 6.69 30.5 6.72 30.5 16.57 21.57 25.5"/><polygon class="cls-3" points="23.53 25.5 15.5 25.5 15.5 0.5 30.5 0.5 30.5 6.66 30.53 6.69 30.5 6.72 30.5 18.54 29.97 19.06 28.89 20.14 27.81 21.22 26.73 22.3 23.53 25.5"/><polygon class="cls-3" points="25.5 25.5 15.5 25.5 15.5 0.5 30.5 0.5 30.5 6.66 30.53 6.69 30.5 6.72 30.5 20.5 28.8 22.2 27.72 23.28 26.64 24.36 25.5 25.5"/><polygon class="cls-3" points="27.47 25.5 15.5 25.5 15.5 0.5 30.5 0.5 30.5 6.66 30.53 6.69 30.5 6.72 30.5 22.47 29.78 23.19 27.47 25.5"/><polygon class="cls-3" points="19.15 25.5 15.5 25.5 15.5 21.84 16.42 22.76 17.41 23.75 18.39 24.74 19.15 25.5"/><polygon class="cls-3" points="21.31 25.5 15.5 25.5 15.5 19.69 15.53 19.72 16.51 20.7 17.49 21.69 18.48 22.67 19.47 23.66 20.45 24.64 21.31 25.5"/><polygon class="cls-3" points="23.47 25.5 15.5 25.5 15.5 17.53 15.62 17.66 16.61 18.64 17.59 19.62 18.57 20.61 19.56 21.59 20.55 22.58 21.53 23.56 23.47 25.5"/><polygon class="cls-3" points="25.63 25.5 15.5 25.5 15.5 15.38 15.72 15.59 16.7 16.58 17.69 17.56 18.67 18.54 19.65 19.53 20.64 20.52 21.63 21.5 22.61 22.49 23.6 23.47 24.58 24.45 25.56 25.44 25.63 25.5"/><polygon class="cls-3" points="27.79 25.5 15.5 25.5 15.5 13.22 15.81 13.53 16.8 14.51 17.78 15.5 18.77 16.48 19.75 17.46 20.73 18.45 21.72 19.44 22.71 20.42 23.69 21.41 24.68 22.39 25.66 23.37 26.64 24.36 27.63 25.34 27.79 25.5"/><polygon class="cls-3" points="29.93 25.5 15.5 25.5 15.5 11.06 15.91 11.47 16.89 12.45 17.87 13.44 18.86 14.42 19.84 15.41 20.82 16.39 21.81 17.37 22.8 18.36 23.78 19.35 24.76 20.33 25.75 21.32 26.73 22.3 27.72 23.28 28.7 24.27 29.93 25.5"/><polygon class="cls-3" points="30.5 25.5 15.5 25.5 15.5 8.9 16 9.41 16.99 10.39 17.97 11.37 18.95 12.36 19.94 13.34 20.92 14.33 21.9 15.31 22.89 16.29 23.88 17.28 24.86 18.27 25.84 19.25 27.81 21.22 28.8 22.2 29.78 23.19 30.5 23.91 30.5 25.5"/><polygon class="cls-3" points="30.5 25.5 15.5 25.5 15.5 6.75 16.09 7.35 17.08 8.33 18.06 9.31 19.04 10.3 20.03 11.28 21.01 12.27 22 13.25 22.98 14.23 23.96 15.22 24.95 16.2 25.94 17.19 26.92 18.17 27.91 19.16 28.89 20.14 29.87 21.13 30.5 21.75 30.5 25.5"/><polygon class="cls-3" points="30.5 25.5 15.5 25.5 15.5 4.6 16.19 5.28 17.17 6.27 18.16 7.25 19.14 8.24 20.12 9.22 21.11 10.2 22.09 11.19 23.08 12.17 24.06 13.16 25.04 14.14 26.03 15.12 27.02 16.11 28 17.09 28.99 18.08 29.97 19.06 30.5 19.59 30.5 25.5"/><polygon class="cls-3" points="30.5 25.5 15.5 25.5 15.5 2.44 16.28 3.22 17.27 4.2 18.25 5.19 19.24 6.17 20.22 7.16 21.2 8.14 22.19 9.12 23.17 10.11 24.16 11.09 25.14 12.08 26.12 13.06 27.11 14.04 30.5 17.43 30.5 25.5"/><polygon class="cls-3" points="30.5 25.5 15.5 25.5 15.5 0.5 15.72 0.5 17.36 2.14 18.34 3.13 19.33 4.11 20.31 5.1 21.3 6.08 22.28 7.06 23.26 8.05 24.25 9.03 25.23 10.02 26.22 11 27.2 11.98 28.18 12.97 29.17 13.95 30.15 14.94 30.5 15.29 30.5 25.5"/><polygon class="cls-3" points="30.5 25.5 15.5 25.5 15.5 0.5 17.88 0.5 18.44 1.06 19.42 2.05 20.41 3.03 21.39 4.02 22.38 5 23.36 5.98 24.34 6.97 25.33 7.95 26.31 8.94 27.3 9.92 28.28 10.9 29.26 11.89 30.25 12.87 30.5 13.13 30.5 25.5"/><polygon class="cls-3" points="30.5 25.5 15.5 25.5 15.5 0.5 20.03 0.5 20.5 0.97 21.48 1.96 22.47 2.94 23.45 3.92 24.43 4.91 25.42 5.89 26.4 6.88 27.39 7.86 28.37 8.84 29.35 9.83 30.34 10.81 30.5 10.97 30.5 25.5"/><polygon class="cls-3" points="30.5 25.5 15.5 25.5 15.5 0.5 22.19 0.5 22.56 0.88 23.55 1.86 24.53 2.84 25.51 3.83 26.5 4.81 27.48 5.8 28.47 6.78 29.45 7.76 30.43 8.75 30.5 8.81 30.5 25.5"/><polygon class="cls-3" points="30.5 25.5 15.5 25.5 15.5 0.5 24.34 0.5 24.63 0.78 25.61 1.77 26.59 2.75 27.58 3.73 28.56 4.72 29.55 5.7 30.5 6.66 30.53 6.69 30.5 6.72 30.5 25.5"/><polygon class="cls-3" points="30.5 25.5 15.5 25.5 15.5 0.5 26.5 0.5 26.69 0.69 27.67 1.67 28.65 2.66 29.64 3.64 30.5 4.5 30.5 6.66 30.53 6.69 30.5 6.72 30.5 25.5"/><rect class="cls-2" x="60.49" y="0.5" width="15" height="25"/><rect x="67.86" y="-4.51" width="0.25" height="15" transform="translate(70.98 -64.99) rotate(90)"/><rect x="67.86" y="-2.01" width="0.25" height="15" transform="translate(73.48 -62.49) rotate(90)"/><rect x="67.86" y="0.49" width="0.25" height="15" transform="translate(75.98 -59.99) rotate(90)"/><rect x="67.86" y="2.99" width="0.25" height="15" transform="translate(78.48 -57.49) rotate(90)"/><rect x="67.86" y="5.49" width="0.25" height="15" transform="translate(80.98 -54.99) rotate(90)"/><rect x="67.86" y="7.99" width="0.25" height="15" transform="translate(83.48 -52.49) rotate(90)"/><rect x="67.86" y="10.49" width="0.25" height="15" transform="translate(85.98 -49.99) rotate(90)"/><rect x="67.86" y="12.99" width="0.25" height="15" transform="translate(88.48 -47.49) rotate(90)"/><rect x="67.86" y="15.49" width="0.25" height="15" transform="translate(90.98 -44.99) rotate(90)"/></g></g></svg>