<svg xmlns="http://www.w3.org/2000/svg" viewBox="0 0 91 26"><defs><style>.cls-1,.cls-2,.cls-3{stroke:#000;stroke-miterlimit:10;}.cls-2,.cls-3{fill:none;}.cls-3{stroke-width:0.25px;}</style></defs><title>Artboard7</title><g id="Layer_2" data-name="Layer 2"><g id="Layer_1-2" data-name="Layer 1"><rect class="cls-1" x="60.5" y="0.5" width="15" height="25"/><path class="cls-2" d="M30.5,25.5V.5h-15v25ZM17.86,1.68v0Zm2.09,0v0Zm2.08,0v0Zm2.08,0v0Zm2.09,0v0Zm2.08,0v0Zm-10.42,3v0Zm2.09,0v0Zm2.08,0v0Zm2.08,0v0Zm2.09,0v0Zm2.08,0v0Zm-10.42,3v0Zm2.09,0v0Zm2.08,0v0Zm2.08,0v0Zm2.09,0v0Zm2.08,0v0Zm-10.42,3v0Zm2.09,0v0Zm2.08,0v0Zm2.08,0v0Zm2.09,0v0Zm2.08,0v0Zm-10.42,3v0Zm2.09,0v0Zm2.08,0v0Zm2.08,0v0Zm2.09,0v0Zm2.08,0v0Zm-10.42,3v0Zm2.09,0v0Zm2.08,0v0Zm2.08,0v0Zm2.09,0v0Zm2.08,0v0Zm-10.42,3v0Zm2.09,0v0Zm2.08,0v0Zm2.08,0v0Zm2.09,0v0Zm2.08,0v0Zm-10.42,3v0Zm2.09,0v0Zm2.08,0v0Zm2.08,0v0Zm2.09,0v0Zm2.08,0v0Z"/><rect class="cls-2" x="0.5" y="0.5" width="15" height="25"/><polygon class="cls-3" points="3.51 25.5 0.5 25.5 0.5 22.49 3.51 25.5"/><polygon class="cls-3" points="5.54 25.5 0.5 25.5 0.5 20.46 5.54 25.5"/><polygon class="cls-3" points="7.57 25.5 0.5 25.5 0.5 18.43 7.57 25.5"/><polygon class="cls-3" points="9.6 25.5 0.5 25.5 0.5 16.4 9.6 25.5"/><polygon class="cls-3" points="11.63 25.5 0.5 25.5 0.5 14.37 11.63 25.5"/><polygon class="cls-3" points="13.66 25.5 0.5 25.5 0.5 12.34 13.66 25.5"/><polygon class="cls-3" points="15.5 25.5 0.5 25.5 0.5 10.31 15.5 25.31 15.5 25.5"/><polygon class="cls-3" points="15.5 25.5 0.5 25.5 0.5 8.29 15.5 23.29 15.5 25.5"/><polygon class="cls-3" points="15.5 25.5 0.5 25.5 0.5 6.25 15.5 21.25 15.5 25.5"/><polygon class="cls-3" points="15.5 25.5 0.5 25.5 0.5 4.23 15.5 19.23 15.5 25.5"/><polygon class="cls-3" points="15.5 25.5 0.5 25.5 0.5 2.2 15.5 17.2 15.5 25.5"/><polygon class="cls-3" points="15.5 25.5 0.5 25.5 0.5 0.5 0.83 0.5 15.5 15.17 15.5 25.5"/><polygon class="cls-3" points="15.5 25.5 0.5 25.5 0.5 0.5 2.86 0.5 15.5 13.14 15.5 25.5"/><polygon class="cls-3" points="15.5 25.5 0.5 25.5 0.5 0.5 4.89 0.5 15.5 11.11 15.5 25.5"/><polygon class="cls-3" points="15.5 25.5 0.5 25.5 0.5 0.5 6.92 0.5 15.5 9.08 15.5 25.5"/><polygon class="cls-3" points="15.5 25.5 0.5 25.5 0.5 0.5 8.95 0.5 15.5 7.05 15.5 25.5"/><polygon class="cls-3" points="15.5 25.5 0.5 25.5 0.5 0.5 10.98 0.5 15.5 5.02 15.5 25.5"/><polygon class="cls-3" points="15.5 25.5 0.5 25.5 0.5 0.5 13.01 0.5 15.5 2.99 15.5 25.5"/><rect class="cls-2" x="45.5" y="0.5" width="15" height="25"/><polygon class="cls-3" points="45.5 3.58 45.5 0.5 48.58 0.5 45.5 3.58"/><polygon class="cls-3" points="45.5 5.75 45.5 0.5 50.75 0.5 45.5 5.75"/><polygon class="cls-3" points="45.5 7.91 45.5 0.5 52.91 0.5 45.5 7.91"/><polygon class="cls-3" points="45.5 10.08 45.5 0.5 55.08 0.5 45.5 10.08"/><polygon class="cls-3" points="45.5 12.25 45.5 0.5 57.25 0.5 45.5 12.25"/><polygon class="cls-3" points="45.5 0.5 59.41 0.5 45.5 14.41 45.5 0.5"/><polygon class="cls-3" points="45.5 16.58 45.5 0.5 60.5 0.5 60.5 1.58 45.5 16.58"/><polygon class="cls-3" points="45.5 18.75 45.5 0.5 60.5 0.5 60.5 3.75 45.5 18.75"/><polygon class="cls-3" points="45.5 0.5 60.5 0.5 60.5 5.91 45.5 20.91 45.5 0.5"/><polygon class="cls-3" points="45.5 23.08 45.5 0.5 60.5 0.5 60.5 8.08 45.5 23.08"/><polygon class="cls-3" points="45.5 25.25 45.5 0.5 60.5 0.5 60.5 10.25 45.5 25.25"/><polygon class="cls-3" points="45.5 0.5 60.5 0.5 60.5 12.41 47.41 25.5 45.5 25.5 45.5 0.5"/><polygon class="cls-3" points="49.58 25.5 45.5 25.5 45.5 0.5 60.5 0.5 60.5 14.58 49.58 25.5"/><polygon class="cls-3" points="51.75 25.5 45.5 25.5 45.5 0.5 60.5 0.5 60.5 16.75 51.75 25.5"/><polygon class="cls-3" points="45.5 0.5 60.5 0.5 60.5 18.91 53.91 25.5 45.5 25.5 45.5 0.5"/><polygon class="cls-3" points="56.08 25.5 45.5 25.5 45.5 0.5 60.5 0.5 60.5 21.08 56.08 25.5"/><polygon class="cls-3" points="58.25 25.5 45.5 25.5 45.5 0.5 60.5 0.5 60.5 23.25 58.25 25.5"/><rect class="cls-2" x="30.5" y="0.5" width="15" height="25"/><polygon class="cls-3" points="30.5 4 30.5 0.5 34 0.5 30.5 4"/><polygon class="cls-3" points="30.5 5.97 30.5 0.5 35.97 0.5 35.5 0.97 34.42 2.05 31.19 5.28 30.5 5.97"/><polygon class="cls-3" points="30.5 7.94 30.5 0.5 37.94 0.5 37.56 0.88 36.48 1.96 35.41 3.03 34.33 4.11 33.25 5.19 32.17 6.27 31.09 7.35 30.5 7.94"/><polygon class="cls-3" points="30.5 9.91 30.5 0.5 39.91 0.5 39.63 0.78 38.55 1.86 37.47 2.94 36.39 4.02 35.31 5.1 34.24 6.17 33.16 7.25 32.08 8.33 31 9.41 30.5 9.91"/><polygon class="cls-3" points="30.5 11.87 30.5 0.5 41.88 0.5 40.61 1.77 39.53 2.84 38.45 3.92 37.38 5 34.14 8.24 33.06 9.31 31.99 10.39 30.91 11.47 30.5 11.87"/><polygon class="cls-3" points="30.5 13.84 30.5 0.5 43.84 0.5 40.51 3.83 39.43 4.91 38.36 5.98 37.28 7.06 36.2 8.14 35.12 9.22 34.04 10.3 30.5 13.84"/><polygon class="cls-3" points="30.5 15.81 30.5 0.5 45.5 0.5 45.5 0.81 41.5 4.81 40.42 5.89 39.34 6.97 36.11 10.2 35.03 11.28 33.95 12.36 31.8 14.51 30.72 15.59 30.5 15.81"/><polygon class="cls-3" points="30.5 17.78 30.5 0.5 45.5 0.5 45.5 2.78 44.64 3.64 43.56 4.72 42.48 5.8 34.94 13.34 33.86 14.42 32.78 15.5 31.7 16.58 30.62 17.66 30.5 17.78"/><polygon class="cls-3" points="30.5 19.75 30.5 0.5 45.5 0.5 45.5 4.75 44.55 5.7 43.47 6.78 42.39 7.86 41.31 8.94 40.23 10.02 39.16 11.09 38.08 12.17 37 13.25 35.92 14.33 34.84 15.41 30.5 19.75"/><polygon class="cls-3" points="30.5 21.71 30.5 0.5 45.5 0.5 45.5 6.66 45.53 6.69 45.5 6.72 44.45 7.76 43.37 8.84 42.3 9.92 41.22 11 40.14 12.08 39.06 13.16 37.98 14.23 30.5 21.71"/><polygon class="cls-3" points="30.5 23.68 30.5 0.5 45.5 0.5 45.5 6.66 45.53 6.69 45.5 6.72 45.5 8.68 45.43 8.75 44.35 9.83 43.28 10.9 42.2 11.98 41.12 13.06 40.04 14.14 38.96 15.22 36.81 17.37 35.73 18.45 34.65 19.53 33.57 20.61 32.49 21.69 31.42 22.76 30.5 23.68"/><polygon class="cls-3" points="30.66 25.5 30.5 25.5 30.5 0.5 45.5 0.5 45.5 6.66 45.53 6.69 45.5 6.72 45.5 10.65 44.26 11.89 43.18 12.97 42.11 14.04 41.03 15.12 39.95 16.2 38.88 17.28 37.8 18.36 36.72 19.44 35.64 20.52 34.56 21.59 33.48 22.67 32.41 23.75 30.66 25.5"/><polygon class="cls-3" points="32.63 25.5 30.5 25.5 30.5 0.5 45.5 0.5 45.5 6.66 45.53 6.69 45.5 6.72 45.5 12.62 45.25 12.87 44.17 13.95 43.1 15.03 42.02 16.11 32.63 25.5"/><polygon class="cls-3" points="34.6 25.5 30.5 25.5 30.5 0.5 45.5 0.5 45.5 6.66 45.53 6.69 45.5 6.72 45.5 14.59 39.76 20.33 38.69 21.41 37.61 22.49 36.53 23.56 35.45 24.64 34.6 25.5"/><polygon class="cls-3" points="36.57 25.5 30.5 25.5 30.5 0.5 45.5 0.5 45.5 6.66 45.53 6.69 45.5 6.72 45.5 16.57 36.57 25.5"/><polygon class="cls-3" points="38.53 25.5 30.5 25.5 30.5 0.5 45.5 0.5 45.5 6.66 45.53 6.69 45.5 6.72 45.5 18.54 44.97 19.06 43.89 20.14 42.81 21.22 41.73 22.3 38.53 25.5"/><polygon class="cls-3" points="40.5 25.5 30.5 25.5 30.5 0.5 45.5 0.5 45.5 6.66 45.53 6.69 45.5 6.72 45.5 20.5 43.8 22.2 42.72 23.28 41.64 24.36 40.5 25.5"/><polygon class="cls-3" points="42.47 25.5 30.5 25.5 30.5 0.5 45.5 0.5 45.5 6.66 45.53 6.69 45.5 6.72 45.5 22.47 44.78 23.19 42.47 25.5"/><polygon class="cls-3" points="34.15 25.5 30.5 25.5 30.5 21.84 31.42 22.76 32.41 23.75 33.39 24.74 34.15 25.5"/><polygon class="cls-3" points="36.31 25.5 30.5 25.5 30.5 19.69 30.53 19.72 31.51 20.7 32.49 21.69 33.48 22.67 34.47 23.66 35.45 24.64 36.31 25.5"/><polygon class="cls-3" points="38.47 25.5 30.5 25.5 30.5 17.53 30.62 17.66 31.61 18.64 32.59 19.62 33.57 20.61 34.56 21.59 35.55 22.58 36.53 23.56 38.47 25.5"/><polygon class="cls-3" points="40.63 25.5 30.5 25.5 30.5 15.38 30.72 15.59 31.7 16.58 32.69 17.56 33.67 18.54 34.65 19.53 35.64 20.52 36.63 21.5 37.61 22.49 38.6 23.47 39.58 24.45 40.56 25.44 40.63 25.5"/><polygon class="cls-3" points="42.79 25.5 30.5 25.5 30.5 13.22 30.81 13.53 31.8 14.51 32.78 15.5 33.77 16.48 34.75 17.46 35.73 18.45 36.72 19.44 37.71 20.42 38.69 21.41 39.68 22.39 40.66 23.37 41.64 24.36 42.63 25.34 42.79 25.5"/><polygon class="cls-3" points="44.93 25.5 30.5 25.5 30.5 11.06 30.91 11.47 31.89 12.45 32.87 13.44 33.86 14.42 34.84 15.41 35.82 16.39 36.81 17.37 37.8 18.36 38.78 19.35 39.76 20.33 40.75 21.32 41.73 22.3 42.72 23.28 43.7 24.27 44.93 25.5"/><polygon class="cls-3" points="45.5 25.5 30.5 25.5 30.5 8.9 31 9.41 31.99 10.39 32.97 11.37 33.95 12.36 34.94 13.34 35.92 14.33 36.9 15.31 37.89 16.29 38.88 17.28 39.86 18.27 40.84 19.25 42.81 21.22 43.8 22.2 44.78 23.19 45.5 23.91 45.5 25.5"/><polygon class="cls-3" points="45.5 25.5 30.5 25.5 30.5 6.75 31.09 7.35 32.08 8.33 33.06 9.31 34.04 10.3 35.03 11.28 36.01 12.27 37 13.25 37.98 14.23 38.96 15.22 39.95 16.2 40.94 17.19 41.92 18.17 42.91 19.16 43.89 20.14 44.87 21.13 45.5 21.75 45.5 25.5"/><polygon class="cls-3" points="45.5 25.5 30.5 25.5 30.5 4.6 31.19 5.28 32.17 6.27 33.16 7.25 34.14 8.24 35.12 9.22 36.11 10.2 37.09 11.19 38.08 12.17 39.06 13.16 40.04 14.14 41.03 15.12 42.02 16.11 43 17.09 43.99 18.08 44.97 19.06 45.5 19.59 45.5 25.5"/><polygon class="cls-3" points="45.5 25.5 30.5 25.5 30.5 2.44 31.28 3.22 32.27 4.2 33.25 5.19 34.24 6.17 35.22 7.16 36.2 8.14 37.19 9.12 38.17 10.11 39.16 11.09 40.14 12.08 41.12 13.06 42.11 14.04 45.5 17.43 45.5 25.5"/><polygon class="cls-3" points="45.5 25.5 30.5 25.5 30.5 0.5 30.72 0.5 32.36 2.14 33.34 3.13 34.33 4.11 35.31 5.1 36.3 6.08 37.28 7.06 38.26 8.05 39.25 9.03 40.23 10.02 41.22 11 42.2 11.98 43.18 12.97 44.17 13.95 45.15 14.94 45.5 15.29 45.5 25.5"/><polygon class="cls-3" points="45.5 25.5 30.5 25.5 30.5 0.5 32.88 0.5 33.44 1.06 34.42 2.05 35.41 3.03 36.39 4.02 37.38 5 38.36 5.98 39.34 6.97 40.33 7.95 41.31 8.94 42.3 9.92 43.28 10.9 44.26 11.89 45.25 12.87 45.5 13.13 45.5 25.5"/><polygon class="cls-3" points="45.5 25.5 30.5 25.5 30.5 0.5 35.03 0.5 35.5 0.97 36.48 1.96 37.47 2.94 38.45 3.92 39.43 4.91 40.42 5.89 41.4 6.88 42.39 7.86 43.37 8.84 44.35 9.83 45.34 10.81 45.5 10.97 45.5 25.5"/><polygon class="cls-3" points="45.5 25.5 30.5 25.5 30.5 0.5 37.19 0.5 37.56 0.88 38.55 1.86 39.53 2.84 40.51 3.83 41.5 4.81 42.48 5.8 43.47 6.78 44.45 7.76 45.43 8.75 45.5 8.81 45.5 25.5"/><polygon class="cls-3" points="45.5 25.5 30.5 25.5 30.5 0.5 39.34 0.5 39.63 0.78 40.61 1.77 41.59 2.75 42.58 3.73 43.56 4.72 44.55 5.7 45.5 6.66 45.53 6.69 45.5 6.72 45.5 25.5"/><polygon class="cls-3" points="45.5 25.5 30.5 25.5 30.5 0.5 41.5 0.5 41.69 0.69 42.67 1.67 43.65 2.66 44.64 3.64 45.5 4.5 45.5 6.66 45.53 6.69 45.5 6.72 45.5 25.5"/><rect class="cls-2" x="75.5" y="0.5" width="15" height="25"/><rect x="82.88" y="-4.51" width="0.25" height="15" transform="translate(86 -80.01) rotate(90)"/><rect x="82.88" y="-2.01" width="0.25" height="15" transform="translate(88.5 -77.51) rotate(90)"/><rect x="82.88" y="0.49" width="0.25" height="15" transform="translate(91 -75.01) rotate(90)"/><rect x="82.88" y="2.99" width="0.25" height="15" transform="translate(93.5 -72.51) rotate(90)"/><rect x="82.88" y="5.49" width="0.25" height="15" transform="translate(96 -70.01) rotate(90)"/><rect x="82.88" y="7.99" width="0.25" height="15" transform="translate(98.5 -67.51) rotate(90)"/><rect x="82.88" y="10.49" width="0.25" height="15" transform="translate(101 -65.01) rotate(90)"/><rect x="82.88" y="12.99" width="0.25" height="15" transform="translate(103.5 -62.51) rotate(90)"/><rect x="82.88" y="15.49" width="0.25" height="15" transform="translate(106 -60.01) rotate(90)"/></g></g></svg>