<svg xmlns="http://www.w3.org/2000/svg" xmlns:xlink="http://www.w3.org/1999/xlink" viewBox="0 0 225.27 175.65"><defs><style>.cls-1,.cls-5{fill:#fff;}.cls-2{mask:url(#mask);}.cls-3{fill:#cde5e8;}.cls-4{fill:none;}.cls-4,.cls-5{stroke:#000;stroke-width:1.5px;}</style><mask id="mask" x="0.75" y="0.75" width="224.32" height="174.15" maskUnits="userSpaceOnUse"><g id="mask-2"><rect id="path-1" class="cls-1" x="0.75" y="0.75" width="223.77" height="174.15"/></g></mask></defs><title>Artboard1</title><g id="Layer_2" data-name="Layer 2"><g id="Layer_1-2" data-name="Layer 1"><g id="mask-2-2" data-name="mask-2"><rect id="path-1-2" data-name="path-1" class="cls-1" x="0.75" y="0.75" width="223.77" height="174.15"/></g><rect id="SVGID" x="0.75" y="0.75" width="223.77" height="174.15"/><g class="cls-2"><rect id="Rectangle-path" class="cls-3" x="1.45" y="66.05" width="223.62" height="43.5"/></g><rect id="SVGID-2" data-name="SVGID" class="cls-4" x="0.75" y="0.75" width="223.77" height="174.15"/><rect id="Rectangle-path-2" data-name="Rectangle-path" class="cls-5" x="109.18" y="84.8" width="68.73" height="51.9"/><path id="Shape" d="M138.37,102.45c.3-.25.6-.55.95-.8a8.55,8.55,0,0,1,1.15-.65,5.35,5.35,0,0,1,1.35-.45,7.91,7.91,0,0,1,1.6-.15,5.79,5.79,0,0,1,2.1.35,4.4,4.4,0,0,1,2.76,2.35,4.61,4.61,0,0,1,.4,1.9,4.63,4.63,0,0,1-1.1,3.2,6.45,6.45,0,0,1-1.05,1l-1.11.8a6.47,6.47,0,0,0-.85.75,1.23,1.23,0,0,0-.4.85l-.25,2.15h-1.75L142,111.4v-.15a1.85,1.85,0,0,1,.3-1,4.26,4.26,0,0,1,.8-.85c.35-.25.7-.55,1-.8a8.4,8.4,0,0,0,1.05-.9,4.12,4.12,0,0,0,.8-1.1,3.26,3.26,0,0,0,.3-1.45,2.58,2.58,0,0,0-.9-1.95,3,3,0,0,0-.95-.55,4.3,4.3,0,0,0-1.2-.2,4.54,4.54,0,0,0-1.5.2,11,11,0,0,0-1.05.45c-.3.15-.5.35-.7.45a.61.61,0,0,1-.45.2.58.58,0,0,1-.55-.35l-.65-.9Zm2.8,17a1.6,1.6,0,0,1,.15-.7,2.06,2.06,0,0,1,.35-.55,2.22,2.22,0,0,1,.55-.4,1.71,1.71,0,0,1,1.4,0,1.42,1.42,0,0,1,.55.4,2.22,2.22,0,0,1,.4.55,1.71,1.71,0,0,1,0,1.4,1.42,1.42,0,0,1-.4.55,2.22,2.22,0,0,1-.55.4,1.71,1.71,0,0,1-1.4,0,1.42,1.42,0,0,1-.55-.4,1.29,1.29,0,0,1-.35-.55,1.6,1.6,0,0,1-.15-.7Z"/></g></g></svg>