<svg xmlns="http://www.w3.org/2000/svg" viewBox="0 0 131.96 191.69"><defs><style>.cls-1{fill:none;}.cls-1,.cls-2{stroke:#000;stroke-miterlimit:10;}</style></defs><title>Artboard3</title><g id="Layer_2" data-name="Layer 2"><g id="Layer_1-2" data-name="Layer 1"><polyline class="cls-1" points="114.7 101.84 65.98 177.63 17.27 101.84"/><polyline class="cls-1" points="7.4 101.84 65.98 184.7 124.57 101.84"/><polygon class="cls-2" points="65.98 170.55 104.85 101.84 27.11 101.84 65.98 170.55"/><polyline class="cls-1" points="124.57 89.84 65.98 6.99 7.4 89.84"/><polyline class="cls-1" points="17.27 89.84 65.98 14.06 114.7 89.84"/><polygon class="cls-2" points="65.98 20.13 27.11 88.84 104.85 88.84 65.98 20.13"/><circle cx="65.98" cy="95.84" r="4"/><circle cx="31.11" cy="95.84" r="4"/><circle cx="100.85" cy="95.84" r="4"/><polyline class="cls-1" points="0.4 101.84 65.98 190.84 131.56 101.84"/><polyline class="cls-1" points="131.56 89.84 65.98 0.84 0.4 89.84"/></g></g></svg>