<svg xmlns="http://www.w3.org/2000/svg" viewBox="0 0 90.39 71"><defs><style>.cls-1{fill:none;stroke:#000;stroke-miterlimit:10;}</style></defs><title>Artboard1</title><g id="Layer_2" data-name="Layer 2"><g id="Layer_1-2" data-name="Layer 1"><path class="cls-1" d="M89.89,31.5C87.34,14.05,68.31.5,45.19.5S3.05,14.05.49,31.5"/><path class="cls-1" d="M5.56,31.5c2.61-14.68,19.35-26,39.63-26s37,11.32,39.64,26"/><path class="cls-1" d="M84.83,39.5c-2.61,14.68-19.35,26-39.64,26s-37-11.32-39.63-26"/><path class="cls-1" d="M.49,39.5c2.56,17.45,21.59,31,44.7,31S87.34,57,89.89,39.5"/><path class="cls-1" d="M10.65,31.5c2.68-11.9,17.12-21,34.54-21s31.87,9.1,34.55,21"/><path class="cls-1" d="M79.74,39.5c-2.68,11.9-17.12,21-34.55,21s-31.86-9.1-34.54-21"/><path class="cls-1" d="M15.79,31.5c2.78-9.13,14.89-16,29.4-16s26.62,6.87,29.4,16"/><path class="cls-1" d="M74.59,39.5c-2.78,9.13-14.88,16-29.4,16s-26.62-6.87-29.4-16"/><path d="M45.19,18c-7.1,0-13,5.77-14.59,13.5H59.78C58.23,23.77,52.3,18,45.19,18Z"/><path d="M45.19,53c7.11,0,13-5.77,14.59-13.5H30.6C32.16,47.23,38.09,53,45.19,53Z"/><circle cx="45.19" cy="35.5" r="2.5"/><circle cx="35.19" cy="35.5" r="2.5"/><circle cx="54.94" cy="35.5" r="2.5"/></g></g></svg>