<svg xmlns="http://www.w3.org/2000/svg" viewBox="0 0 51 70.07"><defs><style>.cls-1{fill:none;stroke:#000;stroke-miterlimit:10;}</style></defs><title>Artboard2</title><g id="Layer_2" data-name="Layer 2"><g id="Layer_1-2" data-name="Layer 1"><path class="cls-1" d="M29.5.49c11.9,2.68,21,17.12,21,34.55s-9.1,31.86-21,34.54"/><path class="cls-1" d="M21.5,69.58C9.6,66.9.5,52.46.5,35S9.6,3.17,21.5.49"/><path class="cls-1" d="M29.5,5.64c9.13,2.78,16,14.88,16,29.4s-6.87,26.62-16,29.4"/><path class="cls-1" d="M21.5,64.44c-9.13-2.78-16-14.89-16-29.4s6.87-26.62,16-29.4"/><path d="M43,35c0-7.11-5.77-13-13.5-14.59V49.63C37.23,48.07,43,42.14,43,35Z"/><path d="M7.75,35c0,7.1,5.77,13,13.5,14.59V20.45C13.52,22,7.75,27.93,7.75,35Z"/><circle cx="25.5" cy="35.04" r="2.5"/><circle cx="25.5" cy="3.87" r="2.5"/><circle cx="25.5" cy="66.2" r="2.5"/></g></g></svg>