<svg xmlns="http://www.w3.org/2000/svg" viewBox="0 0 200.71 200.71"><defs><style>.cls-1{fill:none;stroke:#000;stroke-miterlimit:10;}</style></defs><title>Artboard1</title><g id="Layer_2" data-name="Layer 2"><g id="Layer_1-2" data-name="Layer 1"><path d="M199.35,1.35v198H1.35V1.35h198m1-1H.35v200h200V.35Z"/><line class="cls-1" x1="0.35" y1="100.35" x2="100.35" y2="0.35"/><line class="cls-1" x1="0.35" y1="100.35" x2="200.35" y2="100.35"/><line class="cls-1" x1="100.35" y1="0.35" x2="100.35" y2="200.35"/><line class="cls-1" x1="100.35" y1="0.35" x2="200.35" y2="100.35"/><line class="cls-1" x1="100.35" y1="200.35" x2="200.35" y2="100.35"/><line class="cls-1" x1="0.35" y1="50.35" x2="200.35" y2="50.35"/><line class="cls-1" x1="100.35" y1="150.35" x2="200.35" y2="150.35"/><line class="cls-1" x1="150.35" y1="1.29" x2="150.35" y2="200.35"/><line class="cls-1" x1="50.35" y1="0.35" x2="50.35" y2="100.35"/><line class="cls-1" x1="50.35" y1="100.35" x2="100.35" y2="50.35"/><line class="cls-1" x1="150.35" y1="100.35" x2="100.35" y2="50.35"/><line class="cls-1" x1="100.35" y1="150.35" x2="150.35" y2="100.35"/></g></g></svg>