<svg id="Layer_1" data-name="Layer 1" xmlns="http://www.w3.org/2000/svg" viewBox="0 0 200 200"><defs><style>.cls-1{fill:blue;}.cls-2{font-size:8px;font-family:Georgia, Georgia;}</style></defs><title>Artboard 1</title><rect class="cls-1" x="60.13" y="75.13" width="79.75" height="49.75"/><path d="M139.75,75.25v49.5H60.25V75.25h79.5M140,75H60v50h80V75Z"/><path d="M100.5,56l8.23,14.25H92.27L100.5,56m0-.5-8.66,15h17.32l-8.66-15Z"/><path d="M128.5,56l8.23,14.25H120.27L128.5,56m0-.5-8.66,15h17.32l-8.66-15Z"/><path d="M72.5,56l8.23,14.25H64.27L72.5,56m0-.5-8.66,15H81.16l-8.66-15Z"/><text class="cls-2" transform="translate(52 103)">O</text><text class="cls-2" transform="translate(96.58 133)">H</text><text class="cls-2" transform="translate(141.25 102.08)">+</text></svg>