<svg id="Layer_1" data-name="Layer 1" xmlns="http://www.w3.org/2000/svg" viewBox="0 0 200 200"><defs><style>.cls-1{fill:blue;}.cls-2{font-size:8px;font-family:Georgia, Georgia;}</style></defs><title>Artboard 2</title><rect class="cls-1" x="60.13" y="75.46" width="79.75" height="49.75"/><path d="M139.75,75.58v49.5H60.25V75.58h79.5m.25-.25H60v50h80v-50Z"/><path d="M107.73,130.08,99.5,144.33l-8.23-14.25h16.46m.43-.25H90.84l8.66,15,8.66-15Z"/><path d="M79.73,130.08,71.5,144.33l-8.23-14.25H79.73m.43-.25H62.84l8.66,15,8.66-15Z"/><path d="M135.73,130.08l-8.23,14.25-8.23-14.25h16.46m.43-.25H118.84l8.66,15,8.66-15Z"/><text class="cls-2" transform="translate(148 97.33) rotate(180)">O</text><text class="cls-2" transform="translate(103.42 67.33) rotate(180)">H</text><text class="cls-2" transform="translate(58.75 98.25) rotate(180)">+</text></svg>