<svg id="Layer_1" data-name="Layer 1" xmlns="http://www.w3.org/2000/svg" viewBox="0 0 200 167.25"><defs><style>.cls-1{fill:blue;}.cls-2{font-size:16.56px;stroke:#000;stroke-miterlimit:10;font-family:Georgia, Georgia;}</style></defs><title>Artboard 2</title><rect class="cls-1" x="18.84" y="22.48" width="160.6" height="98.5"/><path d="M176.94,25v93.5H21.34V25h155.6m5-5H16.34v103.5h165.6V20Z"/><path d="M107.37,137.79l-9.26,16.05-9.27-16.05h18.53m8.66-5H80.18l17.93,31.05L116,132.79Z"/><path d="M49.41,137.79l-9.26,16.05-9.27-16.05H49.41m8.66-5H22.22l17.93,31.05,17.92-31.05Z"/><path d="M165.33,137.79l-9.26,16.05-9.27-16.05h18.53m8.66-5H138.14l17.93,31.05L174,132.79Z"/><text class="cls-2" transform="translate(198.5 65.52) rotate(180)">O</text><text class="cls-2" transform="translate(106.21 3.42) rotate(180)">H</text><text class="cls-2" transform="translate(13.75 67.42) rotate(180)">+</text></svg>