<svg id="Layer_1" data-name="Layer 1" xmlns="http://www.w3.org/2000/svg" viewBox="0 0 200 167.75"><defs><style>.cls-1{fill:blue;}.cls-2{font-size:16.66px;stroke:#000;stroke-miterlimit:10;font-family:Georgia, Georgia;}</style></defs><title>Artboard 1</title><rect class="cls-1" x="20.86" y="45.88" width="161.62" height="99.14"/><path d="M180,48.38v94.14H23.36V48.38H180m5-5H18.36V147.52H185V43.38Z"/><path d="M102.71,12.77,112.09,29H93.34l9.37-16.24m0-10L84.68,34h36.07l-18-31.24Z"/><path d="M161,12.77,170.41,29H151.66L161,12.77m0-10L143,34h36.07L161,2.77Z"/><path d="M44.4,12.77,53.77,29H35L44.4,12.77m0-10L26.36,34H62.43L44.4,2.77Z"/><text class="cls-2" transform="translate(1.7 101.7)">O</text><text class="cls-2" transform="translate(94.56 164.18)">H</text><text class="cls-2" transform="translate(187.59 99.79)">+</text></svg>