<svg xmlns="http://www.w3.org/2000/svg" viewBox="0 0 101 51"><defs><style>.cls-1,.cls-2{fill:none;stroke:#000;stroke-miterlimit:10;}.cls-2{stroke-width:0.25px;}</style></defs><title>Artboard3</title><g id="Layer_2" data-name="Layer 2"><g id="Layer_1-2" data-name="Layer 1"><path class="cls-1" d="M100.5.5A50,50,0,0,1,.5.5Z"/><polygon class="cls-1" points="66.68 35.27 64.2 35.28 61.71 35.29 59.23 35.3 56.76 35.31 54.27 35.32 53.87 35.32 53.02 36.57 47.72 44.35 46.65 45.91 46.53 45.54 45.91 43.67 45.3 41.82 44.69 39.96 44.08 38.1 43.46 36.24 42.85 34.38 42.64 33.75 41.38 33.38 39.47 32.82 37.56 32.26 35.65 31.7 33.73 31.15 31.82 30.59 30.34 30.16 37.53 24.88 40.67 22.57 40.65 21.76 40.57 19.36 40.5 16.96 40.43 14.57 40.36 12.17 40.28 9.77 41.73 10.8 43.16 11.84 44.6 12.87 46.03 13.9 47.47 14.94 48.91 15.97 50.34 17 50.69 17.25 53.62 16.2 57.48 14.81 61.33 13.43 62.74 12.93 62.01 15.23 60.85 18.86 59.69 22.49 58.84 25.13 59.14 25.51 60.22 26.9 61.29 28.3 62.37 29.69 63.45 31.09 64.53 32.48 65.6 33.87 66.68 35.27"/><line class="cls-2" x1="40.36" y1="12.17" x2="41.72" y2="10.8"/><line class="cls-2" x1="40.43" y1="14.57" x2="43.16" y2="11.84"/><line class="cls-2" x1="40.5" y1="16.96" x2="44.6" y2="12.87"/><line class="cls-2" x1="40.57" y1="19.36" x2="46.03" y2="13.9"/><line class="cls-2" x1="31.82" y1="30.59" x2="37.53" y2="24.88"/><line class="cls-2" x1="40.65" y1="21.76" x2="47.47" y2="14.94"/><line class="cls-2" x1="33.73" y1="31.15" x2="48.91" y2="15.97"/><line class="cls-2" x1="35.65" y1="31.7" x2="50.34" y2="17"/><line class="cls-2" x1="37.56" y1="32.26" x2="53.62" y2="16.2"/><line class="cls-2" x1="39.47" y1="32.82" x2="57.48" y2="14.81"/><line class="cls-2" x1="41.38" y1="33.38" x2="61.33" y2="13.43"/><line class="cls-2" x1="42.85" y1="34.38" x2="62.01" y2="15.23"/><line class="cls-2" x1="43.46" y1="36.24" x2="60.85" y2="18.86"/><line class="cls-2" x1="44.08" y1="38.1" x2="59.69" y2="22.49"/><line class="cls-2" x1="44.69" y1="39.96" x2="59.14" y2="25.51"/><line class="cls-2" x1="45.3" y1="41.82" x2="60.22" y2="26.9"/><line class="cls-2" x1="54.27" y1="35.32" x2="61.29" y2="28.3"/><line class="cls-2" x1="45.92" y1="43.67" x2="53.02" y2="36.57"/><line class="cls-2" x1="46.53" y1="45.54" x2="47.72" y2="44.35"/><line class="cls-2" x1="56.75" y1="35.31" x2="62.37" y2="29.69"/><line class="cls-2" x1="59.23" y1="35.3" x2="63.45" y2="31.09"/><line class="cls-2" x1="61.71" y1="35.29" x2="64.53" y2="32.48"/><line class="cls-2" x1="64.2" y1="35.28" x2="65.6" y2="33.87"/></g></g></svg>