<svg xmlns="http://www.w3.org/2000/svg" viewBox="0 0 88.33 76.5"><defs><style>.cls-1,.cls-2{fill:none;stroke:#000;stroke-miterlimit:10;}.cls-2{stroke-width:0.25px;}</style></defs><title>Artboard1</title><g id="Layer_2" data-name="Layer 2"><g id="Layer_1-2" data-name="Layer 1"><polygon class="cls-1" points="44.17 1 0.87 76 87.47 76 44.17 1"/><rect class="cls-1" x="34" y="40.83" width="20.34" height="20.34"/><line class="cls-2" x1="34.97" y1="61.17" x2="34.97" y2="40.83"/><line class="cls-2" x1="35.93" y1="61.17" x2="35.93" y2="40.83"/><line class="cls-2" x1="36.9" y1="61.17" x2="36.9" y2="40.83"/><line class="cls-2" x1="37.87" y1="61.17" x2="37.87" y2="40.83"/><line class="cls-2" x1="38.84" y1="61.17" x2="38.84" y2="40.83"/><line class="cls-2" x1="39.81" y1="61.17" x2="39.81" y2="40.83"/><line class="cls-2" x1="40.78" y1="61.17" x2="40.78" y2="40.83"/><line class="cls-2" x1="41.75" y1="61.17" x2="41.75" y2="40.83"/><line class="cls-2" x1="42.71" y1="61.17" x2="42.71" y2="40.83"/><line class="cls-2" x1="43.68" y1="61.17" x2="43.68" y2="40.83"/><line class="cls-2" x1="44.65" y1="61.17" x2="44.65" y2="40.83"/><line class="cls-2" x1="45.62" y1="61.17" x2="45.62" y2="40.83"/><line class="cls-2" x1="46.59" y1="61.17" x2="46.59" y2="40.83"/><line class="cls-2" x1="47.56" y1="61.17" x2="47.56" y2="40.83"/><line class="cls-2" x1="48.52" y1="61.17" x2="48.52" y2="40.83"/><line class="cls-2" x1="49.5" y1="61.17" x2="49.5" y2="40.83"/><line class="cls-2" x1="50.46" y1="61.17" x2="50.46" y2="40.83"/><line class="cls-2" x1="51.43" y1="61.17" x2="51.43" y2="40.83"/><line class="cls-2" x1="52.4" y1="61.17" x2="52.4" y2="40.83"/><line class="cls-2" x1="53.37" y1="61.17" x2="53.37" y2="40.83"/></g></g></svg>