<svg xmlns="http://www.w3.org/2000/svg" viewBox="0 0 101 51"><defs><style>.cls-1,.cls-2{fill:none;stroke:#000;stroke-miterlimit:10;}.cls-2{stroke-width:0.25px;}</style></defs><title>Artboard6</title><g id="Layer_2" data-name="Layer 2"><g id="Layer_1-2" data-name="Layer 1"><path class="cls-1" d="M100.5,50.5a50,50,0,0,0-100,0Z"/><polygon class="cls-1" points="68.67 32.93 66.19 32.94 63.7 32.95 61.22 32.96 58.74 32.97 56.26 32.98 55.86 32.99 55.01 34.23 49.71 42.01 48.64 43.57 48.52 43.2 47.9 41.34 47.29 39.48 46.68 37.62 46.06 35.77 45.45 33.9 44.84 32.05 44.63 31.41 43.37 31.04 41.46 30.48 39.55 29.92 37.63 29.37 35.72 28.81 33.81 28.25 32.33 27.82 39.52 22.54 42.66 20.24 42.64 19.42 42.56 17.02 42.49 14.62 42.42 12.23 42.35 9.83 42.27 7.43 43.71 8.46 45.15 9.5 46.59 10.53 48.02 11.56 49.46 12.6 50.9 13.63 52.33 14.67 52.67 14.91 55.61 13.86 59.47 12.47 63.32 11.09 64.73 10.59 64 12.89 62.84 16.52 61.68 20.16 60.83 22.79 61.13 23.18 62.2 24.57 63.28 25.96 64.36 27.36 65.44 28.75 66.52 30.14 67.59 31.53 68.67 32.93"/><line class="cls-2" x1="42.35" y1="9.83" x2="43.71" y2="8.46"/><line class="cls-2" x1="42.42" y1="12.23" x2="45.15" y2="9.5"/><line class="cls-2" x1="42.49" y1="14.62" x2="46.58" y2="10.53"/><line class="cls-2" x1="42.56" y1="17.02" x2="48.02" y2="11.56"/><line class="cls-2" x1="33.81" y1="28.25" x2="39.52" y2="22.54"/><line class="cls-2" x1="42.64" y1="19.42" x2="49.46" y2="12.6"/><line class="cls-2" x1="35.72" y1="28.81" x2="50.9" y2="13.63"/><line class="cls-2" x1="37.63" y1="29.37" x2="52.33" y2="14.67"/><line class="cls-2" x1="39.55" y1="29.92" x2="55.61" y2="13.86"/><line class="cls-2" x1="41.46" y1="30.48" x2="59.47" y2="12.47"/><line class="cls-2" x1="43.37" y1="31.04" x2="63.32" y2="11.09"/><line class="cls-2" x1="44.84" y1="32.05" x2="64" y2="12.89"/><line class="cls-2" x1="45.45" y1="33.9" x2="62.84" y2="16.52"/><line class="cls-2" x1="46.07" y1="35.77" x2="61.68" y2="20.16"/><line class="cls-2" x1="46.68" y1="37.62" x2="61.13" y2="23.18"/><line class="cls-2" x1="47.29" y1="39.48" x2="62.21" y2="24.57"/><line class="cls-2" x1="56.26" y1="32.98" x2="63.28" y2="25.96"/><line class="cls-2" x1="47.9" y1="41.34" x2="55.01" y2="34.23"/><line class="cls-2" x1="48.52" y1="43.2" x2="49.71" y2="42.01"/><line class="cls-2" x1="58.74" y1="32.97" x2="64.36" y2="27.36"/><line class="cls-2" x1="61.22" y1="32.96" x2="65.44" y2="28.75"/><line class="cls-2" x1="63.7" y1="32.95" x2="66.52" y2="30.14"/><line class="cls-2" x1="66.19" y1="32.94" x2="67.59" y2="31.53"/></g></g></svg>