<svg xmlns="http://www.w3.org/2000/svg" viewBox="0 0 101 51"><defs><style>.cls-1,.cls-2{fill:none;stroke:#000;stroke-miterlimit:10;}.cls-2{stroke-width:0.25px;}</style></defs><title>Artboard4</title><g id="Layer_2" data-name="Layer 2"><g id="Layer_1-2" data-name="Layer 1"><path class="cls-1" d="M100.5,50.5a50,50,0,0,0-100,0Z"/><polygon class="cls-1" points="68.85 20.96 67.1 22.73 65.35 24.49 63.61 26.25 61.86 28.01 60.11 29.78 59.83 30.07 60.11 31.55 61.86 40.79 62.21 42.65 61.86 42.48 60.11 41.59 58.36 40.71 56.62 39.83 54.87 38.95 53.12 38.07 51.37 37.19 50.77 36.89 49.63 37.52 47.88 38.47 46.13 39.43 44.38 40.39 42.64 41.35 40.89 42.3 39.54 43.05 40.89 34.23 41.48 30.38 40.89 29.82 39.14 28.18 37.39 26.53 35.65 24.89 33.9 23.24 32.15 21.6 33.9 21.31 35.65 21.03 37.39 20.74 39.14 20.46 40.89 20.17 42.64 19.89 44.38 19.6 44.8 19.54 46.13 16.72 47.88 13 49.63 9.31 50.27 7.95 51.37 10.1 53.12 13.49 54.87 16.88 56.14 19.34 56.62 19.4 58.36 19.62 60.11 19.85 61.86 20.07 63.61 20.3 65.35 20.51 67.1 20.74 68.85 20.96"/><line class="cls-2" x1="33.9" y1="23.24" x2="33.9" y2="21.31"/><line class="cls-2" x1="35.65" y1="24.89" x2="35.65" y2="21.03"/><line class="cls-2" x1="37.39" y1="26.53" x2="37.39" y2="20.74"/><line class="cls-2" x1="39.14" y1="28.18" x2="39.14" y2="20.46"/><line class="cls-2" x1="40.89" y1="42.3" x2="40.89" y2="34.23"/><line class="cls-2" x1="40.89" y1="29.82" x2="40.89" y2="20.17"/><line class="cls-2" x1="42.64" y1="41.35" x2="42.64" y2="19.89"/><line class="cls-2" x1="44.38" y1="40.39" x2="44.38" y2="19.6"/><line class="cls-2" x1="46.13" y1="39.43" x2="46.13" y2="16.72"/><line class="cls-2" x1="47.88" y1="38.47" x2="47.88" y2="13"/><line class="cls-2" x1="49.63" y1="37.52" x2="49.63" y2="9.31"/><line class="cls-2" x1="51.37" y1="37.19" x2="51.37" y2="10.1"/><line class="cls-2" x1="53.12" y1="38.07" x2="53.12" y2="13.49"/><line class="cls-2" x1="54.87" y1="38.95" x2="54.87" y2="16.88"/><line class="cls-2" x1="56.62" y1="39.83" x2="56.62" y2="19.4"/><line class="cls-2" x1="58.36" y1="40.71" x2="58.36" y2="19.62"/><line class="cls-2" x1="60.11" y1="29.78" x2="60.11" y2="19.85"/><line class="cls-2" x1="60.11" y1="41.59" x2="60.11" y2="31.55"/><line class="cls-2" x1="61.86" y1="42.48" x2="61.86" y2="40.79"/><line class="cls-2" x1="61.86" y1="28.01" x2="61.86" y2="20.07"/><line class="cls-2" x1="63.61" y1="26.25" x2="63.61" y2="20.29"/><line class="cls-2" x1="65.35" y1="24.49" x2="65.35" y2="20.51"/><line class="cls-2" x1="67.1" y1="22.73" x2="67.1" y2="20.74"/></g></g></svg>