<svg xmlns="http://www.w3.org/2000/svg" viewBox="0 0 106.99 106.99"><defs><style>.cls-1{fill:none;stroke:#000;stroke-miterlimit:10;stroke-width:0.25px;}</style></defs><title>Artboard6</title><g id="Layer_2" data-name="Layer 2"><g id="Layer_1-2" data-name="Layer 1"><path d="M22.29,72.61,43,89.16,22.29,105.71,1.6,89.16,22.29,72.61m0-1.28L0,89.16,22.29,107,44.58,89.16,22.29,71.33Z"/><path d="M66.87,72.61,87.56,89.16,66.87,105.71,46.18,89.16,66.87,72.61m0-1.28L44.58,89.16,66.87,107,89.16,89.16,66.87,71.33Z"/><path d="M89.16,1.6l16.55,20.69L89.16,43,72.61,22.29,89.16,1.6m0-1.6L71.33,22.29,89.16,44.58,107,22.29,89.16,0Z"/><path d="M89.16,46.18l16.55,20.69L89.16,87.56,72.61,66.87,89.16,46.18m0-1.6L71.33,66.87,89.16,89.16,107,66.87,89.16,44.58Z"/><circle cx="89.16" cy="22.29" r="5"/><circle class="cls-1" cx="22.29" cy="89.16" r="5"/><circle class="cls-1" cx="66.87" cy="89.16" r="5"/><circle cx="89.16" cy="66.87" r="5"/></g></g></svg>