<svg xmlns="http://www.w3.org/2000/svg" viewBox="0 0 100 100"><title>Artboard1</title><g id="Layer_2" data-name="Layer 2"><g id="Layer_1-2" data-name="Layer 1"><path d="M29,1V71H99V99H1V1H29m1-1H0V100H100V70H30V0Z"/><path d="M54.75,82.25v9.5h-9.5v-9.5h9.5M55,82H45V92H55V82Z"/><path d="M77.08,82.25v9.5h-9.5v-9.5h9.5m.25-.25h-10V92h10V82Z"/><path d="M15.83,13.07l7.68,9.6-7.68,9.6-7.68-9.6,7.68-9.6m0-.4-8,10,8,10,8-10-8-10Z"/><path d="M15.83,33.07l7.68,9.6-7.68,9.6-7.68-9.6,7.68-9.6m0-.4-8,10,8,10,8-10-8-10Z"/></g></g></svg>