<svg xmlns="http://www.w3.org/2000/svg" viewBox="0 0 100 100"><title>Artboard2</title><g id="Layer_2" data-name="Layer 2"><g id="Layer_1-2" data-name="Layer 1"><path d="M99,1V29H29V99H1V1H99m1-1H0V100H30V30h70V0Z"/><path d="M17.75,45.25v9.5H8.25v-9.5h9.5M18,45H8V55H18V45Z"/><path d="M17.75,67.58v9.5H8.25v-9.5h9.5m.25-.25H8v10H18v-10Z"/><path d="M77.33,8.15l9.6,7.68-9.6,7.68-9.6-7.68,9.6-7.68m0-.32-10,8,10,8,10-8-10-8Z"/><path d="M57.33,8.15l9.6,7.68-9.6,7.68-9.6-7.68,9.6-7.68m0-.32-10,8,10,8,10-8-10-8Z"/></g></g></svg>