<svg xmlns="http://www.w3.org/2000/svg" viewBox="0 0 106.99 106.99"><defs><style>.cls-1{fill:none;stroke:#000;stroke-miterlimit:10;stroke-width:0.25px;}</style></defs><title>Artboard7</title><g id="Layer_2" data-name="Layer 2"><g id="Layer_1-2" data-name="Layer 1"><path d="M17.83,64,34.38,84.7,17.83,105.39,1.28,84.7,17.83,64m0-1.6L0,84.7,17.83,107,35.66,84.7,17.83,62.41Z"/><path d="M17.83,19.43,34.38,40.12,17.83,60.81,1.28,40.12,17.83,19.43m0-1.6L0,40.12,17.83,62.41,35.66,40.12,17.83,17.83Z"/><path d="M84.7,1.28l20.69,16.55L84.7,34.38,64,17.83,84.7,1.28M84.7,0,62.41,17.83,84.7,35.66,107,17.83,84.7,0Z"/><path d="M40.12,1.28,60.81,17.83,40.12,34.38,19.43,17.83,40.12,1.28m0-1.28L17.83,17.83,40.12,35.66,62.41,17.83,40.12,0Z"/><circle cx="84.7" cy="17.83" r="5"/><circle class="cls-1" cx="17.83" cy="84.7" r="5"/><circle class="cls-1" cx="17.83" cy="40.12" r="5"/><circle cx="40.12" cy="17.83" r="5"/></g></g></svg>