<svg xmlns="http://www.w3.org/2000/svg" viewBox="0 0 106.99 106.99"><defs><style>.cls-1{fill:none;stroke:#000;stroke-miterlimit:10;stroke-width:0.25px;}</style></defs><title>Artboard5</title><g id="Layer_2" data-name="Layer 2"><g id="Layer_1-2" data-name="Layer 1"><path d="M22.29,1.28,43,17.83,22.29,34.38,1.6,17.83,22.29,1.28m0-1.28L0,17.83,22.29,35.66,44.58,17.83,22.29,0Z"/><path d="M66.87,1.28,87.56,17.83,66.87,34.38,46.18,17.83,66.87,1.28m0-1.28L44.58,17.83,66.87,35.66,89.16,17.83,66.87,0Z"/><path d="M89.16,64,105.71,84.7,89.16,105.39,72.61,84.7,89.16,64m0-1.6L71.33,84.7,89.16,107,107,84.7,89.16,62.41Z"/><path d="M89.16,19.43l16.55,20.69L89.16,60.81,72.61,40.12,89.16,19.43m0-1.6L71.33,40.12,89.16,62.41,107,40.12,89.16,17.83Z"/><circle cx="89.16" cy="84.7" r="5"/><circle class="cls-1" cx="22.29" cy="17.83" r="5"/><circle class="cls-1" cx="66.87" cy="17.83" r="5"/><circle cx="89.16" cy="40.12" r="5"/></g></g></svg>