<svg xmlns="http://www.w3.org/2000/svg" viewBox="0 0 106.99 106.99"><defs><style>.cls-1{fill:none;stroke:#000;stroke-miterlimit:10;stroke-width:0.25px;}</style></defs><title>Artboard3</title><g id="Layer_2" data-name="Layer 2"><g id="Layer_1-2" data-name="Layer 1"><path d="M84.7,72.61l20.69,16.55L84.7,105.71,64,89.16,84.7,72.61m0-1.28L62.41,89.16,84.7,107,107,89.16,84.7,71.33Z"/><path d="M40.12,72.61,60.81,89.16,40.12,105.71,19.43,89.16,40.12,72.61m0-1.28L17.83,89.16,40.12,107,62.41,89.16,40.12,71.33Z"/><path d="M17.83,1.6,34.38,22.29,17.83,43,1.28,22.29,17.83,1.6m0-1.6L0,22.29,17.83,44.58,35.66,22.29,17.83,0Z"/><path d="M17.83,46.18,34.38,66.87,17.83,87.56,1.28,66.87,17.83,46.18m0-1.6L0,66.87,17.83,89.16,35.66,66.87,17.83,44.58Z"/><circle cx="17.83" cy="22.29" r="5"/><circle class="cls-1" cx="84.7" cy="89.16" r="5"/><circle class="cls-1" cx="40.12" cy="89.16" r="5"/><circle cx="17.83" cy="66.87" r="5"/></g></g></svg>