<svg id="Layer_1" data-name="Layer 1" xmlns="http://www.w3.org/2000/svg" viewBox="0 0 200 200"><defs><style>.cls-1{fill:blue;}</style></defs><title>Artboard 3</title><path d="M82,83.25A4.75,4.75,0,1,1,77.25,88,4.75,4.75,0,0,1,82,83.25M82,83a5,5,0,1,0,5,5,5,5,0,0,0-5-5Z"/><circle class="cls-1" cx="65" cy="116" r="4.88"/><path d="M65,111.25A4.75,4.75,0,1,1,60.25,116,4.75,4.75,0,0,1,65,111.25m0-.25a5,5,0,1,0,5,5,5,5,0,0,0-5-5Z"/><circle class="cls-1" cx="116" cy="115" r="4.88"/><path d="M116,110.25a4.75,4.75,0,1,1-4.75,4.75,4.75,4.75,0,0,1,4.75-4.75m0-.25a5,5,0,1,0,5,5,5,5,0,0,0-5-5Z"/><path d="M139,85.25A4.75,4.75,0,1,1,134.25,90,4.75,4.75,0,0,1,139,85.25m0-.25a5,5,0,1,0,5,5,5,5,0,0,0-5-5Z"/><circle class="cls-1" cx="100" cy="100" r="4.88"/><path d="M100,95.25A4.75,4.75,0,1,1,95.25,100,4.75,4.75,0,0,1,100,95.25m0-.25a5,5,0,1,0,5,5,5,5,0,0,0-5-5Z"/><path d="M100,53.25A4.75,4.75,0,1,1,95.25,58,4.75,4.75,0,0,1,100,53.25m0-.25a5,5,0,1,0,5,5,5,5,0,0,0-5-5Z"/><circle class="cls-1" cx="100" cy="142" r="4.88"/><path d="M100,137.25A4.75,4.75,0,1,1,95.25,142a4.75,4.75,0,0,1,4.75-4.75m0-.25a5,5,0,1,0,5,5,5,5,0,0,0-5-5Z"/><path d="M100,50.25c38.46,0,69.75,22.32,69.75,49.75S138.46,149.75,100,149.75,30.25,127.43,30.25,100,61.54,50.25,100,50.25m0-.25c-38.66,0-70,22.39-70,50s31.34,50,70,50,70-22.39,70-50-31.34-50-70-50Z"/></svg>