<svg id="Layer_1" data-name="Layer 1" xmlns="http://www.w3.org/2000/svg" viewBox="0 0 200 200"><defs><style>.cls-1{fill:blue;}</style></defs><title>Artboard 6</title><path d="M43.74,53.56a5.7,5.7,0,1,1-5.7,5.7,5.71,5.71,0,0,1,5.7-5.7m0-4a9.7,9.7,0,1,0,9.7,9.7,9.7,9.7,0,0,0-9.7-9.7Z"/><circle class="cls-1" cx="43.74" cy="140.74" r="9.7"/><path d="M100,14.76a5.7,5.7,0,1,1-5.7,5.7,5.71,5.71,0,0,1,5.7-5.7m0-4a9.7,9.7,0,1,0,9.7,9.7,9.7,9.7,0,0,0-9.7-9.7Z"/><circle class="cls-1" cx="100" cy="100" r="9.7"/><path d="M167.9,53.56a5.7,5.7,0,1,1-5.7,5.7,5.71,5.71,0,0,1,5.7-5.7m0-4a9.7,9.7,0,1,0,9.7,9.7,9.7,9.7,0,0,0-9.7-9.7Z"/><circle class="cls-1" cx="167.9" cy="140.74" r="9.7"/><circle class="cls-1" cx="100" cy="169.84" r="9.7"/><path d="M100,7A93,93,0,1,1,7,100,93.11,93.11,0,0,1,100,7m0-4a97,97,0,1,0,97,97A97,97,0,0,0,100,3Z"/></svg>