<svg id="Layer_1" data-name="Layer 1" xmlns="http://www.w3.org/2000/svg" viewBox="0 0 200 200"><defs><style>.cls-1{fill:blue;}</style></defs><title>Artboard 5</title><path d="M71,73.25A4.75,4.75,0,1,1,66.25,78,4.75,4.75,0,0,1,71,73.25M71,73a5,5,0,1,0,5,5,5,5,0,0,0-5-5Z"/><path d="M71,115.25A4.75,4.75,0,1,1,66.25,120,4.75,4.75,0,0,1,71,115.25m0-.25a5,5,0,1,0,5,5,5,5,0,0,0-5-5Z"/><path d="M100,94.25A4.75,4.75,0,1,1,95.25,99,4.75,4.75,0,0,1,100,94.25m0-.25a5,5,0,1,0,5,5,5,5,0,0,0-5-5Z"/><circle class="cls-1" cx="100" cy="58" r="4.88"/><path d="M100,53.25A4.75,4.75,0,1,1,95.25,58,4.75,4.75,0,0,1,100,53.25m0-.25a5,5,0,1,0,5,5,5,5,0,0,0-5-5Z"/><circle class="cls-1" cx="135" cy="78" r="4.88"/><path d="M135,73.25A4.75,4.75,0,1,1,130.25,78,4.75,4.75,0,0,1,135,73.25m0-.25a5,5,0,1,0,5,5,5,5,0,0,0-5-5Z"/><circle class="cls-1" cx="135" cy="120" r="4.88"/><path d="M135,115.25a4.75,4.75,0,1,1-4.75,4.75,4.75,4.75,0,0,1,4.75-4.75m0-.25a5,5,0,1,0,5,5,5,5,0,0,0-5-5Z"/><path d="M100,130.25A4.75,4.75,0,1,1,95.25,135a4.75,4.75,0,0,1,4.75-4.75m0-.25a5,5,0,1,0,5,5,5,5,0,0,0-5-5Z"/><path d="M100,51.25A49.75,49.75,0,1,1,50.25,101,49.81,49.81,0,0,1,100,51.25m0-.25a50,50,0,1,0,50,50,50,50,0,0,0-50-50Z"/></svg>