<svg id="Layer_1" data-name="Layer 1" xmlns="http://www.w3.org/2000/svg" viewBox="0 0 200 146"><defs><style>.cls-1{fill:blue;}</style></defs><title>Artboard 2</title><path d="M42.6,28a3,3,0,1,1-3,3,3,3,0,0,1,3-3m0-4a7,7,0,1,0,7,7,7,7,0,0,0-7-7Z"/><circle class="cls-1" cx="42.6" cy="115" r="7"/><circle class="cls-1" cx="147.6" cy="115" r="7"/><path d="M147.6,28a3,3,0,1,1-3,3,3,3,0,0,1,3-3m0-4a7,7,0,1,0,7,7,7,7,0,0,0-7-7Z"/><circle class="cls-1" cx="100" cy="14.2" r="7"/><path d="M100,70a3,3,0,1,1-3,3,3,3,0,0,1,3-3m0-4a7,7,0,1,0,7,7,7,7,0,0,0-7-7Z"/><circle class="cls-1" cx="100" cy="131.8" r="7"/><path d="M100,7c51.83,0,94,29.61,94,66s-42.17,66-94,66S6,109.39,6,73,48.17,7,100,7m0-4C45.88,3,2,34.34,2,73s43.88,70,98,70,98-31.34,98-70S154.12,3,100,3Z"/></svg>