<svg id="Layer_1" data-name="Layer 1" xmlns="http://www.w3.org/2000/svg" viewBox="0 0 200 200"><defs><style>.cls-1{fill:blue;}</style></defs><title>Artboard 4</title><path d="M71,74.25A4.75,4.75,0,1,1,66.25,79,4.75,4.75,0,0,1,71,74.25M71,74a5,5,0,1,0,5,5,5,5,0,0,0-5-5Z"/><path d="M71,116.25A4.75,4.75,0,1,1,66.25,121,4.75,4.75,0,0,1,71,116.25m0-.25a5,5,0,1,0,5,5,5,5,0,0,0-5-5Z"/><path d="M100,95.25A4.75,4.75,0,1,1,95.25,100,4.75,4.75,0,0,1,100,95.25m0-.25a5,5,0,1,0,5,5,5,5,0,0,0-5-5Z"/><circle class="cls-1" cx="100" cy="59" r="4.88"/><path d="M100,54.25A4.75,4.75,0,1,1,95.25,59,4.75,4.75,0,0,1,100,54.25m0-.25a5,5,0,1,0,5,5,5,5,0,0,0-5-5Z"/><path d="M141,95.25a4.75,4.75,0,1,1-4.75,4.75A4.75,4.75,0,0,1,141,95.25m0-.25a5,5,0,1,0,5,5,5,5,0,0,0-5-5Z"/><circle class="cls-1" cx="131" cy="79" r="4.88"/><path d="M131,74.25A4.75,4.75,0,1,1,126.25,79,4.75,4.75,0,0,1,131,74.25m0-.25a5,5,0,1,0,5,5,5,5,0,0,0-5-5Z"/><circle class="cls-1" cx="131" cy="121" r="4.88"/><path d="M131,116.25a4.75,4.75,0,1,1-4.75,4.75,4.75,4.75,0,0,1,4.75-4.75m0-.25a5,5,0,1,0,5,5,5,5,0,0,0-5-5Z"/><circle class="cls-1" cx="100" cy="136" r="4.88"/><path d="M100,131.25A4.75,4.75,0,1,1,95.25,136a4.75,4.75,0,0,1,4.75-4.75m0-.25a5,5,0,1,0,5,5,5,5,0,0,0-5-5Z"/><path d="M103,47.25A49.75,49.75,0,1,1,53.25,97,49.81,49.81,0,0,1,103,47.25m0-.25a50,50,0,1,0,50,50,50,50,0,0,0-50-50Z"/></svg>