<svg id="Layer_1" data-name="Layer 1" xmlns="http://www.w3.org/2000/svg" viewBox="0 0 200 200"><defs><style>.cls-1{fill:blue;}</style></defs><title>Artboard 1</title><path d="M100,50.25A49.75,49.75,0,1,1,50.25,100,49.81,49.81,0,0,1,100,50.25m0-.25a50,50,0,1,0,50,50,50,50,0,0,0-50-50Z"/><path d="M89,56.25A4.75,4.75,0,1,1,84.25,61,4.75,4.75,0,0,1,89,56.25M89,56a5,5,0,1,0,5,5,5,5,0,0,0-5-5Z"/><path d="M65,75.25A4.75,4.75,0,1,1,60.25,80,4.75,4.75,0,0,1,65,75.25M65,75a5,5,0,1,0,5,5,5,5,0,0,0-5-5Z"/><path d="M100,137.25A4.75,4.75,0,1,1,95.25,142a4.75,4.75,0,0,1,4.75-4.75m0-.25a5,5,0,1,0,5,5,5,5,0,0,0-5-5Z"/><circle class="cls-1" cx="100" cy="100" r="4.88"/><path d="M100,95.25A4.75,4.75,0,1,1,95.25,100,4.75,4.75,0,0,1,100,95.25m0-.25a5,5,0,1,0,5,5,5,5,0,0,0-5-5Z"/><circle class="cls-1" cx="135" cy="78" r="4.88"/><path d="M135,73.25A4.75,4.75,0,1,1,130.25,78,4.75,4.75,0,0,1,135,73.25m0-.25a5,5,0,1,0,5,5,5,5,0,0,0-5-5Z"/><path d="M63,109.25A4.75,4.75,0,1,1,58.25,114,4.75,4.75,0,0,1,63,109.25m0-.25a5,5,0,1,0,5,5,5,5,0,0,0-5-5Z"/><circle class="cls-1" cx="131" cy="128" r="4.88"/><path d="M131,123.25a4.75,4.75,0,1,1-4.75,4.75,4.75,4.75,0,0,1,4.75-4.75m0-.25a5,5,0,1,0,5,5,5,5,0,0,0-5-5Z"/></svg>