<svg id="Layer_1" data-name="Layer 1" xmlns="http://www.w3.org/2000/svg" viewBox="0 0 200 145"><defs><style>.cls-1{fill:blue;}</style></defs><title>Artboard 3</title><path d="M75.06,53.44a2.93,2.93,0,1,1-2.93,2.93,2.94,2.94,0,0,1,2.93-2.93m0-4A6.93,6.93,0,1,0,82,56.37a6.93,6.93,0,0,0-6.93-6.93Z"/><circle class="cls-1" cx="51.5" cy="95.17" r="6.93"/><circle class="cls-1" cx="122.17" cy="93.79" r="6.93"/><path d="M154,56.21a2.93,2.93,0,1,1-2.93,2.93A2.93,2.93,0,0,1,154,56.21m0-4A6.93,6.93,0,1,0,161,59.14,6.94,6.94,0,0,0,154,52.21Z"/><circle class="cls-1" cx="100" cy="73" r="6.93"/><path d="M100,11.87a2.93,2.93,0,1,1-2.93,2.93A2.94,2.94,0,0,1,100,11.87m0-4a6.93,6.93,0,1,0,6.93,6.93A6.93,6.93,0,0,0,100,7.87Z"/><circle class="cls-1" cx="100" cy="131.2" r="6.93"/><path d="M100,7.71C151.28,7.71,193,37,193,73s-41.72,65.29-93,65.29S7,109,7,73,48.72,7.71,100,7.71m0-4C46.43,3.71,3,34.73,3,73s43.43,69.29,97,69.29,97-31,97-69.29S153.57,3.71,100,3.71Z"/></svg>