<svg id="Layer_1" data-name="Layer 1" xmlns="http://www.w3.org/2000/svg" viewBox="0 0 200 200"><defs><style>.cls-1{fill:blue;}</style></defs><title>Artboard 1</title><path d="M100,6A94,94,0,1,1,6,100,94.11,94.11,0,0,1,100,6m0-4a98,98,0,1,0,98,98A98,98,0,0,0,100,2Z"/><path d="M78.44,17.76a5.8,5.8,0,1,1-5.8,5.8,5.8,5.8,0,0,1,5.8-5.8m0-4a9.8,9.8,0,1,0,9.8,9.8,9.8,9.8,0,0,0-9.8-9.8Z"/><path d="M31.4,55a5.8,5.8,0,1,1-5.8,5.8A5.8,5.8,0,0,1,31.4,55m0-4a9.8,9.8,0,1,0,9.8,9.8A9.8,9.8,0,0,0,31.4,51Z"/><path d="M100,176.52a5.8,5.8,0,1,1-5.8,5.8,5.8,5.8,0,0,1,5.8-5.8m0-4a9.8,9.8,0,1,0,9.8,9.8,9.8,9.8,0,0,0-9.8-9.8Z"/><circle class="cls-1" cx="100" cy="100" r="9.8"/><circle class="cls-1" cx="168.6" cy="56.88" r="9.8"/><path d="M27.48,121.64a5.8,5.8,0,1,1-5.8,5.8,5.8,5.8,0,0,1,5.8-5.8m0-4a9.8,9.8,0,1,0,9.8,9.8,9.8,9.8,0,0,0-9.8-9.8Z"/><circle class="cls-1" cx="160.76" cy="154.88" r="9.8"/></svg>