<svg id="Layer_1" data-name="Layer 1" xmlns="http://www.w3.org/2000/svg" viewBox="0 0 200 200"><defs><style>.cls-1{fill:blue;}</style></defs><title>Artboard 2</title><path d="M59,65.25A4.75,4.75,0,1,1,54.25,70,4.75,4.75,0,0,1,59,65.25M59,65a5,5,0,1,0,5,5,5,5,0,0,0-5-5Z"/><circle class="cls-1" cx="59" cy="130" r="4.88"/><path d="M59,125.25A4.75,4.75,0,1,1,54.25,130,4.75,4.75,0,0,1,59,125.25m0-.25a5,5,0,1,0,5,5,5,5,0,0,0-5-5Z"/><circle class="cls-1" cx="134" cy="130" r="4.88"/><path d="M134,125.25a4.75,4.75,0,1,1-4.75,4.75,4.75,4.75,0,0,1,4.75-4.75m0-.25a5,5,0,1,0,5,5,5,5,0,0,0-5-5Z"/><path d="M134,65.25A4.75,4.75,0,1,1,129.25,70,4.75,4.75,0,0,1,134,65.25m0-.25a5,5,0,1,0,5,5,5,5,0,0,0-5-5Z"/><circle class="cls-1" cx="100" cy="58" r="4.88"/><path d="M100,53.25A4.75,4.75,0,1,1,95.25,58,4.75,4.75,0,0,1,100,53.25m0-.25a5,5,0,1,0,5,5,5,5,0,0,0-5-5Z"/><path d="M100,95.25A4.75,4.75,0,1,1,95.25,100,4.75,4.75,0,0,1,100,95.25m0-.25a5,5,0,1,0,5,5,5,5,0,0,0-5-5Z"/><circle class="cls-1" cx="100" cy="142" r="4.88"/><path d="M100,137.25A4.75,4.75,0,1,1,95.25,142a4.75,4.75,0,0,1,4.75-4.75m0-.25a5,5,0,1,0,5,5,5,5,0,0,0-5-5Z"/><path d="M100,50.25c38.46,0,69.75,22.32,69.75,49.75S138.46,149.75,100,149.75,30.25,127.43,30.25,100,61.54,50.25,100,50.25m0-.25c-38.66,0-70,22.39-70,50s31.34,50,70,50,70-22.39,70-50-31.34-50-70-50Z"/></svg>