<svg id="Layer_1" data-name="Layer 1" xmlns="http://www.w3.org/2000/svg" viewBox="0 0 200 200"><defs><style>.cls-1,.cls-3{fill:blue;}.cls-2{fill:none;}.cls-2,.cls-3{stroke:#000;stroke-miterlimit:10;stroke-width:4px;}</style></defs><title>Artboard 6</title><path d="M188.13,146l-.12-.46h0c-1-3.9-2.18-7.77-3.45-11.57a191.4,191.4,0,0,0-15.27-34.21.07.07,0,0,1,0-.06l-.22-.36h0a192.28,192.28,0,0,0-29.74-39.27l-.19-.15q-4.38-4.44-9-8.57A187.93,187.93,0,0,0,100.24,29.6l-.4-.25,0,0c-3.44-2-7-4-10.52-5.75a182.59,182.59,0,0,0-34.59-13.2l-.46-.12v0A184.86,184.86,0,0,0,5.93,3.9H5.45V196.1h189.1v-.48A193.41,193.41,0,0,0,188.13,146ZM6.39,4.87A182.76,182.76,0,0,1,54,11.25l-8.52,32.3L21.63,134,6.39,191.81Zm48.53,6.61.1,0c2.15.59,4.28,1.32,6.42,2,1.63.51,3.28,1,4.92,1.51,2.23.77,4.42,1.68,6.63,2.54,1.59.62,3.23,1.17,4.8,1.85,2.33,1,4.6,2.07,6.86,3.15,1.43.67,2.89,1.29,4.29,2,3.54,1.78,7,3.69,10.42,5.69L7.22,192.39Zm38.54,31,6.7-11.8c2,1.15,3.87,2.42,5.79,3.67,1.44.92,2.92,1.78,4.34,2.75,2.06,1.4,4.06,2.94,6.08,4.44,1.26.94,2.57,1.82,3.82,2.78,2.19,1.73,4.3,3.58,6.44,5.4,1,.85,2,1.64,3,2.5,2.94,2.63,5.82,5.38,8.61,8.21l-11.61,11.8L8.16,192.64Zm45.47,18.6c1.5,1.52,2.9,3.13,4.34,4.71,1.31,1.42,2.65,2.81,3.92,4.29,1.58,1.82,3,3.72,4.54,5.61,1.06,1.32,2.17,2.61,3.19,4,1.73,2.28,3.32,4.65,4.94,7,.71,1,1.48,2,2.15,3.06,2.17,3.3,4.23,6.69,6.21,10.11L8.83,193.31ZM98.45,141.86l29.7-17.41,40.53-23.8c1,1.81,1.94,3.67,2.9,5.5s1.89,3.48,2.75,5.25c1.06,2.19,2,4.42,3,6.63.69,1.55,1.44,3.09,2.09,4.67,1,2.52,1.91,5.09,2.83,7.65.48,1.34,1,2.65,1.46,4,1.27,3.77,2.4,7.6,3.42,11.46l-46,12.53-43,11.7-89,24.24ZM9.51,195.13l144.6-39.36,33.1-9h0l.11,0c.56,2.15,1,4.36,1.5,6.54.39,1.73.85,3.44,1.17,5.17.48,2.44.83,4.9,1.21,7.36.25,1.59.56,3.15.77,4.74.35,2.71.56,5.44.79,8.17.14,1.37.31,2.73.4,4.1.27,4.09.43,8.22.43,12.33Z"/><polygon class="cls-1" points="141.06 158.33 98.09 170.03 98.45 141.86 128.15 124.45 141.06 158.33"/><path class="cls-2" d="M93.18,41.56c4.6,17.15,20.48,30.22,34.08,30.7"/><circle class="cls-2" cx="136.97" cy="93.19" r="12.13"/><polyline class="cls-2" points="154.19 195.61 154.21 195.59 170.29 171.81 186.75 147.46 187.57 146.25"/><polyline class="cls-2" points="153.59 155.25 154.07 155.74 169.7 171.36 193.47 195.13 193.49 195.15"/><line class="cls-2" x1="5.93" y1="38.07" x2="45.84" y2="43.59"/><line class="cls-2" x1="6.15" y1="132.6" x2="22.23" y2="134.09"/><path class="cls-3" d="M99.36,30.2,64.19,43.59,55,11.5c2.15.59,4.28,1.32,6.42,2,1.63.51,3.28,1,4.92,1.51,2.23.77,4.42,1.68,6.63,2.54,1.59.62,3.23,1.17,4.8,1.85,2.33,1,4.6,2.07,6.86,3.15,1.43.67,2.89,1.29,4.29,2C92.48,26.29,95.94,28.2,99.36,30.2Z"/><line class="cls-2" x1="55.02" y1="11.5" x2="54.71" y2="10.42"/><line class="cls-2" x1="98.45" y1="141.86" x2="98.45" y2="141.38"/></svg>