<svg id="Layer_1" data-name="Layer 1" xmlns="http://www.w3.org/2000/svg" viewBox="0 0 200 200"><defs><style>.cls-1{fill:blue;}.cls-2{fill:none;stroke:#000;stroke-miterlimit:10;stroke-width:0.25px;}</style></defs><title>Artboard 3</title><path d="M148.14,50A96,96,0,0,0,123,53.34h0l-.24.06a95.08,95.08,0,0,0-18,6.87c-1.85.93-3.68,1.93-5.47,3h0l-.21.13A97.71,97.71,0,0,0,83.54,74.69c-1.61,1.44-3.17,2.92-4.69,4.46l-.1.08A100,100,0,0,0,63.28,99.66h0l-.11.19a0,0,0,0,1,0,0,99.65,99.65,0,0,0-7.95,17.8c-.66,2-1.25,4-1.79,6h0l-.06.24A100.69,100.69,0,0,0,50,149.75V150h98.39V50ZM50.49,149.5c0-2.14.08-4.29.22-6.42,0-.71.14-1.42.21-2.13.12-1.42.23-2.84.41-4.25.11-.83.27-1.64.4-2.47.2-1.28.38-2.56.63-3.83.17-.9.41-1.79.61-2.69.26-1.13.49-2.28.78-3.4l19.84,5.4,32.85,8.94,39.84,10.85Zm23.16-20.29-19.77-5.38q.79-3,1.78-6c.23-.7.51-1.38.76-2.08.48-1.33.94-2.67,1.47-4,.34-.82.73-1.62,1.09-2.43.5-1.15,1-2.31,1.54-3.45.45-.92.95-1.82,1.43-2.73s1-1.92,1.51-2.86l83,48.71Zm-3.91-25.76-6-3.54c1-1.78,2.1-3.54,3.23-5.26.35-.54.75-1.06,1.12-1.59.84-1.23,1.67-2.46,2.57-3.65.53-.7,1.11-1.37,1.66-2.06.78-1,1.54-2,2.36-2.92.66-.77,1.36-1.49,2-2.23s1.48-1.66,2.26-2.45l8.21,8.34,59.48,60.46Zm9.56-24c1.45-1.47,3-2.9,4.48-4.27.51-.45,1-.86,1.56-1.3,1.11-1,2.21-1.91,3.35-2.81.65-.5,1.33-1,2-1.45,1-.78,2.09-1.58,3.16-2.31.74-.5,1.51-1,2.26-1.43,1-.65,2-1.31,3-1.91l11.6,20.42L147,148.2Zm31.91,4.84-4.77-8.41L99.53,63.68c1.78-1,3.58-2,5.42-3,.73-.36,1.49-.68,2.23-1,1.18-.56,2.36-1.14,3.57-1.64.82-.35,1.67-.64,2.5-1,1.15-.45,2.29-.92,3.45-1.32.85-.29,1.71-.52,2.56-.79,1.13-.35,2.25-.73,3.39-1L126.89,70l2.75,10.41,17.83,67.63Zm36.69,63.52L130.12,80.34,126.33,66h0l-3.2-12.12A95.3,95.3,0,0,1,147.9,50.5Z"/><polygon class="cls-1" points="129.64 80.44 111.21 84.25 106.44 75.84 126.89 70.03 129.64 80.44"/><polygon class="cls-1" points="146.5 149.05 73.65 129.21 53.88 123.83 73.03 118.03 63.46 100.34 146.5 149.05"/><path class="cls-2" d="M87.12,87.75c1.2,11.23-8,17.41-18.08,15.59"/><line class="cls-2" x1="148.39" y1="63.13" x2="123.13" y2="53.82"/><line class="cls-2" x1="147.9" y1="50.5" x2="126.32" y2="65.95"/><line class="cls-2" x1="130.12" y1="80.34" x2="129.64" y2="80.44"/><line class="cls-2" x1="111.21" y1="84.25" x2="110.71" y2="84.35"/><ellipse class="cls-2" cx="95.56" cy="79.75" rx="5.95" ry="5.42"/><line class="cls-2" x1="73.65" y1="129.21" x2="71.25" y2="149.5"/><line class="cls-2" x1="106.44" y1="138.65" x2="105.17" y2="149.05"/></svg>