<svg id="Layer_1" data-name="Layer 1" xmlns="http://www.w3.org/2000/svg" viewBox="0 0 200 200"><defs><style>.cls-1{fill:blue;}.cls-2{fill:none;stroke:#000;stroke-miterlimit:10;stroke-width:4px;}.cls-3{fill:#fff;}</style></defs><title>Artboard 2</title><path d="M195.36,3h-.48a186.07,186.07,0,0,0-48.77,6.48v0l-.46.11a184,184,0,0,0-34.92,13.33c-3.59,1.8-7.14,3.74-10.61,5.8l0,0-.41.25a189.9,189.9,0,0,0-30.13,22c-3.12,2.8-6.15,5.67-9.09,8.65l-.2.16a194.15,194.15,0,0,0-30,39.63h0l-.21.37a.07.07,0,0,1,0,.06A192.56,192.56,0,0,0,14.59,134.3c-1.28,3.84-2.43,7.74-3.48,11.68h0l-.12.46A195.22,195.22,0,0,0,4.5,196.51V197h191ZM5.45,196c0-4.15.16-8.32.43-12.45.09-1.38.27-2.75.4-4.13.24-2.76.45-5.51.8-8.25.21-1.61.52-3.18.78-4.79.38-2.48.73-5,1.22-7.43.33-1.74.79-3.47,1.18-5.22.51-2.19,1-4.42,1.51-6.59l20.9,5.68,81.8,22.27L191.27,196Zm159.79-8.09L115.15,174.3h0L100,170.17,55.65,158.1l-22.28-6L12,146.23q1.53-5.85,3.45-11.56c.45-1.36,1-2.68,1.47-4,.94-2.58,1.83-5.18,2.86-7.72.66-1.59,1.41-3.14,2.11-4.71,1-2.23,1.92-4.49,3-6.7.87-1.78,1.84-3.53,2.77-5.29s1.9-3.73,2.93-5.55l31.6,18.54L78.89,129l37.5,22,12.15,7.12,40.93,24,22.23,13Zm-18.47-20.25-31.23-18.31L94.86,137.25l-24-14.07L40.47,105.33l-9.39-5.5q3-5.19,6.26-10.21c.68-1.05,1.46-2.05,2.17-3.08,1.63-2.39,3.24-4.77,5-7.08,1-1.36,2.15-2.66,3.22-4,1.51-1.9,3-3.82,4.58-5.66,1.28-1.5,2.64-2.89,4-4.33s2.87-3.22,4.38-4.75l8.42,8.55,23.68,24.1,19.48,19.78,17.91,18.2L155.36,157,192,194.18Zm10.82-9.79v0l-26-26.39L113.4,113,93.87,93.11,70.11,69l-8.77-8.9c2.81-2.85,5.72-5.63,8.69-8.29,1-.87,2-1.66,3-2.52,2.15-1.84,4.28-3.7,6.49-5.45,1.26-1,2.58-1.86,3.86-2.81,2-1.51,4.06-3.07,6.13-4.48,1.44-1,2.93-1.84,4.39-2.78,1.94-1.26,3.86-2.54,5.84-3.7l7.39,13,14.61,25.68v0l15,26.32,13.5,23.79,18.14,31.93,24.27,42.71Zm-57-128.35q5.17-3,10.52-5.74c1.41-.7,2.89-1.32,4.32-2,2.29-1.08,4.58-2.21,6.93-3.18,1.59-.68,3.24-1.24,4.85-1.86,2.23-.87,4.44-1.78,6.69-2.56,1.65-.56,3.32-1,5-1.53,2.19-.68,4.36-1.42,6.57-2l33.12,125.61v0l15,57Zm93.83,163.13L179,134.1l-5.16-19.55L167.33,90l-7.72-29.31-6.79-25.72-6.46-24.5a184.48,184.48,0,0,1,48-6.44Z"/><path class="cls-1" d="M193.58,193.25l-93-163.71q5.17-3,10.52-5.74c1.41-.7,2.89-1.32,4.32-2,2.29-1.08,4.58-2.21,6.93-3.18,1.59-.68,3.24-1.24,4.85-1.86,2.23-.87,4.44-1.78,6.69-2.56,1.65-.56,3.32-1,5-1.53,2.19-.68,4.36-1.42,6.57-2l33.12,125.61v0Z"/><polygon class="cls-1" points="191.7 195.15 165.24 187.93 169.47 182.12 191.7 195.15"/><polygon class="cls-1" points="128.54 158.1 115.15 174.3 115.13 174.3 100 170.16 116.39 150.98 128.54 158.1"/><polygon class="cls-1" points="78.89 128.98 55.65 158.1 33.37 152.05 62.21 119.2 78.89 128.98"/><path class="cls-1" d="M191.27,196H5.45c0-4.15.16-8.32.43-12.45.09-1.38.27-2.75.4-4.13.24-2.76.45-5.51.8-8.25.21-1.61.52-3.18.78-4.79.38-2.48.73-5,1.22-7.43.33-1.74.79-3.47,1.18-5.22.51-2.19,1-4.42,1.51-6.59l20.9,5.68,81.8,22.27Z"/><line class="cls-2" x1="146.59" y1="167.9" x2="155.62" y2="156.66"/><line class="cls-2" x1="115.3" y1="149.67" x2="130.47" y2="130.95"/><line class="cls-2" x1="94.7" y1="137.46" x2="112.49" y2="112.76"/><line class="cls-2" x1="70.91" y1="123.19" x2="92.93" y2="93.13"/><line class="cls-2" x1="40.46" y1="105.33" x2="69.3" y2="68.96"/><path class="cls-2" d="M178.55,136.3c0,.17,0,.32-.06.5"/><path class="cls-2" d="M178.55,136.26a10.8,10.8,0,0,1,.36-1.94v0l.06-.2c1.9-7.06,8.23-7.89,14.82-2.95.14.1.26.22.37.31a1.57,1.57,0,0,1,.25.2c.2.15.39.31.6.48"/><path class="cls-2" d="M173.49,115.81c2.61-11.17,12.71-13.78,21.6-7.68"/><path class="cls-2" d="M167,90.67c4.83-12.4,17.81-16.63,28.06-11.29"/><path class="cls-2" d="M159.42,61c7.43-13.87,23.81-20,35.67-15.56"/><path class="cls-2" d="M152.32,35.67c9.83-15.21,29.35-23.09,42.69-19.48"/><path class="cls-2" d="M107.37,42.57C100.55,59.14,83,70.18,69.3,68.9"/><path class="cls-2" d="M121.82,68.43c-3,15.37-16.55,25.7-28.89,24.62"/><path class="cls-2" d="M136.8,94.54c-1.9,13.61-13.37,21-24.31,18.23"/><path class="cls-2" d="M150.35,117.57c-.75,12.28-10.2,17.57-19.88,13.47"/><path class="cls-2" d="M168.23,149.25c1.3,10.51-4.86,13-12.61,7.34"/><line class="cls-2" x1="33.37" y1="152.05" x2="32.67" y2="152.84"/><line class="cls-2" x1="115.13" y1="174.3" x2="114.47" y2="175.11"/><circle class="cls-3" cx="131.78" cy="35.67" r="11.18"/></svg>