<svg id="Layer_1" data-name="Layer 1" xmlns="http://www.w3.org/2000/svg" viewBox="0 0 200 200"><defs><style>.cls-1{fill:blue;}.cls-2{fill:none;stroke:#000;stroke-miterlimit:10;stroke-width:4px;}</style></defs><title>Artboard 3</title><path d="M195,2.94a186.35,186.35,0,0,0-48.8,6.48v0l-.46.12A184.32,184.32,0,0,0,110.8,22.85c-3.59,1.81-7.14,3.75-10.62,5.81v0l-.41.25a189.56,189.56,0,0,0-30.15,22c-3.13,2.79-6.15,5.67-9.1,8.65l-.2.16a194.07,194.07,0,0,0-30,39.66h0l-.21.37a.07.07,0,0,1,0,.06,193.53,193.53,0,0,0-15.44,34.55c-1.28,3.84-2.42,7.75-3.47,11.69h0l-.12.46A195.47,195.47,0,0,0,4.5,196.58v.48h191V2.94ZM5.45,196.09c0-4.15.16-8.33.43-12.46.1-1.38.27-2.76.41-4.14.23-2.75.44-5.51.79-8.25.22-1.61.53-3.18.78-4.79.39-2.49.74-5,1.22-7.44.33-1.74.8-3.47,1.19-5.22.5-2.19,1-4.42,1.51-6.6l38.51,10.48L114.06,175l77.34,21.06Zm45-39.39L12,146.26c1-3.9,2.18-7.77,3.46-11.57.44-1.36,1-2.68,1.47-4,.93-2.58,1.83-5.18,2.86-7.72.66-1.6,1.41-3.15,2.11-4.72,1-2.23,1.92-4.49,3-6.7.88-1.78,1.85-3.53,2.78-5.3s1.9-3.73,2.93-5.55l161.2,94.56Zm-7.59-50L31.1,99.83c2-3.46,4.07-6.88,6.27-10.22.67-1,1.45-2,2.17-3.08,1.63-2.39,3.24-4.78,5-7.09,1-1.36,2.15-2.66,3.22-4,1.52-1.9,3-3.82,4.58-5.67,1.28-1.49,2.64-2.89,4-4.32,1.46-1.6,2.88-3.23,4.39-4.76L76.62,76.88,192.08,194.25ZM61.38,60c2.81-2.85,5.73-5.63,8.7-8.29,1-.87,2-1.67,3-2.52,2.16-1.85,4.29-3.71,6.51-5.46,1.26-1,2.58-1.86,3.86-2.81,2-1.52,4.06-3.07,6.13-4.49,1.44-1,2.94-1.84,4.39-2.77,1.94-1.27,3.86-2.55,5.84-3.71l22.52,39.64,70.41,124Zm61.94,9.4L114.06,53.1,100.65,29.49c3.46-2,6.95-3.94,10.52-5.74,1.42-.7,2.89-1.32,4.33-2,2.29-1.09,4.58-2.21,6.93-3.19,1.59-.68,3.24-1.24,4.85-1.86,2.24-.87,4.45-1.79,6.7-2.56,1.65-.56,3.32-1,5-1.54,2.19-.67,4.37-1.41,6.58-2l8.23,31.23L159.1,62l34.61,131.29Zm71.23,123.3L160,61.83,152.68,33.9v0l-6.22-23.53a185.15,185.15,0,0,1,48.09-6.44Z"/><polygon class="cls-1" points="159.1 62.03 123.32 69.42 114.06 53.1 153.76 41.82 159.1 62.03"/><polygon class="cls-1" points="191.83 195.22 50.41 156.7 12.03 146.26 49.21 135 30.63 100.66 191.83 195.22"/><path class="cls-2" d="M76.55,76.23C78.88,98,61,110,41.47,106.48"/><line class="cls-2" x1="195.49" y1="28.42" x2="146.46" y2="10.35"/><line class="cls-2" x1="194.54" y1="3.9" x2="152.67" y2="33.9"/><line class="cls-2" x1="160.03" y1="61.83" x2="159.1" y2="62.03"/><line class="cls-2" x1="123.32" y1="69.43" x2="122.35" y2="69.62"/><ellipse class="cls-2" cx="92.93" cy="60.68" rx="11.56" ry="10.53"/><line class="cls-2" x1="50.41" y1="156.7" x2="45.75" y2="196.09"/><line class="cls-2" x1="114.06" y1="175.04" x2="111.6" y2="195.22"/></svg>