<svg id="Layer_1" data-name="Layer 1" xmlns="http://www.w3.org/2000/svg" viewBox="0 0 200 200"><defs><style>.cls-1{fill:blue;}.cls-2{fill:none;stroke:#000;stroke-miterlimit:10;stroke-width:0.25px;}</style></defs><title>Artboard 7</title><path d="M145.85,123.94l-.06-.24c-.55-2-1.13-4-1.8-6a98.94,98.94,0,0,0-8-17.8v0l-.12-.19h0a99.6,99.6,0,0,0-15.46-20.43l-.1-.08c-1.52-1.54-3.08-3-4.69-4.46a97.34,97.34,0,0,0-15.54-11.32l-.21-.13h0c-1.8-1.06-3.62-2.06-5.48-3a94.73,94.73,0,0,0-18-6.87h0l-.23-.06h0A96.06,96.06,0,0,0,51.05,50H50.8V150h98.4v-.25A100.26,100.26,0,0,0,145.85,123.94ZM51.29,50.5a95.38,95.38,0,0,1,24.78,3.32L71.64,70.63,59.23,117.71l-7.94,30.06Zm25.25,3.44h.06c1.12.31,2.23.69,3.33,1,.86.27,1.72.5,2.56.79,1.17.4,2.3.87,3.46,1.32.83.32,1.67.61,2.5,1,1.21.5,2.39,1.08,3.57,1.64.74.35,1.5.67,2.22,1,1.85.93,3.65,1.92,5.42,3L51.73,148.07Zm20,16.14h0l3.49-6.14c1,.6,2,1.26,3,1.91.75.48,1.51.93,2.25,1.43,1.07.73,2.12,1.53,3.17,2.31.65.49,1.33,1,2,1.45,1.14.9,2.23,1.86,3.34,2.81.53.44,1.06.85,1.56,1.3,1.54,1.37,3,2.8,4.49,4.27l-6.05,6.14L52.22,148.2Zm23.67,9.67c.78.79,1.51,1.63,2.26,2.45s1.38,1.46,2,2.23c.83.95,1.59,1.94,2.36,2.92.56.69,1.13,1.36,1.67,2.06.9,1.19,1.72,2.42,2.57,3.65.37.53.76,1,1.12,1.59,1.13,1.72,2.2,3.48,3.22,5.26L52.57,148.55Zm-21.06,42,15.45-9.06,21.08-12.38c.54.94,1,1.91,1.51,2.86s1,1.81,1.43,2.73c.56,1.14,1.05,2.3,1.55,3.45.36.81.75,1.61,1.08,2.43.54,1.31,1,2.65,1.48,4,.25.7.52,1.38.76,2.08q1,2.94,1.78,6l-24,6.52L99,136.44,52.7,149.05ZM52.91,149.5,128.15,129h0l17.22-4.69h0l.06,0c.28,1.12.52,2.27.78,3.4.19.9.43,1.79.61,2.69.25,1.27.43,2.55.63,3.83.13.83.29,1.64.39,2.47.18,1.41.3,2.83.42,4.25.07.71.15,1.42.2,2.13.14,2.13.23,4.28.23,6.42Z"/><path class="cls-1" d="M99.66,63.68,51.73,148.07,76.54,53.94h.06l4.76,16.7Z"/><polygon class="cls-1" points="121.36 130.35 99 136.44 99.19 121.78 114.64 112.72 121.36 130.35"/><path class="cls-2" d="M96.45,69.59c2.4,8.93,10.66,15.73,17.73,16"/><circle class="cls-2" cx="119.24" cy="96.46" r="6.31"/><polyline class="cls-2" points="128.2 149.75 128.21 149.74 136.58 137.37 145.14 124.69 145.57 124.06"/><polyline class="cls-2" points="127.89 128.75 128.13 129 136.26 137.13 148.63 149.5 148.65 149.51"/><line class="cls-2" x1="51.05" y1="67.78" x2="71.82" y2="70.65"/><line class="cls-2" x1="51.17" y1="116.96" x2="59.54" y2="117.74"/><path class="cls-2" d="M99.66,63.68l-18.3,7L76.6,54c1.12.31,2.23.69,3.33,1,.86.27,1.72.5,2.56.79,1.17.4,2.3.87,3.46,1.32.83.32,1.67.61,2.5,1,1.21.5,2.39,1.08,3.57,1.64.74.35,1.5.67,2.22,1C96.09,61.65,97.89,62.64,99.66,63.68Z"/><line class="cls-2" x1="76.6" y1="53.95" x2="76.44" y2="53.39"/><line class="cls-2" x1="99.2" y1="121.78" x2="99.2" y2="121.53"/></svg>