<svg id="Layer_1" data-name="Layer 1" xmlns="http://www.w3.org/2000/svg" viewBox="0 0 200 200"><defs><style>.cls-1,.cls-3{fill:blue;}.cls-2{fill:none;}.cls-2,.cls-3{stroke:#000;stroke-miterlimit:10;stroke-width:0.25px;}</style></defs><title>Artboard 5</title><path d="M146.66,123.94l-.06-.24h0c-.54-2-1.13-4-1.79-6a99.65,99.65,0,0,0-8-17.8,0,0,0,0,1,0,0l-.11-.19h0a100,100,0,0,0-15.47-20.43l-.1-.08c-1.52-1.54-3.08-3-4.69-4.46a97.71,97.71,0,0,0-15.53-11.32l-.21-.13h0c-1.79-1.06-3.62-2.06-5.47-3a95.08,95.08,0,0,0-18-6.87L77,53.33h0A96,96,0,0,0,51.86,50h-.25V150H150v-.25A100.69,100.69,0,0,0,146.66,123.94ZM52.1,50.5a95.3,95.3,0,0,1,24.77,3.32L72.87,69l-12.4,47L52.1,147.77ZM70.54,79.75,74,66.8l3.39-12.86c1.14.31,2.26.69,3.39,1,.85.27,1.71.5,2.56.79,1.16.4,2.3.87,3.45,1.32.83.32,1.68.61,2.5,1,1.21.5,2.39,1.08,3.57,1.64.74.35,1.5.67,2.23,1,1.84.93,3.64,1.92,5.42,3L94.83,73.6,87.69,86.18,52.53,148.07Zm26.48-9,3.87-6.81c1,.6,2,1.26,3,1.91.75.48,1.52.93,2.26,1.43,1.07.73,2.11,1.53,3.16,2.31.66.49,1.34,1,2,1.45,1.14.9,2.24,1.86,3.35,2.81.52.44,1,.85,1.56,1.3,1.53,1.37,3,2.8,4.48,4.27l-6.63,6.74-61,62Zm24,9c.78.79,1.51,1.63,2.26,2.45s1.38,1.46,2,2.23c.82.95,1.58,1.94,2.36,2.92.55.69,1.13,1.36,1.66,2.06.9,1.19,1.73,2.42,2.57,3.65.37.53.77,1,1.12,1.59,1.13,1.72,2.2,3.48,3.23,5.26L53.37,148.55Zm15.48,20.59c.53.94,1,1.91,1.51,2.86s1,1.81,1.43,2.73c.55,1.14,1,2.3,1.54,3.45.36.81.75,1.61,1.09,2.43.53,1.31,1,2.65,1.47,4,.25.7.53,1.38.76,2.08q1,2.94,1.78,6L53.5,149.05ZM53.72,149.5,129,129l16.69-4.54.56-.15c.29,1.12.52,2.27.78,3.4.2.9.44,1.79.61,2.69.25,1.27.43,2.55.63,3.83.13.83.29,1.64.4,2.47.18,1.41.29,2.83.41,4.25.07.71.16,1.42.21,2.13.14,2.13.22,4.28.22,6.42Z"/><polygon class="cls-1" points="87.69 86.18 52.53 148.07 70.54 79.75 87.69 86.18"/><path class="cls-1" d="M100.47,63.68,94.83,73.6,74,66.8l3.39-12.86c1.14.31,2.26.69,3.39,1,.85.27,1.71.5,2.56.79,1.16.4,2.3.87,3.45,1.32.83.32,1.68.61,2.5,1,1.21.5,2.39,1.08,3.57,1.64.74.35,1.5.67,2.23,1C96.89,61.65,98.69,62.64,100.47,63.68Z"/><path class="cls-2" d="M96.87,70.21c2.39,8.92,10.66,15.73,17.73,16"/><circle class="cls-2" cx="120.1" cy="96.46" r="6.31"/><path class="cls-3" d="M146.12,123.83l-16-7.58,6.42-15.91c.53.94,1,1.91,1.51,2.86s1,1.81,1.43,2.73c.55,1.14,1,2.3,1.54,3.45.36.81.75,1.61,1.09,2.43.53,1.31,1,2.65,1.47,4,.25.7.53,1.38.76,2.08Q145.33,120.81,146.12,123.83Z"/><polyline class="cls-2" points="128.75 128.75 129 129 137.13 137.13 149.5 149.5 149.51 149.51 128.75 149.51 128.76 149.5 137.13 137.13 145.69 124.46 146.12 123.83"/><line class="cls-2" x1="52.1" y1="66.13" x2="72.87" y2="69"/><line class="cls-2" x1="52.1" y1="115.25" x2="60.47" y2="116.03"/></svg>