<svg id="Layer_1" data-name="Layer 1" xmlns="http://www.w3.org/2000/svg" viewBox="0 0 200 200"><defs><style>.cls-1,.cls-3{fill:none;}.cls-2{fill:blue;}.cls-3{stroke:#000;stroke-miterlimit:10;stroke-width:4px;}</style></defs><title>Artboard 1</title><path d="M187.62,145.72l-.12-.45h0c-1-3.86-2.15-7.7-3.42-11.51a190.47,190.47,0,0,0-15.19-34l0,0-.21-.36A191.51,191.51,0,0,0,155.1,78.89a188,188,0,0,0-16-18.6l-.18-.13c-2.9-2.94-5.88-5.79-9-8.52A186.43,186.43,0,0,0,100.24,30l-.4-.23,0,0q-5.16-3-10.45-5.71A180.44,180.44,0,0,0,55,10.94l-.46-.13h0a183.42,183.42,0,0,0-48-6.36H6V194.7l60.78.27,26,.11,101.23.46v-.48A192.68,192.68,0,0,0,187.62,145.72ZM6.94,5.4a183.35,183.35,0,0,1,47.33,6.34L6.94,191.26ZM55.18,12c2.18.59,4.32,1.3,6.48,2,1.62.49,3.27.93,4.89,1.51,2.22.76,4.4,1.66,6.59,2.5,1.59.63,3.21,1.17,4.78,1.83,2.31,1,4.57,2.09,6.82,3.16,1.42.67,2.87,1.26,4.26,2q5.25,2.63,10.36,5.65L46.41,123.81,33.13,147.18,7.76,191.83ZM33.88,147.75l13.28-23.37,13.49-23.73,12.7-22.38L87.46,53.45l12.7-22.37c2,1.15,3.84,2.41,5.75,3.63,1.44.92,2.91,1.78,4.3,2.73,2.07,1.42,4.05,2.94,6.06,4.43,1.26.94,2.56,1.8,3.78,2.78,2.2,1.7,4.3,3.53,6.42,5.35,1,.84,2,1.62,3,2.5,2.93,2.62,5.77,5.33,8.56,8.14L120.66,78.27,101.54,97.71l-18.1,18.4L63.25,136.65,44.44,155.76,8.69,192.1ZM63.21,138,84,117l17.69-18L121,79.33l17.73-18c1.49,1.53,2.87,3.13,4.32,4.7,1.3,1.41,2.64,2.79,3.9,4.24,1.57,1.82,3,3.73,4.51,5.6,1,1.32,2.16,2.6,3.17,3.94,1.7,2.27,3.31,4.62,4.91,7,.71,1,1.47,2,2.14,3.06,2.16,3.28,4.2,6.63,6.15,10l-15,8.83-24.92,14.59a0,0,0,0,1,0,0L106.3,135.9l0,0L78,152.49l0,0-8.16,4.79-13.24,7.76a.18.18,0,0,1-.1.06l-9.17,5.39L9.36,192.77ZM47.77,171.33l22.47-13.19L80.71,152l0,0,14.66-8.6,20.1-11.79,28.18-16.52,10.74-6.29h0l13.83-8.14c1,1.8,1.93,3.63,2.89,5.46s1.87,3.44,2.73,5.22c1,2.16,2,4.38,2.94,6.59.69,1.55,1.43,3.08,2.07,4.65,1,2.5,1.91,5.06,2.82,7.6.48,1.32,1,2.62,1.46,4,1.26,3.76,2.38,7.56,3.4,11.38l-31,8.45-26.66,7.26-20.43,5.56L104.06,168,78.69,174.9l-17.85,4.87a0,0,0,0,0,0,0l-7.24,2-43.95,12ZM10,194.58l53.27-14.5s0,0,0,0l21.54-5.87s0,0,0,0L110,167.37l76.88-20.94c.56,2.16,1,4.34,1.5,6.52.38,1.7.82,3.4,1.16,5.12.48,2.42.82,4.89,1.2,7.34.23,1.56.56,3.13.77,4.72.34,2.69.55,5.4.78,8.1.12,1.37.31,2.71.4,4.07.27,4.09.4,8.17.42,12.28Z"/><path class="cls-1" d="M193.06,194.58H10l176.8-48.15c.56,2.16,1,4.34,1.5,6.52.38,1.7.82,3.4,1.16,5.12.48,2.42.82,4.89,1.2,7.34.23,1.56.56,3.13.77,4.72.34,2.69.55,5.4.78,8.1.12,1.37.31,2.71.4,4.07C192.91,186.39,193,190.47,193.06,194.58Z"/><path class="cls-2" d="M186.59,145.51l-31,8.45-11.89-38.88,10.74-6.29,13.87-8.14c1,1.8,1.93,3.63,2.89,5.46s1.87,3.44,2.73,5.22c1,2.16,2,4.38,2.94,6.59.69,1.55,1.43,3.08,2.07,4.65,1,2.5,1.91,5.06,2.82,7.6.48,1.32,1,2.62,1.46,4C184.45,137.89,185.57,141.69,186.59,145.51Z"/><polygon class="cls-2" points="128.9 161.22 108.47 166.78 104.06 167.99 95.39 143.39 115.49 131.6 128.9 161.22"/><path class="cls-2" d="M78.69,174.9l-17.85,4.87a0,0,0,0,0,0,0l-7.24,2-5.79-10.41,22.47-13.19Z"/><polygon class="cls-1" points="47.77 171.33 53.56 181.74 9.61 193.7 47.77 171.33"/><polygon class="cls-1" points="104.06 167.99 78.69 174.9 70.24 158.15 80.71 152.01 80.73 151.99 95.39 143.39 104.06 167.99"/><polygon class="cls-1" points="155.56 153.96 128.9 161.22 115.49 131.6 143.67 115.08 155.56 153.96"/><path class="cls-1" d="M167.8,99.83,9.36,192.77,138.7,61.29c1.49,1.53,2.87,3.13,4.32,4.7,1.3,1.41,2.64,2.79,3.9,4.24,1.57,1.82,3,3.73,4.51,5.6,1,1.32,2.16,2.6,3.17,3.94,1.7,2.27,3.31,4.62,4.91,7,.71,1,1.47,2,2.14,3.06C163.81,93.06,165.85,96.41,167.8,99.83Z"/><path class="cls-1" d="M138,60.64,8.69,192.1l91.47-161c2,1.15,3.84,2.41,5.75,3.63,1.44.92,2.91,1.78,4.3,2.73,2.07,1.42,4.05,2.94,6.06,4.43,1.26.94,2.56,1.8,3.78,2.78,2.2,1.7,4.3,3.53,6.42,5.35,1,.84,2,1.62,3,2.5C132.38,55.12,135.22,57.83,138,60.64Z"/><path class="cls-1" d="M99.36,30.6,7.76,191.83,55.18,12c2.18.59,4.32,1.3,6.48,2,1.62.49,3.27.93,4.89,1.51,2.22.76,4.4,1.66,6.59,2.5,1.59.63,3.21,1.17,4.78,1.83,2.31,1,4.57,2.09,6.82,3.16,1.42.67,2.87,1.26,4.26,2Q94.25,27.58,99.36,30.6Z"/><path class="cls-2" d="M54.27,11.74,6.94,191.26V5.4A183.35,183.35,0,0,1,54.27,11.74Z"/><circle class="cls-2" cx="70.65" cy="41.91" r="10.83"/><line class="cls-3" x1="33.13" y1="147.18" x2="44.45" y2="155.75"/><line class="cls-3" x1="46.41" y1="123.8" x2="63.24" y2="136.65"/><line class="cls-3" x1="60.64" y1="100.65" x2="83.45" y2="116.11"/><line class="cls-3" x1="73.35" y1="78.27" x2="101.55" y2="97.71"/><line class="cls-3" x1="87.45" y1="53.46" x2="120.67" y2="78.27"/><path class="cls-3" d="M120.67,78.27c4.57,17,20.36,30.05,33.87,30.52"/><path class="cls-3" d="M66.78,195l.29-.39c4.6-6.76,3.46-13-3.75-14.5,0,0,0,0,0,0a13.76,13.76,0,0,0-2.46-.31"/><path class="cls-3" d="M60.8,179.77h-.15"/><path class="cls-3" d="M84,174c11.17,2.17,14.27,12.12,8.69,21.2"/><path class="cls-3" d="M108.22,167.25c12.57,4.44,17.5,17.33,12.78,27.8"/><path class="cls-3" d="M134.7,160.63c14,6.7,20.73,22.55,16.88,34.42"/><path class="cls-3" d="M161.77,153.3c15.4,9,24,27.86,21,41.15"/><path class="cls-3" d="M101.55,98.33c2.6,15.2,15.71,25.68,27.89,24.9"/><path class="cls-3" d="M83.88,116.11c.81,13.51,11.49,21.71,22.45,19.78"/><path class="cls-3" d="M63.24,136.4c-.69,12.1,7.94,18.37,17.88,15.49"/><path class="cls-3" d="M45.9,155.75c-2.92,10,2.67,13.42,11.1,9.12"/><line class="cls-3" x1="47.77" y1="171.33" x2="47.31" y2="170.51"/><line class="cls-3" x1="70.24" y1="158.14" x2="69.82" y2="157.3"/><line class="cls-3" x1="143.67" y1="115.08" x2="143.57" y2="114.77"/></svg>