<svg id="Layer_1" data-name="Layer 1" xmlns="http://www.w3.org/2000/svg" viewBox="0 0 200 200"><defs><style>.cls-1,.cls-3{fill:blue;}.cls-2{fill:none;}.cls-2,.cls-3{stroke:#000;stroke-miterlimit:10;stroke-width:4px;}</style></defs><title>Artboard 5</title><path d="M188.13,146l-.12-.46h0c-1-3.9-2.18-7.77-3.45-11.57a191.4,191.4,0,0,0-15.27-34.21.07.07,0,0,1,0-.06l-.22-.36h0a192.28,192.28,0,0,0-29.74-39.27l-.19-.15q-4.38-4.44-9-8.57A187.93,187.93,0,0,0,100.24,29.6l-.4-.25,0,0c-3.44-2-7-4-10.52-5.75a182.59,182.59,0,0,0-34.59-13.2l-.46-.12v0A184.86,184.86,0,0,0,5.93,3.9H5.45V196.1h189.1v-.48A193.41,193.41,0,0,0,188.13,146ZM6.39,4.87A182.76,182.76,0,0,1,54,11.25L46.31,40.42,22.48,130.81l-16.09,61ZM41.83,61.08l6.58-24.89,6.51-24.71c2.19.59,4.34,1.32,6.52,2,1.63.51,3.28,1,4.92,1.51,2.23.77,4.42,1.68,6.63,2.54,1.59.62,3.23,1.17,4.8,1.85,2.33,1,4.6,2.07,6.86,3.15,1.43.67,2.89,1.29,4.29,2,3.54,1.78,7,3.69,10.42,5.69L88.52,49.26,74.79,73.44l-67.57,119Zm50.9-17.32,7.43-13.08c2,1.15,3.87,2.42,5.79,3.67,1.44.92,2.92,1.78,4.34,2.75,2.06,1.4,4.06,2.94,6.08,4.44,1.26.94,2.57,1.82,3.82,2.78,2.19,1.73,4.3,3.58,6.44,5.4,1,.85,2,1.64,3,2.5,2.94,2.63,5.82,5.38,8.61,8.21L125.49,73.38,8.16,192.64Zm46.2,17.32c1.5,1.52,2.9,3.13,4.34,4.71,1.31,1.42,2.65,2.81,3.92,4.29,1.58,1.82,3,3.72,4.54,5.61,1.06,1.32,2.17,2.61,3.19,4,1.73,2.28,3.32,4.65,4.94,7,.71,1,1.48,2,2.15,3.06,2.17,3.3,4.23,6.69,6.21,10.11L8.83,193.31Zm29.75,39.57c1,1.81,1.94,3.67,2.9,5.5s1.89,3.48,2.75,5.25c1.06,2.19,2,4.42,3,6.63.69,1.55,1.44,3.09,2.09,4.67,1,2.52,1.91,5.09,2.83,7.65.48,1.34,1,2.65,1.46,4,1.27,3.77,2.4,7.6,3.42,11.46l-178,48.47ZM9.51,195.13l144.68-39.39L186.27,147l1.07-.29c.56,2.15,1,4.36,1.5,6.54.39,1.73.85,3.44,1.17,5.17.48,2.44.83,4.9,1.21,7.36.25,1.59.56,3.15.77,4.74.35,2.71.56,5.44.79,8.17.14,1.37.31,2.73.4,4.1.27,4.09.43,8.22.43,12.33Z"/><polygon class="cls-1" points="74.79 73.44 7.22 192.39 41.83 61.08 74.79 73.44"/><path class="cls-1" d="M99.36,30.2,88.52,49.26,48.41,36.19l6.51-24.71c2.19.59,4.34,1.32,6.52,2,1.63.51,3.28,1,4.92,1.51,2.23.77,4.42,1.68,6.63,2.54,1.59.62,3.23,1.17,4.8,1.85,2.33,1,4.6,2.07,6.86,3.15,1.43.67,2.89,1.29,4.29,2C92.48,26.29,95.94,28.2,99.36,30.2Z"/><path class="cls-2" d="M92.44,42.75C97,59.89,112.92,73,126.51,73.45"/><circle class="cls-2" cx="137.09" cy="93.19" r="12.13"/><path class="cls-3" d="M187.09,145.8l-30.75-14.57,12.34-30.58c1,1.81,1.94,3.67,2.9,5.5s1.89,3.48,2.75,5.25c1.06,2.19,2,4.42,3,6.63.69,1.55,1.44,3.09,2.09,4.67,1,2.52,1.91,5.09,2.83,7.65.48,1.34,1,2.65,1.46,4C184.94,138.11,186.07,141.94,187.09,145.8Z"/><polyline class="cls-2" points="153.71 155.25 154.19 155.74 169.81 171.36 193.59 195.13 193.61 195.15 153.71 195.15 153.73 195.13 169.81 171.36 186.26 147.01 187.09 145.8"/><line class="cls-2" x1="6.4" y1="34.9" x2="46.31" y2="40.42"/><line class="cls-2" x1="6.4" y1="129.31" x2="22.48" y2="130.8"/></svg>