<svg id="Layer_1" data-name="Layer 1" xmlns="http://www.w3.org/2000/svg" viewBox="0 0 200 200"><defs><style>.cls-1{fill:blue;}.cls-2{fill:none;stroke:#000;stroke-miterlimit:10;stroke-width:4px;}</style></defs><title>Artboard 7</title><path d="M188,146l-.11-.46c-1.06-3.89-2.17-7.75-3.46-11.55A189.67,189.67,0,0,0,169.2,99.77v-.06l-.23-.36h0a191.08,191.08,0,0,0-29.69-39.23l-.19-.15c-2.92-3-5.91-5.8-9-8.57a187.38,187.38,0,0,0-29.84-21.73l-.4-.25v0c-3.46-2-7-4-10.52-5.74A181.93,181.93,0,0,0,54.76,10.51h0l-.45-.12v0A184.49,184.49,0,0,0,6,4H5.54V196H194.46v-.48A192.65,192.65,0,0,0,188,146ZM6.48,5a183.36,183.36,0,0,1,47.57,6.37l-8.5,32.28L21.72,134,6.48,191.72ZM55,11.56l.11,0c2.15.6,4.28,1.33,6.4,2,1.65.52,3.3,1,4.91,1.52,2.25.77,4.42,1.67,6.64,2.53,1.6.62,3.21,1.17,4.8,1.85,2.33,1,4.59,2.07,6.86,3.14,1.42.68,2.88,1.29,4.26,2,3.55,1.79,7,3.69,10.41,5.69l-92,162Zm38.49,31,0,0,6.7-11.78c1.94,1.15,3.86,2.41,5.78,3.66,1.44.92,2.9,1.79,4.32,2.75,2.06,1.4,4.07,2.94,6.09,4.43,1.25.94,2.55,1.83,3.82,2.79,2.19,1.73,4.28,3.57,6.41,5.39,1,.85,2,1.63,3,2.5q4.42,3.94,8.62,8.2L126.59,72.26,8.26,192.54ZM138.9,61.12c1.5,1.52,2.9,3.13,4.34,4.7s2.65,2.81,3.9,4.29c1.59,1.82,3.05,3.72,4.53,5.6,1.07,1.33,2.17,2.61,3.2,4,1.73,2.28,3.31,4.64,4.94,7,.71,1,1.46,2,2.15,3,2.17,3.3,4.22,6.68,6.18,10.1L8.93,193.22Zm-40.44,80.7,29.67-17.4,40.47-23.77c1,1.81,1.94,3.67,2.9,5.49s1.9,3.48,2.75,5.25c1.07,2.18,2,4.41,3,6.62.69,1.55,1.44,3.09,2.08,4.67,1,2.51,1.9,5.08,2.84,7.64.48,1.34,1,2.65,1.46,4q1.89,5.64,3.41,11.44l-46,12.52L98.1,170,9.18,194.18ZM9.59,195l144.46-39.32h0l33.06-9h0l.11,0c.54,2.15,1,4.35,1.5,6.52.37,1.73.83,3.44,1.17,5.17.48,2.44.83,4.89,1.21,7.35.25,1.6.56,3.15.75,4.74.35,2.71.58,5.44.81,8.16.13,1.37.29,2.73.38,4.09.27,4.09.44,8.22.44,12.33Z"/><path class="cls-1" d="M99.35,30.27l-92,162L55,11.56l.11,0,9.14,32.07Z"/><polygon class="cls-1" points="141.02 158.27 98.09 169.97 98.45 141.82 128.12 124.42 141.02 158.27"/><path class="cls-2" d="M93.19,41.62c4.59,17.13,20.46,30.19,34,30.67"/><circle class="cls-2" cx="136.94" cy="93.2" r="12.12"/><polyline class="cls-2" points="154.14 195.51 154.16 195.49 170.22 171.74 186.66 147.41 187.49 146.2"/><polyline class="cls-2" points="153.54 155.2 154.02 155.68 169.63 171.29 193.38 195.04 193.4 195.06"/><line class="cls-2" x1="6.02" y1="38.13" x2="45.89" y2="43.65"/><line class="cls-2" x1="6.25" y1="132.56" x2="22.31" y2="134.05"/><path class="cls-2" d="M99.35,30.27,64.21,43.65,55.07,11.58c2.15.6,4.28,1.33,6.4,2,1.65.52,3.3,1,4.91,1.52,2.25.77,4.42,1.67,6.64,2.53,1.6.62,3.21,1.17,4.8,1.85,2.33,1,4.59,2.07,6.86,3.14,1.42.68,2.88,1.29,4.26,2C92.49,26.37,96,28.27,99.35,30.27Z"/><line class="cls-2" x1="55.06" y1="11.58" x2="54.76" y2="10.51"/><line class="cls-2" x1="98.45" y1="141.82" x2="98.45" y2="141.34"/></svg>