<svg id="Layer_1" data-name="Layer 1" xmlns="http://www.w3.org/2000/svg" viewBox="0 0 200 200"><defs><style>.cls-1{fill:blue;}.cls-2{fill:none;stroke:#000;stroke-miterlimit:10;stroke-width:0.25px;}.cls-3{fill:#fff;}</style></defs><title>Artboard 2</title><path d="M148.39,50h-.25A96,96,0,0,0,123,53.34h0l-.24.06a95.08,95.08,0,0,0-18,6.87c-1.85.93-3.68,1.93-5.47,3h0l-.21.13A97.71,97.71,0,0,0,83.54,74.69c-1.61,1.44-3.17,2.92-4.69,4.46l-.1.08A100,100,0,0,0,63.28,99.66h0l-.11.19a0,0,0,0,1,0,0,99.65,99.65,0,0,0-7.95,17.8c-.66,2-1.25,4-1.79,6h0l-.06.24A100.69,100.69,0,0,0,50,149.75V150h98.46Zm-97.9,99.5c0-2.14.08-4.29.22-6.42,0-.71.14-1.42.21-2.13.12-1.42.23-2.84.41-4.25.11-.83.27-1.64.4-2.47.2-1.28.38-2.56.63-3.83.17-.9.41-1.79.61-2.69.26-1.13.49-2.28.78-3.4l10.77,2.93,42.17,11.48,39.59,10.78Zm82.37-4.17-25.82-7h0l-7.8-2.13L76.37,130l-11.49-3.12-11-3q.79-3,1.78-6c.23-.7.51-1.38.76-2.08.48-1.33.94-2.67,1.47-4,.34-.82.73-1.62,1.09-2.43.5-1.15,1-2.31,1.54-3.45.45-.92.95-1.82,1.43-2.73s1-1.92,1.51-2.86l16.29,9.56,8.6,5,19.33,11.34,6.26,3.67L135,142.33l11.46,6.72Zm-9.52-10.44-16.1-9.44L96.58,119.2,84.23,112l-15.69-9.2L63.7,99.91c1-1.78,2.1-3.54,3.23-5.26.35-.54.75-1.06,1.12-1.59.84-1.23,1.67-2.46,2.57-3.65.53-.7,1.11-1.37,1.66-2.06.78-1,1.54-2,2.36-2.92.66-.77,1.36-1.49,2-2.23s1.48-1.66,2.26-2.45l4.34,4.41L95.49,96.58l10,10.2,9.23,9.38,13,13.22,18.86,19.17Zm5.58-5h0l-13.39-13.6-9.38-9.54L96.07,96.45,83.82,84,79.3,79.41c1.45-1.47,3-2.9,4.48-4.27.51-.45,1-.86,1.56-1.3,1.11-1,2.21-1.91,3.35-2.81.65-.5,1.33-1,2-1.45,1-.78,2.09-1.58,3.16-2.31.74-.5,1.51-1,2.26-1.43,1-.65,2-1.31,3-1.91l3.81,6.71,7.53,13.24h0l7.71,13.57,7,12.26,9.35,16.46,12.51,22ZM99.53,63.68c1.78-1,3.58-2,5.42-3,.73-.36,1.49-.68,2.23-1,1.18-.56,2.36-1.14,3.57-1.64.82-.35,1.67-.64,2.5-1,1.15-.45,2.29-.92,3.45-1.32.85-.29,1.71-.52,2.56-.79,1.13-.35,2.25-.73,3.39-1l17.07,64.75v0l7.75,29.36Zm48.37,84.09-8-30.19-2.66-10.08-3.34-12.68-4-15.11-3.5-13.26-3.33-12.63A95.3,95.3,0,0,1,147.9,50.5Z"/><path class="cls-1" d="M147.47,148.07,99.53,63.68c1.78-1,3.58-2,5.42-3,.73-.36,1.49-.68,2.23-1,1.18-.56,2.36-1.14,3.57-1.64.82-.35,1.67-.64,2.5-1,1.15-.45,2.29-.92,3.45-1.32.85-.29,1.71-.52,2.56-.79,1.13-.35,2.25-.73,3.39-1l17.07,64.75v0Z"/><polygon class="cls-1" points="146.5 149.05 132.86 145.33 135.04 142.33 146.5 149.05"/><polygon class="cls-1" points="113.94 129.95 107.04 138.3 107.03 138.3 99.23 136.17 107.68 126.28 113.94 129.95"/><polygon class="cls-1" points="88.35 114.94 76.37 129.95 64.88 126.83 79.75 109.9 88.35 114.94"/><path class="cls-1" d="M146.28,149.5H50.49c0-2.14.08-4.29.22-6.42,0-.71.14-1.42.21-2.13.12-1.42.23-2.84.41-4.25.11-.83.27-1.64.4-2.47.2-1.28.38-2.56.63-3.83.17-.9.41-1.79.61-2.69.26-1.13.49-2.28.78-3.4l10.77,2.93,42.17,11.48Z"/><line class="cls-2" x1="123.25" y1="135" x2="127.9" y2="129.21"/><line class="cls-2" x1="107.12" y1="125.6" x2="114.93" y2="115.95"/><line class="cls-2" x1="96.5" y1="119.31" x2="105.67" y2="106.58"/><line class="cls-2" x1="84.23" y1="111.95" x2="95.58" y2="96.46"/><line class="cls-2" x1="68.54" y1="102.75" x2="83.4" y2="84"/><path class="cls-2" d="M139.72,118.71l0,.26"/><path class="cls-2" d="M139.72,118.69a5.73,5.73,0,0,1,.19-1h0l0-.1c1-3.64,4.24-4.07,7.64-1.52l.19.16.13.1.31.25"/><path class="cls-2" d="M137.11,108.15c1.35-5.76,6.56-7.11,11.14-4"/><path class="cls-2" d="M133.78,95.19c2.49-6.39,9.18-8.57,14.47-5.82"/><path class="cls-2" d="M129.86,79.88c3.83-7.14,12.27-10.31,18.39-8"/><path class="cls-2" d="M126.2,66.84c5.07-7.84,15.13-11.91,22-10"/><path class="cls-2" d="M103,70.39C99.51,78.94,90.45,84.63,83.4,84"/><path class="cls-2" d="M110.48,83.73C108.93,91.65,102,97,95.58,96.42"/><path class="cls-2" d="M118.2,97.19c-1,7-6.89,10.85-12.53,9.39"/><path class="cls-2" d="M125.19,109.06c-.39,6.33-5.27,9-10.26,6.94"/><path class="cls-2" d="M134.4,125.39c.67,5.41-2.5,6.71-6.5,3.78"/><line class="cls-2" x1="64.88" y1="126.83" x2="64.52" y2="127.24"/><line class="cls-2" x1="107.03" y1="138.3" x2="106.69" y2="138.72"/><circle class="cls-3" cx="115.61" cy="66.84" r="5.76"/></svg>