<svg id="Layer_1" data-name="Layer 1" xmlns="http://www.w3.org/2000/svg" viewBox="0 0 200 200"><defs><style>.cls-1{fill:blue;}.cls-2{fill:none;stroke:#000;stroke-miterlimit:10;stroke-width:4px;}</style></defs><title>Artboard 4</title><path d="M188.13,146l-.12-.46h0c-1-3.9-2.18-7.77-3.45-11.57a191.4,191.4,0,0,0-15.27-34.21.07.07,0,0,1,0-.06l-.22-.36h0a192.28,192.28,0,0,0-29.74-39.27l-.19-.15q-4.38-4.44-9-8.57A187.93,187.93,0,0,0,100.24,29.6l-.4-.25,0,0c-3.44-2-7-4-10.52-5.75a182.59,182.59,0,0,0-34.59-13.2l-.46-.12v0A184.86,184.86,0,0,0,5.93,3.9H5.45V196.1h189.1v-.48A193.41,193.41,0,0,0,188.13,146ZM6.39,4.87A182.76,182.76,0,0,1,54,11.25l-9.71,36.8L6.39,191.81Zm48,8.49.5-1.88c2.19.59,4.34,1.32,6.52,2,1.63.51,3.28,1,4.92,1.51,2.23.77,4.42,1.68,6.63,2.54,1.59.62,3.23,1.17,4.8,1.85,2.33,1,4.6,2.07,6.86,3.15,1.43.67,2.89,1.29,4.29,2,3.54,1.78,7,3.69,10.42,5.69l-.83,1.46L7.22,192.39Zm45.74,17.32c2,1.15,3.87,2.42,5.79,3.67,1.44.92,2.92,1.78,4.34,2.75,2.06,1.4,4.06,2.94,6.08,4.44,1.26.94,2.57,1.82,3.82,2.78,2.19,1.73,4.3,3.58,6.44,5.4,1,.85,2,1.64,3,2.5,2.94,2.63,5.82,5.38,8.61,8.21L8.16,192.64Zm38.77,30.4c1.5,1.52,2.9,3.13,4.34,4.71,1.31,1.42,2.65,2.81,3.92,4.29,1.58,1.82,3,3.72,4.54,5.61,1.06,1.32,2.17,2.61,3.19,4,1.73,2.28,3.32,4.65,4.94,7,.71,1,1.48,2,2.15,3.06,2.17,3.3,4.23,6.69,6.21,10.11L124,125.73,8.83,193.31ZM48.87,170.94v0l75.51-44.28,44.3-26c1,1.81,1.94,3.67,2.9,5.5s1.89,3.48,2.75,5.25c1.06,2.19,2,4.42,3,6.63.69,1.55,1.44,3.09,2.09,4.67,1,2.52,1.91,5.09,2.83,7.65.48,1.34,1,2.65,1.46,4,1.27,3.77,2.4,7.6,3.42,11.46l-49.87,13.57L54,182,9.08,194.27ZM9.51,195.13l39.36-10.72L142.06,159l45.28-12.32c.56,2.15,1,4.36,1.5,6.54.39,1.73.85,3.44,1.17,5.17.48,2.44.83,4.9,1.21,7.36.25,1.59.56,3.15.77,4.74.35,2.71.56,5.44.79,8.17.14,1.37.31,2.73.4,4.1.27,4.09.43,8.22.43,12.33Z"/><polygon class="cls-1" points="54 182.03 9.08 194.27 48.87 170.94 54 182.03"/><path class="cls-1" d="M187.09,145.8l-49.87,13.57-12.84-32.73,44.3-26c1,1.81,1.94,3.67,2.9,5.5s1.89,3.48,2.75,5.25c1.06,2.19,2,4.42,3,6.63.69,1.55,1.44,3.09,2.09,4.67,1,2.52,1.91,5.09,2.83,7.65.48,1.34,1,2.65,1.46,4C184.94,138.11,186.07,141.94,187.09,145.8Z"/><path class="cls-2" d="M92.56,42.75C97.16,59.89,113,73,126.63,73.45"/><line class="cls-2" x1="6.4" y1="4.86" x2="44.3" y2="48.05"/><path class="cls-1" d="M99.36,30.2l-.83,1.46L62.42,53.39l-8-40,.5-1.88c2.19.59,4.34,1.32,6.52,2,1.63.51,3.28,1,4.92,1.51,2.23.77,4.42,1.68,6.63,2.54,1.59.62,3.23,1.17,4.8,1.85,2.33,1,4.6,2.07,6.86,3.15,1.43.67,2.89,1.29,4.29,2C92.48,26.29,95.94,28.2,99.36,30.2Z"/><line class="cls-2" x1="100.16" y1="30.68" x2="98.53" y2="31.66"/><polyline class="cls-2" points="54.42 13.36 54 11.25 28.98 30.6 6.39 48.05"/><circle class="cls-2" cx="137.21" cy="93.19" r="12.13"/><line class="cls-2" x1="48.87" y1="170.94" x2="48.87" y2="170.92"/><line class="cls-2" x1="124.38" y1="126.64" x2="124.03" y2="125.73"/><line class="cls-2" x1="142.05" y1="159.05" x2="149.34" y2="195.14"/><line class="cls-2" x1="48.87" y1="184.42" x2="51.44" y2="195.14"/></svg>