<svg id="Layer_1" data-name="Layer 1" xmlns="http://www.w3.org/2000/svg" viewBox="0 0 135.33 200"><defs><style>.cls-1{fill:#fff;}.cls-2{fill:none;stroke:#000;stroke-linecap:round;stroke-linejoin:round;stroke-width:5px;}</style></defs><title>Artboard 1</title><polygon class="cls-1" points="9.13 134.61 67.67 33.23 126.2 134.61 9.13 134.61"/><path d="M67.67,38.22l54.2,93.89H13.46L67.67,38.22m0-10L4.8,137.11H130.53L67.67,28.22Z"/><path class="cls-1" d="M67.67,23.61C58.45,23.61,52,19.19,52,15.22s6.43-8.39,15.65-8.39,15.64,4.42,15.64,8.39S76.89,23.61,67.67,23.61Z"/><path d="M67.67,9.33c7.9,0,13.14,3.55,13.14,5.89s-5.24,5.89-13.14,5.89-13.15-3.54-13.15-5.89,5.24-5.89,13.15-5.89m0-5c-10,0-18.15,4.88-18.15,10.89s8.12,10.89,18.15,10.89,18.14-4.87,18.14-10.89S77.69,4.33,67.67,4.33Z"/><polygon class="cls-2" points="67.67 141.22 36.23 195.67 99.1 195.67 67.67 141.22"/></svg>