<svg id="Layer_1" data-name="Layer 1" xmlns="http://www.w3.org/2000/svg" viewBox="0 0 200 200"><defs><style>.cls-1{fill:#fff;}.cls-2{fill:none;stroke:#000;stroke-linecap:round;stroke-linejoin:round;stroke-width:0.25px;}</style></defs><title>Artboard 1</title><polygon class="cls-1" points="56.91 124.4 100 49.77 143.09 124.4 56.91 124.4"/><path d="M100,50l42.87,74.25H57.13L100,50m0-.5-43.3,75h86.6l-43.3-75Z"/><ellipse class="cls-1" cx="100" cy="40.56" rx="12.38" ry="7.38"/><path d="M100,33.31c6.75,0,12.25,3.26,12.25,7.25s-5.5,7.25-12.25,7.25-12.25-3.25-12.25-7.25,5.5-7.25,12.25-7.25m0-.25c-6.9,0-12.5,3.36-12.5,7.5s5.6,7.5,12.5,7.5,12.5-3.35,12.5-7.5-5.6-7.5-12.5-7.5Z"/><polygon class="cls-2" points="100 132.81 78.35 170.31 121.65 170.31 100 132.81"/></svg>