<svg xmlns="http://www.w3.org/2000/svg" viewBox="0 0 58.19 129.25"><defs><style>.cls-1,.cls-3{fill:none;stroke:#000;stroke-miterlimit:10;}.cls-1{stroke-width:2px;}.cls-2,.cls-3{fill-rule:evenodd;}</style></defs><title>Artboard6</title><g id="Layer_2" data-name="Layer 2"><g id="Layer_1-2" data-name="Layer 1"><line class="cls-1" x1="9.09" y1="14.25" x2="9.09" y2="114.25"/><polygon class="cls-2" points="9.09 129.25 0.43 114.25 17.75 114.25 9.09 129.25"/><polyline class="cls-3" points="17.75 0.25 9.09 15.25 0.43 0.25"/><polyline class="cls-3" points="17.75 8.25 9.09 23.25 0.43 8.25"/><polyline class="cls-3" points="17.75 16.25 9.09 31.25 0.43 16.25"/><line class="cls-1" x1="49.09" y1="14.25" x2="49.09" y2="114.25"/><polygon class="cls-2" points="49.09 129.25 40.43 114.25 57.75 114.25 49.09 129.25"/><polyline class="cls-3" points="57.75 0.25 49.09 15.25 40.43 0.25"/><polyline class="cls-3" points="57.75 8.25 49.09 23.25 40.43 8.25"/><polyline class="cls-3" points="57.75 16.25 49.09 31.25 40.43 16.25"/></g></g></svg>