<svg xmlns="http://www.w3.org/2000/svg" viewBox="0 0 129.5 58.19"><defs><style>.cls-1,.cls-3{fill:none;stroke:#000;stroke-miterlimit:10;}.cls-1{stroke-width:2px;}.cls-2,.cls-3{fill-rule:evenodd;}</style></defs><title>Artboard2</title><g id="Layer_2" data-name="Layer 2"><g id="Layer_1-2" data-name="Layer 1"><line class="cls-1" x1="14.25" y1="9.09" x2="114.25" y2="9.09"/><polygon class="cls-2" points="129.25 9.09 114.25 17.75 114.25 0.43 129.25 9.09"/><polyline class="cls-3" points="0.25 0.43 15.25 9.09 0.25 17.75"/><polyline class="cls-3" points="8.25 0.43 23.25 9.09 8.25 17.75"/><polyline class="cls-3" points="16.25 0.43 31.25 9.09 16.25 17.75"/><line class="cls-1" x1="115.25" y1="49.09" x2="15.25" y2="49.09"/><polygon class="cls-2" points="0.25 49.09 15.25 40.43 15.25 57.75 0.25 49.09"/><polyline class="cls-3" points="129.25 57.75 114.25 49.09 129.25 40.43"/><polyline class="cls-3" points="121.25 57.75 106.25 49.09 121.25 40.43"/><polyline class="cls-3" points="113.25 57.75 98.25 49.09 113.25 40.43"/></g></g></svg>